<?xml version="1.0" encoding="iso-8859-1"?>
<!-- Generator: Adobe Illustrator 19.0.0, SVG Export Plug-In . SVG Version: 6.00 Build 0)  -->
<svg version="1.1" id="Capa_1" xmlns="http://www.w3.org/2000/svg" xmlns:xlink="http://www.w3.org/1999/xlink" x="0px" y="0px"
	 viewBox="0 0 512 512" style="enable-background:new 0 0 512 512;" xml:space="preserve">
<polygon style="fill:#EFEDEE;" points="314.153,410.526 314.153,386.873 197.856,386.873 197.856,410.524 197.85,410.524 
	186.409,455.253 197.856,511.999 314.153,511.999 327.516,455.744 "/>
<path style="fill:#008FC7;" d="M399.485,505.465l7.724,6.533h41.824c0-116.647-77.243-125.126-77.243-125.126h-57.639v125.126
	h77.608L399.485,505.465z"/>
<path style="fill:#007BAB;" d="M391.758,512v-42.667c0-4.267,3.459-7.726,7.726-7.726c4.267,0,7.726,3.459,7.726,7.726V512H391.758z
	"/>
<path style="fill:#008FC7;" d="M140.207,386.873c0,0-77.233,8.478-77.233,125.126h41.82l7.723-4.698l7.724,4.698h77.614V386.873
	H140.207z"/>
<path style="fill:#007BAB;" d="M104.791,512v-42.667c0-4.267,3.459-7.726,7.726-7.726s7.726,3.459,7.726,7.726V512H104.791z"/>
<g>
	<polygon style="fill:#00A1E0;" points="371.795,386.869 399.485,422.194 346.496,449.434 369.206,469.334 314.152,512 
		314.152,410.524 336.861,375.398 	"/>
	<polygon style="fill:#00A1E0;" points="140.207,386.869 112.517,422.194 165.507,449.434 142.796,469.334 197.85,512 
		197.85,410.524 175.141,375.398 	"/>
</g>
<g>
	<path style="fill:#7A4C37;" d="M314.152,410.524c0,0-18.408,36.961-58.151,49.348c-39.742-12.387-58.151-49.348-58.151-49.348
		H314.152z"/>
	<circle style="fill:#7A4C37;" cx="431.657" cy="82.239" r="59.864"/>
</g>
<circle style="fill:#FF99B1;" cx="431.657" cy="82.239" r="27.807"/>
<circle style="fill:#7A4C37;" cx="80.343" cy="82.239" r="59.864"/>
<circle style="fill:#FF99B1;" cx="80.343" cy="82.239" r="27.807"/>
<ellipse style="fill:#A36549;" cx="256.001" cy="208.921" rx="220.902" ry="208.921"/>
<path style="fill:#87543D;" d="M66.004,208.92c0-110.469,90.66-200.899,205.45-208.403C266.347,0.183,261.197,0,256.001,0
	C134,0,35.098,93.536,35.098,208.92c0,115.382,98.902,208.92,220.903,208.92c5.196,0,10.346-0.183,15.453-0.516
	C156.664,409.819,66.004,319.389,66.004,208.92z"/>
<path style="fill:#3A484A;" d="M156.034,229.373c-4.267,0-7.726-3.459-7.726-7.726v-19.437c0-4.267,3.459-7.726,7.726-7.726
	c4.267,0,7.726,3.459,7.726,7.726v19.437C163.761,225.914,160.301,229.373,156.034,229.373z"/>
<path style="fill:#FF99B1;" d="M169.271,257.943h-26.475c-4.267,0-7.726-3.459-7.726-7.726c0-4.267,3.459-7.726,7.726-7.726h26.475
	c4.267,0,7.726,3.459,7.726,7.726C176.997,254.484,173.538,257.943,169.271,257.943z"/>
<path style="fill:#3A484A;" d="M355.968,229.373c-4.267,0-7.726-3.459-7.726-7.726v-19.437c0-4.267,3.459-7.726,7.726-7.726
	c4.267,0,7.726,3.459,7.726,7.726v19.437C363.694,225.914,360.236,229.373,355.968,229.373z"/>
<path style="fill:#FF99B1;" d="M369.206,257.943h-26.475c-4.267,0-7.726-3.459-7.726-7.726c0-4.267,3.459-7.726,7.726-7.726h26.475
	c4.267,0,7.726,3.459,7.726,7.726C376.932,254.484,373.473,257.943,369.206,257.943z"/>
<g>
	<path style="fill:#3A484A;" d="M256.001,268.199c-9.199,0-17.836-3.847-23.697-10.552c-2.808-3.213-2.481-8.094,0.732-10.902
		c3.212-2.807,8.093-2.481,10.902,0.732c2.927,3.349,7.324,5.269,12.062,5.269s9.136-1.92,12.062-5.269
		c2.808-3.213,7.689-3.541,10.902-0.732c3.213,2.808,3.541,7.689,0.731,10.902C273.837,264.354,265.199,268.199,256.001,268.199z"/>
	<path style="fill:#3A484A;" d="M273.881,225.436c0,6.271-8.006,11.355-17.88,11.355c-9.875,0-17.88-5.084-17.88-11.355
		S273.881,219.165,273.881,225.436z"/>
</g>
<g>
</g>
<g>
</g>
<g>
</g>
<g>
</g>
<g>
</g>
<g>
</g>
<g>
</g>
<g>
</g>
<g>
</g>
<g>
</g>
<g>
</g>
<g>
</g>
<g>
</g>
<g>
</g>
<g>
</g>
</svg>
