<?xml version="1.0" encoding="iso-8859-1"?>
<!-- Generator: Adobe Illustrator 19.0.0, SVG Export Plug-In . SVG Version: 6.00 Build 0)  -->
<svg version="1.1" id="Capa_1" xmlns="http://www.w3.org/2000/svg" xmlns:xlink="http://www.w3.org/1999/xlink" x="0px" y="0px"
	 viewBox="0 0 512 512" style="enable-background:new 0 0 512 512;" xml:space="preserve">
<path style="fill:#FF8840;" d="M459.66,511.659c0-123.066-81.495-132.022-81.495-132.022h-244.33c0,0-81.495,8.954-81.495,132.022
	h64.308l-0.002-0.001l7.726-5.798l7.726,5.798l-0.002,0.001h31.141l92.761-25.745l92.762,25.745h31.142l-0.002-0.001l7.726-3.587
	l7.726,3.587l-0.002,0.001L459.66,511.659L459.66,511.659z"/>
<g>
	<path style="fill:#E6742E;" d="M160.62,379.637h-26.785c0,0-81.495,8.954-81.495,132.022h26.785
		C79.125,388.593,160.62,379.637,160.62,379.637z"/>
	<path style="fill:#E6742E;" d="M116.646,511.658v-66.012c0-4.267,3.459-7.726,7.726-7.726c4.267,0,7.726,3.459,7.726,7.726v66.012
		H116.646z"/>
	<path style="fill:#E6742E;" d="M379.901,511.658v-66.012c0-4.267,3.459-7.726,7.726-7.726c4.267,0,7.726,3.459,7.726,7.726v66.012
		H379.901z"/>
</g>
<path style="fill:#D4D2D3;" d="M348.762,476.151v35.508H163.238v-35.508c0-12.966,10.51-23.464,23.476-23.464h138.572
	C338.252,452.685,348.762,463.185,348.762,476.151z"/>
<path style="fill:#BAB8B9;" d="M207.318,452.685h-20.604c-12.966,0-23.476,10.499-23.476,23.464v35.508h20.604v-35.507
	C183.842,463.185,194.352,452.685,207.318,452.685z"/>
<circle style="fill:#DC5A64;" cx="207.633" cy="483.846" r="11.746"/>
<circle style="fill:#00AE95;" cx="304.367" cy="483.846" r="11.746"/>
<circle style="fill:#DC5A64;" cx="256" cy="483.846" r="11.746"/>
<g>
	<ellipse style="fill:#EFEDEE;" cx="49.747" cy="212.816" rx="49.747" ry="60.459"/>
	<ellipse style="fill:#EFEDEE;" cx="462.253" cy="212.816" rx="49.747" ry="60.459"/>
</g>
<g>
	<path style="fill:#D4D2D3;" d="M488.734,161.642c-7.671-5.876-16.747-9.288-26.484-9.288c-27.476,0-49.75,27.068-49.75,60.459
		s22.274,60.459,49.75,60.459c9.737,0,18.813-3.413,26.484-9.288c3.62-16.622,5.49-33.752,5.49-51.171
		S492.354,178.264,488.734,161.642z"/>
	<path style="fill:#D4D2D3;" d="M49.75,152.353c-9.737,0-18.813,3.413-26.483,9.288c-3.62,16.622-5.49,33.752-5.49,51.171
		s1.87,34.549,5.49,51.171c7.671,5.876,16.747,9.288,26.483,9.288c27.476,0,49.75-27.068,49.75-60.459
		C99.498,179.422,77.224,152.353,49.75,152.353z"/>
</g>
<circle style="fill:#E6742E;" cx="256" cy="212.816" r="212.475"/>
<circle style="fill:#FF8840;" cx="256" cy="212.816" r="162.717"/>
<path style="fill:#FBC4AC;" d="M379.843,168.212c-4.712-13.038-17.083-21.732-30.948-21.732H163.103
	c-13.863,0-26.235,8.694-30.948,21.732c-5.036,13.933-7.784,28.951-7.784,44.601s2.747,30.667,7.784,44.601
	c4.712,13.038,17.083,21.732,30.948,21.732h185.793c13.863,0,26.235-8.694,30.948-21.732c5.036-13.933,7.784-28.951,7.784-44.601
	S384.88,182.145,379.843,168.212z"/>
<path style="fill:#E3B098;" d="M152.759,257.413c-5.036-13.933-7.784-28.951-7.784-44.601c0-15.648,2.747-30.667,7.784-44.6
	c4.712-13.038,17.083-21.732,30.948-21.732h-20.604c-13.863,0-26.235,8.694-30.948,21.732c-5.036,13.933-7.784,28.951-7.784,44.6
	c0,15.649,2.747,30.667,7.784,44.601c4.712,13.038,17.083,21.732,30.948,21.732h20.604
	C169.844,279.144,157.472,270.45,152.759,257.413z"/>
<path style="fill:#3A484A;" d="M176.312,216.899c-4.267,0-7.726-3.459-7.726-7.726v-15.494c0-4.267,3.459-7.726,7.726-7.726
	c4.267,0,7.726,3.459,7.726,7.726v15.494C184.039,213.44,180.579,216.899,176.312,216.899z"/>
<path style="fill:#F98084;" d="M186.865,239.673h-21.103c-4.267,0-7.726-3.459-7.726-7.726c0-4.267,3.459-7.726,7.726-7.726h21.103
	c4.267,0,7.726,3.459,7.726,7.726C194.591,236.213,191.132,239.673,186.865,239.673z"/>
<path style="fill:#3A484A;" d="M335.687,216.899c-4.267,0-7.726-3.459-7.726-7.726v-15.494c0-4.267,3.459-7.726,7.726-7.726
	c4.267,0,7.726,3.459,7.726,7.726v15.494C343.413,213.44,339.954,216.899,335.687,216.899z"/>
<path style="fill:#F98084;" d="M346.239,239.673h-21.103c-4.267,0-7.726-3.459-7.726-7.726c0-4.267,3.459-7.726,7.726-7.726h21.103
	c4.267,0,7.726,3.459,7.726,7.726C353.965,236.213,350.506,239.673,346.239,239.673z"/>
<path style="fill:#3A484A;" d="M256,238.798c-7.784,0-15.099-3.262-20.07-8.947c-2.808-3.213-2.481-8.094,0.732-10.902
	c3.212-2.808,8.094-2.481,10.902,0.732c2.036,2.329,5.11,3.664,8.435,3.664c3.325,0,6.401-1.335,8.435-3.664
	c2.808-3.213,7.689-3.541,10.902-0.732c3.213,2.808,3.541,7.689,0.732,10.902C271.1,235.536,263.784,238.798,256,238.798z"/>
<g>
</g>
<g>
</g>
<g>
</g>
<g>
</g>
<g>
</g>
<g>
</g>
<g>
</g>
<g>
</g>
<g>
</g>
<g>
</g>
<g>
</g>
<g>
</g>
<g>
</g>
<g>
</g>
<g>
</g>
</svg>
