<?xml version="1.0" encoding="iso-8859-1"?>
<!-- Generator: Adobe Illustrator 19.0.0, SVG Export Plug-In . SVG Version: 6.00 Build 0)  -->
<svg version="1.1" id="Capa_1" xmlns="http://www.w3.org/2000/svg" xmlns:xlink="http://www.w3.org/1999/xlink" x="0px" y="0px"
	 viewBox="0 0 512 512" style="enable-background:new 0 0 512 512;" xml:space="preserve">
<path style="fill:#FFA74F;" d="M379.088,386.868H147.499c0,0-77.238,8.487-77.238,125.132h41.822l0,0l7.726-4.125l7.726,4.125l0,0
	h271.515l7.726-4.834l7.726,4.834h41.822C456.326,395.355,379.088,386.868,379.088,386.868z"/>
<g>
	<path style="fill:#FF8840;" d="M399.051,512v-42.667c0-4.267,3.459-7.726,7.726-7.726s7.726,3.459,7.726,7.726V512H399.051z"/>
	<path style="fill:#FF8840;" d="M112.083,512v-42.667c0-4.267,3.459-7.726,7.726-7.726c4.267,0,7.726,3.459,7.726,7.726V512H112.083
		z"/>
</g>
<path style="fill:#DC5A64;" d="M448.221,323.23c0,0,17.307,81.261-71.711,118.965h-0.01l-42.124-16.215l-18.543-102.75
	L448.221,323.23L448.221,323.23z"/>
<path style="fill:#F98084;" d="M364.169,394.827l-48.336-71.598h-47.687l-35.727,40.252l30.875,97.524
	c49.717,0,86.319-7.417,113.207-18.811C378.787,413.082,364.169,394.827,364.169,394.827z"/>
<path style="fill:#DC5A64;" d="M77.633,351.374c-28.96,14.677-43.635,50.613-48.923,66.651c-1.773,5.377-0.909,11.285,2.313,15.94
	c10.915,15.776,28.028,24.949,41.054,29.98c9.188,3.549,19.553-0.886,23.285-10.001c7.187-17.552,17.738-34.308,17.738-34.308
	S115.458,332.205,77.633,351.374z"/>
<path style="fill:#BF4E57;" d="M39.012,438.628c5.288-16.038,19.964-51.974,48.923-66.651c8.841-4.48,15.486-3.135,20.48,1.554
	c-4.548-17.326-13.44-30.946-30.782-22.157c-28.96,14.677-43.635,50.613-48.923,66.651c-1.773,5.377-0.909,11.285,2.313,15.94
	c2.169,3.134,4.588,5.998,7.166,8.63C38.312,441.258,38.583,439.927,39.012,438.628z"/>
<path style="fill:#F98084;" d="M78.366,323.23c0,0-17.307,81.261,71.711,118.965h0.01l42.124-16.215l18.543-102.75L78.366,323.23
	L78.366,323.23z"/>
<path style="fill:#DC5A64;" d="M268.146,323.23l-4.852,94.612v43.165c-49.717,0-86.319-7.417-113.207-18.811
	c-2.287-29.113,12.331-47.368,12.331-47.368l48.336-71.598L268.146,323.23L268.146,323.23z"/>
<path style="fill:#00A1E0;" d="M162.418,394.827C91.14,360.172,42.392,289.934,42.392,208.921C42.392,93.54,141.289,0,263.293,0
	s220.902,93.54,220.902,208.921c0,81.013-48.748,151.251-120.026,185.906H162.418z"/>
<path style="fill:#008FC7;" d="M162.418,394.827h30.905l0,0C122.045,360.172,73.297,289.934,73.297,208.921
	c0-110.466,90.656-200.901,205.449-208.404c-2.072-0.135-4.152-0.239-6.238-0.322c-0.772-0.03-1.542-0.061-2.316-0.083
	c-0.697-0.022-1.395-0.039-2.093-0.054c-1.585-0.032-3.173-0.057-4.767-0.057c-0.013,0-0.026,0-0.038,0
	C198.478,0,140.185,26.399,99.777,68.448c-13.073,13.605-24.275,28.846-33.219,45.363c-5.692,10.51-10.47,21.536-14.235,32.984
	c-0.538,1.635-1.055,3.28-1.551,4.933c-5.458,18.177-8.379,37.363-8.379,57.194c0,3.798,0.107,7.572,0.318,11.319
	c0.493,8.744,1.556,17.346,3.151,25.772c10.946,57.781,47.007,107.319,97.124,138.151c4.176,2.569,8.451,5.009,12.815,7.312
	C157.985,392.627,160.191,393.744,162.418,394.827L162.418,394.827z"/>
<path style="fill:#EFEDEE;" d="M412.639,328.988c-11.291,24.683-28.278,46.688-48.47,65.839
	c-30.236,14.711-64.531,23.014-100.875,23.014s-70.639-8.303-100.875-23.014c-20.192-19.151-37.179-41.156-48.47-65.839
	c-25.693-56.165-47.285-203.821,49.377-203.821c42.196,0,69.393,26.785,69.393,103.173h61.152
	c0-76.388,27.197-103.173,69.393-103.173C459.924,125.167,438.331,272.823,412.639,328.988z"/>
<path style="fill:#D4D2D3;" d="M263.341,417.84c1.856,0,3.704-0.036,5.549-0.079c0.685-0.018,1.372-0.031,2.055-0.054
	c1.386-0.044,2.765-0.109,4.143-0.177c1.222-0.063,2.442-0.133,3.658-0.212c-30.611-2.002-59.51-9.884-85.423-22.491
	c-31.193-15.165-58.07-37.146-78.436-63.862c11.284,23.88,27.882,45.225,47.53,63.862l0,0c1.889,0.92,3.795,1.814,5.716,2.683
	c5.763,2.607,11.664,4.984,17.69,7.12c2.009,0.712,4.031,1.397,6.068,2.054c4.072,1.315,8.198,2.521,12.374,3.613
	c18.789,4.917,38.584,7.544,59.028,7.544C263.309,417.841,263.324,417.84,263.341,417.84z"/>
<path style="fill:#3A484A;" d="M163.326,229.373c-4.267,0-7.726-3.459-7.726-7.726v-19.437c0-4.267,3.459-7.726,7.726-7.726
	s7.726,3.459,7.726,7.726v19.437C171.052,225.914,167.593,229.373,163.326,229.373z"/>
<path style="fill:#F98084;" d="M176.562,257.943h-26.474c-4.267,0-7.726-3.459-7.726-7.726c0-4.267,3.459-7.726,7.726-7.726h26.474
	c4.267,0,7.726,3.459,7.726,7.726C184.289,254.484,180.829,257.943,176.562,257.943z"/>
<path style="fill:#3A484A;" d="M363.26,229.373c-4.267,0-7.726-3.459-7.726-7.726v-19.437c0-4.267,3.459-7.726,7.726-7.726
	s7.726,3.459,7.726,7.726v19.437C370.986,225.914,367.527,229.373,363.26,229.373z"/>
<path style="fill:#F98084;" d="M376.497,257.943h-26.474c-4.267,0-7.726-3.459-7.726-7.726c0-4.267,3.459-7.726,7.726-7.726h26.474
	c4.267,0,7.726,3.459,7.726,7.726C384.223,254.484,380.765,257.943,376.497,257.943z"/>
<path style="fill:#F2973D;" d="M293.869,228.34c0.196,1.401,0.299,2.823,0.299,4.275c0,17.049-13.825,30.864-30.875,30.864
	s-30.875-13.815-30.875-30.864c0-1.453,0.103-2.874,0.299-4.275H293.869z"/>
<path style="fill:#FFA74F;" d="M293.869,228.34c-7.891,5.192-18.677,8.396-30.576,8.396s-22.685-3.204-30.576-8.396
	c2.071-15.02,14.979-26.599,30.576-26.599C278.89,201.74,291.798,213.32,293.869,228.34z"/>
<g>
</g>
<g>
</g>
<g>
</g>
<g>
</g>
<g>
</g>
<g>
</g>
<g>
</g>
<g>
</g>
<g>
</g>
<g>
</g>
<g>
</g>
<g>
</g>
<g>
</g>
<g>
</g>
<g>
</g>
</svg>
