<?xml version="1.0" encoding="iso-8859-1"?>
<!-- Generator: Adobe Illustrator 19.0.0, SVG Export Plug-In . SVG Version: 6.00 Build 0)  -->
<svg version="1.1" id="Capa_1" xmlns="http://www.w3.org/2000/svg" xmlns:xlink="http://www.w3.org/1999/xlink" x="0px" y="0px"
	 viewBox="0 0 512 512" style="enable-background:new 0 0 512 512;" xml:space="preserve">
<path style="fill:#DC5A64;" d="M362.492,377.948h-34.564c5.515,9.49,8.642,20.201,8.642,31.543
	c0,38.675-36.145,70.139-80.574,70.139s-80.574-31.465-80.574-70.139c0-11.341,3.128-22.053,8.642-31.543h-34.563l-15.153,67.027
	L149.502,512h212.989l15.153-67.027L362.492,377.948z"/>
<g>
	<path style="fill:#D4835F;" d="M119.197,388.473C96.599,403.344,64.798,437.509,64.798,512h54.399l15.153-67.027L119.197,388.473z"
		/>
	<path style="fill:#D4835F;" d="M392.798,388.473l-15.153,56.5L392.798,512h54.399C447.197,437.509,415.396,403.344,392.798,388.473
		z"/>
</g>
<path style="fill:#EFEDEE;" d="M392.798,388.473V512h-30.306V377.948h8.202C370.695,377.948,380.342,380.281,392.798,388.473z"/>
<path style="fill:#A36549;" d="M88.492,512c0-54.605,17.088-87.54,35.113-107.09l-4.408-16.437
	c-6.355,4.183-13.44,9.891-20.339,17.593c-2.683,2.996-5.338,6.292-7.912,9.919c-1.103,1.554-2.191,3.169-3.259,4.846
	c-0.713,1.118-1.416,2.264-2.111,3.439c-7.637,12.918-14.09,29.281-17.693,49.943c-1.31,7.513-2.244,15.596-2.721,24.288
	c-0.238,4.345-0.363,8.843-0.363,13.499L88.492,512L88.492,512z"/>
<path style="fill:#EFEDEE;" d="M149.502,377.948V512h-30.306V388.473c12.456-8.193,22.103-10.526,22.103-10.526h8.203V377.948z"/>
<path style="fill:#D4D2D3;" d="M119.197,388.473v21.523c7.926-9.729,16.303-16.658,23.694-21.523
	c2.316-1.524,4.534-2.842,6.612-3.984v-6.543H141.3C141.3,377.948,131.653,380.281,119.197,388.473z"/>
<path style="fill:#D4835F;" d="M191.289,408.277c0,28.687,29.028,52.026,64.709,52.026s64.709-23.339,64.709-52.026
	c0-15.159-8.11-28.821-21.02-38.339h-87.378C199.398,379.455,191.289,393.117,191.289,408.277z"/>
<path style="fill:#EFEDEE;" d="M255.997,479.629c-44.429,0-80.574-31.465-80.574-70.139s36.145-70.139,80.574-70.139
	s80.574,31.465,80.574,70.139S300.426,479.629,255.997,479.629z M255.997,366.687c-29.355,0-53.238,19.202-53.238,42.803
	c0,23.601,23.883,42.803,53.238,42.803s53.238-19.202,53.238-42.803C309.235,385.888,285.352,366.687,255.997,366.687z"/>
<path style="fill:#3A484A;" d="M457.629,213.668V38.263C457.629,17.131,440.498,0,419.366,0H92.629
	C71.497,0,54.366,17.131,54.366,38.263v175.406h403.262V213.668z"/>
<path style="fill:#313D40;" d="M133.837,0H92.629C71.497,0,54.366,17.131,54.366,38.263v175.406h41.207V38.263
	C95.574,17.131,112.704,0,133.837,0z"/>
<circle style="fill:#A36549;" cx="444.51" cy="242.278" r="41.568"/>
<path style="fill:#D4835F;" d="M255.997,164.998c-85.192,0-154.558-34.345-183.391,36.032c-3.34,13.284-5.119,27.141-5.119,41.392
	c0,98.463,84.399,178.283,188.509,178.283s188.509-79.82,188.509-178.283c0-14.252-1.779-28.107-5.119-41.392
	C410.555,130.653,341.189,164.998,255.997,164.998z"/>
<path style="fill:#A36549;" d="M88.092,222.286c0-15.861,1.98-31.281,5.697-46.067c1.162-2.835,2.389-5.5,3.668-8.037
	c-10.091,6.824-18.466,17.265-24.85,32.848c-0.007,0.028-0.012,0.056-0.02,0.083c-1.471-0.26-3.148-0.405-5.099-0.405
	c-22.957,0-41.567,18.61-41.567,41.567c0,22.957,18.61,41.567,41.567,41.567c1.918,0,3.571-0.141,5.024-0.393
	c19.595,78.683,94.304,137.255,183.485,137.255c6.873,0,13.657-0.357,20.339-1.035C170.594,409.463,88.092,324.987,88.092,222.286z"
	/>
<g>
	<circle style="fill:#FFCE1C;" cx="58.841" cy="283.939" r="17.383"/>
	<circle style="fill:#FFCE1C;" cx="453.153" cy="283.939" r="17.383"/>
</g>
<path style="fill:#3A484A;" d="M159.633,258.23c-4.267,0-7.726-3.459-7.726-7.726v-18.737c0-4.267,3.459-7.726,7.726-7.726
	c4.267,0,7.726,3.459,7.726,7.726v18.737C167.36,254.771,163.9,258.23,159.633,258.23z"/>
<path style="fill:#DC5A64;" d="M172.393,285.77h-25.52c-4.267,0-7.726-3.459-7.726-7.726c0-4.267,3.459-7.726,7.726-7.726h25.52
	c4.267,0,7.726,3.459,7.726,7.726C180.119,282.311,176.66,285.77,172.393,285.77z"/>
<path style="fill:#3A484A;" d="M352.362,258.23c-4.267,0-7.726-3.459-7.726-7.726v-18.737c0-4.267,3.459-7.726,7.726-7.726
	c4.267,0,7.726,3.459,7.726,7.726v18.737C360.088,254.771,356.629,258.23,352.362,258.23z"/>
<path style="fill:#DC5A64;" d="M365.121,285.77h-25.52c-4.267,0-7.726-3.459-7.726-7.726c0-4.267,3.459-7.726,7.726-7.726h25.52
	c4.267,0,7.726,3.459,7.726,7.726C372.848,282.311,369.388,285.77,365.121,285.77z"/>
<path style="fill:#3A484A;" d="M255.997,284.712c-8.947,0-17.349-3.742-23.052-10.267c-2.808-3.213-2.481-8.094,0.731-10.902
	c3.212-2.808,8.093-2.481,10.902,0.731c2.769,3.168,6.931,4.984,11.419,4.984s8.649-1.816,11.417-4.984
	c2.808-3.213,7.689-3.541,10.902-0.732c3.213,2.808,3.541,7.689,0.732,10.902C273.347,280.97,264.945,284.712,255.997,284.712z"/>
<g>
</g>
<g>
</g>
<g>
</g>
<g>
</g>
<g>
</g>
<g>
</g>
<g>
</g>
<g>
</g>
<g>
</g>
<g>
</g>
<g>
</g>
<g>
</g>
<g>
</g>
<g>
</g>
<g>
</g>
</svg>
