<?xml version="1.0" encoding="iso-8859-1"?>
<!-- Generator: Adobe Illustrator 19.0.0, SVG Export Plug-In . SVG Version: 6.00 Build 0)  -->
<svg version="1.1" id="Capa_1" xmlns="http://www.w3.org/2000/svg" xmlns:xlink="http://www.w3.org/1999/xlink" x="0px" y="0px"
	 viewBox="0 0 512 512" style="enable-background:new 0 0 512 512;" xml:space="preserve">
<polygon style="fill:#EFEDEE;" points="273.453,373.622 238.548,373.622 208.432,444.995 238.548,512 273.453,512 310.73,433.742 
	"/>
<g>
	<path style="fill:#FFA74F;" d="M406.378,509.239l7.726,2.761h44.303c0-20.194-2.21-37.492-5.893-52.294
		c-18.639-74.882-75.097-86.084-75.097-86.084H273.453V512h125.2L406.378,509.239z"/>
	<path style="fill:#FFA74F;" d="M134.583,373.622c0,0-56.458,11.201-75.097,86.084c-3.683,14.803-5.893,32.1-5.893,52.294h44.302
		l7.726-4.171l7.726,4.171h125.2V373.622H134.583z"/>
</g>
<g>
	<path style="fill:#F2973D;" d="M157.247,373.622h-22.664c0,0-56.458,11.201-75.097,86.084c-3.683,14.803-5.893,32.1-5.893,52.294
		h22.664c0-20.194,2.21-37.492,5.893-52.294C100.789,384.823,157.247,373.622,157.247,373.622z"/>
	<path style="fill:#F2973D;" d="M398.652,512v-45.011c0-4.267,3.459-7.726,7.726-7.726s7.726,3.459,7.726,7.726V512H398.652z"/>
	<path style="fill:#F2973D;" d="M97.897,512v-45.011c0-4.267,3.459-7.726,7.726-7.726c4.267,0,7.726,3.459,7.726,7.726V512H97.897z"
		/>
</g>
<path style="fill:#C99C87;" d="M128.634,379.123h254.733c40.768-33.618,66.535-83.096,66.535-138.269
	c0-14.605-1.815-28.808-5.226-42.427L256.513,176.77L67.325,198.427c-3.411,13.619-5.226,27.821-5.226,42.427
	C62.099,296.027,87.866,345.504,128.634,379.123z"/>
<path style="fill:#3A484A;" d="M422.064,288.242l-27.961-19.88c-51.148,41.601-87.294-41.601-138.102-41.601
	s-86.953,83.203-138.102,41.601l-31.573,61.298c33.072,56.397,96.655,94.578,169.675,94.578c76.919,0,143.376-42.36,174.718-103.758
	L422.064,288.242z M256.001,342.8c-28.249,0-51.148-18.458-51.148-41.227s22.9-41.227,51.148-41.227
	c28.249,0,51.148,18.458,51.148,41.227S284.249,342.8,256.001,342.8z"/>
<path style="fill:#EFEDEE;" d="M57.868,198.427C9.463,291.548,9.463,424.238,9.463,424.238h108.436V198.427L86.186,176.77
	L57.868,198.427z"/>
<path style="fill:#D4D2D3;" d="M102.513,187.92l-16.326-11.15l-28.319,21.657c-48.405,93.12-48.405,225.81-48.405,225.81h30.905
	c0,0,0-132.688,48.404-225.81L102.513,187.92z"/>
<path style="fill:#EFEDEE;" d="M454.133,198.427c48.404,93.121,48.404,225.809,48.404,225.809H394.102V198.427l31.712-21.657
	L454.133,198.427z"/>
<polygon style="fill:#D4D2D3;" points="440.394,187.92 425.815,176.77 394.102,198.427 394.102,424.238 425.008,424.238 
	425.008,198.427 "/>
<path style="fill:#EFEDEE;" d="M57.868,155.112C57.868,78.77,121.99,0,256.001,0s198.133,78.77,198.133,155.112L256.513,176.77
	L57.868,155.112z"/>
<path style="fill:#D4D2D3;" d="M99.075,155.112c0-72.318,57.551-146.8,177.529-154.454C269.925,0.232,263.067,0,256.001,0
	C121.99,0,57.868,78.769,57.868,155.112l198.645,21.658l20.55-2.253L99.075,155.112z"/>
<g>
	<path style="fill:#3A484A;" d="M158.418,258.921c-4.267,0-7.726-3.459-7.726-7.726V232.22c0-4.267,3.459-7.726,7.726-7.726
		c4.267,0,7.726,3.459,7.726,7.726v18.974C166.144,255.462,162.685,258.921,158.418,258.921z"/>
	<path style="fill:#3A484A;" d="M353.584,258.921c-4.267,0-7.726-3.459-7.726-7.726V232.22c0-4.267,3.459-7.726,7.726-7.726
		s7.726,3.459,7.726,7.726v18.974C361.311,255.462,357.851,258.921,353.584,258.921z"/>
	<path style="fill:#3A484A;" d="M256.001,305.175c-9.033,0-17.514-3.778-23.271-10.365c-2.808-3.213-2.48-8.094,0.732-10.902
		s8.093-2.481,10.902,0.732c2.822,3.229,7.063,5.081,11.636,5.081c4.572,0,8.814-1.852,11.637-5.081
		c2.808-3.213,7.689-3.54,10.902-0.732c3.213,2.808,3.541,7.689,0.731,10.902C273.515,301.397,265.032,305.175,256.001,305.175z"/>
	<path style="fill:#3A484A;" d="M454.133,155.112H57.868c-11.961,0-21.657,9.696-21.657,21.658l0,0
		c0,11.961,9.696,21.657,21.657,21.657h396.266c11.961,0,21.658-9.696,21.658-21.657l0,0
		C475.792,164.808,466.095,155.112,454.133,155.112z"/>
</g>
<path style="fill:#313D40;" d="M77.418,176.77L77.418,176.77c0-11.961,9.696-21.658,21.658-21.658H57.868
	c-11.961,0-21.657,9.697-21.657,21.658l0,0c0,11.96,9.696,21.657,21.657,21.657h41.207C87.114,198.427,77.418,188.731,77.418,176.77
	z"/>
<g>
</g>
<g>
</g>
<g>
</g>
<g>
</g>
<g>
</g>
<g>
</g>
<g>
</g>
<g>
</g>
<g>
</g>
<g>
</g>
<g>
</g>
<g>
</g>
<g>
</g>
<g>
</g>
<g>
</g>
</svg>
