<?xml version="1.0" encoding="iso-8859-1"?>
<!-- Generator: Adobe Illustrator 19.0.0, SVG Export Plug-In . SVG Version: 6.00 Build 0)  -->
<svg version="1.1" id="Capa_1" xmlns="http://www.w3.org/2000/svg" xmlns:xlink="http://www.w3.org/1999/xlink" x="0px" y="0px"
	 viewBox="0 0 512 512" style="enable-background:new 0 0 512 512;" xml:space="preserve">
<path style="fill:#A36549;" d="M256,386.059H139.461c0,0-77.742,8.54-77.742,125.942h50.633l7.726-4.548l7.726,4.548H256
	l37.978-58.334L256,386.059z"/>
<path style="fill:#D4835F;" d="M372.539,386.059H256V512h128.195l7.726-5.404l7.726,5.404h50.633
	C450.281,394.599,372.539,386.059,372.539,386.059z"/>
<path style="fill:#FFA74F;" d="M269.911,465.406h-27.822c-6.301,0-11.407,5.108-11.407,11.407c0,6.301,5.108,11.407,11.407,11.407
	h27.822c6.301,0,11.407-5.108,11.407-11.407C281.319,470.514,276.211,465.406,269.911,465.406z"/>
<path style="fill:#EFEDEE;" d="M457.323,274.785c26.492-13.639,29.531-50.318,5.645-68.132l0,0l0,0
	c20.628-21.502,11.593-57.181-16.783-66.274l0,0c12.529-27.035-7.602-57.847-37.392-57.233l0,0l0,0
	c3.072-29.638-25.973-52.245-53.95-41.991l0,0l0,0c-6.718-29.029-41.53-40.981-64.661-22.198l0,0
	c-15.78-25.275-52.586-25.275-68.365,0l0,0c-23.132-18.782-57.944-6.831-64.661,22.198l0,0l0,0
	c-27.977-10.253-57.022,12.353-53.95,41.991l0,0l0,0c-29.791-0.614-49.922,30.199-37.392,57.233l0,0
	c-28.375,9.092-37.411,44.772-16.783,66.274l0,0l0,0c-23.886,17.813-20.847,54.492,5.645,68.132l0,0l0,0
	c-16.807,24.604-2.023,58.309,27.462,62.607l0,0l0,0c-7.909,28.729,17.02,55.807,46.303,50.298l0,0l0,0
	c1.848,29.739,34.217,47.257,60.125,32.538l0,0l0,0c11.404,27.528,47.708,33.586,67.433,11.253l0,0l0,0
	c19.725,22.333,56.028,16.276,67.433-11.253l0,0l0,0c25.908,14.719,58.277-2.799,60.125-32.538l0,0l0,0
	c29.283,5.509,54.211-21.57,46.302-50.298l0,0l0,0C459.347,333.094,474.131,299.388,457.323,274.785L457.323,274.785
	L457.323,274.785z"/>
<path style="fill:#3A484A;" d="M415.887,181.818l0.004-0.004c-4.564-18.352-12.205-35.489-22.347-50.834v-0.009
	C364.074,86.36,313.479,56.928,256,56.928c-77.247,0-142.062,53.159-159.887,124.89l36.422,36.422h251.818L415.887,181.818z"/>
<path style="fill:#313D40;" d="M96.113,181.818l26.587,26.588c0.728-9.088,2.178-17.974,4.319-26.588
	c16.623-66.893,74.112-117.625,144.439-124.167c-1.365-0.127-2.736-0.236-4.11-0.329c-3.774-0.26-7.564-0.394-11.346-0.394
	c-18.104,0-35.527,2.92-51.82,8.315c-13.808,4.572-27.314,11.155-39.533,19.314C131.034,106.998,106.14,141.47,96.113,181.818z"/>
<path style="fill:#E3B098;" d="M415.891,181.814l-0.004,0.004H296.789c-5.854,0-11.385-2.68-15.013-7.272l-10.763-13.626
	c-7.659-9.697-22.365-9.697-30.025,0l-10.763,13.626c-3.628,4.593-9.159,7.272-15.013,7.272H96.113
	c-3.172,12.766-4.867,26.116-4.867,39.864c0,12.527,1.394,24.733,4.056,36.46C111.885,331.589,177.533,386.436,256,386.436
	c90.995,0,164.754-73.759,164.754-164.754C420.754,207.933,419.065,194.58,415.891,181.814z"/>
<path style="fill:#C99C87;" d="M256.312,386.431c1.227-0.002,2.452-0.018,3.673-0.046c1.045-0.026,2.086-0.066,3.127-0.111
	c0.238-0.01,0.478-0.016,0.716-0.028c2.549-0.123,5.083-0.301,7.602-0.536c-71.506-6.661-129.742-59.007-145.222-127.568
	c-2.661-11.728-4.056-23.933-4.056-36.46c0-13.748,1.694-27.098,4.867-39.864H96.113c-1.586,6.383-2.803,12.912-3.623,19.564
	c-2.897,23.494-0.689,47.741,6.487,70.306c10.309,32.416,31.344,61.885,58.861,82.328c27.415,20.369,61.379,32.421,98.162,32.421
	C256.104,386.436,256.208,386.432,256.312,386.431z"/>
<path style="fill:#F98084;" d="M179.268,278.695h-23.422c-4.267,0-7.726-3.459-7.726-7.726c0-4.267,3.459-7.726,7.726-7.726h23.422
	c4.267,0,7.726,3.459,7.726,7.726C186.994,275.236,183.535,278.695,179.268,278.695z"/>
<g>
	<path style="fill:#3A484A;" d="M344.442,253.419c-4.267,0-7.726-3.459-7.726-7.726v-17.197c0-4.267,3.459-7.726,7.726-7.726
		c4.267,0,7.726,3.459,7.726,7.726v17.197C352.169,249.959,348.709,253.419,344.442,253.419z"/>
	<path style="fill:#3A484A;" d="M167.558,253.419c-4.267,0-7.726-3.459-7.726-7.726v-17.197c0-4.267,3.459-7.726,7.726-7.726
		c4.267,0,7.726,3.459,7.726,7.726v17.197C175.284,249.959,171.825,253.419,167.558,253.419z"/>
</g>
<path style="fill:#F98084;" d="M356.153,278.695h-23.422c-4.267,0-7.726-3.459-7.726-7.726c0-4.267,3.459-7.726,7.726-7.726h23.422
	c4.267,0,7.726,3.459,7.726,7.726C363.88,275.236,360.421,278.695,356.153,278.695z"/>
<path style="fill:#3A484A;" d="M256,277.724c-8.395,0-16.281-3.514-21.636-9.64c-2.808-3.213-2.48-8.094,0.732-10.902
	c3.212-2.807,8.093-2.481,10.902,0.733c2.421,2.769,6.066,4.357,10.001,4.357c3.935,0,7.581-1.589,10.002-4.358
	c2.808-3.213,7.688-3.541,10.902-0.731c3.213,2.808,3.541,7.689,0.731,10.902C272.28,274.21,264.394,277.724,256,277.724z"/>
<path style="fill:#A36549;" d="M384.195,512v-44.584c0-4.267,3.459-7.726,7.726-7.726c4.267,0,7.726,3.459,7.726,7.726V512H384.195z
	"/>
<path style="fill:#87543D;" d="M112.353,512v-44.584c0-4.267,3.459-7.726,7.726-7.726c4.267,0,7.726,3.459,7.726,7.726V512H112.353z
	"/>
<g>
</g>
<g>
</g>
<g>
</g>
<g>
</g>
<g>
</g>
<g>
</g>
<g>
</g>
<g>
</g>
<g>
</g>
<g>
</g>
<g>
</g>
<g>
</g>
<g>
</g>
<g>
</g>
<g>
</g>
</svg>
