<?xml version="1.0" encoding="iso-8859-1"?>
<!-- Generator: Adobe Illustrator 19.0.0, SVG Export Plug-In . SVG Version: 6.00 Build 0)  -->
<svg version="1.1" id="Capa_1" xmlns="http://www.w3.org/2000/svg" xmlns:xlink="http://www.w3.org/1999/xlink" x="0px" y="0px"
	 viewBox="0 0 512 512" style="enable-background:new 0 0 512 512;" xml:space="preserve">
<g>
	<path style="fill:#FBC4AC;" d="M121.398,368.525c-2.638,1.608-5.614,3.575-8.831,5.94C88.27,392.41,50.98,428.472,50.98,512h70.418
		l30.52-90.564L121.398,368.525z"/>
	<path style="fill:#FBC4AC;" d="M399.433,374.465c-3.217-2.365-6.192-4.332-8.831-5.94l-32.876,52.911L390.602,512h70.418
		C461.02,428.472,423.73,392.41,399.433,374.465z"/>
</g>
<path style="fill:#E3B098;" d="M81.885,512c0-69.929,26.136-106.584,48.902-127.198l-9.389-16.278
	c-2.639,1.609-5.614,3.575-8.831,5.94c-17.083,12.619-40.591,34.193-53.043,74.925c-2.214,7.241-4.077,15.088-5.495,23.598
	c-1.517,9.118-2.414,18.341-2.809,27.575c-0.159,3.711-0.241,7.521-0.241,11.437h30.906V512z"/>
<path style="fill:#3A484A;" d="M390.602,368.525V512H287.887L256,495.705L224.113,512H121.398V368.525
	c7.023-4.268,11.617-5.993,11.617-5.993h245.97C378.985,362.532,383.58,364.256,390.602,368.525z"/>
<path style="fill:#313D40;" d="M121.398,394.133c7.643-8.354,15.356-14.706,22.075-19.669c3.217-2.365,6.192-4.332,8.831-5.94
	c7.023-4.268,11.617-5.993,11.617-5.993h-30.905c0,0-3.033,1.138-7.938,3.855c-0.377,0.209-0.765,0.428-1.164,0.655
	c-0.797,0.455-1.638,0.95-2.516,1.482C121.398,368.524,121.398,394.133,121.398,394.133z"/>
<polygon style="fill:#00AE95;" points="287.89,512 281.002,439.524 230.997,439.524 224.11,512 "/>
<path style="fill:#2FC8B4;" d="M224.11,388.925v36.853c0,5.412,2.553,10.506,6.888,13.745l14.732,11.009
	c6.09,4.551,14.45,4.551,20.542,0l14.732-11.009c4.335-3.239,6.888-8.333,6.888-13.745v-36.853H224.11z"/>
<g>
	<path style="fill:#EFEDEE;" d="M200.28,376.378l-30.38,14.475l10.776,35.178c2.212,7.221,10.629,10.428,17.087,6.512l40.044-24.292
		L200.28,376.378z"/>
	<path style="fill:#EFEDEE;" d="M311.72,376.378l30.38,14.475l-10.776,35.178c-2.212,7.221-10.629,10.428-17.087,6.512
		l-40.044-24.292L311.72,376.378z"/>
	<path style="fill:#EFEDEE;" d="M140.803,29.809c-79.3-4.402-97.101,10.635-80.491,74.957L140.803,29.809z"/>
</g>
<path style="fill:#D4D2D3;" d="M128.709,29.281c-68.987-2.137-84.125,14.575-68.396,75.485l17.039-15.868
	C69.538,46.661,82.751,31.082,128.709,29.281z"/>
<path style="fill:#EFEDEE;" d="M371.197,29.809c79.3-4.402,97.101,10.635,80.491,74.957L371.197,29.809z"/>
<path style="fill:#D4D2D3;" d="M383.291,29.281c45.957,1.801,59.171,17.379,51.357,59.618l17.039,15.868
	C467.416,43.856,452.278,27.145,383.291,29.281z"/>
<g>
	<path style="fill:#00A1E0;" d="M53.865,273.098c0,0-15.302,43.817-40.735,70.532c-3.474,3.649-1.197,9.709,3.827,10.083
		c10.217,0.759,24.327,0.457,34.024-5.196c0,0-1.043,12.919-3.875,23.971c-1.247,4.863,3.776,8.946,8.328,6.831
		c13.455-6.252,33.869-19.039,43.002-41.719l10.727-64.503H53.865z"/>
	<path style="fill:#00A1E0;" d="M458.135,273.098c0,0,15.302,43.817,40.735,70.532c3.474,3.649,1.197,9.709-3.827,10.083
		c-10.217,0.759-24.327,0.457-34.024-5.196c0,0,1.043,12.919,3.875,23.971c1.247,4.863-3.776,8.946-8.328,6.831
		c-13.455-6.252-33.869-19.039-43.002-41.719l-10.727-64.503H458.135z"/>
</g>
<g>
	<circle style="fill:#EFEDEE;" cx="53.868" cy="228.525" r="44.576"/>
	<circle style="fill:#EFEDEE;" cx="458.132" cy="228.525" r="44.576"/>
</g>
<path style="fill:#00A1E0;" d="M444.372,94.061C400.898,34.384,329.466,0,256,0C182.663,0,110.995,34.483,67.628,94.061
	c-26.299,36.102-40.445,78.886-40.445,123.794h457.632C484.817,172.947,470.67,130.162,444.372,94.061z"/>
<path style="fill:#008FC7;" d="M276.628,0.903C269.785,0.304,262.901,0,256,0C182.663,0,110.995,34.483,67.628,94.061
	c-26.299,36.102-40.445,78.886-40.445,123.794h41.207c0-44.908,14.146-87.692,40.445-123.794
	C148.133,40.073,210.67,6.693,276.628,0.903z"/>
<path style="fill:#FBC4AC;" d="M458.135,217.853c0,0-84.035-30.541-121.883-99.227c0,0-2.192,23.643,4.349,52.033
	c1.366,5.927-4.251,11.089-10.014,9.145c-22.865-7.71-67.11-26.18-74.587-55.572c-7.477,29.392-51.722,47.862-74.587,55.572
	c-5.763,1.943-11.379-3.218-10.014-9.145c6.542-28.391,4.349-52.033,4.349-52.033C137.9,187.314,53.865,217.853,53.865,217.853
	c0,105.58,90.499,191.17,202.135,191.17S458.135,323.434,458.135,217.853L458.135,217.853L458.135,217.853z"/>
<path style="fill:#E3B098;" d="M69.764,210.983c-9.733,4.627-15.899,6.87-15.899,6.87c0,96.173,75.094,175.747,172.851,189.166
	C139.373,378.244,75.551,302.019,69.764,210.983z"/>
<path style="fill:#3A484A;" d="M154.274,237.426c-4.268,0-7.726-3.459-7.726-7.726V209.92c0-4.267,3.458-7.726,7.726-7.726
	c4.268,0,7.726,3.459,7.726,7.726v19.779C162,233.966,158.541,237.426,154.274,237.426z"/>
<path style="fill:#F98084;" d="M167.743,266.499h-26.939c-4.268,0-7.726-3.459-7.726-7.726c0-4.267,3.458-7.726,7.726-7.726h26.939
	c4.268,0,7.726,3.459,7.726,7.726C175.47,263.039,172.01,266.499,167.743,266.499z"/>
<path style="fill:#3A484A;" d="M357.727,237.426c-4.268,0-7.726-3.459-7.726-7.726V209.92c0-4.267,3.458-7.726,7.726-7.726
	s7.726,3.459,7.726,7.726v19.779C365.454,233.966,361.994,237.426,357.727,237.426z"/>
<path style="fill:#F98084;" d="M371.197,266.499h-26.94c-4.268,0-7.726-3.459-7.726-7.726c0-4.267,3.458-7.726,7.726-7.726h26.94
	c4.268,0,7.726,3.459,7.726,7.726C378.923,263.039,375.465,266.499,371.197,266.499z"/>
<path style="fill:#3A484A;" d="M256,265.381c-9.321,0-18.072-3.897-24.011-10.691c-2.809-3.213-2.481-8.094,0.732-10.902
	c3.213-2.807,8.094-2.48,10.901,0.732c3.005,3.437,7.516,5.408,12.378,5.408c4.862,0,9.374-1.972,12.379-5.408
	c2.808-3.213,7.69-3.541,10.901-0.732c3.213,2.808,3.542,7.689,0.732,10.902C274.074,261.485,265.321,265.381,256,265.381z"/>
<g>
</g>
<g>
</g>
<g>
</g>
<g>
</g>
<g>
</g>
<g>
</g>
<g>
</g>
<g>
</g>
<g>
</g>
<g>
</g>
<g>
</g>
<g>
</g>
<g>
</g>
<g>
</g>
<g>
</g>
</svg>
