<?xml version="1.0" encoding="iso-8859-1"?>
<!-- Generator: Adobe Illustrator 19.0.0, SVG Export Plug-In . SVG Version: 6.00 Build 0)  -->
<svg version="1.1" id="Capa_1" xmlns="http://www.w3.org/2000/svg" xmlns:xlink="http://www.w3.org/1999/xlink" x="0px" y="0px"
	 viewBox="0 0 512 512" style="enable-background:new 0 0 512 512;" xml:space="preserve">
<path style="fill:#D4835F;" d="M489.214,209.898C479.416,96.194,378.752,6.803,256,6.803S32.584,96.194,22.786,209.898
	c-10.094,104.77,30.746,106.959,30.746,149.473s21.368,68.991,21.368,68.991h362.201c0,0,21.368-26.477,21.368-68.991
	S499.309,314.668,489.214,209.898z"/>
<path style="fill:#A36549;" d="M53.691,209.898C63.075,101.004,155.803,14.425,271.453,7.292c-5.109-0.315-10.26-0.488-15.453-0.488
	c-122.752,0-223.416,89.39-233.214,203.095c-10.094,104.77,30.746,106.959,30.746,149.473s21.368,68.991,21.368,68.991h30.905
	c0,0-21.368-26.477-21.368-68.991S43.596,314.668,53.691,209.898z"/>
<path style="fill:#FBC4AC;" d="M118.518,460.103l-27.271-15.871l-27.271,15.871c-2.835,12.916-4.496,27.837-4.496,45.093h59.038
	l20.153-22.547L118.518,460.103z"/>
<path style="fill:#E3B098;" d="M91.247,444.233l-27.271,15.871l0,0c-2.834,12.916-4.496,27.837-4.496,45.093h30.905
	c0-17.257,1.662-32.177,4.496-45.093c0.922-4.193,1.976-8.156,3.13-11.935L91.247,444.233z"/>
<path style="fill:#FFCE1C;" d="M118.518,428.362H74.899c-4.434,8.93-8.213,19.416-10.923,31.741h54.542l20.153-15.871
	L118.518,428.362z"/>
<path style="fill:#FBC4AC;" d="M393.482,460.103l27.271-15.871l27.271,15.871c2.835,12.916,4.496,27.837,4.496,45.093h-59.038
	l-20.153-22.547L393.482,460.103z"/>
<path style="fill:#FFCE1C;" d="M393.482,428.362h43.619c4.434,8.93,8.213,19.416,10.923,31.741h-54.542l-20.153-15.871
	L393.482,428.362z"/>
<path style="fill:#00A1E0;" d="M437.101,428.362h-43.619v76.834H118.518v-76.834H74.899c22.895-46.132,63.212-58.872,63.212-58.872
	h235.778C373.889,369.49,414.206,382.23,437.101,428.362z"/>
<path style="fill:#ECB000;" d="M74.899,428.363L74.899,428.363c-2.588,5.212-4.943,10.97-7.002,17.299
	c-0.247,0.76-0.491,1.525-0.73,2.301c-1.177,3.839-2.252,7.873-3.19,12.141h30.905c2.71-12.325,6.489-22.812,10.923-31.741l0,0
	H74.899z"/>
<path style="fill:#008FC7;" d="M169.017,369.491h-30.905c0,0-40.317,12.74-63.212,58.872h30.905
	C128.7,382.23,169.017,369.491,169.017,369.491z"/>
<polygon style="fill:#E3B098;" points="187.975,379.457 256,460.103 328.08,372.925 "/>
<path style="fill:#FFCE1C;" d="M350.557,379.609l-82.718,96.77c-2.96,3.461-7.285,5.455-11.839,5.455
	c-4.554,0-8.88-1.993-11.839-5.455l-82.718-96.77l23.678-20.239l70.879,84.992l70.88-84.992L350.557,379.609z"/>
<g>
	<path style="fill:#E3B098;" d="M510.663,113.176c-1.006-8.875-11.025-13.511-18.471-8.576
		c-18.876,12.512-48.807,37.289-53.499,70.933l7.333,88.502C506.056,240.754,516.259,162.504,510.663,113.176z"/>
	<path style="fill:#E3B098;" d="M1.337,113.176c1.006-8.875,11.025-13.511,18.471-8.576c18.876,12.512,48.807,37.289,53.499,70.933
		l-7.333,88.503C5.944,240.754-4.259,162.504,1.337,113.176z"/>
</g>
<path style="fill:#FBC4AC;" d="M256,112.199c0,0-96.079-70.464-167.98,35.907c-14.704,21.752-23.624,46.955-25.493,73.144
	c-0.177,2.489-0.281,4.817-0.281,6.868c0,101.203,86.746,183.243,193.754,183.243s193.754-82.04,193.754-183.243
	c0-2.051-0.103-4.379-0.281-6.868c-1.869-26.189-10.789-51.392-25.493-73.144C352.079,41.735,256,112.199,256,112.199z"/>
<path style="fill:#3A484A;" d="M156.954,236.883c-4.267,0-7.726-3.459-7.726-7.726v-19.258c0-4.267,3.459-7.726,7.726-7.726
	c4.267,0,7.726,3.459,7.726,7.726v19.258C164.681,233.424,161.221,236.883,156.954,236.883z"/>
<path style="fill:#F98084;" d="M170.07,265.189H143.84c-4.267,0-7.726-3.459-7.726-7.726c0-4.267,3.459-7.726,7.726-7.726h26.229
	c4.267,0,7.726,3.459,7.726,7.726C177.796,261.73,174.337,265.189,170.07,265.189z"/>
<path style="fill:#3A484A;" d="M355.046,236.883c-4.267,0-7.726-3.459-7.726-7.726v-19.258c0-4.267,3.459-7.726,7.726-7.726
	c4.267,0,7.726,3.459,7.726,7.726v19.258C362.772,233.424,359.313,236.883,355.046,236.883z"/>
<path style="fill:#F98084;" d="M368.16,265.189h-26.229c-4.267,0-7.726-3.459-7.726-7.726c0-4.267,3.459-7.726,7.726-7.726h26.229
	c4.267,0,7.726,3.459,7.726,7.726C375.886,261.73,372.427,265.189,368.16,265.189z"/>
<path style="fill:#3A484A;" d="M256,264.101c-9.135,0-17.711-3.82-23.532-10.479c-2.808-3.213-2.481-8.094,0.732-10.902
	c3.213-2.807,8.094-2.481,10.902,0.732c2.887,3.303,7.223,5.196,11.898,5.196s9.011-1.893,11.898-5.196
	c2.808-3.213,7.689-3.541,10.902-0.732s3.541,7.689,0.732,10.902C273.711,260.281,265.134,264.101,256,264.101z"/>
<g>
</g>
<g>
</g>
<g>
</g>
<g>
</g>
<g>
</g>
<g>
</g>
<g>
</g>
<g>
</g>
<g>
</g>
<g>
</g>
<g>
</g>
<g>
</g>
<g>
</g>
<g>
</g>
<g>
</g>
</svg>
