<?xml version="1.0" encoding="iso-8859-1"?>
<!-- Generator: Adobe Illustrator 19.0.0, SVG Export Plug-In . SVG Version: 6.00 Build 0)  -->
<svg version="1.1" id="Capa_1" xmlns="http://www.w3.org/2000/svg" xmlns:xlink="http://www.w3.org/1999/xlink" x="0px" y="0px"
	 viewBox="0 0 512 512" style="enable-background:new 0 0 512 512;" xml:space="preserve">
<path style="fill:#EFEDEE;" d="M376.457,371.216h-240.91c0,0-80.353,19.44-80.353,140.784h31.827l168.981-30.235L424.983,512h31.826
	C456.809,390.656,376.457,371.216,376.457,371.216z"/>
<path style="fill:#DC5A64;" d="M394.161,418.643c-12.741-12.709-41.958-28.983-42.075-29.015H159.918
	c-0.116,0.032-29.333,16.306-42.075,29.015C97.677,438.747,87.026,471.029,87.026,512h44.106l7.726-4.434l7.726,4.434h94.195
	l15.224-13.262L271.225,512h94.195l7.726-3.665l7.726,3.665h44.105C424.979,471.029,414.328,438.747,394.161,418.643z"/>
<g>
	<path style="fill:#BF4E57;" d="M131.132,512v-56.69c0-4.267,3.459-7.726,7.726-7.726s7.726,3.459,7.726,7.726V512H131.132z"/>
	<path style="fill:#BF4E57;" d="M365.421,512v-56.69c0-4.267,3.459-7.726,7.726-7.726c4.267,0,7.726,3.459,7.726,7.726V512H365.421z
		"/>
</g>
<rect x="240.776" y="389.625" style="fill:#EFEDEE;" width="30.447" height="122.375"/>
<path style="fill:#D4D2D3;" d="M240.778,481.683c2.279,0.39,4.605,0.595,6.959,0.595h16.53c2.354,0,4.679-0.205,6.959-0.595v-92.055
	h-30.447v92.055H240.778z"/>
<path style="fill:#EFEDEE;" d="M279.245,438.564l-7.33-40.146h-31.826l-7.33,40.146c-1.707,9.349,5.474,17.96,14.978,17.96h16.53
	C273.771,456.524,280.952,447.912,279.245,438.564z"/>
<path style="fill:#DC5A64;" d="M256.002,425.35c-2.839,0-5.14,2.301-5.14,5.14v8.812c0,2.838,2.301,5.14,5.14,5.14
	c2.838,0,5.14-2.301,5.14-5.14v-8.812C261.142,427.652,258.841,425.35,256.002,425.35z"/>
<path style="fill:#313D40;" d="M25.51,251.466c-2.548,104.054,81.623,99.813,81.623,99.813l14.844-45.974l-30.952-52.691
	L25.51,251.466z"/>
<g>
	<path style="fill:#3A484A;" d="M486.494,251.466c2.548,104.054-81.623,99.813-81.623,99.813l-14.844-45.974l30.952-52.691
		L486.494,251.466z"/>
	<path style="fill:#3A484A;" d="M25.51,219.426c0-58.891,24.164-114.178,68.039-155.674C137.02,22.641,194.714,0,256.002,0
		c61.29,0,118.983,22.641,162.453,63.753c43.875,41.496,68.039,96.781,68.039,155.674H25.51z"/>
</g>
<path style="fill:#313D40;" d="M140.938,63.753c37.82-35.767,86.406-57.546,138.758-62.605C271.874,0.391,263.969,0,256.002,0
	C194.714,0,137.02,22.641,93.55,63.753C49.673,105.248,25.51,160.535,25.51,219.426h47.388
	C72.899,160.535,97.062,105.248,140.938,63.753z"/>
<circle style="fill:#E3B098;" cx="459.968" cy="230.194" r="44.976"/>
<path style="fill:#FBC4AC;" d="M380.832,105.154c0,23.34,8.487,60.824,8.487,60.824c-57.278-21.266-83.456-65.774-83.456-65.774
	c2.829,35.363,10.609,62.238,10.609,62.238c-48.093-21.219-60.47-62.239-60.47-62.239s-12.377,41.021-60.47,62.238
	c0,0,7.78-26.875,10.609-62.238c0,0-26.177,44.508-83.456,65.774c0,0,8.487-37.484,8.487-60.824c0,0-39.331,65.496-75.977,80.257
	c-2.077,11.042-3.163,22.41-3.163,34.017c0,106.538,91.32,192.905,203.97,192.905s203.97-86.366,203.97-192.904
	c0-11.607-1.086-22.974-3.163-34.017C420.163,170.649,380.832,105.154,380.832,105.154z"/>
<path style="fill:#E3B098;" d="M77.787,197.72c0-9.695,0.681-19.239,1.999-28.593c-7.984,7.076-16.304,12.924-24.492,16.242
	c-1.019-0.089-2.088-0.147-3.262-0.147c-24.84,0-44.976,20.136-44.976,44.976s20.136,44.976,44.976,44.976
	c3.408,0,6.125-0.391,8.313-1.109C85.259,353.99,163.42,412.331,256.002,412.331c8.018,0,15.922-0.452,23.698-1.303
	C166.145,399.253,77.787,308.251,77.787,197.72z"/>
<path style="fill:#3A484A;" d="M153.352,239.107c-4.267,0-7.726-3.459-7.726-7.726v-19.959c0-4.267,3.459-7.726,7.726-7.726
	c4.267,0,7.726,3.459,7.726,7.726v19.959C161.078,235.648,157.619,239.107,153.352,239.107z"/>
<path style="fill:#F98084;" d="M166.944,268.444H139.76c-4.267,0-7.726-3.459-7.726-7.726c0-4.267,3.459-7.726,7.726-7.726h27.184
	c4.267,0,7.726,3.459,7.726,7.726C174.67,264.984,171.211,268.444,166.944,268.444z"/>
<path style="fill:#3A484A;" d="M358.652,239.107c-4.267,0-7.726-3.459-7.726-7.726v-19.959c0-4.267,3.459-7.726,7.726-7.726
	s7.726,3.459,7.726,7.726v19.959C366.379,235.648,362.919,239.107,358.652,239.107z"/>
<path style="fill:#F98084;" d="M372.245,268.444H345.06c-4.267,0-7.726-3.459-7.726-7.726c0-4.267,3.459-7.726,7.726-7.726h27.184
	c4.267,0,7.726,3.459,7.726,7.726C379.971,264.984,376.512,268.444,372.245,268.444z"/>
<path style="fill:#3A484A;" d="M256.002,267.316c-9.385,0-18.198-3.924-24.177-10.764c-2.808-3.213-2.481-8.094,0.732-10.902
	c3.212-2.808,8.093-2.481,10.902,0.732c3.045,3.484,7.616,5.482,12.542,5.482c4.926,0,9.498-1.998,12.542-5.482
	c2.808-3.213,7.689-3.541,10.902-0.732c3.213,2.808,3.541,7.689,0.732,10.902C274.199,263.393,265.387,267.316,256.002,267.316z"/>
<g>
</g>
<g>
</g>
<g>
</g>
<g>
</g>
<g>
</g>
<g>
</g>
<g>
</g>
<g>
</g>
<g>
</g>
<g>
</g>
<g>
</g>
<g>
</g>
<g>
</g>
<g>
</g>
<g>
</g>
</svg>
