<?xml version="1.0" encoding="iso-8859-1"?>
<!-- Generator: Adobe Illustrator 19.0.0, SVG Export Plug-In . SVG Version: 6.00 Build 0)  -->
<svg version="1.1" id="Capa_1" xmlns="http://www.w3.org/2000/svg" xmlns:xlink="http://www.w3.org/1999/xlink" x="0px" y="0px"
	 viewBox="0 0 512 512" style="enable-background:new 0 0 512 512;" xml:space="preserve">
<g>
	<path style="fill:#00A1E0;" d="M268.261,345.964v-1.427c0.686-1.947,1.092-2.774,1.092-2.774H317.1c0,0,0.406,0.828,1.092,2.774
		v0.232l29.821,82.113L318.192,512h-49.931l-22.198-80.612L268.261,345.964z"/>
	<path style="fill:#00A1E0;" d="M218.33,345.964v-1.427c-0.686-1.947-1.092-2.774-1.092-2.774h-47.747c0,0-0.406,0.828-1.092,2.774
		v0.232l-29.821,82.113L168.4,512h49.931l22.198-80.612L218.33,345.964z"/>
</g>
<g>
	<path style="fill:#DC5A64;" d="M268.261,445.751V512H218.33v-66.249c0.686-0.771,1.092-1.097,1.092-1.097l23.873-11.172
		l23.873,11.172C267.169,444.653,267.575,444.981,268.261,445.751z"/>
	<path style="fill:#DC5A64;" d="M368.121,345.305v-0.769c-0.686-1.947-1.092-2.774-1.092-2.774h-47.747c0,0-0.406,0.828-1.092,2.774
		V512h49.931l31.244-65.306l-31.051-87.337L368.121,345.305z"/>
	<path style="fill:#DC5A64;" d="M167.308,341.763h-47.747c0,0-0.406,0.828-1.092,2.774v1.63v13.088l-25.174,88.459L118.469,512
		H168.4V344.537C167.714,342.591,167.308,341.763,167.308,341.763z"/>
</g>
<g>
	<path style="fill:#FBC4AC;" d="M93.976,417.953L55.98,438.358C48.949,458.551,44.307,482.98,44.307,512h74.163v-73.642
		L93.976,417.953z"/>
	<path style="fill:#FBC4AC;" d="M430.611,438.358l-34.387-17.003l-28.102,17.003V512h74.163
		C442.284,482.98,437.642,458.551,430.611,438.358z"/>
</g>
<path style="fill:#E3B098;" d="M336.153,369.398c0,2.303-2.812,4.627-3.063,6.958c-4.261,39.736-41.354,82.214-89.794,82.214
	c-48.033,0-84.867-41.297-89.682-80.74c-0.326-2.669-3.174-5.797-3.174-8.43c0-41.562,41.574-75.255,92.857-75.255
	S336.153,327.837,336.153,369.398z"/>
<path style="fill:#D4D2D3;" d="M236.495,453.948c-9.443-19.717-31.747-49.712-83.987-73.129c-25.539,27.1-9.075,67.406-9.075,67.406
	c40.045-0.944,68.66,9.363,84.725,17.406h12.368L236.495,453.948z"/>
<path style="fill:#EFEDEE;" d="M334.082,380.819c25.539,27.1,9.074,67.406,9.074,67.406c-64.934-1.531-120.27,26.53-120.27,26.53
	S248.849,419.025,334.082,380.819z"/>
<path style="fill:#F2973D;" d="M344.795,28.566C369.485-18.1,447.716-5.855,457.24,52.647c4.696,28.844,28.243,42.036,50.912,47.997
	c0,0-12.249,35.554-58.648,37.822L344.795,28.566z"/>
<path style="fill:#FFA74F;" d="M21.597,216.303c0-56.645,23.242-109.822,65.444-149.735c41.812-39.544,97.304-61.32,156.255-61.32
	s114.444,21.777,156.256,61.32c42.201,39.912,65.443,93.089,65.443,149.735H21.597z"/>
<path style="fill:#F2973D;" d="M128.248,66.568c36.903-34.9,84.464-55.95,135.651-60.415c-6.811-0.594-13.682-0.906-20.604-0.906
	c-58.951,0-114.443,21.778-156.255,61.32c-42.202,39.912-65.444,93.089-65.444,149.735h41.207
	C62.805,159.659,86.045,106.481,128.248,66.568z"/>
<circle style="fill:#E3B098;" cx="439.485" cy="226.66" r="43.259"/>
<g>
	<path style="fill:#00A1E0;" d="M118.469,359.256v79.101H55.98c12.623-36.235,32.959-58.867,48.102-70.051
		C109.888,364.021,114.929,361.092,118.469,359.256z"/>
	<path style="fill:#00A1E0;" d="M430.611,438.358h-62.49v-79.101c0.061,0.031,0.133,0.071,0.194,0.102
		c3.53,1.847,8.49,4.745,14.194,8.949C397.652,379.49,417.988,402.123,430.611,438.358z"/>
</g>
<path style="fill:#FBC4AC;" d="M243.295,401.848c108.351,0,196.189-83.072,196.189-185.546c0-0.112,0-0.224,0-0.336
	c-0.04-21.356-7.689-41.993-21.173-58.554c-29.954-36.789-94.555-90.911-175.014-10.208
	c-80.459-80.704-145.062-26.581-175.014,10.208c-13.484,16.561-21.133,37.198-21.173,58.554c0,0.112,0,0.224,0,0.336
	C47.108,318.776,134.944,401.848,243.295,401.848z"/>
<path style="fill:#E3B098;" d="M78.013,216.303c0-0.112,0-0.224,0-0.335c0.04-21.356,7.689-41.993,21.173-58.554
	c16.112-19.789,42.253-44.581,75.49-50.719c-48-8.792-85.572,25.145-106.395,50.719c-6.511,7.996-11.645,16.949-15.235,26.467
	c-1.784-0.312-3.754-0.478-5.938-0.478c-23.892,0-43.259,19.368-43.259,43.259c0,23.892,19.368,43.26,43.259,43.26
	c3.079,0,5.734-0.328,8.035-0.94c24.007,76.811,99.153,132.866,188.152,132.866c5.201,0,10.353-0.195,15.453-0.571
	C157.62,393.825,78.013,313.858,78.013,216.303z"/>
<path style="fill:#3A484A;" d="M144.562,235.527c-4.267,0-7.726-3.459-7.726-7.726v-19.197c0-4.267,3.459-7.726,7.726-7.726
	c4.267,0,7.726,3.459,7.726,7.726v19.197C152.288,232.068,148.829,235.527,144.562,235.527z"/>
<path style="fill:#F98084;" d="M157.635,263.744h-26.147c-4.267,0-7.726-3.459-7.726-7.726c0-4.267,3.459-7.726,7.726-7.726h26.147
	c4.267,0,7.726,3.459,7.726,7.726C165.361,260.285,161.903,263.744,157.635,263.744z"/>
<path style="fill:#3A484A;" d="M342.03,235.527c-4.267,0-7.726-3.459-7.726-7.726v-19.197c0-4.267,3.459-7.726,7.726-7.726
	s7.726,3.459,7.726,7.726v19.197C349.756,232.068,346.297,235.527,342.03,235.527z"/>
<path style="fill:#F98084;" d="M355.103,263.744h-26.147c-4.267,0-7.726-3.459-7.726-7.726c0-4.267,3.459-7.726,7.726-7.726h26.147
	c4.267,0,7.726,3.459,7.726,7.726C362.829,260.285,359.37,263.744,355.103,263.744z"/>
<path style="fill:#3A484A;" d="M243.295,262.66c-9.113,0-17.67-3.811-23.478-10.454c-2.808-3.213-2.481-8.094,0.732-10.902
	c3.213-2.808,8.094-2.481,10.902,0.732c2.873,3.286,7.19,5.172,11.843,5.172c4.653,0,8.969-1.885,11.842-5.172
	c2.808-3.213,7.689-3.541,10.902-0.732c3.213,2.808,3.541,7.689,0.732,10.902C260.964,258.85,252.407,262.66,243.295,262.66z"/>
<g>
</g>
<g>
</g>
<g>
</g>
<g>
</g>
<g>
</g>
<g>
</g>
<g>
</g>
<g>
</g>
<g>
</g>
<g>
</g>
<g>
</g>
<g>
</g>
<g>
</g>
<g>
</g>
<g>
</g>
</svg>
