<?xml version="1.0" encoding="iso-8859-1"?>
<!-- Generator: Adobe Illustrator 19.0.0, SVG Export Plug-In . SVG Version: 6.00 Build 0)  -->
<svg version="1.1" id="Capa_1" xmlns="http://www.w3.org/2000/svg" xmlns:xlink="http://www.w3.org/1999/xlink" x="0px" y="0px"
	 viewBox="0 0 512 512" style="enable-background:new 0 0 512 512;" xml:space="preserve">
<g>
	<path style="fill:#FBC4AC;" d="M131.715,357.804c-2.927,1.683-6.413,3.903-10.276,6.751c-14.637,10.804-34.293,32.68-46.491,67.7
		c-6.791,19.526-11.282,43.135-11.282,71.185h68.048l22.055-60.573L131.715,357.804z"/>
	<path style="fill:#FBC4AC;" d="M380.285,357.804c2.927,1.683,6.413,3.903,10.276,6.751c14.637,10.804,34.293,32.68,46.491,67.7
		c6.791,19.526,11.282,43.135,11.282,71.185h-68.048l-22.055-60.573L380.285,357.804z"/>
</g>
<path style="fill:#E3B098;" d="M135.806,373.582c0,0-4.091-15.778-4.093-15.777c-0.732,0.42-1.498,0.874-2.296,1.364
	c-1.75,1.071-3.469,2.197-5.154,3.367c-0.915,0.635-1.858,1.307-2.823,2.019c-8.234,6.077-18.055,15.658-27.243,29.11
	c-13.607,19.921-22.212,42.96-26.657,66.593c-0.272,1.448-0.532,2.913-0.779,4.393c-1.972,11.849-3.095,24.764-3.095,38.789H88.56
	c0-28.05,4.491-51.659,11.282-71.185C109.288,405.132,123.208,385.899,135.806,373.582z"/>
<polygon style="fill:#DC5A64;" points="131.713,443.805 131.713,347.846 380.277,348.663 380.277,443.815 351.432,486.679 
	176.342,486.679 "/>
<path style="fill:#BF4E57;" d="M131.713,347.846v9.958l0,0v19.98c5.106-5.504,10.102-9.897,14.619-13.23
	c3.862-2.847,7.347-5.067,10.274-6.75v-9.877L131.713,347.846z"/>
<ellipse style="fill:#E3B098;" cx="256.003" cy="369.517" rx="79.658" ry="69.373"/>
<path style="fill:#EFEDEE;" d="M380.277,443.815v59.625H131.713v-59.634c28.179,19.974,73.356,32.919,124.287,32.919
	C306.922,476.724,352.098,463.78,380.277,443.815z"/>
<g>
	<path style="fill:#F2973D;" d="M354.106,36.171c23.865-45.106,99.48-33.27,108.685,23.276c4.539,27.88,27.299,40.63,49.209,46.392
		c0,0-11.839,34.365-56.687,36.557L354.106,36.171z"/>
	<path style="fill:#F2973D;" d="M157.894,36.171C134.03-8.935,58.415,2.901,49.209,59.447C44.671,87.328,21.91,100.077,0,105.839
		c0,0,11.839,34.365,56.687,36.557L157.894,36.171z"/>
</g>
<path style="fill:#FFA74F;" d="M41.715,217.63c0-54.75,22.465-106.15,63.256-144.728c40.414-38.221,94.05-59.27,151.03-59.27
	s110.617,21.049,151.031,59.27c40.79,38.578,63.255,89.976,63.255,144.728H41.715z"/>
<circle style="fill:#E3B098;" cx="445.63" cy="227.645" r="41.813"/>
<path style="fill:#FBC4AC;" d="M256,396.971c104.728,0,189.628-80.294,189.628-179.342c0-0.109,0-0.216,0-0.325
	c-0.039-20.642-7.432-40.589-20.465-56.596c-28.952-35.559-91.393-87.871-169.162-9.867
	c-77.769-78.006-140.211-25.693-169.162,9.867c-13.033,16.007-20.426,35.954-20.465,56.596c0,0.109,0,0.216,0,0.325
	C66.372,316.677,151.271,396.971,256,396.971z"/>
<path style="fill:#E3B098;" d="M96.244,217.63c0-0.109,0-0.216,0-0.325c0.039-20.642,7.432-40.589,20.465-56.596
	c15.573-19.127,40.84-43.09,72.965-49.023c-46.395-8.498-82.711,24.303-102.837,49.023c-6.293,7.729-11.256,16.382-14.726,25.582
	c-1.725-0.302-3.628-0.462-5.739-0.462c-23.093,0-41.813,18.721-41.813,41.813s18.721,41.813,41.813,41.813
	c2.976,0,5.542-0.317,7.767-0.907c23.205,74.243,95.837,128.423,181.861,128.423c5.027,0,10.007-0.189,14.936-0.552
	C173.189,389.215,96.244,311.923,96.244,217.63z"/>
<path style="fill:#3A484A;" d="M160.567,236.212c-4.124,0-7.468-3.344-7.468-7.468v-18.555c0-4.124,3.344-7.468,7.468-7.468
	c4.124,0,7.468,3.344,7.468,7.468v18.555C168.035,232.868,164.692,236.212,160.567,236.212z"/>
<path style="fill:#F98084;" d="M173.204,263.485h-25.273c-4.124,0-7.468-3.344-7.468-7.468c0-4.124,3.344-7.468,7.468-7.468h25.273
	c4.124,0,7.468,3.344,7.468,7.468C180.672,260.141,177.328,263.485,173.204,263.485z"/>
<path style="fill:#3A484A;" d="M351.432,236.212c-4.124,0-7.468-3.344-7.468-7.468v-18.555c0-4.124,3.344-7.468,7.468-7.468
	s7.468,3.344,7.468,7.468v18.555C358.9,232.868,355.556,236.212,351.432,236.212z"/>
<path style="fill:#F98084;" d="M364.069,263.485h-25.273c-4.124,0-7.468-3.344-7.468-7.468c0-4.124,3.344-7.468,7.468-7.468h25.273
	c4.124,0,7.468,3.344,7.468,7.468C371.537,260.141,368.193,263.485,364.069,263.485z"/>
<path style="fill:#3A484A;" d="M256,262.436c-8.807,0-17.079-3.683-22.692-10.105c-2.714-3.106-2.398-7.823,0.708-10.538
	c3.106-2.714,7.822-2.398,10.538,0.708c2.777,3.176,6.949,4.999,11.446,4.999c4.498,0,8.67-1.822,11.446-4.999
	c2.714-3.107,7.432-3.422,10.538-0.708c3.106,2.714,3.422,7.432,0.708,10.538C273.079,258.754,264.807,262.436,256,262.436z"/>
<g>
	<circle style="fill:#DC5A64;" cx="69.771" cy="274.912" r="15.812"/>
	<circle style="fill:#DC5A64;" cx="442.225" cy="274.912" r="15.812"/>
</g>
<g>
</g>
<g>
</g>
<g>
</g>
<g>
</g>
<g>
</g>
<g>
</g>
<g>
</g>
<g>
</g>
<g>
</g>
<g>
</g>
<g>
</g>
<g>
</g>
<g>
</g>
<g>
</g>
<g>
</g>
</svg>
