<?xml version="1.0" encoding="iso-8859-1"?>
<!-- Generator: Adobe Illustrator 19.0.0, SVG Export Plug-In . SVG Version: 6.00 Build 0)  -->
<svg version="1.1" id="Capa_1" xmlns="http://www.w3.org/2000/svg" xmlns:xlink="http://www.w3.org/1999/xlink" x="0px" y="0px"
	 viewBox="0 0 512 512" style="enable-background:new 0 0 512 512;" xml:space="preserve">
<path style="fill:#3A484A;" d="M471.239,512c0-31.391-5.022-57.814-12.627-79.657c-13.653-39.193-35.65-63.674-52.03-75.772
	c-3.65-2.69-7.006-4.874-9.939-6.632l-279.728-0.922c-3.276,1.892-7.183,4.369-11.499,7.554
	c-16.38,12.097-38.377,36.578-52.03,75.772C45.781,454.186,40.759,480.609,40.759,512h47.166l0,0l7.726-4.268l7.726,4.268l0,0
	H408.62l0,0l7.726-5.153l7.726,5.153l0,0H471.239z"/>
<path style="fill:#313D40;" d="M126.02,356.571c4.266-3.148,8.131-5.603,11.383-7.487l-20.488-0.067
	c-3.276,1.892-7.183,4.369-11.499,7.554c-16.38,12.097-38.377,36.578-52.03,75.772C45.781,454.186,40.759,480.609,40.759,512h20.604
	c0-31.391,5.022-57.814,12.627-79.657C87.643,393.149,109.64,368.669,126.02,356.571z"/>
<path style="fill:#BF4E57;" d="M419.31,346.976C454.691,367.727,437.259,470.21,256,470.21S57.307,367.727,92.688,346.976H419.31z"
	/>
<path style="fill:#DC5A64;" d="M475.79,207.868c0-0.126,0-0.25,0-0.376v0.352C475.777,93.053,377.378,0,255.999,0
	S36.222,93.053,36.209,207.844v-0.352c0,0.126,0,0.25,0,0.376s0,0.25,0,0.376v-0.352c0.009,82.232,50.513,153.303,123.78,187.007
	h192.022l0,0c73.268-33.704,123.77-104.775,123.78-187.007v0.352C475.79,208.118,475.79,207.994,475.79,207.868z"/>
<path style="fill:#BF4E57;" d="M62.994,209.254v0.388c0-0.138,0-0.276,0-0.414c0-0.138,0-0.277,0-0.415v0.388
	c0.008-75.968,35.451-143.291,90.016-185C83.536,59.12,36.218,128.25,36.209,207.844v-0.352c0,0.126,0,0.25,0,0.376s0,0.25,0,0.376
	v-0.352c0.009,75.783,42.901,142.085,106.973,178.399C94.226,344.25,63.001,280.561,62.994,209.254z"/>
<g>
	<path style="fill:#313D40;" d="M87.925,512v-52.596c0-4.267,3.458-7.726,7.726-7.726s7.726,3.459,7.726,7.726V512H87.925z"/>
	<path style="fill:#313D40;" d="M408.62,512v-52.596c0-4.267,3.458-7.726,7.726-7.726s7.726,3.459,7.726,7.726V512H408.62z"/>
</g>
<path style="fill:#F98084;" d="M109.598,200.542c13.657-73.703,68.621-125.97,146.403-125.97s132.746,52.266,146.403,125.97H109.598
	z"/>
<path style="fill:#FBC4AC;" d="M256.001,169.034c-86.451,0-146.403,31.508-146.403,31.508
	c-10.531,56.763,3.451,126.241,50.384,194.35v0.003c29.011,13.347,61.587,20.841,96.018,20.841c34.428,0,67.002-7.493,96.011-20.837
	l0.001-0.006c46.933-68.109,60.915-137.588,50.394-194.35C402.404,200.542,342.453,169.034,256.001,169.034z"/>
<path style="fill:#E3B098;" d="M184.126,404.343c-47.914-72.383-62.054-145.779-50.873-206.047c0,0,32.842-17.255,85.537-27.322
	c-65.966,6.857-109.192,29.568-109.192,29.568c-10.531,56.763,3.451,126.241,50.384,194.35v0.003
	C167.78,398.483,175.845,401.633,184.126,404.343z"/>
<path style="fill:#3A484A;" d="M160.359,253.618c-4.268,0-7.726-3.459-7.726-7.726v-18.596c0-4.267,3.458-7.726,7.726-7.726
	c4.268,0,7.726,3.459,7.726,7.726v18.596C168.085,250.16,164.626,253.618,160.359,253.618z"/>
<path style="fill:#F98084;" d="M173.023,280.952h-25.328c-4.268,0-7.726-3.459-7.726-7.726c0-4.267,3.458-7.726,7.726-7.726h25.328
	c4.268,0,7.726,3.459,7.726,7.726C180.749,277.493,177.29,280.952,173.023,280.952z"/>
<path style="fill:#3A484A;" d="M351.64,253.618c-4.268,0-7.726-3.459-7.726-7.726v-18.596c0-4.267,3.458-7.726,7.726-7.726
	c4.268,0,7.726,3.459,7.726,7.726v18.596C359.366,250.16,355.907,253.618,351.64,253.618z"/>
<path style="fill:#F98084;" d="M364.303,280.952h-25.328c-4.268,0-7.726-3.459-7.726-7.726c0-4.267,3.458-7.726,7.726-7.726h25.328
	c4.268,0,7.726,3.459,7.726,7.726C372.029,277.493,368.571,280.952,364.303,280.952z"/>
<path style="fill:#3A484A;" d="M256,279.901c-8.897,0-17.251-3.721-22.924-10.21c-2.809-3.213-2.481-8.093,0.731-10.902
	c3.213-2.809,8.093-2.482,10.902,0.731c2.737,3.132,6.852,4.927,11.29,4.927c4.437,0,8.552-1.796,11.289-4.926
	c2.808-3.214,7.688-3.541,10.902-0.731c3.212,2.808,3.541,7.689,0.731,10.902C273.251,276.18,264.896,279.901,256,279.901z"/>
<g>
</g>
<g>
</g>
<g>
</g>
<g>
</g>
<g>
</g>
<g>
</g>
<g>
</g>
<g>
</g>
<g>
</g>
<g>
</g>
<g>
</g>
<g>
</g>
<g>
</g>
<g>
</g>
<g>
</g>
</svg>
