<svg height="463pt" viewBox="0 -4 463.24217 463" width="463pt" xmlns="http://www.w3.org/2000/svg"><path d="m110.867188 315.199219v101.734375c0 18.882812 15.308593 34.191406 34.1875 34.191406 18.882812 0 34.191406-15.308594 34.191406-34.191406v-101.734375zm0 0" fill="#fce8cb"/><path d="m179.246094 312.199219h-68.378906c-1.65625 0-3 1.34375-3 3v101.734375c0 20.503906 16.683593 37.191406 37.191406 37.191406 20.503906 0 37.191406-16.6875 37.191406-37.191406v-101.734375c-.003906-1.65625-1.347656-3-3.003906-3zm-3 104.730469c0 17.199218-13.992188 31.191406-31.191406 31.191406-17.195313 0-31.1875-13.992188-31.1875-31.191406v-98.734376h62.375v98.734376zm0 0" fill="#3a312a"/><path d="m321.007812 332.710938c-18.882812 0-34.191406 15.304687-34.191406 34.1875v50.03125c0 18.882812 15.308594 34.191406 34.191406 34.191406 18.878907 0 34.1875-15.308594 34.1875-34.191406v-50.03125c0-18.882813-15.308593-34.1875-34.1875-34.1875zm0 0" fill="#fce8cb"/><path d="m321.007812 329.710938c-20.507812 0-37.191406 16.679687-37.191406 37.1875v50.03125c0 20.507812 16.683594 37.191406 37.191406 37.191406 20.503907 0 37.1875-16.683594 37.1875-37.191406v-50.03125c0-20.503907-16.683593-37.1875-37.1875-37.1875zm31.1875 87.21875c0 17.199218-13.992187 31.191406-31.1875 31.191406-17.199218 0-31.191406-13.992188-31.191406-31.191406v-50.03125c0-17.199219 13.992188-31.1875 31.191406-31.1875 17.195313 0 31.1875 13.988281 31.1875 31.1875zm0 0" fill="#3a312a"/><path d="m450.371094 200.121094c-20.121094-8.339844-36.121094 31.859375-62.5 58.238281-1.261719 1.261719-2.5 2.542969-3.722656 3.800781-.21875-.339844-.4375-.679687-.699219-1.019531-9.679688-14.160156-28.519531-23.71875-49.519531-30.160156-8.179688-2.5-16.679688-4.539063-25.097657-6.199219-18.183593-3.558594-35.980469-5.339844-49.222656-6.261719-13.277344-.878906-22-.878906-22-.878906l-91.160156 17.242187c-21.460938 4.058594-37.800781 21.738282-39.917969 43.476563-4.441406 45.621094 10.617188 80.523437 26.019531 100.882813v37.699218c0 18.878906 15.300781 34.179688 34.179688 34.179688 18.878906 0 34.199219-15.300782 34.199219-34.179688v-17c13.289062.164063 28.597656.34375 44.515624.503906l28.558594.253907c11.792969.089843 23.472656.15625 34.484375.179687v16.058594c0 18.882812 15.320313 34.179688 34.203125 34.179688 18.878906 0 34.179688-15.296876 34.179688-34.179688v-18.039062c6.898437-5.578126 18.960937-46.621094 17-90.839844 7.597656-5.519532 15.617187-12.339844 23.480468-20.21875 26.378907-26.378906 59.839844-76.617188 33.019532-87.71875zm0 0" fill="#fce8cb"/><path d="m462.796875 210.796875c-1.246094-6.261719-5.148437-10.910156-11.277344-13.449219-15.445312-6.40625-27.828125 10.449219-42.164062 29.953125-6.929688 9.429688-14.789063 20.121094-23.601563 28.9375-.414062.414063-.828125.828125-1.238281 1.25-9.320313-12.238281-26.023437-22.113281-49.707031-29.378906-7.746094-2.367187-16.289063-4.476563-25.398438-6.273437-15.035156-2.945313-31.71875-5.066407-49.597656-6.308594-13.226562-.878906-22.109375-.886719-22.199219-.886719-.1875 0-.375.015625-.558593.050781l-91.160157 17.242188c-22.703125 4.296875-40.117187 23.265625-42.347656 46.136718-5.167969 53.113282 15.96875 88.617188 26.007813 102.167969v36.703125c0 20.5 16.675781 37.179688 37.179687 37.179688 20.511719 0 37.199219-16.679688 37.199219-37.179688v-13.960937c12.5625.152343 26.765625.320312 41.488281.464843 1.5625 0 3.011719-1.308593 3.027344-2.96875.015625-1.65625-1.3125-3.011718-2.96875-3.03125-15.917969-.160156-31.222657-.339843-44.511719-.503906-.84375.019532-1.574219.300782-2.144531.867188-.570313.5625-.890625 1.332031-.890625 2.132812v17c0 17.191406-13.996094 31.179688-31.203125 31.179688-17.191407 0-31.179688-13.988282-31.179688-31.179688v-37.699218c0-.65625-.210937-1.292969-.605469-1.8125-9.335937-12.339844-30.5-46.667969-25.425781-98.777344 1.96875-20.234375 17.386719-37.019532 37.492188-40.824219l90.875-17.1875c1.574219.011719 9.804687.097656 21.515625.875 17.625 1.222656 34.058594 3.3125 48.847656 6.210937 8.90625 1.753907 17.253906 3.816407 24.800781 6.121094 23.597657 7.238282 39.722657 16.992188 48.015625 29.117188.207032.269531.378906.539062.5625.828125.5.765625 1.375 1.207031 2.285156 1.296875.902344.078125 1.867188-.296875 2.503907-.957032 1.171875-1.210937 2.363281-2.441406 3.574219-3.652343 9.140624-9.140625 17.140624-20.023438 24.199218-29.628907 13.371094-18.191406 23.933594-32.5625 35.03125-27.960937 4.316406 1.785156 6.828125 4.753906 7.6875 9.074219 3.332032 16.742187-18.574218 50.644531-41.683594 73.757812-7.492187 7.507813-15.269531 14.207032-23.117187 19.910156-.816406.59375-1.28125 1.550782-1.234375 2.558594.855469 19.296875-.960938 40.296875-5.109375 59.132813-4.039063 18.324219-8.660156 27.527343-10.78125 29.242187-.703125.570313-1.113281 1.425782-1.113281 2.335938v18.039062c0 17.191406-13.988282 31.179688-31.179688 31.179688-17.207031 0-31.203125-13.988282-31.203125-31.179688v-16.058594c0-1.65625-1.335937-2.996093-2.992187-3-11.007813-.027343-22.683594-.089843-34.472656-.179687h-.019532c-1.648437 0-2.988281 1.328125-3 2.976563-.015625 1.65625 1.316406 3.011718 2.976563 3.023437 10.738281.082031 21.378906.140625 31.507812.171875v13.066406c0 20.5 16.691407 37.179688 37.203125 37.179688 20.5 0 37.179688-16.679688 37.179688-37.179688v-16.796875c8.203125-9.355469 18.5625-49.703125 17.0625-90.609375 7.660156-5.675781 15.238281-12.253906 22.535156-19.574218 11.457031-11.457032 23.050781-26.164063 31.011719-39.351563 6.949219-11.496094 14.71875-27.734375 12.316406-39.8125zm0 0" fill="#3a312a"/><path d="m456.910156 211.960938c-.859375-4.320313-3.378906-7.28125-7.679687-9.058594-6.441407-2.679688-12.699219 1.039062-19.441407 8.199218 4.199219 19.398438-21.378906 55.679688-42.4375 76.738282-2.003906 2.003906-7.226562 7.570312-12.363281 12.625-6.777343 6.675781-10.726562 15.703125-11.050781 25.210937-1.007812 29.636719-7.515625 55.65625-13.132812 67.332031-2.507813 5.214844-3.933594 10.882813-3.933594 16.664063v7.269531c0 12.160156-6.339844 22.820313-15.902344 28.878906 3.636719 1.488282 7.617188 2.308594 11.777344 2.300782 17.125-.03125 31.125-14.9375 31.125-32.0625v-17.15625c0-.902344.398437-1.761719 1.117187-2.339844 2.121094-1.703125 6.742188-10.921875 10.78125-29.242188 4.140625-18.839843 5.960938-39.839843 5.101563-59.121093-.039063-1.019531.417968-1.976563 1.238281-2.558594 7.839844-5.699219 15.621094-12.398437 23.121094-19.917969 21.519531-21.523437 42.019531-52.441406 42.019531-70.101562 0-1.300782-.121094-2.519532-.339844-3.660156zm0 0" fill="#decaad"/><path d="m64.820312 321.726562c-1.949218 23.125-26.050781 26.777344-26.050781 26.777344 20.695313.972656 25.851563 28.117188 25.851563 28.117188.441406-19.355469 26.640625-28.402344 26.640625-28.402344-19.625-1.171875-26.441407-26.492188-26.441407-26.492188zm0 0" fill="#d7e057"/><path d="m91.445312 345.222656c-17.210937-1.03125-23.664062-24.046875-23.730468-24.28125-.378906-1.40625-1.71875-2.324218-3.164063-2.203125-1.449219.128907-2.597656 1.28125-2.71875 2.734375-1.71875 20.429688-22.628906 23.925782-23.511719 24.0625-1.523437.230469-2.625 1.582032-2.542968 3.125.078125 1.539063 1.3125 2.765625 2.855468 2.839844 18.054688.851562 22.996094 25.4375 23.046876 25.683594.273437 1.421875 1.515624 2.433594 2.941406 2.433594.085937 0 .167968 0 .253906-.007813 1.527344-.128906 2.714844-1.386719 2.746094-2.917969.390625-17.019531 24.386718-25.554687 24.628906-25.636718 1.347656-.472657 2.183594-1.828126 1.984375-3.246094-.195313-1.417969-1.363281-2.5-2.789063-2.585938zm-27.132812 20.691406c-2.710938-6.257812-7.417969-13.8125-15.175781-17.75 5.863281-2.808593 12.820312-7.828124 16.40625-16.546874 3.101562 6.140624 8.398437 13.761718 16.667969 17.445312-6.015626 3.277344-13.84375 8.8125-17.898438 16.851562zm0 0" fill="#3a312a"/><path d="m21.421875 355.6875c-1.378906 16.359375-18.421875 18.941406-18.421875 18.941406 14.632812.6875 18.28125 19.886719 18.28125 19.886719.3125-13.6875 18.84375-20.089844 18.84375-20.089844-13.882812-.832031-18.703125-18.738281-18.703125-18.738281zm0 0" fill="#d7e057"/><path d="m40.304688 371.429688c-11.53125-.6875-15.945313-16.371094-15.988282-16.527344-.378906-1.40625-1.707031-2.335938-3.164062-2.207032-1.449219.132813-2.597656 1.289063-2.71875 2.738282-1.15625 13.742187-15.292969 16.132812-15.882813 16.226562-1.527343.230469-2.6249998 1.582032-2.54687475 3.121094.08203125 1.542969 1.31249975 2.769531 2.85546875 2.84375 12.070313.566406 15.445313 17.289062 15.476563 17.453125.269531 1.425781 1.519531 2.4375 2.945312 2.4375.082031 0 .164062 0 .25-.007813 1.527344-.125 2.714844-1.386718 2.75-2.921874.261719-11.417969 16.664062-17.269532 16.828125-17.324219 1.351563-.46875 2.1875-1.828125 1.992187-3.246094-.199218-1.417969-1.367187-2.5-2.796874-2.585937zm-19.167969 13.589843c-1.847657-3.769531-4.679688-7.890625-8.894531-10.558593 3.710937-2.082032 7.394531-5.261719 9.742187-9.832032 2.113281 3.746094 5.308594 7.90625 9.882813 10.445313-3.699219 2.203125-7.980469 5.484375-10.730469 9.945312zm0 0" fill="#3a312a"/><path d="m21.421875 302.371094c-1.378906 16.359375-18.421875 18.941406-18.421875 18.941406 14.632812.6875 18.28125 19.886719 18.28125 19.886719.3125-13.691407 18.84375-20.089844 18.84375-20.089844-13.882812-.832031-18.703125-18.738281-18.703125-18.738281zm0 0" fill="#d7e057"/><path d="m40.304688 318.113281c-11.53125-.6875-15.941407-16.367187-15.988282-16.527343-.378906-1.402344-1.707031-2.335938-3.164062-2.203126-1.449219.132813-2.597656 1.285157-2.71875 2.734376-1.15625 13.742187-15.292969 16.132812-15.882813 16.226562-1.527343.230469-2.6249998 1.582031-2.54687475 3.125.08203125 1.539062 1.31249975 2.765625 2.85546875 2.839844 12.070313.570312 15.445313 17.289062 15.476563 17.453125.269531 1.425781 1.519531 2.4375 2.945312 2.4375.082031 0 .164062 0 .25-.007813 1.527344-.125 2.714844-1.386718 2.75-2.921875.261719-11.421875 16.664062-17.269531 16.828125-17.324219 1.351563-.46875 2.1875-1.828124 1.992187-3.246093-.199218-1.414063-1.367187-2.5-2.796874-2.585938zm-19.167969 13.59375c-1.847657-3.773437-4.679688-7.894531-8.894531-10.558593 3.710937-2.082032 7.394531-5.257813 9.738281-9.832032 2.117187 3.746094 5.308593 7.90625 9.882812 10.445313-3.695312 2.199219-7.976562 5.480469-10.726562 9.945312zm0 0" fill="#3a312a"/><path d="m106.367188 44.21875c-19.21875-34.957031-69.824219-44.039062-76.582032-40.324219-5.53125 3.039063-26.210937 51.308594-6.996094 86.265625 19.21875 34.957032 45.734376 38.875 68.816407 26.191406 23.078125-12.6875 33.976562-37.175781 14.761719-72.132812zm0 0" fill="#87796f"/><path d="m108.992188 42.773438c-10.816407-19.679688-30.171876-30.449219-44.503907-36.015626-14.90625-5.792968-31.125-8.257812-36.148437-5.492187-6.898438 3.792969-28.496094 53.378906-8.179688 90.339844 12.382813 22.519531 29.300782 34.335937 47.800782 34.335937 8.140624 0 16.589843-2.289062 25.089843-6.960937 27.808594-15.289063 33.769531-43.777344 15.941407-76.207031zm-18.835938 70.949218c-24.882812 13.679688-48.480469 4.5625-64.734375-25.007812-18.183594-33.074219 1.34375-78.914063 5.804687-82.191406.503907-.257813 1.539063-.398438 3.007813-.398438 11.992187 0 52.90625 9.347656 69.5 39.539062 16.257813 29.574219 11.308594 54.378907-13.578125 68.058594zm0 0" fill="#3a312a"/><path d="m86.398438 51.171875c-10.8125-19.675781-39.296876-24.789063-43.101563-22.695313-3.113281 1.710938-14.753906 28.878907-3.9375 48.550782 10.816406 19.679687 25.742187 21.882812 38.730469 14.742187 12.992187-7.140625 19.125-20.921875 8.308594-40.597656zm0 0" fill="#f16c7a"/><path d="m89.03125 49.726562c-6.28125-11.421874-17.457031-17.652343-25.726562-20.863281-7.652344-2.972656-17.773438-5.039062-21.453126-3.019531-4.964843 2.730469-16.445312 32.027344-5.121093 52.628906 7.230469 13.148438 17.132812 20.042969 27.980469 20.042969 4.804687 0 9.800781-1.355469 14.824218-4.117187 16.375-9 19.921875-25.699219 9.496094-44.671876zm-12.386719 39.414063c-13.46875 7.40625-25.777343 2.589844-34.65625-13.558594-9.519531-17.324219-.207031-41.0625 2.839844-44.476562 4.609375-1.082031 29.519531 4.367187 38.945313 21.507812 8.875 16.148438 6.34375 29.125-7.128907 36.527344zm0 0" fill="#3a312a"/><path d="m283.726562 3.894531c-6.761718-3.71875-57.367187 5.367188-76.582031 40.324219-19.214843 34.957031-8.316406 59.445312 14.761719 72.128906 23.078125 12.6875 49.597656 8.765625 68.8125-26.1875 19.21875-34.957031-1.460938-83.226562-6.992188-86.265625zm0 0" fill="#87796f"/><path d="m299.441406 34.457031c-3.183594-15.492187-9.722656-30.691406-14.269531-33.191406-5.023437-2.761719-21.242187-.296875-36.152344 5.492187-14.332031 5.570313-33.683593 16.335938-44.503906 36.015626-17.824219 32.433593-11.867187 60.917968 15.945313 76.210937 8.5 4.671875 16.945312 6.960937 25.089843 6.960937 18.496094 0 35.417969-11.816406 47.796875-34.335937 10.738282-19.53125 9.242188-41.863281 6.09375-57.152344zm-11.351562 54.257813c-16.253906 29.574218-39.851563 38.691406-64.738282 25.007812-24.886718-13.679687-29.832031-38.484375-13.578124-68.058594 16.625-30.246093 57.652343-39.570312 69.511718-39.570312 1.429688 0 2.4375.136719 2.925782.386719 4.535156 3.320312 24.0625 49.160156 5.878906 82.234375zm0 0" fill="#3a312a"/><path d="m270.214844 28.476562c-3.804688-2.09375-32.289063 3.019532-43.105469 22.695313s-4.679687 33.457031 8.3125 40.597656c12.988281 7.140625 27.914063 4.933594 38.726563-14.742187 10.816406-19.671875-.820313-46.839844-3.933594-48.550782zm0 0" fill="#f16c7a"/><path d="m271.660156 25.84375c-3.683594-2.019531-13.800781.046875-21.453125 3.019531-8.269531 3.210938-19.445312 9.4375-25.726562 20.863281-10.425781 18.96875-6.878907 35.671876 9.492187 44.671876 5.03125 2.765624 10.019532 4.117187 14.828125 4.117187 10.847657 0 20.75-6.894531 27.976563-20.039063 11.328125-20.601562-.152344-49.898437-5.117188-52.632812zm-.136718 49.738281c-8.878907 16.148438-21.183594 20.964844-34.65625 13.558594-13.472657-7.40625-16-20.375-7.128907-36.527344 9.496094-17.269531 34.707031-22.667969 38.910157-21.546875 3.011718 3.277344 12.429687 27.128906 2.875 44.515625zm0 0" fill="#3a312a"/><path d="m286.695312 167.105469c-1.347656-21.472657-7.742187-42.699219-18.042968-61.804688-12.441406-23.128906-30.5625-43.089843-52.222656-56.410156-7.742188-4.761719-15.9375-8.664063-24.496094-11.585937-1.800782-.613282-3.617188-1.183594-5.457032-1.695313-9.542968-2.71875-19.492187-4.1875-29.726562-4.1875-12.199219 0-24.011719 2.082031-35.1875 5.882813-8.539062 2.921874-16.753906 6.824218-24.476562 11.585937-21.675782 13.320313-39.796876 33.28125-52.238282 56.410156-11.648437 21.636719-18.328125 46.03125-18.328125 70.386719 0 71.941406 59.085938 116.21875 131.007813 116.21875 71.9375 0 129.453125-44.277344 129.453125-116.21875 0-2.859375-.082031-5.71875-.285157-8.582031zm0 0" fill="#fce8cb"/><path d="m289.691406 166.917969c-1.34375-21.410157-7.707031-43.207031-18.394531-63.039063-13.027344-24.214844-31.457031-44.113281-53.292969-57.546875-8.015625-4.925781-16.460937-8.917969-25.101562-11.867187-1.980469-.675782-3.816406-1.246094-5.601563-1.742188-21.964843-6.25-44.996093-5.640625-66.703125 1.742188-8.679687 2.96875-17.121094 6.960937-25.078125 11.867187-21.847656 13.425781-40.285156 33.328125-53.316406 57.546875-12.222656 22.710938-18.683594 47.542969-18.683594 71.808594 0 35.292969 13.691407 65.503906 39.597657 87.378906 24.320312 20.53125 57.847656 31.835938 94.410156 31.835938 77.988281 0 132.453125-49.023438 132.453125-119.214844 0-3.160156-.09375-6.039062-.289063-8.769531zm-132.164062 121.984375c-35.148438 0-67.300782-10.804688-90.539063-30.421875-24.511719-20.695313-37.46875-49.324219-37.46875-82.792969 0-23.273438 6.210938-47.121094 17.964844-68.964844 12.53125-23.289062 30.226563-42.402344 51.175781-55.28125 7.582032-4.671875 15.617188-8.472656 23.871094-11.296875 11.171875-3.796875 22.683594-5.722656 34.21875-5.722656 9.6875 0 19.414062 1.371094 28.925781 4.078125 1.6875.472656 3.417969 1.007812 5.289063 1.644531 8.21875 2.804688 16.257812 6.609375 23.894531 11.300781 20.9375 12.882813 38.625 31.996094 51.152344 55.28125 10.28125 19.074219 16.398437 40.019532 17.691406 60.597657.1875 2.613281.277344 5.347656.277344 8.363281 0 66.660156-52 113.214844-126.453125 113.214844zm0 0" fill="#3a312a"/><path d="m268.65625 105.300781c-12.441406-23.128906-30.566406-43.089843-52.222656-56.410156-7.746094-4.761719-15.9375-8.664063-24.5-11.585937-1.796875-.613282-3.617188-1.183594-5.457032-1.695313-18.183593 15.179687-29.746093 38-29.746093 63.542969 0 45.703125 37.042969 82.746094 82.746093 82.746094 17.550782 0 33.835938-5.457032 47.21875-14.792969-1.347656-21.472657-7.742187-42.703125-18.039062-61.804688zm0 0" fill="#87796f"/><path d="m271.296875 103.878906c-13.027344-24.214844-31.457031-44.113281-53.292969-57.546875-8.015625-4.925781-16.460937-8.917969-25.101562-11.867187-1.980469-.675782-3.816406-1.246094-5.621094-1.75-.949219-.261719-1.96875-.042969-2.726562.589844-19.589844 16.351562-30.824219 40.351562-30.824219 65.84375 0 47.28125 38.464843 85.75 85.746093 85.75 17.636719 0 34.558594-5.300782 48.933594-15.332032.859375-.597656 1.34375-1.601562 1.28125-2.648437-1.34375-21.410157-7.707031-43.207031-18.394531-63.039063zm-31.820313 75.019532c-43.972656 0-79.746093-35.773438-79.746093-79.75 0-23.179688 9.988281-45.035157 27.464843-60.214844 1.210938.363281 2.457032.761718 3.769532 1.210937 8.21875 2.804688 16.257812 6.605469 23.894531 11.300781 20.9375 12.878907 38.625 31.992188 51.152344 55.28125 10 18.546876 16.058593 38.867188 17.570312 58.871094-13.054687 8.707032-28.269531 13.300782-44.105469 13.300782zm0 0" fill="#3a312a"/><path d="m156.804688 171.402344c-10.609376-.046875-19.238282 5.078125-19.265626 11.445312-.027343 6.371094 8.53125 16.695313 19.144532 16.738282 10.609375.046874 19.261718-10.199219 19.289062-16.570313.027344-6.367187-8.554687-11.566406-19.167968-11.613281zm0 0" fill="#3a312a"/><path d="m156.757812 193.863281c0 13.710938-10.390624 24.972657-23.722656 26.359375.25 16.515625 10.777344 29.789063 23.722656 29.789063 12.945313 0 23.472657-13.269531 23.71875-29.789063-13.332031-1.386718-23.71875-12.648437-23.71875-26.359375zm0 0" fill="#f16c7a"/><g fill="#3a312a"><path d="m180.789062 217.242188c-11.992187-1.25-21.035156-11.300782-21.035156-23.378907 0-1.65625-1.34375-3-3-3s-3 1.34375-3 3c0 12.078125-9.042968 22.128907-21.035156 23.378907-1.542969.160156-2.710938 1.472656-2.6875 3.027343.277344 18.363281 12.011719 32.742188 26.722656 32.742188 14.707032 0 26.445313-14.378907 26.71875-32.742188.03125-1.554687-1.136718-2.867187-2.683594-3.027343zm-24.03125 29.769531c-10.542968 0-19.394531-10.652344-20.589843-24.234375 9.152343-1.847656 16.652343-7.851563 20.589843-15.894532 3.9375 8.042969 11.433594 14.046876 20.585938 15.894532-1.195312 13.582031-10.046875 24.234375-20.585938 24.234375zm0 0"/><path d="m156.757812 190.863281c-1.660156 0-3 1.34375-3 3 0 12.078125-9.042968 22.128907-21.078124 23.382813-.75.089844-1.570313.132812-2.4375.132812-12.964844 0-23.515626-10.546875-23.515626-23.515625 0-1.65625-1.339843-3-3-3-1.65625 0-3 1.34375-3 3 0 16.277344 13.242188 29.515625 29.515626 29.515625 1.101562 0 2.160156-.058594 3.101562-.171875 15.058594-1.566406 26.414062-14.183593 26.414062-29.34375 0-1.652343-1.347656-3-3-3zm0 0"/><path d="m209.785156 190.863281c-1.65625 0-3 1.34375-3 3 0 12.96875-10.546875 23.515625-23.511718 23.515625-.871094 0-1.6875-.042968-2.484376-.136718-11.992187-1.25-21.03125-11.300782-21.03125-23.378907 0-1.65625-1.34375-3-3-3-1.660156 0-3 1.34375-3 3 0 15.160157 11.351563 27.777344 26.367188 29.339844.984375.117187 2.042969.175781 3.144531.175781 16.273438 0 29.515625-13.238281 29.515625-29.515625 0-1.652343-1.34375-3-3-3zm0 0"/><path d="m116.203125 138.496094c-6.027344 0-10.917969 4.890625-10.917969 10.917968 0 6.03125 4.890625 10.917969 10.917969 10.917969 6.03125 0 10.917969-4.886719 10.917969-10.917969 0-6.027343-4.886719-10.917968-10.917969-10.917968zm0 0"/><path d="m197.308594 138.496094c-6.03125 0-10.917969 4.890625-10.917969 10.917968 0 6.03125 4.886719 10.917969 10.917969 10.917969s10.917968-4.886719 10.917968-10.917969c0-6.027343-4.886718-10.917968-10.917968-10.917968zm0 0"/><path d="m270.613281 187.515625h-45.09375c-1.65625 0-3 1.339844-3 3 0 1.65625 1.34375 3 3 3h45.09375c1.660157 0 3-1.34375 3-3 0-1.660156-1.34375-3-3-3zm0 0"/><path d="m263.378906 218.402344-38.367187-19.039063c-1.480469-.734375-3.285157-.128906-4.019531 1.355469-.734376 1.484375-.128907 3.285156 1.355468 4.019531l38.363282 19.035157c.429687.214843.882812.316406 1.332031.316406 1.105469 0 2.164062-.613282 2.691406-1.667969.734375-1.484375.128906-3.285156-1.355469-4.019531zm0 0"/><path d="m264.734375 158.605469c-.738281-1.484375-2.539063-2.089844-4.019531-1.351563l-38.367188 19.039063c-1.484375.734375-2.089844 2.535156-1.355468 4.019531.527343 1.054688 1.589843 1.667969 2.691406 1.667969.449218 0 .90625-.101563 1.332031-.316407l38.367187-19.035156c1.480469-.738281 2.085938-2.539062 1.351563-4.023437zm0 0"/><path d="m89.832031 185.554688h-44.140625c-1.65625 0-3 1.34375-3 3 0 1.660156 1.34375 3 3 3h44.140625c1.65625 0 3-1.339844 3-3 0-1.65625-1.34375-3-3-3zm0 0"/><path d="m94.320312 198.511719c-.738281-1.484375-2.539062-2.085938-4.023437-1.351563l-37.554687 18.636719c-1.480469.734375-2.089844 2.535156-1.351563 4.019531.523437 1.058594 1.585937 1.667969 2.691406 1.667969.445313 0 .902344-.097656 1.328125-.3125l37.554688-18.636719c1.484375-.734375 2.089844-2.535156 1.355468-4.023437zm0 0"/><path d="m92.964844 174.574219-37.554688-18.632813c-1.480468-.738281-3.28125-.132812-4.019531 1.355469-.734375 1.480469-.128906 3.28125 1.355469 4.019531l37.554687 18.632813c.425781.210937.882813.3125 1.328125.3125 1.105469 0 2.167969-.609375 2.691406-1.667969.734376-1.484375.128907-3.28125-1.355468-4.019531zm0 0"/></g><path d="m400.238281 3.121094h-72.625c-3.820312 0-6.917969 3.097656-6.917969 6.914062 0 3.820313 3.097657 6.917969 6.917969 6.917969h51.191407c3.820312 0 6.917968 3.097656 6.917968 6.917969 0 3.820312-3.097656 6.914062-6.917968 6.914062h-51.191407c-3.820312 0-6.917969 3.097656-6.917969 6.917969s3.097657 6.914063 6.917969 6.914063h51.191407c3.820312 0 6.917968 3.097656 6.917968 6.917968 0 3.820313-3.097656 6.914063-6.917968 6.914063h-51.191407c-3.820312 0-6.917969 3.097656-6.917969 6.917969 0 3.820312 3.097657 6.917968 6.917969 6.917968h51.191407c3.820312 0 6.917968 3.097656 6.917968 6.914063 0 3.820312-3.097656 6.917969-6.917968 6.917969h-51.191407c-3.820312 0-6.917969 3.097656-6.917969 6.914062 0 3.820312 3.097657 6.917969 6.917969 6.917969h51.191407c3.820312 0 6.917968 3.097656 6.917968 6.917969 0 3.820312-3.097656 6.917968-6.917968 6.917968h-51.191407c-3.820312 0-6.917969 3.097656-6.917969 6.917969s3.097657 6.914063 6.917969 6.914063h51.191407c3.820312 0 6.917968 3.097656 6.917968 6.917968 0 3.820313-3.097656 6.917969-6.917968 6.917969h-51.191407c-3.820312 0-6.917969 3.097656-6.917969 6.917969 0 3.820312 3.097657 6.917968 6.917969 6.917968h51.191407c3.820312 0 6.917968 3.097657 6.917968 6.917969 0 3.816407-3.097656 6.917969-6.917968 6.917969h-51.191407c-3.820312 0-6.917969 3.09375-6.917969 6.914062 0 3.820313 3.097657 6.917969 6.917969 6.917969h72.625c19.171875 0 34.71875-15.546875 34.71875-34.71875v-110.398437c0-19.175782-15.546875-34.71875-34.71875-34.71875zm0 0" fill="#87796f"/><path d="m400.238281.121094h-33.261719c-1.65625 0-3 1.34375-3 3s1.34375 3 3 3h33.261719c17.488281 0 31.714844 14.226562 31.714844 31.714844v110.410156c0 17.488281-14.226563 31.714844-31.714844 31.714844h-72.625c-2.160156 0-3.914062-1.753907-3.914062-3.914063s1.753906-3.917969 3.914062-3.917969h51.191407c5.46875 0 9.914062-4.449218 9.914062-9.917968s-4.449219-9.917969-9.914062-9.917969h-51.191407c-2.160156 0-3.914062-1.757813-3.914062-3.914063 0-2.160156 1.753906-3.917968 3.914062-3.917968h51.191407c5.46875 0 9.914062-4.449219 9.914062-9.917969s-4.449219-9.917969-9.914062-9.917969h-51.191407c-2.160156 0-3.914062-1.757812-3.914062-3.914062 0-2.160157 1.753906-3.917969 3.914062-3.917969h51.191407c5.46875 0 9.914062-4.449219 9.914062-9.917969s-4.449219-9.917969-9.914062-9.917969h-51.191407c-2.160156 0-3.914062-1.757812-3.914062-3.914062 0-2.160157 1.753906-3.917969 3.914062-3.917969h51.191407c5.46875 0 9.914062-4.449219 9.914062-9.914062 0-5.46875-4.449219-9.917969-9.914062-9.917969h-51.191407c-2.160156 0-3.914062-1.757813-3.914062-3.914063 0-2.160156 1.753906-3.917968 3.914062-3.917968h51.191407c5.46875 0 9.914062-4.449219 9.914062-9.914063 0-5.46875-4.449219-9.917969-9.914062-9.917969h-51.191407c-2.160156 0-3.914062-1.753906-3.914062-3.914062s1.753906-3.917969 3.914062-3.917969h51.191407c5.46875 0 9.914062-4.449219 9.914062-9.914063 0-5.46875-4.449219-9.917968-9.914062-9.917968h-51.191407c-2.160156 0-3.914062-1.753906-3.914062-3.914063 0-2.160156 1.753906-3.917969 3.914062-3.917969h10.867188c1.660156 0 3-1.339843 3-3 0-1.65625-1.339844-3-3-3h-10.867188c-5.46875 0-9.914062 4.449219-9.914062 9.917969 0 5.464844 4.449219 9.914063 9.914062 9.914063h51.191407c2.160156 0 3.914062 1.757812 3.914062 3.917968 0 2.160157-1.753906 3.914063-3.914062 3.914063h-51.191407c-5.46875 0-9.914062 4.449219-9.914062 9.917969 0 5.464844 4.449219 9.914062 9.914062 9.914062h51.191407c2.160156 0 3.914062 1.757813 3.914062 3.917969s-1.753906 3.914063-3.914062 3.914063h-51.191407c-5.46875 0-9.914062 4.449218-9.914062 9.917968 0 5.464844 4.449219 9.914063 9.914062 9.914063h51.191407c2.160156 0 3.914062 1.757812 3.914062 3.917969 0 2.15625-1.753906 3.914062-3.914062 3.914062h-51.191407c-5.46875 0-9.914062 4.449219-9.914062 9.917969 0 5.464843 4.449219 9.914062 9.914062 9.914062h51.191407c2.160156 0 3.914062 1.757813 3.914062 3.917969s-1.753906 3.917969-3.914062 3.917969h-51.191407c-5.46875 0-9.914062 4.449219-9.914062 9.917969 0 5.464843 4.449219 9.914062 9.914062 9.914062h51.191407c2.160156 0 3.914062 1.757812 3.914062 3.917969 0 2.164062-1.753906 3.917969-3.914062 3.917969h-51.191407c-5.46875 0-9.914062 4.449218-9.914062 9.917968 0 5.464844 4.449219 9.914063 9.914062 9.914063h51.191407c2.160156 0 3.914062 1.757812 3.914062 3.917969 0 2.164062-1.753906 3.917968-3.914062 3.917968h-51.191407c-5.46875 0-9.914062 4.449219-9.914062 9.917969 0 5.464844 4.449219 9.914063 9.914062 9.914063h72.625c20.796875 0 37.714844-16.917969 37.714844-37.714844v-110.410156c0-20.792969-16.917969-37.714844-37.714844-37.714844zm0 0" fill="#3a312a"/><path d="m400.230469 6.121094h-30c17.5 0 31.71875 14.21875 31.71875 31.71875v110.402344c0 17.5-14.21875 31.71875-31.71875 31.71875h30c17.5 0 31.71875-14.21875 31.71875-31.71875v-110.402344c0-17.5-14.21875-31.71875-31.71875-31.71875zm0 0" fill="#695b51"/></svg>