<svg height="455pt" viewBox="0 -1 455.26148 455" width="455pt" xmlns="http://www.w3.org/2000/svg"><path d="m147.875 68.152344c-30.414062-55.332032-110.515625-69.707032-121.214844-63.824219-8.753906 4.808594-41.484375 81.210937-11.070312 136.542969 30.417968 55.328125 72.386718 61.535156 108.917968 41.453125 36.527344-20.082031 53.78125-58.84375 23.367188-114.171875zm0 0" fill="#87796f"/><path d="m150.503906 66.707031c-30.441406-55.371093-112.226562-72.183593-125.289062-65.011719-10.335938 5.683594-43.207032 84.308594-12.253906 140.617188 14.746093 26.820312 32.875 43.785156 53.890624 50.421875 6.449219 2.039063 13.109376 3.046875 19.886719 3.046875 12.847657 0 26.125-3.636719 39.210938-10.832031 19.992187-10.988281 33.214843-26.796875 38.242187-45.726563 5.660156-21.296875 1.054688-45.695312-13.6875-72.515625zm-27.441406 112.988281c-40.367188 22.183594-78.578125 7.507813-104.84375-40.269531-29.589844-53.832031 2.785156-128.496093 9.882812-132.472656 1.199219-.65625 3.476563-1.003906 6.605469-1.003906 21.800781 0 84.851563 16.921875 110.535157 63.648437 26.265624 47.78125 18.183593 87.910156-22.179688 110.097656zm0 0" fill="#3a312a"/><path d="m116.269531 79.15625c-17.117187-31.140625-62.199219-39.234375-68.222656-35.925781-4.925781 2.710937-23.347656 45.710937-6.230469 76.855469 17.121094 31.140624 40.742188 34.632812 61.300782 23.332031 20.5625-11.304688 30.273437-33.121094 13.152343-64.261719zm0 0" fill="#f16c7a"/><path d="m118.902344 77.710938c-17.867188-32.5-64.488282-41.402344-72.300782-37.105469-6.1875 3.402343-25.597656 47.839843-7.414062 80.925781 8.46875 15.402344 18.925781 25.15625 31.085938 29 3.761718 1.1875 7.644531 1.777344 11.589843 1.777344 7.449219 0 15.136719-2.101563 22.703125-6.261719 11.574219-6.359375 19.234375-15.539063 22.160156-26.546875 3.273438-12.328125.640626-26.386719-7.824218-41.789062zm2.023437 40.246093c-2.492187 9.382813-9.152343 17.277344-19.253906 22.828125-10.101563 5.554688-20.332031 6.941406-29.589844 4.019532-10.640625-3.359376-19.9375-12.164063-27.636719-26.167969-16.152343-29.386719 1.050782-69.671875 5.03125-72.769531.457032-.214844 1.359376-.335938 2.625-.335938 10.609376 0 46.785157 8.226562 61.539063 35.066406 7.699219 14.007813 10.152344 26.574219 7.285156 37.359375zm0 0" fill="#3a312a"/><path d="m428.601562 4.328125c-10.699218-5.882813-90.796874 8.496094-121.210937 63.824219-30.417969 55.328125-13.164063 94.09375 23.363281 114.171875 36.527344 20.082031 78.5 13.875 108.917969-41.453125 30.414063-55.332032-2.316406-131.734375-11.070313-136.542969zm0 0" fill="#87796f"/><path d="m430.046875 1.695312c-13.0625-7.179687-94.847656 9.636719-125.289063 65.011719-14.742187 26.820313-19.347656 51.21875-13.691406 72.519531 5.027344 18.925782 18.253906 34.734376 38.242188 45.726563 13.089844 7.195313 26.363281 10.832031 39.214844 10.832031 6.777343 0 13.4375-1.011718 19.882812-3.046875 21.019531-6.640625 39.148438-23.605469 53.894531-50.421875 30.953125-56.316406-1.917969-134.9375-12.253906-140.621094zm6.996094 137.730469c-26.265625 47.777344-64.480469 62.457031-104.84375 40.269531-18.519531-10.179687-30.734375-24.707031-35.332031-42.007812-5.25-19.761719-.824219-42.667969 13.148437-68.089844 29.375-53.429687 107.597656-67.886718 117.140625-62.640625 7.101562 3.972657 39.480469 78.628907 9.886719 132.46875zm0 0" fill="#3a312a"/><path d="m407.214844 43.230469c-6.023438-3.308594-51.105469 4.785156-68.222656 35.925781-17.121094 31.140625-7.410157 52.957031 13.152343 64.261719 20.558594 11.300781 44.179688 7.808593 61.300781-23.332031 17.117188-31.144532-1.304687-74.144532-6.230468-76.855469zm0 0" fill="#f16c7a"/><path d="m408.660156 40.601562c-7.808594-4.296874-54.433594 4.609376-72.300781 37.109376-8.464844 15.398437-11.097656 29.457031-7.824219 41.785156 2.925782 11.007812 10.589844 20.1875 22.160156 26.546875 7.566407 4.160156 15.253907 6.261719 22.703126 6.261719 3.945312 0 7.828124-.589844 11.589843-1.777344 12.160157-3.839844 22.617188-13.597656 31.085938-29 18.1875-33.082032-1.226563-77.519532-7.414063-80.925782zm2.15625 78.039063c-7.699218 14-16.996094 22.804687-27.636718 26.167969-9.261719 2.921875-19.492188 1.535156-29.59375-4.019532-10.101563-5.550781-16.757813-13.449218-19.25-22.832031-2.863282-10.78125-.414063-23.351562 7.28125-37.351562 14.804687-26.929688 51.164062-35.117188 61.554687-35.117188 1.207031 0 2.0625.109375 2.496094.308594 4.09375 3.167969 21.300781 43.457031 5.148437 72.84375zm0 0" fill="#3a312a"/><path d="m416.191406 283.183594c-.339844-.382813-.699218-.761719-1.039062-1.179688.378906-5.441406.558594-10.863281.558594-16.421875 0-22.441406-3.261719-44.058593-9.398438-64.300781-10.421875-34.660156-29.042969-65.277344-53.382812-89.097656-4.796876-4.722656-9.839844-9.160156-15.078126-13.320313-16.28125-12.941406-34.539062-23.121093-54.199218-29.882812-18.042969-6.238281-37.242188-9.597657-57.160156-9.597657-19.222657 0-37.78125 3.097657-55.261719 8.960938-19.917969 6.617188-38.4375 16.699219-54.960938 29.617188-5.257812 4.121093-10.296875 8.519531-15.136719 13.179687-24.863281 23.980469-43.882812 54.980469-54.460937 90.183594-6.101563 20.238281-9.421875 41.816406-9.421875 64.257812 0 6.019531.261719 11.980469.742188 17.839844.039062.300781.039062.582031.058593.859375-15.878906 18.019531-24.898437 38.5625-24.898437 60.382812 0 6.859376.878906 13.378907 2.597656 19.539063 15.429688 55.675781 97.785156 84.097656 199.019531 86.304687h25.722657c101.234374-2.207031 183.589843-30.628906 199.019531-86.304687 1.71875-6.160156 2.597656-12.679687 2.597656-19.539063 0-22.300781-9.398437-43.222656-25.917969-61.480468zm0 0" fill="#fce8cb"/><path d="m418.425781 281.183594-.199219-.222656c.328126-5.039063.484376-10.082032.484376-15.375 0-22.402344-3.207032-44.332032-9.527344-65.164063-10.417969-34.652344-29.144532-65.90625-54.152344-90.378906-4.796875-4.71875-9.953125-9.273438-15.3125-13.527344-16.808594-13.359375-35.34375-23.578125-55.085938-30.371094-18.734374-6.476562-38.296874-9.761719-58.140624-9.761719-19.257813 0-38.171876 3.066407-56.210938 9.113282-20.039062 6.660156-38.835938 16.789062-55.863281 30.105468-5.246094 4.109376-10.417969 8.613282-15.371094 13.382813-25.570313 24.667969-44.675781 56.296875-55.246094 91.472656-6.335937 21.019531-9.550781 42.933594-9.550781 65.128907 0 5.746093.238281 11.640624.722656 17.664062-16.246094 18.804688-24.824218 40.015625-24.824218 61.414062 0 7.054688.914062 13.898438 2.710937 20.339844 14.683594 52.984375 90.140625 86.066406 201.84375 88.5 1.667969.015625 3.027344-1.28125 3.0625-2.933594.039063-1.65625-1.277344-3.027343-2.933594-3.0625-108.910156-2.375-182.253906-33.816406-196.195312-84.113281-1.652344-5.921875-2.488281-12.222656-2.488281-18.734375 0-20.5625 8.125-40.210937 24.152343-58.394531.527344-.601563.796875-1.394531.742188-2.191406l-.015625-.210938c-.011719-.273437-.027344-.550781-.046875-.6875-.484375-5.910156-.730469-11.828125-.730469-17.59375 0-21.605469 3.125-42.933593 9.292969-63.394531 10.277343-34.195312 28.835937-64.929688 53.667969-88.882812 4.804687-4.628907 9.820312-8.996094 14.902343-12.976563 16.484375-12.890625 34.671875-22.695313 54.066407-29.140625 17.425781-5.839844 35.699218-8.804688 54.308593-8.804688 19.175781 0 38.078125 3.175782 56.183594 9.4375 19.101563 6.566407 37.039063 16.457032 53.3125 29.394532 5.195313 4.125 10.191406 8.535156 14.84375 13.113281 24.289063 23.769531 42.480469 54.136719 52.609375 87.828125 6.152344 20.277344 9.273438 41.617188 9.273438 63.429688 0 5.589843-.183594 10.890624-.554688 16.207031-.054688.761719.183594 1.511719.664062 2.101562.285157.355469.585938.683594.875 1.007813l.269532.292968c16.449218 18.183594 25.144531 38.746094 25.144531 59.46875 0 6.511719-.835937 12.8125-2.492187 18.742188-13.9375 50.289062-87.28125 81.730469-196.191407 84.105469-1.65625.035156-2.96875 1.40625-2.933593 3.0625.03125 1.632812 1.367187 2.933593 2.996093 2.933593h.066407c111.703124-2.433593 187.160156-35.519531 201.84375-88.496093 1.796874-6.445313 2.707031-13.292969 2.707031-20.347657.003906-22.234374-9.226563-44.191406-26.679688-63.480468zm0 0" fill="#3a312a"/><path d="m171.230469 68.339844c-58.789063 19.507812-105.46875 69.429687-124.5625 132.984375-6.101563 20.238281-9.40625 41.816406-9.40625 64.25 0 6.039062.253906 11.980469.730469 17.859375.03125.285156.03125.570312.0625.855468-15.886719 18.019532-24.910157 38.546876-24.910157 60.375 0 6.863282.886719 13.378907 2.605469 19.542969 13.695312 5.910157 28.3125 9.085938 43.46875 9.085938 74.753906 0 135.960938-77.101563 141.390625-174.902344l.0625-26.582031c-1.890625-38.851563-12.542969-74.53125-29.441406-103.46875zm0 0" fill="#87796f"/><path d="m200.773438 195.394531c-1.625-.0625-3.070313 1.175781-3.164063 2.832031-5.355469 96.488282-66.144531 172.070313-138.394531 172.070313-13.988282 0-27.753906-2.785156-40.949219-8.277344-1.414063-5.542969-2.125-11.367187-2.125-17.351562 0-20.566407 8.128906-40.210938 24.164063-58.390625.558593-.636719.824218-1.480469.730468-2.320313l-.019531-.261719c-.007813-.199218-.023437-.398437-.035156-.503906-.480469-5.898437-.722657-11.824218-.722657-17.613281 0-21.636719 3.125-42.960937 9.28125-63.390625 18.621094-61.964844 63.496094-110.464844 120.320313-130.210938 16.433594 28.984376 26.042969 63.496094 27.816406 99.984376.078125 1.652343 1.457031 2.945312 3.140625 2.847656 1.65625-.078125 2.933594-1.484375 2.851563-3.140625-1.863281-38.339844-12.1875-74.589844-29.847657-104.839844-.714843-1.222656-2.1875-1.777344-3.535156-1.332031-59.769531 19.835937-107.054687 70.289062-126.488281 134.960937-6.328125 20.988281-9.535156 42.898438-9.535156 65.121094 0 5.785156.234375 11.707031.707031 17.6875-16.246094 18.804687-24.824219 40.007813-24.824219 61.402344 0 7.027343.914063 13.875 2.710938 20.347656.246093.871094.871093 1.589844 1.703125 1.949219 14.351562 6.195312 29.375 9.335937 44.660156 9.335937 36.953125 0 72.121094-18.429687 99.027344-51.898437 26.578125-33.058594 42.6875-77.75 45.355468-125.839844.09375-1.660156-1.175781-3.074219-2.828124-3.167969zm0 0" fill="#3a312a"/><path d="m416.191406 283.179688c-.351562-.382813-.699218-.761719-1.046875-1.175782.378907-5.433594.570313-10.871094.570313-16.429687 0-22.433594-3.273438-44.042969-9.40625-64.285157-18.875-62.820312-64.726563-112.359374-122.65625-132.316406-18.429688 31.90625-29.394532 71.878906-29.394532 115.253906 0 104.414063 63.460938 189.066407 141.789063 189.066407 15.15625 0 29.773437-3.175781 43.46875-9.085938 1.714844-6.164062 2.605469-12.679687 2.605469-19.542969 0-22.304687-9.40625-43.214843-25.929688-61.484374zm0 0" fill="#87796f"/><path d="m418.371094 281.117188c-.050782-.054688-.101563-.109376-.148438-.167969.328125-5.121094.492188-10.164063.492188-15.375 0-22.355469-3.207032-44.277344-9.53125-65.148438-19.175782-63.824219-65.738282-114.027343-124.550782-134.289062-1.359374-.46875-2.859374.089843-3.578124 1.332031-19.492188 33.742188-29.792969 74.117188-29.792969 116.753906 0 105.910156 64.949219 192.070313 144.785156 192.070313 15.285156 0 30.308594-3.140625 44.660156-9.335938.832031-.359375 1.457031-1.078125 1.699219-1.949219 1.804688-6.472656 2.71875-13.320312 2.71875-20.347656-.003906-22.21875-9.238281-44.179687-26.753906-63.542968zm18.625 80.898437c-13.191406 5.496094-26.960938 8.277344-40.949219 8.277344-76.527344 0-138.789063-83.46875-138.789063-186.066407 0-40.679687 9.589844-79.199218 27.761719-111.589843 55.886719 20.148437 100.050781 68.382812 118.417969 129.523437 6.15625 20.316406 9.277344 41.648438 9.277344 63.414063 0 5.5-.1875 10.804687-.566406 16.21875-.054688.78125.199218 1.554687.703124 2.148437.363282.425782.726563.824219 1.113282 1.25 16.691406 18.453125 25.152344 38.464844 25.152344 59.472656.003906 5.984376-.710938 11.8125-2.121094 17.351563zm0 0" fill="#3a312a"/><path d="m227.710938 269.460938c-16.796876-.074219-30.453126 8.035156-30.496094 18.117187-.042969 10.078125 13.503906 26.417969 30.300781 26.492187 16.796875.070313 30.488281-16.148437 30.53125-26.226562s-13.539063-18.308594-30.335937-18.382812zm0 0" fill="#3a312a"/><path d="m227.632812 305.015625c0 21.699219-16.445312 39.523437-37.550781 41.71875.394531 26.144531 17.058594 47.152344 37.550781 47.152344 20.488282 0 37.152344-21.007813 37.546876-47.152344-21.105469-2.195313-37.546876-20.019531-37.546876-41.71875zm0 0" fill="#f16c7a"/><g fill="#3a312a"><path d="m265.492188 343.753906c-19.875-2.070312-34.859376-18.722656-34.859376-38.738281 0-1.660156-1.34375-3-3-3-1.660156 0-3 1.339844-3 3 0 20.011719-14.988281 36.667969-34.859374 38.738281-1.546876.160156-2.710938 1.472656-2.691407 3.027344.425781 28.097656 18.238281 50.105469 40.550781 50.105469 22.308594 0 40.121094-22.007813 40.546876-50.105469.023437-1.554688-1.144532-2.867188-2.6875-3.027344zm-37.859376 47.132813c-18 0-33.046874-18.40625-34.449218-41.542969 15.980468-2.667969 28.863281-13.585938 34.449218-28.09375 5.582032 14.507812 18.464844 25.425781 34.449219 28.09375-1.410156 23.136719-16.453125 41.542969-34.449219 41.542969zm0 0"/><path d="m227.632812 302.015625c-1.660156 0-3 1.339844-3 3 0 20.011719-14.988281 36.667969-34.902343 38.742187-1.265625.148438-2.632813.222657-4.066407.222657-21.488281 0-38.96875-17.476563-38.96875-38.964844 0-1.660156-1.339843-3-3-3-1.65625 0-3 1.339844-3 3 0 24.792969 20.171876 44.964844 44.96875 44.964844 1.667969 0 3.273438-.089844 4.730469-.261719 22.9375-2.386719 40.238281-21.605469 40.238281-44.703125 0-1.660156-1.34375-3-3-3zm0 0"/><path d="m311.566406 302.015625c-1.65625 0-3 1.339844-3 3 0 21.488281-17.480468 38.964844-38.96875 38.964844-1.433594 0-2.796875-.074219-4.105468-.226563-19.875-2.070312-34.859376-18.722656-34.859376-38.738281 0-1.660156-1.34375-3-3-3-1.660156 0-3 1.339844-3 3 0 23.097656 17.296876 42.316406 40.195313 44.699219 1.496094.175781 3.101563.265625 4.769531.265625 24.796875 0 44.96875-20.171875 44.96875-44.964844 0-1.660156-1.34375-3-3-3zm0 0"/></g><path d="m143.695312 283.664062c0-13.632812-17.683593-24.6875-39.5-24.6875-21.8125 0-39.5 11.054688-39.5 24.6875 0 13.632813 17.6875 24.6875 39.5 24.6875 21.816407 0 39.5-11.054687 39.5-24.6875zm0 0" fill="#f5978a"/><path d="m351.066406 258.976562c-21.816406 0-39.5 11.054688-39.5 24.6875 0 13.632813 17.683594 24.683594 39.5 24.683594s39.5-11.050781 39.5-24.683594c0-13.632812-17.683594-24.6875-39.5-24.6875zm0 0" fill="#f5978a"/><path d="m163.445312 217.375c-9.542968 0-17.28125 7.738281-17.28125 17.285156 0 9.542969 7.738282 17.277344 17.28125 17.277344 9.542969 0 17.28125-7.738281 17.28125-17.277344 0-9.546875-7.738281-17.285156-17.28125-17.285156zm0 0" fill="#3a312a"/><path d="m308.949219 232.550781c-1.164063-9.472656-9.785157-16.210937-19.257813-15.046875-9.472656 1.164063-16.207031 9.785156-15.042968 19.257813 1.160156 9.472656 9.78125 16.207031 19.253906 15.042969 9.472656-1.164063 16.207031-9.785157 15.046875-19.253907zm0 0" fill="#3a312a"/><path d="m225.40625 11.960938c-31.191406-21.902344-70.78125 4.910156-66.445312 44.175781 2.671874 24.207031 29.75 44.171875 66.445312 44.171875s111.226562-24.683594 111.226562-49.082032c0-24.394531-39.003906 11.453126-111.226562-39.265624zm0 0" fill="#d7e057"/><path d="m336.523438 42.046875c-3.765626-3.726563-9.828126-3.664063-18.984376-3.566406-18.113281.191406-48.425781.511719-90.410156-28.972657-14.773437-10.371093-32.628906-11.214843-47.773437-2.253906-16.683594 9.871094-25.640625 28.726563-23.378907 49.210938 2.945313 26.707031 32.792969 46.84375 69.425782 46.84375 36.640625 0 114.226562-24.636719 114.226562-52.082032.003906-4.105468-1.015625-7.109374-3.105468-9.179687zm-111.117188 55.261719c-33.570312 0-60.855469-17.84375-63.46875-41.503906-1.996094-18.109376 5.847656-34.734376 20.476562-43.386719 5.992188-3.542969 12.484376-5.304688 18.988282-5.304688 7.671875 0 15.363281 2.445313 22.28125 7.304688 43.566406 30.59375 75.097656 30.265625 93.917968 30.0625 7.109376-.074219 12.714844-.132813 14.703126 1.828125.890624.886718 1.328124 2.496094 1.328124 4.917968 0 21.207032-71.535156 46.082032-108.226562 46.082032zm0 0" fill="#3a312a"/><path d="m405.070312 375.921875c-18.320312 38.082031-71.039062 61.441406-139 70.460937 38.699219-2.660156 72.960938-9.441406 100.539063-19.980468 35.523437-13.578125 58.863281-33.21875 68-57.019532-9.617187 3.519532-19.5 5.71875-29.539063 6.539063zm0 0" fill="#decaad"/><path d="m413.972656 285.183594c-.363281-.402344-.742187-.800782-1.121094-1.242188-.5-.597656-.761718-1.378906-.699218-2.160156.378906-5.398438.558594-10.699219.558594-16.199219 0-21.78125-3.121094-43.101562-9.28125-63.417969-15.820313-52.660156-50.777344-95.742187-95.898438-119.542968-4.398438 2.121094-9.082031 4.121094-13.921875 5.960937 38.703125 25.261719 68.421875 65.179688 82.703125 112.699219 6.136719 20.242188 9.398438 41.859375 9.398438 64.300781 0 2.058594-.019532 4.082031-.078126 6.101563 3.136719 3.539062 4.9375 7.640625 4.9375 11.980468 0 1.359376-.179687 2.699219-.519531 4 14.121094 17.179688 22.058594 36.5 22.058594 57 0 6.859376-.878906 13.378907-2.597656 19.539063-.519531 1.839844-1.101563 3.660156-1.742188 5.4375 9.960938-1.117187 19.742188-3.679687 29.222657-7.617187 1.417968-5.542969 2.117187-11.382813 2.117187-17.359376 0-21-8.457031-41.023437-25.136719-59.480468zm0 0" fill="#695b51"/></svg>