<svg height="498pt" viewBox="0 -23 498 498" width="498pt" xmlns="http://www.w3.org/2000/svg"><path d="m442.019531 3h-386.039062c-16.558594 0-29.980469 13.421875-29.980469 29.980469v193.019531c0 84.199219 46.660156 157.5 115.539062 195.421875 1.742188.957031 3.480469 1.898437 5.261719 2.796875 30.621094 15.839844 65.359375 24.78125 102.199219 24.78125 37.339844 0 72.539062-9.179688 103.460938-25.441406 1.339843-.699219 2.679687-1.417969 4-2.136719 68.878906-37.921875 115.539062-111.222656 115.539062-195.421875v-193.019531c0-16.558594-13.421875-29.980469-29.980469-29.980469zm0 0" fill="#8ac6dd"/><path d="m442.019531 0h-302.902343c-1.660157 0-3 1.34375-3 3s1.339843 3 3 3h302.902343c14.875 0 26.980469 12.105469 26.980469 26.980469v193.019531c0 80.210938-43.675781 154.085938-113.976562 192.785156-1.304688.710938-2.628907 1.421875-3.960938 2.117188-31.21875 16.417968-66.511719 25.097656-102.0625 25.097656-35.542969 0-69.464844-8.222656-100.847656-24.457031-1.75-.882813-3.457032-1.808594-5.167969-2.75-70.308594-38.707031-113.984375-112.582031-113.984375-192.792969v-193.019531c0-14.875 12.105469-26.980469 26.980469-26.980469h57.566406c1.660156 0 3-1.34375 3-3s-1.339844-3-3-3h-57.566406c-18.1875 0-32.980469 14.792969-32.980469 32.980469v193.019531c0 82.398438 44.867188 158.285156 117.089844 198.046875 1.773437.976563 3.542968 1.933594 5.332031 2.835937 32.214844 16.667969 67.0625 25.117188 103.578125 25.117188 36.523438 0 72.78125-8.914062 104.847656-25.78125 1.355469-.707031 2.710938-1.4375 4.058594-2.171875 72.226562-39.761719 117.09375-115.648437 117.09375-198.046875v-193.019531c0-18.1875-14.796875-32.980469-32.980469-32.980469zm0 0" fill="#3a312a"/><path d="m59 189c-11.378906 0-22.441406 1.421875-33 4.101562v32.898438c0 84.199219 46.660156 157.5 115.539062 195.421875 1.742188.957031 3.480469 1.898437 5.261719 2.796875 28.300781-24.558594 46.199219-60.796875 46.199219-101.21875 0-74-60-134-134-134zm0 0" fill="#87796f"/><path d="m59 186c-11.425781 0-22.777344 1.410156-33.738281 4.191406-1.328125.339844-2.261719 1.535156-2.261719 2.910156v32.898438c0 82.398438 44.867188 158.285156 117.089844 198.046875 1.773437.976563 3.542968 1.933594 5.355468 2.847656.429688.21875.894532.324219 1.351563.324219.710937 0 1.410156-.25 1.96875-.734375 30.019531-26.050781 47.234375-63.769531 47.234375-103.484375 0-75.542969-61.457031-137-137-137zm87.355469 234.613281c-1.128907-.59375-2.25-1.203125-3.371094-1.820312-70.308594-38.707031-113.984375-112.582031-113.984375-192.792969v-30.542969c9.777344-2.292969 19.855469-3.457031 30-3.457031 72.234375 0 131 58.765625 131 131 0 37.300781-15.882812 72.761719-43.644531 97.613281zm0 0" fill="#3a312a"/><path d="m441 189c-74 0-134 60-134 134 0 40.058594 17.578125 76.019531 45.460938 100.558594 1.339843-.699219 2.679687-1.417969 4-2.136719 68.878906-37.921875 115.539062-111.222656 115.539062-195.421875v-33.378906c-9.941406-2.382813-20.339844-3.621094-31-3.621094zm0 0" fill="#87796f"/><path d="m472.699219 189.703125c-10.261719-2.457031-20.925781-3.703125-31.699219-3.703125-75.542969 0-137 61.457031-137 137 0 39.339844 16.941406 76.8125 46.476562 102.8125.5625.492188 1.269532.746094 1.984376.746094.472656 0 .949218-.109375 1.386718-.339844 1.355469-.707031 2.710938-1.433594 4.058594-2.171875 72.226562-39.761719 117.09375-115.648437 117.09375-198.046875v-33.378906c0-1.390625-.953125-2.59375-2.300781-2.917969zm-3.699219 36.296875c0 80.210938-43.675781 154.085938-113.976562 192.785156-.703126.382813-1.410157.765625-2.121094 1.148438-27.289063-24.796875-42.902344-60.007813-42.902344-96.933594 0-72.234375 58.765625-131 131-131 9.496094 0 18.90625 1.011719 28 3.011719zm0 0" fill="#3a312a"/><path d="m161.625 42.625h-134.574219c-13.28125 0-24.050781 10.765625-24.050781 24.050781v66.648438c0 13.28125 10.769531 24.050781 24.050781 24.050781h134.574219c31.6875 0 57.375-25.6875 57.375-57.375s-25.6875-57.375-57.375-57.375zm0 0" fill="#d7e057"/><path d="m161.625 39.625h-134.574219c-14.917969 0-27.050781 12.136719-27.050781 27.050781v66.648438c0 14.914062 12.132812 27.050781 27.050781 27.050781h134.574219c33.289062 0 60.375-27.085938 60.375-60.378906 0-33.289063-27.085938-60.371094-60.375-60.371094zm0 114.75h-134.574219c-11.609375 0-21.050781-9.441406-21.050781-21.050781v-66.648438c0-11.609375 9.445312-21.050781 21.050781-21.050781h134.574219c29.984375 0 54.375 24.394531 54.375 54.375s-24.390625 54.375-54.375 54.375zm0 0" fill="#3a312a"/><path d="m111.242188 96.046875c-16.734376-.058594-30.359376 16.371094-30.40625 30.265625-.046876 13.890625 13.511718 16.363281 30.25 16.417969 16.734374.058593 30.308593-2.320313 30.355468-16.210938.046875-13.894531-13.464844-30.414062-30.199218-30.472656zm0 0" fill="#87796f"/><path d="m111.253906 93.046875h-.082031c-15.382813 0-33.273437 14.496094-33.335937 33.253906-.066407 19.316407 22.429687 19.390625 33.234374 19.429688.496094 0 1.019532.003906 1.558594.003906 11.269532 0 31.75-.777344 31.8125-19.207031.0625-18.792969-17.789062-33.425782-33.1875-33.480469zm-.160156 46.683594c-19.648438-.070313-27.292969-3.828125-27.257812-13.410157.050781-15.132812 14.976562-27.273437 27.332031-27.273437h.0625c12.367187.042969 27.261719 12.300781 27.210937 27.460937-.03125 9.582032-7.730468 13.304688-27.347656 13.222657zm0 0" fill="#3a312a"/><path d="m111.382812 55c-6.554687-.023438-11.890624 6.777344-11.921874 15.191406-.027344 8.410156 5.261718 15.246094 11.816406 15.269532 6.554687.019531 11.894531-6.777344 11.921875-15.191407.027343-8.410156-5.261719-15.246093-11.816407-15.269531zm0 0" fill="#87796f"/><path d="m111.390625 52h-.039063c-8.179687 0-14.855468 8.144531-14.890624 18.179688-.03125 10.050781 6.609374 18.253906 14.808593 18.28125h.039063c8.179687 0 14.851562-8.144532 14.890625-18.179688.03125-10.054688-6.609375-18.253906-14.808594-18.28125zm-.101563 30.460938c-4.890624-.015626-8.847656-5.515626-8.828124-12.261719.023437-6.734375 4.007812-12.199219 8.890624-12.199219h.019532c4.890625.015625 8.851562 5.515625 8.828125 12.261719-.023438 6.742187-4.007813 12.214843-8.910157 12.199219zm0 0" fill="#3a312a"/><path d="m88.023438 76.671875c-3.902344-7.453125-11.777344-11.027344-17.578126-7.984375-5.808593 3.042969-7.347656 11.546875-3.445312 19 3.902344 7.449219 11.777344 11.023438 17.578125 7.980469 5.808594-3.042969 7.351563-11.546875 3.445313-18.996094zm0 0" fill="#87796f"/><path d="m90.679688 75.277344c-4.664063-8.902344-14.367188-13.054688-21.628907-9.246094-3.644531 1.910156-6.105469 5.449219-6.921875 9.964844-.769531 4.246094.015625 8.890625 2.214844 13.082031 2.195312 4.191406 5.566406 7.480469 9.492188 9.265625 2.085937.945312 4.199218 1.421875 6.25 1.421875 2.0625 0 4.058593-.480469 5.886718-1.441406 7.261719-3.800781 9.375-14.140625 4.707032-23.046875zm-7.492188 17.734375c-1.96875 1.03125-4.40625.984375-6.871094-.128907-2.714844-1.234374-5.082031-3.574218-6.660156-6.589843-1.582031-3.011719-2.15625-6.289063-1.625-9.222657.480469-2.660156 1.832031-4.691406 3.804688-5.722656.976562-.511718 2.042968-.757812 3.144531-.757812 3.777343 0 7.960937 2.851562 10.382812 7.472656 3.132813 5.972656 2.15625 12.679688-2.175781 14.949219zm0 0" fill="#3a312a"/><path d="m63.523438 99.222656c-6.679688-5.113281-15.324219-5.035156-19.308594.167969-3.984375 5.207031-1.800782 13.566406 4.882812 18.679687 6.679688 5.113282 15.324219 5.035157 19.304688-.167968 3.984375-5.207032 1.800781-13.566406-4.878906-18.679688zm0 0" fill="#87796f"/><path d="m72.863281 107.769531c-1.089843-4.171875-3.757812-8.054687-7.519531-10.929687-7.984375-6.113282-18.53125-5.785156-23.511719.726562-4.980469 6.507813-2.542969 16.777344 5.441407 22.886719 3.714843 2.839844 8.097656 4.402344 12.363281 4.402344h.152343c4.59375-.042969 8.5-1.863281 11-5.132813 2.5-3.265625 3.238282-7.511718 2.074219-11.953125zm-6.839843 8.308594c-1.351563 1.765625-3.585938 2.75-6.289063 2.777344-2.921875.066406-6.109375-1.097657-8.8125-3.167969-5.359375-4.097656-7.296875-10.59375-4.324219-14.476562 1.433594-1.871094 3.75-2.800782 6.367188-2.800782 2.808594 0 5.960937 1.070313 8.734375 3.191406 2.703125 2.070313 4.605469 4.796876 5.359375 7.683594.683594 2.613282.316406 5.027344-1.035156 6.792969zm0 0" fill="#3a312a"/><path d="m152.410156 68.96875c-5.78125-3.082031-13.679687.4375-17.632812 7.859375-3.953125 7.425781-2.472656 15.941406 3.316406 19.023437 5.78125 3.082032 13.679688-.4375 17.632812-7.863281 3.957032-7.421875 2.472657-15.9375-3.316406-19.019531zm0 0" fill="#87796f"/><path d="m153.824219 66.320312c-3.632813-1.9375-7.945313-1.972656-12.136719-.101562-3.9375 1.753906-7.332031 5.023438-9.554688 9.203125-2.226562 4.175781-3.042968 8.8125-2.304687 13.0625.789063 4.523437 3.222656 8.082031 6.855469 10.011719 1.847656.988281 3.871094 1.480468 5.964844 1.480468 2.023437 0 4.113281-.457031 6.167968-1.375 3.941406-1.753906 7.332032-5.023437 9.558594-9.203124 4.726562-8.867188 2.683594-19.222657-4.550781-23.078126zm-.746094 20.257813c-1.597656 3.007813-3.980469 5.328125-6.703125 6.542969-2.46875 1.101562-4.910156 1.128906-6.871094.085937-1.964844-1.046875-3.300781-3.089843-3.765625-5.75-.511719-2.9375.085938-6.210937 1.6875-9.214843 1.601563-3.003907 3.980469-5.328126 6.707031-6.539063 1.265626-.566406 2.523438-.847656 3.714844-.847656 1.128906 0 2.199219.253906 3.15625.761719 4.3125 2.296874 5.242188 9.007812 2.074219 14.960937zm0 0" fill="#3a312a"/><path d="m177.828125 99.847656c-3.949219-5.234375-12.59375-5.367187-19.304687-.300781-6.714844 5.066406-8.960938 13.414063-5.011719 18.644531 3.949219 5.234375 12.59375 5.367188 19.304687.300782 6.714844-5.066407 8.957032-13.414063 5.011719-18.644532zm0 0" fill="#87796f"/><path d="m180.222656 98.039062c-2.480468-3.285156-6.371094-5.132812-10.960937-5.203124-4.316407-.078126-8.769531 1.460937-12.546875 4.3125-3.777344 2.851562-6.476563 6.714843-7.59375 10.878906-1.191406 4.433594-.480469 8.6875 1.996094 11.96875 2.480468 3.289062 6.371093 5.136718 10.960937 5.207031.09375.003906.183594.003906.273437.003906 4.226563-.003906 8.574219-1.527343 12.273438-4.320312 3.777344-2.851563 6.476562-6.714844 7.59375-10.878907 1.191406-4.433593.480469-8.683593-1.996094-11.96875zm-3.800781 10.414063c-.773437 2.882813-2.695313 5.597656-5.410156 7.648437-2.71875 2.046876-5.882813 3.171876-8.839844 3.105469-2.703125-.042969-4.929687-1.042969-6.269531-2.820312-1.339844-1.777344-1.691406-4.191407-.988282-6.800781.773438-2.878907 2.695313-5.597657 5.410157-7.644532 2.664062-2.007812 5.730469-3.109375 8.65625-3.109375.0625 0 .125 0 .183593.003907 2.703126.039062 4.929688 1.039062 6.269532 2.816406 1.339844 1.78125 1.691406 4.191406.988281 6.800781zm0 0" fill="#3a312a"/><path d="m470.949219 42.625h-134.574219c-31.6875 0-57.375 25.6875-57.375 57.375s25.6875 57.375 57.375 57.375h134.574219c13.28125 0 24.050781-10.765625 24.050781-24.050781v-66.648438c0-13.285156-10.769531-24.050781-24.050781-24.050781zm0 0" fill="#d7e057"/><path d="m470.949219 39.625h-134.574219c-33.289062 0-60.375 27.082031-60.375 60.375s27.085938 60.375 60.375 60.375h43.742188c1.660156 0 3-1.339844 3-3 0-1.65625-1.339844-3-3-3h-43.742188c-29.984375 0-54.375-24.394531-54.375-54.375s24.390625-54.375 54.375-54.375h134.574219c11.609375 0 21.050781 9.441406 21.050781 21.050781v66.644531c0 11.609376-9.445312 21.050782-21.050781 21.050782h-65.066407c-1.65625 0-3 1.34375-3 3 0 1.660156 1.34375 3 3 3h65.066407c14.917969 0 27.050781-12.132813 27.050781-27.050782v-66.644531c0-14.914062-12.132812-27.050781-27.050781-27.050781zm0 0" fill="#3a312a"/><path d="m386.757812 96.046875c-16.734374.058594-30.246093 16.578125-30.199218 30.472656.046875 13.890625 13.625 16.269531 30.355468 16.210938 16.738282-.058594 30.296876-2.527344 30.25-16.421875-.046874-13.890625-13.671874-30.320313-30.40625-30.261719zm0 0" fill="#87796f"/><path d="m386.746094 93.046875c-15.398438.050781-33.25 14.6875-33.1875 33.480469.066406 18.429687 20.546875 19.203125 31.8125 19.203125.539062 0 1.0625 0 1.558594-.003907 10.808593-.035156 33.300781-.113281 33.234374-19.429687-.0625-18.789063-18.050781-33.332031-33.417968-33.25zm.160156 46.683594c-19.613281.132812-27.3125-3.640625-27.347656-13.222657-.046875-15.160156 14.84375-27.417968 27.210937-27.460937h.066407c12.351562 0 27.28125 12.144531 27.332031 27.273437.03125 9.582032-7.613281 13.339844-27.261719 13.410157zm0 0" fill="#3a312a"/><path d="m386.617188 55c-6.554688.023438-11.84375 6.859375-11.816407 15.269531.027344 8.414063 5.367188 15.210938 11.921875 15.191407 6.554688-.023438 11.84375-6.859376 11.816406-15.269532-.03125-8.414062-5.367187-15.214844-11.921874-15.191406zm0 0" fill="#87796f"/><path d="m386.609375 52c-8.199219.027344-14.839844 8.226562-14.808594 18.28125.039063 10.03125 6.710938 18.175781 14.890625 18.175781h.039063c8.199219-.027343 14.839843-8.226562 14.808593-18.28125-.035156-10.050781-6.777343-18.207031-14.929687-18.175781zm.101563 30.460938h-.023438c-4.878906 0-8.863281-5.46875-8.886719-12.199219-.023437-6.746094 3.933594-12.246094 8.828125-12.261719h.019532c4.878906 0 8.867187 5.464844 8.890624 12.199219.019532 6.746093-3.9375 12.246093-8.828124 12.261719zm0 0" fill="#3a312a"/><path d="m427.558594 68.6875c-5.804688-3.042969-13.675782.53125-17.582032 7.984375-3.902343 7.449219-2.359374 15.953125 3.445313 18.996094s13.675781-.53125 17.582031-7.980469c3.898438-7.453125 2.359375-15.957031-3.445312-19zm0 0" fill="#87796f"/><path d="m435.871094 75.996094c-.816406-4.515625-3.277344-8.054688-6.921875-9.964844-7.257813-3.808594-16.964844.339844-21.628907 9.246094-4.667968 8.90625-2.550781 19.246094 4.707032 23.046875 1.828125.960937 3.824218 1.441406 5.886718 1.441406 2.050782 0 4.164063-.476563 6.25-1.421875 3.925782-1.785156 7.296876-5.074219 9.492188-9.265625 2.199219-4.191406 2.984375-8.835937 2.214844-13.082031zm-7.527344 10.296875c-1.578125 3.015625-3.945312 5.351562-6.660156 6.585937-2.460938 1.117188-4.902344 1.164063-6.871094.132813-4.332031-2.273438-5.308594-8.976563-2.179688-14.953125 3.132813-5.96875 9.203126-8.988282 13.53125-6.714844 1.972657 1.03125 3.324219 3.0625 3.804688 5.722656.53125 2.9375-.042969 6.210938-1.625 9.226563zm0 0" fill="#3a312a"/><path d="m453.785156 99.390625c-3.984375-5.203125-12.628906-5.28125-19.308594-.167969-6.679687 5.113282-8.863281 13.476563-4.878906 18.679688 3.980469 5.203125 12.625 5.28125 19.304688.167968 6.683594-5.113281 8.867187-13.476562 4.882812-18.679687zm0 0" fill="#87796f"/><path d="m456.167969 97.566406c-4.984375-6.511718-15.53125-6.835937-23.511719-.726562-3.757812 2.875-6.429688 6.757812-7.519531 10.929687-1.164063 4.441407-.425781 8.6875 2.074219 11.957031 2.503906 3.265626 6.410156 5.089844 11 5.128907h.15625c4.261718 0 8.648437-1.558594 12.359374-4.402344 7.980469-6.109375 10.421876-16.378906 5.441407-22.886719zm-9.089844 18.121094c-2.699219 2.070312-5.78125 3.214844-8.8125 3.167969-2.703125-.023438-4.9375-1.007813-6.289063-2.777344-1.351562-1.765625-1.71875-4.175781-1.035156-6.789063.753906-2.886718 2.660156-5.613281 5.359375-7.683593 5.355469-4.097657 12.132813-4.269531 15.101563-.390625 2.972656 3.882812 1.035156 10.375-4.324219 14.472656zm0 0" fill="#3a312a"/><path d="m363.222656 76.828125c-3.953125-7.421875-11.851562-10.941406-17.632812-7.859375-5.785156 3.082031-7.269532 11.597656-3.316406 19.019531 3.953124 7.425781 11.851562 10.945313 17.636718 7.863281 5.785156-3.082031 7.265625-11.597656 3.3125-19.023437zm0 0" fill="#87796f"/><path d="m365.871094 75.421875c-2.226563-4.179687-5.617188-7.449219-9.558594-9.203125-4.191406-1.871094-8.503906-1.835938-12.132812.101562-7.234376 3.855469-9.277344 14.207032-4.550782 23.078126 2.226563 4.179687 5.617188 7.449218 9.558594 9.203124 2.058594.917969 4.144531 1.375 6.167969 1.375 2.09375 0 4.117187-.492187 5.964843-1.480468 3.632813-1.933594 6.066407-5.488282 6.855469-10.011719.734375-4.25-.082031-8.886719-2.304687-13.0625zm-3.609375 12.03125c-.464844 2.664063-1.800781 4.703125-3.765625 5.75-1.960938 1.042969-4.402344 1.015625-6.867188-.082031-2.726562-1.214844-5.105468-3.539063-6.707031-6.542969-3.167969-5.953125-2.238281-12.664063 2.074219-14.964844.957031-.507812 2.027344-.761719 3.15625-.761719 1.195312 0 2.453125.28125 3.71875.847657 2.722656 1.210937 5.101562 3.535156 6.703125 6.539062 1.601562 3.003907 2.199219 6.277344 1.6875 9.214844zm0 0" fill="#3a312a"/><path d="m339.476562 99.546875c-6.710937-5.066406-15.355468-4.933594-19.304687.300781-3.949219 5.230469-1.703125 13.578125 5.011719 18.644532 6.710937 5.066406 15.355468 4.933593 19.304687-.300782 3.949219-5.230468 1.707031-13.578125-5.011719-18.644531zm0 0" fill="#87796f"/><path d="m348.878906 108.03125c-1.117187-4.164062-3.816406-8.027344-7.59375-10.878906-3.777344-2.851563-8.210937-4.40625-12.546875-4.316406-4.589843.070312-8.484375 1.921874-10.960937 5.207031-2.476563 3.28125-3.1875 7.535156-1.996094 11.96875 1.117188 4.164062 3.816406 8.027343 7.59375 10.878906 3.699219 2.792969 8.046875 4.320313 12.273438 4.320313.089843 0 .179687-.003907.273437-.003907 4.589844-.070312 8.484375-1.917969 10.960937-5.203125 2.480469-3.289062 3.1875-7.539062 1.996094-11.972656zm-6.785156 8.355469c-1.339844 1.773437-3.566406 2.777343-6.269531 2.820312-2.925781.0625-6.117188-1.058593-8.835938-3.105469-2.714843-2.050781-4.636719-4.765624-5.414062-7.648437-.699219-2.605469-.347657-5.023437.992187-6.800781 1.339844-1.773438 3.566406-2.777344 6.269532-2.816406.058593 0 .121093-.003907.179687-.003907 2.925781 0 5.996094 1.101563 8.65625 3.109375 2.714844 2.046875 4.636719 4.765625 5.414063 7.644532.699218 2.609374.347656 5.023437-.992188 6.800781zm0 0" fill="#3a312a"/><path d="m442.019531 6h-16.917969c10 4.859375 16.898438 15.101562 16.898438 26.980469v6.640625h27v-6.640625c0-14.878907-12.101562-26.980469-26.980469-26.980469zm0 0" fill="#6ca8bf"/><path d="m442 160.378906v25.640625c9.140625.039063 18.199219 1 27 2.859375v-28.5zm0 0" fill="#6ca8bf"/><path d="m442 192.019531v33.980469c0 76.921875-38.941406 144.738281-98.199219 184.800781 2.859375 3.179688 5.898438 6.238281 9.097657 9.140625.722656-.382812 1.421874-.78125 2.121093-1.160156 70.300781-38.703125 113.980469-112.5625 113.980469-192.78125v-31c-8.78125-1.921875-17.839844-2.921875-27-2.980469zm0 0" fill="#695b51"/><path d="m470.941406 45.621094h-18.382812c7.421875 4.078125 12.441406 11.980468 12.441406 21.058594v66.640624c0 9.078126-5.019531 16.980469-12.441406 21.058594h18.382812c11.617188 0 21.058594-9.4375 21.058594-21.058594v-66.640624c0-11.621094-9.441406-21.058594-21.058594-21.058594zm0 0" fill="#b9c239"/></svg>