<svg height="453pt" viewBox="0 0 453 453.9858" width="453pt" xmlns="http://www.w3.org/2000/svg"><path d="m447.117188 6.902344c-3.898438-3.902344-10.234376-3.902344-14.136719 0l-190 190c-3.90625 3.90625-3.90625 10.238281 0 14.144531 1.949219 1.949219 4.511719 2.925781 7.070312 2.925781 2.554688 0 5.117188-.976562 7.066407-2.925781l190-190c3.90625-3.90625 3.90625-10.238281 0-14.144531zm0 0" fill="#d7e057"/><path d="m449.238281 4.785156c-2.453125-2.457031-5.714843-3.808594-9.191406-3.808594-3.472656 0-6.738281 1.351563-9.191406 3.808594l-57.746094 57.746094c-1.171875 1.171875-1.171875 3.074219 0 4.242188 1.171875 1.171874 3.070313 1.171874 4.242187 0l57.746094-57.746094c2.644532-2.644532 7.253906-2.644532 9.898438 0 1.324218 1.320312 2.050781 3.078125 2.050781 4.949218 0 1.871094-.726563 3.628907-2.050781 4.949219l-190 190c-2.644532 2.644531-7.253906 2.644531-9.898438 0-1.320312-1.320312-2.046875-3.078125-2.046875-4.949219 0-1.871093.726563-3.628906 2.046875-4.949218l111.621094-111.617188c1.171875-1.171875 1.171875-3.074218 0-4.242187-1.171875-1.171875-3.070312-1.171875-4.242188 0l-111.621093 111.617187c-2.453125 2.453125-3.804688 5.71875-3.804688 9.191406 0 3.476563 1.351563 6.738282 3.804688 9.191407 2.457031 2.457031 5.71875 3.808593 9.195312 3.808593 3.46875 0 6.734375-1.351562 9.191407-3.808593l190-189.996094c2.453124-2.457031 3.808593-5.71875 3.808593-9.195313 0-3.472656-1.355469-6.738281-3.8125-9.191406zm0 0" fill="#3a312a"/><path d="m99.183594 315.050781v101.734375c0 18.882813 15.308594 34.191406 34.191406 34.191406s34.191406-15.308593 34.191406-34.191406v-101.734375zm0 0" fill="#87796f"/><path d="m167.5625 312.054688h-68.378906c-1.65625 0-3 1.339843-3 3v101.734374c0 20.503907 16.683594 37.1875 37.191406 37.1875s37.191406-16.683593 37.191406-37.1875v-101.734374c-.003906-1.660157-1.34375-3-3.003906-3zm-3 104.730468c0 17.199219-13.992188 31.191406-31.191406 31.191406-17.195313 0-31.1875-13.992187-31.1875-31.191406v-98.734375h62.378906zm0 0" fill="#3a312a"/><path d="m309.324219 332.5625c-18.882813 0-34.1875 15.308594-34.1875 34.191406v50.035156c0 18.878907 15.304687 34.1875 34.1875 34.1875 18.878906 0 34.1875-15.308593 34.1875-34.1875v-50.035156c0-18.882812-15.308594-34.191406-34.1875-34.191406zm0 0" fill="#87796f"/><path d="m309.324219 329.5625c-20.507813 0-37.191407 16.683594-37.191407 37.1875v50.035156c0 20.507813 16.683594 37.191406 37.191407 37.191406 20.503906 0 37.1875-16.683593 37.1875-37.191406v-50.035156c0-20.503906-16.683594-37.1875-37.1875-37.1875zm31.1875 87.222656c0 17.199219-13.992188 31.191406-31.1875 31.191406-17.199219 0-31.191407-13.992187-31.191407-31.191406v-50.035156c0-17.195312 13.992188-31.1875 31.191407-31.1875 17.195312 0 31.1875 13.992188 31.1875 31.1875zm0 0" fill="#3a312a"/><path d="m438.6875 199.976562c-20.117188-8.339843-36.117188 31.859376-62.5 58.238282-1.257812 1.261718-2.5 2.539062-3.71875 3.800781-.21875-.339844-.441406-.679687-.699219-1.019531-9.679687-14.160156-28.519531-23.71875-49.519531-30.160156-8.179688-2.5-16.679688-4.539063-25.101562-6.199219-18.179688-3.5625-35.980469-5.339844-49.21875-6.261719-13.28125-.878906-22-.878906-22-.878906l-91.160157 17.238281c-21.460937 4.0625-37.800781 21.742187-39.921875 43.480469-4.4375 45.621094 10.621094 80.519531 26.019532 100.882812v37.699219c0 18.878906 15.300781 34.179687 34.183593 34.179687 18.878907 0 34.199219-15.300781 34.199219-34.179687v-17c13.285156.164063 28.597656.34375 44.515625.503906l28.554687.253907c11.796876.089843 23.476563.15625 34.488282.179687v16.0625c0 18.878906 15.320312 34.179687 34.199218 34.179687 18.882813 0 34.179688-15.300781 34.179688-34.179687v-18.042969c6.902344-5.578125 18.960938-46.617187 17-90.839844 7.601562-5.519531 15.621094-12.339843 23.480469-20.21875 26.382812-26.378906 59.839843-76.621093 33.019531-87.71875zm0 0" fill="#87796f"/><path d="m451.113281 210.648438c-1.246093-6.257813-5.144531-10.90625-11.277343-13.445313-15.449219-6.40625-27.824219 10.445313-42.160157 29.949219-6.933593 9.429687-14.789062 20.121094-23.609375 28.941406-.414062.414062-.824218.828125-1.234375 1.246094-9.320312-12.234375-26.023437-22.113282-49.707031-29.375-7.757812-2.367188-16.300781-4.480469-25.398438-6.273438-15.046874-2.945312-31.730468-5.066406-49.597656-6.308594-13.226562-.878906-22.113281-.886718-22.203125-.886718-.1875 0-.371093.019531-.558593.050781l-91.15625 17.242187c-22.707032 4.292969-40.121094 23.265626-42.351563 46.136719-5.167969 53.113281 15.972656 88.617188 26.007813 102.171875v36.699219c0 20.503906 16.679687 37.179687 37.179687 37.179687 20.511719 0 37.199219-16.675781 37.199219-37.179687v-13.960937c12.5625.152343 26.765625.320312 41.488281.46875 1.699219-.058594 3.011719-1.3125 3.027344-2.96875s-1.3125-3.015626-2.96875-3.03125c-15.914063-.160157-31.222657-.339844-44.507813-.503907-.804687 0-1.574218.300781-2.144531.863281-.570313.566407-.894531 1.335938-.894531 2.136719v17c0 17.191407-13.996094 31.179688-31.199219 31.179688-17.191406 0-31.179687-13.988281-31.179687-31.179688v-37.699219c0-.65625-.210938-1.292968-.609376-1.8125-9.335937-12.339843-30.5-46.671874-25.425781-98.777343 1.972657-20.234375 17.390625-37.023438 37.492188-40.824219l90.878906-17.1875c1.578125.011719 9.800781.097656 21.519531.875 17.609375 1.222656 34.046875 3.3125 48.847656 6.207031 8.894532 1.753907 17.242188 3.816407 24.796876 6.125 23.601562 7.238281 39.722656 16.992188 48.019531 29.113281.207031.273438.378906.550782.554687.824219.496094.769531 1.332032 1.253907 2.242188 1.34375.914062.089844 1.832031-.257812 2.46875-.914062 1.199218-1.238281 2.417968-2.496094 3.65625-3.734375 9.136718-9.136719 17.136718-20.023438 24.199218-29.625 13.375-18.195313 23.941407-32.558594 35.03125-27.960938 4.3125 1.785156 6.828126 4.753906 7.691407 9.074219 3.332031 16.742187-18.578125 50.644531-41.6875 73.753906-7.488281 7.507813-15.269531 14.210938-23.117188 19.914063-.816406.589844-1.277343 1.554687-1.234375 2.558594.859375 19.296874-.957031 40.296874-5.109375 59.132812-4.039062 18.324219-8.660156 27.527344-10.78125 29.242188-.703125.570312-1.113281 1.425781-1.113281 2.335937v18.039063c0 17.191406-13.988281 31.179687-31.179688 31.179687-17.203124 0-31.199218-13.988281-31.199218-31.179687v-16.0625c0-1.652344-1.339844-2.996094-2.992188-3-11.011718-.023438-22.683594-.089844-34.472656-.175782-1.6875-.011718-3.011719 1.320313-3.023438 2.976563-.011718 1.65625 1.320313 3.011719 2.976563 3.023437 10.734375.082032 21.378906.140625 31.511719.171875v13.066407c0 20.503906 16.6875 37.179687 37.199218 37.179687 20.5 0 37.179688-16.675781 37.179688-37.179687v-16.792969c8.203125-9.355469 18.5625-49.703125 17.0625-90.609375 7.664062-5.675782 15.238281-12.257813 22.539062-19.574219 11.457032-11.457031 23.046876-26.167969 31.011719-39.351563 6.945313-11.507812 14.71875-27.75 12.3125-39.828124zm0 0" fill="#3a312a"/><path d="m445.230469 211.816406c-.863281-4.320312-3.382813-7.28125-7.679688-9.0625-6.441406-2.679687-12.703125 1.042969-19.441406 8.203125 4.199219 19.398438-21.378906 55.679688-42.441406 76.738281-2 2.003907-7.226563 7.566407-12.359375 12.621094-6.777344 6.675782-10.726563 15.707032-11.050782 25.214844-1.011718 29.632812-7.519531 55.65625-13.136718 67.332031-2.507813 5.214844-3.933594 10.878907-3.933594 16.664063v7.269531c0 12.160156-6.339844 22.820313-15.898438 28.878906 3.636719 1.484375 7.613282 2.308594 11.773438 2.300781 17.125-.03125 31.125-14.9375 31.125-32.0625v-17.160156c0-.898437.402344-1.757812 1.121094-2.339844 2.121094-1.699218 6.742187-10.917968 10.78125-29.238281 4.140625-18.839843 5.960937-39.839843 5.097656-59.121093-.039062-1.019532.421875-1.980469 1.242188-2.558594 7.839843-5.699219 15.621093-12.398438 23.121093-19.921875 21.519531-21.519531 42.019531-52.4375 42.019531-70.097657 0-1.300781-.121093-2.519531-.339843-3.660156zm0 0" fill="#695b51"/><path d="m423.140625 133.578125c-1.949219 23.128906-26.050781 26.78125-26.050781 26.78125 20.691406.972656 25.847656 28.117187 25.847656 28.117187.445312-19.351562 26.644531-28.402343 26.644531-28.402343-19.628906-1.175781-26.441406-26.496094-26.441406-26.496094zm0 0" fill="#d7e057"/><path d="m449.761719 157.078125c-17.207031-1.03125-23.664063-24.046875-23.726563-24.28125-.382812-1.40625-1.703125-2.332031-3.167968-2.203125-1.449219.132812-2.597657 1.285156-2.71875 2.734375-1.71875 20.429687-22.625 23.925781-23.507813 24.066406-1.527344.230469-2.625 1.578125-2.546875 3.121094.082031 1.539063 1.316406 2.769531 2.855469 2.84375 18.058593.847656 23 25.433594 23.046875 25.683594.273437 1.421875 1.519531 2.433593 2.945312 2.433593.082032 0 .167969-.003906.25-.011718 1.53125-.128906 2.714844-1.386719 2.75-2.917969.386719-17.015625 24.382813-25.554687 24.628906-25.636719 1.351563-.46875 2.183594-1.828125 1.988282-3.246094-.199219-1.417968-1.367188-2.5-2.796875-2.585937zm-27.132813 20.691406c-2.710937-6.257812-7.417968-13.8125-15.175781-17.753906 5.863281-2.808594 12.816406-7.824219 16.402344-16.546875 3.105469 6.144531 8.402343 13.761719 16.671875 17.445312-6.015625 3.28125-13.84375 8.8125-17.898438 16.855469zm0 0" fill="#3a312a"/><path d="m379.742188 167.542969c-1.378907 16.355469-18.425782 18.941406-18.425782 18.941406 14.636719.6875 18.285156 19.886719 18.285156 19.886719.3125-13.6875 18.84375-20.089844 18.84375-20.089844-13.882812-.832031-18.703124-18.738281-18.703124-18.738281zm0 0" fill="#d7e057"/><path d="m398.621094 183.285156c-11.53125-.6875-15.941406-16.371094-15.984375-16.53125-.378907-1.402344-1.722657-2.316406-3.164063-2.203125-1.453125.132813-2.601562 1.285157-2.722656 2.738281-1.15625 13.742188-15.289062 16.132813-15.882812 16.226563-1.527344.230469-2.628907 1.582031-2.546876 3.121094.082032 1.542969 1.316407 2.769531 2.855469 2.84375 12.070313.566406 15.449219 17.289062 15.480469 17.453125.269531 1.425781 1.515625 2.4375 2.945312 2.4375.082032 0 .164063-.003906.25-.007813 1.53125-.128906 2.714844-1.390625 2.75-2.921875.261719-11.417968 16.664063-17.269531 16.824219-17.324218 1.351563-.46875 2.1875-1.828126 1.992188-3.246094-.195313-1.417969-1.367188-2.5-2.796875-2.585938zm-19.167969 13.589844c-1.847656-3.769531-4.679687-7.894531-8.894531-10.558594 3.710937-2.082031 7.394531-5.257812 9.742187-9.832031 2.113281 3.746094 5.308594 7.90625 9.882813 10.449219-3.699219 2.199218-7.980469 5.476562-10.730469 9.941406zm0 0" fill="#3a312a"/><path d="m379.742188 114.226562c-1.378907 16.355469-18.425782 18.941407-18.425782 18.941407 14.636719.6875 18.285156 19.886719 18.285156 19.886719.3125-13.6875 18.84375-20.089844 18.84375-20.089844-13.882812-.832032-18.703124-18.738282-18.703124-18.738282zm0 0" fill="#d7e057"/><path d="m398.621094 129.96875c-11.53125-.6875-15.941406-16.367188-15.984375-16.527344-.378907-1.402344-1.722657-2.320312-3.164063-2.203125-1.453125.128907-2.601562 1.285157-2.722656 2.734375-1.15625 13.742188-15.289062 16.132813-15.882812 16.226563-1.527344.230469-2.628907 1.582031-2.546876 3.121093.082032 1.542969 1.316407 2.769532 2.855469 2.84375 12.070313.566407 15.449219 17.289063 15.480469 17.453126.269531 1.421874 1.515625 2.4375 2.945312 2.4375.082032 0 .164063 0 .25-.007813 1.53125-.128906 2.714844-1.390625 2.75-2.921875.261719-11.421875 16.664063-17.269531 16.824219-17.324219 1.351563-.46875 2.1875-1.828125 1.992188-3.246093-.195313-1.417969-1.367188-2.5-2.796875-2.585938zm-19.167969 13.59375c-1.847656-3.773438-4.679687-7.894531-8.894531-10.5625 3.710937-2.082031 7.394531-5.257812 9.742187-9.832031 2.113281 3.746093 5.308594 7.910156 9.882813 10.449219-3.699219 2.199218-7.980469 5.480468-10.730469 9.945312zm0 0" fill="#3a312a"/><path d="m255.460938 254.308594c-2.691407-14.65625-45.605469-19.066406-95.855469-9.851563-50.246094 9.214844-88.804688 28.570313-86.117188 43.226563 2.691407 14.65625 45.605469 19.070312 95.855469 9.851562 50.25-9.214844 88.804688-28.570312 86.117188-43.226562zm0 0" fill="#d7e057"/><path d="m258.417969 253.75c-1.582031-8.636719-12.902344-14.28125-32.734375-16.316406-18.378906-1.890625-42.035156-.449219-66.605469 4.058594-24.578125 4.507812-47.203125 11.558593-63.714844 19.847656-17.816406 8.945312-26.394531 18.238281-24.808593 26.878906 1.582031 8.640625 12.902343 14.28125 32.734374 16.320312 5.269532.539063 10.96875.808594 17.007813.808594 15.007813 0 32.070313-1.65625 49.601563-4.875 24.574218-4.507812 47.199218-11.554687 63.710937-19.84375 17.816406-8.941406 26.394531-18.238281 24.808594-26.878906zm-27.5 21.515625c-16.019531 8.042969-38.074219 14.898437-62.105469 19.304687-24.03125 4.410157-47.085938 5.832032-64.914062 3.996094-16.175782-1.660156-26.4375-5.933594-27.445313-11.433594-1.007813-5.496093 7.066406-13.136718 21.601563-20.429687 16.015624-8.042969 38.074218-14.898437 62.101562-19.308594 17.183594-3.152343 33.863281-4.773437 48.496094-4.773437 5.828125 0 11.335937.257812 16.417968.777344 16.179688 1.664062 26.4375 5.9375 27.445313 11.433593 1.011719 5.5-7.066406 13.136719-21.597656 20.433594zm0 0" fill="#3a312a"/><path d="m94.847656 43.917969c-19.144531-34.828125-69.558594-43.8750002-76.289062-40.171875-5.511719 3.027344-26.113282 51.117187-6.96875 85.941406 19.144531 34.824219 45.5625 38.726562 68.554687 26.089844 22.988281-12.636719 33.847657-37.035156 14.703125-71.859375zm0 0" fill="#87796f"/><path d="m97.476562 42.472656c-19.886718-36.175781-71.6875-46.121094-80.367187-41.355468-6.871094 3.777343-28.390625 53.1875-8.148437 90.015624 9.421874 17.136719 21.046874 27.992188 34.558593 32.257813 4.171875 1.320313 8.472657 1.972656 12.851563 1.972656 8.269531 0 16.808594-2.335937 25.214844-6.957031 12.855468-7.066406 21.363281-17.257812 24.605468-29.46875 3.640625-13.691406.707032-29.324219-8.714844-46.464844zm2.921876 44.925782c-2.8125 10.589843-10.316407 19.492187-21.703126 25.75-11.382812 6.261718-22.921874 7.824218-33.367187 4.523437-11.988281-3.789063-22.457031-13.6875-31.109375-29.429687-18.097656-32.925782 1.339844-78.601563 5.78125-81.867188.5-.253906 1.523438-.394531 2.980469-.394531 11.929687 0 52.714843 9.320312 69.242187 39.382812 8.648438 15.742188 11.398438 29.882813 8.175782 42.035157zm0 0" fill="#3a312a"/><path d="m74.960938 50.84375c-10.777344-19.601562-39.152344-24.695312-42.941407-22.609375-3.101562 1.703125-14.695312 28.769531-3.921875 48.371094 10.773438 19.601562 25.644532 21.796875 38.585938 14.683593 12.9375-7.113281 19.050781-20.84375 8.277344-40.445312zm0 0" fill="#f16c7a"/><path d="m77.585938 49.398438c-11.046876-20.097657-41.003907-27.097657-47.015626-23.792969-4.949218 2.71875-16.390624 31.914062-5.101562 52.445312 7.203125 13.101563 17.066406 19.972657 27.878906 19.972657 4.792969 0 9.765625-1.351563 14.777344-4.105469 16.316406-8.96875 19.855469-25.613281 9.460938-44.519531zm-12.351563 39.261718c-13.410156 7.371094-25.667969 2.578125-34.507813-13.5-9.472656-17.226562-.226562-40.855468 2.816407-44.289062 3.9375-.785156 29.082031 3.761718 38.789062 21.417968 8.835938 16.082032 6.316407 29-7.097656 36.371094zm0 0" fill="#3a312a"/><path d="m271.539062 3.746094c-6.734374-3.7031252-57.148437 5.347656-76.292968 40.171875-19.144532 34.824219-8.28125 59.222656 14.707031 71.859375 22.992187 12.636718 49.410156 8.734375 68.554687-26.089844 19.144532-34.824219-1.457031-82.914062-6.96875-85.941406zm0 0" fill="#87796f"/><path d="m272.984375 1.117188c-8.679687-4.777344-60.480469 5.179687-80.367187 41.355468-9.421876 17.140625-12.351563 32.769532-8.714844 46.464844 3.242187 12.210938 11.75 22.402344 24.605468 29.46875 8.40625 4.621094 16.941407 6.957031 25.214844 6.957031 4.378906 0 8.683594-.65625 12.855469-1.972656 13.507813-4.265625 25.136719-15.121094 34.558594-32.257813 20.242187-36.828124-1.277344-86.238281-8.152344-90.015624zm2.894531 87.125c-8.65625 15.742187-19.121094 25.640624-31.109375 29.429687-10.453125 3.300781-21.988281 1.734375-33.371093-4.523437-11.382813-6.257813-18.886719-15.160157-21.699219-25.75-3.226563-12.152344-.476563-26.292969 8.175781-42.035157 16.554688-30.113281 57.457031-39.414062 69.246094-39.414062 1.417968 0 2.414062.132812 2.898437.378906 4.515625 3.3125 23.957031 48.988281 5.859375 81.914063zm0 0" fill="#3a312a"/><path d="m258.078125 28.234375c-3.789063-2.085937-32.164063 3.007813-42.9375 22.609375-10.777344 19.601562-4.664063 33.332031 8.277344 40.445312 12.9375 7.113282 27.808593 4.917969 38.582031-14.683593 10.773438-19.601563-.820312-46.667969-3.921875-48.371094zm0 0" fill="#f16c7a"/><path d="m259.523438 25.605469c-6.019532-3.300781-35.964844 3.699219-47.011719 23.792969-5.472657 9.953124-7.164063 19.078124-5.027344 27.125 1.921875 7.226562 6.929687 13.242187 14.488281 17.394531 4.929688 2.710937 9.945313 4.082031 14.816406 4.082031 2.601563 0 5.15625-.386719 7.632813-1.171875 7.9375-2.507813 14.734375-8.824219 20.207031-18.777344 11.285156-20.53125-.15625-49.726562-5.105468-52.445312zm-.15625 49.554687c-4.699219 8.554688-10.335938 13.917969-16.753907 15.945313-5.53125 1.746093-11.667969.898437-17.753906-2.445313s-10.089844-8.074218-11.578125-13.679687c-1.726562-6.503907-.21875-14.136719 4.484375-22.691407 9.070313-16.5 31.625-21.550781 37.644531-21.550781.476563 0 .851563.03125 1.105469.089844 3.003906 3.28125 12.367187 27.03125 2.851563 44.332031zm0 0" fill="#3a312a"/><path d="m263.730469 179.253906c-.222657-.238281-.441407-.476562-.660157-.738281.238282-3.417969.359376-6.839844.359376-10.339844 0-14.121093-2.0625-27.71875-5.921876-40.460937-11.878906-39.539063-40.738281-70.71875-77.199218-83.277344-11.359375-3.921875-23.441406-6.042969-35.980469-6.042969-12.097656 0-23.777344 1.960938-34.777344 5.640625-37 12.28125-66.382812 43.699219-78.402343 83.699219-3.839844 12.742187-5.917969 26.320313-5.917969 40.441406 0 3.800781.160156 7.539063.457031 11.238281.023438.183594.023438.363282.042969.542969-10 11.339844-15.679688 24.257813-15.679688 38 0 4.320313.558594 8.417969 1.636719 12.296875 10.121094 36.523438 65.980469 54.421875 133.363281 54.421875 67.378907 0 123.238281-17.898437 133.359375-54.421875 1.078125-3.878906 1.640625-7.976562 1.640625-12.296875 0-14.042969-5.921875-27.203125-16.320312-38.703125zm0 0" fill="#fce8cb"/><path d="m266.144531 177.457031c.191407-3.078125.285157-6.128906.285157-9.28125 0-14.175781-2.035157-28.078125-6.046876-41.324219-12.171874-40.515624-41.742187-72.386718-79.09375-85.25-11.929687-4.121093-24.367187-6.207031-36.957031-6.207031-12.21875 0-24.238281 1.953125-35.726562 5.792969-37.960938 12.601562-67.992188 44.632812-80.328125 85.683594-4.015625 13.3125-6.046875 27.210937-6.046875 41.304687 0 3.535157.136719 7.152344.414062 10.761719-10.207031 11.949219-15.59375 25.417969-15.59375 39.019531 0 4.523438.589844 8.933594 1.75 13.097657 9.824219 35.457031 60.757813 56.621093 136.253907 56.621093 75.492187 0 126.425781-21.164062 136.25-56.617187 1.160156-4.167969 1.746093-8.578125 1.746093-13.101563-.003906-14.179687-5.839843-28.171875-16.90625-40.5zm9.375 52c-8.929687 32.207031-58.921875 52.21875-130.46875 52.21875-71.550781 0-121.542969-20.011719-130.472656-52.222656-1.011719-3.648437-1.527344-7.515625-1.527344-11.496094 0-12.664062 5.023438-24.785156 14.929688-36.015625.554687-.632812.816406-1.578125.722656-2.414062-.007813-.152344-.015625-.300782-.023437-.355469-.296876-3.683594-.449219-7.382813-.449219-10.996094 0-13.507812 1.949219-26.820312 5.789062-39.578125 11.777344-39.183594 40.367188-69.730468 76.480469-81.71875 10.878906-3.636718 22.261719-5.484375 33.828125-5.484375 11.925781 0 23.703125 1.976563 35.003906 5.878907 35.53125 12.238281 63.683594 42.632812 75.304688 81.3125 3.84375 12.683593 5.792969 26.003906 5.792969 39.589843 0 3.445313-.117188 6.757813-.351563 10.128907-.054687.777343.195313 1.546874.695313 2.144531.25.289062.496093.566406.730468.820312 10.3125 11.40625 15.542969 23.75 15.542969 36.6875 0 3.984375-.515625 7.851563-1.527344 11.5zm0 0" fill="#3a312a"/><path d="m109.550781 44.035156c-37 12.28125-66.382812 43.699219-78.402343 83.699219-3.839844 12.742187-5.917969 26.320313-5.917969 40.441406 0 3.800781.160156 7.539063.457031 11.238281.023438.183594.023438.363282.042969.542969-10 11.339844-15.679688 24.257813-15.679688 38 0 4.320313.558594 8.417969 1.636719 12.296875 8.621094 3.722656 17.820312 5.722656 27.363281 5.722656 49.296875 0 89.238281-53.28125 89.238281-119 0-27.480468-6.980468-52.800781-18.738281-72.941406zm0 0" fill="#87796f"/><path d="m112.140625 42.523438c-.714844-1.226563-2.191406-1.78125-3.539063-1.335938-37.960937 12.601562-67.992187 44.632812-80.328124 85.683594-4.011719 13.3125-6.042969 27.210937-6.042969 41.304687 0 3.535157.136719 7.152344.414062 10.761719-10.207031 11.949219-15.59375 25.417969-15.59375 39.019531 0 4.523438.589844 8.933594 1.75 13.101563.246094.875.867188 1.589844 1.703125 1.953125 9.167969 3.957031 18.773438 5.964843 28.546875 5.964843 50.859375 0 92.238281-54.730468 92.238281-122 0-27.253906-6.621093-53-19.148437-74.453124zm-73.089844 190.453124c-8.476562 0-16.820312-1.652343-24.832031-4.914062-.777344-3.234375-1.167969-6.625-1.167969-10.105469 0-12.664062 5.023438-24.785156 14.929688-36.015625.554687-.632812.816406-1.578125.722656-2.414062-.007813-.152344-.015625-.300782-.023437-.355469-.296876-3.683594-.449219-7.382813-.449219-10.996094 0-13.507812 1.949219-26.820312 5.789062-39.578125 11.523438-38.34375 39.140625-68.414062 74.15625-80.914062 11.203125 20.105468 17.113281 44.003906 17.113281 69.292968 0 63.960938-38.6875 116-86.238281 116zm0 0" fill="#3a312a"/><path d="m263.730469 179.253906c-.222657-.238281-.441407-.476562-.660157-.738281.238282-3.417969.359376-6.839844.359376-10.339844 0-14.121093-2.0625-27.71875-5.921876-40.460937-11.878906-39.539063-40.738281-70.71875-77.199218-83.277344-11.597656 20.078125-18.5 45.238281-18.5 72.539062 0 65.71875 39.941406 119 89.242187 119 9.539063 0 18.738281-2 27.359375-5.722656 1.078125-3.878906 1.640625-7.976562 1.640625-12.296875 0-14.042969-5.921875-27.203125-16.320312-38.703125zm0 0" fill="#87796f"/><path d="m266.144531 177.457031c.191407-3.078125.285157-6.128906.285157-9.28125 0-14.175781-2.035157-28.078125-6.046876-41.324219-12.171874-40.515624-41.742187-72.386718-79.097656-85.25-1.355468-.472656-2.855468.089844-3.574218 1.332032-12.367188 21.40625-18.902344 47.011718-18.902344 74.042968 0 67.269532 41.378906 122 92.242187 122 9.769531 0 19.375-2.007812 28.546875-5.964843.832032-.359375 1.460938-1.074219 1.703125-1.949219 1.160157-4.167969 1.75-8.578125 1.75-13.105469-.003906-14.179687-5.839843-28.171875-16.90625-40.5zm9.734375 50.605469c-8.011718 3.261719-16.359375 4.914062-24.832031 4.914062-47.550781 0-86.238281-52.039062-86.238281-116 0-25.066406 5.828125-48.816406 16.871094-68.863281 34.417968 12.75 61.589843 42.652344 72.957031 80.472657 3.84375 12.683593 5.792969 26.003906 5.792969 39.589843 0 3.445313-.117188 6.757813-.351563 10.128907-.054687.777343.195313 1.546874.695313 2.144531.25.292969.496093.566406.730468.820312 10.3125 11.40625 15.542969 23.75 15.542969 36.6875 0 3.480469-.390625 6.875-1.167969 10.105469zm0 0" fill="#3a312a"/><path d="m145.097656 170.621094c-10.570312-.046875-19.164062 5.058594-19.191406 11.402344s8.496094 16.628906 19.070312 16.675781c10.570313.046875 19.1875-10.164063 19.214844-16.507813.027344-6.339844-8.519531-11.523437-19.09375-11.570312zm0 0" fill="#3a312a"/><path d="m145.050781 193c0 13.65625-10.351562 24.875-23.636719 26.257812.25 16.453126 10.738282 29.679688 23.636719 29.679688 12.894531 0 23.382813-13.222656 23.628907-29.679688-13.28125-1.382812-23.628907-12.601562-23.628907-26.257812zm0 0" fill="#f16c7a"/><g fill="#3a312a"><path d="m168.992188 216.277344c-11.941407-1.246094-20.945313-11.25-20.945313-23.277344 0-1.660156-1.34375-3-3-3s-3 1.339844-3 3c0 12.027344-9.003906 22.03125-20.945313 23.277344-1.542968.160156-2.710937 1.472656-2.6875 3.027344.277344 18.296874 11.976563 32.632812 26.632813 32.632812s26.355469-14.332031 26.632813-32.632812c.023437-1.554688-1.144532-2.867188-2.6875-3.027344zm-23.941407 29.660156c-10.492187 0-19.304687-10.605469-20.5-24.125 9.109375-1.839844 16.570313-7.8125 20.5-15.816406 3.921875 8 11.386719 13.972656 20.496094 15.816406-1.195313 13.519531-10.007813 24.125-20.496094 24.125zm0 0"/><path d="m145.050781 190c-1.660156 0-3 1.339844-3 3 0 12.027344-9.003906 22.03125-20.988281 23.28125-.753906.089844-1.570312.132812-2.425781.132812-12.910157 0-23.414063-10.503906-23.414063-23.414062 0-1.660156-1.34375-3-3-3-1.660156 0-3 1.339844-3 3 0 16.21875 13.195313 29.414062 29.414063 29.414062 1.089843 0 2.144531-.058593 3.089843-.171874 15.007813-1.5625 26.324219-14.132813 26.324219-29.242188 0-1.65625-1.347656-3-3-3zm0 0"/><path d="m197.878906 190c-1.660156 0-3 1.339844-3 3 0 12.910156-10.507812 23.414062-23.414062 23.414062-.859375 0-1.675782-.042968-2.472656-.136718-11.9375-1.246094-20.941407-11.25-20.941407-23.277344 0-1.660156-1.34375-3-3-3-1.660156 0-3 1.339844-3 3 0 15.109375 11.3125 27.679688 26.277344 29.238281.988281.117188 2.042969.175781 3.136719.175781 16.21875 0 29.414062-13.195312 29.414062-29.414062 0-1.65625-1.34375-3-3-3zm0 0"/></g><path d="m92.21875 179.5625c0-8.582031-11.128906-15.539062-24.859375-15.539062s-24.859375 6.957031-24.859375 15.539062 11.128906 15.539062 24.859375 15.539062 24.859375-6.957031 24.859375-15.539062zm0 0" fill="#f5978a"/><path d="m222.738281 164.023438c-13.730469 0-24.859375 6.957031-24.859375 15.539062s11.128906 15.539062 24.859375 15.539062 24.859375-6.957031 24.859375-15.539062-11.128906-15.539062-24.859375-15.539062zm0 0" fill="#f5978a"/><path d="m104.648438 137.839844c-6.003907 0-10.875 4.871094-10.875 10.875 0 6.007812 4.871093 10.875 10.875 10.875 6.007812 0 10.875-4.867188 10.875-10.875.003906-6.003906-4.867188-10.875-10.875-10.875zm0 0" fill="#3a312a"/><path d="m196.238281 147.378906c-.730469-5.964844-6.160156-10.203125-12.121093-9.46875-5.960938.730469-10.199219 6.160156-9.46875 12.121094.734374 5.960938 6.160156 10.199219 12.125 9.46875 5.960937-.734375 10.199218-6.160156 9.464843-12.121094zm0 0" fill="#3a312a"/></svg>