<svg height="453pt" viewBox="-1 0 453 453.5381" width="453pt" xmlns="http://www.w3.org/2000/svg"><path d="m322.835938 99.75c-3.070313 0-5.558594 2.488281-5.558594 5.558594v65.777344c0 3.066406 2.488281 5.554687 5.558594 5.554687 3.070312 0 5.558593-2.488281 5.558593-5.554687v-65.777344c0-3.070313-2.488281-5.558594-5.558593-5.558594zm0 0" fill="#fce8cb"/><path d="m322.835938 96.75c-4.71875 0-8.558594 3.839844-8.558594 8.558594v65.777344c0 4.714843 3.839844 8.554687 8.558594 8.554687s8.558593-3.839844 8.558593-8.554687v-65.777344c0-4.71875-3.839843-8.558594-8.558593-8.558594zm2.558593 74.332031c0 1.410157-1.148437 2.558594-2.558593 2.558594-1.414063 0-2.558594-1.148437-2.558594-2.558594v-65.773437c0-1.410156 1.148437-2.558594 2.558594-2.558594 1.410156 0 2.558593 1.148438 2.558593 2.558594zm0 0" fill="#3a312a"/><path d="m344.066406 99.75c-3.070312 0-5.558594 2.488281-5.558594 5.558594v65.777344c0 3.066406 2.488282 5.554687 5.558594 5.554687 3.070313 0 5.558594-2.488281 5.558594-5.554687v-65.777344c.003906-3.070313-2.488281-5.558594-5.558594-5.558594zm0 0" fill="#fce8cb"/><path d="m344.066406 96.75c-4.71875 0-8.558594 3.839844-8.558594 8.558594v65.777344c0 4.714843 3.839844 8.554687 8.558594 8.554687s8.558594-3.839844 8.558594-8.554687v-65.777344c.003906-4.71875-3.839844-8.558594-8.558594-8.558594zm2.5625 74.332031c0 1.410157-1.148437 2.558594-2.558594 2.558594-1.410156 0-2.558593-1.148437-2.558593-2.558594v-65.773437c0-1.410156 1.148437-2.558594 2.558593-2.558594 1.410157 0 2.558594 1.148438 2.558594 2.558594zm0 0" fill="#3a312a"/><path d="m365.300781 99.75c-3.070312 0-5.558593 2.488281-5.558593 5.558594v65.777344c0 3.066406 2.488281 5.554687 5.558593 5.554687 3.070313 0 5.558594-2.488281 5.558594-5.554687v-65.777344c0-3.070313-2.488281-5.558594-5.558594-5.558594zm0 0" fill="#fce8cb"/><path d="m365.300781 96.75c-4.71875 0-8.558593 3.839844-8.558593 8.558594v65.777344c0 4.714843 3.839843 8.554687 8.558593 8.554687 4.714844 0 8.554688-3.839844 8.554688-8.554687v-65.777344c.003906-4.71875-3.835938-8.558594-8.554688-8.558594zm2.558594 74.332031c0 1.410157-1.148437 2.558594-2.558594 2.558594-1.410156 0-2.558593-1.148437-2.558593-2.558594v-65.773437c0-1.410156 1.148437-2.558594 2.558593-2.558594 1.414063 0 2.558594 1.148438 2.558594 2.558594zm0 0" fill="#3a312a"/><path d="m386.53125 99.75c-3.066406 0-5.554688 2.488281-5.554688 5.558594v65.777344c0 3.066406 2.488282 5.554687 5.554688 5.554687 3.070312 0 5.558594-2.488281 5.558594-5.554687v-65.777344c0-3.070313-2.488282-5.558594-5.558594-5.558594zm0 0" fill="#fce8cb"/><path d="m386.53125 96.75c-4.714844 0-8.554688 3.839844-8.554688 8.558594v65.777344c0 4.714843 3.839844 8.554687 8.554688 8.554687 4.71875 0 8.558594-3.839844 8.558594-8.554687v-65.777344c0-4.71875-3.839844-8.558594-8.558594-8.558594zm2.558594 74.332031c0 1.410157-1.148438 2.558594-2.558594 2.558594s-2.554688-1.148437-2.554688-2.558594v-65.773437c0-1.410156 1.148438-2.558594 2.554688-2.558594 1.414062 0 2.558594 1.148438 2.558594 2.558594zm0 0" fill="#3a312a"/><path d="m407.765625 99.75c-3.070313 0-5.558594 2.488281-5.558594 5.558594v65.777344c0 3.066406 2.488281 5.554687 5.558594 5.554687s5.558594-2.488281 5.558594-5.554687v-65.777344c0-3.070313-2.488281-5.558594-5.558594-5.558594zm0 0" fill="#fce8cb"/><path d="m407.765625 96.75c-4.71875 0-8.558594 3.839844-8.558594 8.558594v65.777344c0 4.714843 3.839844 8.554687 8.558594 8.554687s8.558594-3.839844 8.558594-8.554687v-65.777344c0-4.71875-3.839844-8.558594-8.558594-8.558594zm2.558594 74.332031c0 1.410157-1.148438 2.558594-2.558594 2.558594-1.414063 0-2.558594-1.148437-2.558594-2.558594v-65.773437c0-1.410156 1.148438-2.558594 2.558594-2.558594s2.558594 1.148438 2.558594 2.558594zm0 0" fill="#3a312a"/><path d="m428.996094 99.75c-3.070313 0-5.558594 2.488281-5.558594 5.558594v65.777344c0 3.066406 2.488281 5.554687 5.558594 5.554687 3.070312 0 5.558594-2.488281 5.558594-5.554687v-65.777344c.003906-3.070313-2.484376-5.558594-5.558594-5.558594zm0 0" fill="#fce8cb"/><path d="m429 96.75c-4.722656 0-8.5625 3.839844-8.5625 8.558594v65.777344c0 4.714843 3.839844 8.554687 8.5625 8.554687 4.71875 0 8.558594-3.839844 8.558594-8.554687v-65.777344c0-4.71875-3.839844-8.558594-8.558594-8.558594zm2.558594 74.332031c0 1.410157-1.148438 2.558594-2.558594 2.558594-1.414062 0-2.5625-1.148437-2.5625-2.558594v-65.773437c0-1.410156 1.148438-2.558594 2.5625-2.558594 1.410156 0 2.558594 1.148438 2.558594 2.558594zm0 0" fill="#3a312a"/><path d="m441.148438 160.179688-127.386719-.4375c-4.605469-.015626-8.246094 3.90625-7.882813 8.496093l6.433594 82.21875 2.078125 26.578125 7.128906 91.105469 3.300781 42.164063c1.738282 22.199218 20.21875 39.347656 42.484376 39.421874l18.328124.0625c22.265626.078126 40.863282-16.945312 42.75-39.132812l3.589844-42.136719 17.007813-199.789062c.382812-4.589844-3.226563-8.535157-7.832031-8.550781zm0 0" fill="#87796f" fill-rule="evenodd"/><path d="m449.148438 160.714844c-2.046876-2.238282-4.960938-3.523438-7.988282-3.535156l-127.390625-.4375c-2.957031.042968-5.949219 1.261718-8.011719 3.480468-2.0625 2.222656-3.109374 5.230469-2.871093 8.25l6.429687 82.21875c.128906 1.652344 1.570313 2.890625 3.226563 2.757813 1.652343-.132813 2.886719-1.574219 2.757812-3.226563l-6.433593-82.21875c-.109376-1.375.351562-2.691406 1.289062-3.703125.933594-1.003906 2.203125-1.558593 3.578125-1.558593h.015625l127.390625.4375c1.375.003906 2.652344.566406 3.582031 1.582031.933594 1.019531 1.378906 2.335937 1.261719 3.710937l-20.59375 241.925782c-1.746094 20.476562-19.148437 36.441406-39.753906 36.390624l-18.324219-.0625c-20.550781-.070312-37.902344-16.171874-39.503906-36.660156l-10.425782-133.269531c-.132812-1.648437-1.546874-2.875-3.226562-2.753906-1.652344.128906-2.886719 1.574219-2.757812 3.226562l10.429687 133.269531c1.84375 23.574219 21.8125 42.105469 45.464844 42.1875l18.324219.0625h.15625c23.578124 0 43.59375-18.363281 45.59375-41.878906l20.597656-241.925781c.257812-3.019531-.769532-6.035156-2.816406-8.269531zm0 0" fill="#3a312a"/><path d="m403.996094 368.425781-22.703125-.078125-59.773438-.207031 3.300781 42.164063c1.734376 22.199218 20.214844 39.347656 42.484376 39.421874l18.324218.0625c22.265625.078126 40.863282-16.945312 42.753906-39.132812l3.585938-42.136719zm0 0" fill="#8ac6dd" fill-rule="evenodd"/><path d="m434.179688 366.492188c-.566407-.617188-1.363282-.96875-2.203126-.972657l-110.449218-.378906c-.859375 0-1.636719.34375-2.207032.960937-.570312.613282-.859374 1.4375-.792968 2.273438l3.300781 42.164062c1.84375 23.574219 21.8125 42.105469 45.464844 42.1875l18.324219.0625h.15625c23.578124 0 43.59375-18.363281 45.59375-41.878906l3.589843-42.136718c.070313-.832032-.210937-1.660157-.777343-2.28125zm-8.789063 43.910156c-1.746094 20.472656-19.148437 36.4375-39.753906 36.386718l-18.324219-.0625c-20.550781-.070312-37.902344-16.171874-39.503906-36.65625l-3.046875-38.917968 56.519531.195312 47.417969.164063zm0 0" fill="#3a312a"/><path d="m404.839844 186.714844-54.949219-.1875c-3.839844-.011719-6.960937 3.085937-6.972656 6.925781l-.082031 23.402344c-.011719 3.835937 3.085937 6.957031 6.925781 6.96875l54.949219.191406c3.835937.011719 6.957031-3.085937 6.972656-6.925781l.078125-23.402344c.011719-3.835938-3.085938-6.957031-6.921875-6.972656zm0 0" fill="#d7e057" fill-rule="evenodd"/><path d="m411.875 186.652344c-1.875-1.882813-4.367188-2.925782-7.027344-2.9375l-54.949218-.1875h-.035157c-2.644531 0-5.132812 1.027344-7.007812 2.890625-1.886719 1.871093-2.929688 4.367187-2.9375 7.023437l-.082031 23.402344c-.015626 5.488281 4.429687 9.960938 9.914062 9.980469l54.953125.1875h.035156c2.644531 0 5.128907-1.027344 7.007813-2.890625 1.886718-1.871094 2.925781-4.367188 2.9375-7.023438l.078125-23.402344c.007812-2.65625-1.015625-5.15625-2.886719-7.042968zm-3.195312 30.429687c-.003907 2.175781-1.789063 3.867188-3.957032 3.933594l-54.953125-.191406c-2.175781-.003907-3.941406-1.78125-3.933593-3.957031l.078124-23.40625c.003907-1.054688.417969-2.042969 1.167969-2.785157.742188-.738281 1.730469-1.144531 2.78125-1.144531h.015625l54.949219.1875c1.054687.003906 2.046875.417969 2.785156 1.164062.742188.75 1.152344 1.742188 1.148438 2.796876zm0 0" fill="#3a312a"/><path d="m378.148438 255.578125-2.042969-.007813c-9.015625-.027343-16.347657 7.253907-16.378907 16.269532l-.179687 52.351562c-.03125 9.015625 7.253906 16.351563 16.269531 16.378906l2.046875.011719c9.015625.027344 16.347657-7.257812 16.378907-16.269531l.179687-52.351562c.027344-9.019532-7.257813-16.351563-16.273437-16.382813zm0 0" fill="#f16c7a" fill-rule="evenodd"/><path d="m378.160156 252.578125-2.046875-.007813c-5.140625.039063-10.019531 1.976563-13.683593 5.617188-3.660157 3.636719-5.6875 8.484375-5.703126 13.644531l-.179687 52.351563c-.019531 5.164062 1.976563 10.023437 5.613281 13.683594 3.640625 3.664062 8.484375 5.6875 13.644532 5.707031l2.046874.007812c.027344-.007812.042969 0 .066407 0 10.628906 0 19.289062-8.625 19.324219-19.261719l.179687-52.351562c.03125-10.65625-8.605469-19.355469-19.261719-19.390625zm13.082032 71.722656c-.027344 7.332031-6 13.28125-13.324219 13.28125h-.042969l-2.050781-.011719c-3.558594-.011718-6.898438-1.410156-9.40625-3.933593-2.507813-2.523438-3.882813-5.875-3.871094-9.433594l.179687-52.351563c.011719-3.558593 1.410157-6.902343 3.933594-9.410156 2.511719-2.496094 5.84375-3.871094 9.386719-3.871094h.046875l2.046875.007813c7.34375.023437 13.300781 6.023437 13.277344 13.371094zm0 0" fill="#3a312a"/><path d="m444.730469 164.769531c-.941407-1.019531-2.222657-1.578125-3.601563-1.578125h-30c1.378906 0 2.660156.558594 3.601563 1.578125.917969 1.019531 1.378906 2.339844 1.257812 3.699219l-1.859375 21.722656c.421875 1.078125.640625 2.238282.640625 3.457032v.042968l-.082031 23.417969c-.019531 3-1.359375 5.679687-3.476562 7.5l-12 140.800781 30 .101563 16.777343-197.042969c.121094-1.359375-.339843-2.679688-1.257812-3.699219zm0 0" fill="#695b51"/><path d="m398.710938 371.511719-3.320313 38.898437c-1.5625 18.359375-15.78125 33.160156-33.5625 35.898438 1.800781.28125 3.621094.421875 5.480469.421875l18.320312.058593c20.582032.121094 38.019532-15.917968 39.761719-36.378906l3.320313-38.898437zm0 0" fill="#6ca8bf"/><path d="m322.378906 22.355469c-1.949218 23.125-26.050781 26.777343-26.050781 26.777343 20.695313.972657 25.851563 28.117188 25.851563 28.117188.441406-19.355469 26.640624-28.402344 26.640624-28.402344-19.625-1.175781-26.441406-26.492187-26.441406-26.492187zm0 0" fill="#d7e057"/><path d="m349.003906 45.851562c-17.210937-1.03125-23.664062-24.046874-23.730468-24.28125-.378907-1.40625-1.714844-2.332031-3.164063-2.203124-1.449219.132812-2.597656 1.28125-2.71875 2.734374-1.71875 20.429688-22.628906 23.925782-23.507813 24.066407-1.527343.226562-2.628906 1.578125-2.546874 3.121093.078124 1.539063 1.3125 2.765626 2.855468 2.839844 18.054688.851563 22.996094 25.4375 23.042969 25.683594.273437 1.421875 1.519531 2.4375 2.945313 2.4375.082031 0 .167968-.003906.25-.011719 1.53125-.128906 2.714843-1.386719 2.75-2.921875.390624-17.015625 24.382812-25.550781 24.625-25.636718 1.351562-.46875 2.183593-1.828126 1.988281-3.246094-.195313-1.414063-1.363281-2.496094-2.789063-2.582032zm-27.132812 20.691407c-2.710938-6.261719-7.417969-13.816407-15.175782-17.753907 5.863282-2.808593 12.820313-7.824218 16.40625-16.546874 3.101563 6.144531 8.398438 13.761718 16.667969 17.449218-6.015625 3.277344-13.84375 8.8125-17.898437 16.851563zm0 0" fill="#3a312a"/><path d="m278.980469 56.316406c-1.378907 16.359375-18.421875 18.941406-18.421875 18.941406 14.632812.6875 18.28125 19.886719 18.28125 19.886719.3125-13.6875 18.84375-20.089843 18.84375-20.089843-13.878906-.832032-18.703125-18.738282-18.703125-18.738282zm0 0" fill="#d7e057"/><path d="m297.863281 72.058594c-11.53125-.6875-15.945312-16.371094-15.984375-16.527344-.382812-1.40625-1.710937-2.332031-3.164062-2.207031-1.453125.132812-2.601563 1.289062-2.722656 2.738281-1.15625 13.742188-15.292969 16.132812-15.882813 16.226562-1.527344.230469-2.625 1.582032-2.546875 3.121094.078125 1.542969 1.3125 2.769532 2.851562 2.84375 12.074219.566406 15.449219 17.289063 15.480469 17.453125.269531 1.425781 1.515625 2.4375 2.941407 2.4375.085937 0 .167968 0 .25-.007812 1.53125-.125 2.71875-1.386719 2.753906-2.921875.261718-11.417969 16.660156-17.269532 16.824218-17.324219 1.351563-.46875 2.1875-1.828125 1.992188-3.246094-.191406-1.417969-1.359375-2.5-2.792969-2.585937zm-19.167969 13.589844c-1.847656-3.769532-4.679687-7.890626-8.894531-10.558594 3.710938-2.082032 7.394531-5.257813 9.742188-9.832032 2.113281 3.746094 5.308593 7.90625 9.882812 10.445313-3.699219 2.203125-7.980469 5.484375-10.730469 9.945313zm0 0" fill="#3a312a"/><path d="m278.980469 3c-1.378907 16.359375-18.421875 18.941406-18.421875 18.941406 14.632812.6875 18.28125 19.890625 18.28125 19.890625.3125-13.691406 18.84375-20.09375 18.84375-20.09375-13.878906-.832031-18.703125-18.738281-18.703125-18.738281zm0 0" fill="#d7e057"/><path d="m297.863281 18.742188c-11.53125-.6875-15.941406-16.367188-15.984375-16.527344-.382812-1.402344-1.710937-2.332032-3.164062-2.2031252-1.453125.1289062-2.601563 1.2851562-2.722656 2.7382812-1.15625 13.738281-15.292969 16.132812-15.882813 16.226562-1.527344.230469-2.625 1.578126-2.546875 3.121094.078125 1.539063 1.3125 2.769532 2.855469 2.84375 12.070312.566406 15.445312 17.285156 15.476562 17.449219.269531 1.425781 1.519531 2.441406 2.945313 2.441406.082031 0 .164062-.003906.25-.011719 1.527344-.125 2.714844-1.386718 2.75-2.921874.261718-11.417969 16.664062-17.269532 16.828125-17.324219 1.351562-.46875 2.1875-1.824219 1.992187-3.242188-.195312-1.421875-1.363281-2.5-2.796875-2.589843zm-19.167969 13.59375c-1.847656-3.773438-4.679687-7.894532-8.894531-10.5625 3.710938-2.082032 7.394531-5.257813 9.742188-9.832032 2.113281 3.75 5.304687 7.910156 9.878906 10.445313-3.695313 2.203125-7.976563 5.484375-10.726563 9.949219zm0 0" fill="#3a312a"/><path d="m21.289062 134.75h222v254h-222zm0 0" fill="#87796f"/><path d="m243.289062 131.75h-222c-1.65625 0-3 1.34375-3 3v142c0 1.65625 1.34375 3 3 3s3-1.34375 3-3v-139h216v248h-216v-77c0-1.65625-1.34375-3-3-3s-3 1.34375-3 3v80c0 1.65625 1.34375 3 3 3h222c1.65625 0 3-1.34375 3-3v-254c0-1.65625-1.34375-3-3-3zm0 0" fill="#3a312a"/><path d="m206.1875 337.832031h-39.058594v-25.601562c-10.917968 7.640625-22.199218 12.140625-33.160156 12.140625-10.519531 0-21.621094-4.5625-32.480469-12.28125v25.742187h-39.097656c-32.640625 0-59.121094 26.476563-59.121094 59.117188v53.582031h262.039063v-53.582031c0-32.640625-26.480469-59.117188-59.121094-59.117188zm0 0" fill="#fce8cb"/><path d="m206.1875 334.832031h-36.058594v-22.601562c0-1.117188-.621094-2.144531-1.613281-2.664063-.992187-.515625-2.191406-.4375-3.105469.207032-11 7.695312-21.578125 11.597656-31.441406 11.597656-9.453125 0-19.796875-3.945313-30.742188-11.726563-.914062-.652343-2.117187-.734375-3.113281-.21875-1 .511719-1.625 1.542969-1.625 2.664063v22.742187h-36.097656c-34.253906 0-62.121094 27.867188-62.121094 62.117188v53.582031c0 1.65625 1.339844 3 3 3h262.039063c1.660156 0 3-1.34375 3-3v-53.582031c0-34.253907-27.867188-62.117188-62.121094-62.117188zm56.121094 112.699219h-256.039063v-50.582031c0-30.941407 25.175781-56.117188 56.121094-56.117188h39.097656c1.660157 0 3-1.34375 3-3v-20.132812c10.28125 6.421875 20.175781 9.671875 29.480469 9.671875 9.660156 0 19.78125-3.222656 30.160156-9.585938v20.042969c0 1.65625 1.34375 3 3 3h39.058594c30.945312 0 56.121094 25.175781 56.121094 56.121094zm0 0" fill="#3a312a"/><path d="m206.179688 337.820312h-9.34375l.242187.175782-40.628906 53.886718-20.964844-15.796874-20.964844 15.796874-40.628906-53.886718.242187-.175782h-11.734374c-32.652344 0-59.121094 26.46875-59.121094 59.121094v53.597656h262.023437v-53.597656c.003907-32.652344-26.464843-59.121094-59.121093-59.121094zm0 0" fill="#f16c7a"/><path d="m206.179688 334.820312h-9.34375c-1.300782 0-2.453126.835938-2.855469 2.070313-.039063.117187-.066407.234375-.089844.347656l-38.03125 50.445313-18.574219-13.996094c-1.066406-.804688-2.539062-.804688-3.609375 0l-18.570312 13.992188-38.035157-50.445313c-.023437-.113281-.054687-.230469-.089843-.347656-.402344-1.234375-1.554688-2.070313-2.851563-2.070313h-11.730468c-34.253907 0-62.125 27.871094-62.125 62.125v53.597656c0 1.65625 1.34375 3 3 3h262.027343c1.65625 0 3-1.34375 3-3v-53.597656c0-34.253906-27.867187-62.121094-62.121093-62.121094zm56.121093 112.71875h-256.023437v-50.597656c0-30.945312 25.175781-56.121094 56.121094-56.121094h9.859374l39.863282 52.867188c.996094 1.324219 2.878906 1.585938 4.203125.589844l19.160156-14.4375 19.160156 14.4375c1.324219.996094 3.203125.734375 4.203125-.589844l39.863282-52.867188h7.472656c30.945312 0 56.121094 25.175782 56.121094 56.121094v50.597656zm0 0" fill="#3a312a"/><path d="m73.914062 337.984375 21.050782-15.867187 40.621094 53.890624-21.054688 15.871094zm0 0" fill="#87796f"/><path d="m137.964844 374.210938-40.617188-53.894532c-.476562-.636718-1.1875-1.054687-1.976562-1.167968-.785156-.109376-1.589844.097656-2.222656.578124l-21.054688 15.867188c-1.324219 1-1.585938 2.878906-.589844 4.203125l40.617188 53.894531c.476562.632813 1.191406 1.050782 1.976562 1.164063.140625.019531.28125.03125.417969.03125.648437 0 1.285156-.210938 1.808594-.605469l21.054687-15.867188c1.316406-1 1.582032-2.882812.585938-4.203124zm-22.859375 13.472656-37.007813-49.101563 16.261719-12.257812 37.003906 49.101562zm0 0" fill="#3a312a"/><path d="m135.402344 376.035156 40.621094-53.894531 21.054687 15.867187-40.621094 53.894532zm0 0" fill="#87796f"/><g fill="#3a312a"><path d="m198.875 335.59375-21.054688-15.867188c-.636718-.476562-1.4375-.6875-2.222656-.578124-.789062.113281-1.5.53125-1.980468 1.167968l-40.613282 53.894532c-1 1.324218-.734375 3.203124.589844 4.199218l21.054688 15.871094c.523437.394531 1.15625.601562 1.804687.601562.136719 0 .277344-.007812.417969-.027343.789062-.113281 1.5-.53125 1.976562-1.167969l40.617188-53.894531c.996094-1.320313.730468-3.203125-.589844-4.199219zm-43.015625 52.089844-16.261719-12.257813 37.003906-49.101562 16.261719 12.257812zm0 0"/><path d="m52.355469 405.195312c-1.65625 0-3 1.339844-3 3v42.34375c0 1.65625 1.34375 3 3 3 1.660156 0 3-1.34375 3-3v-42.34375c0-1.65625-1.339844-3-3-3zm0 0"/><path d="m218.605469 405.195312c-1.65625 0-3 1.339844-3 3v42.34375c0 1.65625 1.34375 3 3 3 1.660156 0 3-1.34375 3-3v-42.34375c0-1.65625-1.339844-3-3-3zm0 0"/></g><path d="m41.414062 169.816406c-11.855468-4.949218-25.480468.644532-30.429687 12.5-4.953125 11.851563.644531 25.476563 12.496094 30.429688 11.855469 4.949218 25.480469-.644532 30.429687-12.5 4.953125-11.855469-.644531-25.476563-12.496094-30.429688zm0 0" fill="#fce8cb" fill-rule="evenodd"/><path d="m32.457031 165.015625c-14.480469 0-26.261719 11.78125-26.261719 26.261719 0 14.480468 11.78125 26.261718 26.261719 26.261718s26.265625-11.78125 26.265625-26.261718c0-14.480469-11.785156-26.261719-26.265625-26.261719zm0 46.527344c-11.175781 0-20.261719-9.089844-20.261719-20.261719s9.089844-20.261719 20.261719-20.261719c11.175781 0 20.265625 9.089844 20.265625 20.261719s-9.089844 20.261719-20.265625 20.261719zm0 0" fill="#3a312a"/><path d="m258.761719 191.28125c0 12.847656-10.414063 23.261719-23.261719 23.261719s-23.261719-10.414063-23.261719-23.261719 10.414063-23.261719 23.261719-23.261719 23.261719 10.414063 23.261719 23.261719zm0 0" fill="#fce8cb" fill-rule="evenodd"/><path d="m235.5 165.015625c-14.480469 0-26.261719 11.78125-26.261719 26.261719 0 14.480468 11.78125 26.261718 26.261719 26.261718 14.484375 0 26.265625-11.78125 26.265625-26.261718 0-14.480469-11.78125-26.261719-26.265625-26.261719zm0 46.527344c-11.171875 0-20.261719-9.089844-20.261719-20.261719s9.089844-20.261719 20.261719-20.261719c11.175781 0 20.265625 9.089844 20.265625 20.261719s-9.089844 20.261719-20.265625 20.261719zm0 0" fill="#3a312a"/><path d="m133.980469 76.863281c-56.957031 0-103.128907 46.171875-103.128907 103.125s57.050782 144.375 103.128907 144.375c48.273437 0 103.125-87.421875 103.125-144.375s-46.171875-103.125-103.125-103.125zm0 0" fill="#fce8cb"/><path d="m133.980469 73.859375c-58.519531 0-106.128907 47.609375-106.128907 106.128906 0 27.675781 13.339844 64.171875 34.816407 95.25 22.554687 32.640625 49.214843 52.128907 71.3125 52.128907 23.265625 0 49.5625-19.003907 72.144531-52.140626 20.960938-30.757812 33.980469-67.25 33.980469-95.238281 0-58.519531-47.609375-106.128906-106.125-106.128906zm67.1875 197.988281c-21.132813 31.007813-46.25 49.519532-67.1875 49.519532-20.128907 0-44.941407-18.519532-66.375-49.535157-20.820313-30.128906-33.753907-65.320312-33.753907-91.84375 0-55.207031 44.917969-100.125 100.128907-100.125 55.207031 0 100.125 44.914063 100.125 100.125 0 26.847657-12.621094 62.042969-32.9375 91.859375zm0 0" fill="#3a312a"/><path d="m97.570312 168.757812c-5.5625 0-10.066406 4.507813-10.066406 10.066407 0 5.558593 4.503906 10.066406 10.066406 10.066406 5.558594 0 10.066407-4.507813 10.066407-10.066406 0-5.558594-4.507813-10.066407-10.066407-10.066407zm0 0" fill="#3a312a"/><path d="m170.390625 168.757812c-5.5625 0-10.066406 4.507813-10.066406 10.066407 0 5.558593 4.503906 10.066406 10.066406 10.066406 5.558594 0 10.0625-4.507813 10.0625-10.066406 0-5.558594-4.503906-10.066407-10.0625-10.066407zm0 0" fill="#3a312a"/><path d="m77.453125 195.785156c-9.574219 0-17.339844 5.804688-17.339844 12.964844 0 7.15625 7.765625 12.960938 17.339844 12.960938s17.339844-5.804688 17.339844-12.960938c0-7.160156-7.765625-12.964844-17.339844-12.964844zm0 0" fill="#f5978a"/><path d="m190.507812 195.785156c-9.578124 0-17.339843 5.804688-17.339843 12.964844 0 7.15625 7.761719 12.960938 17.339843 12.960938 9.574219 0 17.339844-5.804688 17.339844-12.960938-.003906-7.160156-7.765625-12.964844-17.339844-12.964844zm0 0" fill="#f5978a"/><path d="m163.523438 243.09375c-1.542969-.582031-3.28125.203125-3.859376 1.753906-2.046874 5.460938-10.046874 15.789063-25.6875 15.789063-12.21875 0-20.652343-5.242188-25.789062-16.023438-.710938-1.496093-2.5-2.132812-3.996094-1.421875-1.496094.710938-2.132812 2.503906-1.421875 4 6.144531 12.902344 16.644531 19.445313 31.207031 19.445313 16.441407 0 27.753907-10.203125 31.304688-19.683594.582031-1.550781-.207031-3.28125-1.757812-3.859375zm0 0" fill="#3a312a"/><path d="m218.832031 60.542969c-21.667969-22.890625-52.335937-37.171875-86.328125-37.171875-12.714844 0-24.953125 2-36.421875 5.714844 9.082031 21.0625 19.820313 41.292968 34.445313 58.902343 6.722656 8.074219 14.171875 15.527344 22.054687 22.441407 6.417969 5.710937 13.140625 11.101562 19.972657 16.277343 23.277343 17.675781 48.402343 33.308594 74.816406 46.042969 2.597656-9.75 3.972656-19.992188 3.972656-30.558594 0-31.632812-12.347656-60.367187-32.511719-81.648437zm0 0" fill="#87796f"/><path d="m221.011719 58.480469c-23.261719-24.574219-54.695313-38.109375-88.507813-38.109375-12.78125 0-25.34375 1.972656-37.347656 5.859375-.800781.257812-1.460938.84375-1.808594 1.617187-.347656.769532-.355468 1.648438-.019531 2.421875 10.78125 25.003907 21.867187 43.953125 34.894531 59.636719 6.429688 7.722656 13.957032 15.386719 22.363282 22.761719 5.894531 5.242187 12.488281 10.617187 20.152343 16.425781 24.03125 18.246094 49.375 33.839844 75.328125 46.355469.414063.195312.855469.296875 1.300782.296875.429687 0 .855468-.089844 1.253906-.273438.8125-.375 1.414062-1.089844 1.644531-1.953125 2.707031-10.144531 4.074219-20.683593 4.074219-31.332031.003906-31.292969-11.832032-61.019531-33.328125-83.707031zm24.34375 109.949219c-24.433594-12.058594-48.300781-26.886719-70.988281-44.113282-7.542969-5.714844-14.015626-10.992187-19.804688-16.140625-8.1875-7.183593-15.496094-14.621093-21.726562-22.101562-12.113282-14.585938-22.535157-32.160157-32.660157-55.109375 10.4375-3.046875 21.296875-4.59375 32.328125-4.59375 32.148438 0 62.03125 12.871094 84.152344 36.238281 20.433594 21.566406 31.6875 49.832031 31.6875 79.585937 0 8.886719-1.003906 17.695313-2.988281 26.234376zm0 0" fill="#3a312a"/><path d="m132.503906 23.371094c-12.714844 0-24.953125 2-36.421875 5.714844-47.804687 15.351562-82.398437 60.191406-82.398437 113.105468 0 11.1875 1.546875 22.011719 4.445312 32.273438 46.878906-17.199219 92.683594-37.859375 134.453125-64.035156 23.558594-14.753907 45.804688-31.246094 66.25-49.886719-21.667969-22.890625-52.335937-37.171875-86.328125-37.171875zm0 0" fill="#87796f"/><path d="m221.011719 58.480469c-23.261719-24.574219-54.695313-38.109375-88.507813-38.109375-12.78125 0-25.34375 1.972656-37.339844 5.855468-50.53125 16.230469-84.480468 62.832032-84.480468 115.964844 0 11.25 1.535156 22.382813 4.558594 33.089844.226562.804688.777343 1.476562 1.519531 1.855469.429687.21875.894531.328125 1.367187.328125.347656 0 .699219-.058594 1.03125-.183594 52.589844-19.292969 96.75-40.332031 135.011719-64.3125 24.597656-15.402344 47.03125-32.296875 66.679687-50.207031.59375-.546875.949219-1.304688.976563-2.109375.03125-.800782-.261719-1.585938-.816406-2.171875zm-70.023438 49.40625c-37.15625 23.289062-79.976562 43.789062-130.8125 62.628906-2.320312-9.210937-3.492187-18.722656-3.492187-28.324219 0-50.515625 32.277344-94.820312 80.324218-110.253906 11.402344-3.695312 23.34375-5.566406 35.496094-5.566406 31.125 0 60.125 12.0625 82.011719 34.03125-18.832031 16.902344-40.183594 32.867187-63.527344 47.484375zm0 0" fill="#3a312a"/></svg>