<svg height="452pt" viewBox="-72 0 452 452.66664" width="452pt" xmlns="http://www.w3.org/2000/svg"><path d="m65.15625 206.605469c-1.949219 23.128906-26.050781 26.78125-26.050781 26.78125 20.695312.972656 25.851562 28.117187 25.851562 28.117187.441407-19.351562 26.640625-28.402344 26.640625-28.402344-19.625-1.175781-26.441406-26.496093-26.441406-26.496093zm0 0" fill="#d7e057"/><path d="m91.777344 230.105469c-17.207032-1.03125-23.664063-24.046875-23.726563-24.28125-.378906-1.40625-1.699219-2.332031-3.167969-2.207031-1.449218.132812-2.59375 1.285156-2.71875 2.734374-1.71875 20.429688-22.625 23.929688-23.507812 24.066407-1.527344.230469-2.625 1.582031-2.546875 3.121093.078125 1.539063 1.3125 2.769532 2.855469 2.839844 18.054687.851563 23 25.4375 23.042968 25.6875.277344 1.421875 1.523438 2.433594 2.949219 2.433594.082031 0 .167969-.003906.25-.011719 1.53125-.128906 2.714844-1.386719 2.75-2.917969.386719-17.019531 24.382813-25.554687 24.625-25.636718 1.351563-.472656 2.183594-1.828125 1.988281-3.246094-.195312-1.414062-1.363281-2.496094-2.792968-2.582031zm-27.132813 20.691406c-2.710937-6.261719-7.417969-13.8125-15.175781-17.753906 5.863281-2.808594 12.820312-7.828125 16.40625-16.546875 3.101562 6.140625 8.398438 13.761718 16.667969 17.445312-6.015625 3.277344-13.84375 8.8125-17.898438 16.855469zm0 0" fill="#3a312a"/><path d="m21.757812 240.566406c-1.378906 16.359375-18.425781 18.941406-18.425781 18.941406 14.636719.6875 18.285157 19.890626 18.285157 19.890626.3125-13.691407 18.84375-20.09375 18.84375-20.09375-13.882813-.828126-18.703126-18.738282-18.703126-18.738282zm0 0" fill="#d7e057"/><path d="m40.640625 256.3125c-11.535156-.691406-15.945313-16.375-15.988281-16.53125-.382813-1.40625-1.730469-2.320312-3.164063-2.203125-1.449219.128906-2.597656 1.285156-2.722656 2.734375-1.152344 13.742188-15.292969 16.132812-15.882813 16.226562-1.527343.230469-2.625 1.582032-2.546874 3.125.082031 1.539063 1.316406 2.765626 2.859374 2.839844 12.066407.570313 15.445313 17.289063 15.476563 17.453125.273437 1.425781 1.515625 2.441407 2.945313 2.441407.082031 0 .167968-.003907.25-.011719 1.53125-.125 2.714843-1.386719 2.753906-2.921875.257812-11.417969 16.660156-17.269532 16.824218-17.324219 1.351563-.46875 2.183594-1.824219 1.988282-3.242187-.195313-1.417969-1.367188-2.5-2.792969-2.585938zm-19.171875 13.589844c-1.847656-3.773438-4.679688-7.894532-8.894531-10.5625 3.714843-2.082032 7.394531-5.257813 9.742187-9.832032 2.113282 3.75 5.308594 7.910157 9.882813 10.449219-3.699219 2.203125-7.976563 5.480469-10.730469 9.945313zm0 0" fill="#3a312a"/><path d="m21.757812 187.253906c-1.378906 16.355469-18.425781 18.9375-18.425781 18.9375 14.636719.6875 18.285157 19.890625 18.285157 19.890625.3125-13.691406 18.84375-20.089843 18.84375-20.089843-13.882813-.832032-18.703126-18.738282-18.703126-18.738282zm0 0" fill="#d7e057"/><path d="m40.640625 202.996094c-11.480469-.683594-15.902344-16.222656-15.988281-16.523438-.378906-1.40625-1.738282-2.332031-3.164063-2.207031-1.449219.132813-2.597656 1.285156-2.722656 2.734375-1.152344 13.742188-15.292969 16.132812-15.882813 16.226562-1.527343.230469-2.625 1.582032-2.546874 3.121094.082031 1.539063 1.316406 2.769532 2.859374 2.84375 12.066407.566406 15.445313 17.289063 15.476563 17.453125.273437 1.421875 1.515625 2.4375 2.945313 2.4375.082031 0 .167968 0 .25-.007812 1.53125-.128907 2.714843-1.390625 2.753906-2.921875.257812-11.417969 16.660156-17.269532 16.824218-17.324219 1.351563-.46875 2.183594-1.828125 1.988282-3.246094-.195313-1.417969-1.367188-2.5-2.792969-2.585937zm-19.171875 13.589844c-1.847656-3.769532-4.679688-7.894532-8.894531-10.558594 3.714843-2.082032 7.394531-5.261719 9.742187-9.832032 2.113282 3.746094 5.308594 7.90625 9.882813 10.445313-3.699219 2.203125-7.976563 5.480469-10.730469 9.945313zm0 0" fill="#3a312a"/><path d="m221.78125 296.753906-27.742188 12.859375 19.019532 41.101563c8.121094-7 17.761718-11.300782 27.78125-12.839844zm0 0" fill="#87796f"/><path d="m243.5625 336.613281-19.0625-41.121093c-.335938-.722657-.941406-1.28125-1.6875-1.554688s-1.574219-.242188-2.296875.09375l-27.738281 12.863281c-1.5.695313-2.15625 2.476563-1.460938 3.980469l19.019532 41.101562c.394531.851563 1.167968 1.472657 2.089843 1.671876.210938.042968.421875.066406.632813.066406.710937 0 1.410156-.253906 1.960937-.726563 7.484375-6.457031 16.574219-10.65625 26.277344-12.148437.933594-.144532 1.742187-.71875 2.1875-1.550782.445313-.828124.472656-1.820312.078125-2.675781zm-29.394531 9.355469-16.144531-34.894531 22.296874-10.335938 16.179688 34.902344c-8.078125 1.8125-15.683594 5.328125-22.332031 10.328125zm0 0" fill="#3a312a"/><path d="m288.648438 353.101562c-22.078126-21.589843-57.476563-21.195312-79.0625.882813-21.589844 22.074219-21.195313 57.472656.882812 79.058594 22.074219 21.589843 57.472656 21.195312 79.0625-.878907 21.589844-22.078124 21.191406-57.476562-.882812-79.0625zm-17.566407 61.019532c-11.625 11.890625-30.6875 12.105468-42.574219.476562-11.890624-11.625-12.101562-30.6875-.476562-42.578125 11.625-11.886719 30.6875-12.097656 42.574219-.476562 11.890625 11.628906 12.105469 30.691406.476562 42.578125zm0 0" fill="#f16c7a" fill-rule="evenodd"/><path d="m249.566406 359.964844c-.128906 0-.253906 0-.378906 0-8.84375.101562-17.117188 3.636718-23.296875 9.960937-6.183594 6.324219-9.539063 14.671875-9.4375 23.515625.097656 8.84375 3.632813 17.121094 9.957031 23.300782 6.234375 6.09375 14.4375 9.4375 23.140625 9.4375h.375c8.84375-.097657 17.121094-3.636719 23.300781-9.960938 6.183594-6.320312 9.535157-14.671875 9.4375-23.515625-.097656-8.84375-3.632812-17.117187-9.957031-23.300781-6.234375-6.09375-14.4375-9.4375-23.140625-9.4375zm19.371094 52.0625c-5.058594 5.175781-11.835938 8.074218-19.074219 8.152344-7.238281.101562-14.078125-2.664063-19.257812-7.722657-5.179688-5.0625-8.070313-11.839843-8.152344-19.082031-.082031-7.238281 2.664063-14.078125 7.722656-19.253906 5.0625-5.175782 11.839844-8.074219 19.078125-8.152344.105469-.003906.210938-.003906.3125-.003906 7.125 0 13.84375 2.738281 18.945313 7.726562 5.175781 5.0625 8.070312 11.839844 8.152343 19.078125.082032 7.242188-2.664062 14.078125-7.726562 19.257813zm21.808594-61.070313c-23.226563-22.710937-60.597656-22.292969-83.304688.929688-22.710937 23.222656-22.292968 60.59375.929688 83.304687 11.089844 10.84375 25.6875 16.792969 41.171875 16.792969.222656 0 .449219-.003906.675781-.003906 15.734375-.179688 30.457031-6.46875 41.457031-17.71875 22.710938-23.226563 22.292969-60.59375-.929687-83.304688zm-3.359375 79.109375c-9.882813 10.101563-23.105469 15.753906-37.238281 15.914063-.203126 0-.40625 0-.605469 0-13.90625 0-27.019531-5.34375-36.976563-15.078125-20.859375-20.398438-21.234375-53.964844-.835937-74.820313 10.347656-10.582031 24.085937-15.894531 37.832031-15.894531 13.351562 0 26.710938 5.007812 36.988281 15.058594 20.855469 20.398437 21.230469 53.960937.835938 74.820312zm0 0" fill="#3a312a"/><path d="m103.34375 3.957031c-17.1875 7.964844-25.457031 27.726563-19.066406 45.558594l23.339844 65.09375 9.03125 25.191406 63.234374 176.378907 56.070313-25.976563zm0 0" fill="#8ac6dd"/><path d="m238.675781 288.941406-132.609375-286.246094c-.695312-1.503906-2.480468-2.160156-3.984375-1.457031-18.726562 8.671875-27.59375 29.867188-20.625 49.292969l23.335938 65.089844c.554687 1.558594 2.277343 2.371094 3.835937 1.8125s2.371094-2.277344 1.808594-3.835938l-23.335938-65.09375c-5.566406-15.53125.792969-32.394531 14.835938-40.445312l130.035156 280.683594-50.375 23.335937-62.125-173.289063c-.5625-1.558593-2.285156-2.371093-3.835937-1.808593-1.5625.558593-2.375 2.277343-1.8125 3.835937l63.234375 176.375c.285156.792969.886718 1.429688 1.664062 1.753906.371094.15625.765625.234376 1.160156.234376.429688 0 .859376-.09375 1.261719-.277344l56.070313-25.976563c1.5-.699219 2.15625-2.480469 1.460937-3.984375zm0 0" fill="#3a312a"/><path d="m137.238281 297.132812-18.578125 41.320313c10.019532 1.441406 19.71875 5.621094 27.898438 12.523437l18.582031-41.300781zm0 0" fill="#87796f"/><path d="m167.945312 308.609375c-.285156-.742187-.851562-1.34375-1.574218-1.671875l-27.898438-12.539062c-1.515625-.679688-3.289062-.003907-3.96875 1.507812l-18.578125 41.320312c-.386719.859376-.347656 1.847657.109375 2.675782.453125.824218 1.269532 1.386718 2.203125 1.523437 9.738281 1.398438 18.863281 5.492188 26.390625 11.839844.546875.460937 1.234375.710937 1.933594.710937.222656 0 .445312-.027343.667969-.078124.917969-.207032 1.683593-.835938 2.070312-1.695313l18.578125-41.296875c.324219-.726562.347656-1.550781.066406-2.296875zm-22.546874 37.632813c-6.683594-4.910157-14.320313-8.335938-22.425782-10.066407l15.773438-35.078125 22.425781 10.082032zm0 0" fill="#3a312a"/><path d="m150.09375 354.214844c-21.839844-21.828125-57.238281-21.816406-79.066406.019531-21.828125 21.839844-21.820313 57.238281.019531 79.066406 21.835937 21.832031 57.238281 21.820313 79.066406-.015625 21.832031-21.839844 21.820313-57.242187-.019531-79.070312zm-18.226562 60.828125c-11.757813 11.761719-30.820313 11.769531-42.582032.011719-11.757812-11.753907-11.765625-30.816407-.007812-42.578126 11.753906-11.761718 30.816406-11.765624 42.574218-.011718 11.765626 11.753906 11.769532 30.816406.015626 42.578125zm0 0" fill="#f16c7a" fill-rule="evenodd"/><path d="m152.21875 352.09375c-11.128906-11.121094-25.917969-17.242188-41.648438-17.242188h-.011718c-15.738282 0-30.527344 6.132813-41.652344 17.261719-11.125 11.128907-17.25 25.921875-17.246094 41.660157.003906 15.734374 6.136719 30.523437 17.265625 41.648437 11.125 11.121094 25.914063 17.246094 41.644531 17.246094h.015626c15.734374-.003907 30.527343-6.136719 41.648437-17.265625 22.964844-22.972656 22.953125-60.34375-.015625-83.308594zm-4.226562 79.070312c-9.992188 9.996094-23.277344 15.5-37.410157 15.503907h-.011719c-14.125 0-27.410156-5.5-37.402343-15.488281-9.996094-9.988282-15.503907-23.273438-15.507813-37.40625 0-14.132813 5.5-27.421876 15.488282-37.417969 9.992187-9.996094 23.277343-15.5 37.410156-15.503907h.011718c14.128907 0 27.414063 5.5 37.40625 15.488282 20.632813 20.621094 20.640626 54.1875.015626 74.824218zm-37.421876-70.511718h-.007812c-8.84375 0-17.15625 3.445312-23.40625 9.699218-6.253906 6.253907-9.695312 14.570313-9.695312 23.414063.003906 8.84375 3.449218 17.15625 9.703124 23.410156 6.457032 6.449219 14.929688 9.675781 23.40625 9.675781 8.480469 0 16.964844-3.230468 23.417969-9.6875 6.25-6.253906 9.695313-14.570312 9.691407-23.414062-.003907-8.839844-3.449219-17.15625-9.703126-23.40625-6.253906-6.25-14.566406-9.691406-23.40625-9.691406zm19.175782 52.269531c-10.570313 10.574219-27.769532 10.578125-38.339844.007813-5.117188-5.117188-7.941406-11.925782-7.945312-19.164063 0-7.242187 2.816406-14.050781 7.9375-19.171875 5.117187-5.121094 11.925781-7.941406 19.164062-7.941406h.007812c7.238282 0 14.046876 2.816406 19.164063 7.933594 5.121094 5.121093 7.941406 11.925781 7.945313 19.167968 0 7.242188-2.816407 14.046875-7.933594 19.167969zm0 0" fill="#3a312a"/><path d="m252.339844 3-30.878906 68.695312-10.984376 24.441407-87.472656 194.601562 56.363282 25.335938 92.558593-267.734375c6.1875-17.902344-2.308593-37.570313-19.585937-45.339844zm0 0" fill="#8ac6dd"/><path d="m253.570312.265625c-1.519531-.679687-3.289062-.003906-3.96875 1.503906l-30.875 68.695313c-.679687 1.511718-.003906 3.289062 1.503907 3.96875 1.519531.679687 3.289062.003906 3.96875-1.507813l29.59375-65.835937c14.136719 7.890625 20.6875 24.679687 15.296875 40.273437l-91.488282 264.632813-50.628906-22.761719 86.242188-191.867187c.679687-1.507813.003906-3.285157-1.507813-3.964844-1.519531-.679688-3.289062-.003906-3.964843 1.507812l-87.472657 194.597656c-.679687 1.511719-.003906 3.285157 1.507813 3.96875l56.363281 25.335938c.390625.175781.808594.261719 1.230469.261719.402344 0 .808594-.082031 1.1875-.246094.773437-.332031 1.371094-.976563 1.648437-1.773437l92.554688-267.734376c6.742187-19.503906-2.371094-40.59375-21.191407-49.054687zm0 0" fill="#3a312a"/><path d="m193.675781 225.851562c-3.441406-7.425781-12.25-10.65625-19.675781-7.214843-7.425781 3.441406-10.65625 12.246093-7.214844 19.675781 3.441406 7.425781 12.25 10.652344 19.675782 7.214844 7.421874-3.441406 10.65625-12.25 7.214843-19.675782zm0 0" fill="#f16c7a" fill-rule="evenodd"/><path d="m196.398438 224.59375c-2-4.320312-5.5625-7.601562-10.03125-9.238281-4.472657-1.640625-9.308594-1.441407-13.628907.5625-8.910156 4.125-12.804687 14.742187-8.675781 23.65625 3.011719 6.496093 9.464844 10.324219 16.195312 10.324219 2.503907 0 5.046876-.53125 7.464844-1.648438 8.910156-4.132812 12.804688-14.742188 8.675782-23.65625zm-11.199219 18.210938c-5.910157 2.738281-12.953125.15625-15.691407-5.753907-2.742187-5.914062-.160156-12.953125 5.753907-15.691406 1.582031-.730469 3.269531-1.097656 4.960937-1.097656 1.371094 0 2.75.242187 4.074219.726562 2.960937 1.085938 5.328125 3.265625 6.652344 6.125 2.738281 5.914063.160156 12.953125-5.75 15.691407zm0 0" fill="#3a312a"/><g fill="#d34e5c"><path d="m147.984375 356.339844c-10.320313-10.320313-23.859375-15.460938-37.417969-15.460938-5.0625 0-10.082031.722656-14.960937 2.160156 8.199219 2.402344 15.921875 6.839844 22.378906 13.300782 2.222656 2.222656 4.242187 4.621094 6 7.140625 3.679687 1.621093 7.082031 3.941406 10 6.859375 6.242187 6.261718 9.699219 14.5625 9.699219 23.421875 0 8.839843-3.4375 17.140625-9.699219 23.398437-2.9375 2.941406-6.359375 5.28125-10.058594 6.902344-1.742187 2.519531-3.71875 4.878906-5.941406 7.097656-6.339844 6.359375-14.019531 10.902344-22.398437 13.359375 4.800781 1.402344 9.839843 2.140625 14.980468 2.140625h.019532c14.140624 0 27.417968-5.5 37.398437-15.5 10-10 15.5-23.28125 15.5-37.417968 0-14.121094-5.519531-27.421876-15.5-37.402344zm0 0"/><path d="m286.542969 355.242188c-10.257813-10.042969-23.640625-15.0625-36.980469-15.0625-5.039062 0-10.097656.722656-15 2.160156 8.019531 2.359375 15.601562 6.660156 21.980469 12.902344 2.402343 2.359374 4.539062 4.898437 6.402343 7.558593 3.539063 1.558594 6.839844 3.761719 9.757813 6.601563 6.320313 6.179687 9.859375 14.457031 9.960937 23.296875.097657 8.839843-3.261718 17.203125-9.441406 23.519531-3 3.0625-6.480468 5.480469-10.320312 7.160156-1.617188 2.339844-3.457032 4.582032-5.519532 6.683594-6.417968 6.558594-14.257812 11.257812-22.839843 13.757812 5 1.480469 10.21875 2.199219 15.601562 2.160157 14.140625-.160157 27.359375-5.820313 37.238281-15.917969 20.402344-20.863281 20.019532-54.421875-.839843-74.820312zm0 0"/></g></svg>