<svg height="472pt" viewBox="0 -10 472 472" width="472pt" xmlns="http://www.w3.org/2000/svg"><path d="m84.761719 278.394531h300.476562v39.042969h-300.476562zm0 0" fill="#8ac6dd"/><path d="m385.238281 275.394531h-300.476562c-1.65625 0-3 1.34375-3 3v39.042969c0 1.65625 1.34375 3 3 3h300.476562c1.65625 0 3-1.34375 3-3v-39.042969c0-1.65625-1.34375-3-3-3zm-3 39.042969h-294.476562v-33.042969h294.476562zm0 0" fill="#3a312a"/><path d="m73.714844 22.355469c-1.945313 23.125-26.050782 26.777343-26.050782 26.777343 20.695313.976563 25.851563 28.117188 25.851563 28.117188.441406-19.351562 26.640625-28.402344 26.640625-28.402344-19.625-1.175781-26.441406-26.492187-26.441406-26.492187zm0 0" fill="#d7e057"/><path d="m100.339844 45.851562c-17.210938-1.027343-23.664063-24.046874-23.726563-24.28125-.382812-1.402343-1.707031-2.328124-3.167969-2.199218-1.453124.128906-2.597656 1.28125-2.71875 2.734375-1.71875 20.429687-22.625 23.925781-23.511718 24.0625-1.523438.230469-2.625 1.578125-2.542969 3.121093.078125 1.539063 1.3125 2.769532 2.855469 2.84375 18.050781.847657 22.996094 25.433594 23.039062 25.683594.277344 1.421875 1.523438 2.433594 2.949219 2.433594.082031 0 .167969-.003906.25-.011719 1.527344-.125 2.714844-1.382812 2.75-2.917969.386719-17.015624 24.382813-25.550781 24.625-25.636718 1.351563-.46875 2.183594-1.828125 1.988281-3.246094-.195312-1.417969-1.363281-2.5-2.789062-2.585938zm-27.136719 20.691407c-2.710937-6.261719-7.414063-13.816407-15.171875-17.753907 5.863281-2.808593 12.816406-7.824218 16.402344-16.546874 3.101562 6.144531 8.402344 13.761718 16.667968 17.445312-6.011718 3.28125-13.84375 8.8125-17.898437 16.855469zm0 0" fill="#3a312a"/><path d="m30.316406 56.316406c-1.375 16.355469-18.425781 18.941406-18.425781 18.941406 14.636719.6875 18.285156 19.886719 18.285156 19.886719.3125-13.6875 18.84375-20.089843 18.84375-20.089843-13.878906-.832032-18.703125-18.738282-18.703125-18.738282zm0 0" fill="#d7e057"/><path d="m49.203125 72.058594c-11.535156-.6875-15.945313-16.367188-15.988281-16.527344-.378906-1.402344-1.722656-2.316406-3.164063-2.203125-1.449219.132813-2.597656 1.285156-2.722656 2.738281-1.15625 13.738282-15.292969 16.132813-15.882813 16.226563-1.523437.230469-2.625 1.578125-2.546874 3.121093.082031 1.539063 1.316406 2.769532 2.859374 2.839844 12.066407.570313 15.445313 17.289063 15.476563 17.453125.273437 1.425781 1.519531 2.441407 2.945313 2.441407.082031 0 .167968-.003907.25-.011719 1.53125-.125 2.714843-1.386719 2.753906-2.921875.257812-11.417969 16.660156-17.265625 16.824218-17.324219 1.351563-.46875 2.183594-1.824219 1.988282-3.242187-.199219-1.421876-1.367188-2.503907-2.792969-2.589844zm-19.171875 13.589844c-1.847656-3.769532-4.679688-7.894532-8.894531-10.558594 3.710937-2.082032 7.394531-5.257813 9.742187-9.832032 2.113282 3.746094 5.308594 7.910157 9.882813 10.449219-3.703125 2.199219-7.976563 5.480469-10.730469 9.941407zm0 0" fill="#3a312a"/><path d="m30.316406 3c-1.375 16.359375-18.425781 18.941406-18.425781 18.941406 14.636719.6875 18.285156 19.886719 18.285156 19.886719.3125-13.6875 18.84375-20.089844 18.84375-20.089844-13.878906-.828125-18.703125-18.738281-18.703125-18.738281zm0 0" fill="#d7e057"/><path d="m49.203125 18.746094c-11.535156-.691406-15.945313-16.371094-15.988281-16.53125-.378906-1.402344-1.722656-2.332032-3.164063-2.2031252-1.449219.1328122-2.597656 1.2851562-2.722656 2.7343752-1.15625 13.742187-15.292969 16.136718-15.882813 16.230468-1.523437.230469-2.625 1.578126-2.546874 3.121094.082031 1.539063 1.316406 2.765625 2.859374 2.839844 12.066407.566406 15.445313 17.289062 15.476563 17.453125.273437 1.425781 1.519531 2.4375 2.945313 2.4375.082031 0 .167968 0 .25-.007813 1.53125-.125 2.714843-1.386718 2.753906-2.921874.257812-11.417969 16.660156-17.269532 16.824218-17.324219 1.351563-.46875 2.183594-1.828125 1.988282-3.246094-.199219-1.414063-1.367188-2.496094-2.792969-2.582031zm-19.171875 13.585937c-1.847656-3.769531-4.679688-7.890625-8.894531-10.558593 3.710937-2.082032 7.394531-5.257813 9.742187-9.832032 2.113282 3.746094 5.308594 7.910156 9.882813 10.445313-3.699219 2.203125-7.976563 5.484375-10.730469 9.945312zm0 0" fill="#3a312a"/><path d="m385.238281 174.753906h35.523438v253.160156h-35.523438zm0 0" fill="#87796f"/><path d="m420.761719 171.753906h-35.523438c-1.652343 0-3 1.34375-3 3v253.160156c0 1.65625 1.347657 3 3 3h35.523438c1.652343 0 3-1.34375 3-3v-253.160156c0-1.65625-1.347657-3-3-3zm-3 253.160156h-29.523438v-247.160156h29.523438zm0 0" fill="#3a312a"/><path d="m368 427.914062h70v21h-70zm0 0" fill="#87796f"/><path d="m438 424.914062h-70c-1.65625 0-3 1.34375-3 3v21c0 1.660157 1.34375 3 3 3h70c1.65625 0 3-1.339843 3-3v-21c0-1.65625-1.34375-3-3-3zm-3 21h-64v-15h64zm0 0" fill="#3a312a"/><path d="m49.238281 174.753906h35.523438v253.160156h-35.523438zm0 0" fill="#87796f"/><path d="m84.761719 171.753906h-35.523438c-1.652343 0-3 1.34375-3 3v154.359375c0 1.65625 1.347657 3 3 3 1.65625 0 3-1.34375 3-3v-151.359375h29.523438v247.160156h-29.523438v-69.195312c0-1.660156-1.34375-3-3-3-1.652343 0-3 1.339844-3 3v72.195312c0 1.660157 1.347657 3 3 3h35.523438c1.652343 0 3-1.339843 3-3v-253.160156c0-1.65625-1.347657-3-3-3zm0 0" fill="#3a312a"/><path d="m32 427.914062h70v21h-70zm0 0" fill="#87796f"/><path d="m102 424.914062h-70c-1.65625 0-3 1.34375-3 3v21c0 1.660157 1.34375 3 3 3h70c1.65625 0 3-1.339843 3-3v-21c0-1.65625-1.34375-3-3-3zm-3 21h-64v-15h64zm0 0" fill="#3a312a"/><path d="m456.144531 118.089844h-440.289062c-7.101563 0-12.855469 5.757812-12.855469 12.855468v30.953126c0 7.101562 5.753906 12.855468 12.855469 12.855468h440.289062c7.101563 0 12.855469-5.753906 12.855469-12.855468v-30.953126c0-7.097656-5.753906-12.855468-12.855469-12.855468zm0 0" fill="#f16c7a"/><path d="m456.144531 115.089844h-103.378906c-1.65625 0-3 1.34375-3 3 0 1.660156 1.34375 3 3 3h103.378906c5.433594 0 9.855469 4.421875 9.855469 9.855468v30.953126c0 5.433593-4.421875 9.855468-9.855469 9.855468h-440.289062c-5.433594 0-9.855469-4.421875-9.855469-9.855468v-30.949219c0-5.433594 4.421875-9.855469 9.855469-9.855469h311.378906c1.65625 0 3-1.34375 3-3s-1.34375-3-3-3h-311.378906c-8.742188 0-15.855469 7.113281-15.855469 15.855469v30.953125c0 8.742187 7.113281 15.851562 15.855469 15.851562h440.289062c8.742188 0 15.855469-7.109375 15.855469-15.851562v-30.953125c0-8.746094-7.113281-15.859375-15.855469-15.859375zm0 0" fill="#3a312a"/><path d="m456.140625 121.097656h-30c5.4375 0 9.859375 4.417969 9.859375 9.859375v30.9375c0 5.441407-4.421875 9.859375-9.859375 9.859375h30c5.4375 0 9.859375-4.417968 9.859375-9.859375v-30.9375c0-5.441406-4.421875-9.859375-9.859375-9.859375zm0 0" fill="#d34e5c"/><g fill="#3a312a"><path d="m387.839844 174.949219c-.53125-1.570313-2.242188-2.410157-3.804688-1.875l-300 102c-1.570312.535156-2.40625 2.238281-1.875 3.808593.425782 1.25 1.589844 2.035157 2.839844 2.035157.320312 0 .644531-.050781.964844-.164063l300-102c1.570312-.53125 2.40625-2.234375 1.875-3.804687zm0 0"/><path d="m385.964844 275.074219-300-102c-1.5625-.535157-3.273438.308593-3.804688 1.875-.535156 1.570312.304688 3.273437 1.875 3.804687l300 102c.320313.113282.644532.164063.964844.164063 1.25 0 2.414062-.789063 2.839844-2.035157.53125-1.570312-.304688-3.273437-1.875-3.808593zm0 0"/></g></svg>