<svg height="453pt" viewBox="0 -1 453.78688 453" width="453pt" xmlns="http://www.w3.org/2000/svg"><path d="m367.042969 115.074219c-10.542969 0-19.097657 8.550781-19.097657 19.09375 0 10.550781 8.550782 19.097656 19.097657 19.097656s19.101562-8.546875 19.101562-19.097656c-.003906-10.542969-8.554687-19.09375-19.101562-19.09375zm0 0" fill="#d7e057"/><path d="m367.042969 112.074219c-12.183594 0-22.097657 9.914062-22.097657 22.097656s9.914063 22.09375 22.097657 22.09375c12.1875 0 22.097656-9.910156 22.097656-22.09375s-9.910156-22.097656-22.097656-22.097656zm0 38.191406c-8.875 0-16.097657-7.21875-16.097657-16.09375s7.222657-16.097656 16.097657-16.097656 16.097656 7.222656 16.097656 16.097656-7.21875 16.09375-16.097656 16.09375zm0 0" fill="#3a312a"/><path d="m398.253906 87.667969c-8.222656-8.363281-19.210937-13.015625-30.949218-13.109375-11.773438-.089844-22.867188 4.421875-31.234376 12.714844-4.410156 4.367187-4.445312 11.484374-.078124 15.894531 2.175781 2.199219 5.035156 3.308593 7.898437 3.332031 2.886719.019531 5.785156-1.0625 7.996094-3.253906 4.089843-4.046875 9.5-6.253906 15.242187-6.207032 5.726563.042969 11.085938 2.3125 15.089844 6.386719 4.355469 4.429688 11.472656 4.488281 15.898438.136719 4.425781-4.351562 4.488281-11.46875.136718-15.894531zm0 0" fill="#f16c7a"/><path d="m400.390625 85.566406c-8.78125-8.933594-20.523437-13.90625-33.058594-14.003906-.128906 0-.25 0-.378906 0-12.433594 0-24.140625 4.816406-32.996094 13.582031-2.703125 2.675781-4.199219 6.246094-4.214843 10.050781-.023438 3.804688 1.445312 7.386719 4.121093 10.089844 2.664063 2.691406 6.21875 4.1875 10.003907 4.21875h.117187c3.777344 0 7.332031-1.460937 10.019531-4.121094 3.476563-3.449218 8.074219-5.339843 12.957032-5.339843.050781 0 .101562.003906.148437.003906 4.921875.035156 9.527344 1.988281 12.972656 5.492187 2.667969 2.710938 6.230469 4.222657 10.035157 4.253907h.125c3.757812 0 7.296874-1.449219 9.980468-4.085938 5.597656-5.507812 5.671875-14.542969.167969-20.140625zm-4.375 15.855469c-1.554687 1.527344-3.601563 2.367187-5.777344 2.367187-.023437 0-.046875 0-.070312 0-2.203125-.019531-4.261719-.894531-5.808594-2.464843-4.566406-4.648438-10.679687-7.234375-17.203125-7.28125-.066406 0-.132812 0-.199219 0-6.472656 0-12.570312 2.507812-17.179687 7.074219-1.554688 1.539062-3.613282 2.386718-5.796875 2.386718h-.066407c-2.191406-.019531-4.246093-.882812-5.792968-2.441406-1.546875-1.5625-2.394532-3.636719-2.382813-5.835938.011719-2.203124.878907-4.265624 2.441407-5.816406 7.800781-7.726562 18.136718-11.902344 29.105468-11.84375 10.933594.082032 21.171875 4.421875 28.828125 12.210938 3.183594 3.234375 3.140625 8.460937-.097656 11.644531zm0 0" fill="#3a312a"/><path d="m447.546875 37.128906c-21.191406-21.515625-49.492187-33.496094-79.683594-33.730468-30.234375-.234376-58.746093 11.328124-80.285156 32.5625-4.417969 4.359374-4.472656 11.476562-.113281 15.898437 2.179687 2.207031 5.042968 3.324219 7.914062 3.347656 2.878906.019531 5.769532-1.054687 7.980469-3.238281 17.257813-17.011719 40.101563-26.28125 64.324219-26.089844 24.191406.1875 46.867187 9.785156 63.847656 27.027344 4.351562 4.421875 11.472656 4.476562 15.894531.121094 4.425781-4.359375 4.480469-11.476563.121094-15.898438zm0 0" fill="#f16c7a"/><path d="m449.6875 35.023438c-21.757812-22.089844-50.804688-34.382813-81.800781-34.625-.308594-.003907-.621094-.003907-.929688-.003907-30.6875 0-59.597656 11.851563-81.480469 33.429688-5.59375 5.511719-5.65625 14.546875-.144531 20.136719 2.667969 2.707031 6.230469 4.210937 10.03125 4.242187 3.859375.0625 7.394531-1.421875 10.105469-4.097656 16.691406-16.453125 38.785156-25.410157 62.199219-25.226563 23.386719.179688 45.3125 9.460938 61.734375 26.128906 2.667968 2.710938 6.230468 4.21875 10.035156 4.25h.109375c3.765625 0 7.308594-1.453124 9.992187-4.09375 2.710938-2.667968 4.21875-6.234374 4.246094-10.039062.023438-3.804688-1.429687-7.390625-4.097656-10.101562zm-4.363281 15.863281c-1.566407 1.542969-3.589844 2.335937-5.84375 2.371093-2.203125-.015624-4.265625-.890624-5.808594-2.457031-17.546875-17.8125-40.96875-27.726562-65.960937-27.921875-.25-.003906-.5-.003906-.75-.003906-24.746094 0-48.054688 9.558594-65.707032 26.957031-1.570312 1.546875-3.671875 2.394531-5.847656 2.375-2.203125-.019531-4.261719-.890625-5.804688-2.457031-3.191406-3.238281-3.152343-8.460938.082032-11.652344 20.96875-20.671875 48.675781-31.9375 78.15625-31.699218 29.390625.230468 56.9375 11.890624 77.570312 32.835937 1.542969 1.570313 2.382813 3.644531 2.371094 5.84375-.015625 2.203125-.886719 4.265625-2.457031 5.808594zm0 0" fill="#3a312a"/><path d="m422.191406 62.097656c-14.515625-14.75-33.910156-22.964844-54.605468-23.125-20.738282-.160156-40.289063 7.777344-55.046876 22.351563-4.417968 4.363281-4.460937 11.480469-.101562 15.898437 2.175781 2.203125 5.039062 3.320313 7.910156 3.339844 2.882813.023438 5.769532-1.058594 7.984375-3.242188 10.480469-10.347656 24.355469-15.980468 39.078125-15.867187 14.6875.117187 28.453125 5.945313 38.761719 16.414063 4.351563 4.425781 11.472656 4.480468 15.894531.125 4.425782-4.355469 4.480469-11.472657.125-15.894532zm0 0" fill="#f16c7a"/><path d="m424.332031 59.992188c-15.082031-15.320313-35.226562-23.851563-56.722656-24.019532-21.550781-.140625-41.847656 8.078125-57.175781 23.21875-2.707032 2.671875-4.210938 6.238282-4.238282 10.042969-.023437 3.804687 1.4375 7.386719 4.109376 10.09375 2.664062 2.703125 6.222656 4.203125 10.023437 4.234375-.011719-.003906.070313 0 .109375 0 3.773438 0 7.320312-1.457031 10.007812-4.109375 9.90625-9.78125 23.035157-15.113281 36.941407-15 13.890625.105469 26.90625 5.617187 36.648437 15.515625 2.667969 2.710938 6.234375 4.21875 10.039063 4.25h.117187c3.757813 0 7.300782-1.453125 9.984375-4.089844 2.710938-2.667968 4.222657-6.234375 4.25-10.039062.027344-3.796875-1.425781-7.386719-4.09375-10.097656zm-4.371093 15.863281c-1.566407 1.542969-3.546876 2.414062-5.84375 2.367187-2.203126-.015625-4.265626-.890625-5.808594-2.460937-10.871094-11.039063-25.382813-17.1875-40.878906-17.308594-.152344 0-.308594 0-.460938 0-15.351562 0-29.804688 5.929687-40.742188 16.730469-1.566406 1.550781-3.679687 2.425781-5.855468 2.378906-2.199219-.015625-4.257813-.886719-5.796875-2.449219-1.546875-1.566406-2.390625-3.640625-2.378907-5.84375.015626-2.199219.886719-4.261719 2.453126-5.808593 14.1875-14.011719 32.976562-21.683594 52.914062-21.488282 19.894531.15625 38.539062 8.046875 52.492188 22.230469 1.546874 1.566406 2.386718 3.640625 2.371093 5.84375-.019531 2.199219-.894531 4.265625-2.464843 5.808594zm0 0" fill="#3a312a"/><path d="m85.339844 330.339844v87.617187c0 16.257813 13.183594 29.441407 29.445312 29.441407 16.257813 0 29.445313-13.179688 29.445313-29.441407v-87.617187zm0 0" fill="#87796f"/><path d="m144.230469 327.34375h-58.886719c-1.65625 0-3 1.339844-3 3v87.613281c0 17.890625 14.554688 32.445313 32.441406 32.445313 17.890625 0 32.445313-14.554688 32.445313-32.445313v-87.613281c0-1.660156-1.347657-3-3-3zm-3 90.613281c0 14.582031-11.867188 26.441407-26.445313 26.441407-14.582031 0-26.445312-11.859376-26.445312-26.441407v-84.617187h52.886718v84.617187zm0 0" fill="#3a312a"/><path d="m266.3125 345.421875c-16.261719 0-29.445312 13.183594-29.445312 29.445313v43.089843c0 16.257813 13.183593 29.441407 29.445312 29.441407s29.445312-13.179688 29.445312-29.441407v-43.089843c0-16.261719-13.183593-29.445313-29.445312-29.445313zm0 0" fill="#87796f"/><path d="m266.3125 342.421875c-17.886719 0-32.445312 14.554687-32.445312 32.445313v43.089843c0 17.886719 14.554687 32.441407 32.445312 32.441407s32.445312-14.554688 32.445312-32.441407v-43.089843c0-17.890626-14.554687-32.445313-32.445312-32.445313zm26.445312 75.535156c0 14.582031-11.863281 26.441407-26.445312 26.441407-14.578125 0-26.445312-11.859376-26.445312-26.441407v-43.089843c0-14.582032 11.867187-26.445313 26.445312-26.445313 14.582031 0 26.445312 11.867187 26.445312 26.445313zm0 0" fill="#3a312a"/><path d="m377.722656 231.238281c-17.328125-7.183593-31.105468 27.4375-53.824218 50.15625-1.085938 1.082031-2.15625 2.1875-3.207032 3.269531-.1875-.289062-.378906-.585937-.601562-.875-8.335938-12.195312-24.5625-20.429687-42.648438-25.976562-7.042968-2.152344-14.363281-3.910156-21.613281-5.339844-15.65625-3.066406-30.988281-4.597656-42.390625-5.390625-11.433594-.757812-18.945312-.757812-18.945312-.757812l-78.503907 14.847656c-18.484375 3.496094-32.554687 18.722656-34.382812 37.445313-3.824219 39.289062 9.148437 69.34375 22.410156 86.878906v32.464844c0 16.261718 13.175781 29.4375 29.433594 29.4375 16.261719 0 29.457031-13.175782 29.457031-29.4375v-14.640626c11.441406.144532 24.625.300782 38.335938.4375l24.59375.21875c10.15625.074219 20.214843.132813 29.699218.152344v13.832032c0 16.257812 13.195313 29.433593 29.453125 29.433593 16.261719 0 29.4375-13.175781 29.4375-29.433593v-15.539063c5.941407-4.804687 16.328125-40.148437 14.640625-78.230469 6.542969-4.753906 13.449219-10.628906 20.21875-17.414062 22.71875-22.714844 51.535156-65.980469 28.4375-75.539063zm0 0" fill="#87796f"/><path d="m388.832031 240.347656c-1.101562-5.53125-4.546875-9.640625-9.960937-11.878906-13.601563-5.644531-24.355469 8.992188-36.804688 25.929688-6.25 8.507812-12.714844 17.304687-20.292968 24.878906-.242188.242187-.488282.488281-.730469.734375-8.128907-10.4375-22.488281-18.859375-42.71875-25.066407-6.695313-2.042968-14.066407-3.867187-21.917969-5.414062-12.96875-2.539062-27.355469-4.371094-42.765625-5.441406-11.40625-.753906-18.835937-.761719-19.144531-.761719-.191406 0-.375.015625-.558594.050781l-78.507812 14.847656c-19.734376 3.734376-34.867188 20.222657-36.804688 40.101563-4.453125 45.742187 13.6875 76.375 22.394531 88.164063v31.472656c0 17.882812 14.550781 32.433594 32.433594 32.433594 17.894531 0 32.457031-14.550782 32.457031-32.433594v-11.605469c10.710938.128906 22.789063.273437 35.304688.398437h.03125c1.640625 0 2.984375-1.324218 3-2.96875.015625-1.65625-1.3125-3.011718-2.96875-3.03125-13.707032-.136718-26.890625-.292968-38.332032-.433593-.785156.007812-1.574218.300781-2.144531.863281-.570312.566406-.890625 1.332031-.890625 2.136719v14.640625c0 14.574218-11.867187 26.433594-26.453125 26.433594-14.578125 0-26.4375-11.859376-26.4375-26.433594v-32.46875c0-.65625-.214843-1.289063-.605469-1.8125-8.011718-10.585938-26.171874-40.042969-21.816406-84.777344 1.679688-17.242188 14.820313-31.542969 31.949219-34.789062l78.226563-14.792969c1.445312.011719 8.480468.089843 18.464843.75 15.152344 1.054687 29.289063 2.851562 42.015625 5.34375 7.648438 1.503906 14.820313 3.277343 21.316406 5.261719 20.226563 6.207031 34.039063 14.546874 41.140626 24.933593.175781.226563.320312.453125.464843.679688.496094.769531 1.316407 1.269531 2.226563 1.355469.902344.09375 1.8125-.242188 2.449218-.898438 1.039063-1.074219 2.097657-2.164062 3.167969-3.238281 7.894531-7.890625 14.792969-17.28125 20.882813-25.558594 12.660156-17.222656 20.855468-27.601563 29.675781-23.945313 3.578125 1.480469 5.660156 3.9375 6.371094 7.511719 2.84375 14.28125-15.960938 43.316407-35.785157 63.140625-6.445312 6.460938-13.128906 12.214844-19.863281 17.105469-.8125.59375-1.277343 1.554687-1.230469 2.5625 1.664063 37.636719-8.832031 71.960937-13.535156 75.765625-.703125.570312-1.113281 1.425781-1.113281 2.332031v15.539063c0 14.574218-11.859375 26.433594-26.433594 26.433594-14.585937 0-26.457031-11.859376-26.457031-26.433594v-13.832032c0-1.652343-1.339844-2.996093-2.992188-3-9.476562-.019531-19.53125-.078124-29.683593-.152343-1.605469-.023438-3.011719 1.320312-3.023438 2.976562-.011719 1.660157 1.320313 3.011719 2.972657 3.023438 9.105468.066406 18.125.121093 26.726562.144531v10.839844c0 17.882812 14.558594 32.433594 32.453125 32.433594 17.882813 0 32.4375-14.550782 32.4375-32.433594v-14.320313c7.089844-8.40625 15.941406-42.945312 14.699219-77.976562 6.550781-4.863281 13.035156-10.5 19.285156-16.765625 17.121094-17.117188 41.214844-49.503906 37.425781-68.554688zm0 0" fill="#3a312a"/><path d="m81.609375 102.007812c-16.488281-29.992187-59.90625-37.78125-65.703125-34.59375-4.746094 2.605469-22.488281 44.019532-6 74.011719 16.484375 29.992188 39.234375 33.355469 59.035156 22.46875 19.800782-10.886719 29.152344-31.894531 12.667969-61.886719zm0 0" fill="#87796f"/><path d="m84.238281 100.5625c-9.34375-16.996094-26.042969-26.289062-38.402343-31.089844-12.890626-5.007812-26.96875-7.113281-31.378907-4.6875-7.304687 4.015625-24.039062 47.421875-7.183593 78.085938 8.167968 14.855468 18.261718 24.269531 30.003906 27.976562 3.632812 1.148438 7.382812 1.71875 11.195312 1.71875 7.191406 0 14.613282-2.03125 21.914063-6.046875 11.175781-6.140625 18.570312-15.003906 21.394531-25.632812 3.160156-11.898438.625-25.46875-7.542969-40.324219zm1.746094 38.78125c-2.394531 9.007812-8.789063 16.585938-18.488281 21.921875-9.703125 5.335937-19.535156 6.667969-28.410156 3.863281-10.21875-3.230468-19.152344-11.691406-26.550782-25.148437-15.433594-28.074219 1.015625-66.925781 4.792969-69.925781.429687-.195313 1.257813-.304688 2.417969-.304688 10.074218 0 45.097656 7.992188 59.234375 33.707031 7.394531 13.453125 9.753906 25.53125 7.003906 35.886719zm0 0" fill="#3a312a"/><path d="m64.480469 107.972656c-9.28125-16.878906-33.71875-21.265625-36.980469-19.472656-2.671875 1.46875-12.65625 24.78125-3.378906 41.660156 9.28125 16.878906 22.085937 18.773438 33.230468 12.644532 11.140626-6.125 16.40625-17.953126 7.128907-34.832032zm0 0" fill="#f16c7a"/><path d="m67.105469 106.527344c-9.828125-17.882813-35.628907-23.632813-41.054688-20.65625-4.328125 2.378906-14.382812 27.851562-4.554687 45.730468 6.28125 11.433594 14.902344 17.429688 24.351562 17.429688 4.195313 0 8.558594-1.183594 12.949219-3.597656 6.613281-3.632813 10.996094-8.902344 12.679687-15.242188 1.863282-7.035156.394532-14.996094-4.371093-23.664062zm-1.433594 22.125c-1.25 4.714844-4.628906 8.699218-9.765625 11.523437-11.316406 6.222657-21.671875 2.148438-29.15625-11.460937-7.808594-14.207032-.308594-34.289063 2.285156-37.558594 3.953125-.582031 24.75 3.601562 32.8125 18.261719 3.996094 7.269531 5.28125 13.742187 3.824219 19.234375zm0 0" fill="#3a312a"/><path d="m233.773438 67.410156c-5.796876-3.1875-49.214844 4.605469-65.703126 34.597656-16.484374 29.992188-7.132812 51 12.667969 61.886719 19.796875 10.882813 42.546875 7.519531 59.035157-22.472656 16.488281-29.988281-1.253907-71.402344-6-74.011719zm0 0" fill="#87796f"/><path d="m247.675781 93.546875c-2.753906-13.394531-8.460937-26.566406-12.457031-28.761719-4.402344-2.425781-18.480469-.320312-31.375 4.6875-12.359375 4.800782-29.058594 14.09375-38.402344 31.089844-8.167968 14.859375-10.703125 28.425781-7.542968 40.324219 2.820312 10.628906 10.21875 19.496093 21.394531 25.636719 7.300781 4.015624 14.71875 6.042968 21.914062 6.042968 3.8125 0 7.5625-.570312 11.195313-1.71875 11.742187-3.707031 21.835937-13.121094 30.003906-27.976562 9.269531-16.871094 7.980469-36.132813 5.269531-49.324219zm-10.53125 46.433594c-7.398437 13.457031-16.332031 21.917969-26.550781 25.148437-8.886719 2.804688-18.710938 1.46875-28.410156-3.863281-9.703125-5.332031-16.09375-12.914063-18.488282-21.921875-2.75-10.355469-.394531-22.433594 7.003907-35.890625 14.1875-25.808594 49.425781-33.765625 59.25-33.765625 1.085937 0 1.867187.101562 2.265625.28125 3.914062 3.082031 20.367187 41.933594 4.929687 70.011719zm0 0" fill="#3a312a"/><path d="m222.179688 88.5c-3.261719-1.792969-27.699219 2.59375-36.980469 19.472656-9.277344 16.878906-4.015625 28.707032 7.128906 34.832032s23.949219 4.234374 33.226563-12.644532c9.28125-16.882812-.703126-40.191406-3.375-41.660156zm0 0" fill="#f16c7a"/><path d="m231.289062 102.945312c-1.464843-7.128906-4.734374-15.464843-7.664062-17.074218-3.273438-1.796875-12.109375-.019532-18.765625 2.566406-7.160156 2.78125-16.839844 8.179688-22.289063 18.089844-9.074218 16.511718-5.96875 31.054687 8.308594 38.90625 4.394532 2.414062 8.753906 3.597656 12.953125 3.597656 9.449219 0 18.070313-5.996094 24.351563-17.429688 5.414062-9.84375 4.675781-21.015624 3.105468-28.65625zm-8.359374 25.769532c-7.484376 13.613281-17.839844 17.679687-29.15625 11.460937-11.316407-6.21875-13.425782-17.144531-5.941407-30.757812 7.578125-13.789063 26.449219-18.316407 31.929688-18.316407.351562 0 .644531.019532.878906.054688 2.59375 3.265625 10.097656 23.347656 2.289063 37.558594zm0 0" fill="#3a312a"/><path d="m227.046875 218.5625c-.191406-.207031-.378906-.414062-.566406-.640625.203125-2.945313.308593-5.886719.308593-8.902344 0-12.160156-1.773437-23.871093-5.097656-34.84375-10.234375-34.050781-35.085937-60.90625-66.484375-71.71875-9.785156-3.378906-20.1875-5.203125-30.988281-5.203125-10.417969 0-20.476562 1.6875-29.949219 4.859375-31.863281 10.574219-57.167969 37.632813-67.519531 72.082031-3.304688 10.96875-5.097656 22.664063-5.097656 34.824219 0 3.273438.136718 6.496094.394531 9.683594.019531.15625.019531.308594.035156.464844-8.613281 9.765625-13.503906 20.890625-13.503906 32.726562 0 3.71875.484375 7.25 1.414063 10.589844 8.714843 31.453125 56.820312 46.867187 114.847656 46.867187s106.136718-15.417968 114.851562-46.867187c.929688-3.339844 1.410156-6.871094 1.410156-10.589844 0-12.09375-5.097656-23.429687-14.054687-33.332031zm0 0" fill="#fce8cb"/><path d="m229.554688 216.863281c.15625-2.59375.230468-5.171875.230468-7.847656 0-12.25-1.757812-24.265625-5.222656-35.707031-10.523438-35.015625-36.082031-62.566406-68.378906-73.691406-20.324219-7.011719-42.675782-7.105469-62.863282-.355469-32.820312 10.894531-58.78125 38.582031-69.445312 74.066406-3.464844 11.503906-5.222656 23.511719-5.222656 35.691406 0 2.980469.113281 6.011719.34375 9.125-8.785156 10.335938-13.417969 21.980469-13.417969 33.746094 0 3.929687.511719 7.765625 1.519531 11.394531 8.515625 30.722656 52.53125 49.0625 117.742188 49.0625 65.207031 0 109.226562-18.339844 117.742187-49.058594 1.007813-3.632812 1.519531-7.464843 1.519531-11.398437 0-12.261719-5.023437-24.359375-14.546874-35.027344zm7.242187 44.816407c-7.632813 27.554687-50.535156 44.667968-111.960937 44.667968-61.421876 0-104.320313-17.117187-111.957032-44.671875-.867187-3.105469-1.300781-6.398437-1.300781-9.785156 0-10.800781 4.289063-21.144531 12.753906-30.742187.519531-.589844.769531-1.605469.726563-2.390626l-.023438-.300781c-.253906-3.148437-.382812-6.324219-.382812-9.4375 0-11.59375 1.671875-23.019531 4.96875-33.960937 10.101562-33.617188 34.621094-59.820313 65.59375-70.101563 9.332031-3.121093 19.089844-4.703125 29.003906-4.703125 10.222656 0 20.320312 1.695313 30.011719 5.039063 30.472656 10.496093 54.621093 36.574219 64.589843 69.753906 3.292969 10.878906 4.964844 22.3125 4.964844 33.972656 0 2.96875-.097656 5.8125-.296875 8.695313-.054687.78125.195313 1.550781.703125 2.152344.214844.253906.429688.492187.632813.707031 8.808593 9.746093 13.277343 20.285156 13.277343 31.316406 0 3.386719-.4375 6.683594-1.304687 9.789063zm0 0" fill="#3a312a"/><path d="m94.265625 102.109375c-31.863281 10.574219-57.164063 37.632813-67.515625 72.082031-3.308594 10.972656-5.097656 22.667969-5.097656 34.828125 0 3.273438.136718 6.492188.394531 9.679688.019531.15625.019531.308593.035156.464843-8.613281 9.765626-13.503906 20.894532-13.503906 32.726563 0 3.722656.480469 7.25 1.410156 10.59375 7.425781 3.203125 15.347657 4.925781 23.5625 4.925781 42.457031 0 76.855469-45.886718 76.855469-102.484375 0-23.667969-6.011719-45.472656-16.140625-62.816406zm0 0" fill="#87796f"/><path d="m96.855469 100.597656c-.710938-1.222656-2.183594-1.777344-3.535157-1.335937-32.820312 10.894531-58.78125 38.582031-69.445312 74.066406-3.464844 11.503906-5.222656 23.511719-5.222656 35.691406 0 2.980469.113281 6.011719.34375 9.125-8.785156 10.335938-13.417969 21.980469-13.417969 33.746094 0 3.929687.511719 7.765625 1.519531 11.394531.246094.875.871094 1.59375 1.703125 1.953125 7.953125 3.429688 16.28125 5.167969 24.75 5.167969 44.035157 0 79.855469-47.320312 79.855469-105.480469 0-23.546875-5.722656-45.789062-16.550781-64.328125zm-63.304688 163.808594c-7.171875 0-14.238281-1.382812-21.027343-4.117188-.628907-2.695312-.949219-5.511718-.949219-8.402343 0-10.800781 4.292969-21.144531 12.753906-30.742188.519531-.589843.769531-1.605469.726563-2.390625l-.019532-.300781c-.257812-3.144531-.386718-6.320313-.386718-9.4375 0-11.589844 1.671874-23.015625 4.96875-33.960937 9.847656-32.769532 33.398437-58.5 63.269531-69.292969 9.503906 17.1875 14.515625 37.582031 14.515625 59.164062.003906 54.855469-33.128906 99.480469-73.851563 99.480469zm0 0" fill="#3a312a"/><path d="m227.046875 218.5625c-.191406-.207031-.378906-.414062-.566406-.640625.203125-2.945313.308593-5.886719.308593-8.902344 0-12.160156-1.773437-23.871093-5.097656-34.84375-10.234375-34.050781-35.085937-60.90625-66.484375-71.71875-9.992187 17.289063-15.933593 38.957031-15.933593 62.46875 0 56.601563 34.398437 102.484375 76.855468 102.484375 8.214844 0 16.136719-1.722656 23.5625-4.925781.929688-3.34375 1.410156-6.871094 1.410156-10.59375 0-12.089844-5.097656-23.425781-14.054687-33.328125zm0 0" fill="#87796f"/><path d="m229.554688 216.863281c.15625-2.59375.230468-5.171875.230468-7.847656 0-12.25-1.757812-24.265625-5.222656-35.707031-10.523438-35.015625-36.082031-62.566406-68.378906-73.691406-1.347656-.46875-2.855469.089843-3.574219 1.332031-10.6875 18.5-16.335937 40.617187-16.335937 63.972656 0 58.164063 35.824218 105.480469 79.855468 105.480469 8.46875 0 16.796875-1.738282 24.75-5.167969.832032-.359375 1.457032-1.078125 1.703125-1.953125 1.011719-3.628906 1.523438-7.464844 1.523438-11.394531-.003907-12.257813-5.027344-24.355469-14.550781-35.023438zm7.601562 43.425781c-6.789062 2.734376-13.859375 4.121094-21.03125 4.121094-40.71875 0-73.851562-44.628906-73.851562-99.484375 0-21.382812 4.9375-41.652343 14.304687-58.789062 29.363281 11.003906 52.527344 36.585937 62.238281 68.910156 3.296875 10.878906 4.96875 22.3125 4.96875 33.972656 0 2.96875-.097656 5.8125-.300781 8.695313-.054687.78125.199219 1.550781.703125 2.152344.21875.253906.433594.492187.632812.707031 8.808594 9.746093 13.28125 20.285156 13.28125 31.316406 0 2.886719-.316406 5.707031-.945312 8.398437zm0 0" fill="#3a312a"/><path d="m124.882812 211.125c-9.105468-.039062-16.507812 4.355469-16.53125 9.820312-.023437 5.460938 7.320313 14.320313 16.425782 14.359376 9.101562.039062 16.523437-8.753907 16.550781-14.214844.019531-5.460938-7.339844-9.925782-16.445313-9.964844zm0 0" fill="#3a312a"/><path d="m124.839844 230.398438c0 11.761718-8.914063 21.421874-20.351563 22.613281.210938 14.167969 9.246094 25.558593 20.351563 25.558593 11.105468 0 20.136718-11.390624 20.351562-25.558593-11.441406-1.191407-20.351562-10.851563-20.351562-22.613281zm0 0" fill="#f16c7a"/><g fill="#3a312a"><path d="m145.503906 250.027344c-10.070312-1.046875-17.664062-9.488282-17.664062-19.628906 0-1.660157-1.34375-3-3-3s-3 1.339843-3 3c0 10.140624-7.59375 18.582031-17.664063 19.628906-1.546875.160156-2.714843 1.472656-2.6875 3.03125.242188 15.988281 10.5 28.511718 23.351563 28.511718 12.855468 0 23.113281-12.523437 23.351562-28.515624.023438-1.550782-1.144531-2.867188-2.6875-3.027344zm-20.664062 25.542968c-8.726563 0-16.070313-8.773437-17.203125-20.027343 7.53125-1.636719 13.734375-6.507813 17.203125-13.039063 3.464844 6.535156 9.671875 11.402344 17.203125 13.039063-1.132813 11.253906-8.476563 20.027343-17.203125 20.027343zm0 0"/><path d="m124.839844 227.398438c-1.65625 0-3 1.339843-3 3 0 10.140624-7.59375 18.582031-17.707032 19.632812-.628906.078125-1.316406.113281-2.042968.113281-10.890625 0-19.75-8.859375-19.75-19.746093 0-1.660157-1.34375-3-3-3s-3 1.339843-3 3c0 14.195312 11.550781 25.746093 25.75 25.746093.960937 0 1.886718-.050781 2.707031-.148437 13.132813-1.367188 23.042969-12.371094 23.042969-25.597656 0-1.65625-1.34375-3-3-3zm0 0"/><path d="m170.335938 227.398438c-1.65625 0-3 1.339843-3 3 0 10.886718-8.859376 19.746093-19.746094 19.746093-.726563 0-1.414063-.035156-2.085938-.117187-10.070312-1.046875-17.664062-9.488282-17.664062-19.628906 0-1.660157-1.34375-3-3-3s-3 1.339843-3 3c0 13.226562 9.90625 24.230468 23 25.59375.863281.101562 1.789062.152343 2.75.152343 14.195312 0 25.746094-11.550781 25.746094-25.746093 0-1.65625-1.34375-3-3-3zm0 0"/></g><path d="m79.34375 218.824219c0-7.390625-9.585938-13.378907-21.410156-13.378907-11.824219 0-21.410156 5.988282-21.410156 13.378907s9.585937 13.382812 21.410156 13.382812c11.824218 0 21.410156-5.992187 21.410156-13.382812zm0 0" fill="#f5978a"/><path d="m191.746094 205.445312c-11.824219 0-21.410156 5.988282-21.410156 13.378907s9.585937 13.382812 21.410156 13.382812c11.824218 0 21.410156-5.988281 21.410156-13.382812 0-7.390625-9.585938-13.378907-21.410156-13.378907zm0 0" fill="#f5978a"/><path d="m90.046875 182.894531c-5.171875 0-9.367187 4.191407-9.367187 9.367188 0 5.171875 4.195312 9.367187 9.367187 9.367187s9.367187-4.195312 9.367187-9.367187c0-5.175781-4.195312-9.367188-9.367187-9.367188zm0 0" fill="#3a312a"/><path d="m159.628906 182.894531c-5.171875 0-9.367187 4.191407-9.367187 9.367188 0 5.171875 4.195312 9.367187 9.367187 9.367187 5.175782 0 9.367188-4.195312 9.367188-9.367187 0-5.175781-4.191406-9.367188-9.367188-9.367188zm0 0" fill="#3a312a"/><path d="m435.421875 189.398438h-138.070313c-8.179687 0-14.808593 6.632812-14.808593 14.808593v229.324219c0 8.175781 6.628906 14.804688 14.808593 14.804688h138.070313c8.179687 0 14.808594-6.628907 14.808594-14.804688v-229.324219c0-8.175781-6.628907-14.808593-14.808594-14.808593zm0 0" fill="#d7e057"/><path d="m435.421875 186.398438h-138.070313c-9.820312 0-17.808593 7.988281-17.808593 17.808593v229.324219c0 9.816406 7.988281 17.804688 17.808593 17.804688h138.070313c9.820313 0 17.808594-7.988282 17.808594-17.804688v-229.324219c0-9.820312-7.988281-17.808593-17.808594-17.808593zm11.808594 247.128906c0 6.511718-5.296875 11.808594-11.808594 11.808594h-138.070313c-6.511718 0-11.808593-5.296876-11.808593-11.808594v-229.320313c0-6.507812 5.296875-11.808593 11.808593-11.808593h138.070313c6.511719 0 11.808594 5.296874 11.808594 11.808593zm0 0" fill="#3a312a"/><path d="m424.742188 206.554688h-116.714844c-4.378906 0-7.933594 3.554687-7.933594 7.9375v190.917968c0 4.382813 3.554688 7.9375 7.933594 7.9375h116.714844c4.378906 0 7.933593-3.554687 7.933593-7.9375v-190.917968c0-4.382813-3.550781-7.9375-7.933593-7.9375zm0 0" fill="#8ac6dd"/><path d="m424.742188 203.558594h-116.714844c-6.027344 0-10.933594 4.90625-10.933594 10.933594v39.34375c0 1.65625 1.34375 3 3 3s3-1.34375 3-3v-39.34375c0-2.722657 2.210938-4.933594 4.933594-4.933594h116.714844c2.71875 0 4.933593 2.210937 4.933593 4.933594v190.917968c0 2.722656-2.214843 4.9375-4.933593 4.9375h-116.714844c-2.71875 0-4.933594-2.214844-4.933594-4.9375v-125.449218c0-1.65625-1.34375-3-3-3s-3 1.34375-3 3v125.449218c0 6.03125 4.90625 10.9375 10.933594 10.9375h116.714844c6.027343 0 10.933593-4.90625 10.933593-10.9375v-190.917968c0-6.03125-4.90625-10.933594-10.933593-10.933594zm0 0" fill="#3a312a"/><path d="m366.382812 420.523438c-5.375 0-9.734374 4.359374-9.734374 9.738281 0 5.378906 4.359374 9.734375 9.734374 9.734375 5.378907 0 9.738282-4.359375 9.738282-9.734375 0-5.378907-4.359375-9.738281-9.738282-9.738281zm0 0" fill="#f16c7a"/><path d="m366.382812 417.523438c-7.023437 0-12.734374 5.714843-12.734374 12.738281 0 7.023437 5.710937 12.734375 12.734374 12.734375 7.027344 0 12.738282-5.710938 12.738282-12.734375 0-7.023438-5.710938-12.738281-12.738282-12.738281zm0 19.472656c-3.710937 0-6.734374-3.019532-6.734374-6.734375 0-3.714844 3.023437-6.738281 6.734374-6.738281 3.714844 0 6.738282 3.023437 6.738282 6.738281 0 3.714843-3.019532 6.734375-6.738282 6.734375zm0 0" fill="#3a312a"/><path d="m415.265625 297.132812c-3.308594-3.324218-7.898437-5.382812-12.964844-5.382812h-22.019531v36.6875h22.019531c10.132813 0 18.347657-8.210938 18.347657-18.34375 0-5.0625-2.058594-9.65625-5.382813-12.960938zm0 0" fill="#d7e057"/><path d="m417.394531 295.015625c-4.023437-4.039063-9.378906-6.265625-15.09375-6.265625h-22.019531c-1.65625 0-3 1.34375-3 3v36.6875c0 1.660156 1.34375 3 3 3h22.019531c11.773438 0 21.347657-9.574219 21.347657-21.34375 0-5.707031-2.226563-11.066406-6.253907-15.078125zm-15.09375 30.421875h-19.019531v-30.6875h19.019531c4.105469 0 7.953125 1.597656 10.847657 4.507812 2.898437 2.886719 4.5 6.738282 4.5 10.835938 0 8.460938-6.882813 15.34375-15.347657 15.34375zm0 0" fill="#3a312a"/><path d="m329.769531 291.742188c-9.976562 0-18.492187 7.757812-18.824219 17.726562-.347656 10.421875 8 18.980469 18.34375 18.980469h50.996094v-36.707031zm0 0" fill="#f16c7a"/><path d="m380.285156 288.742188h-50.515625c-11.652343 0-21.441406 9.253906-21.820312 20.628906-.195313 5.84375 1.929687 11.375 5.988281 15.570312 4.0625 4.199219 9.511719 6.507813 15.351562 6.507813h50.996094c1.65625 0 3-1.339844 3-3v-36.703125c0-1.660156-1.34375-3.003906-3-3.003906zm-3 36.707031h-48c-4.195312 0-8.117187-1.664063-11.035156-4.683594-2.914062-3.015625-4.449219-6.992187-4.304688-11.199219.273438-8.171875 7.371094-14.824218 15.824219-14.824218h47.515625zm0 0" fill="#3a312a"/><path d="m401.019531 307.039062h-20.734375c-1.65625 0-3 1.34375-3 3 0 1.660157 1.34375 3 3 3h20.734375c1.65625 0 3-1.339843 3-3 0-1.65625-1.34375-3-3-3zm0 0" fill="#3a312a"/><path d="m424.75 209.558594h-30c2.71875 0 4.921875 2.222656 4.921875 4.941406v74.257812h2.640625c5.699219 0 11.058594 2.222657 15.078125 6.261719 4.039063 4 6.261719 9.359375 6.261719 15.078125 0 11.761719-9.582032 21.339844-21.339844 21.339844h-2.640625v73.980469c0 2.722656-2.203125 4.921875-4.921875 4.921875h30c2.71875 0 4.921875-2.199219 4.921875-4.921875v-190.917969c0-2.71875-2.203125-4.941406-4.921875-4.941406zm0 0" fill="#6ca8bf"/></svg>