<svg height="479pt" viewBox="0 -12 479.14016 479" width="479pt" xmlns="http://www.w3.org/2000/svg"><path d="m80.542969 22.570312c-2.023438 23.121094-26.140625 26.691407-26.140625 26.691407 20.691406 1.042969 25.753906 28.203125 25.753906 28.203125.511719-19.351563 26.738281-28.3125 26.738281-28.3125-19.617187-1.238282-26.351562-26.582032-26.351562-26.582032zm0 0" fill="#d7e057"/><path d="m107.089844 46.160156c-17.207032-1.089844-23.582032-24.128906-23.644532-24.363281-.378906-1.402344-1.726562-2.347656-3.160156-2.210937-1.449218.125-2.601562 1.273437-2.726562 2.726562-1.789063 20.421875-22.707032 23.847656-23.59375 23.980469-1.523438.226562-2.628906 1.570312-2.554688 3.113281.074219 1.539062 1.304688 2.773438 2.847656 2.851562 18.046876.910157 22.90625 25.511719 22.953126 25.761719.269531 1.425781 1.519531 2.445313 2.949218 2.445313.078125 0 .160156-.003906.242188-.011719 1.53125-.121094 2.71875-1.375 2.757812-2.910156.449219-17.015625 24.46875-25.46875 24.710938-25.550781 1.351562-.464844 2.191406-1.820313 2-3.238282-.191406-1.417968-1.355469-2.503906-2.78125-2.59375zm-27.203125 20.597656c-2.695313-6.269531-7.371094-13.839843-15.113281-17.804687 5.871093-2.789063 12.84375-7.78125 16.457031-16.492187 3.082031 6.152343 8.355469 13.789062 16.609375 17.5-6.027344 3.265624-13.875 8.769531-17.953125 16.796874zm0 0" fill="#3a312a"/><path d="m37.03125 56.382812c-1.433594 16.355469-18.488281 18.878907-18.488281 18.878907 14.632812.738281 18.214843 19.949219 18.214843 19.949219.359376-13.6875 18.914063-20.027344 18.914063-20.027344-13.878906-.875-18.640625-18.800782-18.640625-18.800782zm0 0" fill="#d7e057"/><path d="m55.863281 72.191406c-11.488281-.726562-15.855469-16.3125-15.929687-16.582031-.378906-1.40625-1.691406-2.335937-3.15625-2.214844-1.453125.125-2.605469 1.273438-2.730469 2.726563-1.207031 13.738281-15.351563 16.082031-15.941406 16.171875-1.527344.226562-2.632813 1.570312-2.558594 3.113281.074219 1.539062 1.304687 2.773438 2.847656 2.851562 12.066407.609376 15.386719 17.339844 15.417969 17.503907.269531 1.429687 1.515625 2.449219 2.949219 2.449219.078125 0 .15625-.003907.238281-.011719 1.53125-.121094 2.71875-1.375 2.761719-2.910157.296875-11.417968 16.71875-17.210937 16.882812-17.265624 1.355469-.460938 2.195313-1.820313 2-3.238282-.191406-1.417968-1.355469-2.503906-2.78125-2.59375zm-19.21875 13.523438c-1.835937-3.777344-4.652343-7.90625-8.855469-10.589844 3.714844-2.066406 7.410157-5.230469 9.773438-9.796875 2.101562 3.753906 5.285156 7.925781 9.847656 10.480469-3.707031 2.1875-7.996094 5.453125-10.765625 9.90625zm0 0" fill="#3a312a"/><path d="m37.214844 3.070312c-1.433594 16.351563-18.492188 18.875-18.492188 18.875 14.636719.738282 18.21875 19.953126 18.21875 19.953126.359375-13.691407 18.910156-20.027344 18.910156-20.027344-13.878906-.878906-18.636718-18.800782-18.636718-18.800782zm0 0" fill="#d7e057"/><path d="m56.042969 18.875c-11.488281-.722656-15.855469-16.308594-15.929688-16.582031-.375-1.40625-1.675781-2.324219-3.15625-2.214844-1.453125.125-2.605469 1.277344-2.730469 2.730469-1.207031 13.734375-15.351562 16.078125-15.941406 16.171875-1.527344.222656-2.632812 1.570312-2.558594 3.109375.074219 1.542968 1.304688 2.773437 2.847657 2.851562 12.066406.609375 15.386719 17.339844 15.417969 17.503906.269531 1.429688 1.515624 2.453126 2.949218 2.453126.078125 0 .15625-.003907.238282-.011719 1.53125-.121094 2.71875-1.375 2.761718-2.910157.296875-11.417968 16.71875-17.210937 16.882813-17.269531 1.355469-.460937 2.195312-1.816406 2-3.234375-.1875-1.417968-1.355469-2.507812-2.78125-2.597656zm-19.214844 13.527344c-1.835937-3.78125-4.652344-7.910156-8.859375-10.589844 3.71875-2.070312 7.414062-5.234375 9.773438-9.800781 2.105468 3.753906 5.285156 7.925781 9.851562 10.480469-3.710938 2.1875-7.996094 5.453124-10.765625 9.910156zm0 0" fill="#3a312a"/><path d="m462.785156 283.898438c-.464844-33.921876-13.761718-64.769532-35.261718-87.882813-23.972657-25.824219-58.175782-42.019531-96.175782-42.152344l-36.980468-.125-.582032 170.25-276.878906-.949219-.179688 52.667969 445.757813 1.523438.117187-34.554688.191407-56.460937c.003906-.777344.007812-1.539063-.007813-2.316406zm0 0" fill="#d7e057"/><path d="m465.78125 283.855469c-.457031-33.453125-13.261719-65.375-36.058594-89.878907-25.316406-27.269531-61.167968-42.980468-98.367187-43.109374l-36.980469-.125h-.007812c-1.652344 0-2.996094 1.335937-3 2.988281l-.574219 167.25-273.875-.941407c-.808594.0625-1.5625.3125-2.125.871094-.566407.558594-.886719 1.324219-.886719 2.121094l-.179688 52.667969c-.007812 1.65625 1.332032 3.003906 2.988282 3.007812l445.757812 1.527344h.011719c.789063 0 1.550781-.316406 2.113281-.871094.5625-.5625.882813-1.324219.886719-2.121093l.308594-91.011719c.003906-.808594.007812-1.59375-.011719-2.375zm-5.988281 2.351562-.300781 88.015625-439.757813-1.503906.160156-46.667969 273.878907.9375h.011718c.789063 0 1.550782-.3125 2.113282-.871093.5625-.5625.882812-1.324219.886718-2.121094l.570313-167.246094 33.980469.113281c35.542968.121094 69.796874 15.136719 93.988281 41.195313 21.785156 23.414062 34.023437 53.914062 34.457031 85.902344.019531.753906.015625 1.488281.011719 2.238281zm0 0" fill="#3a312a"/><path d="m269.738281 115.355469-227.359375-.777344c-13.679687-.046875-24.796875 11.015625-24.84375 24.695313l-.21875 64.085937-.09375 27.589844-.316406 92.085937 276.878906.945313.628906-183.761719c.046876-13.679688-10.996093-24.816406-24.675781-24.863281zm0 0" fill="#8ac6dd"/><path d="m289.355469 120.5625c-5.226563-5.265625-12.1875-8.183594-19.605469-8.207031l-227.363281-.777344c-7.457031-.007813-14.398438 2.839844-19.660157 8.074219-5.257812 5.226562-8.167968 12.191406-8.191406 19.609375l-.21875 64.085937c-.007812 1.65625 1.332032 3.003906 2.988282 3.011719h.011718c1.652344 0 2.992188-1.339844 3-2.992187l.21875-64.082032c.019532-5.820312 2.300782-11.277344 6.425782-15.378906 4.105468-4.082031 9.546874-6.328125 15.332031-6.328125h.074219l227.359374.777344c5.8125.019531 11.273438 2.304687 15.367188 6.433593 4.097656 4.128907 6.339844 9.605469 6.320312 15.421876l-.621093 180.757812-270.875-.925781.304687-89.085938c.003906-1.65625-1.332031-3.003906-2.992187-3.007812h-.007813c-1.652344 0-2.996094 1.335937-3 2.988281l-.316406 92.085938c-.003906.796874.308594 1.558593.871094 2.125.5625.5625 1.324218.882812 2.121094.886718l276.878906.945313h.007812c1.652344 0 2.996094-1.335938 3-2.988281l.628906-183.761719c.027344-7.417969-2.839843-14.402344-8.058593-19.667969zm0 0" fill="#3a312a"/><path d="m465.8125 377.242188-452.414062-1.546876c-5.722657-.019531-10.378907 4.605469-10.398438 10.328126-.019531 5.726562 4.605469 10.378906 10.328125 10.398437l216.757813.742187 28.234374.097657 207.421876.707031c5.726562.023438 10.382812-4.601562 10.398437-10.324219.019531-5.726562-4.605469-10.382812-10.328125-10.402343zm0 0" fill="#87796f"/><path d="m475.257812 378.1875c-2.515624-2.53125-5.867187-3.933594-9.4375-3.945312l-452.414062-1.546876h-.042969c-3.550781 0-6.894531 1.378907-9.414062 3.882813-2.535157 2.515625-3.9375002 5.867187-3.949219 9.4375-.0273438 7.367187 5.949219 13.382813 13.316406 13.40625l216.757813.742187h.011719c1.648437 0 2.992187-1.335937 3-2.988281.003906-1.660156-1.332032-3.007812-2.992188-3.011719l-216.753906-.742187c-4.0625-.011719-7.355469-3.328125-7.339844-7.386719.007812-1.964844.78125-3.816406 2.175781-5.199218 1.386719-1.382813 3.230469-2.140626 5.1875-2.140626h.027344l452.414063 1.546876c1.964843.007812 3.8125.78125 5.199218 2.175781 1.382813 1.394531 2.144532 3.246093 2.136719 5.210937-.003906 1.964844-.777344 3.8125-2.171875 5.199219-1.390625 1.378906-3.234375 2.136719-5.1875 2.136719h-.027344l-207.425781-.707032h-.011719c-1.648437 0-2.992187 1.335938-3 2.988282-.003906 1.660156 1.332032 3.003906 2.992188 3.011718l207.421875.707032h.046875c3.550781 0 6.894531-1.375 9.414062-3.878906 2.535156-2.515626 3.9375-5.867188 3.949219-9.4375.011719-3.566407-1.367187-6.925782-3.882813-9.460938zm0 0" fill="#3a312a"/><path d="m134.085938 341.3125c-30.472657-.105469-55.257813 24.511719-55.363282 54.984375-.101562 30.46875 24.515625 55.253906 54.984375 55.359375 30.472657.105469 55.257813-24.511719 55.359375-54.984375.105469-30.46875-24.511718-55.253906-54.980468-55.359375zm0 0" fill="#87796f"/><path d="m134.09375 338.3125h-.203125c-31.980469 0-58.054687 25.964844-58.167969 57.972656-.109375 32.074219 25.894532 58.257813 57.972656 58.371094h.203126c15.460937 0 30.011718-5.996094 40.988281-16.898438 11.023437-10.949218 17.125-25.539062 17.179687-41.078124.109375-32.074219-25.894531-58.257813-57.972656-58.367188zm36.566406 95.191406c-9.847656 9.777344-22.890625 15.152344-36.761718 15.152344h-.183594c-28.765625-.097656-52.089844-23.582031-51.992188-52.347656.097656-28.710938 23.484375-51.996094 52.171875-51.996094h.179688c28.765625.097656 52.089843 23.585938 51.992187 52.351562-.046875 13.933594-5.519531 27.015626-15.40625 36.839844zm0 0" fill="#3a312a"/><path d="m133.976562 372.050781c-13.492187-.046875-24.46875 10.855469-24.515624 24.351563-.046876 13.492187 10.855468 24.46875 24.351562 24.515625 13.492188.046875 24.472656-10.855469 24.519531-24.347657.042969-13.496093-10.859375-24.472656-24.355469-24.519531zm0 0" fill="#fce8cb"/><path d="m133.988281 369.050781h-.097656c-7.289063 0-14.152344 2.828125-19.332031 7.96875-5.199219 5.164063-8.074219 12.042969-8.097656 19.371094-.027344 7.328125 2.804687 14.226563 7.96875 19.429687 5.164062 5.199219 12.039062 8.074219 19.367187 8.101563h.09375c15.085937 0 27.382813-12.246094 27.4375-27.339844.050781-15.132812-12.214844-27.480469-27.339844-27.53125zm-.09375 48.867188h-.074219c-5.722656-.019531-11.101562-2.265625-15.132812-6.328125-4.035156-4.0625-6.246094-9.453125-6.226562-15.179688.019531-5.722656 2.269531-11.097656 6.328124-15.132812 4.046876-4.019532 9.40625-6.226563 15.105469-6.226563h.074219c11.820312.039063 21.402344 9.6875 21.363281 21.507813-.042969 11.792968-9.652343 21.359375-21.4375 21.359375zm0 0" fill="#3a312a"/><path d="m373.199219 343.710938c-29.582031-7.3125-59.484375 10.742187-66.796875 40.324218-7.308594 29.582032 10.746094 59.488282 40.324218 66.796875 29.582032 7.308594 59.488282-10.746093 66.796876-40.324219 7.3125-29.582031-10.742188-59.488281-40.324219-66.796874zm0 0" fill="#87796f"/><path d="m360.152344 339.085938h-.203125c-31.980469 0-58.054688 25.964843-58.167969 57.972656-.109375 32.074218 25.898438 58.261718 57.976562 58.371094h.199219c31.984375 0 58.058594-25.964844 58.167969-57.972657.109375-32.078125-25.894531-58.261719-57.972656-58.371093zm-.195313 110.34375h-.179687c-28.769532-.097657-52.09375-23.582032-51.996094-52.351563.101562-28.707031 23.484375-51.992187 52.171875-51.992187h.179687c28.765626.097656 52.089844 23.582031 51.992188 52.351562-.09375 28.707031-23.480469 51.992188-52.167969 51.992188zm0 0" fill="#3a312a"/><path d="m360.039062 372.824219c-13.496093-.046875-24.472656 10.855469-24.519531 24.347656-.046875 13.496094 10.855469 24.472656 24.351563 24.519531 13.492187.046875 24.472656-10.855468 24.515625-24.351562.050781-13.492188-10.851563-24.472656-24.347657-24.515625zm0 0" fill="#fce8cb"/><path d="m360.046875 369.824219c-7.308594-.089844-14.226563 2.800781-19.425781 7.964843-5.199219 5.164063-8.078125 12.046876-8.101563 19.371094-.027343 7.328125 2.804688 14.230469 7.96875 19.425782 5.164063 5.199218 12.042969 8.078124 19.371094 8.101562h.09375c15.085937 0 27.382813-12.242188 27.433594-27.339844.054687-15.125-12.210938-27.472656-27.339844-27.523437zm-.089844 48.867187h-.078125c-5.722656-.019531-11.097656-2.269531-15.132812-6.332031s-6.242188-9.453125-6.222656-15.175781v-.003906c.019531-5.722657 2.265624-11.097657 6.328124-15.132813 4.042969-4.015625 9.40625-6.226563 15.101563-6.226563h.078125c11.816406.039063 21.398438 9.6875 21.359375 21.507813-.039063 11.796875-9.648437 21.363281-21.433594 21.363281zm0 0" fill="#3a312a"/><path d="m427.523438 196.019531-85.9375-.292969c-6.160157-.023437-11.175782 4.261719-11.195313 9.558594l-.234375 68.5625c-.015625 5.300782 4.96875 9.617188 11.128906 9.636719l121.5.417969c-.46875-33.921875-13.761718-64.769532-35.261718-87.882813zm0 0" fill="#8ac6dd"/><path d="m429.71875 193.976562c-.566406-.609374-1.355469-.953124-2.1875-.957031l-85.9375-.292969h-.058594c-7.777344 0-14.121094 5.617188-14.144531 12.550782l-.234375 68.558594c-.023438 6.949218 6.308594 12.621093 14.117188 12.648437l121.5.417969h.011718c.800782 0 1.566406-.320313 2.132813-.890625.5625-.574219.875-1.347657.867187-2.152344-.460937-33.453125-13.265625-65.375-36.066406-89.882813zm-88.425781 86.507813c-4.5-.015625-8.148438-2.988281-8.136719-6.625l.234375-68.5625c.011719-3.628906 3.664063-6.570313 8.144531-6.570313h.039063l84.628906.289063c20.550781 22.535156 32.371094 51.457031 33.5 81.878906zm0 0" fill="#3a312a"/><path d="m156.414062 139.605469c-44.183593-.152344-80.121093 35.542969-80.273437 79.726562-.152344 44.179688 35.542969 80.121094 79.726563 80.269531 44.179687.152344 80.121093-35.542968 80.273437-79.726562.152344-44.179688-35.542969-80.121094-79.726563-80.269531zm0 0" fill="#fce8cb"/><path d="m215.03125 161.113281c-15.625-15.730469-36.4375-24.433593-58.609375-24.507812h-.292969c-22.058594 0-42.816406 8.554687-58.476562 24.109375-15.730469 15.625-24.433594 36.4375-24.511719 58.605468-.074219 22.171876 8.488281 43.042969 24.113281 58.773438 15.621094 15.730469 36.433594 24.433594 58.605469 24.507812.097656 0 .191406.003907.289063.003907 22.0625 0 42.824218-8.558594 58.484374-24.109375 15.730469-15.625 24.433594-36.4375 24.507813-58.605469.074219-22.171875-8.488281-43.046875-24.109375-58.777344zm-4.628906 113.125c-14.53125 14.429688-33.789063 22.367188-54.253906 22.363281h-.273438c-20.566406-.070312-39.875-8.144531-54.367188-22.738281-14.492187-14.59375-22.4375-33.953125-22.367187-54.523437.070313-20.566406 8.144531-39.875 22.738281-54.371094 14.53125-14.429688 33.789063-22.367188 54.253906-22.367188.089844 0 .179688.003907.269532.003907 20.570312.070312 39.878906 8.144531 54.375 22.738281 14.492187 14.59375 22.433594 33.957031 22.363281 54.523438-.070313 20.566406-8.144531 39.878906-22.738281 54.371093zm0 0" fill="#3a312a"/><path d="m156.339844 217.035156c-15.257813-.050781-27.679688 14.925782-27.722656 27.589844-.042969 12.667969 12.320312 14.917969 27.578124 14.972656 15.257813.050782 27.636719-2.117187 27.675782-14.78125.046875-12.667968-12.273438-27.730468-27.53125-27.78125zm0 0" fill="#87796f"/><path d="m178.039062 224.152344c-6.039062-6.496094-13.746093-10.085938-21.691406-10.117188-7.855468.003906-15.671875 3.511719-21.757812 9.96875-5.597656 5.933594-8.949219 13.640625-8.972656 20.613282-.023438 7.109374 3.292968 12.148437 9.863281 14.980468 4.734375 2.042969 11.125 2.96875 20.707031 3 .449219.003906.921875.003906 1.414062.003906 10.359376 0 29.210938-.710937 29.273438-17.773437.019531-6.976563-3.277344-14.707031-8.835938-20.675781zm-21.363281 32.445312c-.152343 0-.3125 0-.46875 0-5.421875-.019531-13.222656-.300781-18.347656-2.511718-4.332031-1.867188-6.253906-4.78125-6.238281-9.449219.019531-5.488281 2.761718-11.664063 7.335937-16.515625 4.917969-5.214844 11.058594-8.085938 17.304688-8.085938h.070312c6.265625.023438 12.417969 2.933594 17.316407 8.203125 4.542968 4.882813 7.242187 11.078125 7.222656 16.570313-.027344 8.464844-6.820313 11.789062-24.195313 11.789062zm0 0" fill="#3a312a"/><path d="m156.46875 179.613281c-5.976562-.019531-10.84375 6.179688-10.867188 13.847657-.027343 7.667968 4.792969 13.902343 10.769532 13.921874 5.976562.019532 10.84375-6.179687 10.867187-13.847656.027344-7.667968-4.792969-13.902344-10.769531-13.921875zm0 0" fill="#87796f"/><path d="m166.476562 181.871094c-2.613281-3.378906-6.164062-5.246094-9.996093-5.257813h-.042969c-3.820312 0-7.367188 1.839844-9.992188 5.1875-2.464843 3.140625-3.828124 7.277344-3.84375 11.652344-.03125 9.308594 6.140626 16.90625 13.761719 16.929687h.042969c3.816406 0 7.367188-1.839843 9.992188-5.1875 2.464843-3.136718 3.828124-7.273437 3.84375-11.648437.015624-4.375-1.320313-8.523437-3.765626-11.675781zm-2.238281 11.652344c-.007812 3.046874-.917969 5.875-2.558593 7.96875-1.464844 1.863281-3.335938 2.890624-5.277344 2.890624h-.019532c-4.238281-.015624-7.800781-5.011718-7.78125-10.914062.007813-3.042969.917969-5.875 2.558594-7.964844 1.464844-1.867187 3.339844-2.894531 5.277344-2.894531h.019531c1.945313.007813 3.816407 1.046875 5.273438 2.929687 1.632812 2.105469 2.523437 4.941407 2.507812 7.984376zm0 0" fill="#3a312a"/><path d="m135.171875 199.367188c-3.558594-6.789063-10.734375-10.050782-16.027344-7.277344-5.292969 2.773437-6.699219 10.527344-3.140625 17.320312 3.558594 6.792969 10.734375 10.050782 16.027344 7.277344 5.292969-2.769531 6.699219-10.523438 3.140625-17.320312zm0 0" fill="#87796f"/><path d="m137.828125 197.976562c-2.03125-3.875-5.144531-6.914062-8.78125-8.5625-3.890625-1.765624-7.902344-1.757812-11.296875.019532-6.75 3.539062-8.726562 13.125-4.402344 21.371094 3.226563 6.160156 9.074219 9.859374 14.636719 9.859374 1.882813 0 3.734375-.421874 5.441406-1.316406 3.394531-1.78125 5.6875-5.074218 6.449219-9.277344.710938-3.921874-.015625-8.21875-2.046875-12.09375zm-3.859375 11.027344c-.421875 2.339844-1.605469 4.125-3.328125 5.03125-3.757813 1.96875-9.238281-.785156-11.980469-6.015625-2.734375-5.226562-1.878906-11.304687 1.878906-13.269531.820313-.429688 1.738282-.648438 2.710938-.648438 1.058594 0 2.1875.257813 3.316406.773438 2.421875 1.101562 4.535156 3.191406 5.949219 5.886719 1.414063 2.695312 1.929687 5.621093 1.453125 8.242187zm0 0" fill="#3a312a"/><path d="m112.835938 219.929688c-6.09375-4.660157-13.972657-4.59375-17.605469.152343-3.628907 4.746094-1.636719 12.371094 4.453125 17.03125 6.089844 4.660157 13.96875 4.59375 17.601562-.152343 3.632813-4.746094 1.640625-12.371094-4.449218-17.03125zm0 0" fill="#87796f"/><path d="m114.65625 217.546875c-3.46875-2.65625-7.621094-4.113281-11.570312-4.070313-4.273438.039063-7.90625 1.734376-10.234376 4.78125-2.332031 3.042969-3.019531 7-1.945312 11.128907 1.011719 3.859375 3.480469 7.449219 6.957031 10.109375 3.429688 2.625 7.484375 4.066406 11.429688 4.066406h.140625c4.269531-.039062 7.90625-1.734375 10.234375-4.78125 4.628906-6.050781 2.382812-15.578125-5.011719-21.234375zm.246094 17.589844c-1.183594 1.542969-3.140625 2.40625-5.523438 2.425781-.03125 0-.058594 0-.089844 0-2.632812 0-5.394531-1.003906-7.785156-2.832031-2.417968-1.851563-4.121094-4.289063-4.792968-6.863281-.601563-2.300782-.28125-4.417969.902343-5.964844 1.183594-1.542969 3.144531-2.40625 5.523438-2.425782h.089843c2.632813 0 5.394532 1.003907 7.785157 2.832032 4.683593 3.589844 6.464843 9.460937 3.890625 12.828125zm0 0" fill="#3a312a"/><path d="m193.875 192.347656c-5.273438-2.8125-12.472656.398438-16.078125 7.167969-3.605469 6.765625-2.25 14.53125 3.019531 17.339844 5.277344 2.8125 12.472656-.398438 16.078125-7.167969 3.609375-6.765625 2.253907-14.53125-3.019531-17.339844zm0 0" fill="#87796f"/><path d="m201.671875 199.019531c-.730469-4.207031-3-7.515625-6.382813-9.320312-6.726562-3.585938-15.761718.191406-20.136718 8.40625-2.054688 3.859375-2.808594 8.152343-2.125 12.082031.730468 4.207031 3 7.515625 6.382812 9.320312 1.726563.917969 3.613282 1.375 5.566406 1.375 1.878907 0 3.816407-.425781 5.730469-1.277343 3.644531-1.625 6.78125-4.644531 8.835938-8.503907 2.058593-3.859374 2.816406-8.152343 2.128906-12.082031zm-7.421875 9.257813c-1.433594 2.6875-3.558594 4.761718-5.988281 5.847656-2.171875.96875-4.316407 1-6.03125.085938-1.714844-.917969-2.886719-2.710938-3.292969-5.054688-.460938-2.621094.078125-5.542969 1.511719-8.230469 2.152343-4.042969 5.953125-6.585937 9.296875-6.585937.960937 0 1.882812.210937 2.71875.65625 1.71875.914062 2.886718 2.710937 3.296875 5.054687.457031 2.617188-.078125 5.539063-1.511719 8.226563zm0 0" fill="#3a312a"/><path d="m217.046875 220.5c-3.597656-4.769531-11.480469-4.894531-17.601563-.273438-6.121093 4.617188-8.164062 12.226563-4.566406 17 3.597656 4.769532 11.480469 4.890626 17.597656.273438 6.125-4.621094 8.167969-12.230469 4.570313-17zm0 0" fill="#87796f"/><path d="m219.441406 218.691406c-4.589844-6.082031-14.371094-6.46875-21.800781-.859375-3.492187 2.632813-5.984375 6.207031-7.019531 10.058594-1.109375 4.125-.445313 8.078125 1.863281 11.140625s5.933594 4.785156 10.203125 4.851562h.253906c3.910156 0 7.929688-1.410156 11.347656-3.988281 3.492188-2.632812 5.984376-6.207031 7.019532-10.058593 1.105468-4.125.445312-8.082032-1.867188-11.144532zm-3.929687 9.585938c-.691407 2.570312-2.410157 4.992187-4.839844 6.828125-2.429687 1.832031-5.261719 2.832031-7.890625 2.777343-2.378906-.039062-4.335938-.914062-5.507812-2.464843-1.171876-1.554688-1.476563-3.675781-.859376-5.972657.691407-2.566406 2.40625-4.992187 4.839844-6.828124 2.433594-1.835938 5.246094-2.761719 7.75-2.761719 2.34375 0 4.414063.8125 5.648438 2.449219 1.171875 1.554687 1.476562 3.675781.859375 5.972656zm0 0" fill="#3a312a"/><path d="m331.339844 156.875-33.980469-.121094v.101563l3.980469.019531c33.101562.101562 65.101562 13.160156 88.878906 36.019531l30.121094.101563c-23.796875-22.921875-55.835938-36.019532-89-36.121094zm0 0" fill="#b9c239"/><path d="m429.800781 286.894531-.296875 87.21875 30 .101563.296875-87.320313zm0 0" fill="#b9c239"/><path d="m465.800781 380.234375h-30c4.0625.019531 7.359375 3.339844 7.339844 7.398437-.019531 3.640626-2.699219 6.683594-6.199219 7.242188l28.820313.101562h.019531c4.039062 0 7.339844-3.300781 7.359375-7.34375.019531-4.058593-3.277344-7.378906-7.339844-7.398437zm0 0" fill="#695b51"/><path d="m426.203125 199.015625h-30c20.539063 22.519531 32.359375 51.398437 33.5 81.777344l30 .101562c-1.121094-30.417969-12.941406-59.339843-33.5-81.878906zm0 0" fill="#6ca8bf"/></svg>