<svg height="454pt" viewBox="0 -2 454.15866 454" width="454pt" xmlns="http://www.w3.org/2000/svg"><path d="m65.277344 100.894531c-2.023438 23.121094-26.140625 26.691407-26.140625 26.691407 20.691406 1.042968 25.753906 28.207031 25.753906 28.207031.507813-19.355469 26.738281-28.316407 26.738281-28.316407-19.621094-1.238281-26.351562-26.582031-26.351562-26.582031zm0 0" fill="#d7e057"/><path d="m91.820312 124.484375c-17.207031-1.089844-23.578124-24.132813-23.640624-24.363281-.378907-1.40625-1.691407-2.347656-3.160157-2.210938-1.453125.125-2.601562 1.273438-2.726562 2.722656-1.792969 20.425782-22.707031 23.851563-23.59375 23.984376-1.523438.226562-2.628907 1.570312-2.554688 3.113281.074219 1.539062 1.304688 2.773437 2.847657 2.851562 18.046874.910157 22.90625 25.511719 22.953124 25.761719.269532 1.425781 1.515626 2.445312 2.945313 2.445312.082031 0 .160156-.003906.242187-.007812 1.53125-.125 2.71875-1.378906 2.757813-2.910156.449219-17.019532 24.472656-25.472656 24.714844-25.554688 1.351562-.464844 2.1875-1.820312 2-3.238281-.191407-1.417969-1.355469-2.503906-2.785157-2.59375zm-27.199218 20.597656c-2.695313-6.269531-7.371094-13.839843-15.113282-17.800781 5.867188-2.792969 12.84375-7.785156 16.457032-16.492188 3.082031 6.152344 8.351562 13.789063 16.609375 17.503907-6.027344 3.257812-13.875 8.761719-17.953125 16.789062zm0 0" fill="#3a312a"/><path d="m21.765625 134.707031c-1.433594 16.355469-18.488281 18.878907-18.488281 18.878907 14.632812.738281 18.214844 19.949218 18.214844 19.949218.359374-13.6875 18.914062-20.027344 18.914062-20.027344-13.878906-.875-18.640625-18.800781-18.640625-18.800781zm0 0" fill="#d7e057"/><path d="m40.59375 150.515625c-11.488281-.722656-15.855469-16.308594-15.929688-16.582031-.375-1.402344-1.683593-2.320313-3.15625-2.214844-1.453124.125-2.601562 1.277344-2.730468 2.730469-1.203125 13.734375-15.347656 16.078125-15.941406 16.171875-1.527344.222656-2.628907 1.570312-2.554688 3.109375.074219 1.542969 1.304688 2.773437 2.84375 2.851562 12.070312.609375 15.386719 17.339844 15.417969 17.503907.269531 1.429687 1.515625 2.453124 2.949219 2.453124.078124 0 .15625-.003906.238281-.011718 1.53125-.121094 2.722656-1.375 2.761719-2.910156.300781-11.417969 16.722656-17.210938 16.882812-17.265626 1.355469-.460937 2.195312-1.816406 2.003906-3.234374-.191406-1.425782-1.355468-2.511719-2.785156-2.601563zm-19.214844 13.527344c-1.835937-3.78125-4.65625-7.910157-8.859375-10.589844 3.71875-2.070313 7.414063-5.234375 9.773438-9.800781 2.101562 3.753906 5.285156 7.925781 9.847656 10.480468-3.703125 2.1875-7.996094 5.453126-10.761719 9.910157zm0 0" fill="#3a312a"/><path d="m21.949219 81.394531c-1.433594 16.351563-18.492188 18.875-18.492188 18.875 14.636719.738281 18.21875 19.953125 18.21875 19.953125.359375-13.6875 18.914063-20.027344 18.914063-20.027344-13.882813-.878906-18.640625-18.800781-18.640625-18.800781zm0 0" fill="#d7e057"/><path d="m40.777344 97.203125c-11.53125-.730469-15.886719-16.425781-15.929688-16.585937-.378906-1.402344-1.691406-2.328126-3.15625-2.214844-1.453125.128906-2.605468 1.277344-2.730468 2.730468-1.203126 13.734376-15.351563 16.078126-15.941407 16.171876-1.527343.226562-2.632812 1.570312-2.558593 3.109374.074218 1.542969 1.304687 2.773438 2.847656 2.851563 12.066406.613281 15.386718 17.339844 15.417968 17.503906.265626 1.433594 1.515626 2.453125 2.949219 2.453125.078125 0 .15625-.003906.238281-.011718 1.53125-.121094 2.71875-1.378907 2.761719-2.910157.296875-11.417969 16.722657-17.210937 16.882813-17.265625 1.355468-.464844 2.195312-1.820312 2.003906-3.238281s-1.359375-2.503906-2.785156-2.59375zm-19.21875 13.523437c-1.835938-3.777343-4.652344-7.910156-8.855469-10.589843 3.714844-2.070313 7.410156-5.234375 9.773437-9.800781 2.101563 3.753906 5.285157 7.929687 9.847657 10.484374-3.707031 2.1875-7.996094 5.449219-10.765625 9.90625zm0 0" fill="#3a312a"/><path d="m415.0625 3.078125h-349.96875c-19.890625 0-36.015625 16.125-36.015625 36.015625s16.125 36.011719 36.015625 36.011719h349.96875c19.890625 0 36.015625-16.121094 36.015625-36.011719s-16.125-36.015625-36.015625-36.015625zm0 0" fill="#f16c7a"/><path d="m415.0625.078125h-101.28125c-1.65625 0-3 1.34375-3 3 0 1.660156 1.34375 3 3 3h101.28125c18.207031 0 33.015625 14.8125 33.015625 33.015625s-14.808594 33.011719-33.015625 33.011719h-349.96875c-18.207031 0-33.015625-14.808594-33.015625-33.011719s14.808594-33.015625 33.015625-33.015625h223.28125c1.65625 0 3-1.339844 3-3 0-1.65625-1.34375-3-3-3h-223.28125c-21.511719 0-39.015625 17.5-39.015625 39.015625 0 21.511719 17.503906 39.011719 39.015625 39.011719h349.96875c21.515625 0 39.015625-17.5 39.015625-39.011719 0-21.515625-17.5-39.015625-39.015625-39.015625zm0 0" fill="#3a312a"/><path d="m65.09375 3.078125c-19.890625 0-36.015625 16.125-36.015625 36.015625s16.125 36.011719 36.015625 36.011719h174.984375v-72.027344zm0 0" fill="#8ac6dd"/><g fill="#3a312a"><path d="m240.078125.078125h-174.984375c-21.511719 0-39.015625 17.503906-39.015625 39.015625s17.503906 39.011719 39.015625 39.011719h174.984375c1.65625 0 3-1.339844 3-3v-72.027344c0-1.65625-1.34375-3-3-3zm-3 72.027344h-171.984375c-18.207031 0-33.015625-14.808594-33.015625-33.015625 0-18.203125 14.808594-33.011719 33.015625-33.011719h171.984375zm0 0"/><path d="m239.5 24.191406h-206.085938c-1.65625 0-3 1.34375-3 3s1.34375 3 3 3h206.085938c1.65625 0 3-1.34375 3-3s-1.34375-3-3-3zm0 0"/><path d="m239.5 49.066406h-206.085938c-1.65625 0-3 1.339844-3 3 0 1.65625 1.34375 3 3 3h206.085938c1.65625 0 3-1.34375 3-3 0-1.660156-1.34375-3-3-3zm0 0"/><path d="m215.367188 1.6875c-1.65625 0-3 1.34375-3 3v69.882812c0 1.65625 1.34375 3 3 3s3-1.34375 3-3v-69.882812c0-1.65625-1.34375-3-3-3zm0 0"/><path d="m191.933594 1.6875c-1.65625 0-3 1.34375-3 3v69.882812c0 1.65625 1.34375 3 3 3s3-1.34375 3-3v-69.882812c0-1.65625-1.34375-3-3-3zm0 0"/><path d="m168.5 1.6875c-1.65625 0-3 1.34375-3 3v69.882812c0 1.65625 1.34375 3 3 3s3-1.34375 3-3v-69.882812c0-1.65625-1.34375-3-3-3zm0 0"/><path d="m145.066406 1.6875c-1.65625 0-3 1.34375-3 3v69.882812c0 1.65625 1.34375 3 3 3s3-1.34375 3-3v-69.882812c0-1.65625-1.34375-3-3-3zm0 0"/><path d="m121.628906 1.6875c-1.65625 0-3 1.34375-3 3v69.882812c0 1.65625 1.34375 3 3 3s3-1.34375 3-3v-69.882812c0-1.65625-1.34375-3-3-3zm0 0"/><path d="m98.199219 1.6875c-1.65625 0-3 1.34375-3 3v69.882812c0 1.65625 1.34375 3 3 3s3-1.34375 3-3v-69.882812c0-1.65625-1.34375-3-3-3zm0 0"/><path d="m74.765625 1.6875c-1.65625 0-3 1.34375-3 3v69.882812c0 1.65625 1.34375 3 3 3s3-1.34375 3-3v-69.882812c0-1.65625-1.34375-3-3-3zm0 0"/><path d="m51.316406 2.789062c-1.65625 0-3 1.34375-3 3v66.585938c0 1.660156 1.34375 3 3 3s3-1.339844 3-3v-66.585938c0-1.65625-1.34375-3-3-3zm0 0"/></g><path d="m227.21875 115.175781c-6.210938 0-11.246094 25.558594-11.246094 57.085938 0 31.527343 5.035156 57.085937 11.246094 57.085937s11.242188-25.558594 11.242188-57.085937c0-31.527344-5.03125-57.085938-11.242188-57.085938zm0 0" fill="#87796f"/><path d="m227.21875 112.175781c-14.085938 0-14.246094 57.632813-14.246094 60.085938s.160156 60.085937 14.246094 60.085937c14.082031 0 14.242188-57.632812 14.242188-60.085937s-.160157-60.085938-14.242188-60.085938zm0 114.074219c-3.078125-2.273438-8.246094-21.472656-8.246094-53.988281s5.167969-51.714844 8.246094-53.988281c3.074219 2.277343 8.242188 21.476562 8.242188 53.988281 0 32.507812-5.167969 51.710937-8.242188 53.988281zm0 0" fill="#3a312a"/><path d="m120.539062 203.890625c-18.023437-25.867187-36.765624-43.957031-41.863281-40.40625-5.09375 3.550781 5.386719 27.398437 23.414063 53.265625s36.769531 43.957031 41.863281 40.40625-5.386719-27.398438-23.414063-53.265625zm0 0" fill="#87796f"/><path d="m143.664062 237.683594c-4.496093-10.230469-11.835937-22.84375-20.660156-35.507813-1.40625-2.011719-34.503906-49.199219-46.042968-41.152343-11.550782 8.050781 21.265624 55.429687 22.667968 57.441406 1.292969 1.855468 29.488282 42.078125 42.949219 42.078125 1.144531 0 2.183594-.292969 3.089844-.925781 3.988281-2.78125 3.351562-9.75-2.003907-21.933594zm-1.480468 16.929687c-3.824219-.109375-19.046875-12.90625-37.632813-39.578125-18.585937-26.675781-25.324219-45.382812-24.105469-49.007812 3.824219.109375 19.042969 12.902344 37.632813 39.578125 18.59375 26.675781 25.328125 45.382812 24.105469 49.007812zm0 0" fill="#3a312a"/><path d="m53.867188 271.933594c-23.683594-20.8125-46.207032-33.902344-50.304688-29.234375-4.101562 4.664062 11.777344 25.316406 35.460938 46.128906 23.683593 20.8125 46.203124 33.902344 50.304687 29.234375 4.097656-4.664062-11.777344-25.316406-35.460937-46.128906zm0 0" fill="#87796f"/><path d="m84.390625 299.226562c-6.808594-8.863281-16.949219-19.355468-28.542969-29.546874-11.597656-10.1875-23.304687-18.890626-32.96875-24.511719-11.507812-6.6875-18.359375-8.097657-21.570312-4.449219-9.292969 10.578125 33.890625 48.742188 35.734375 50.363281 1.617187 1.421875 35.265625 30.824219 49.746093 30.824219 2.011719 0 3.65625-.570312 4.792969-1.859375 3.207031-3.652344.921875-10.269531-7.191406-20.820313zm-43.386719-12.65625c-24.421875-21.457031-35.4375-38.015624-35.117187-41.828124 3.726562-.8125 21.574219 7.980468 45.996093 29.441406 24.425782 21.464844 35.4375 38.019531 35.117188 41.832031-3.742188.808594-21.578125-7.980469-45.996094-29.445313zm0 0" fill="#3a312a"/><path d="m375.480469 163.484375c-5.097657-3.550781-23.839844 14.539063-41.863281 40.40625-18.027344 25.863281-28.507813 49.710937-23.414063 53.261719 5.097656 3.550781 23.839844-14.539063 41.863281-40.40625 18.027344-25.863282 28.507813-49.710938 23.414063-53.261719zm0 0" fill="#87796f"/><path d="m377.195312 161.019531c-11.539062-8.042969-44.636718 39.140625-46.039062 41.15625-8.824219 12.664063-16.164062 25.277344-20.660156 35.507813-5.359375 12.183594-5.992188 19.152344-2.003906 21.933594.902343.628906 1.945312.921874 3.089843.921874 13.457031 0 41.65625-40.222656 42.949219-42.078124 1.398438-2.011719 34.21875-49.390626 22.664062-57.441407zm-27.589843 54.015625c-18.589844 26.675782-33.804688 39.46875-37.632813 39.578125-1.21875-3.625 5.515625-22.332031 24.105469-49.007812s33.804687-39.472657 37.628906-39.578125c1.222657 3.625-5.515625 22.332031-24.101562 49.007812zm0 0" fill="#3a312a"/><path d="m450.59375 242.699219c-4.097656-4.664063-26.621094 8.421875-50.304688 29.234375-23.683593 20.8125-39.558593 41.464844-35.457031 46.128906 4.097657 4.664062 26.621094-8.421875 50.300781-29.234375 23.683594-20.8125 39.5625-41.464844 35.460938-46.128906zm0 0" fill="#87796f"/><path d="m452.851562 240.71875c-3.210937-3.652344-10.0625-2.238281-21.570312 4.449219-9.667969 5.621093-21.375 14.324219-32.96875 24.511719-11.597656 10.191406-21.734375 20.683593-28.546875 29.546874-8.109375 10.550782-10.394531 17.167969-7.1875 20.816407 1.136719 1.292969 2.777344 1.859375 4.792969 1.859375 14.480468 0 48.128906-29.402344 49.746094-30.824219 1.839843-1.617187 45.023437-39.78125 35.734374-50.359375zm-39.695312 45.851562c-24.425781 21.464844-42.269531 30.265626-45.996094 29.445313-.324218-3.8125 10.6875-20.367187 35.113282-41.832031 24.421874-21.460938 42.273437-30.261719 45.996093-29.441406.320313 3.8125-10.691406 20.371093-35.113281 41.828124zm0 0" fill="#3a312a"/><path d="m408.015625 284.199219c-8.835937-11.628907-21.359375-19.695313-35.660156-23.316407-.160157-3.113281-.5-6.207031-1.046875-9.261718-3.683594-20.726563-15.941406-37.976563-33.636719-47.320313-16.542969-8.742187-36.121094-9.664062-54.289063-2.683593-12.367187-19.796876-32.984374-32.796876-56.300781-32.796876-23.269531 0-43.851562 12.949219-56.226562 32.675782-18.074219-6.84375-37.515625-5.886719-53.953125 2.800781-17.695313 9.347656-29.957032 26.597656-33.640625 47.324219-.523438 2.9375-.851563 5.917968-1.019531 8.914062-14.867188 3.441406-27.902344 11.664063-37.019532 23.65625-12.109375 15.9375-15.960937 36.746094-10.566406 57.09375 1.117188 4.222656 2.617188 8.351563 4.464844 12.347656l17.289062 24.253907c2.453125 2.378906 5.058594 4.628906 7.816406 6.722656 14.792969 11.242187 32.027344 16.734375 48.613282 16.734375 3.871094 0 7.707031-.300781 11.46875-.894531 7.300781 16.292969 20.574218 29.152343 38.789062 36.933593 20.574219 8.789063 45 9.917969 63.984375 9.917969 18.980469 0 43.40625-1.128906 63.976563-9.917969 18.171875-7.761718 31.433594-20.578124 38.742187-36.820312 3.484375.507812 7.023438.78125 10.59375.78125 16.585938 0 33.816407-5.492188 48.609375-16.730469 14.609375-11.105469 25.113282-26.492187 29.578125-43.328125 5.394531-20.347656 1.539063-41.15625-10.566406-57.085937zm0 0" fill="#fce8cb"/><path d="m410.40625 282.382812c-8.78125-11.550781-20.914062-19.761718-35.199219-23.835937-.199219-2.542969-.515625-5.042969-.945312-7.453125-3.84375-21.640625-16.671875-39.667969-35.1875-49.449219-16.46875-8.703125-36.195313-10-54.472657-3.667969-13.476562-20.183593-34.8125-32.160156-57.519531-32.160156-22.660156 0-43.96875 11.933594-57.449219 32.050782-18.191406-6.203126-37.789062-4.863282-54.132812 3.773437-18.519531 9.78125-31.347656 27.808594-35.195312 49.453125-.402344 2.269531-.707032 4.632812-.90625 7.054688-14.6875 3.894531-27.605469 12.4375-36.5625 24.230468-12.671876 16.671875-16.714844 38.425782-11.082032 59.675782 1.15625 4.347656 2.714844 8.667968 4.644532 12.835937.695312 1.503906 2.476562 2.160156 3.980468 1.464844 1.503906-.695313 2.160156-2.476563 1.464844-3.980469-1.785156-3.855469-3.226562-7.84375-4.292969-11.859375-5.152343-19.449219-1.488281-39.316406 10.058594-54.507813 8.550781-11.253906 21.089844-19.261718 35.304687-22.550781 1.296876-.300781 2.242188-1.421875 2.316407-2.757812.164062-2.953125.496093-5.832031.976562-8.558594 3.523438-19.808594 15.21875-36.285156 32.089844-45.195313 15.511719-8.195312 34.28125-9.160156 51.492187-2.644531 1.335938.503907 2.84375 0 3.601563-1.214843 12.285156-19.582032 32.351563-31.269532 53.6875-31.269532 21.382813 0 41.476563 11.734375 53.753906 31.386719.765625 1.21875 2.28125 1.722656 3.621094 1.210937 17.296875-6.648437 36.183594-5.726562 51.816406 2.535157 16.867188 8.910156 28.5625 25.382812 32.082031 45.195312.507813 2.851563.84375 5.84375 1 8.890625.070313 1.3125.984376 2.429688 2.261719 2.753906 13.871094 3.511719 25.632813 11.199219 34.007813 22.222657 11.546875 15.191406 15.210937 35.054687 10.054687 54.507812-4.289062 16.191407-14.40625 31-28.488281 41.707031-13.679688 10.394532-30.300781 16.121094-46.796875 16.121094-3.328125 0-6.746094-.253906-10.160156-.75-1.316407-.191406-2.617188.515625-3.167969 1.738282-7.074219 15.71875-19.933594 27.921874-37.183594 35.292968-20.070312 8.574219-44.105468 9.675782-62.800781 9.675782s-42.730469-1.101563-62.804687-9.675782c-17.285157-7.382812-30.160157-19.628906-37.230469-35.402344-.550781-1.238281-1.875-1.945312-3.203125-1.738281-3.613282.570313-7.3125.859375-11 .859375-16.5 0-33.121094-5.726562-46.796875-16.121094-2.632813-2.003906-5.171875-4.183593-7.542969-6.488281-1.183594-1.152343-3.085938-1.128906-4.242188.0625-1.152343 1.1875-1.125 3.085938.0625 4.242188 2.542969 2.46875 5.269532 4.8125 8.09375 6.957031 17.394532 13.222656 39.328126 19.371094 60.117188 16.734375 7.867188 16.183594 21.441406 28.742187 39.390625 36.410156 21.074219 9.003907 45.890625 10.15625 65.160156 10.15625 19.265625 0 44.085938-1.152343 65.15625-10.15625 17.914063-7.652343 31.472657-20.179687 39.347657-36.316406 2.960937.34375 5.914062.519531 8.808593.519531 17.796875 0 35.707031-6.160156 50.421875-17.34375 15.144532-11.507812 26.035156-27.46875 30.664063-44.945312 5.632812-21.253906 1.597656-43.003906-11.074219-59.675782zm0 0" fill="#3a312a"/><path d="m227.082031 301.824219c-37.027343 0-67.042969 36.445312-67.042969 67.183593 0 26.65625 22.585938 34.222657 52.734376 35.761719h28.605468c30.152344-1.535156 52.742188-9.101562 52.742188-35.761719.003906-30.738281-30.015625-67.183593-67.039063-67.183593zm0 0" fill="#87796f"/><path d="m227.082031 298.824219c-38.800781 0-70.042969 38.394531-70.042969 70.179687 0 31.839844 29.707032 37.4375 55.582032 38.761719 1.675781.085937 3.066406-1.1875 3.148437-2.84375.085938-1.65625-1.1875-3.0625-2.84375-3.148437-34.96875-1.785157-49.886719-11.585938-49.886719-32.765626 0-29.074218 28.566407-64.183593 64.042969-64.183593 35.472657 0 64.039063 35.113281 64.039063 64.183593 0 21.183594-14.921875 30.984376-49.894532 32.765626-1.65625.085937-2.929687 1.496093-2.84375 3.152343.082032 1.601563 1.40625 2.84375 2.992188 2.84375.050781 0 .105469 0 .15625-.003906 25.882812-1.320313 55.589844-6.917969 55.589844-38.757813.003906-31.789062-31.242188-70.183593-70.039063-70.183593zm0 0" fill="#3a312a"/><path d="m227.082031 211.011719c-14.5 0-26.257812 15.085937-26.257812 33.695312s11.757812 33.695313 26.257812 33.695313 26.253907-15.085938 26.253907-33.695313c.003906-18.609375-11.753907-33.695312-26.253907-33.695312zm0 0" fill="#87796f"/><path d="m227.082031 208.011719c-16.132812 0-29.253906 16.460937-29.253906 36.695312s13.121094 36.695313 29.253906 36.695313c16.128907 0 29.257813-16.460938 29.257813-36.695313s-13.128906-36.695312-29.257813-36.695312zm0 67.390625c-12.824219 0-23.253906-13.769532-23.253906-30.695313s10.429687-30.695312 23.253906-30.695312 23.257813 13.769531 23.257813 30.695312-10.433594 30.695313-23.257813 30.695313zm0 0" fill="#3a312a"/><path d="m175.566406 259.132812c-8.695312-16.457031-26.132812-24.304687-38.957031-17.53125-12.820313 6.777344-16.167969 25.605469-7.476563 42.058594 8.695313 16.457032 26.136719 24.304688 38.957032 17.527344 12.824218-6.773438 16.171875-25.601562 7.476562-42.054688zm0 0" fill="#87796f"/><path d="m178.21875 257.730469c-4.515625-8.546875-11.386719-15.226563-19.351562-18.808594-8.21875-3.699219-16.621094-3.6875-23.660157.03125-7.035156 3.714844-11.777343 10.648437-13.355469 19.523437-1.527343 8.597657.117188 18.039063 4.628907 26.585938 7.105469 13.441406 19.761719 21.539062 31.664062 21.539062 3.941407 0 7.800781-.886718 11.347657-2.761718 7.035156-3.714844 11.78125-10.652344 13.359374-19.523438 1.527344-8.597656-.117187-18.042968-4.632812-26.585937zm-1.273438 25.535156c-1.246093 7.015625-4.886718 12.4375-10.253906 15.273437-11.34375 5.992188-26.992187-1.3125-34.902344-16.277343-3.894531-7.371094-5.324218-15.445313-4.027343-22.730469 1.246093-7.015625 4.886719-12.4375 10.253906-15.273438 2.636719-1.394531 5.558594-2.09375 8.621094-2.09375 3.160156 0 6.46875.746094 9.773437 2.230469 6.75 3.035157 12.613282 8.769531 16.507813 16.140625 3.890625 7.367188 5.320312 15.441406 4.027343 22.730469zm0 0" fill="#3a312a"/><path d="m121.53125 309.207031c-14.816406-11.257812-33.9375-11.027343-42.714844.519531-8.773437 11.542969-3.871094 30.03125 10.945313 41.289063 14.816406 11.261719 33.9375 11.03125 42.710937-.515625 8.777344-11.546875 3.875-30.035156-10.941406-41.292969zm0 0" fill="#87796f"/><path d="m123.347656 306.816406c-16.109375-12.242187-37.15625-11.75-46.917968 1.089844-4.816407 6.335938-6.199219 14.628906-3.886719 23.339844 2.238281 8.441406 7.710937 16.308594 15.402343 22.15625 7.800782 5.929687 16.757813 8.871094 25.035157 8.871094 8.8125 0 16.851562-3.335938 21.882812-9.960938 9.757813-12.84375 4.589844-33.253906-11.515625-45.496094zm6.738282 41.867188c-7.761719 10.207031-25.035157 10.183594-38.511719-.054688-6.636719-5.042968-11.335938-11.761718-13.230469-18.917968-1.824219-6.886719-.808594-13.339844 2.863281-18.171876 3.875-5.09375 10.117188-7.640624 17.070313-7.640624 6.984375 0 14.6875 2.566406 21.441406 7.695312 13.472656 10.242188 18.125 26.878906 10.367188 37.089844zm0 0" fill="#3a312a"/><path d="m317.960938 241.601562c-12.820313-6.773437-30.261719 1.074219-38.957032 17.53125-8.695312 16.453126-5.34375 35.28125 7.476563 42.054688 12.820312 6.777344 30.261719-1.070312 38.957031-17.527344 8.691406-16.453125 5.34375-35.28125-7.476562-42.058594zm0 0" fill="#87796f"/><path d="m332.71875 258.476562c-1.578125-8.875-6.320312-15.808593-13.355469-19.523437-7.039062-3.71875-15.441406-3.730469-23.660156-.03125-7.960937 3.582031-14.835937 10.261719-19.351563 18.808594-4.515624 8.542969-6.160156 17.988281-4.628906 26.582031 1.574219 8.875 6.320313 15.808594 13.359375 19.527344 3.542969 1.875 7.398438 2.757812 11.34375 2.757812 11.902344 0 24.5625-8.097656 31.664063-21.539062 4.515625-8.542969 6.160156-17.984375 4.628906-26.582032zm-9.9375 23.78125c-7.90625 14.964844-23.566406 22.261719-34.898438 16.277344-5.367187-2.832031-9.007812-8.257812-10.253906-15.273437-1.296875-7.289063.132813-15.359375 4.03125-22.730469 3.890625-7.371094 9.757813-13.101562 16.507813-16.140625 3.296875-1.484375 6.609375-2.226563 9.769531-2.226563 3.0625 0 5.984375.699219 8.621094 2.089844 5.367187 2.835938 9.007812 8.257813 10.253906 15.273438 1.296875 7.289062-.132812 15.363281-4.03125 22.730468zm0 0" fill="#3a312a"/><path d="m374.421875 309.726562c-8.777344-11.546874-27.898437-11.777343-42.714844-.519531-14.816406 11.261719-19.714843 29.746094-10.941406 41.292969s27.894531 11.777344 42.710937.515625c14.816407-11.257813 19.71875-29.746094 10.945313-41.289063zm0 0" fill="#87796f"/><path d="m376.808594 307.910156c-9.761719-12.84375-30.808594-13.332031-46.917969-1.089844-16.109375 12.242188-21.277344 32.652344-11.515625 45.496094 5.035156 6.621094 13.070312 9.960938 21.882812 9.960938 8.273438 0 17.234376-2.945313 25.035157-8.871094 16.109375-12.242188 21.273437-32.652344 11.515625-45.496094zm-15.144532 40.71875c-13.472656 10.238282-30.75 10.265625-38.511718.054688-7.757813-10.210938-3.109375-26.847656 10.371094-37.089844 6.75-5.128906 14.457031-7.695312 21.441406-7.695312 6.957031 0 13.199218 2.546874 17.066406 7.640624 7.757812 10.210938 3.105469 26.851563-10.367188 37.089844zm0 0" fill="#3a312a"/><path d="m405.617188 286.019531c-8.378907-11.039062-20.117188-18.71875-34-22.21875-1.277344-.339843-2.199219-1.441406-2.257813-2.761719-.160156-3.039062-.5-6.039062-1-8.898437-3.519531-19.800781-15.222656-36.28125-32.082031-45.203125-13.160156-6.917969-28.597656-8.679688-43.460938-5.097656 4.660156 1.140625 9.183594 2.839844 13.460938 5.097656 16.859375 8.921875 28.5625 25.402344 32.082031 45.203125.5 2.859375.839844 5.859375 1 8.898437.058594 1.320313.980469 2.421876 2.257813 2.761719 13.882812 3.5 25.621093 11.179688 34 22.21875 11.5625 15.179688 15.222656 35.039063 10.0625 54.5-4.28125 16.199219-14.402344 31-28.480469 41.699219-13.679688 10.402344-30.300781 16.121094-46.800781 16.121094-3.320313 0-6.738282-.242188-10.160157-.742188-1.320312-.199218-2.621093.523438-3.179687 1.742188-7.058594 15.71875-19.921875 27.917968-37.179688 35.28125-15 6.417968-32.242187 8.660156-47.800781 9.378906 5.238281.21875 10.28125.300781 15 .300781 18.699219 0 42.738281-1.101562 62.800781-9.679687 17.257813-7.363282 30.121094-19.5625 37.179688-35.28125.558594-1.21875 1.859375-1.941406 3.179687-1.742188 3.421875.5 6.839844.742188 10.160157.742188 16.5 0 33.121093-5.71875 46.800781-16.121094 14.078125-10.699219 24.199219-25.5 28.480469-41.699219 5.160156-19.460937 1.5-39.320312-10.0625-54.5zm0 0" fill="#decaad"/><path d="m415.058594 6.078125h-30c18.199218 0 33.019531 14.820313 33.019531 33.019531 0 18.199219-14.820313 33-33.019531 33h30c18.199218 0 33.019531-14.800781 33.019531-33 0-18.199218-14.820313-33.019531-33.019531-33.019531zm0 0" fill="#d34e5c"/></svg>