<svg height="454pt" viewBox="0 -2 454.16066 454" width="454pt" xmlns="http://www.w3.org/2000/svg"><path d="m227.21875 115.445312c-6.207031 0-11.242188 25.558594-11.242188 57.085938s5.035157 57.089844 11.242188 57.089844c6.210938 0 11.246094-25.558594 11.246094-57.089844 0-31.527344-5.035156-57.085938-11.246094-57.085938zm0 0" fill="#f16c7a"/><path d="m227.21875 112.445312c-14.082031 0-14.246094 57.632813-14.246094 60.085938s.164063 60.089844 14.246094 60.089844 14.246094-57.636719 14.246094-60.089844-.164063-60.085938-14.246094-60.085938zm0 114.074219c-3.074219-2.273437-8.246094-21.472656-8.246094-53.988281s5.171875-51.714844 8.246094-53.988281c3.074219 2.277343 8.246094 21.476562 8.246094 53.988281s-5.171875 51.710938-8.246094 53.988281zm0 0" fill="#3a312a"/><path d="m120.542969 204.160156c-18.027344-25.863281-36.769531-43.957031-41.863281-40.40625-5.097657 3.550782 5.386718 27.398438 23.414062 53.261719 18.023438 25.871094 36.765625 43.960937 41.863281 40.410156 5.09375-3.550781-5.390625-27.398437-23.414062-53.265625zm0 0" fill="#f16c7a"/><path d="m143.667969 237.953125c-4.5-10.230469-11.835938-22.84375-20.664063-35.507813-1.402344-2.011718-34.5-49.203124-46.042968-41.152343-11.550782 8.050781 21.265624 55.425781 22.667968 57.4375 1.292969 1.855469 29.488282 42.078125 42.949219 42.078125 1.144531 0 2.1875-.292969 3.09375-.921875 3.988281-2.777344 3.351563-9.746094-2.003906-21.933594zm-1.484375 16.929687c-3.820313-.105468-19.042969-12.902343-37.632813-39.582031-18.585937-26.671875-25.324219-45.378906-24.101562-49.003906 3.824219.105469 19.042969 12.902344 37.632812 39.578125 18.589844 26.675781 25.324219 45.382812 24.101563 49.007812zm0 0" fill="#3a312a"/><path d="m53.867188 272.203125c-23.683594-20.8125-46.203126-33.902344-50.304688-29.234375-4.097656 4.664062 11.777344 25.316406 35.460938 46.128906 23.683593 20.8125 46.207031 33.902344 50.304687 29.234375 4.101563-4.664062-11.777344-25.316406-35.460937-46.128906zm0 0" fill="#f16c7a"/><path d="m84.394531 299.496094c-6.8125-8.863282-16.953125-19.355469-28.546875-29.546875-1.84375-1.621094-45.242187-39.546875-54.539062-28.960938-9.292969 10.578125 33.890625 48.742188 35.734375 50.363281 1.621093 1.421876 35.265625 30.824219 49.746093 30.820313 2.011719 0 3.65625-.566406 4.792969-1.859375 3.207031-3.652344.925781-10.265625-7.1875-20.816406zm-43.390625-12.652344c-24.421875-21.460938-35.433594-38.015625-35.113281-41.832031 3.726563-.8125 21.574219 7.984375 45.996094 29.445312 24.425781 21.460938 35.4375 38.019531 35.113281 41.832031-3.742188.828126-21.574219-7.984374-45.996094-29.445312zm0 0" fill="#3a312a"/><path d="m375.457031 163.761719c-5.09375-3.550781-23.835937 14.539062-41.859375 40.40625-18.023437 25.863281-28.507812 49.710937-23.410156 53.261719 5.09375 3.550781 23.835938-14.539063 41.859375-40.40625 18.023437-25.867188 28.507813-49.710938 23.410156-53.261719zm0 0" fill="#f16c7a"/><path d="m377.199219 161.292969c-11.542969-8.046875-44.640625 39.136719-46.039063 41.152343-8.828125 12.667969-16.164062 25.277344-20.664062 35.507813-5.355469 12.183594-5.992188 19.15625-2.003906 21.933594.90625.628906 1.945312.921875 3.09375.921875 13.457031 0 41.652343-40.222656 42.945312-42.078125 1.402344-2.011719 34.21875-49.386719 22.667969-57.4375zm-27.589844 54.011719c-18.59375 26.675781-33.808594 39.472656-37.632813 39.578124-1.222656-3.621093 5.515626-22.328124 24.101563-49.003906 18.59375-26.675781 33.808594-39.472656 37.632813-39.582031 1.222656 3.625-5.515626 22.332031-24.101563 49.007813zm0 0" fill="#3a312a"/><path d="m450.597656 242.96875c-4.101562-4.667969-26.625 8.421875-50.304687 29.234375-23.683594 20.8125-39.5625 41.464844-35.460938 46.128906 4.101563 4.664063 26.621094-8.425781 50.304688-29.238281 23.683593-20.808594 39.558593-41.460938 35.460937-46.125zm0 0" fill="#f16c7a"/><path d="m452.851562 240.984375c-9.308593-10.574219-52.695312 27.34375-54.539062 28.964844-11.597656 10.191406-21.734375 20.683593-28.546875 29.546875-8.109375 10.550781-10.394531 17.164062-7.1875 20.816406 1.132813 1.292969 2.777344 1.859375 4.792969 1.859375 14.480468-.003906 48.128906-29.398437 49.746094-30.820313 1.839843-1.621093 45.027343-39.785156 35.734374-50.367187zm-39.695312 45.859375c-24.425781 21.460938-42.265625 30.25-45.996094 29.445312-.320312-3.8125 10.6875-20.371093 35.113282-41.832031 24.421874-21.460937 42.277343-30.277343 45.996093-29.445312.320313 3.8125-10.691406 20.371093-35.113281 41.832031zm0 0" fill="#3a312a"/><path d="m408.019531 284.46875c-8.835937-11.632812-21.363281-19.695312-35.664062-23.316406-.160157-3.113282-.5-6.207032-1.042969-9.261719-3.683594-20.730469-15.945312-37.976563-33.636719-47.324219-16.546875-8.742187-36.121093-9.664062-54.292969-2.683594-12.363281-19.796874-32.984374-32.796874-56.300781-32.796874-23.269531 0-43.851562 12.949218-56.222656 32.675781-18.078125-6.84375-37.515625-5.886719-53.953125 2.800781-17.699219 9.347656-29.957031 26.597656-33.640625 47.324219-.523437 2.9375-.851563 5.917969-1.019531 8.914062-14.871094 3.441407-27.902344 11.664063-37.019532 23.660157-12.109374 15.933593-15.960937 36.742187-10.570312 57.089843 1.117188 4.222657 2.617188 8.355469 4.464844 12.347657l17.292968 24.253906c2.449219 2.382812 5.058594 4.628906 7.816407 6.722656 14.792969 11.242188 32.023437 16.734375 48.613281 16.734375 3.867188 0 7.703125-.300781 11.464844-.894531 7.300781 16.292968 20.578125 29.152344 38.792968 36.933594 20.574219 8.789062 45 9.914062 63.980469 9.914062s43.410157-1.128906 63.980469-9.914062c18.171875-7.761719 31.429688-20.578126 38.742188-36.820313 3.480468.507813 7.019531.78125 10.589843.78125 16.589844 0 33.820313-5.492187 48.613281-16.730469 14.609376-11.101562 25.113282-26.492187 29.574219-43.328125 5.394531-20.34375 1.542969-41.152343-10.5625-57.082031zm0 0" fill="#fce8cb"/><path d="m410.40625 282.652344c-8.777344-11.554688-20.910156-19.761719-35.199219-23.839844-.195312-2.539062-.511719-5.039062-.941406-7.449219-3.847656-21.644531-16.671875-39.667969-35.191406-49.449219-16.464844-8.699218-36.1875-10-54.46875-3.667968-13.480469-20.183594-34.8125-32.160156-57.523438-32.160156-22.65625 0-43.964843 11.933593-57.449219 32.050781-18.1875-6.203125-37.789062-4.863281-54.128906 3.773437-18.523437 9.78125-31.347656 27.808594-35.195312 49.453125-.402344 2.269531-.707032 4.632813-.910156 7.050781-14.683594 3.898438-27.605469 12.441407-36.558594 24.230469-12.675782 16.675781-16.714844 38.425781-11.082032 59.675781 1.152344 4.347657 2.710938 8.667969 4.640626 12.839844.699218 1.503906 2.476562 2.15625 3.984374 1.464844 1.503907-.699219 2.15625-2.480469 1.460938-3.984375-1.785156-3.851563-3.226562-7.84375-4.289062-11.855469-5.15625-19.449218-1.488282-39.316406 10.058593-54.507812 8.546875-11.25 21.085938-19.261719 35.300781-22.554688 1.300782-.300781 2.246094-1.421875 2.320313-2.753906.164063-2.957031.492187-5.832031.976563-8.558594 3.519531-19.8125 15.214843-36.285156 32.089843-45.195312 15.507813-8.199219 34.28125-9.164063 51.488281-2.648438 1.335938.507813 2.847657 0 3.605469-1.210937 12.28125-19.582031 32.351563-31.273438 53.683594-31.273438 21.382813 0 41.480469 11.734375 53.757813 31.386719.761718 1.222656 2.28125 1.726562 3.621093 1.210938 17.300781-6.644532 36.183594-5.71875 51.8125 2.535156 16.867188 8.914062 28.5625 25.382812 32.085938 45.195312.503906 2.851563.84375 5.84375 1 8.894532.066406 1.3125.984375 2.429687 2.257812 2.753906 13.875 3.511718 25.632813 11.195312 34.011719 22.222656 11.546875 15.1875 15.210938 35.054688 10.054688 54.503906-4.292969 16.191406-14.410157 31.003906-28.492188 41.707032-13.679688 10.394531-30.296875 16.121093-46.792969 16.121093-3.328125 0-6.746093-.25-10.164062-.746093-1.316407-.199219-2.617188.511718-3.167969 1.738281-7.070312 15.714843-19.933594 27.921875-37.183594 35.289062-20.070312 8.574219-44.105468 9.675781-62.796875 9.675781-18.699219 0-42.730469-1.101562-62.804687-9.675781-17.289063-7.382812-30.164063-19.625-37.230469-35.402343-.554687-1.238282-1.863281-1.949219-3.207031-1.738282-3.605469.570313-7.304688.859375-11 .859375-16.496094 0-33.117188-5.726562-46.796875-16.121093-2.628907-2-5.167969-4.183594-7.539063-6.488282-1.1875-1.152344-3.082031-1.128906-4.242187.058594-1.15625 1.1875-1.128907 3.089844.0625 4.242188 2.542969 2.476562 5.265625 4.816406 8.09375 6.960937 17.394531 13.222656 39.375 19.371094 60.113281 16.734375 7.867188 16.183594 21.441406 28.742188 39.390625 36.410156 21.074219 9.003906 45.890625 10.15625 65.160156 10.15625s44.085938-1.152344 65.15625-10.15625c17.917969-7.652344 31.476563-20.179687 39.351563-36.316406 2.957031.347656 5.914062.519531 8.804687.519531 17.800781 0 35.710938-6.160156 50.425781-17.34375 15.140626-11.507812 26.03125-27.46875 30.660157-44.945312 5.636719-21.25 1.597656-43-11.074219-59.671875zm0 0" fill="#3a312a"/><path d="m227.082031 302.09375c-37.027343 0-67.042969 36.445312-67.042969 67.183594 0 26.65625 22.585938 34.222656 52.738282 35.761718h28.601562c30.15625-1.539062 52.746094-9.105468 52.746094-35.761718 0-30.734375-30.015625-67.183594-67.042969-67.183594zm0 0" fill="#87796f"/><path d="m227.082031 299.09375c-38.796875 0-70.042969 38.394531-70.042969 70.183594 0 31.839844 29.707032 37.4375 55.585938 38.761718.050781 0 .101562.003907.152344.003907 1.589844 0 2.914062-1.246094 2.996094-2.847657.082031-1.65625-1.1875-3.066406-2.84375-3.148437-34.96875-1.785156-49.890626-11.585937-49.890626-32.769531 0-29.070313 28.566407-64.183594 64.042969-64.183594 35.476563 0 64.042969 35.113281 64.042969 64.183594 0 21.183594-14.921875 30.984375-49.898438 32.769531-1.652343.082031-2.925781 1.492187-2.84375 3.148437.085938 1.652344 1.507813 2.9375 3.148438 2.84375 25.882812-1.320312 55.59375-6.917968 55.59375-38.761718 0-31.789063-31.246094-70.183594-70.042969-70.183594zm0 0" fill="#3a312a"/><path d="m227.082031 211.28125c-14.5 0-26.253906 15.085938-26.253906 33.695312 0 18.609376 11.753906 33.695313 26.253906 33.695313s26.257813-15.085937 26.257813-33.695313c0-18.609374-11.753906-33.695312-26.257813-33.695312zm0 0" fill="#87796f"/><path d="m227.082031 208.28125c-16.132812 0-29.253906 16.460938-29.253906 36.695312 0 20.234376 13.125 36.695313 29.253906 36.695313 16.132813 0 29.257813-16.460937 29.257813-36.695313 0-20.234374-13.125-36.695312-29.257813-36.695312zm0 67.390625c-12.820312 0-23.253906-13.769531-23.253906-30.695313 0-16.925781 10.433594-30.695312 23.253906-30.695312 12.824219 0 23.257813 13.769531 23.257813 30.695312 0 16.925782-10.433594 30.695313-23.257813 30.695313zm0 0" fill="#3a312a"/><path d="m175.566406 259.402344c-8.691406-16.453125-26.132812-24.304688-38.953125-17.527344-12.824219 6.773438-16.167969 25.601562-7.476562 42.054688 8.691406 16.457031 26.132812 24.304687 38.953125 17.53125 12.828125-6.777344 16.171875-25.605469 7.476562-42.058594zm0 0" fill="#87796f"/><path d="m178.21875 258c-9.449219-17.886719-28.742188-26.316406-43.007812-18.777344-14.261719 7.535156-18.175782 28.222656-8.722657 46.109375 7.101563 13.445313 19.757813 21.542969 31.660157 21.542969 3.941406 0 7.800781-.886719 11.347656-2.761719 7.035156-3.714843 11.78125-10.652343 13.359375-19.527343 1.523437-8.601563-.117188-18.039063-4.636719-26.585938zm-1.273438 25.535156c-1.246093 7.011719-4.886718 12.433594-10.253906 15.269532-11.332031 5.992187-26.992187-1.3125-34.898437-16.273438-7.90625-14.964844-5.113281-32.015625 6.222656-38.003906 2.691406-1.421875 5.621094-2.097656 8.636719-2.097656 9.695312 0 20.230468 6.957031 26.265625 18.371093 3.890625 7.371094 5.324219 15.445313 4.027343 22.734375zm0 0" fill="#3a312a"/><path d="m121.535156 309.476562c-14.820312-11.257812-33.941406-11.027343-42.714844.519532-8.773437 11.546875-3.875 30.03125 10.941407 41.292968 14.816406 11.257813 33.941406 11.027344 42.714843-.519531 8.773438-11.546875 3.875-30.035156-10.941406-41.292969zm0 0" fill="#87796f"/><path d="m123.347656 307.085938c-7.695312-5.84375-16.714844-9.003907-25.472656-8.902344-9.011719.109375-16.625 3.660156-21.441406 9.996094-4.816406 6.335937-6.199219 14.625-3.886719 23.335937 2.234375 8.441406 7.707031 16.308594 15.402344 22.160156 7.800781 5.929688 16.757812 8.871094 25.03125 8.871094 8.8125 0 16.851562-3.339844 21.886719-9.964844 9.753906-12.84375 4.589843-33.253906-11.519532-45.496093zm6.742188 41.867187c-7.761719 10.207031-25.039063 10.1875-38.511719-.054687-6.636719-5.042969-11.335937-11.761719-13.234375-18.917969-1.824219-6.886719-.804688-13.339844 2.867188-18.167969 3.671874-4.832031 9.617187-7.539062 16.738281-7.628906h.351562c7.296875 0 14.886719 2.71875 21.417969 7.683594 13.476562 10.238281 18.125 26.875 10.371094 37.085937zm0 0" fill="#3a312a"/><path d="m317.960938 241.875c-12.820313-6.777344-30.261719 1.074219-38.953126 17.527344-8.695312 16.453125-5.347656 35.28125 7.472657 42.058594 12.824219 6.773437 30.265625-1.074219 38.957031-17.53125 8.691406-16.453126 5.347656-35.28125-7.476562-42.054688zm0 0" fill="#87796f"/><path d="m332.722656 258.746094c-1.578125-8.871094-6.324218-15.804688-13.359375-19.523438-14.265625-7.53125-33.554687.886719-43.007812 18.777344-4.515625 8.546875-6.160157 17.988281-4.632813 26.582031 1.578125 8.878907 6.320313 15.808594 13.359375 19.527344 3.546875 1.875 7.402344 2.761719 11.34375 2.761719 11.90625 0 24.5625-8.097656 31.664063-21.542969 4.515625-8.542969 6.160156-17.984375 4.632812-26.582031zm-9.9375 23.785156c-7.90625 14.960938-23.5625 22.265625-34.902344 16.273438-5.363281-2.832032-9.007812-8.257813-10.253906-15.269532-1.292968-7.292968.136719-15.363281 4.03125-22.734375 6.03125-11.414062 16.570313-18.371093 26.265625-18.371093 3.011719 0 5.945313.675781 8.632813 2.097656 5.371094 2.832031 9.007812 8.257812 10.253906 15.269531 1.296875 7.289063-.132812 15.363281-4.027344 22.734375zm0 0" fill="#3a312a"/><path d="m374.421875 309.996094c-8.773437-11.542969-27.894531-11.777344-42.714844-.519532-14.816406 11.257813-19.714843 29.746094-10.941406 41.292969s27.898437 11.777344 42.714844.519531c14.816406-11.261718 19.714843-29.746093 10.941406-41.292968zm0 0" fill="#87796f"/><path d="m376.808594 308.179688c-4.8125-6.335938-12.429688-9.886719-21.441406-9.996094-8.789063-.140625-17.78125 3.054687-25.472657 8.902344-16.113281 12.246093-21.277343 32.652343-11.519531 45.496093 5.039062 6.628907 13.070312 9.964844 21.886719 9.964844 8.273437 0 17.234375-2.945313 25.03125-8.871094 16.113281-12.242187 21.277343-32.648437 11.515625-45.496093zm-15.140625 40.71875c-13.480469 10.242187-30.753907 10.261718-38.511719.054687-7.761719-10.207031-3.109375-26.84375 10.367188-37.085937 6.636718-5.042969 14.308593-7.792969 21.773437-7.683594 7.121094.085937 13.066406 2.792968 16.738281 7.625 7.753906 10.214844 3.105469 26.847656-10.367187 37.089844zm0 0" fill="#3a312a"/><path d="m405.621094 286.289062c-8.378906-11.039062-20.121094-18.71875-34-22.21875-1.28125-.339843-2.199219-1.441406-2.261719-2.761718-.160156-3.039063-.5-6.039063-1-8.898438-3.519531-19.800781-15.21875-36.28125-32.078125-45.199218-13.160156-6.921876-28.601562-8.679688-43.460938-5.101563 4.660157 1.140625 9.179688 2.839844 13.460938 5.101563 16.859375 8.917968 28.558594 25.398437 32.078125 45.199218.5 2.859375.839844 5.859375 1 8.898438.0625 1.320312.980469 2.421875 2.261719 2.761718 13.878906 3.5 25.621094 11.179688 34 22.21875 11.558594 15.179688 15.21875 35.039063 10.058594 54.5-4.28125 16.199219-14.398438 31-28.480469 41.699219-13.679688 10.402344-30.300781 16.121094-46.800781 16.121094-3.316407 0-6.738282-.238281-10.15625-.738281-1.320313-.203125-2.621094.519531-3.183594 1.738281-7.058594 15.71875-19.917969 27.921875-37.179688 35.28125-15 6.417969-32.238281 8.660156-47.796875 9.378906 5.238281.21875 10.277344.300781 15 .300781 18.699219 0 42.738281-1.101562 62.796875-9.679687 17.261719-7.359375 30.121094-19.5625 37.179688-35.28125.5625-1.21875 1.863281-1.941406 3.183594-1.738281 3.417968.5 6.839843.738281 10.15625.738281 16.5 0 33.121093-5.71875 46.800781-16.121094 14.082031-10.699219 24.199219-25.5 28.480469-41.699219 5.160156-19.460937 1.5-39.320312-10.058594-54.5zm0 0" fill="#decaad"/><path d="m199.039062 39.6875c1.460938 4.160156 2.242188 8.640625 2.242188 13.28125s-.78125 9.117188-2.222656 13.277344h75.640625v-26.558594zm0 0" fill="#87796f" fill-rule="evenodd"/><path d="m274.703125 36.691406h-75.660156c-.972657 0-1.882813.46875-2.449219 1.261719-.5625.792969-.707031 1.808594-.382812 2.726563 1.375 3.917968 2.070312 8.050781 2.070312 12.289062 0 4.222656-.691406 8.359375-2.054688 12.296875-.316406.917969-.171874 1.933594.390626 2.722656.5625.789063 1.472656 1.257813 2.445312 1.257813h75.640625c1.65625 0 3-1.339844 3-3v-26.558594c0-1.65625-1.34375-2.996094-3-2.996094zm-3 26.554688h-68.640625c.808594-3.34375 1.21875-6.789063 1.21875-10.277344 0-3.5-.410156-6.941406-1.226562-10.28125h68.648437zm0 0" fill="#3a312a"/><path d="m436.492188 21.8125-78.914063-10.09375-25.378906-3.246094-41.25-5.273437c-8.617188-1.105469-16.246094 5.613281-16.246094 14.300781v70.949219c0 8.691406 7.628906 15.40625 16.246094 14.304687l145.539062-18.613281c7.199219-.921875 12.589844-7.046875 12.589844-14.304687v-33.71875c.003906-7.257813-5.390625-13.386719-12.585937-14.304688zm0 0" fill="#87796f" fill-rule="evenodd"/><path d="m436.871094 18.835938-78.914063-10.09375c-1.625-.214844-3.144531.953124-3.355469 2.59375-.210937 1.644531.953126 3.148437 2.59375 3.359374l78.914063 10.089844c5.683594.726563 9.96875 5.597656 9.96875 11.328125v33.71875c0 5.730469-4.289063 10.597657-9.96875 11.328125l-145.542969 18.613282c-3.257812.414062-6.535156-.589844-8.992187-2.757813-2.460938-2.167969-3.875-5.289063-3.875-8.570313v-70.945312c0-3.28125 1.410156-6.40625 3.875-8.574219 2.464843-2.164062 5.734375-3.167969 8.992187-2.753906l41.25 5.277344c1.628906.203125 3.144532-.953125 3.359375-2.59375.210938-1.644531-.953125-3.148438-2.59375-3.359375l-41.25-5.273438c-4.960937-.636718-9.964843.894532-13.722656 4.203125-3.753906 3.304688-5.910156 8.070313-5.910156 13.074219v70.953125c0 5 2.15625 9.765625 5.910156 13.074219 3.199219 2.816406 7.300781 4.34375 11.511719 4.34375.734375 0 1.472656-.046875 2.210937-.140625l145.539063-18.613281c8.667968-1.109376 15.210937-8.539063 15.210937-17.28125v-33.71875c0-8.742188-6.542969-16.171876-15.210937-17.28125zm0 0" fill="#3a312a"/><path d="m160.457031 12.160156c-22.539062 0-109.375 25.605469-109.375 40.8125 0 13.882813 86.835938 40.8125 109.375 40.8125 22.542969 0 40.8125-18.273437 40.8125-40.8125 0-22.539062-18.269531-40.8125-40.8125-40.8125zm0 0" fill="#f16c7a" fill-rule="evenodd"/><path d="m160.457031 9.160156c-11.515625 0-39.074219 6.390625-64.101562 14.863282-32.03125 10.84375-48.273438 20.585937-48.273438 28.949218 0 7.820313 16.234375 17.394532 48.257813 28.449219 25.785156 8.902344 52.753906 15.367187 64.117187 15.367187 24.160157 0 43.8125-19.65625 43.8125-43.8125 0-24.160156-19.652343-43.816406-43.8125-43.816406zm0 81.625c-10.609375 0-37.332031-6.464844-62.164062-15.039062-36.269531-12.519532-44.210938-20.683594-44.210938-22.773438 0-2.875 9.234375-11.433594 44.195313-23.265625 24.097656-8.15625 51.410156-14.546875 62.179687-14.546875 20.851563 0 37.8125 16.964844 37.8125 37.8125s-16.964843 37.8125-37.8125 37.8125zm0 0" fill="#3a312a"/><path d="m65.28125 101.164062c-2.027344 23.125-26.140625 26.691407-26.140625 26.691407 20.691406 1.046875 25.753906 28.207031 25.753906 28.207031.507813-19.351562 26.738281-28.316406 26.738281-28.316406-19.621093-1.238282-26.351562-26.582032-26.351562-26.582032zm0 0" fill="#d7e057"/><path d="m91.824219 124.753906c-17.207031-1.085937-23.582031-24.128906-23.644531-24.359375-.375-1.410156-1.6875-2.335937-3.160157-2.214843-1.449219.128906-2.597656 1.277343-2.726562 2.726562-1.789063 20.421875-22.707031 23.847656-23.589844 23.984375-1.527344.226563-2.628906 1.570313-2.558594 3.109375.074219 1.542969 1.304688 2.777344 2.847657 2.855469 18.050781.910156 22.90625 25.515625 22.953124 25.761719.269532 1.425781 1.519532 2.445312 2.949219 2.445312.078125 0 .160157-.003906.242188-.011719 1.53125-.125 2.71875-1.375 2.757812-2.910156.445313-17.015625 24.46875-25.46875 24.710938-25.554687 1.351562-.460938 2.191406-1.820313 2-3.238282-.191407-1.417968-1.355469-2.503906-2.78125-2.59375zm-27.203125 20.601563c-2.691406-6.273438-7.371094-13.84375-15.113282-17.804688 5.871094-2.792969 12.84375-7.785156 16.460938-16.492187 3.078125 6.152344 8.351562 13.789062 16.609375 17.5-6.03125 3.261718-13.875 8.765625-17.957031 16.796875zm0 0" fill="#3a312a"/><path d="m21.769531 134.976562c-1.433593 16.355469-18.492187 18.878907-18.492187 18.878907 14.636718.738281 18.21875 19.949219 18.21875 19.949219.359375-13.6875 18.910156-20.023438 18.910156-20.023438-13.878906-.878906-18.636719-18.804688-18.636719-18.804688zm0 0" fill="#d7e057"/><path d="m40.597656 150.785156c-11.488281-.726562-15.855468-16.3125-15.929687-16.578125-.378907-1.40625-1.683594-2.332031-3.15625-2.21875-1.453125.128907-2.605469 1.277344-2.730469 2.730469-1.203125 13.734375-15.351562 16.078125-15.941406 16.171875-1.527344.226563-2.632813 1.570313-2.558594 3.109375.074219 1.542969 1.304688 2.777344 2.847656 2.855469 12.066406.609375 15.386719 17.339843 15.417969 17.503906.265625 1.429687 1.515625 2.449219 2.949219 2.449219.078125 0 .15625-.003906.234375-.011719 1.535156-.121094 2.722656-1.375 2.765625-2.910156.296875-11.417969 16.71875-17.210938 16.882812-17.265625 1.351563-.460938 2.195313-1.816406 2-3.238282-.1875-1.417968-1.355468-2.503906-2.78125-2.597656zm-19.21875 13.527344c-1.835937-3.777344-4.652344-7.910156-8.855468-10.589844 3.714843-2.070312 7.410156-5.234375 9.773437-9.796875 2.101563 3.753907 5.28125 7.925781 9.847656 10.480469-3.707031 2.183594-7.996093 5.449219-10.765625 9.90625zm0 0" fill="#3a312a"/><path d="m21.949219 81.664062c-1.433594 16.351563-18.488281 18.878907-18.488281 18.878907 14.632812.738281 18.214843 19.949219 18.214843 19.949219.359375-13.6875 18.914063-20.023438 18.914063-20.023438-13.878906-.882812-18.640625-18.804688-18.640625-18.804688zm0 0" fill="#d7e057"/><path d="m40.78125 97.472656c-11.53125-.730468-15.890625-16.425781-15.933594-16.585937-.375-1.402344-1.691406-2.324219-3.15625-2.214844-1.449218.128906-2.601562 1.277344-2.730468 2.730469-1.203126 13.734375-15.347657 16.078125-15.941407 16.171875-1.523437.226562-2.628906 1.570312-2.554687 3.109375.074218 1.542968 1.304687 2.777344 2.84375 2.855468 12.070312.609376 15.386718 17.339844 15.417968 17.503907.269532 1.429687 1.519532 2.449219 2.949219 2.449219.078125 0 .160157-.003907.238281-.011719 1.53125-.121094 2.722657-1.375 2.761719-2.910157.300781-11.417968 16.722657-17.210937 16.886719-17.265624 1.355469-.464844 2.195312-1.820313 2-3.238282-.191406-1.417968-1.355469-2.503906-2.78125-2.59375zm-19.21875 13.523438c-1.835938-3.777344-4.652344-7.910156-8.859375-10.589844 3.71875-2.070312 7.414063-5.234375 9.773437-9.796875 2.105469 3.753906 5.285157 7.925781 9.851563 10.476563-3.707031 2.191406-7.996094 5.457031-10.765625 9.910156zm0 0" fill="#3a312a"/><path d="m436.101562 24.789062-29.902343-3.699218c7.359375.941406 12.882812 7.21875 12.882812 14.640625v34.5c0 7.417969-5.523437 13.679687-12.882812 14.617187l29.902343-3.679687c5.699219-.738281 9.980469-5.597657 9.980469-11.339844v-33.71875c0-5.722656-4.28125-10.601563-9.980469-11.320313zm0 0" fill="#695b51"/></svg>