<svg height="452pt" viewBox="0 0 452 452" width="452pt" xmlns="http://www.w3.org/2000/svg"><path d="m29.722656 101.910156v321.296875c0 13.691407 11.101563 24.796875 24.796875 24.796875h342.964844c13.695313 0 24.796875-11.105468 24.796875-24.796875v-321.296875zm0 0" fill="#d7e057"/><path d="m422.277344 98.910156h-392.554688c-1.65625 0-3 1.34375-3 3v141.511719c0 1.65625 1.34375 3 3 3s3-1.34375 3-3v-138.511719h386.554688v318.292969c0 12.019531-9.78125 21.796875-21.796875 21.796875h-342.960938c-12.019531 0-21.796875-9.777344-21.796875-21.796875v-153.125c0-1.65625-1.34375-3-3-3s-3 1.34375-3 3v153.125c0 15.328125 12.46875 27.796875 27.796875 27.796875h342.960938c15.328125 0 27.796875-12.46875 27.796875-27.796875v-321.292969c0-1.65625-1.34375-3-3-3zm0 0" fill="#3a312a"/><path d="m424.203125 3h-396.410156c-13.691407 0-24.792969 11.101562-24.792969 24.792969v49.320312c0 13.695313 11.101562 24.792969 24.792969 24.792969h396.410156c13.695313 0 24.796875-11.097656 24.796875-24.792969v-49.320312c0-13.691407-11.101562-24.792969-24.796875-24.792969zm0 0" fill="#87796f"/><path d="m424.203125 0h-263.628906c-1.652344 0-3 1.34375-3 3s1.347656 3 3 3h263.628906c12.019531 0 21.796875 9.777344 21.796875 21.792969v49.324219c0 12.015624-9.777344 21.792968-21.796875 21.792968h-396.410156c-12.015625 0-21.792969-9.777344-21.792969-21.792968v-49.324219c0-12.015625 9.777344-21.792969 21.792969-21.792969h107.628906c1.652344 0 3-1.34375 3-3s-1.347656-3-3-3h-107.628906c-15.324219 0-27.792969 12.46875-27.792969 27.792969v49.324219c0 15.324218 12.46875 27.792968 27.792969 27.792968h396.410156c15.328125 0 27.796875-12.46875 27.796875-27.792968v-49.324219c0-15.324219-12.46875-27.792969-27.796875-27.792969zm0 0" fill="#3a312a"/><path d="m274.109375 162.417969c-65.191406-26.589844-139.589844 4.707031-166.175781 69.898437-26.585938 65.1875 4.710937 139.589844 69.902344 166.175782 65.191406 26.585937 139.589843-4.710938 166.175781-69.898438 26.585937-65.191406-4.710938-139.589844-69.902344-166.175781zm0 0" fill="#fce8cb"/><path d="m226.445312 149.96875c-.152343 0-.300781 0-.453124 0-71.738282 0-130.230469 58.246094-130.476563 130.042969-.121094 34.851562 13.34375 67.664062 37.902344 92.394531 24.558593 24.730469 57.285156 38.414062 92.136719 38.535156h.460937c34.679687 0 67.316406-13.453125 91.9375-37.902344 24.730469-24.5625 38.414063-57.28125 38.53125-92.136718.246094-71.949219-58.089844-130.6875-130.039063-130.933594zm87.277344 218.8125c-23.488281 23.328125-54.621094 36.160156-87.707031 36.160156-.148437 0-.292969 0-.441406-.003906-33.25-.113281-64.46875-13.167969-87.898438-36.761719-23.433593-23.589843-36.273437-54.898437-36.160156-88.148437.234375-68.496094 56.03125-124.058594 124.476563-124.058594h.433593c68.640625.234375 124.292969 56.269531 124.058594 124.910156-.113281 33.253906-13.167969 64.46875-36.761719 87.902344zm0 0" fill="#3a312a"/><path d="m226.351562 276.363281c-24.3125-.085937-44.109374 23.78125-44.175781 43.964844-.066406 20.1875 19.628907 23.773437 43.945313 23.859375 24.316406.082031 44.039062-3.375 44.109375-23.554688.066406-20.183593-19.566407-44.1875-43.878907-44.269531zm0 0" fill="#87796f"/><path d="m226.363281 273.363281h-.136719c-25.984374 0-46.976562 25.652344-47.050781 46.957031-.078125 23.53125 23.683594 26.785157 46.9375 26.867188h.808594c14.566406 0 24.308594-1.371094 31.515625-4.417969 9.78125-4.136719 14.757812-11.582031 14.789062-22.128906.070313-21.339844-20.816406-47.1875-46.863281-47.277344zm29.734375 63.882813c-6.554687 2.773437-15.777344 4-29.96875 3.941406-29.523437-.101562-41.003906-5.949219-40.953125-20.847656.0625-18.59375 18.378907-40.976563 41.046875-40.976563h.121094c22.722656.074219 40.945312 22.632813 40.882812 41.257813-.027343 8.140625-3.566406 13.425781-11.128906 16.625zm0 0" fill="#3a312a"/><path d="m226.554688 216.726562c-9.519532-.03125-17.273438 9.847657-17.316407 22.070313-.042969 12.21875 7.644531 22.152344 17.164063 22.183594 9.523437.035156 17.277344-9.847657 17.320312-22.066407.042969-12.222656-7.644531-22.152343-17.167968-22.1875zm0 0" fill="#87796f"/><path d="m241.097656 221.414062c-3.820312-4.9375-8.980468-7.667968-14.535156-7.6875h-.054688c-5.53125 0-10.6875 2.695313-14.527343 7.585938-3.679688 4.691406-5.71875 10.894531-5.742188 17.46875-.023437 6.578125 1.972657 12.792969 5.625 17.511719 3.820313 4.9375 8.980469 7.667969 14.53125 7.683593h.058594c5.527344 0 10.683594-2.691406 14.527344-7.585937 3.679687-4.691406 5.71875-10.894531 5.742187-17.46875.019532-6.574219-1.976562-12.792969-5.625-17.507813zm-.378906 17.488282c-.015625 5.246094-1.601562 10.144531-4.460938 13.789062-2.679687 3.414063-6.160156 5.289063-9.804687 5.289063h-.039063c-3.660156-.011719-7.140624-1.914063-9.804687-5.355469-2.835937-3.664062-4.386719-8.574219-4.371094-13.820312.019531-5.242188 1.605469-10.140626 4.460938-13.785157 2.679687-3.414062 6.160156-5.292969 9.808593-5.292969h.035157c3.660156.011719 7.144531 1.914063 9.808593 5.359376 2.835938 3.664062 4.386719 8.570312 4.367188 13.816406zm0 0" fill="#3a312a"/><path d="m192.617188 248.210938c-5.671876-10.824219-17.105469-16.015626-25.542969-11.597657-8.433594 4.417969-10.671875 16.777344-5.003907 27.601563 5.671876 10.824218 17.109376 16.015625 25.542969 11.597656 8.4375-4.417969 10.675781-16.777344 5.003907-27.601562zm0 0" fill="#87796f"/><path d="m195.277344 246.816406c-6.433594-12.273437-19.714844-18.039062-29.59375-12.859375-4.914063 2.574219-8.238282 7.378907-9.351563 13.519531-1.0625 5.867188.03125 12.304688 3.082031 18.128907 3.050782 5.824219 7.722657 10.390625 13.152344 12.855469 2.84375 1.292968 5.730469 1.9375 8.519532 1.9375 2.78125 0 5.464843-.644532 7.921874-1.929688 9.882813-5.179688 12.699219-19.375 6.269532-31.652344zm-9.054688 26.339844c-3.242187 1.699219-7.207031 1.640625-11.175781-.15625-4.21875-1.914062-7.882813-5.53125-10.316406-10.175781-2.4375-4.644531-3.320313-9.714844-2.496094-14.277344.777344-4.28125 2.992187-7.578125 6.234375-9.273437 1.609375-.84375 3.367188-1.246094 5.175781-1.246094 5.992188 0 12.554688 4.402344 16.316407 11.578125v-.003907c4.894531 9.34375 3.21875 19.910157-3.738282 23.554688zm0 0" fill="#3a312a"/><path d="m157.023438 280.972656c-9.707032-7.425781-22.265626-7.316406-28.050782.246094-5.789062 7.5625-2.613281 19.714844 7.089844 27.140625 9.707031 7.425781 22.265625 7.316406 28.050781-.246094 5.789063-7.5625 2.613281-19.714843-7.089843-27.140625zm0 0" fill="#87796f"/><path d="m169.28125 293.734375c-1.507812-5.769531-5.214844-11.148437-10.4375-15.144531-11-8.417969-25.46875-8.058594-32.253906.804687-6.785156 8.867188-3.355469 22.925781 7.648437 31.34375 5.160157 3.953125 11.238281 6.121094 17.136719 6.121094.066406 0 .136719-.003906.210938-.003906 6.238281-.054688 11.535156-2.511719 14.910156-6.917969s4.363281-10.160156 2.785156-16.203125zm-7.550781 12.554687c-2.222657 2.910157-5.847657 4.527344-10.199219 4.566407-4.589844.058593-9.480469-1.691407-13.648438-4.882813-8.375-6.40625-11.304687-16.695312-6.53125-22.933594 2.34375-3.0625 6.113282-4.585937 10.339844-4.585937 4.378906 0 9.242188 1.640625 13.507813 4.902344 4.164062 3.1875 7.101562 7.414062 8.273437 11.898437 1.101563 4.207032.484375 8.128906-1.742187 11.035156zm0 0" fill="#3a312a"/><path d="m286.164062 237.019531c-8.402343-4.476562-19.875.636719-25.621093 11.421875-5.746094 10.785156-3.589844 23.160156 4.816406 27.636719 8.402344 4.476563 19.875-.636719 25.617187-11.421875 5.75-10.785156 3.59375-23.160156-4.8125-27.636719zm0 0" fill="#87796f"/><path d="m296.835938 247.957031c-1.070313-6.148437-4.363282-10.976562-9.261719-13.582031-9.851563-5.246094-23.164063.429688-29.679688 12.660156-6.511719 12.230469-3.792969 26.445313 6.054688 31.691406 2.480469 1.324219 5.207031 1.988282 8.03125 1.988282 2.75 0 5.59375-.625 8.40625-1.878906 5.449219-2.429688 10.148437-6.964844 13.242187-12.769532 3.089844-5.804687 4.230469-12.234375 3.207032-18.109375zm-8.503907 15.289063c-2.464843 4.628906-6.152343 8.21875-10.386719 10.105468-3.976562 1.773438-7.949218 1.800782-11.175781.082032-6.929687-3.695313-8.535156-14.269532-3.574219-23.578125 4.957032-9.3125 14.628907-13.878907 21.5625-10.1875 3.226563 1.722656 5.421876 5.03125 6.167969 9.320312.792969 4.5625-.128906 9.628907-2.59375 14.257813zm0 0" fill="#3a312a"/><path d="m323.089844 281.882812c-5.734375-7.601562-18.292969-7.796874-28.046875-.4375-9.757813 7.359376-13.015625 19.492188-7.277344 27.089844 5.734375 7.601563 18.292969 7.796875 28.046875.4375s13.011719-19.488281 7.277344-27.089844zm0 0" fill="#87796f"/><path d="m325.484375 280.074219c-3.34375-4.429688-8.621094-6.921875-14.863281-7.019531-5.960938-.113282-12.140625 2.035156-17.386719 5.996093-11.058594 8.347657-14.589844 22.386719-7.867187 31.292969 3.34375 4.429688 8.621093 6.925781 14.863281 7.023438h.378906c5.84375 0 11.871094-2.121094 17.007813-6 5.25-3.960938 8.992187-9.3125 10.539062-15.070313 1.621094-6.03125.671875-11.789063-2.671875-16.222656zm-3.121094 14.664062c-1.203125 4.476563-4.171875 8.683594-8.359375 11.839844-4.1875 3.160156-9.050781 4.871094-13.679687 4.789063-4.351563-.066407-7.960938-1.714844-10.167969-4.636719-4.726562-6.265625-1.726562-16.535157 6.691406-22.886719 4.1875-3.160156 9.070313-4.894531 13.679688-4.789062 4.351562.066406 7.960937 1.714843 10.167968 4.636718 2.203126 2.917969 2.796876 6.84375 1.667969 11.046875zm0 0" fill="#3a312a"/><path d="m389.28125 104.921875v318.277344c0 12.019531-9.78125 21.800781-21.800781 21.800781h30c12.019531 0 21.800781-9.78125 21.800781-21.800781v-318.277344zm0 0" fill="#b9c239"/><path d="m424.199219 6h-30c12.019531 0 21.800781 9.78125 21.800781 21.800781v49.320313c0 12.019531-9.78125 21.800781-21.800781 21.800781h30c12.019531 0 21.800781-9.78125 21.800781-21.800781v-49.320313c0-12.019531-9.78125-21.800781-21.800781-21.800781zm0 0" fill="#695b51"/></svg>