<svg height="482pt" viewBox="0 -14 482.8799 482" width="482pt" xmlns="http://www.w3.org/2000/svg"><path d="m83.8125 23.785156c-1.949219 23.128906-26.046875 26.777344-26.046875 26.777344 20.691406.976562 25.847656 28.117188 25.847656 28.117188.445313-19.351563 26.644531-28.402344 26.644531-28.402344-19.628906-1.175782-26.445312-26.492188-26.445312-26.492188zm0 0" fill="#d7e057"/><path d="m110.4375 47.28125c-17.210938-1.027344-23.667969-24.046875-23.730469-24.28125-.378906-1.402344-1.703125-2.324219-3.164062-2.203125-1.449219.132813-2.597657 1.285156-2.71875 2.734375-1.71875 20.429688-22.625 23.929688-23.507813 24.066406-1.527344.230469-2.625 1.578125-2.546875 3.121094.082031 1.539062 1.316407 2.769531 2.855469 2.84375 18.058594.847656 23 25.433594 23.046875 25.683594.273437 1.421875 1.515625 2.433594 2.941406 2.433594.085938 0 .167969-.003907.253907-.011719 1.527343-.125 2.714843-1.386719 2.75-2.917969.390624-17.015625 24.382812-25.554688 24.625-25.636719 1.351562-.46875 2.183593-1.828125 1.988281-3.242187-.199219-1.417969-1.367188-2.5-2.792969-2.589844zm-27.132812 20.695312c-2.714844-6.261718-7.421876-13.816406-15.175782-17.753906 5.863282-2.8125 12.816406-7.828125 16.402344-16.546875 3.101562 6.144531 8.402344 13.761719 16.667969 17.445313-6.011719 3.28125-13.84375 8.8125-17.894531 16.855468zm0 0" fill="#3a312a"/><path d="m40.414062 57.746094c-1.378906 16.359375-18.425781 18.941406-18.425781 18.941406 14.636719.691406 18.285157 19.890625 18.285157 19.890625.3125-13.6875 18.84375-20.089844 18.84375-20.089844-13.878907-.832031-18.703126-18.742187-18.703126-18.742187zm0 0" fill="#d7e057"/><path d="m59.296875 73.492188c-11.53125-.691407-15.945313-16.371094-15.984375-16.53125-.382812-1.402344-1.707031-2.332032-3.164062-2.203126-1.453126.128907-2.601563 1.285157-2.722657 2.734376-1.15625 13.742187-15.292969 16.136718-15.882812 16.230468-1.527344.230469-2.625 1.578125-2.546875 3.121094.082031 1.539062 1.316406 2.765625 2.855468 2.839844 12.070313.570312 15.445313 17.289062 15.480469 17.453125.269531 1.425781 1.515625 2.441406 2.941407 2.441406.082031 0 .167968-.003906.25-.011719 1.53125-.125 2.71875-1.386718 2.753906-2.921875.257812-11.417969 16.664062-17.265625 16.824218-17.324219 1.351563-.46875 2.1875-1.824218 1.992188-3.242187-.199219-1.417969-1.367188-2.5-2.796875-2.585937zm-19.167969 13.589843c-1.847656-3.769531-4.679687-7.894531-8.894531-10.5625 3.710937-2.082031 7.394531-5.257812 9.742187-9.832031 2.113282 3.75 5.308594 7.910156 9.882813 10.449219-3.699219 2.199219-7.980469 5.476562-10.730469 9.945312zm0 0" fill="#3a312a"/><path d="m40.414062 4.429688c-1.378906 16.359374-18.425781 18.945312-18.425781 18.945312 14.636719.6875 18.285157 19.886719 18.285157 19.886719.3125-13.691407 18.84375-20.089844 18.84375-20.089844-13.878907-.832031-18.703126-18.742187-18.703126-18.742187zm0 0" fill="#d7e057"/><path d="m59.296875 20.175781c-11.53125-.691406-15.945313-16.371093-15.984375-16.53125-.382812-1.402343-1.707031-2.332031-3.164062-2.203125-1.453126.132813-2.601563 1.285156-2.722657 2.738282-1.15625 13.742187-15.292969 16.132812-15.882812 16.226562-1.527344.230469-2.625 1.582031-2.546875 3.121094.082031 1.542968 1.316406 2.769531 2.855468 2.84375 12.070313.566406 15.445313 17.289062 15.480469 17.453125.269531 1.425781 1.515625 2.4375 2.941407 2.4375.082031 0 .167968 0 .25-.007813 1.53125-.125 2.71875-1.390625 2.753906-2.921875.257812-11.417969 16.664062-17.269531 16.824218-17.324219 1.351563-.46875 2.1875-1.828124 1.992188-3.246093-.199219-1.417969-1.367188-2.5-2.796875-2.585938zm-19.167969 13.589844c-1.847656-3.769531-4.679687-7.894531-8.894531-10.558594 3.710937-2.082031 7.394531-5.261719 9.742187-9.832031 2.113282 3.746094 5.308594 7.90625 9.882813 10.445312-3.699219 2.203126-7.980469 5.480469-10.730469 9.945313zm0 0" fill="#3a312a"/><path d="m371.027344 69.398438v42.214843l61.113281 51.847657v-94.0625zm0 0" fill="#87796f"/><path d="m432.140625 66.398438h-61.113281c-1.65625 0-3 1.339843-3 3v42.210937c0 .882813.386718 1.71875 1.058594 2.289063l61.113281 51.847656c.550781.472656 1.242187.714844 1.941406.714844.429687 0 .859375-.09375 1.261719-.28125 1.058594-.492188 1.738281-1.550782 1.738281-2.71875v-94.0625c0-1.65625-1.34375-3-3-3zm-3 90.582031-55.113281-46.757813v-37.824218h55.113281zm0 0" fill="#3a312a"/><path d="m436.613281 42.269531h-70.066406c-4.222656 0-7.648437 3.425781-7.648437 7.652344v11.824219c0 4.226562 3.425781 7.648437 7.648437 7.648437h70.0625c4.226563 0 7.652344-3.425781 7.652344-7.648437v-11.824219c.003906-4.226563-3.421875-7.652344-7.648438-7.652344zm0 0" fill="#87796f"/><path d="m436.613281 39.269531h-70.0625c-5.875 0-10.648437 4.777344-10.648437 10.652344v11.824219c0 5.875 4.777344 10.648437 10.648437 10.648437h70.0625c5.875 0 10.652344-4.777343 10.652344-10.648437v-11.824219c0-5.875-4.78125-10.652344-10.652344-10.652344zm4.652344 22.472657c0 2.566406-2.089844 4.652343-4.652344 4.652343h-70.0625c-2.5625 0-4.648437-2.085937-4.648437-4.652343v-11.824219c0-2.5625 2.085937-4.652344 4.648437-4.652344h70.0625c2.5625 0 4.652344 2.085937 4.652344 4.652344zm0 0" fill="#3a312a"/><path d="m51.035156 212.175781h380.808594v238.292969h-380.808594zm0 0" fill="#f16c7a"/><path d="m431.84375 209.175781h-380.808594c-1.65625 0-3 1.34375-3 3v111.320313c0 1.65625 1.34375 3 3 3 1.660156 0 3-1.34375 3-3v-108.320313h374.808594v232.289063h-374.808594v-97.398438c0-1.65625-1.339844-3-3-3-1.65625 0-3 1.34375-3 3v100.398438c0 1.660156 1.34375 3 3 3h380.808594c1.65625 0 3-1.339844 3-3v-238.289063c0-1.65625-1.34375-3-3-3zm0 0" fill="#3a312a"/><path d="m477.878906 202.25-232.792968-197.464844c-2.101563-1.785156-5.183594-1.785156-7.289063 0l-127.847656 108.445313-19.597657 16.621093-85.347656 72.398438c-4 3.390625-1.601562 9.925781 3.640625 9.925781h465.59375c5.242188 0 7.640625-6.535156 3.640625-9.925781zm0 0" fill="#87796f"/><path d="m479.820312 199.960938-232.796874-197.464844c-3.234376-2.742188-7.929688-2.742188-11.167969 0l-127.847657 108.445312c-1.261718 1.070313-1.417968 2.964844-.347656 4.226563 1.074219 1.265625 2.96875 1.421875 4.230469.347656l127.84375-108.441406c.988281-.835938 2.421875-.835938 3.40625 0l232.796875 197.460937c1.300781 1.101563.917969 2.507813.769531 2.914063-.148437.402343-.769531 1.726562-2.472656 1.726562h-465.589844c-1.707031 0-2.320312-1.320312-2.46875-1.726562-.148437-.402344-.53125-1.8125.765625-2.914063l85.351563-72.398437c1.265625-1.070313 1.417969-2.964844.351562-4.226563-1.074219-1.265625-2.964843-1.421875-4.230469-.347656l-85.351562 72.398438c-2.792969 2.367187-3.785156 6.121093-2.523438 9.558593 1.265626 3.4375 4.445313 5.65625 8.105469 5.65625h465.589844c3.664063 0 6.84375-2.21875 8.105469-5.65625 1.261718-3.4375.273437-7.191406-2.519532-9.558593zm0 0" fill="#3a312a"/><path d="m314.371094 122.480469c-1.636719-39.175781-34.71875-69.609375-73.898438-67.976563-39.175781 1.636719-69.609375 34.71875-67.972656 73.898438 1.632812 39.175781 34.71875 69.609375 73.894531 67.972656 39.179688-1.632812 69.613281-34.71875 67.976563-73.894531zm0 0" fill="#fce8cb"/><path d="m243.691406 51.449219h-.257812c-40.683594 0-73.851563 33.03125-73.992188 73.746093-.070312 19.769532 7.566406 38.378907 21.496094 52.402344 13.925781 14.023438 32.484375 21.785156 52.25 21.851563h.257812c40.683594 0 73.859376-33.03125 73.996094-73.746094.136719-40.804687-32.945312-74.113281-73.75-74.253906zm-.25 142h-.234375c-18.164062-.0625-35.214843-7.195313-48.015625-20.078125-12.796875-12.890625-19.8125-29.992188-19.75-48.152344.128906-37.417969 30.605469-67.769531 67.992188-67.769531h.238281c37.496094.128906 67.894531 30.734375 67.769531 68.230469-.128906 37.417968-30.609375 67.769531-68 67.769531zm0 0" fill="#3a312a"/><path d="m243.636719 123.167969c-13.542969-.042969-24.5625 13.246093-24.605469 24.488281-.035156 11.238281 10.933594 13.238281 24.476562 13.285156 13.539063.046875 24.523438-1.878906 24.5625-13.117187.039063-11.242188-10.890624-24.609375-24.433593-24.65625zm0 0" fill="#87796f"/><path d="m263.144531 129.253906c-5.429687-5.832031-12.351562-9.0625-19.496093-9.085937h-.082032c-7.117187 0-14.03125 3.175781-19.476562 8.953125-5.023438 5.324218-8.035156 12.253906-8.054688 18.523437-.023437 6.457031 2.992188 11.035157 8.957032 13.605469 4.246093 1.832031 9.953124 2.660156 18.507812 2.691406h1.140625c8.742187 0 26.375-.617187 26.433594-16.109375.019531-6.269531-2.945313-13.214843-7.929688-18.578125zm-19.628906 28.6875c-4.78125-.015625-11.660156-.261718-16.152344-2.199218-3.699219-1.59375-5.34375-4.085938-5.332031-8.074219.015625-4.789063 2.417969-10.183594 6.421875-14.429688 4.300781-4.558593 9.664063-7.070312 15.113281-7.070312h.058594c5.464844.019531 10.835938 2.566406 15.121094 7.171875 3.976562 4.273437 6.339844 9.683594 6.324218 14.472656-.019531 6.125-3.601562 10.15625-21.554687 10.128906zm0 0" fill="#3a312a"/><path d="m243.75 89.957031c-5.304688-.019531-9.621094 5.484375-9.644531 12.289063-.023438 6.808594 4.257812 12.339844 9.5625 12.355468 5.304687.019532 9.621093-5.480468 9.644531-12.289062.019531-6.804688-4.257812-12.335938-9.5625-12.355469zm0 0" fill="#87796f"/><path d="m243.757812 86.957031c-3.554687.054688-6.765624 1.671875-9.171874 4.734375-2.230469 2.84375-3.46875 6.589844-3.480469 10.546875-.015625 3.957031 1.199219 7.707031 3.410156 10.570313 2.382813 3.082031 5.628906 4.785156 9.140625 4.792968h.035156c3.496094 0 6.738282-1.679687 9.136719-4.730468 2.230469-2.847656 3.464844-6.59375 3.480469-10.546875.03125-8.449219-5.601563-15.34375-12.550782-15.367188zm4.347657 22.207031c-1.234375 1.574219-2.796875 2.4375-4.414063 2.4375h-.015625c-1.621093-.003906-3.1875-.878906-4.414062-2.464843-1.402344-1.808594-2.164063-4.25-2.15625-6.878907.007812-2.628906.792969-5.066406 2.203125-6.863281 1.230468-1.574219 2.800781-2.4375 4.414062-2.4375h.015625c3.578125.011719 6.589844 4.292969 6.570313 9.347657-.007813 2.625-.789063 5.0625-2.203125 6.859374zm0 0" fill="#3a312a"/><path d="m224.847656 107.492188c-3.15625-6.027344-9.527344-8.921876-14.226562-6.460938-4.695313 2.464844-5.945313 9.347656-2.785156 15.375 3.160156 6.027344 9.527343 8.917969 14.226562 6.457031 4.699219-2.460937 5.945312-9.34375 2.785156-15.371093zm0 0" fill="#87796f"/><path d="m227.507812 106.097656c-3.921874-7.484375-12.121093-10.949218-18.273437-7.722656-3.113281 1.625-5.207031 4.632812-5.902344 8.46875-.644531 3.558594.011719 7.445312 1.847657 10.949219 1.835937 3.507812 4.660156 6.257812 7.953124 7.753906 1.761719.800781 3.554688 1.199219 5.292969 1.199219 1.761719 0 3.464844-.410156 5.027344-1.230469 3.113281-1.628906 5.207031-4.632813 5.902344-8.46875.644531-3.554687-.011719-7.445313-1.847657-10.949219zm-4.058593 9.882813c-.355469 1.972656-1.34375 3.472656-2.777344 4.226562-1.4375.75-3.234375.707031-5.058594-.121093-2.078125-.945313-3.898437-2.75-5.117187-5.074219-1.21875-2.328125-1.664063-4.847657-1.257813-7.097657.359375-1.972656 1.34375-3.472656 2.78125-4.226562.6875-.359375 1.441407-.527344 2.234375-.527344 2.847656 0 6.105469 2.21875 7.941406 5.722656 1.214844 2.328126 1.664063 4.847657 1.253907 7.097657zm0 0" fill="#3a312a"/><path d="m205.023438 125.738281c-5.402344-4.136719-12.398438-4.078125-15.621094.136719-3.222656 4.210938-1.453125 10.976562 3.949218 15.113281 5.40625 4.136719 12.402344 4.078125 15.625-.136719 3.222657-4.210937 1.453126-10.976562-3.953124-15.113281zm0 0" fill="#87796f"/><path d="m206.847656 123.355469c-3.140625-2.402344-6.871094-3.675781-10.476562-3.679688-3.894532.035157-7.214844 1.585938-9.351563 4.375-2.128906 2.789063-2.765625 6.398438-1.777343 10.167969.914062 3.5 3.148437 6.75 6.289062 9.152344 3.101562 2.375 6.777344 3.683594 10.347656 3.683594.042969 0 .085938 0 .128906-.003907 3.898438-.035156 7.21875-1.585937 9.351563-4.375 4.222656-5.519531 2.199219-14.1875-4.511719-19.320312zm-.253906 15.671875c-.988281 1.289062-2.632812 2.003906-4.640625 2.023437-.023437.003907-.046875.003907-.074219.003907-2.261718 0-4.640625-.871094-6.703125-2.449219-2.089843-1.59375-3.554687-3.691407-4.132812-5.902344-.507813-1.941406-.246094-3.71875.742187-5.007813.984375-1.285156 2.628906-2.003906 4.636719-2.019531h.078125c2.261719 0 4.640625.867188 6.703125 2.445313 4.011719 3.070312 5.5625 8.066406 3.390625 10.90625zm0 0" fill="#3a312a"/><path d="m276.949219 101.257812c-4.679688-2.496093-11.070313.351563-14.269531 6.363282-3.199219 6.003906-2 12.894531 2.679687 15.390625 4.679687 2.492187 11.070313-.355469 14.269531-6.363281 3.203125-6.003907 2-12.898438-2.679687-15.390626zm0 0" fill="#87796f"/><path d="m284.199219 107.121094c-.667969-3.839844-2.742188-6.863282-5.839844-8.511719s-6.765625-1.683594-10.320313-.097656c-3.300781 1.472656-6.144531 4.207031-8.007812 7.699219-1.859375 3.492187-2.539062 7.375-1.921875 10.9375.667969 3.839843 2.742187 6.859374 5.839844 8.511718 1.582031.839844 3.300781 1.242188 5.050781 1.242188 5.039062 0 10.328125-3.304688 13.277344-8.839844 1.863281-3.492188 2.542968-7.378906 1.921875-10.941406zm-7.21875 8.117187c-2.375 4.460938-7.042969 6.804688-10.210938 5.125-1.429687-.761719-2.40625-2.269531-2.75-4.246093-.390625-2.253907.074219-4.769532 1.308594-7.085938v-.003906c1.234375-2.316406 3.066406-4.105469 5.152344-5.039063.949219-.421875 1.886719-.636719 2.773437-.636719.820313 0 1.597656.1875 2.285156.550782 1.429688.761718 2.40625 2.269531 2.75 4.246094.394532 2.253906-.070312 4.769531-1.308593 7.089843zm0 0" fill="#3a312a"/><path d="m297.511719 126.242188c-3.191407-4.234376-10.1875-4.339844-15.617188-.242188-5.433593 4.101562-7.25 10.855469-4.054687 15.089844 3.191406 4.234375 10.1875 4.339844 15.617187.242187 5.4375-4.101562 7.25-10.855469 4.054688-15.089843zm0 0" fill="#87796f"/><path d="m299.90625 124.4375c-2.113281-2.800781-5.421875-4.378906-9.316406-4.441406-3.648438-.050782-7.347656 1.226562-10.503906 3.609375-3.160157 2.382812-5.414063 5.617187-6.355469 9.109375-1.007813 3.761718-.402344 7.378906 1.714843 10.179687 2.210938 2.929688 5.734376 4.414063 9.5625 4.414063 3.417969 0 7.078126-1.183594 10.257813-3.585938 6.746094-5.085937 8.824219-13.738281 4.640625-19.285156zm-8.253906 14.496094c-4.035156 3.046875-9.265625 3.203125-11.417969.34375-.976563-1.289063-1.226563-3.070313-.707031-5.007813.59375-2.207031 2.074218-4.292969 4.171875-5.875 2.054687-1.550781 4.414062-2.402343 6.65625-2.402343.046875 0 .09375.003906.140625.003906 2.003906.03125 3.644531.757812 4.621094 2.054687 2.15625 2.855469.570312 7.84375-3.464844 10.882813zm0 0" fill="#3a312a"/><path d="m241.441406 260.019531c-44.253906 0-80.125 35.875-80.125 80.125v110.300781h160.25v-110.300781c0-44.253906-35.875-80.125-80.125-80.125zm0 0" fill="#d7e057"/><path d="m241.441406 257.019531c-45.835937 0-83.125 37.289063-83.125 83.125v110.300781c0 1.65625 1.339844 3 3 3h160.25c1.65625 0 3-1.34375 3-3v-110.300781c0-45.835937-37.289062-83.125-83.125-83.125zm77.125 190.425781h-154.25v-107.300781c0-42.527343 34.597656-77.125 77.125-77.125s77.125 34.597657 77.125 77.125zm0 0" fill="#3a312a"/><path d="m399.140625 72.390625v59.136719l30 25.441406v-84.578125zm0 0" fill="#695b51"/><path d="m436.621094 45.269531h-30c2.558594 0 4.640625 2.078125 4.640625 4.660157v11.820312c0 2.558594-2.082031 4.640625-4.640625 4.640625h30c2.558594 0 4.640625-2.082031 4.640625-4.640625v-11.820312c0-2.582032-2.082031-4.660157-4.640625-4.660157zm0 0" fill="#695b51"/><path d="m398.839844 215.167969h30v232.300781h-30zm0 0" fill="#d34e5c"/><path d="m475.941406 204.527344-232.800781-197.457032c-.5-.421874-1.101563-.621093-1.699219-.621093-.601562 0-1.199218.199219-1.699218.621093l-13.300782 11.277344 45.960938 39 .039062.023438c13.757813 5.878906 25.378906 15.816406 33.359375 28.296875l.019531.019531 140.121094 118.839844c1.300782 1.121094.917969 2.523437.757813 2.921875-.136719.398437-.757813 1.71875-2.457031 1.71875h30c1.699218 0 2.320312-1.320313 2.457031-1.71875.160156-.398438.542969-1.800781-.757813-2.921875zm0 0" fill="#695b51"/></svg>