<svg height="472pt" viewBox="0 -10 472 472" width="472pt" xmlns="http://www.w3.org/2000/svg"><path d="m73.714844 22.355469c-1.945313 23.125-26.050782 26.777343-26.050782 26.777343 20.695313.976563 25.851563 28.121094 25.851563 28.121094.441406-19.355468 26.640625-28.40625 26.640625-28.40625-19.625-1.171875-26.441406-26.492187-26.441406-26.492187zm0 0" fill="#d7e057"/><path d="m100.339844 45.851562c-17.210938-1.027343-23.664063-24.046874-23.730469-24.28125-.382813-1.402343-1.71875-2.332031-3.164063-2.199218-1.453124.132812-2.597656 1.28125-2.71875 2.734375-1.71875 20.429687-22.625 23.925781-23.507812 24.0625-1.527344.230469-2.625 1.582031-2.546875 3.121093.082031 1.542969 1.3125 2.769532 2.855469 2.84375 18.058594.847657 23 25.433594 23.046875 25.683594.273437 1.421875 1.519531 2.433594 2.945312 2.433594.082031 0 .167969 0 .25-.011719 1.527344-.125 2.714844-1.382812 2.75-2.917969.390625-17.015624 24.382813-25.550781 24.625-25.636718 1.351563-.46875 2.183594-1.828125 1.988281-3.246094-.199218-1.417969-1.367187-2.5-2.792968-2.585938zm-27.132813 20.691407c-2.714843-6.261719-7.417969-13.816407-15.175781-17.753907 5.863281-2.808593 12.820312-7.824218 16.40625-16.546874 3.101562 6.144531 8.398438 13.761718 16.667969 17.445312-6.015625 3.28125-13.847657 8.816406-17.898438 16.855469zm0 0" fill="#3a312a"/><path d="m30.316406 56.316406c-1.375 16.359375-18.425781 18.941406-18.425781 18.941406 14.636719.6875 18.285156 19.886719 18.285156 19.886719.3125-13.6875 18.84375-20.089843 18.84375-20.089843-13.878906-.832032-18.703125-18.738282-18.703125-18.738282zm0 0" fill="#d7e057"/><path d="m49.199219 72.058594c-11.53125-.6875-15.941407-16.367188-15.984375-16.527344-.378906-1.402344-1.707032-2.332031-3.164063-2.199219-1.453125.128907-2.597656 1.28125-2.722656 2.734375-1.15625 13.738282-15.292969 16.132813-15.882813 16.226563-1.527343.230469-2.628906 1.578125-2.546874 3.121093.078124 1.539063 1.3125 2.769532 2.855468 2.84375 12.070313.566407 15.445313 17.285157 15.476563 17.449219.273437 1.425781 1.519531 2.441407 2.945312 2.441407.085938 0 .167969-.003907.25-.011719 1.53125-.125 2.714844-1.386719 2.753907-2.921875.257812-11.417969 16.660156-17.265625 16.824218-17.324219 1.351563-.464844 2.1875-1.824219 1.988282-3.242187-.195313-1.421876-1.363282-2.503907-2.792969-2.589844zm-19.167969 13.589844c-1.847656-3.769532-4.679688-7.890626-8.894531-10.558594 3.710937-2.082032 7.394531-5.257813 9.742187-9.832032 2.113282 3.746094 5.308594 7.910157 9.882813 10.445313-3.699219 2.203125-7.976563 5.484375-10.730469 9.945313zm0 0" fill="#3a312a"/><path d="m30.316406 3c-1.375 16.359375-18.425781 18.941406-18.425781 18.941406 14.636719.6875 18.285156 19.890625 18.285156 19.890625.3125-13.691406 18.84375-20.09375 18.84375-20.09375-13.878906-.828125-18.703125-18.738281-18.703125-18.738281zm0 0" fill="#d7e057"/><path d="m49.203125 18.746094c-11.53125-.691406-15.945313-16.371094-15.988281-16.53125-.378906-1.402344-1.707032-2.332032-3.164063-2.2031252-1.453125.1328122-2.597656 1.2851562-2.722656 2.7382812-1.15625 13.738281-15.292969 16.132812-15.882813 16.226562-1.527343.230469-2.628906 1.578126-2.546874 3.121094.078124 1.539063 1.3125 2.765625 2.855468 2.839844 12.070313.570312 15.449219 17.289062 15.476563 17.453125.273437 1.425781 1.519531 2.441406 2.949219 2.441406.082031 0 .164062-.003906.25-.011719 1.527343-.125 2.714843-1.386718 2.75-2.921874.261718-11.417969 16.664062-17.269532 16.824218-17.324219 1.351563-.46875 2.1875-1.824219 1.992188-3.242188-.199219-1.417969-1.367188-2.5-2.792969-2.585937zm-19.171875 13.589844c-1.847656-3.773438-4.679688-7.894532-8.894531-10.5625 3.714843-2.082032 7.394531-5.257813 9.742187-9.832032 2.113282 3.746094 5.308594 7.910156 9.882813 10.445313-3.699219 2.207031-7.976563 5.484375-10.730469 9.949219zm0 0" fill="#3a312a"/><path d="m280.660156 24.898438h-91.421875c-25.71875 0-46.636719 20.941406-46.636719 46.660156v39h29.378907v-39c0-9.519532 7.738281-17.261719 17.257812-17.261719h91.421875c9.519532 0 17.261719 7.742187 17.261719 17.261719v39h29.398437v-39c0-25.71875-20.941406-46.660156-46.660156-46.660156zm0 0" fill="#87796f"/><path d="m280.660156 21.898438h-91.421875c-27.371093 0-49.636719 22.277343-49.636719 49.660156v39c0 1.65625 1.339844 3 3 3h29.378907c1.65625 0 3-1.34375 3-3v-39c0-7.863282 6.394531-14.261719 14.257812-14.261719h91.421875c7.863282 0 14.261719 6.398437 14.261719 14.261719v39c0 1.65625 1.34375 3 3 3h29.398437c1.65625 0 3-1.34375 3-3v-39c0-27.382813-22.277343-49.660156-49.660156-49.660156zm43.660156 85.660156h-23.398437v-36c0-11.171875-9.089844-20.261719-20.261719-20.261719h-91.421875c-11.167969 0-20.257812 9.089844-20.257812 20.261719v36h-23.378907v-36c0-24.074219 19.578126-43.660156 43.636719-43.660156h91.421875c24.074219 0 43.660156 19.582031 43.660156 43.660156zm0 0" fill="#3a312a"/><path d="m396.140625 132.476562c-6.625-13.421874-20.296875-21.921874-35.269531-21.921874h-251.820313c-14.972656 0-28.648437 8.496093-35.273437 21.921874l-49.175782 99.621094h420.71875zm0 0" fill="#f16c7a"/><path d="m448.011719 230.765625-49.179688-99.617187c-7.183593-14.550782-21.730469-23.59375-37.960937-23.59375h-113.683594c-1.65625 0-3 1.34375-3 3 0 1.660156 1.34375 3 3 3h113.683594c13.929687 0 26.414062 7.761718 32.582031 20.25l47.039063 95.289062h-411.066407l47.042969-95.289062c6.164062-12.492188 18.648438-20.25 32.582031-20.25h109.757813c1.660156 0 3-1.339844 3-3 0-1.65625-1.339844-3-3-3h-109.757813c-16.234375 0-30.777343 9.042968-37.960937 23.59375l-49.179688 99.617187c-.457031.929687-.40625 2.03125.140625 2.914063.546875.878906 1.511719 1.414062 2.550781 1.414062h420.71875c1.035157 0 2-.535156 2.546876-1.414062.546874-.882813.601562-1.984376.144531-2.914063zm0 0" fill="#3a312a"/><path d="m24.601562 288.757812 17.792969 39.789063 12.160157 27.1875 19.632812 43.90625c6.335938 14.160156 20.398438 23.277344 35.910156 23.277344h249.722656c15.511719 0 29.574219-9.117188 35.90625-23.277344l49.589844-110.882813zm0 0" fill="#f16c7a"/><path d="m447.839844 287.125c-.554688-.855469-1.5-1.367188-2.519532-1.367188h-420.71875c-1.015624 0-1.964843.511719-2.519531 1.367188-.550781.851562-.636719 1.925781-.21875 2.855469l17.792969 39.792969c.675781 1.511718 2.453125 2.1875 3.964844 1.511718 1.511718-.675781 2.1875-2.449218 1.511718-3.960937l-15.90625-35.566407h411.464844l-47.703125 106.660157c-5.84375 13.058593-18.863281 21.5-33.171875 21.5h-249.71875c-14.308594 0-27.328125-8.441407-33.167968-21.5l-19.636719-43.90625c-.675781-1.511719-2.449219-2.195313-3.960938-1.511719-1.511719.675781-2.191406 2.449219-1.515625 3.960938l19.636719 43.90625c6.804687 15.21875 21.976563 25.050781 38.648437 25.050781h249.71875c16.671876 0 31.839844-9.832031 38.648438-25.050781l49.589844-110.886719c.414062-.929688.332031-2.003907-.21875-2.855469zm0 0" fill="#3a312a"/><path d="m109.292969 422.917969h85.410156v26h-85.410156zm0 0" fill="#87796f"/><path d="m194.703125 419.917969h-85.410156c-1.65625 0-3 1.339843-3 3v26c0 1.65625 1.34375 3 3 3h85.410156c1.660156 0 3-1.34375 3-3v-26c0-1.660157-1.339844-3-3-3zm-3 26h-79.410156v-20h79.410156zm0 0" fill="#3a312a"/><path d="m275.292969 422.917969h85.410156v26h-85.410156zm0 0" fill="#87796f"/><path d="m360.703125 419.917969h-85.410156c-1.65625 0-3 1.339843-3 3v26c0 1.65625 1.34375 3 3 3h85.410156c1.65625 0 3-1.34375 3-3v-26c0-1.660157-1.339844-3-3-3zm-3 26h-79.410156v-20h79.410156zm0 0" fill="#3a312a"/><path d="m456.144531 232.09375h-440.289062c-7.101563 0-12.855469 5.753906-12.855469 12.855469v30.953125c0 7.101562 5.753906 12.855468 12.855469 12.855468h440.289062c7.097657 0 12.855469-5.753906 12.855469-12.855468v-30.953125c0-7.101563-5.757812-12.855469-12.855469-12.855469zm0 0" fill="#d7e057"/><path d="m456.144531 229.09375h-440.289062c-8.742188 0-15.855469 7.109375-15.855469 15.851562v30.953126c0 8.742187 7.113281 15.855468 15.855469 15.855468h440.289062c8.742188 0 15.855469-7.113281 15.855469-15.855468v-30.953126c0-8.738281-7.113281-15.851562-15.855469-15.851562zm9.855469 46.808594c0 5.433594-4.421875 9.855468-9.855469 9.855468h-440.289062c-5.433594 0-9.855469-4.421874-9.855469-9.855468v-30.953125c0-5.433594 4.421875-9.855469 9.855469-9.855469h440.289062c5.433594 0 9.855469 4.421875 9.855469 9.855469zm0 0" fill="#3a312a"/><path d="m134 250.917969c-11.597656 0-21 9.398437-21 21v35c0 11.597656 9.402344 21 21 21s21-9.402344 21-21v-35c0-11.601563-9.402344-21-21-21zm0 0" fill="#8ac6dd"/><path d="m134 247.917969c-13.234375 0-24 10.765625-24 24v35c0 13.230469 10.765625 24 24 24s24-10.769531 24-24v-35c0-13.234375-10.765625-24-24-24zm18 59c0 9.921875-8.074219 18-18 18s-18-8.078125-18-18v-35c0-9.925781 8.074219-18 18-18s18 8.074219 18 18zm0 0" fill="#3a312a"/><path d="m336 250.917969c-11.597656 0-21 9.398437-21 21v35c0 11.597656 9.402344 21 21 21s21-9.402344 21-21v-35c0-11.601563-9.402344-21-21-21zm0 0" fill="#8ac6dd"/><path d="m336 247.917969c-13.234375 0-24 10.765625-24 24v35c0 13.230469 10.765625 24 24 24s24-10.769531 24-24v-35c0-13.234375-10.765625-24-24-24zm18 59c0 9.921875-8.074219 18-18 18s-18-8.078125-18-18v-35c0-9.925781 8.074219-18 18-18s18 8.074219 18 18zm0 0" fill="#3a312a"/><path d="m393.460938 133.816406c-6.179688-12.5-18.660157-20.261718-32.582032-20.261718h-30c13.921875 0 26.402344 7.761718 32.582032 20.261718l47.039062 95.28125h30zm0 0" fill="#d34e5c"/><path d="m410.699219 291.757812-47.699219 106.660157c-5.839844 13.058593-18.878906 21.5-33.179688 21.5h30c14.300782 0 27.339844-8.441407 33.179688-21.5l47.699219-106.660157zm0 0" fill="#d34e5c"/><path d="m235.242188 351.960938c-16.734376-.058594-30.359376 16.371093-30.40625 30.265624-.050782 13.890626 13.511718 16.363282 30.246093 16.417969 16.734375.058594 30.3125-2.320312 30.359375-16.210937.046875-13.894532-13.464844-30.414063-30.199218-30.472656zm0 0" fill="#87796f"/><path d="m235.253906 348.960938h-.085937c-15.378907 0-33.269531 14.496093-33.332031 33.253906-.027344 7.667968 3.550781 13.105468 10.640624 16.164062 5.15625 2.222656 12.125 3.230469 22.59375 3.265625h.5625c10.160157 0 16.976563-.964843 22.054688-3.113281 7.109375-3.007812 10.726562-8.421875 10.753906-16.089844.0625-18.789062-17.789062-33.425781-33.1875-33.480468zm20.097656 44.046874c-5.691406 2.410157-14.308593 2.664063-20.257812 2.636719-5.972656-.019531-14.566406-.328125-20.242188-2.773437-4.871093-2.101563-7.035156-5.382813-7.015624-10.632813.050781-15.132812 14.976562-27.273437 27.328124-27.273437h.066407c12.367187.042968 27.261719 12.300781 27.210937 27.460937-.015625 5.25-2.207031 8.515625-7.089844 10.582031zm0 0" fill="#3a312a"/><path d="m235.382812 310.917969c-6.554687-.023438-11.894531 6.777343-11.921874 15.1875-.027344 8.414062 5.261718 15.25 11.816406 15.269531 6.554687.023438 11.894531-6.777344 11.921875-15.1875.027343-8.414062-5.261719-15.25-11.816407-15.269531zm0 0" fill="#87796f"/><path d="m246.128906 313.566406c-2.808594-3.628906-6.621094-5.636718-10.738281-5.652344h-.039063c-8.179687 0-14.855468 8.144532-14.890624 18.179688-.03125 10.050781 6.609374 18.253906 14.808593 18.28125h.042969c4.097656 0 7.910156-1.980469 10.734375-5.578125 2.660156-3.394531 4.136719-7.867187 4.152344-12.601563.011719-4.734374-1.429688-9.21875-4.070313-12.628906zm-1.929687 12.609375c-.011719 3.40625-1.035157 6.570313-2.875 8.917969-1.664063 2.117188-3.796875 3.28125-6.015625 3.28125h-.019532c-4.890624-.015625-8.851562-5.515625-8.828124-12.257812.023437-6.734376 4.007812-12.199219 8.890624-12.199219h.019532c2.226562.007812 4.363281 1.1875 6.015625 3.324219 1.824219 2.355468 2.820312 5.53125 2.8125 8.933593zm0 0" fill="#3a312a"/><path d="m212.023438 332.585938c-3.902344-7.449219-11.773438-11.023438-17.578126-7.980469-5.808593 3.039062-7.347656 11.546875-3.445312 18.996093 3.902344 7.449219 11.777344 11.023438 17.578125 7.984376 5.808594-3.042969 7.347656-11.550782 3.445313-19zm0 0" fill="#87796f"/><path d="m214.679688 331.191406c-4.664063-8.902344-14.367188-13.054687-21.628907-9.246094-3.644531 1.910157-6.105469 5.449219-6.921875 9.964844-.769531 4.246094.015625 8.890625 2.214844 13.082032 2.195312 4.195312 5.566406 7.484374 9.492188 9.265624 2.085937.945313 4.199218 1.421876 6.25 1.421876 2.0625 0 4.058593-.480469 5.886718-1.441407 7.261719-3.800781 9.375-14.140625 4.707032-23.046875zm-7.492188 17.734375c-1.972656 1.035157-4.414062.984375-6.871094-.132812-2.714844-1.234375-5.082031-3.570313-6.660156-6.585938-1.582031-3.011719-2.15625-6.289062-1.625-9.226562.480469-2.65625 1.832031-4.6875 3.804688-5.722657.976562-.511718 2.042968-.753906 3.144531-.753906 3.777343 0 7.960937 2.847656 10.382812 7.472656 3.132813 5.976563 2.15625 12.679688-2.175781 14.949219zm0 0" fill="#3a312a"/><path d="m187.523438 355.136719c-6.679688-5.113281-15.324219-5.035157-19.308594.167969-3.984375 5.207031-1.800782 13.566406 4.882812 18.679687 6.679688 5.113281 15.324219 5.035156 19.304688-.167969 3.984375-5.203125 1.800781-13.566406-4.878906-18.679687zm0 0" fill="#87796f"/><path d="m196.863281 363.683594c-1.089843-4.171875-3.757812-8.054688-7.519531-10.929688-3.714844-2.84375-8.097656-4.402344-12.363281-4.402344h-.152344c-4.589844.039063-8.496094 1.863282-10.996094 5.128907-4.980469 6.511719-2.542969 16.78125 5.441407 22.886719 3.714843 2.84375 8.097656 4.402343 12.363281 4.402343h.152343c4.589844-.039062 8.496094-1.863281 11-5.128906 2.5-3.265625 3.238282-7.515625 2.074219-11.957031zm-6.839843 8.308594c-1.351563 1.769531-3.585938 2.753906-6.289063 2.777343-2.953125.027344-6.113281-1.097656-8.8125-3.167969-5.359375-4.097656-7.296875-10.589843-4.324219-14.472656 1.351563-1.765625 3.585938-2.753906 6.285156-2.777344h.101563c2.953125 0 6.042969 1.121094 8.714844 3.167969 2.703125 2.070313 4.605469 4.796875 5.359375 7.679688.683594 2.613281.316406 5.027343-1.035156 6.792969zm0 0" fill="#3a312a"/><path d="m276.410156 324.882812c-5.78125-3.082031-13.679687.4375-17.632812 7.859376-3.953125 7.425781-2.472656 15.941406 3.316406 19.023437 5.78125 3.082031 13.679688-.4375 17.632812-7.863281 3.957032-7.421875 2.472657-15.9375-3.316406-19.019532zm0 0" fill="#87796f"/><path d="m284.679688 332.25c-.792969-4.523438-3.222657-8.078125-6.859376-10.015625-3.628906-1.933594-7.941406-1.96875-12.132812-.101563-3.9375 1.757813-7.332031 5.023438-9.558594 9.203126-4.722656 8.871093-2.679687 19.226562 4.554688 23.078124 1.851562.984376 3.863281 1.453126 5.914062 1.453126 5.96875 0 12.261719-3.949219 15.777344-10.550782 2.226562-4.179687 3.042969-8.816406 2.304688-13.066406zm-7.601563 10.242188c-3.171875 5.957031-9.261719 8.925781-13.574219 6.628906-4.316406-2.300782-5.246094-9.011719-2.078125-14.964844 1.601563-3.003906 3.980469-5.324219 6.707031-6.542969 2.460938-1.097656 4.90625-1.128906 6.871094-.082031 1.960938 1.042969 3.300782 3.085938 3.765625 5.75.511719 2.9375-.089843 6.207031-1.691406 9.210938zm0 0" fill="#3a312a"/><path d="m301.828125 355.761719c-3.949219-5.230469-12.59375-5.367188-19.304687-.300781-6.714844 5.066406-8.960938 13.414062-5.011719 18.648437 3.949219 5.230469 12.589843 5.363281 19.304687.296875 6.714844-5.0625 8.957032-13.414062 5.011719-18.644531zm0 0" fill="#87796f"/><path d="m304.222656 353.953125c-4.941406-6.542969-15.484375-6.941406-23.507812-.886719-8.023438 6.054688-10.535156 16.304688-5.597656 22.847656 2.476562 3.285157 6.371093 5.132813 10.960937 5.207032h.273437c4.222657 0 8.574219-1.527344 12.269532-4.320313 3.78125-2.847656 6.476562-6.710937 7.59375-10.875 1.195312-4.433593.488281-8.6875-1.992188-11.972656zm-3.796875 10.414063c-.777343 2.882812-2.699219 5.59375-5.414062 7.648437-2.71875 2.050781-5.851563 3.179687-8.835938 3.105469-2.703125-.042969-4.929687-1.042969-6.269531-2.820313-2.945312-3.902343-.960938-10.382812 4.421875-14.445312 2.761719-2.082031 5.890625-3.132813 8.679687-3.132813 2.648438 0 4.988282.945313 6.425782 2.84375 1.339844 1.777344 1.691406 4.191406.992187 6.800782zm0 0" fill="#3a312a"/><path d="m121.0625 134.058594c-5.992188 0-10.851562 4.859375-10.851562 10.851562v54.15625c0 5.992188 4.855468 10.851563 10.851562 10.851563 5.992188 0 10.851562-4.859375 10.851562-10.851563v-54.15625c-.003906-5.992187-4.859374-10.851562-10.851562-10.851562zm0 0" fill="#87796f"/><path d="m121.0625 131.058594c-7.636719 0-13.851562 6.214844-13.851562 13.851562v54.152344c0 7.640625 6.214843 13.851562 13.851562 13.851562s13.851562-6.210937 13.851562-13.851562v-54.152344c-.003906-7.636718-6.214843-13.851562-13.851562-13.851562zm7.847656 68.003906c0 4.332031-3.519531 7.851562-7.851562 7.851562-4.328125 0-7.851563-3.523437-7.851563-7.851562v-54.152344c0-4.328125 3.523438-7.851562 7.851563-7.851562s7.851562 3.523437 7.851562 7.851562zm0 0" fill="#3a312a"/><path d="m166.636719 134.058594c-5.992188 0-10.851563 4.859375-10.851563 10.851562v54.15625c0 5.992188 4.855469 10.851563 10.851563 10.851563 5.992187 0 10.851562-4.859375 10.851562-10.851563v-54.15625c0-5.992187-4.859375-10.851562-10.851562-10.851562zm0 0" fill="#87796f"/><path d="m166.636719 131.058594c-7.640625 0-13.851563 6.214844-13.851563 13.851562v54.152344c0 7.640625 6.210938 13.851562 13.851563 13.851562 7.636719 0 13.851562-6.210937 13.851562-13.851562v-54.152344c0-7.636718-6.214843-13.851562-13.851562-13.851562zm7.851562 68.003906c0 4.332031-3.523437 7.851562-7.851562 7.851562-4.332031 0-7.851563-3.523437-7.851563-7.851562v-54.152344c0-4.328125 3.523438-7.851562 7.851563-7.851562s7.851562 3.523437 7.851562 7.851562zm0 0" fill="#3a312a"/><path d="m212.210938 134.058594c-5.992188 0-10.851563 4.859375-10.851563 10.851562v54.15625c0 5.992188 4.859375 10.851563 10.851563 10.851563 5.992187 0 10.851562-4.859375 10.851562-10.851563v-54.15625c0-5.992187-4.855469-10.851562-10.851562-10.851562zm0 0" fill="#87796f"/><path d="m212.210938 131.058594c-7.636719 0-13.847657 6.214844-13.847657 13.851562v54.152344c0 7.640625 6.210938 13.851562 13.847657 13.851562 7.640624 0 13.851562-6.210937 13.851562-13.851562v-54.152344c0-7.636718-6.210938-13.851562-13.851562-13.851562zm7.851562 68.003906c0 4.332031-3.519531 7.851562-7.851562 7.851562-4.328126 0-7.847657-3.523437-7.847657-7.851562v-54.152344c0-4.328125 3.519531-7.851562 7.847657-7.851562 4.328124 0 7.851562 3.523437 7.851562 7.851562zm0 0" fill="#3a312a"/><path d="m257.789062 134.058594c-5.996093 0-10.851562 4.859375-10.851562 10.851562v54.15625c0 5.992188 4.855469 10.851563 10.851562 10.851563 5.992188 0 10.851563-4.859375 10.851563-10.851563v-54.15625c-.003906-5.992187-4.859375-10.851562-10.851563-10.851562zm0 0" fill="#87796f"/><path d="m257.789062 131.058594c-7.640624 0-13.851562 6.214844-13.851562 13.851562v54.152344c0 7.640625 6.210938 13.851562 13.851562 13.851562 7.636719 0 13.851563-6.210937 13.851563-13.851562v-54.152344c-.003906-7.636718-6.214844-13.851562-13.851563-13.851562zm7.847657 68.003906c0 4.332031-3.519531 7.851562-7.851563 7.851562-4.328125 0-7.851562-3.523437-7.851562-7.851562v-54.152344c0-4.328125 3.523437-7.851562 7.851562-7.851562 4.332032 0 7.851563 3.523437 7.851563 7.851562zm0 0" fill="#3a312a"/><path d="m303.363281 134.058594c-5.992187 0-10.851562 4.859375-10.851562 10.851562v54.15625c0 5.992188 4.855469 10.851563 10.851562 10.851563 5.992188 0 10.851563-4.859375 10.851563-10.851563v-54.15625c0-5.992187-4.859375-10.851562-10.851563-10.851562zm0 0" fill="#87796f"/><path d="m303.363281 131.058594c-7.636719 0-13.851562 6.214844-13.851562 13.851562v54.152344c0 7.640625 6.210937 13.851562 13.851562 13.851562s13.851563-6.210937 13.851563-13.851562v-54.152344c0-7.636718-6.210938-13.851562-13.851563-13.851562zm7.851563 68.003906c0 4.332031-3.523438 7.851562-7.851563 7.851562-4.332031 0-7.851562-3.523437-7.851562-7.851562v-54.152344c0-4.328125 3.519531-7.851562 7.851562-7.851562 4.328125 0 7.851563 3.523437 7.851563 7.851562zm0 0" fill="#3a312a"/><path d="m348.9375 134.058594c-5.992188 0-10.851562 4.859375-10.851562 10.851562v54.15625c0 5.992188 4.859374 10.851563 10.851562 10.851563s10.851562-4.859375 10.851562-10.851563v-54.15625c0-5.992187-4.855468-10.851562-10.851562-10.851562zm0 0" fill="#87796f"/><path d="m348.9375 131.058594c-7.636719 0-13.847656 6.214844-13.847656 13.851562v54.152344c0 7.640625 6.210937 13.851562 13.847656 13.851562s13.851562-6.210937 13.851562-13.851562v-54.152344c0-7.636718-6.214843-13.851562-13.851562-13.851562zm7.851562 68.003906c0 4.332031-3.523437 7.851562-7.851562 7.851562s-7.851562-3.523437-7.851562-7.851562v-54.152344c0-4.328125 3.523437-7.851562 7.851562-7.851562s7.851562 3.523437 7.851562 7.851562zm0 0" fill="#3a312a"/><path d="m456.140625 235.097656h-30c5.4375 0 9.859375 4.417969 9.859375 9.859375v30.9375c0 5.441407-4.421875 9.863281-9.859375 9.863281h30c5.4375 0 9.859375-4.421874 9.859375-9.863281v-30.9375c0-5.441406-4.421875-9.859375-9.859375-9.859375zm0 0" fill="#b9c239"/></svg>