<svg height="452pt" viewBox="0 -2 452 452" width="452pt" xmlns="http://www.w3.org/2000/svg"><path d="m381.242188 91.9375h-141.742188c-7.457031 0-13.5 6.042969-13.5 13.5 0 7.453125 6.042969 13.5 13.5 13.5h99.910156c7.457032 0 13.5 6.042969 13.5 13.5 0 7.453125-6.042968 13.5-13.5 13.5h-99.910156c-7.457031 0-13.5 6.042969-13.5 13.5 0 7.453125 6.042969 13.5 13.5 13.5h99.910156c7.457032 0 13.5 6.042969 13.5 13.5 0 7.453125-6.042968 13.5-13.5 13.5h-99.910156c-7.457031 0-13.5 6.042969-13.5 13.5 0 7.453125 6.042969 13.5 13.5 13.5h99.910156c7.457032 0 13.5 6.042969 13.5 13.5 0 7.453125-6.042968 13.5-13.5 13.5h-99.910156c-7.457031 0-13.5 6.042969-13.5 13.5 0 7.453125 6.042969 13.5 13.5 13.5h99.910156c7.457032 0 13.5 6.042969 13.5 13.5 0 7.453125-6.042968 13.5-13.5 13.5h-99.910156c-7.457031 0-13.5 6.042969-13.5 13.5 0 7.453125 6.042969 13.5 13.5 13.5h99.910156c7.457032 0 13.5 6.042969 13.5 13.5 0 7.453125-6.042968 13.5-13.5 13.5h-99.910156c-7.457031 0-13.5 6.042969-13.5 13.5 0 7.453125 6.042969 13.5 13.5 13.5h99.910156c7.457032 0 13.5 6.042969 13.5 13.5 0 7.453125-6.042968 13.5-13.5 13.5h-99.910156c-7.457031 0-13.5 6.042969-13.5 13.5 0 7.453125 6.042969 13.5 13.5 13.5h141.742188c37.421874 0 67.757812-30.335938 67.757812-67.757812v-215.484376c0-37.421874-30.335938-67.757812-67.757812-67.757812zm0 0" fill="#87796f"/><path d="m381.242188 88.9375h-60.964844c-1.660156 0-3 1.339844-3 3 0 1.65625 1.339844 3 3 3h60.964844c35.707031 0 64.757812 29.046875 64.757812 64.757812v215.484376c0 35.707031-29.050781 64.757812-64.757812 64.757812h-141.742188c-5.789062 0-10.5-4.710938-10.5-10.5 0-5.792969 4.710938-10.5 10.5-10.5h99.910156c9.097656 0 16.5-7.402344 16.5-16.5s-7.402344-16.5-16.5-16.5h-99.910156c-5.789062 0-10.5-4.710938-10.5-10.5 0-5.792969 4.710938-10.5 10.5-10.5h99.910156c9.097656 0 16.5-7.402344 16.5-16.5s-7.402344-16.5-16.5-16.5h-99.910156c-5.789062 0-10.5-4.710938-10.5-10.5 0-5.792969 4.710938-10.5 10.5-10.5h99.910156c9.097656 0 16.5-7.402344 16.5-16.5s-7.402344-16.5-16.5-16.5h-99.910156c-5.789062 0-10.5-4.710938-10.5-10.5 0-5.792969 4.710938-10.5 10.5-10.5h99.910156c9.097656 0 16.5-7.402344 16.5-16.5s-7.402344-16.5-16.5-16.5h-99.910156c-5.789062 0-10.5-4.710938-10.5-10.5 0-5.792969 4.710938-10.5 10.5-10.5h99.910156c9.097656 0 16.5-7.402344 16.5-16.5s-7.402344-16.5-16.5-16.5h-99.910156c-5.789062 0-10.5-4.710938-10.5-10.5 0-5.792969 4.710938-10.5 10.5-10.5h99.910156c9.097656 0 16.5-7.402344 16.5-16.5s-7.402344-16.5-16.5-16.5h-99.910156c-5.789062 0-10.5-4.710938-10.5-10.5 0-5.792969 4.710938-10.5 10.5-10.5h52.222656c1.660156 0 3-1.34375 3-3 0-1.660156-1.339844-3-3-3h-52.222656c-9.097656 0-16.5 7.402344-16.5 16.5s7.402344 16.5 16.5 16.5h99.910156c5.789063 0 10.5 4.707031 10.5 10.5 0 5.789062-4.710937 10.5-10.5 10.5h-99.910156c-9.097656 0-16.5 7.402344-16.5 16.5s7.402344 16.5 16.5 16.5h99.910156c5.789063 0 10.5 4.707031 10.5 10.5 0 5.789062-4.710937 10.5-10.5 10.5h-99.910156c-9.097656 0-16.5 7.402344-16.5 16.5s7.402344 16.5 16.5 16.5h99.910156c5.789063 0 10.5 4.707031 10.5 10.5 0 5.789062-4.710937 10.5-10.5 10.5h-99.910156c-9.097656 0-16.5 7.402344-16.5 16.5s7.402344 16.5 16.5 16.5h99.910156c5.789063 0 10.5 4.707031 10.5 10.5 0 5.789062-4.710937 10.5-10.5 10.5h-99.910156c-9.097656 0-16.5 7.402344-16.5 16.5s7.402344 16.5 16.5 16.5h99.910156c5.789063 0 10.5 4.707031 10.5 10.5 0 5.789062-4.710937 10.5-10.5 10.5h-99.910156c-9.097656 0-16.5 7.402344-16.5 16.5s7.402344 16.5 16.5 16.5h99.910156c5.789063 0 10.5 4.707031 10.5 10.5 0 5.789062-4.710937 10.5-10.5 10.5h-99.910156c-9.097656 0-16.5 7.402344-16.5 16.5s7.402344 16.5 16.5 16.5h141.742188c39.015624 0 70.757812-31.742188 70.757812-70.757812v-215.484376c0-39.015624-31.742188-70.757812-70.757812-70.757812zm0 0" fill="#3a312a"/><path d="m381.238281 94.9375h-30c35.703125 0 64.761719 29.039062 64.761719 64.757812v215.480469c0 35.71875-29.058594 64.761719-64.761719 64.761719h30c35.703125 0 64.761719-29.042969 64.761719-64.761719v-215.480469c0-35.71875-29.058594-64.757812-64.761719-64.757812zm0 0" fill="#695b51"/><path d="m185.019531 305.753906c-2.222656 25.375-28.6875 29.289063-28.6875 29.289063 22.707031 1.148437 28.265625 30.957031 28.265625 30.957031.554688-21.238281 29.34375-31.074219 29.34375-31.074219-21.535156-1.363281-28.921875-29.171875-28.921875-29.171875zm0 0" fill="#d7e057"/><path d="m214.128906 331.933594c-19.09375-1.210938-26.140625-26.699219-26.210937-26.957032-.375-1.40625-1.710938-2.339843-3.160157-2.210937-1.449218.125-2.601562 1.273437-2.726562 2.722656-1.988281 22.652344-25.160156 26.4375-26.140625 26.585938-1.527344.226562-2.632813 1.574219-2.554687 3.113281.070312 1.542969 1.300781 2.773438 2.84375 2.851562 20.042968 1.011719 25.414062 28.238282 25.464843 28.511719.269531 1.429688 1.515625 2.445313 2.949219 2.445313.078125 0 .160156 0 .242188-.007813 1.527343-.121093 2.714843-1.375 2.757812-2.910156.496094-18.878906 27.046875-28.222656 27.316406-28.3125 1.351563-.464844 2.191406-1.820313 2-3.238281-.1875-1.417969-1.351562-2.503906-2.78125-2.59375zm-29.871094 23.050781c-.738281-1.753906-1.617187-3.617187-2.660156-5.492187-3.878906-6.96875-8.832031-11.949219-14.617187-14.765626 6.644531-3.039062 14.785156-8.679687 18.761719-18.828124 3.378906 6.9375 9.355468 15.835937 18.921874 19.894531-6.785156 3.59375-15.945312 9.875-20.40625 19.191406zm0 0" fill="#3a312a"/><path d="m137.265625 342.859375c-1.574219 17.949219-20.292969 20.71875-20.292969 20.71875 16.058594.8125 19.992188 21.894531 19.992188 21.894531.394531-15.019531 20.753906-21.976562 20.753906-21.976562-15.230469-.964844-20.453125-20.636719-20.453125-20.636719zm0 0" fill="#d7e057"/><path d="m157.910156 360.503906c-12.863281-.816406-17.699218-18.242187-17.746094-18.417968-.375-1.40625-1.714843-2.335938-3.15625-2.214844-1.453124.125-2.605468 1.277344-2.730468 2.730468-1.339844 15.308594-17.078125 17.910157-17.742188 18.011719-1.523437.226563-2.632812 1.570313-2.554687 3.109375.074219 1.542969 1.304687 2.773438 2.84375 2.851563 13.476562.683593 17.15625 19.269531 17.195312 19.449219.265625 1.429687 1.511719 2.449218 2.945313 2.449218.082031 0 .160156-.003906.242187-.007812 1.527344-.121094 2.722657-1.375 2.761719-2.910156.332031-12.738282 18.546875-19.15625 18.730469-19.21875 1.351562-.464844 2.1875-1.820313 1.996093-3.238282-.195312-1.417968-1.355468-2.503906-2.785156-2.59375zm-21.101562 15.160156c-2.042969-4.359374-5.289063-9.242187-10.269532-12.25 4.3125-2.308593 8.65625-5.960937 11.292969-11.363281 2.347657 4.324219 6.015625 9.265625 11.414063 12.117188-4.257813 2.453125-9.335938 6.234375-12.4375 11.496093zm0 0" fill="#3a312a"/><path d="m137.464844 284.351562c-1.574219 17.945313-20.292969 20.714844-20.292969 20.714844 16.058594.8125 19.992187 21.898438 19.992187 21.898438.394532-15.023438 20.757813-21.980469 20.757813-21.980469-15.234375-.960937-20.457031-20.632813-20.457031-20.632813zm0 0" fill="#d7e057"/><path d="m158.109375 301.992188c-12.867187-.8125-17.699219-18.238282-17.746094-18.414063-.378906-1.40625-1.707031-2.335937-3.15625-2.214844-1.453125.125-2.605469 1.277344-2.730469 2.730469-1.34375 15.308594-17.082031 17.910156-17.742187 18.011719-1.527344.222656-2.632813 1.570312-2.554687 3.109375.074218 1.542968 1.300781 2.773437 2.84375 2.851562 13.472656.679688 17.15625 19.269532 17.191406 19.453125.265625 1.429688 1.515625 2.449219 2.949218 2.449219.078126 0 .15625-.003906.238282-.011719 1.53125-.121093 2.722656-1.375 2.761718-2.910156.335938-12.734375 18.546876-19.15625 18.730469-19.21875 1.351563-.464844 2.191407-1.820313 2-3.238281-.195312-1.421875-1.355469-2.507813-2.785156-2.597656zm-21.097656 15.160156c-2.046875-4.355469-5.292969-9.242188-10.273438-12.246094 4.3125-2.308594 8.65625-5.960938 11.292969-11.367188 2.347656 4.328126 6.015625 9.269532 11.414062 12.117188-4.257812 2.457031-9.335937 6.238281-12.433593 11.496094zm0 0" fill="#3a312a"/><path d="m109.058594 24.457031 66.203125.246094c4.992187 0 9.019531-4.003906 9.039062-9l.023438-3.238281c.023437-4.992188-4.003907-9.039063-8.976563-9.039063l-80.777344-.292969-31.804687-.113281-9.988281-.023437c-11.785156-.042969-21.390625 9.492187-21.414063 21.28125 0 0-.132812 35.253906-.320312 82.675781l-.105469 26.644531c-.222656 55.074219-.488281 119.480469-.707031 164.277344-.125 26.199219-7.46875 51.75-20.671875 74.378906-4.167969 7.144532-6.554688 15.457032-6.554688 24.320313 0 14.644531 6.523438 27.78125 16.824219 36.625 8.457031 7.332031 19.480469 11.742187 31.535156 11.742187 12.148438 0 23.238281-4.476562 31.714844-11.878906 10.191406-8.839844 16.648437-21.910156 16.648437-36.484375 0-8.511719-2.199218-16.511719-6.066406-23.457031-12.871094-23.148438-20.589844-48.804688-20.515625-75.289063.054688-18.816406.105469-35.160156.105469-35.160156l101.199219.359375c4.972656.019531 9.019531-4.003906 9.042969-8.976562l.023437-3.261719c0-4.992188-4.003906-9.019531-9-9.039063l-66.199219-.226562c-3.507812-.019532-6.367187-2.878906-6.34375-6.410156 0-1.757813.71875-3.351563 1.890625-4.5 1.148438-1.167969 2.742188-1.867188 4.496094-1.867188l66.199219.222656c4.972656.023438 9.019531-4.003906 9.042968-8.976562l.023438-3.257813c0-4.972656-4.003906-9.019531-9-9.042969l-66.175781-.226562c-3.535157 0-6.390625-2.875-6.367188-6.410156 0-3.507813 2.878907-6.363282 6.386719-6.34375l66.203125.226562c4.992187 0 9.039063-4.003906 9.039063-9l.023437-3.238281c.023437-4.996094-4.003906-9.042969-8.976563-9.042969l-66.199218-.25c-3.53125 0-6.386719-2.875-6.367188-6.386718 0-3.53125 2.878906-6.386719 6.410156-6.367188l66.199219.226562c4.972657.019532 9.019531-4.003906 9.042969-8.976562v-3.261719c.023438-4.972656-4.003906-9.019531-8.976562-9.042969l-66.199219-.222656c-3.53125-.023437-6.386719-2.882812-6.367188-6.410156.023438-1.777344.742188-3.351562 1.890625-4.5 1.148438-1.148438 2.765625-1.867188 4.523438-1.867188l66.199218.222657c4.972657.023437 9.019532-4.003907 9.042969-8.972657v-3.261718c.019531-4.972656-4.003906-9.019532-8.976562-9.042969l-66.199219-.226563c-3.535156 0-6.367188-2.878906-6.367188-6.386718.023438-3.53125 2.878907-6.386719 6.410157-6.367188l66.199219.226563c4.972656.019531 9.019531-4.003907 9.042968-8.976563v-3.261718c.023438-4.972657-4.003906-9.019532-8.972656-9.042969l-66.203125-.222657c-3.53125-.023437-6.363281-2.882812-6.363281-6.410156.019531-3.53125 2.878906-6.367187 6.410156-6.367187l66.199219.222656c4.96875.023437 9.019531-4.003906 9.042969-8.972656l.019531-3.261719c0-4.972656-4.003907-9.019531-8.996094-9.042969l-66.199219-.226562c-3.511718 0-6.367187-2.875-6.347656-6.410157 0-1.753906.722656-3.351562 1.871094-4.496093 1.179687-1.148438 2.777344-1.867188 4.53125-1.867188zm-44.425782 387.390625c-3.554687 3.105469-8.1875 4.972656-13.269531 4.972656-5.039062 0-9.652343-1.84375-13.207031-4.925781-4.316406-3.691406-7.039062-9.179687-7.039062-15.320312 0-7.941407 4.589843-14.824219 11.246093-18.128907 2.699219-1.351562 5.757813-2.117187 9-2.117187 3.261719 0 6.34375.769531 9.0625 2.140625 6.636719 3.328125 11.179688 10.1875 11.179688 18.105469 0 6.097656-2.699219 11.5625-6.972657 15.273437zm0 0" fill="#87796f"/><path d="m109.046875 27.457031 66.210937.246094c6.609376 0 12.015626-5.375 12.042969-11.976563l.019531-3.246093c.015626-3.21875-1.226562-6.25-3.496093-8.53125-2.261719-2.269531-5.273438-3.523438-8.464844-3.523438l-80.777344-.292969-41.792969-.132812h-.097656c-6.472656 0-12.5625 2.511719-17.15625 7.082031-4.613281 4.589844-7.160156 10.695313-7.171875 17.1875l-.324219 82.671875c-.003906 1.65625 1.332032 3.003906 2.988282 3.011719h.011718c1.652344 0 2.996094-1.332031 3-2.988281l.324219-82.679688c.007813-4.894531 1.925781-9.492187 5.402344-12.949218 3.460937-3.441407 8.050781-5.335938 12.929687-5.335938h.074219l122.578125.425781c1.59375 0 3.097656.625 4.222656 1.757813 1.136719 1.140625 1.757813 2.660156 1.75 4.265625l-.019531 3.246093c-.015625 3.3125-2.726562 6.007813-6.03125 6.007813l-66.210937-.246094c-2.476563 0-4.828125.96875-6.640625 2.746094-1.773438 1.769531-2.746094 4.117187-2.746094 6.597656-.019531 2.515625.949219 4.886719 2.722656 6.671875 1.769531 1.78125 4.121094 2.757813 6.609375 2.757813l66.195313.226562c3.316406.015625 6.011719 2.726563 6.011719 6.023438l-.019532 3.265625c-.015625 3.308594-2.707031 5.992187-6.003906 5.992187h-.03125l-66.207031-.226562c-5.15625 0-9.378907 4.195312-9.410157 9.367187 0 5.15625 4.191407 9.378906 9.355469 9.410156l66.195313.222657c3.316406.015625 6.003906 2.71875 5.988281 6.042969v3.246093c-.011719 3.308594-2.703125 5.992188-6.003906 5.992188h-.027344l-66.1875-.226563c-2.453125-.035156-4.878906.953125-6.65625 2.726563-1.773437 1.761719-2.757813 4.113281-2.773437 6.640625 0 5.175781 4.199218 9.386718 9.355468 9.386718l66.195313.226563c3.316406.011719 6.003906 2.71875 5.988281 6.042969v3.246094c-.015625 3.308593-2.703125 5.988281-6.003906 5.988281h-.027344l-66.210938-.222657c-2.472656 0-4.898437 1.003907-6.640624 2.75-1.757813 1.753907-2.738282 4.089844-2.769532 6.597657-.015625 2.511719.953125 4.875 2.726563 6.65625 1.761719 1.773437 4.113281 2.757812 6.632812 2.773437l66.195313.226563c3.316406.015625 6 2.71875 5.988281 6.039062v3.25c-.007813 1.605469-.640625 3.113281-1.78125 4.242188-1.140625 1.132812-2.65625 1.695312-4.253906 1.746093l-66.1875-.226562h-.0625c-2.492188 0-4.835938.96875-6.605469 2.726562-1.78125 1.769532-2.761719 4.128907-2.761719 6.621094-.015625 2.503906.949219 4.859375 2.71875 6.640625 1.773438 1.785157 4.132813 2.765625 6.632813 2.765625l66.210937.25c1.597657 0 3.097657.625 4.226563 1.757813 1.132812 1.140625 1.757812 2.65625 1.746094 4.265625l-.019532 3.257812c0 3.304688-2.710937 6-6.03125 6l-66.191406-.226562c-2.5-.023438-4.863281.949218-6.644531 2.722656-1.785157 1.769531-2.761719 4.121094-2.761719 6.601562-.019531 2.515626.949219 4.882813 2.722656 6.664063 1.773438 1.785156 4.128906 2.765625 6.632813 2.765625l66.171875.226562c3.316406.011719 6.011718 2.726563 6.011718 6.019532l-.023437 3.269531c-.003906 1.605469-.640625 3.113281-1.78125 4.246094-1.128906 1.125-2.628906 1.742187-4.222656 1.742187h-.03125l-66.207031-.226562c-2.53125 0-4.890626.984375-6.597657 2.726562-1.800781 1.761719-2.792969 4.121094-2.792969 6.621094-.03125 5.167969 4.152344 9.398438 9.335938 9.429688l66.195312.222656c3.316407.015625 6.011719 2.726562 6.011719 6.023437l-.023437 3.269531c-.011719 3.308594-2.703125 5.988282-6.003906 5.988282h-.027344l-101.199219-.363282c-.808594.039063-1.558594.3125-2.125.875-.566406.558594-.882813 1.320313-.886719 2.117188l-.105468 35.164062c-.074219 25.867188 6.957031 51.691407 20.894531 76.753907 3.722656 6.6875 5.6875 14.296875 5.6875 21.996093 0 13.140626-5.691407 25.613282-15.621094 34.226563-8.226563 7.183594-18.792969 11.136719-29.742187 11.136719-10.882813 0-21.382813-3.910156-29.582032-11.019532-10.027344-8.605468-15.78125-21.121093-15.78125-34.34375 0-8.027343 2.125-15.914062 6.148438-22.808593 13.664062-23.425781 20.957031-49.664063 21.082031-75.878907.21875-44.796874.488281-109.203124.710937-164.277343.003907-1.65625-1.332031-3.003907-2.988281-3.011719-1.714843.019531-3.003906 1.332031-3.011719 2.984375-.222656 55.074219-.492187 119.480469-.710937 164.277344-.121094 25.164062-7.128906 50.363281-20.265625 72.882812-4.5625 7.816407-6.96875 16.746094-6.96875 25.835938 0 14.972656 6.515625 29.148437 17.859375 38.886719 9.277344 8.046874 21.175781 12.476562 33.503906 12.476562 12.402344 0 24.363281-4.480469 33.679688-12.613281 11.238281-9.746094 17.679687-23.871094 17.679687-38.75 0-8.722657-2.226562-17.339844-6.441406-24.914063-13.433594-24.152344-20.207031-48.992187-20.136719-73.820312l.09375-32.160156 98.195313.347656h.054687c6.589844 0 11.972657-5.351563 12-11.953125l.023438-3.28125c0-6.609375-5.375-12.015625-11.988281-12.042969l-66.1875-.222656c-1.867188-.011719-3.375-1.535156-3.367188-3.414063 0-.894531.351562-1.730469 1.03125-2.398437.613281-.621094 1.449219-.96875 2.347656-.96875l66.195313.226562c3.128906-.027344 6.226562-1.226562 8.503906-3.488281 2.277344-2.257813 3.539063-5.269531 3.554687-8.464844l.019532-3.285156c0-6.609375-5.375-12.011719-11.988282-12.039063l-66.183593-.226562c-.902344 0-1.75-.351562-2.386719-.996094-.636719-.640625-.988281-1.492187-.980469-2.417968 0-.890626.351563-1.730469.992188-2.363282.640625-.636718 1.386719-.96875 2.386719-.980468l66.210937.226562c6.640625 0 12.042969-5.382812 12.042969-11.976562l.019531-3.246094c.015625-3.222656-1.226563-6.253906-3.496094-8.53125-2.261719-2.273438-5.273437-3.527344-8.464843-3.527344l-66.210938-.246094c-.902344 0-1.75-.355468-2.390625-.996094-.632813-.636718-.980469-1.480468-.972656-2.390624 0-.902344.351562-1.75.992187-2.386719.636719-.628907 1.480469-.980469 2.386719-.980469h.023437l66.195313.226562h.058594c3.183593 0 6.179687-1.238281 8.445312-3.488281 2.273438-2.257812 3.539063-5.269531 3.550781-8.488281v-3.246094c.03125-6.617187-5.335937-12.027344-11.964843-12.054687l-66.1875-.226563c-.914063-.003906-1.769531-.363281-2.410157-1.003906-.636718-.640625-.980468-1.488281-.976562-2.367188.011719-.917968.371094-1.777343 1.011719-2.414062.628906-.628906 1.503906-.988281 2.390625-.988281l66.195312.222656c6.617188.09375 12.023438-5.335937 12.054688-11.972656v-3.25c.03125-6.617188-5.335938-12.027344-11.964844-12.054688l-66.210938-.226562c-1.855468 0-3.363281-1.519531-3.363281-3.367188.003907-.914062.363281-1.769531 1.003907-2.410156.636718-.632813 1.488281-.945313 2.394531-.976563l66.195312.226563c6.585938.003906 12.027344-5.335937 12.054688-11.976563v-3.25c.03125-6.617187-5.335938-12.023437-11.964844-12.054687l-66.1875-.226563c-1.867187-.011718-3.386719-1.542968-3.386719-3.394531.011719-1.867187 1.542969-3.382812 3.402344-3.382812l66.195312.222656h.054688c6.59375 0 11.972656-5.351563 12.003906-11.953125l.019532-3.285156c0-6.609375-5.375-12.011719-11.988282-12.039063l-66.207031-.226562c-.890625 0-1.726563-.351563-2.359375-.988281-.640625-.644532-.992188-1.5-.984375-2.421876 0-.894531.351563-1.742187.96875-2.355468.660156-.652344 1.519531-1.007813 2.40625-1.007813zm-72.851563 386.703125c4.207032 3.648438 9.59375 5.660156 15.167969 5.660156 5.609375 0 11.019531-2.027343 15.238281-5.707031 5.085938-4.417969 8.003907-10.8125 8.003907-17.539062 0-8.851563-4.917969-16.816407-12.828125-20.785157-3.234375-1.632812-6.738282-2.460937-10.414063-2.460937-3.585937 0-7.160156.84375-10.332031 2.429687-7.964844 3.957032-12.914062 11.933594-12.914062 20.816407 0 6.789062 2.949218 13.207031 8.078124 17.585937zm7.511719-33.03125c2.386719-1.195312 4.957031-1.800781 7.65625-1.800781 2.726563 0 5.324219.613281 7.714844 1.820313 5.878906 2.949218 9.527344 8.859374 9.527344 15.425781 0 4.988281-2.164063 9.730469-5.941407 13.007812 0 0-.003906.003907-.003906.003907-3.125 2.726562-7.136718 4.230468-11.296875 4.230468-4.128906 0-8.121093-1.488281-11.257812-4.207031-3.804688-3.25-5.988281-8.003906-5.988281-13.039063 0-6.589843 3.671874-12.503906 9.589843-15.441406zm0 0" fill="#3a312a"/></svg>