<svg height="452pt" viewBox="0 -1 452.00005 452" width="452pt" xmlns="http://www.w3.org/2000/svg"><path d="m298.941406 220.625c-.621094-.019531-1.242187-.019531-1.863281-.019531h-.097656c-1.339844-.019531-2.679688-.058594-4.039063-.140625h-.242187c-.160157 0-.320313-.019532-.480469-.039063h-.140625c-10.816406-.480469-21.316406-1.820312-31.398437-3.980469l-.398438 113.300782-.054688 16.222656-.089843 26.660156-.074219 21.875c-.039062 7.179688 5.78125 13 12.960938 13.019532l59.179687.222656c6.378906.039062 11.839844-4.601563 12.878906-10.921875l31.019531-191.117188c-22.5625 9.757813-48.980468 15.238281-77.160156 14.917969zm0 0" fill="#8ac6dd"/><path d="m377.945312 203.339844c-.871093-.675782-2.03125-.824219-3.039062-.386719-22.890625 9.902344-49.097656 14.949219-75.875 14.675781-.652344-.023437-1.292969-.027344-2.007812-.023437-1.296876-.019531-2.59375-.058594-4.085938-.140625l-.339844-.015625c-.082031-.011719-.304687-.019531-.386718-.023438-10.566407-.464843-20.964844-1.785156-30.902344-3.914062-.886719-.195313-1.804688.03125-2.511719.597656-.703125.566406-1.113281 1.421875-1.117187 2.324219l-.457032 129.527344c-.007812 1.65625 1.332032 3.003906 2.988282 3.007812h.011718c1.652344 0 2.992188-1.335938 3-2.988281l.441406-125.863281c9.15625 1.769531 18.652344 2.878906 28.28125 3.304687.015626.003906.042969.003906.082032.003906.226562.023438.449218.042969.671875.042969l.0625-.003906c1.402343.082031 2.785156.121094 4.3125.144531.613281.003906 1.183593 0 1.828125.019531 25.652344.296875 50.933594-4.222656 73.375-13.089844l-30.160156 185.804688c-.800782 4.878906-4.933594 8.40625-9.84375 8.40625h-.0625l-59.183594-.21875c-2.6875-.011719-5.207032-1.0625-7.089844-2.960938-1.875-1.886718-2.894531-4.390624-2.878906-7.050781l.074218-21.875c.007813-1.65625-1.332031-3.003906-2.988281-3.007812-1.722656.058593-3.003906 1.332031-3.011719 2.988281l-.074218 21.871094c-.023438 4.261718 1.617187 8.273437 4.617187 11.300781 3.019531 3.042969 7.042969 4.722656 11.332031 4.738281l59.171876.21875h.101562c7.855469 0 14.472656-5.632812 15.757812-13.441406l31.019532-191.117188c.175781-1.09375-.25-2.183593-1.113282-2.855468zm0 0" fill="#3a312a"/><path d="m153.179688 116.964844c-1.960938-30.058594 12.660156-57.558594 37.699218-78.019532l-58.015625 10.488282-25.410156 3.78125-35.875 5.332031-.339844 109.261719 123.183594 19.140625c-24.082031-18.445313-39.464844-43.003907-41.242187-69.984375zm0 0" fill="#8ac6dd"/><path d="m196.242188 184.566406c-24.175782-18.515625-38.40625-42.589844-40.066407-67.796875-1.824219-27.914062 11.175781-54.726562 36.601563-75.5 1.058594-.863281 1.398437-2.335937.828125-3.578125-.574219-1.242187-1.929688-1.9375-3.257813-1.695312l-58.023437 10.488281c-1.628907.296875-2.710938 1.855469-2.417969 3.488281.296875 1.628906 1.867188 2.707032 3.484375 2.417969l47.507813-8.589844c-21.613282 20.898438-32.457032 46.609375-30.710938 73.363281 1.574219 23.84375 13.539062 46.652344 33.984375 65.152344l-109.925781-17.078125.324218-104.105469 33.324219-4.953124c1.636719-.246094 2.769531-1.769532 2.527344-3.410157-.242187-1.636719-1.761719-2.757812-3.410156-2.527343l-35.875 5.335937c-1.464844.21875-2.550781 1.476563-2.558594 2.957031l-.339844 109.261719c-.003906 1.484375 1.074219 2.746094 2.542969 2.972656l123.179688 19.140625c.15625.023438.308593.035156.464843.035156 1.183594 0 2.277344-.703124 2.753907-1.820312.535156-1.261719.152343-2.726562-.9375-3.558594zm0 0" fill="#3a312a"/><path d="m3.5 24.398438-.503906 172.890624 68.257812-29.476562.3125-109.25zm0 0" fill="#8ac6dd"/><path d="m72.914062 55.878906-68.066406-34.160156c-.925781-.46875-2.035156-.417969-2.917968.125-.886719.542969-1.425782 1.507812-1.429688 2.546875l-.5 172.890625c-.00390625 1.011719.503906 1.953125 1.347656 2.511719.5.328125 1.074219.496093 1.652344.496093.402344 0 .808594-.082031 1.191406-.246093l68.25-29.476563c1.097656-.472656 1.804688-1.554687 1.8125-2.746094l.3125-109.253906c.003906-1.132812-.632812-2.175781-1.652344-2.6875zm-4.65625 109.957032-62.242187 26.882812.46875-163.464844 62.078125 31.15625zm0 0" fill="#3a312a"/><path d="m230.65625 254.414062c-4.894531-.015624-8.878906 3.9375-8.894531 8.835938l-.144531 42.921875c-.015626 4.894531 3.9375 8.878906 8.835937 8.894531l29.875.101563.207031-60.652344zm0 0" fill="#d7e057"/><path d="m262.664062 252.402344c-.558593-.566406-1.320312-.882813-2.121093-.886719l-29.875-.101563h-.042969c-6.519531 0-11.839844 5.296876-11.863281 11.824219l-.148438 42.921875c-.011719 3.171875 1.210938 6.15625 3.449219 8.40625 2.230469 2.246094 5.207031 3.492188 8.378906 3.503906l29.875.101563h.007813c1.652343 0 2.996093-1.335937 3-2.992187l.210937-60.652344c.003906-.796875-.3125-1.5625-.871094-2.125zm-5.328124 59.757812-26.875-.09375c-1.566407-.003906-3.035157-.617187-4.144532-1.730468-1.101562-1.113282-1.707031-2.589844-1.703125-4.15625l.148438-42.917969c.011719-3.226563 2.636719-5.847657 5.863281-5.847657h.023438l26.878906.09375zm0 0" fill="#3a312a"/><path d="m273.566406 407.546875-.101562 29.984375c-.019532 5.445312 4.382812 9.875 9.828125 9.894531l34.648437.121094c5.445313.015625 9.875-4.382813 9.898438-9.828125l.101562-29.988281zm0 0" fill="#87796f"/><path d="m330.066406 405.617188c-.558594-.5625-1.320312-.882813-2.117187-.886719l-54.375-.183594h-.011719c-1.652344 0-2.992188 1.335937-3 2.988281l-.101562 29.988282c-.023438 7.09375 5.726562 12.878906 12.816406 12.90625l34.652344.121093h.042968c3.417969 0 6.636719-1.328125 9.0625-3.738281 2.4375-2.417969 3.785156-5.644531 3.796875-9.082031l.105469-29.984375c.003906-.796875-.308594-1.5625-.871094-2.128906zm-5.230468 32.09375c-.007813 1.832031-.722657 3.550781-2.027344 4.84375-1.296875 1.289062-3.101563 2.054687-4.859375 1.992187l-34.648438-.121094c-3.785156-.011719-6.851562-3.101562-6.839843-6.882812l.09375-26.984375 48.375.164062zm0 0" fill="#3a312a"/><path d="m147.199219 297.042969c-2.023438 23.121093-26.140625 26.691406-26.140625 26.691406 20.691406 1.042969 25.753906 28.203125 25.753906 28.203125.507812-19.351562 26.738281-28.3125 26.738281-28.3125-19.621093-1.238281-26.351562-26.582031-26.351562-26.582031zm0 0" fill="#d7e057"/><path d="m173.742188 320.632812c-17.207032-1.085937-23.582032-24.128906-23.644532-24.363281-.375-1.402343-1.730468-2.332031-3.160156-2.210937-1.449219.125-2.597656 1.273437-2.726562 2.726562-1.789063 20.421875-22.707032 23.847656-23.589844 23.980469-1.527344.226563-2.632813 1.574219-2.558594 3.113281.074219 1.542969 1.304688 2.773438 2.847656 2.851563 18.050782.914062 22.90625 25.515625 22.957032 25.765625.269531 1.425781 1.515624 2.441406 2.945312 2.441406.082031 0 .160156 0 .242188-.007812 1.53125-.125 2.71875-1.375 2.757812-2.910157.453125-17.015625 24.472656-25.472656 24.714844-25.554687 1.351562-.464844 2.191406-1.820313 2-3.238282-.191406-1.417968-1.355469-2.503906-2.785156-2.59375zm-27.203126 20.601563c-2.691406-6.269531-7.371093-13.839844-15.113281-17.808594 5.871094-2.789062 12.847657-7.78125 16.460938-16.488281 3.078125 6.152344 8.351562 13.789062 16.609375 17.5-6.027344 3.261719-13.875 8.765625-17.957032 16.796875zm0 0" fill="#3a312a"/><path d="m103.6875 330.855469c-1.433594 16.355469-18.492188 18.878906-18.492188 18.878906 14.632813.738281 18.214844 19.949219 18.214844 19.949219.363282-13.6875 18.914063-20.027344 18.914063-20.027344-13.878907-.875-18.636719-18.800781-18.636719-18.800781zm0 0" fill="#d7e057"/><path d="m122.515625 346.664062c-11.53125-.730468-15.886719-16.425781-15.929687-16.585937-.378907-1.402344-1.703126-2.332031-3.15625-2.210937-1.453126.125-2.605469 1.273437-2.730469 2.726562-1.207031 13.734375-15.347657 16.078125-15.941407 16.171875-1.527343.226563-2.628906 1.570313-2.554687 3.113281.074219 1.539063 1.304687 2.773438 2.84375 2.851563 12.066406.609375 15.386719 17.339843 15.417969 17.503906.265625 1.429687 1.515625 2.449219 2.945312 2.449219.078125 0 .160156-.003906.238282-.011719 1.535156-.121094 2.722656-1.375 2.761718-2.910156.300782-11.417969 16.726563-17.210938 16.886719-17.265625 1.355469-.460938 2.195313-1.820313 2.003906-3.238282-.191406-1.417968-1.355469-2.503906-2.785156-2.59375zm-19.21875 13.523438c-1.832031-3.777344-4.652344-7.90625-8.855469-10.585938 3.714844-2.070312 7.410156-5.234374 9.773438-9.796874 2.101562 3.753906 5.28125 7.925781 9.847656 10.480468-3.707031 2.183594-7.996094 5.449219-10.765625 9.902344zm0 0" fill="#3a312a"/><path d="m103.867188 277.542969c-1.433594 16.351562-18.488282 18.875-18.488282 18.875 14.632813.738281 18.214844 19.953125 18.214844 19.953125.359375-13.691406 18.914062-20.027344 18.914062-20.027344-13.878906-.878906-18.640624-18.800781-18.640624-18.800781zm0 0" fill="#d7e057"/><path d="m122.699219 293.347656c-11.488281-.722656-15.855469-16.308594-15.929688-16.578125-.378906-1.40625-1.6875-2.328125-3.15625-2.214843-1.453125.125-2.605469 1.273437-2.730469 2.726562-1.207031 13.738281-15.351562 16.082031-15.941406 16.175781-1.527344.222657-2.632812 1.570313-2.558594 3.109375.074219 1.542969 1.304688 2.773438 2.847657 2.851563 12.066406.613281 15.386719 17.339843 15.417969 17.503906.265624 1.429687 1.515624 2.453125 2.949218 2.453125.078125 0 .15625-.003906.238282-.011719 1.53125-.121093 2.71875-1.378906 2.761718-2.910156.296875-11.417969 16.71875-17.210937 16.882813-17.269531 1.355469-.460938 2.195312-1.816406 2-3.234375-.191407-1.421875-1.355469-2.511719-2.78125-2.601563zm-19.21875 13.527344c-1.835938-3.78125-4.652344-7.910156-8.855469-10.589844 3.71875-2.070312 7.410156-5.234375 9.773438-9.800781 2.101562 3.753906 5.285156 7.925781 9.847656 10.480469-3.707032 2.1875-7.996094 5.453125-10.765625 9.910156zm0 0" fill="#3a312a"/><path d="m448.820312 106.65625c-3.621093-55.292969-64.5625-100.425781-139.746093-103.484375-87.804688-3.574219-160.125 49.21875-155.890625 113.800781 3.621094 55.296875 64.5625 100.429688 139.746094 103.484375 87.804687 3.574219 160.117187-49.21875 155.890624-113.800781zm0 0" fill="#8ac6dd"/><path d="m451.8125 106.460938c-1.804688-27.636719-17.519531-53.757813-44.242188-73.546876-26.480468-19.609374-61.417968-31.234374-98.371093-32.738281-51.632813-2.121093-100.554688 15.121094-130.75 46.070313-20.175781 20.675781-29.945313 45.203125-28.261719 70.925781 1.808594 27.636719 17.523438 53.757813 44.25 73.546875 26.476562 19.609375 61.414062 31.238281 98.371094 32.738281 2.832031.117188 5.652344.171875 8.46875.171875 48.503906 0 93.738281-16.988281 122.273437-46.238281 20.171875-20.679687 29.945313-45.207031 28.261719-70.929687zm-32.554688 66.738281c-29.023437 29.746093-76.21875 46.277343-126.207031 44.261719-73.25-2.980469-133.371093-47.207032-136.875-100.6875-1.570312-23.972657 7.617188-46.914063 26.566407-66.34375 27.421874-28.109376 71.050781-44.429688 117.957031-44.429688 2.742187 0 5.496093.054688 8.253906.167969 73.25 2.980469 133.371094 47.207031 136.871094 100.683593 1.570312 23.976563-7.617188 46.917969-26.566407 66.347657zm0 0" fill="#3a312a"/><path d="m351.671875 58.871094c-29.238281-29.238282-76.644531-29.238282-105.882813 0-29.242187 29.242187-29.242187 76.648437 0 105.886718 29.238282 29.238282 76.644532 29.238282 105.882813 0 29.238281-29.238281 29.238281-76.644531 0-105.886718zm0 0" fill="#fce8cb"/><path d="m298.730469 33.941406c-42.9375 0-77.871094 34.933594-77.871094 77.871094s34.933594 77.871094 77.871094 77.871094c42.941406 0 77.875-34.933594 77.875-77.871094s-34.933594-77.871094-77.875-77.871094zm0 149.742188c-39.625 0-71.871094-32.238282-71.871094-71.871094 0-39.628906 32.242187-71.871094 71.871094-71.871094 39.628906 0 71.875 32.242188 71.875 71.871094 0 39.632812-32.242188 71.871094-71.875 71.871094zm0 0" fill="#3a312a"/><path d="m298.910156 109.40625c-14.28125 0-25.855468 14.058594-25.855468 25.910156 0 11.855469 11.574218 13.921875 25.855468 13.921875s25.855469-2.066406 25.855469-13.921875c.003906-11.851562-11.574219-25.910156-25.855469-25.910156zm0 0" fill="#87796f"/><path d="m298.910156 106.40625c-16.25 0-28.855468 15.542969-28.855468 28.914062 0 16.921876 19.488281 16.921876 28.855468 16.921876 9.367188 0 28.859375 0 28.859375-16.921876 0-13.371093-12.609375-28.914062-28.859375-28.914062zm0 39.835938c-18.96875 0-22.855468-4.367188-22.855468-10.921876 0-10.316406 10.546874-22.914062 22.855468-22.914062s22.859375 12.597656 22.859375 22.914062c0 6.554688-3.890625 10.921876-22.859375 10.921876zm0 0" fill="#3a312a"/><path d="m298.910156 74.382812c-5.59375 0-10.125 5.820313-10.125 12.996094 0 7.179688 4.53125 12.996094 10.125 12.996094s10.125-5.816406 10.125-12.996094c0-7.175781-4.53125-12.996094-10.125-12.996094zm0 0" fill="#87796f"/><path d="m298.910156 71.382812c-7.234375 0-13.125 7.175782-13.125 15.996094 0 8.820313 5.886719 15.996094 13.125 15.996094 7.238282 0 13.125-7.175781 13.125-15.996094.003906-8.820312-5.886718-15.996094-13.125-15.996094zm0 25.992188c-3.863281 0-7.125-4.578125-7.125-9.996094 0-5.417968 3.261719-9.996094 7.125-9.996094 3.863282 0 7.125 4.578126 7.125 9.996094 0 5.417969-3.261718 9.996094-7.125 9.996094zm0 0" fill="#3a312a"/><path d="m279.042969 92.941406c-3.351563-6.347656-10.078125-9.371094-15.023438-6.761718-4.945312 2.613281-6.234375 9.875-2.882812 16.222656 3.351562 6.34375 10.082031 9.371094 15.023437 6.757812 4.945313-2.609375 6.234375-9.871094 2.882813-16.21875zm0 0" fill="#87796f"/><path d="m281.695312 91.542969c-1.929687-3.65625-4.890624-6.527344-8.335937-8.074219-3.699219-1.667969-7.511719-1.644531-10.738281.0625-3.230469 1.703125-5.398438 4.84375-6.109375 8.835938-.660157 3.71875.039062 7.78125 1.972656 11.4375 1.929687 3.65625 4.890625 6.523437 8.335937 8.074218 1.824219.820313 3.679688 1.230469 5.476563 1.230469 1.84375 0 3.628906-.433594 5.261719-1.292969 3.230468-1.707031 5.398437-4.84375 6.109375-8.839844.660156-3.71875-.039063-7.777343-1.972657-11.433593zm-3.933593 10.382812c-.378907 2.132813-1.449219 3.761719-3 4.585938-1.554688.820312-3.5.785156-5.480469-.105469-2.230469-1.003906-4.179688-2.921875-5.492188-5.402344-1.308593-2.484375-1.796874-5.175781-1.367187-7.585937.375-2.128907 1.445313-3.757813 3-4.582031.742187-.394532 1.582031-.589844 2.464844-.589844.960937 0 1.980469.230468 3.007812.695312 2.234375 1.003906 4.183594 2.921875 5.496094 5.402344s1.796875 5.175781 1.371094 7.582031zm0 0" fill="#3a312a"/><path d="m258.203125 112.253906c-5.714844-4.339844-13.089844-4.25-16.476563.203125-3.382812 4.449219-1.492187 11.582031 4.222657 15.925781 5.710937 4.339844 13.089843 4.25 16.472656-.203124 3.382813-4.453126 1.496094-11.582032-4.21875-15.925782zm0 0" fill="#87796f"/><path d="m266.625 119.40625c-.964844-3.648438-3.3125-7.039062-6.605469-9.539062-7.023437-5.335938-16.296875-4.988282-20.679687.773437-4.378906 5.761719-2.226563 14.789063 4.796875 20.125 3.332031 2.535156 7.175781 3.789063 10.757812 3.789063 3.96875 0 7.621094-1.535157 9.917969-4.558594 2.207031-2.90625 2.851562-6.667969 1.8125-10.589844zm-6.589844 6.960938c-2.335937 3.070312-7.957031 2.902343-12.269531-.375-4.3125-3.277344-5.984375-8.648438-3.648437-11.722657 1.117187-1.472656 2.988281-2.199219 5.109374-2.199219 2.308594 0 4.914063.863282 7.164063 2.574219 2.234375 1.695313 3.808594 3.933594 4.433594 6.300781.554687 2.09375.277343 4.019532-.789063 5.421876zm0 0" fill="#3a312a"/><path d="m333.960938 86.183594c-4.945313-2.613282-11.671876.414062-15.023438 6.761718-3.351562 6.34375-2.0625 13.605469 2.882812 16.21875 4.945313 2.609376 11.671876-.414062 15.023438-6.761718 3.351562-6.34375 2.0625-13.605469-2.882812-16.21875zm0 0" fill="#87796f"/><path d="m341.46875 92.367188c-.710938-3.992188-2.878906-7.132813-6.109375-8.835938-3.222656-1.707031-7.039063-1.730469-10.738281-.0625-3.445313 1.546875-6.40625 4.414062-8.335938 8.074219-1.933594 3.65625-2.632812 7.714843-1.972656 11.433593.710938 3.996094 2.878906 7.132813 6.105469 8.839844 1.632812.863282 3.40625 1.269532 5.214843 1.269532 5.265626 0 10.792969-3.472657 13.863282-9.28125 1.933594-3.65625 2.632812-7.71875 1.972656-11.4375zm-7.277344 8.632812c-2.535156 4.789062-7.554687 7.308594-10.96875 5.507812-1.554687-.820312-2.621094-2.449218-3-4.582031-.429687-2.410156.058594-5.101562 1.371094-7.585937 1.308594-2.480469 3.261719-4.398438 5.492188-5.402344 1.027343-.460938 2.046874-.695312 3.007812-.695312.886719 0 1.722656.195312 2.46875.589843 1.554688.820313 2.621094 2.449219 3 4.582031.425781 2.414063-.058594 5.105469-1.371094 7.585938zm0 0" fill="#3a312a"/><path d="m355.734375 112.457031c-3.382813-4.453125-10.757813-4.542969-16.472656-.203125-5.714844 4.34375-7.605469 11.472656-4.21875 15.925782 3.382812 4.453124 10.757812 4.542968 16.472656.203124 5.714844-4.34375 7.605469-11.476562 4.21875-15.925781zm0 0" fill="#87796f"/><path d="m358.125 110.640625c-4.378906-5.761719-13.652344-6.109375-20.675781-.773437-3.292969 2.503906-5.640625 5.890624-6.609375 9.542968-1.039063 3.921875-.394532 7.679688 1.8125 10.585938 2.210937 2.90625 5.660156 4.535156 9.714844 4.582031h.1875c3.714843 0 7.539062-1.347656 10.773437-3.808594 7.023437-5.335937 9.175781-14.367187 4.796875-20.128906zm-8.421875 15.351563c-2.203125 1.667968-4.734375 2.585937-7.144531 2.585937-.039063 0-.078125 0-.117188 0-2.164062-.023437-3.945312-.8125-5.007812-2.210937-1.066406-1.402344-1.347656-3.328126-.792969-5.421876.628906-2.367187 2.207031-4.605468 4.4375-6.300781 4.316406-3.277343 9.933594-3.445312 12.273437-.375 2.332032 3.074219.664063 8.445313-3.648437 11.722657zm0 0" fill="#3a312a"/><path d="m294.917969 410.726562-.078125 26.980469c0 1.839844-.722656 3.558594-2.023438 4.839844-1.019531 1.019531-2.277344 1.660156-3.660156 1.898437l28.800781.101563h.019531c1.820313 0 3.542969-.703125 4.839844-2 1.300782-1.28125 2.023438-3 2.023438-4.839844l.078125-26.980469zm0 0" fill="#695b51"/><g fill="#6ca8bf"><path d="m371.816406 210.707031c-2.320312.898438-4.679687 1.757813-7.058594 2.578125-.460937.160156-.917968.320313-1.398437.480469-2.460937.820313-4.960937 1.578125-7.480469 2.300781l-1.140625.359375c-2.78125.757813-5.601562 1.480469-8.441406 2.140625-.140625.039063-.257813.058594-.378906.097656-1.699219.382813-3.421875.761719-5.140625 1.082032l-28.660156 176.597656c-.71875 4.402344-4.160157 7.703125-8.4375 8.300781l28.539062.101563h.058594c4.902344 0 9.039062-3.519532 9.839844-8.402344l30.160156-185.820312c-.15625.0625-.320313.121093-.460938.183593zm0 0"/><path d="m445.816406 106.84375c-3.5-53.457031-63.617187-97.699219-136.859375-100.679688-2.757812-.117187-5.519531-.160156-8.257812-.160156-5 0-9.980469.179688-14.902344.5625 70.121094 5.359375 126.621094 48.5 130.019531 100.277344 1.582032 23.980469-7.617187 46.921875-26.558594 66.363281-24.480468 25.078125-61.878906 40.777344-103.019531 43.859375 2.257813.179688 4.539063.300782 6.820313.398438 50.019531 2.019531 97.179687-14.519532 126.199218-44.257813 18.941407-19.441406 28.140626-42.382812 26.558594-66.363281zm0 0"/></g></svg>