<svg height="452pt" viewBox="-32 0 452 452.36" width="452pt" xmlns="http://www.w3.org/2000/svg"><path d="m65.003906 22.691406c-1.886718 23.132813-25.976562 26.851563-25.976562 26.851563 20.695312.917969 25.925781 28.046875 25.925781 28.046875.390625-19.355469 26.566406-28.480469 26.566406-28.480469-19.632812-1.117187-26.515625-26.417969-26.515625-26.417969zm0 0" fill="#d7e057"/><path d="m91.691406 46.117188c-17.214844-.984376-23.730468-23.984376-23.792968-24.21875-.386719-1.402344-1.730469-2.328126-3.175782-2.191407-1.449218.136719-2.589844 1.289063-2.707031 2.742188-1.664063 20.433593-22.5625 23.988281-23.441406 24.125-1.527344.238281-2.625 1.589843-2.539063 3.128906.082032 1.539063 1.320313 2.765625 2.863282 2.835937 18.054687.800782 23.0625 25.371094 23.113281 25.621094.277343 1.417969 1.519531 2.425782 2.941406 2.425782.085937 0 .171875-.003907.261719-.011719 1.527344-.128907 2.710937-1.390625 2.738281-2.925781.34375-17.015626 24.316406-25.621094 24.558594-25.703126 1.347656-.476562 2.175781-1.835937 1.976562-3.25-.199219-1.417968-1.371093-2.496093-2.796875-2.578124zm-27.078125 20.765624c-2.730469-6.253906-7.453125-13.792968-15.222656-17.710937 5.855469-2.824219 12.796875-7.863281 16.359375-16.589844 3.121094 6.132813 8.4375 13.738281 16.714844 17.398438-6.003906 3.296875-13.820313 8.847656-17.851563 16.902343zm0 0" fill="#3a312a"/><path d="m21.699219 56.773438c-1.332031 16.359374-18.371094 18.992187-18.371094 18.992187 14.636719.644531 18.335937 19.835937 18.335937 19.835937.277344-13.691406 18.789063-20.144531 18.789063-20.144531-13.882813-.792969-18.753906-18.683593-18.753906-18.683593zm0 0" fill="#d7e057"/><path d="m40.625 72.464844c-11.515625-.660156-15.972656-16.273438-16.035156-16.484375-.382813-1.40625-1.722656-2.335938-3.167969-2.195313-1.453125.132813-2.597656 1.289063-2.714844 2.742188-1.117187 13.746094-15.25 16.175781-15.839843 16.269531-1.523438.238281-2.621094 1.589844-2.535157 3.128906.082031 1.539063 1.320313 2.765625 2.859375 2.835938 12.074219.535156 15.496094 17.246093 15.527344 17.410156.273438 1.421875 1.519531 2.429687 2.941406 2.429687.085938 0 .171875-.003906.257813-.007812 1.53125-.132812 2.714843-1.394531 2.746093-2.929688.226563-11.421874 16.613282-17.3125 16.777344-17.371093 1.351563-.46875 2.179688-1.832031 1.984375-3.25-.199219-1.417969-1.375-2.5-2.800781-2.578125zm-19.132812 13.640625c-1.859376-3.765625-4.703126-7.882813-8.921876-10.535157 3.707032-2.089843 7.378907-5.277343 9.714844-9.859374 2.125 3.742187 5.328125 7.894531 9.910156 10.421874-3.695312 2.210938-7.960937 5.5-10.703124 9.972657zm0 0" fill="#3a312a"/><path d="m21.550781 3.457031c-1.332031 16.359375-18.371093 18.992188-18.371093 18.992188 14.636718.648437 18.335937 19.835937 18.335937 19.835937.277344-13.6875 18.789063-20.140625 18.789063-20.140625-13.882813-.792969-18.753907-18.6875-18.753907-18.6875zm0 0" fill="#d7e057"/><path d="m40.476562 19.148438c-11.511718-.660157-15.96875-16.269532-16.03125-16.484376-.382812-1.402343-1.703124-2.335937-3.167968-2.195312-1.453125.132812-2.597656 1.292969-2.714844 2.742188-1.121094 13.746093-15.246094 16.175781-15.839844 16.269531-1.523437.238281-2.621094 1.589843-2.539062 3.128906.082031 1.539063 1.324218 2.765625 2.863281 2.835937 12.070313.535157 15.492187 17.246094 15.527344 17.410157.273437 1.421875 1.515625 2.429687 2.941406 2.429687.085937 0 .171875-.003906.257813-.007812 1.527343-.132813 2.714843-1.394532 2.742187-2.929688.230469-11.417968 16.617187-17.3125 16.777344-17.371094 1.355469-.46875 2.183593-1.832031 1.984375-3.25-.199219-1.417968-1.371094-2.496093-2.800782-2.578124zm-19.128906 13.644531c-1.859375-3.765625-4.703125-7.882813-8.921875-10.535157 3.703125-2.09375 7.378907-5.28125 9.710938-9.859374 2.128906 3.742187 5.332031 7.894531 9.914062 10.417968-3.695312 2.210938-7.964843 5.5-10.703125 9.976563zm0 0" fill="#3a312a"/><path d="m226.140625 3.003906c-87.480469.238282-158.203125 71.351563-157.964844 158.832032.078125 28 16.4375 69.035156 38.621094 111.890624l15.0625 27.695313 3.539063 6.445313c30.222656 52.992187 65.128906 104.253906 85.277343 132.855468 8.140625 11.550782 25.261719 11.503906 33.335938-.09375 40.519531-58.191406 141.15625-209.789062 140.964843-279.664062-.242187-87.480469-71.355468-158.203125-158.835937-157.960938zm0 0" fill="#d7e057" fill-rule="evenodd"/><path d="m340.386719 46.960938c-30.460938-30.296876-70.855469-46.960938-113.796875-46.960938-.152344 0-.304688 0-.457032 0-43.113281.117188-83.597656 17.019531-114 47.585938-30.398437 30.570312-47.074218 71.144531-46.957031 114.257812.070313 25.351562 13.175781 63.457031 38.957031 113.257812.761719 1.46875 2.570313 2.046876 4.042969 1.285157 1.472657-.761719 2.042969-2.570313 1.285157-4.039063-25.335938-48.949218-38.21875-86.132812-38.285157-110.519531-.113281-41.511719 15.941407-80.578125 45.214844-110.011719 29.269531-29.429687 68.25-45.703125 109.757813-45.8125h.441406c41.34375 0 80.242187 16.046875 109.566406 45.214844 29.433594 29.269531 45.703125 68.25 45.816406 109.757812.0625 22.839844-13.496094 95.648438-140.429687 277.941407-3.28125 4.710937-8.453125 7.425781-14.1875 7.441406h-.050781c-5.714844 0-10.878907-2.683594-14.179688-7.363281-18.613281-26.425782-54.429688-78.792969-85.101562-132.570313l-3.539063-6.445312c-.796875-1.453125-2.617187-1.984375-4.074219-1.1875-1.453125.800781-1.984375 2.621093-1.1875 4.074219l3.566406 6.492187c30.820313 54.035156 66.753907 106.582031 85.429688 133.09375 4.4375 6.296875 11.390625 9.90625 19.082031 9.90625h.066407c7.722656-.019531 14.683593-3.667969 19.101562-10.011719 42.609375-61.195312 141.695312-211.113281 141.5-281.382812-.113281-43.117188-17.015625-83.601563-47.582031-114.003906zm0 0" fill="#3a312a"/><path d="m226.28125 53.992188c-15.933594.042968-31.027344 3.582031-44.609375 9.84375l-25.535156 16.519531c-22.714844 19.753906-37.058594 48.871093-36.96875 81.339843.160156 59.320313 48.382812 107.273438 107.699219 107.113282 59.320312-.164063 107.277343-48.382813 107.117187-107.703125-.164063-59.320313-48.386719-107.277344-107.703125-107.113281zm0 0" fill="#fce8cb" fill-rule="evenodd"/><path d="m226.578125 50.992188h-.304687c-15.960938.042968-31.390626 3.449218-45.855469 10.117187-1.503907.695313-2.164063 2.476563-1.46875 3.980469.691406 1.503906 2.472656 2.160156 3.980469 1.46875 13.679687-6.304688 28.265624-9.523438 43.359374-9.566406h.292969c57.433594 0 104.246094 46.648437 104.402344 104.121093.15625 57.574219-46.550781 104.539063-104.121094 104.695313h-.289062c-57.4375 0-104.246094-46.648438-104.40625-104.121094-.082031-30.3125 13.015625-59.132812 35.9375-79.070312 1.25-1.089844 1.382812-2.984376.296875-4.234376-1.09375-1.25-2.984375-1.378906-4.234375-.292968-24.238281 21.085937-38.085938 51.558594-38 83.613281.167969 60.777344 49.664062 110.109375 110.40625 110.105469h.304687c60.878906-.164063 110.273438-49.832032 110.105469-110.707032-.167969-60.785156-49.664063-110.109374-110.40625-110.109374zm0 0" fill="#3a312a"/><path d="m226.148438 5.996094c-5.058594.015625-10.058594.269531-14.996094.765625 78.699218 7.363281 140.601562 73.671875 140.820312 154.292969.0625 22.800781-13.4375 95.355468-139.640625 276.804687.28125.378906.542969.757813.804688 1.136719 3.292969 4.691406 8.480469 7.375 14.21875 7.359375 5.742187-.015625 10.914062-2.730469 14.179687-7.4375 126.941406-182.289063 140.5-255.105469 140.4375-277.945313-.234375-85.679687-70.144531-155.210937-155.824218-154.976562zm0 0" fill="#b9c239"/><path d="m227.976562 158.710938c-20.929687.058593-37.835937 20.703124-37.789062 38.078124.050781 17.371094 17.023438 20.355469 37.949219 20.300782 20.929687-.058594 37.882812-3.136719 37.835937-20.507813-.046875-17.375-17.066406-37.929687-37.996094-37.871093zm0 0" fill="#87796f"/><path d="m228.066406 155.710938h-.097656c-10.585938.03125-20.867188 4.824218-28.949219 13.5-7.433593 7.984374-11.855469 18.296874-11.832031 27.585937.0625 22.4375 25.457031 23.292969 39.246094 23.292969h1.707031c12.988281-.039063 21.613281-1.273438 27.964844-4.003906 8.5625-3.6875 12.890625-10.25 12.863281-19.511719-.023438-9.289063-4.503906-19.578125-11.980469-27.519531-8.105469-8.609376-18.375-13.34375-28.921875-13.34375zm34.90625 40.878906c.019532 6.816406-2.917968 11.261718-9.238281 13.980468-5.570313 2.398438-13.46875 3.480469-25.605469 3.515626-25.199218.078124-34.90625-4.785157-34.941406-17.304688-.019531-7.808594 3.800781-16.582031 10.226562-23.480469 6.9375-7.449219 15.664063-11.566406 24.570313-11.589843h.078125c8.878906 0 17.601562 4.066406 24.558594 11.457031 6.460937 6.859375 10.328125 15.613281 10.351562 23.421875zm0 0" fill="#3a312a"/><path d="m227.835938 107.382812c-8.195313.023438-14.816407 8.570313-14.789063 19.085938.03125 10.519531 6.699219 19.027344 14.894531 19.003906 8.195313-.019531 14.816406-8.566406 14.785156-19.085937-.027343-10.515625-6.695312-19.023438-14.890624-19.003907zm0 0" fill="#87796f"/><path d="m227.867188 104.382812h-.039063c-4.90625.015626-9.46875 2.417969-12.839844 6.769532-3.203125 4.132812-4.957031 9.574218-4.941406 15.324218.019531 5.753907 1.800781 11.183594 5.023437 15.300782 3.382813 4.320312 7.945313 6.695312 12.835938 6.695312h.039062c4.910157-.011718 9.472657-2.417968 12.84375-6.769531 3.203126-4.128906 4.957032-9.570313 4.9375-15.324219-.03125-12.140625-8.039062-21.996094-17.859374-21.996094zm8.179687 33.644532c-2.214844 2.859375-5.097656 4.4375-8.117187 4.445312h-.023438c-3.007812 0-5.890625-1.5625-8.117188-4.402344-2.402343-3.0625-3.730468-7.1875-3.742187-11.613281-.011719-4.421875 1.296875-8.550781 3.679687-11.632812 2.214844-2.855469 5.097657-4.433594 8.117188-4.441407h.023438c6.515624 0 11.835937 7.175782 11.859374 16.011719.015626 4.421875-1.292968 8.554688-3.679687 11.632813zm0 0" fill="#3a312a"/><path d="m198.792969 134.660156c-4.9375-9.285156-14.804688-13.695312-22.042969-9.84375-7.234375 3.847656-9.097656 14.496094-4.160156 23.78125s14.808594 13.695313 22.042968 9.847656c7.238282-3.847656 9.101563-14.5 4.160157-23.785156zm0 0" fill="#87796f"/><path d="m201.445312 133.253906c-2.703124-5.078125-6.816406-9.050781-11.585937-11.179687-5.027344-2.246094-10.179687-2.214844-14.515625.09375-8.683594 4.621093-11.109375 17.109375-5.402344 27.839843 2.699219 5.078126 6.816406 9.046876 11.585938 11.179688 2.480468 1.105469 4.988281 1.660156 7.414062 1.660156 2.496094 0 4.90625-.585937 7.101563-1.753906 8.683593-4.621094 11.109375-17.109375 5.402343-27.839844zm-8.21875 22.542969c-2.667968 1.417969-5.953124 1.382813-9.253906-.089844-3.554687-1.585937-6.65625-4.613281-8.734375-8.515625-4.152343-7.8125-2.84375-16.660156 2.921875-19.726562 1.300782-.695313 2.757813-1.042969 4.289063-1.042969 1.59375 0 3.273437.375 4.960937 1.128906 3.554688 1.589844 6.660156 4.613281 8.738282 8.515625 4.148437 7.816406 2.84375 16.664063-2.921876 19.730469zm0 0" fill="#3a312a"/><path d="m168.332031 163.046875c-8.394531-6.339844-19.203125-6.179687-24.140625.359375-4.941406 6.539062-2.144531 16.980469 6.246094 23.320312 8.394531 6.34375 19.199219 6.179688 24.144531-.355468 4.9375-6.542969 2.140625-16.984375-6.25-23.324219zm0 0" fill="#87796f"/><path d="m179.351562 173.859375c-1.351562-5.046875-4.625-9.738281-9.210937-13.207031-9.699219-7.328125-22.414063-6.898438-28.34375.945312-5.929687 7.847656-2.863281 20.195313 6.832031 27.523438 4.632813 3.5 9.953125 5.230468 14.890625 5.230468 5.40625 0 10.355469-2.074218 13.453125-6.171874 2.960938-3.917969 3.804688-9.003907 2.378906-14.320313zm-7.164062 10.699219c-3.9375 5.210937-12.878906 5.109375-19.9375-.222656-7.058594-5.332032-9.601562-13.910157-5.664062-19.121094 1.9375-2.566406 5.089843-3.84375 8.628906-3.84375 3.65625 0 7.726562 1.359375 11.308594 4.070312 3.527343 2.664063 6.027343 6.203125 7.035156 9.964844.933594 3.496094.449218 6.746094-1.371094 9.152344zm0 0" fill="#3a312a"/><path d="m279.25 124.535156c-7.257812-3.808594-17.101562.652344-21.992188 9.96875-4.886718 9.3125-2.96875 19.949219 4.289063 23.757813 7.257813 3.808593 17.105469-.652344 21.992187-9.964844 4.886719-9.316406 2.96875-19.953125-4.289062-23.761719zm0 0" fill="#87796f"/><path d="m288.902344 133.816406c-.980469-5.417968-3.910156-9.660156-8.257813-11.9375-8.707031-4.570312-20.390625.464844-26.042969 11.226563v.003906c-5.648437 10.761719-3.15625 23.238281 5.554688 27.808594 2.183594 1.144531 4.546875 1.6875 6.960938 1.6875 7.222656 0 14.84375-4.847657 19.078124-12.914063 2.671876-5.09375 3.636719-10.734375 2.707032-15.875zm-8.019532 13.082032c-4.113281 7.832031-12.15625 11.738281-17.941406 8.707031-5.78125-3.035157-7.140625-11.878907-3.027344-19.710938 4.113282-7.832031 12.160157-11.742187 17.941407-8.707031 2.671875 1.40625 4.496093 4.132812 5.140625 7.691406.695312 3.835938-.058594 8.105469-2.113282 12.019532zm0 0" fill="#3a312a"/><path d="m311.265625 162.949219c-4.976563-6.511719-15.785156-6.613281-24.140625-.226563-8.359375 6.386719-11.097656 16.84375-6.121094 23.355469 4.976563 6.511719 15.785156 6.613281 24.144532.226563 8.355468-6.386719 11.09375-16.84375 6.117187-23.355469zm0 0" fill="#87796f"/><path d="m313.648438 161.128906c-5.972657-7.820312-18.691407-8.171875-28.347657-.789062-4.570312 3.488281-7.816406 8.199218-9.140625 13.253906-1.394531 5.324219-.523437 10.402344 2.457032 14.304688 2.980468 3.898437 7.65625 6.078124 13.160156 6.128906h.199218c5.160157 0 10.476563-1.890625 14.988282-5.339844 9.660156-7.382812 12.65625-19.742188 6.683594-27.558594zm-10.324219 22.792969c-3.46875 2.648437-7.492188 4.105469-11.347657 4.105469-.046874 0-.09375 0-.140624 0-3.617188-.035156-6.617188-1.375-8.453126-3.773438-1.832031-2.398437-2.335937-5.644531-1.417968-9.140625.984375-3.769531 3.464844-7.324219 6.980468-10.007812 3.59375-2.75 7.691407-4.132813 11.363282-4.132813 3.511718 0 6.636718 1.261719 8.574218 3.796875 3.964844 5.1875 1.46875 13.777344-5.558593 19.152344zm0 0" fill="#3a312a"/></svg>