<svg height="476pt" viewBox="0 -12 476 476" width="476pt" xmlns="http://www.w3.org/2000/svg"><path d="m129.660156 279.265625v86.082031c0 15.976563 12.953125 28.929688 28.929688 28.929688 15.976562 0 28.929687-12.953125 28.929687-28.929688v-86.082031zm0 0" fill="#87796f"/><path d="m187.519531 276.265625h-57.859375c-1.65625 0-3 1.339844-3 3v86.082031c0 17.605469 14.324219 31.929688 31.929688 31.929688 17.605468 0 31.929687-14.324219 31.929687-31.929688v-86.082031c0-1.660156-1.34375-3-3-3zm-3 89.082031c0 14.296875-11.632812 25.929688-25.929687 25.929688s-25.929688-11.632813-25.929688-25.929688v-83.082031h51.859375zm0 0" fill="#3a312a"/><path d="m307.46875 294.078125c-15.976562 0-28.929688 12.953125-28.929688 28.933594v42.335937c0 15.976563 12.953126 28.929688 28.929688 28.929688 15.980469 0 28.929688-12.953125 28.929688-28.929688v-42.335937c0-15.980469-12.953126-28.933594-28.929688-28.933594zm0 0" fill="#87796f"/><path d="m307.46875 291.082031c-17.605469 0-31.929688 14.324219-31.929688 31.929688v42.335937c0 17.605469 14.324219 31.929688 31.929688 31.929688s31.929688-14.324219 31.929688-31.929688v-42.335937c0-17.609375-14.324219-31.929688-31.929688-31.929688zm25.929688 74.265625c0 14.296875-11.628907 25.929688-25.929688 25.929688-14.296875 0-25.929688-11.632813-25.929688-25.929688v-42.335937c0-14.296875 11.632813-25.929688 25.929688-25.929688 14.300781 0 25.929688 11.632813 25.929688 25.929688zm0 0" fill="#3a312a"/><path d="m416.933594 181.890625c-17.027344-7.058594-30.566406 26.957031-52.886719 49.28125-1.066406 1.0625-2.113281 2.148437-3.148437 3.214844-.183594-.289063-.371094-.578125-.589844-.863281-8.191406-11.984376-24.132813-20.070313-41.902344-25.519532-6.921875-2.117187-14.113281-3.84375-21.238281-5.246094-15.382813-3.015624-30.445313-4.519531-41.648438-5.296874-11.234375-.746094-18.617187-.746094-18.617187-.746094l-77.132813 14.589844c-18.160156 3.433593-31.984375 18.394531-33.78125 36.789062-3.757812 38.601562 8.988281 68.132812 22.019531 85.359375v31.902344c0 15.972656 12.945313 28.921875 28.921876 28.921875 15.972656 0 28.9375-12.949219 28.9375-28.921875v-14.386719c11.242187.140625 24.195312.292969 37.667968.429688l24.164063.214843c9.980469.078125 19.859375.128907 29.179687.152344v13.589844c0 15.976562 12.964844 28.921875 28.9375 28.921875 15.976563 0 28.921875-12.945313 28.921875-28.921875v-15.261719c5.839844-4.722656 16.042969-39.449219 14.386719-76.867188 6.429688-4.667968 13.21875-10.441406 19.867188-17.109374 22.320312-22.324219 50.632812-64.832032 27.941406-74.226563zm0 0" fill="#87796f"/><path d="m427.898438 190.832031c-1.085938-5.453125-4.480469-9.503906-9.820313-11.710937-13.390625-5.558594-23.976563 8.835937-36.222656 25.496094-6.144531 8.355468-12.492188 16.996093-19.929688 24.433593-.226562.226563-.453125.453125-.679687.679688-8.003906-10.238281-22.101563-18.503907-41.964844-24.597657-6.578125-2.007812-13.824219-3.796874-21.539062-5.320312-12.742188-2.496094-26.878907-4.292969-42.027344-5.347656-11.203125-.742188-18.507813-.75-18.8125-.75-.1875 0-.375.015625-.558594.050781l-77.132812 14.589844c-19.414063 3.671875-34.300782 19.890625-36.207032 39.445312-4.375 44.941407 13.4375 75.046875 22 86.648438v30.902343c0 17.601563 14.320313 31.921876 31.921875 31.921876 17.613281 0 31.9375-14.320313 31.9375-31.921876v-11.347656c10.515625.128906 22.363281.269532 34.644531.390625l24.160157.21875h.003906c8.925781.066407 17.769531.117188 26.203125.144531v10.59375c0 17.601563 14.328125 31.921876 31.9375 31.921876 17.601562 0 31.921875-14.320313 31.921875-31.921876v-14.050781c6.972656-8.300781 15.660156-42.210937 14.449219-76.605469 6.429687-4.78125 12.792968-10.3125 18.925781-16.460937 16.835937-16.828125 40.519531-48.667969 36.789063-67.402344zm-60.535157 79.964844c-.816406.59375-1.28125 1.554687-1.234375 2.5625 1.636719 36.964844-8.660156 70.667969-13.273437 74.398437-.707031.566407-1.117188 1.425782-1.117188 2.332032v15.265625c0 14.289062-11.625 25.921875-25.921875 25.921875-14.300781 0-25.9375-11.628906-25.9375-25.921875v-13.589844c0-1.652344-1.335937-2.996094-2.992187-3-9.3125-.023437-19.1875-.074219-29.164063-.152344l-24.160156-.214843c-13.464844-.136719-26.417969-.289063-37.660156-.429688-.824219.015625-1.574219.300781-2.144532.867188-.570312.5625-.894531 1.335937-.894531 2.132812v14.386719c0 14.289062-11.636719 25.921875-25.9375 25.921875-14.292969 0-25.921875-11.628906-25.921875-25.921875v-31.902344c0-.652344-.210937-1.289063-.609375-1.808594-7.863281-10.402343-25.699219-39.332031-21.421875-83.261719 1.648438-16.917968 14.542969-30.953124 31.351563-34.132812l76.851562-14.535156c1.429688.011718 8.324219.085937 18.132813.738281 14.890625 1.035156 28.78125 2.800781 41.277344 5.25 7.507812 1.480469 14.554687 3.21875 20.9375 5.167969 19.863281 6.09375 33.425781 14.28125 40.394531 24.472656.171875.222656.3125.449219.460937.671875.496094.769531 1.316406 1.265625 2.226563 1.355469.90625.089844 1.8125-.242188 2.445312-.898438 1.023438-1.054687 2.058594-2.125 3.113281-3.179687 7.761719-7.757813 14.542969-16.984375 20.523438-25.121094 12.421875-16.90625 20.476562-27.09375 29.09375-23.507813 3.496094 1.445313 5.535156 3.847657 6.230469 7.339844 2.789062 14.015625-15.675781 42.523438-35.144531 61.992188-6.324219 6.34375-12.886719 11.992187-19.503907 16.800781zm0 0" fill="#3a312a"/><path d="m268.890625 169.4375c-.1875-.203125-.371094-.40625-.558594-.628906.203125-2.894532.304688-5.785156.304688-8.75 0-11.945313-1.746094-23.453125-5.011719-34.234375-10.050781-33.457031-34.472656-59.839844-65.324219-70.46875-9.609375-3.316407-19.832031-5.109375-30.441406-5.109375-10.238281 0-20.125 1.65625-29.429687 4.773437-31.308594 10.386719-56.167969 36.972657-66.339844 70.820313-3.25 10.78125-5.011719 22.269531-5.011719 34.21875 0 3.214844.136719 6.378906.390625 9.507812.015625.152344.015625.304688.035156.457032-8.460937 9.597656-13.269531 20.527343-13.269531 32.15625 0 3.65625.476563 7.121093 1.390625 10.40625 8.5625 30.902343 55.828125 46.046874 112.84375 46.046874 57.011719 0 104.277344-15.144531 112.84375-46.046874.914062-3.285157 1.386719-6.75 1.386719-10.40625 0-11.878907-5.007813-23.015626-13.808594-32.742188zm0 0" fill="#fce8cb"/><path d="m271.40625 167.746094c.152344-2.550782.230469-5.082032.230469-7.6875 0-12.039063-1.730469-23.851563-5.136719-35.097656-10.34375-34.421876-35.46875-61.503907-67.21875-72.4375-19.984375-6.898438-41.964844-6.984376-61.796875-.351563-32.265625 10.707031-57.785156 37.925781-68.265625 72.804687-3.410156 11.308594-5.136719 23.113282-5.136719 35.082032 0 2.914062.109375 5.882812.335938 8.953125-8.628907 10.160156-13.179688 21.605469-13.179688 33.171875 0 3.867187.503907 7.640625 1.496094 11.207031 8.371094 30.210937 51.636719 48.246094 115.734375 48.246094s107.363281-18.035157 115.734375-48.246094c.992187-3.570313 1.496094-7.339844 1.496094-11.210937 0-12.054688-4.933594-23.949219-14.292969-34.433594zm7.015625 44.042968c-7.496094 27.046876-49.628906 43.847657-109.953125 43.847657-60.328125 0-102.457031-16.800781-109.953125-43.851563-.851563-3.046875-1.28125-6.277344-1.28125-9.601562 0-10.601563 4.214844-20.753906 12.519531-30.171875.523438-.589844.773438-1.601563.726563-2.386719l-.019531-.296875c-.25-3.101563-.378907-6.21875-.378907-9.269531 0-11.382813 1.640625-22.605469 4.882813-33.355469 9.917968-33.007813 33.996094-58.746094 64.414062-68.839844 9.160156-3.0625 18.742188-4.617187 28.480469-4.617187 10.039063 0 19.953125 1.664062 29.464844 4.945312 29.929687 10.3125 53.640625 35.917969 63.429687 68.503906 3.238282 10.6875 4.878906 21.914063 4.878906 33.363282 0 2.898437-.097656 5.6875-.292968 8.542968-.054688.773438.191406 1.542969.695312 2.136719.210938.253907.425782.492188.628906.710938 8.648438 9.5625 13.035157 19.902343 13.035157 30.734375 0 3.324218-.429688 6.554687-1.277344 9.605468zm0 0" fill="#3a312a"/><path d="m138.429688 55.019531c-31.308594 10.386719-56.167969 36.972657-66.335938 70.820313-3.25 10.78125-5.011719 22.269531-5.011719 34.21875 0 3.214844.136719 6.378906.390625 9.507812.015625.152344.015625.304688.035156.457032-8.464843 9.597656-13.269531 20.527343-13.269531 32.15625 0 3.65625.472657 7.121093 1.386719 10.40625 7.296875 3.148437 15.078125 4.839843 23.152344 4.839843 41.714844 0 75.507812-45.082031 75.507812-100.691406 0-23.25-5.90625-44.675781-15.855468-61.714844zm0 0" fill="#87796f"/><path d="m141.019531 53.507812c-.714843-1.226562-2.191406-1.785156-3.535156-1.335937-32.265625 10.707031-57.785156 37.925781-68.265625 72.804687-3.410156 11.308594-5.136719 23.113282-5.136719 35.082032 0 2.914062.109375 5.882812.335938 8.953125-8.628907 10.160156-13.179688 21.605469-13.179688 33.171875 0 3.867187.503907 7.640625 1.496094 11.210937.246094.875.871094 1.589844 1.703125 1.949219 7.820312 3.375 16.007812 5.085938 24.339844 5.085938 43.289062 0 78.507812-46.515626 78.507812-103.691407 0-23.140625-5.625-45.007812-16.265625-63.230469zm-62.242187 160.921876c-7.035156 0-13.960938-1.355469-20.617188-4.035157-.613281-2.628906-.921875-5.386719-.921875-8.210937 0-10.601563 4.210938-20.753906 12.519531-30.171875.519532-.589844.769532-1.601563.726563-2.386719l-.023437-.296875c-.25-3.101563-.375-6.21875-.375-9.269531 0-11.382813 1.640624-22.605469 4.878906-33.355469 9.664062-32.164063 32.773437-57.421875 62.089844-68.03125 9.316406 16.871094 14.230468 36.886719 14.230468 58.066406 0 53.867188-32.527344 97.691407-72.507812 97.691407zm0 0" fill="#3a312a"/><path d="m268.890625 169.4375c-.1875-.203125-.371094-.40625-.558594-.628906.203125-2.894532.304688-5.785156.304688-8.75 0-11.945313-1.746094-23.453125-5.011719-34.234375-10.050781-33.457031-34.472656-59.839844-65.324219-70.46875-9.816406 16.992187-15.652343 38.28125-15.652343 61.378906 0 55.613281 33.796874 100.695313 75.507812 100.695313 8.074219 0 15.859375-1.695313 23.152344-4.839844.914062-3.285156 1.386718-6.753906 1.386718-10.410156.003907-11.878907-5.003906-23.015626-13.804687-32.742188zm0 0" fill="#87796f"/><path d="m271.40625 167.746094c.152344-2.550782.230469-5.082032.230469-7.6875 0-12.039063-1.730469-23.851563-5.136719-35.097656-10.34375-34.421876-35.46875-61.503907-67.21875-72.4375-1.355469-.472657-2.855469.089843-3.574219 1.332031-10.503906 18.183593-16.058593 39.925781-16.058593 62.878906 0 57.175781 35.222656 103.695313 78.511718 103.695313 8.328125 0 16.519532-1.710938 24.335938-5.085938.835937-.363281 1.460937-1.078125 1.703125-1.953125.996093-3.570313 1.5-7.339844 1.5-11.210937 0-12.054688-4.933594-23.949219-14.292969-34.433594zm7.371094 42.648437c-6.65625 2.675781-13.585938 4.035157-20.617188 4.035157-39.980468 0-72.511718-43.824219-72.511718-97.691407 0-20.988281 4.84375-40.875 14.027343-57.699219 28.816407 10.820313 51.546875 35.929688 61.082031 67.65625 3.234376 10.6875 4.878907 21.914063 4.878907 33.367188 0 2.894531-.097657 5.6875-.296875 8.539062-.054688.777344.195312 1.542969.695312 2.140626.214844.253906.429688.488281.628906.707031 8.648438 9.5625 13.035157 19.90625 13.035157 30.734375 0 2.824218-.3125 5.582031-.921875 8.210937zm0 0" fill="#3a312a"/><path d="m168.511719 162.128906c-8.949219-.039062-16.21875 4.28125-16.242188 9.648438-.027343 5.367187 7.1875 14.070312 16.132813 14.109375 8.949218.042969 16.238281-8.597657 16.261718-13.964844.027344-5.371094-7.207031-9.75-16.152343-9.792969zm0 0" fill="#3a312a"/><path d="m168.46875 181.066406c0 11.554688-8.757812 21.046875-20 22.21875.210938 13.921875 9.085938 25.109375 20 25.109375 10.910156 0 19.785156-11.1875 19.996094-25.109375-11.242188-1.171875-19.996094-10.664062-19.996094-22.21875zm0 0" fill="#f16c7a"/><g fill="#3a312a"><path d="m188.777344 200.300781c-9.871094-1.027343-17.308594-9.296875-17.308594-19.238281 0-1.65625-1.34375-3-3-3-1.660156 0-3 1.34375-3 3 0 9.941406-7.441406 18.210938-17.308594 19.238281-1.546875.160157-2.710937 1.472657-2.691406 3.027344.238281 15.738281 10.339844 28.066406 23 28.066406 12.65625 0 22.757812-12.328125 22.996094-28.066406.023437-1.550781-1.144532-2.867187-2.6875-3.027344zm-20.308594 25.09375c-8.535156 0-15.722656-8.574219-16.847656-19.582031 7.359375-1.613281 13.429687-6.367188 16.847656-12.742188 3.414062 6.375 9.488281 11.128907 16.84375 12.742188-1.125 11.007812-8.308594 19.582031-16.84375 19.582031zm0 0"/><path d="m168.46875 178.0625c-1.660156 0-3 1.34375-3 3 0 9.941406-7.441406 18.210938-17.351562 19.242188-.617188.074218-1.292969.109374-2 .109374-10.667969 0-19.347657-8.679687-19.347657-19.351562 0-1.65625-1.34375-3-3-3-1.660156 0-3 1.34375-3 3 0 13.980469 11.371094 25.351562 25.347657 25.351562.945312 0 1.855468-.050781 2.664062-.148437 12.933594-1.34375 22.6875-12.179687 22.6875-25.203125 0-1.65625-1.34375-3-3-3zm0 0"/><path d="m213.167969 178.0625c-1.65625 0-3 1.34375-3 3 0 10.671875-8.679688 19.351562-19.351563 19.351562-.707031 0-1.382812-.039062-2.039062-.113281-9.871094-1.027343-17.308594-9.296875-17.308594-19.238281 0-1.65625-1.34375-3-3-3-1.660156 0-3 1.34375-3 3 0 13.023438 9.75 23.859375 22.644531 25.203125.847657.097656 1.757813.148437 2.703125.148437 13.980469 0 25.351563-11.371093 25.351563-25.347656 0-1.660156-1.34375-3.003906-3-3.003906zm0 0"/></g><path d="m123.765625 169.695312c0-7.261718-9.417969-13.148437-21.035156-13.148437-11.617188 0-21.035157 5.886719-21.035157 13.148437 0 7.261719 9.417969 13.148438 21.035157 13.148438 11.617187 0 21.035156-5.886719 21.035156-13.148438zm0 0" fill="#f5978a"/><path d="m255.242188 169.695312c0-7.261718-9.417969-13.148437-21.035157-13.148437-11.617187 0-21.035156 5.886719-21.035156 13.148437 0 7.261719 9.417969 13.148438 21.035156 13.148438 11.617188 0 21.035157-5.886719 21.035157-13.148438zm0 0" fill="#f5978a"/><path d="m134.285156 134.390625c-5.082031 0-9.207031 4.121094-9.207031 9.207031 0 5.082032 4.121094 9.203125 9.207031 9.203125 5.082032 0 9.203125-4.121093 9.203125-9.203125 0-5.085937-4.121093-9.207031-9.203125-9.207031zm0 0" fill="#3a312a"/><path d="m211.855469 143.59375c0 5.082031-4.121094 9.203125-9.203125 9.203125-5.082032 0-9.203125-4.121094-9.203125-9.203125s4.121093-9.203125 9.203125-9.203125c5.082031 0 9.203125 4.121094 9.203125 9.203125zm0 0" fill="#3a312a"/><path d="m420.074219 42.023438c-1.527344 20.660156-28.796875 25.085937-28.796875 25.085937 19.335937.960937 27.679687 27.394531 27.679687 27.394531 1.699219-19.589844 27.191407-25.722656 27.191407-25.722656-23.070313-2.570312-26.074219-26.757812-26.074219-26.757812zm0 0" fill="#d7e057"/><path d="m446.480469 65.796875c-20.375-2.265625-23.316407-23.257813-23.425781-24.144531-.191407-1.53125-1.582032-2.675782-3.050782-2.628906-1.542968.039062-2.804687 1.242187-2.917968 2.777343-1.332032 18.027344-26.042969 22.308594-26.292969 22.347657-1.511719.25-2.597657 1.601562-2.507813 3.132812.085938 1.53125 1.3125 2.75 2.84375 2.824219 17 .84375 24.890625 25.058593 24.96875 25.300781.398438 1.257812 1.5625 2.09375 2.855469 2.09375.109375 0 .222656-.007812.332031-.019531 1.421875-.15625 2.535156-1.292969 2.660156-2.71875 1.488282-17.175781 24.671876-23.011719 24.90625-23.070313 1.414063-.34375 2.378907-1.652344 2.285157-3.105468-.089844-1.449219-1.210938-2.628907-2.65625-2.789063zm-28.125 19.632813c-3.117188-6.101563-8.4375-14.074219-16.367188-18.339844 6.332031-2.546875 14.007813-7.046875 18.152344-14.695313 2.652344 5.933594 7.480469 13.019531 16.097656 16.839844-6.21875 2.9375-13.976562 8.027344-17.882812 16.195313zm0 0" fill="#3a312a"/><path d="m394.921875 5.5625c-1.082031 14.613281-20.371094 17.746094-20.371094 17.746094 13.675781.679687 19.578125 19.375 19.578125 19.375 1.199219-13.855469 19.234375-18.195313 19.234375-18.195313-16.320312-1.816406-18.441406-18.925781-18.441406-18.925781zm0 0" fill="#d7e057"/><path d="m413.691406 21.507812c-13.707031-1.527343-15.71875-15.722656-15.796875-16.316406-.191406-1.53125-1.519531-2.71875-3.050781-2.628906-1.542969.039062-2.800781 1.242188-2.914062 2.78125-.890626 12.046875-17.695313 14.976562-17.859376 15.003906-1.515624.246094-2.601562 1.59375-2.515624 3.125.085937 1.535156 1.316406 2.753906 2.847656 2.832032 11.40625.566406 16.8125 17.121093 16.867187 17.285156.398438 1.257812 1.566407 2.09375 2.859375 2.09375.109375 0 .21875-.003906.328125-.019532 1.421875-.15625 2.539063-1.292968 2.664063-2.722656.996094-11.507812 16.789062-15.5 16.949218-15.539062 1.414063-.34375 2.378907-1.648438 2.285157-3.101563s-1.214844-2.632812-2.664063-2.792969zm-19.992187 12.898438c-2.101563-3.753906-5.265625-8.121094-9.65625-10.992188 3.820312-1.742187 8.015625-4.464843 10.796875-8.605468 1.980468 3.765625 5.058594 7.53125 9.566406 10-3.800781 2.011718-8.046875 5.09375-10.707031 9.597656zm0 0" fill="#3a312a"/><path d="m448.214844 6.988281c-1.078125 14.613281-20.371094 17.746094-20.371094 17.746094 13.675781.679687 19.582031 19.378906 19.582031 19.378906 1.199219-13.855469 19.230469-18.199219 19.230469-18.199219-16.316406-1.8125-18.441406-18.925781-18.441406-18.925781zm0 0" fill="#d7e057"/><path d="m466.988281 22.933594c-13.707031-1.527344-15.71875-15.71875-15.792969-16.3125-.191406-1.53125-1.558593-2.660156-3.054687-2.628906-1.539063.039062-2.800781 1.238281-2.917969 2.777343-.890625 12.050781-17.695312 14.976563-17.859375 15.007813-1.515625.246094-2.597656 1.59375-2.511719 3.125.082032 1.535156 1.3125 2.753906 2.84375 2.832031 11.410157.566406 16.816407 17.121094 16.867188 17.285156.398438 1.257813 1.566406 2.09375 2.859375 2.09375.109375 0 .21875-.003906.332031-.015625 1.421875-.160156 2.535156-1.296875 2.65625-2.722656.996094-11.46875 16.675782-15.472656 16.949219-15.539062 1.414063-.34375 2.378906-1.648438 2.289063-3.105469-.089844-1.457031-1.210938-2.632813-2.660157-2.796875zm-19.992187 12.902344c-2.101563-3.757813-5.265625-8.121094-9.65625-10.992188 3.820312-1.746094 8.019531-4.464844 10.792968-8.609375 1.984376 3.769531 5.0625 7.535156 9.570313 10.003906-3.804687 2.011719-8.046875 5.09375-10.707031 9.597657zm0 0" fill="#3a312a"/><path d="m375 148.277344c0 17.121094-13.878906 31-31 31s-31-13.878906-31-31 13.878906-31 31-31 31 13.878906 31 31zm0 0" fill="#8ac6dd"/><path d="m344 114.277344c-18.746094 0-34 15.25-34 34 0 18.746094 15.253906 34 34 34s34-15.253906 34-34c0-18.75-15.253906-34-34-34zm0 62c-15.441406 0-28-12.5625-28-28 0-15.441406 12.558594-28 28-28s28 12.558594 28 28c0 15.4375-12.558594 28-28 28zm0 0" fill="#3a312a"/><path d="m377 278.277344c0 17.121094-13.878906 31-31 31s-31-13.878906-31-31 13.878906-31 31-31 31 13.878906 31 31zm0 0" fill="#8ac6dd"/><path d="m346 244.277344c-18.746094 0-34 15.25-34 34 0 18.746094 15.253906 34 34 34s34-15.253906 34-34c0-18.75-15.253906-34-34-34zm0 62c-15.441406 0-28-12.5625-28-28 0-15.441406 12.558594-28 28-28s28 12.558594 28 28c0 15.4375-12.558594 28-28 28zm0 0" fill="#3a312a"/><path d="m461 244.277344c0 10.492187-8.507812 19-19 19s-19-8.507813-19-19c0-10.496094 8.507812-19 19-19s19 8.503906 19 19zm0 0" fill="#8ac6dd"/><path d="m442 222.277344c-12.128906 0-22 9.867187-22 22 0 12.128906 9.871094 22 22 22s22-9.871094 22-22c0-12.132813-9.871094-22-22-22zm0 38c-8.820312 0-16-7.179688-16-16 0-8.824219 7.179688-16 16-16s16 7.175781 16 16c0 8.820312-7.179688 16-16 16zm0 0" fill="#3a312a"/><path d="m341 68.277344c0 10.492187-8.507812 19-19 19s-19-8.507813-19-19c0-10.496094 8.507812-19 19-19s19 8.503906 19 19zm0 0" fill="#8ac6dd"/><path d="m322 46.277344c-12.128906 0-22 9.867187-22 22 0 12.128906 9.871094 22 22 22s22-9.871094 22-22c0-12.132813-9.871094-22-22-22zm0 38c-8.820312 0-16-7.179688-16-16 0-8.824219 7.179688-16 16-16s16 7.175781 16 16c0 8.820312-7.179688 16-16 16zm0 0" fill="#3a312a"/><path d="m167.019531 3c-15.632812 0-30.523437 3.175781-44.0625 8.914062l-25.023437 14.6875c-26.714844 20.667969-43.933594 53.015626-43.933594 89.386719 0 2.664063.097656 5.292969.285156 7.890625 18.503906-37.132812 56.84375-62.609375 101.140625-62.609375 59.789063 0 108.738281 46.417969 112.765625 105.195313 7.574219-15.210938 11.851563-32.351563 11.851563-50.476563 0-62.386719-50.601563-112.988281-113.023438-112.988281zm0 0" fill="#f16c7a"/><path d="m167.019531 0c-15.683593 0-30.902343 3.078125-45.234375 9.152344-1.527344.644531-2.238281 2.40625-1.589844 3.933594.644532 1.527343 2.40625 2.234374 3.929688 1.59375 13.585938-5.757813 28.015625-8.675782 42.894531-8.675782 60.664063 0 110.019531 49.339844 110.019531 109.988282 0 13.558593-2.402343 26.6875-7.15625 39.160156-9.191406-55.148438-57.460937-96.878906-114.457031-96.878906-40.535156 0-77.292969 20.628906-98.378906 54.519531.9375-33.039063 16.390625-63.441407 42.726563-83.816407 1.308593-1.011718 1.546874-2.898437.535156-4.207031-1.015625-1.308593-2.898438-1.550781-4.207032-.539062-28.664062 22.171875-45.101562 55.617187-45.101562 91.757812 0 2.714844.097656 5.441407.292969 8.109375.097656 1.347656 1.085937 2.464844 2.410156 2.726563 1.328125.253906 2.664063-.394531 3.265625-1.605469 18.734375-37.59375 56.457031-60.949219 98.453125-60.949219 57.625 0 105.84375 44.980469 109.773437 102.402344.09375 1.347656 1.082032 2.46875 2.40625 2.734375.195313.042969.394532.058594.589844.058594 1.121094 0 2.167969-.628906 2.683594-1.664063 8.070312-16.210937 12.164062-33.644531 12.164062-51.8125 0-63.957031-52.046874-115.988281-116.019531-115.988281zm0 0" fill="#3a312a"/><path d="m167.019531 3c-15.632812 0-30.523437 3.175781-44.0625 8.914062l-25.023437 14.6875c-26.714844 20.667969-43.933594 53.015626-43.933594 89.386719 0 19.421875 4.910156 37.707031 13.53125 53.675781 9.472656-64.636718 65.175781-114.257812 132.441406-114.257812 27.027344 0 52.21875 8.019531 73.257813 21.800781-15.84375-43.28125-57.414063-74.207031-106.210938-74.207031zm0 0" fill="#f16c7a"/><path d="m276.046875 76.175781c-16.679687-45.5625-60.492187-76.17187475-109.027344-76.17187475-15.683593 0-30.90625 3.07421875-45.234375 9.14843775-1.527344.648437-2.238281 2.410156-1.589844 3.9375.644532 1.523437 2.40625 2.234375 3.929688 1.589844 13.585938-5.757813 28.015625-8.675782 42.894531-8.675782 42.992188 0 82.078125 25.332032 99.9375 63.882813-20.386719-11.457031-43.355469-17.476563-66.984375-17.476563-33.050781 0-64.964844 11.941406-89.863281 33.625-22.3125 19.433594-37.675781 45.472656-43.894531 74.085938-6.046875-13.847656-9.214844-28.9375-9.214844-44.132813 0-34.269531 15.589844-65.984375 42.769531-87.011719 1.308594-1.015624 1.550781-2.898437.539063-4.207031-1.015625-1.3125-2.898438-1.554687-4.207032-.539062-28.664062 22.171875-45.101562 55.617187-45.101562 91.757812 0 19.210938 4.800781 38.265625 13.890625 55.101563.53125.980468 1.550781 1.574218 2.636719 1.574218.171875 0 .347656-.015624.523437-.046874 1.273438-.222657 2.257813-1.238282 2.445313-2.515626 9.332031-63.675781 64.996094-111.695312 129.476562-111.695312 25.570313 0 50.332032 7.371094 71.613282 21.308594 1.078124.710937 2.492187.644531 3.507812-.160156 1.011719-.800782 1.394531-2.164063.953125-3.378907zm0 0" fill="#3a312a"/><path d="m458 313.277344h-440c-.199219 0-.378906 0-.578125-.019532l17.1875 34.539063 11.90625 23.917969 13.507813 27.144531c7.4375 14.957031 22.71875 24.417969 39.4375 24.417969h277.082031c16.71875 0 32-9.460938 39.4375-24.417969l42.601562-85.601563c-.203125.019532-.382812.019532-.582031.019532zm0 0" fill="#d7e057"/><path d="m461.046875 311.546875c-.625-.898437-1.679687-1.390625-2.773437-1.273437-.09375.007812-.179688.003906-.273438.003906h-440c-.09375 0-.179688.003906-.273438-.003906-1.078124-.109376-2.148437.375-2.773437 1.273437-.621094.902344-.707031 2.066406-.21875 3.046875l17.191406 34.539062c.734375 1.480469 2.535157 2.085938 4.023438 1.347657 1.484375-.738281 2.085937-2.539063 1.347656-4.023438l-15.019531-30.179687h431.449218l-40.429687 81.242187c-6.980469 14.035157-21.066406 22.757813-36.753906 22.757813h-277.082031c-15.691407 0-29.773438-8.722656-36.757813-22.757813l-13.503906-27.140625c-.742188-1.484375-2.542969-2.089844-4.023438-1.347656-1.484375.738281-2.085937 2.539062-1.347656 4.019531l13.507813 27.140625c8 16.089844 24.140624 26.085938 42.125 26.085938h277.082031c17.980469 0 34.121093-9.996094 42.125-26.085938l42.601562-85.597656c.484375-.980469.398438-2.148438-.222656-3.046875zm0 0" fill="#3a312a"/><path d="m112.292969 423.277344h85.410156v26h-85.410156zm0 0" fill="#87796f"/><path d="m197.703125 420.277344h-85.410156c-1.65625 0-3 1.339844-3 3v26c0 1.65625 1.34375 3 3 3h85.410156c1.660156 0 3-1.34375 3-3v-26c0-1.660156-1.339844-3-3-3zm-3 26h-79.410156v-20h79.410156zm0 0" fill="#3a312a"/><path d="m278.292969 423.277344h85.410156v26h-85.410156zm0 0" fill="#87796f"/><path d="m363.703125 420.277344h-85.410156c-1.65625 0-3 1.339844-3 3v26c0 1.65625 1.34375 3 3 3h85.410156c1.660156 0 3-1.34375 3-3v-26c0-1.660156-1.339844-3-3-3zm-3 26h-79.410156v-20h79.410156zm0 0" fill="#3a312a"/><path d="m458 283.277344h-440c-8.285156 0-15 6.714844-15 15 0 8.28125 6.714844 15 15 15h440c8.285156 0 15-6.71875 15-15 0-8.285156-6.714844-15-15-15zm0 0" fill="#d7e057"/><path d="m458 280.277344h-251.847656c-1.65625 0-3 1.339844-3 3 0 1.65625 1.34375 3 3 3h251.847656c6.617188 0 12 5.378906 12 12 0 6.617187-5.382812 12-12 12h-440c-6.617188 0-12-5.382813-12-12 0-6.621094 5.382812-12 12-12h159.84375c1.660156 0 3-1.34375 3-3 0-1.660156-1.339844-3-3-3h-159.84375c-9.925781 0-18 8.074218-18 18 0 9.921875 8.074219 18 18 18h440c9.925781 0 18-8.078125 18-18 0-9.925782-8.074219-18-18-18zm0 0" fill="#3a312a"/><path d="m423.71875 316.277344-40.417969 81.238281c-6.980469 14.039063-21.082031 22.761719-36.761719 22.761719h30c15.679688 0 29.78125-8.722656 36.761719-22.761719l40.417969-81.238281zm0 0" fill="#b9c239"/><path d="m458 286.277344h-30c6.621094 0 12 5.378906 12 12 0 6.617187-5.378906 12-12 12h30c6.621094 0 12-5.382813 12-12 0-6.621094-5.378906-12-12-12zm0 0" fill="#b9c239"/><path d="m276.628906 342.609375c-4.578125-6.273437-15.621094-6.003906-24.675781.597656-9.050781 6.605469-12.679687 17.042969-8.101563 23.316407 4.574219 6.273437 15.625 6.007812 24.675782-.597657 9.050781-6.605469 12.683594-17.042969 8.101562-23.316406zm0 0" fill="#f16c7a" fill-rule="evenodd"/><path d="m279.054688 340.84375c-5.640626-7.730469-18.320313-7.753906-28.867188-.058594-10.550781 7.695313-14.398438 19.777344-8.757812 27.507813 2.71875 3.730469 7.1875 5.765625 12.621093 5.765625.175781 0 .355469 0 .535157-.003906 5.265624-.128907 10.847656-2.15625 15.714843-5.703126 4.863281-3.550781 8.496094-8.246093 10.226563-13.222656 1.859375-5.363281 1.339844-10.433594-1.472656-14.285156zm-4.195313 12.3125c-1.332031 3.832031-4.210937 7.507812-8.097656 10.347656-3.890625 2.835938-8.265625 4.453125-12.320313 4.550782-3.65625.078124-6.550781-1.082032-8.164062-3.296876-3.535156-4.84375-.125-13.601562 7.445312-19.125 4.121094-3.003906 8.769532-4.542968 12.726563-4.542968 3.320312 0 6.148437 1.082031 7.757812 3.289062 1.617188 2.214844 1.847657 5.332032.652344 8.777344zm0 0" fill="#3a312a"/><path d="m247.21875 341.679688c-3.488281-10.648438-12.292969-17.324219-19.675781-14.910157-7.382813 2.414063-10.535157 13.003907-7.054688 23.652344s12.289063 17.324219 19.671875 14.914063c7.378906-2.417969 10.539063-13.007813 7.058594-23.65625zm0 0" fill="#f16c7a" fill-rule="evenodd"/><path d="m250.070312 340.746094c-4.0625-12.410156-14.359374-19.800782-23.457031-16.832032-4.535156 1.484376-7.921875 5.292969-9.546875 10.734376-1.503906 5.046874-1.300781 10.980468.570313 16.703124 1.875 5.726563 5.214843 10.628907 9.414062 13.8125 3.195313 2.425782 6.621094 3.671876 9.957031 3.671876 1.386719 0 2.757813-.214844 4.089844-.652344 9.085938-2.976563 13.027344-15.027344 8.972656-27.4375zm-10.84375 21.734375c-2.605468.855469-5.640624.109375-8.550781-2.09375-3.234375-2.453125-5.839843-6.324219-7.335937-10.898438-1.496094-4.578125-1.683594-9.234375-.523438-13.125 1.042969-3.496093 3.050782-5.890625 5.660156-6.742187.707032-.234375 1.4375-.34375 2.179688-.34375 5.253906 0 11.15625 5.535156 13.710938 13.335937 2.910156 8.90625.558593 18.003907-5.140626 19.867188zm0 0" fill="#3a312a"/><path d="m217.570312 354.457031c-11.207031.023438-20.277343 6.335938-20.261718 14.101563s9.113281 14.042968 20.316406 14.019531 20.273438-6.335937 20.261719-14.101563c-.015625-7.765624-9.113281-14.039062-20.316407-14.019531zm0 0" fill="#f16c7a" fill-rule="evenodd"/><path d="m217.628906 351.457031h-.066406c-6.023438.011719-11.71875 1.675781-16.042969 4.683594-4.660156 3.242187-7.21875 7.65625-7.210937 12.425781.011718 4.769532 2.585937 9.167969 7.257812 12.390625 4.320313 2.980469 9.996094 4.621094 15.996094 4.621094h.070312c13.054688-.027344 23.269532-7.539063 23.25-17.105469-.015624-9.550781-10.226562-17.015625-23.253906-17.015625zm-.007812 28.121094h-.058594c-4.789062 0-9.257812-1.261719-12.585938-3.558594-3.003906-2.070312-4.660156-4.722656-4.664062-7.464843v-.003907c-.007812-2.742187 1.640625-5.402343 4.632812-7.484375 3.332032-2.320312 7.816407-3.601562 12.628907-3.609375h.050781c9.347656 0 17.25 5.039063 17.261719 11.023438.011719 5.996093-7.894531 11.078125-17.265625 11.097656zm0 0" fill="#3a312a"/><path d="m240.171875 371.613281c-7.390625-2.386719-16.167969 4.324219-19.613281 14.988281-3.441406 10.660157-.238282 21.242188 7.152344 23.621094 7.390624 2.386719 16.171874-4.324218 19.613281-14.988281 3.441406-10.660156.238281-21.238281-7.152344-23.621094zm0 0" fill="#f16c7a" fill-rule="evenodd"/><path d="m250.683594 379.449219c-1.644532-5.429688-5.050782-9.230469-9.589844-10.691407-9.101562-2.941406-19.375 4.496094-23.386719 16.921876-1.847656 5.730468-2.027343 11.664062-.503906 16.707031 1.644531 5.429687 5.050781 9.230469 9.585937 10.691406 1.339844.433594 2.707032.640625 4.074219.640625 7.921875 0 15.898438-6.964844 19.316407-17.5625 1.851562-5.730469 2.027343-11.664062.503906-16.707031zm-6.214844 14.863281c-2.875 8.917969-10.125 14.902344-15.839844 13.054688-2.609375-.839844-4.625-3.226563-5.683594-6.71875-1.175781-3.882813-1.007812-8.546876.46875-13.125 2.527344-7.828126 8.421876-13.390626 13.683594-13.390626.730469 0 1.453125.109376 2.152344.335938 2.609375.839844 4.628906 3.230469 5.6875 6.722656 1.175781 3.878906 1.011719 8.542969-.46875 13.121094zm0 0" fill="#3a312a"/><path d="m268.539062 370.902344c-9.078124-6.566406-20.125-6.789063-24.675781-.5-4.554687 6.292968-.886719 16.71875 8.191407 23.285156 9.078124 6.566406 20.128906 6.789062 24.679687.5s.882813-16.714844-8.195313-23.285156zm0 0" fill="#f16c7a" fill-rule="evenodd"/><path d="m280.578125 381.652344c-1.75-4.964844-5.398437-9.648438-10.277344-13.179688-10.582031-7.65625-23.261719-7.578125-28.867187.171875-2.796875 3.867188-3.300782 8.941407-1.414063 14.292969 1.75 4.96875 5.398438 9.648438 10.28125 13.179688 4.878907 3.53125 10.464844 5.53125 15.734375 5.640624.148438 0 .296875.003907.445313.003907 5.472656 0 9.964843-2.058594 12.6875-5.820313 2.792969-3.855468 3.292969-8.933594 1.410156-14.289062zm-6.273437 10.777344c-1.609376 2.21875-4.511719 3.378906-8.152344 3.332031-4.054688-.082031-8.4375-1.683594-12.339844-4.503907-3.898438-2.820312-6.789062-6.480468-8.136719-10.308593-1.210937-3.441407-.992187-6.5625.617188-8.785157 1.613281-2.230468 4.460937-3.324218 7.804687-3.324218 3.941406 0 8.578125 1.523437 12.683594 4.492187 3.898438 2.824219 6.789062 6.484375 8.136719 10.3125 1.210937 3.445313.992187 6.5625-.613281 8.785157zm0 0" fill="#3a312a"/><path d="m246.6875 364.457031c-2.214844-3.035156-6.472656-3.703125-9.511719-1.484375-3.039062 2.214844-3.707031 6.472656-1.484375 9.507813 2.207032 3.035156 6.46875 3.703125 9.507813 1.484375 3.035156-2.214844 3.699219-6.46875 1.488281-9.507813zm0 0" fill="#d7e057" fill-rule="evenodd"/><path d="m249.109375 362.691406c-1.542969-2.117187-3.820313-3.503906-6.40625-3.910156-2.59375-.40625-5.179687.222656-7.296875 1.765625s-3.503906 3.820313-3.910156 6.40625c-.40625 2.589844.222656 5.179687 1.769531 7.292969 1.539063 2.117187 3.8125 3.503906 6.40625 3.910156.511719.078125 1.027344.121094 1.535156.121094 2.0625 0 4.0625-.648438 5.757813-1.886719 4.367187-3.183594 5.328125-9.332031 2.144531-13.699219zm-5.679687 8.855469c-.820313.597656-1.820313.839844-2.832032.683594-1.003906-.15625-1.886718-.695313-2.484375-1.515625-.601562-.824219-.84375-1.828125-.6875-2.832032.15625-1 .695313-1.886718 1.515625-2.484374.660156-.484376 1.4375-.734376 2.238282-.734376.199218 0 .394531.015626.59375.046876 1.003906.15625 1.886718.695312 2.488281 1.515624 1.234375 1.699219.863281 4.082032-.832031 5.320313zm0 0" fill="#3a312a"/></svg>