<svg height="467pt" viewBox="0 -8 467.838 467" width="467pt" xmlns="http://www.w3.org/2000/svg"><path d="m73.289062 297.90625c-1.945312 23.125-26.050781 26.777344-26.050781 26.777344 20.695313.972656 25.851563 28.117187 25.851563 28.117187.441406-19.355469 26.640625-28.402343 26.640625-28.402343-19.625-1.175782-26.441407-26.492188-26.441407-26.492188zm0 0" fill="#d7e057"/><path d="m99.910156 321.402344c-17.207031-1.03125-23.664062-24.050782-23.726562-24.28125-.378906-1.40625-1.707032-2.324219-3.164063-2.203125-1.453125.128906-2.597656 1.28125-2.71875 2.734375-1.722656 20.429687-22.625 23.925781-23.507812 24.0625-1.527344.230468-2.628907 1.578125-2.546875 3.121094.078125 1.539062 1.3125 2.769531 2.855468 2.84375 18.054688.847656 22.996094 25.4375 23.042969 25.683593.277344 1.421875 1.519531 2.433594 2.945313 2.433594.085937 0 .167968 0 .253906-.007813 1.527344-.128906 2.710938-1.386718 2.75-2.917968.386719-17.019532 24.382812-25.554688 24.625-25.636719 1.347656-.472656 2.183594-1.828125 1.988281-3.246094-.199219-1.417969-1.367187-2.5-2.796875-2.585937zm-27.128906 20.691406c-2.714844-6.261719-7.417969-13.816406-15.175781-17.753906 5.863281-2.808594 12.820312-7.824219 16.40625-16.546875 3.101562 6.144531 8.398437 13.761719 16.667969 17.445312-6.015626 3.28125-13.84375 8.8125-17.898438 16.855469zm0 0" fill="#3a312a"/><path d="m29.890625 331.863281c-1.375 16.359375-18.421875 18.945313-18.421875 18.945313 14.636719.6875 18.285156 19.886718 18.285156 19.886718.308594-13.6875 18.84375-20.089843 18.84375-20.089843-13.882812-.832031-18.707031-18.742188-18.707031-18.742188zm0 0" fill="#d7e057"/><path d="m48.773438 347.609375c-11.53125-.691406-15.945313-16.371094-15.988282-16.527344-.378906-1.40625-1.703125-2.332031-3.164062-2.207031-1.449219.132812-2.597656 1.285156-2.71875 2.738281-1.160156 13.742188-15.292969 16.132813-15.882813 16.226563-1.527343.230468-2.628906 1.582031-2.546875 3.121094.078125 1.539062 1.3125 2.769531 2.855469 2.839843 12.070313.570313 15.445313 17.289063 15.476563 17.453125.269531 1.425782 1.519531 2.4375 2.945312 2.4375.085938 0 .164062 0 .25-.007812 1.53125-.125 2.714844-1.390625 2.753906-2.921875.257813-11.417969 16.660156-17.269531 16.824219-17.324219 1.355469-.46875 2.1875-1.828125 1.992187-3.246094-.195312-1.414062-1.367187-2.496094-2.796874-2.582031zm-19.167969 13.589844c-1.847657-3.773438-4.679688-7.894531-8.894531-10.5625 3.710937-2.078125 7.394531-5.257813 9.742187-9.832031 2.113281 3.746093 5.308594 7.910156 9.882813 10.449218-3.699219 2.199219-7.976563 5.480469-10.730469 9.945313zm0 0" fill="#3a312a"/><path d="m29.890625 278.550781c-1.375 16.359375-18.421875 18.941407-18.421875 18.941407 14.636719.6875 18.285156 19.886718 18.285156 19.886718.308594-13.6875 18.84375-20.089844 18.84375-20.089844-13.882812-.832031-18.707031-18.738281-18.707031-18.738281zm0 0" fill="#d7e057"/><path d="m48.777344 294.292969c-11.535156-.691407-15.949219-16.371094-15.988282-16.53125-.382812-1.402344-1.703124-2.332031-3.164062-2.203125-1.453125.128906-2.597656 1.285156-2.722656 2.734375-1.15625 13.742187-15.289063 16.136719-15.882813 16.230469-1.527343.230468-2.625 1.578124-2.546875 3.121093.082032 1.539063 1.316406 2.769531 2.855469 2.84375 12.070313.566407 15.449219 17.285157 15.476563 17.449219.269531 1.425781 1.519531 2.441406 2.945312 2.441406.085938 0 .164062-.003906.25-.011718 1.53125-.125 2.714844-1.386719 2.753906-2.921876.257813-11.417968 16.660156-17.265624 16.824219-17.324218 1.351563-.464844 2.1875-1.824219 1.992187-3.242188-.195312-1.417968-1.367187-2.5-2.792968-2.585937zm-19.171875 13.589843c-1.847657-3.769531-4.679688-7.894531-8.894531-10.558593 3.714843-2.082031 7.394531-5.257813 9.742187-9.832031 2.113281 3.75 5.3125 7.910156 9.882813 10.449218-3.699219 2.199219-7.976563 5.476563-10.730469 9.941406zm0 0" fill="#3a312a"/><path d="m198.578125 322.507812-18.277344 38.359376c8.800781 1.339843 16.738281 5.261718 23.019531 11l20.738282-43.519532c-8.71875-1.398437-17.21875-3.359375-25.480469-5.839844zm0 0" fill="#87796f"/><path d="m226.714844 326.953125c-.4375-.835937-1.246094-1.417969-2.179688-1.566406-8.46875-1.359375-16.910156-3.292969-25.09375-5.75-1.417968-.425781-2.933594.246093-3.570312 1.582031l-18.277344 38.359375c-.410156.859375-.390625 1.859375.054688 2.695313.445312.839843 1.261718 1.417968 2.203124 1.5625 8.03125 1.222656 15.449219 4.765624 21.445313 10.246093.558594.511719 1.28125.785157 2.023437.785157.195313 0 .386719-.015626.578126-.054688.929687-.183594 1.722656-.796875 2.132812-1.652344l20.738281-43.523437c.40625-.851563.386719-1.847657-.054687-2.683594zm-24.4375 40.128906c-5.21875-4.015625-11.203125-6.875-17.605469-8.410156l15.515625-32.566406c6.382812 1.828125 12.902344 3.34375 19.457031 4.53125zm0 0" fill="#3a312a"/><path d="m315.058594 322.527344c-8.238282 2.460937-16.757813 4.421875-25.480469 5.820312l20.722656 43.519532c6.277344-5.738282 14.21875-9.660157 23.019531-11zm0 0" fill="#87796f"/><path d="m336.03125 359.578125-18.261719-38.339844c-.636719-1.332031-2.144531-2.007812-3.566406-1.585937-8.1875 2.445312-16.632813 4.375-25.097656 5.734375-.933594.148437-1.742188.730469-2.179688 1.566406-.441406.835937-.460937 1.832031-.054687 2.683594l20.722656 43.523437c.410156.855469 1.199219 1.46875 2.132812 1.652344.191407.035156.382813.054688.574219.054688.742188 0 1.46875-.273438 2.023438-.785157 6-5.480469 13.414062-9.023437 21.449219-10.246093.9375-.144532 1.753906-.722657 2.199218-1.5625.441406-.839844.464844-1.835938.058594-2.695313zm-24.6875 7.503906-17.351562-36.445312c6.550781-1.183594 13.070312-2.699219 19.457031-4.515625l15.5 32.546875c-6.40625 1.539062-12.386719 4.398437-17.605469 8.414062zm0 0" fill="#3a312a"/><path d="m62.800781 65.546875c.039063.320313.058594.640625.058594.980469v17.601562c0 1.480469-.378906 2.878906-1.039063 4.101563 11.558594 3.117187 20.101563 13.699219 20.101563 26.257812v37.242188h22.398437v-37.242188c0-24.601562-18-45.078125-41.519531-48.941406zm0 0" fill="#87796f"/><path d="m63.285156 62.589844c-.925781-.160156-1.882812.140625-2.566406.796875-.679688.65625-1.011719 1.59375-.894531 2.535156.023437.195313.039062.394531.039062.605469v17.601562c0 .929688-.234375 1.851563-.679687 2.671875-.4375.804688-.480469 1.769531-.117188 2.613281.363282.839844 1.089844 1.472657 1.972656 1.710938 10.527344 2.839844 17.882813 12.449219 17.882813 23.363281v37.242188c0 1.65625 1.34375 3 3 3h22.398437c1.660157 0 3-1.34375 3-3v-37.242188c0-25.886719-18.519531-47.714843-44.035156-51.898437zm38.035156 86.140625h-16.398437v-34.242188c0-12.542969-7.785156-23.699219-19.273437-28.15625.140624-.726562.210937-1.464843.210937-2.203125v-14.898437c20.753906 5.050781 35.460937 23.542969 35.460937 45.257812zm0 0" fill="#3a312a"/><path d="m74.019531 181.75c3.964844 39.140625 23.28125 74.3125 52.507813 100.664062l23.5 17.871094c30.089844 19.296875 66.945312 30.683594 106.792968 30.683594 95.71875 0 174.300782-65.539062 182.78125-149.21875zm0 0" fill="#f16c7a"/><path d="m441.824219 179.738281c-.566407-.628906-1.375-.988281-2.222657-.988281h-365.582031c-.847656 0-1.65625.359375-2.226562.988281-.570313.628907-.84375 1.46875-.757813 2.3125 3.910156 38.582031 22.902344 75.019531 53.484375 102.589844 1.230469 1.113281 3.125 1.011719 4.238281-.21875 1.109376-1.230469 1.007813-3.128906-.222656-4.238281-28.59375-25.78125-46.671875-59.5625-51.15625-95.433594h358.863282c-4.808594 38.582031-25.035157 74.226562-57.222657 100.671875-33.390625 27.4375-76.789062 42.546875-122.199219 42.546875-37.988281 0-74.355468-10.445312-105.171874-30.207031-1.394532-.894531-3.25-.488281-4.144532.90625-.894531 1.394531-.488281 3.25.90625 4.144531 31.785156 20.378906 69.273438 31.15625 108.410156 31.15625 46.796876 0 91.550782-15.59375 126.011719-43.910156 34.332031-28.214844 55.554688-66.570313 59.753907-108.007813.085937-.84375-.191407-1.683593-.761719-2.3125zm0 0" fill="#3a312a"/><path d="m305.921875 8.488281v143.242188h133.679687c-6.957031-68.808594-61.355468-125.316407-133.679687-143.242188zm0 0" fill="#f16c7a"/><path d="m306.640625 5.578125c-.894531-.21875-1.84375-.019531-2.570313.550781-.722656.566406-1.148437 1.441406-1.148437 2.363282v71.589843c0 1.660157 1.339844 3 3 3 1.65625 0 3-1.339843 3-3v-67.71875c68.808594 18.5 119.371094 72.648438 127.320313 136.367188h-127.320313v-42.035157c0-1.660156-1.34375-3-3-3-1.660156 0-3 1.339844-3 3v45.035157c0 1.65625 1.339844 3 3 3h133.679687c.847657 0 1.65625-.363281 2.222657-.988281.570312-.632813.847656-1.472657.761719-2.316407-6.957032-68.808593-61.589844-127.421875-135.945313-145.847656zm0 0" fill="#3a312a"/><path d="m449.835938 151.730469h-386.035157c-8.285156 0-15.003906 6.71875-15.003906 15.003906 0 8.289063 6.71875 15.007813 15.003906 15.007813h386.035157c8.285156 0 15.003906-6.71875 15.003906-15.007813 0-8.285156-6.71875-15.003906-15.003906-15.003906zm0 0" fill="#d7e057"/><path d="m449.835938 148.730469h-386.035157c-9.929687 0-18.003906 8.078125-18.003906 18.003906 0 9.929687 8.078125 18.003906 18.003906 18.003906h386.035157c9.925781 0 18.003906-8.078125 18.003906-18.003906s-8.078125-18.003906-18.003906-18.003906zm0 30.011719h-386.035157c-6.617187 0-12.003906-5.386719-12.003906-12.007813s5.386719-12.003906 12.003906-12.003906h386.035157c6.617187 0 12.003906 5.386719 12.003906 12.003906 0 6.621094-5.386719 12.007813-12.003906 12.007813zm0 0" fill="#3a312a"/><path d="m184.425781 361.722656c-23.535156-5.925781-47.410156 8.351563-53.335937 31.882813-5.921875 23.53125 8.351562 47.410156 31.882812 53.332031 23.53125 5.925781 47.410156-8.347656 53.335938-31.882812 5.921875-23.53125-8.351563-47.410157-31.882813-53.332032zm0 0" fill="#87796f"/><path d="m173.722656 357.386719c-25.882812 0-46.941406 21.058593-46.941406 46.941406s21.058594 46.941406 46.941406 46.941406c25.882813 0 46.9375-21.058593 46.9375-46.941406s-21.054687-46.941406-46.9375-46.941406zm0 87.882812c-22.574218 0-40.941406-18.367187-40.941406-40.941406s18.367188-40.941406 40.941406-40.941406c22.574219 0 40.9375 18.367187 40.9375 40.941406s-18.363281 40.941406-40.9375 40.941406zm0 0" fill="#3a312a"/><path d="m193.183594 404.328125c0 10.746094-8.714844 19.460937-19.460938 19.460937-10.75 0-19.460937-8.714843-19.460937-19.460937s8.710937-19.460937 19.460937-19.460937c10.746094 0 19.460938 8.714843 19.460938 19.460937zm0 0" fill="#fce8cb"/><path d="m173.722656 381.867188c-12.382812 0-22.460937 10.078124-22.460937 22.460937s10.078125 22.460937 22.460937 22.460937c12.382813 0 22.460938-10.078124 22.460938-22.460937s-10.078125-22.460937-22.460938-22.460937zm0 38.921874c-9.078125 0-16.460937-7.382812-16.460937-16.460937 0-9.074219 7.382812-16.460937 16.460937-16.460937 9.074219 0 16.460938 7.386718 16.460938 16.460937 0 9.078125-7.386719 16.460937-16.460938 16.460937zm0 0" fill="#3a312a"/><path d="m383.855469 404.328125c0 24.269531-19.675781 43.941406-43.941407 43.941406-24.265624 0-43.941406-19.671875-43.941406-43.941406 0-24.265625 19.675782-43.941406 43.941406-43.941406 24.265626 0 43.941407 19.675781 43.941407 43.941406zm0 0" fill="#87796f"/><path d="m339.914062 357.386719c-25.882812 0-46.941406 21.058593-46.941406 46.941406s21.058594 46.941406 46.941406 46.941406c25.882813 0 46.941407-21.058593 46.941407-46.941406s-21.058594-46.941406-46.941407-46.941406zm0 87.882812c-22.574218 0-40.941406-18.367187-40.941406-40.941406s18.367188-40.941406 40.941406-40.941406c22.574219 0 40.941407 18.367187 40.941407 40.941406s-18.367188 40.941406-40.941407 40.941406zm0 0" fill="#3a312a"/><path d="m359.375 404.328125c0 10.746094-8.714844 19.460937-19.460938 19.460937-10.746093 0-19.460937-8.714843-19.460937-19.460937s8.714844-19.460937 19.460937-19.460937c10.746094 0 19.460938 8.714843 19.460938 19.460937zm0 0" fill="#fce8cb"/><path d="m339.914062 381.867188c-12.382812 0-22.460937 10.078124-22.460937 22.460937s10.078125 22.460937 22.460937 22.460937c12.382813 0 22.460938-10.078124 22.460938-22.460937s-10.078125-22.460937-22.460938-22.460937zm0 38.921874c-9.074218 0-16.460937-7.382812-16.460937-16.460937 0-9.074219 7.386719-16.460937 16.460937-16.460937 9.074219 0 16.460938 7.386718 16.460938 16.460937 0 9.078125-7.386719 16.460937-16.460938 16.460937zm0 0" fill="#3a312a"/><path d="m54.269531 57.929688h-42.667969c-4.75 0-8.601562 3.851562-8.601562 8.601562v17.589844c0 4.75 3.851562 8.601562 8.601562 8.601562h42.664063c4.75 0 8.601563-3.851562 8.601563-8.601562v-17.589844c0-4.75-3.847657-8.601562-8.597657-8.601562zm0 0" fill="#d7e057"/><path d="m54.269531 54.929688h-42.667969c-6.398437 0-11.601562 5.203124-11.601562 11.601562v17.589844c0 6.394531 5.203125 11.597656 11.601562 11.597656h42.667969c6.394531 0 11.597657-5.203125 11.597657-11.597656v-17.589844c0-6.398438-5.203126-11.601562-11.597657-11.601562zm5.597657 29.191406c0 3.089844-2.511719 5.601562-5.597657 5.601562h-42.667969c-3.089843 0-5.601562-2.511718-5.601562-5.601562v-17.589844c0-3.085938 2.511719-5.597656 5.601562-5.597656h42.667969c3.085938 0 5.597657 2.511718 5.597657 5.597656zm0 0" fill="#3a312a"/><path d="m176.972656 25.382812c-10.28125-18.707031-37.363281-23.566406-40.984375-21.582031-2.957031 1.628907-14.023437 27.460938-3.742187 46.167969 10.285156 18.707031 24.476562 20.804688 36.828125 14.015625 12.351562-6.789063 18.183593-19.894531 7.898437-38.601563zm0 0" fill="#87796f"/><path d="m179.605469 23.9375c-10.578125-19.246094-39.296875-25.933594-45.058594-22.765625-4.746094 2.609375-15.734375 30.582031-4.925781 50.242187 5.238281 9.527344 11.753906 15.582032 19.363281 17.984376 2.378906.753906 4.832031 1.125 7.328125 1.125 4.671875 0 9.484375-1.3125 14.207031-3.910157 7.246094-3.984375 12.050781-9.753906 13.890625-16.691406 2.050782-7.710937.433594-16.457031-4.804687-25.984375zm-.992188 24.445312c-1.410156 5.3125-5.210937 9.796876-10.984375 12.972657-5.773437 3.171875-11.597656 3.976562-16.835937 2.320312-6.089844-1.921875-11.441407-7.019531-15.914063-15.152343-8.921875-16.234376-.246094-38.710938 2.648438-42.082032 4.128906-.816406 27.589844 3.589844 36.820312 20.386719 4.46875 8.128906 5.90625 15.382813 4.265625 21.554687zm0 0" fill="#3a312a"/><path d="m166.289062 29.101562c-5.785156-10.527343-21.027343-13.265624-23.066406-12.144531-1.667968.914063-7.894531 15.453125-2.105468 25.984375 5.785156 10.527344 13.773437 11.710938 20.726562 7.886719 6.949219-3.820313 10.234375-11.195313 4.445312-21.726563zm0 0" fill="#f16c7a"/><path d="m168.917969 27.660156c-3.5625-6.480468-9.84375-9.992187-14.484375-11.792968-3.132813-1.214844-9.808594-3.105469-12.65625-1.539063-3.511719 1.929687-9.578125 18.621094-3.292969 30.058594 3.117187 5.671875 7.039063 9.285156 11.652344 10.742187 1.472656.464844 2.988281.695313 4.523437.695313 2.847656 0 5.769532-.792969 8.628906-2.367188 4.398438-2.417969 7.324219-5.945312 8.453126-10.203125 1.242187-4.679687.292968-9.925781-2.824219-15.59375zm-2.972657 14.050782c-.710937 2.671874-2.578124 4.855468-5.546874 6.488281-2.96875 1.632812-5.8125 2.042969-8.449219 1.207031-3.09375-.976562-5.855469-3.636719-8.203125-7.910156-4.472656-8.136719-.457032-19.121094 1.078125-21.785156 3.171875.011718 14.371093 2.710937 18.835937 10.839843 2.347656 4.269531 3.117188 8.027344 2.285156 11.160157zm0 0" fill="#3a312a"/><path d="m271.890625 3.800781c-3.617187-1.984375-30.699219 2.875-40.984375 21.582031-10.285156 18.707032-4.449219 31.8125 7.898438 38.601563 12.351562 6.789063 26.542968 4.691406 36.828124-14.015625 10.28125-18.707031-.78125-44.539062-3.742187-46.167969zm0 0" fill="#87796f"/><path d="m281.667969 19.875c-1.609375-7.828125-5.167969-16.960938-8.332031-18.703125-5.765626-3.167969-34.476563 3.519531-45.054688 22.765625-5.242188 9.527344-6.855469 18.273438-4.808594 25.984375 1.839844 6.9375 6.644532 12.707031 13.890625 16.691406 4.726563 2.597657 9.535157 3.910157 14.210938 3.910157 2.492187 0 4.945312-.371094 7.324219-1.125 7.613281-2.402344 14.125-8.457032 19.363281-17.984376 5.949219-10.824218 5.136719-23.125 3.40625-31.539062zm-8.664063 28.648438c-4.46875 8.132812-9.824218 13.230468-15.910156 15.152343-5.238281 1.65625-11.066406.855469-16.839844-2.320312-5.773437-3.175781-9.570312-7.660157-10.984375-12.972657-1.640625-6.171874-.203125-13.421874 4.265625-21.554687 9.320313-16.953125 33.15625-21.273437 36.785156-20.429687 2.851563 3.207031 11.648438 25.816406 2.683594 42.125zm0 0" fill="#3a312a"/><path d="m264.660156 16.957031c-2.035156-1.121093-17.28125 1.617188-23.066406 12.144531-5.789062 10.53125-2.503906 17.90625 4.445312 21.726563 6.953126 3.824219 14.9375 2.640625 20.726563-7.886719 5.789063-10.53125-.441406-25.070312-2.105469-25.984375zm0 0" fill="#f16c7a"/><path d="m266.105469 14.328125c-2.847657-1.566406-9.527344.320313-12.660157 1.539063-4.640624 1.804687-10.917968 5.3125-14.480468 11.792968-3.117188 5.667969-4.070313 10.914063-2.828125 15.59375 1.132812 4.257813 4.054687 7.785156 8.457031 10.203125 2.859375 1.574219 5.777344 2.367188 8.625 2.367188 1.539062 0 3.050781-.230469 4.523438-.695313 4.617187-1.457031 8.539062-5.070312 11.652343-10.742187 6.289063-11.4375.222657-28.128907-3.289062-30.058594zm-1.96875 27.167969c-2.347657 4.273437-5.109375 6.933594-8.203125 7.910156-2.636719.835938-5.480469.429688-8.449219-1.207031-2.96875-1.628907-4.835937-3.816407-5.546875-6.488281-.832031-3.136719-.0625-6.890626 2.285156-11.164063 4.46875-8.128906 15.664063-10.828125 18.835938-10.839844 1.535156 2.667969 5.550781 13.652344 1.078125 21.789063zm0 0" fill="#3a312a"/><path d="m267.695312 98.085938c-.121093-.132813-.238281-.257813-.355468-.398438.128906-1.839844.195312-3.675781.195312-5.554688 0-7.585937-1.105468-14.890624-3.179687-21.734374-6.382813-21.238282-21.886719-37.988282-41.472657-44.734376-6.101562-2.105468-12.589843-3.246093-19.328124-3.246093-6.5 0-12.773438 1.050781-18.683594 3.03125-19.875 6.59375-35.65625 23.476562-42.113282 44.960937-2.0625 6.84375-3.183593 14.136719-3.183593 21.722656 0 2.042969.085937 4.050782.25 6.039063.011719.097656.011719.195313.023437.289063-5.375 6.09375-8.421875 13.035156-8.421875 20.414062 0 2.320312.296875 4.523438.878907 6.609375 5.433593 19.617187 35.441406 29.230469 71.640624 29.230469 36.195313 0 66.199219-9.613282 71.640626-29.230469.578124-2.085937.878906-4.289063.878906-6.609375-.003906-7.542969-3.183594-14.613281-8.769532-20.789062zm0 0" fill="#fce8cb"/><path d="m270.410156 96.625c.082032-1.492188.125-2.972656.125-4.496094 0-7.75-1.113281-15.355468-3.308594-22.597656-6.667968-22.1875-22.875-39.652344-43.363281-46.707031-12.910156-4.457031-27.117187-4.515625-39.933593-.230469-20.824219 6.914062-37.289063 24.464844-44.046876 46.949219-2.195312 7.285156-3.308593 14.882812-3.308593 22.585937 0 1.738282.0625 3.507813.1875 5.316406-5.460938 6.570313-8.339844 13.953126-8.339844 21.425782 0 2.554687.332031 5.050781.988281 7.40625 5.457032 19.683594 33.316406 31.433594 74.53125 31.433594s69.078125-11.75 74.527344-31.429688c.660156-2.359375.992188-4.855469.992188-7.410156 0-7.792969-3.121094-15.464844-9.050782-22.246094zm2.28125 28.054688c-4.625 16.671874-30.964844 27.03125-68.75 27.03125s-64.128906-10.359376-68.75-27.035157c-.507812-1.839843-.769531-3.792969-.769531-5.804687 0-6.453125 2.582031-12.652344 7.671875-18.425782.523438-.59375.777344-1.507812.734375-2.296874-.003906-.027344-.015625-.195313-.015625-.21875-.160156-1.941407-.238281-3.894532-.238281-5.796876 0-7.117187 1.027343-14.136718 3.054687-20.859374 6.195313-20.617188 21.21875-36.683594 40.191406-42.984376 5.703126-1.90625 11.667969-2.871093 17.734376-2.871093 6.25 0 12.425781 1.035156 18.347656 3.078125 18.667968 6.433594 33.464844 22.417968 39.578125 42.769531 2.027343 6.683594 3.050781 13.703125 3.050781 20.863281 0 1.8125-.058594 3.5625-.183594 5.347656-.058594.777344.195313 1.546876.699219 2.144532.144531.171875.289063.328125.421875.472656 5.300781 5.863281 7.992188 12.179688 7.992188 18.777344 0 2.011718-.257813 3.964844-.769532 5.808594zm0 0" fill="#3a312a"/><path d="m184.871094 25.445312c-19.875 6.59375-35.65625 23.476563-42.113282 44.960938-2.0625 6.84375-3.183593 14.136719-3.183593 21.722656 0 2.042969.085937 4.050782.25 6.039063.011719.097656.011719.195312.023437.289062-5.375 6.09375-8.421875 13.035157-8.421875 20.414063 0 2.320312.296875 4.523437.878907 6.609375 4.628906 1.996093 9.570312 3.070312 14.699218 3.070312 26.480469 0 47.9375-28.621093 47.9375-63.925781-.003906-14.757812-3.753906-28.359375-10.070312-39.179688zm0 0" fill="#87796f"/><path d="m187.460938 23.933594c-.714844-1.226563-2.1875-1.777344-3.535157-1.335938-20.820312 6.910156-37.285156 24.460938-44.042969 46.945313-2.195312 7.285156-3.308593 14.882812-3.308593 22.585937 0 1.738282.0625 3.507813.1875 5.316406-5.460938 6.570313-8.339844 13.953126-8.339844 21.425782 0 2.554687.332031 5.050781.992187 7.410156.242188.875.867188 1.589844 1.703126 1.953125 5.101562 2.199219 10.445312 3.316406 15.886718 3.316406 28.085938 0 50.9375-30.023437 50.9375-66.925781-.003906-14.882812-3.625-28.957031-10.480468-40.691406zm-40.460938 101.617187c-4.132812 0-8.210938-.761719-12.140625-2.269531-.292969-1.421875-.4375-2.898438-.4375-4.410156 0-6.453125 2.582031-12.65625 7.671875-18.429688.523438-.589844.777344-1.507812.734375-2.292968-.003906-.027344-.015625-.199219-.015625-.222657-.160156-1.941406-.238281-3.890625-.238281-5.796875 0-7.117187 1.027343-14.132812 3.054687-20.859375 5.9375-19.765625 19.992188-35.347656 37.859375-42.148437 5.535157 10.375 8.449219 22.589844 8.449219 35.503906 0 33.597656-20.160156 60.925781-44.9375 60.925781zm0 0" fill="#3a312a"/><path d="m267.695312 98.085938c-.121093-.132813-.238281-.257813-.355468-.398438.128906-1.839844.195312-3.675781.195312-5.554688 0-7.585937-1.105468-14.890624-3.179687-21.734374-6.382813-21.238282-21.886719-37.988282-41.472657-44.734376-6.230468 10.785157-9.9375 24.300782-9.9375 38.964844 0 35.304688 21.457032 63.929688 47.9375 63.929688 5.125 0 10.066407-1.074219 14.699219-3.074219.578125-2.082031.882813-4.285156.882813-6.609375-.003906-7.542969-3.183594-14.613281-8.769532-20.789062zm0 0" fill="#87796f"/><path d="m270.410156 96.625c.082032-1.492188.125-2.972656.125-4.496094 0-7.75-1.113281-15.355468-3.308594-22.597656-6.667968-22.1875-22.875-39.652344-43.367187-46.707031-1.355469-.472657-2.855469.089843-3.574219 1.335937-6.765625 11.707032-10.339844 25.699219-10.339844 40.464844 0 36.90625 22.847657 66.925781 50.9375 66.925781 5.4375 0 10.78125-1.113281 15.886719-3.316406.832031-.359375 1.457031-1.074219 1.699219-1.949219.660156-2.363281.992188-4.855468.992188-7.414062 0-7.792969-3.121094-15.464844-9.050782-22.246094zm2.617188 26.65625c-3.929688 1.507812-8.007813 2.269531-12.144532 2.269531-24.777343 0-44.9375-27.332031-44.9375-60.925781 0-12.789062 2.867188-24.921875 8.320313-35.257812 17.546875 6.925781 31.363281 22.410156 37.21875 41.898437 2.023437 6.683594 3.050781 13.703125 3.050781 20.863281 0 1.8125-.0625 3.5625-.1875 5.347656-.054687.777344.199219 1.546876.703125 2.144532.144531.171875.289063.328125.417969.472656 5.304688 5.863281 7.992188 12.179688 7.992188 18.777344 0 1.511718-.148438 2.992187-.433594 4.410156zm0 0" fill="#3a312a"/><path d="m203.96875 93.445312c-5.679688-.023437-10.296875 2.71875-10.3125 6.128907-.011719 3.40625 4.566406 8.929687 10.246094 8.957031 5.679687.023438 10.308594-5.460938 10.320312-8.867188.015625-3.410156-4.574218-6.195312-10.253906-6.21875zm0 0" fill="#3a312a"/><path d="m203.941406 105.464844c0 7.339844-5.558594 13.367187-12.695312 14.109375.132812 8.839843 5.769531 15.941406 12.695312 15.941406 6.929688 0 12.5625-7.105469 12.695313-15.941406-7.136719-.742188-12.695313-6.769531-12.695313-14.109375zm0 0" fill="#f16c7a"/><g fill="#3a312a"><path d="m216.949219 116.589844c-5.707031-.59375-10.007813-5.378906-10.007813-11.125 0-1.65625-1.339844-3-3-3-1.65625 0-3 1.34375-3 3 0 5.746094-4.300781 10.527344-10.003906 11.125-1.546875.160156-2.714844 1.472656-2.691406 3.027344.160156 10.59375 7.054687 18.898437 15.695312 18.898437s15.535156-8.300781 15.695313-18.898437c.023437-1.550782-1.144531-2.867188-2.6875-3.027344zm-13.007813 15.925781c-4.621094 0-8.546875-4.53125-9.484375-10.511719 3.933594-1.105468 7.257813-3.554687 9.484375-6.808594 2.226563 3.25 5.550782 5.703126 9.488282 6.808594-.941407 5.980469-4.871094 10.511719-9.488282 10.511719zm0 0"/><path d="m203.941406 102.464844c-1.65625 0-3 1.34375-3 3 0 5.75-4.300781 10.53125-10.046875 11.128906-.375.042969-.757812.0625-1.140625.0625-6.167968 0-11.191406-5.023438-11.191406-11.191406 0-1.65625-1.339844-3-3-3-1.65625 0-3 1.34375-3 3 0 9.476562 7.714844 17.191406 17.191406 17.191406.617188 0 1.238282-.035156 1.804688-.101562 8.769531-.914063 15.382812-8.261719 15.382812-17.089844 0-1.65625-1.34375-3-3-3zm0 0"/><path d="m232.320312 102.464844c-1.660156 0-3 1.34375-3 3 0 6.171875-5.019531 11.191406-11.191406 11.191406-.382812 0-.761718-.019531-1.183594-.066406-5.703124-.59375-10.003906-5.375-10.003906-11.125 0-1.65625-1.34375-3-3-3-1.660156 0-3 1.34375-3 3 0 8.832031 6.613282 16.179687 15.339844 17.085937.609375.074219 1.226562.105469 1.847656.105469 9.476563 0 17.1875-7.710938 17.1875-17.191406.003906-1.65625-1.339844-3-2.996094-3zm0 0"/></g><path d="m162.207031 89.902344c-7.375 0-13.351562 3.734375-13.351562 8.34375s5.980469 8.347656 13.351562 8.347656c7.378907 0 13.355469-3.738281 13.355469-8.347656s-5.976562-8.34375-13.355469-8.34375zm0 0" fill="#f5978a"/><path d="m245.675781 89.902344c-7.375 0-13.355469 3.734375-13.355469 8.34375s5.980469 8.347656 13.355469 8.347656 13.355469-3.738281 13.355469-8.347656-5.980469-8.34375-13.355469-8.34375zm0 0" fill="#f5978a"/><path d="m182.238281 75.835938c-3.222656 0-5.839843 2.617187-5.839843 5.84375 0 3.226562 2.617187 5.839843 5.839843 5.839843 3.226563 0 5.84375-2.613281 5.84375-5.839843 0-3.230469-2.617187-5.84375-5.84375-5.84375zm0 0" fill="#3a312a"/><path d="m225.640625 75.835938c-3.226563 0-5.839844 2.617187-5.839844 5.84375 0 3.226562 2.613281 5.839843 5.839844 5.839843s5.84375-2.613281 5.84375-5.839843c0-3.230469-2.613281-5.84375-5.84375-5.84375zm0 0" fill="#3a312a"/><path d="m190.511719 158.632812c0 9.496094-7.695313 17.191407-17.191407 17.191407-9.492187 0-17.1875-7.695313-17.1875-17.191407 0-9.492187 7.695313-17.1875 17.1875-17.1875 9.496094 0 17.191407 7.695313 17.191407 17.1875zm0 0" fill="#87796f"/><path d="m173.320312 138.445312c-11.128906 0-20.1875 9.058594-20.1875 20.1875 0 11.132813 9.054688 20.191407 20.1875 20.191407 11.136719 0 20.191407-9.054688 20.191407-20.191407 0-11.128906-9.058594-20.1875-20.191407-20.1875zm0 34.378907c-7.824218 0-14.1875-6.367188-14.1875-14.191407 0-7.820312 6.363282-14.1875 14.1875-14.1875 7.824219 0 14.191407 6.367188 14.191407 14.1875 0 7.824219-6.367188 14.191407-14.191407 14.191407zm0 0" fill="#3a312a"/><path d="m236.839844 141.609375c-9.410156-1.257813-18.054688 5.351563-19.3125 14.761719-1.253906 9.410156 5.355468 18.058594 14.765625 19.316406 9.410156 1.253906 18.058593-5.355469 19.3125-14.765625 1.257812-9.410156-5.355469-18.058594-14.765625-19.3125zm0 0" fill="#87796f"/><path d="m234.558594 138.445312c-11.128906 0-20.1875 9.058594-20.1875 20.1875 0 11.132813 9.054687 20.191407 20.1875 20.191407 11.132812 0 20.191406-9.054688 20.191406-20.191407 0-11.128906-9.054688-20.1875-20.191406-20.1875zm0 34.378907c-7.824219 0-14.1875-6.367188-14.1875-14.191407 0-7.820312 6.363281-14.1875 14.1875-14.1875 7.824218 0 14.191406 6.367188 14.191406 14.1875 0 7.824219-6.367188 14.191407-14.191406 14.191407zm0 0" fill="#3a312a"/><path d="m308.921875 12.367188v10.820312c53.199219 24.339844 90.578125 71.5 97.316406 125.542969h30c-7.9375-63.722657-58.5-117.863281-127.316406-136.363281zm0 0" fill="#d34e5c"/><path d="m406.238281 184.75c-4.796875 38.578125-25.039062 74.21875-57.21875 100.679688-29.71875 24.398437-67.359375 39.058593-107.300781 41.980468 5 .378906 10.042969.558594 15.101562.558594 45.417969 0 88.800782-15.121094 122.199219-42.539062 32.179688-26.460938 52.421875-62.101563 57.21875-100.679688zm0 0" fill="#d34e5c"/><path d="m449.839844 154.730469h-30c6.621094 0 12 5.378906 12 12 0 6.617187-5.378906 12.019531-12 12.019531h30c6.621094 0 12-5.402344 12-12.019531 0-6.621094-5.378906-12-12-12zm0 0" fill="#b9c239"/></svg>