<svg height="450pt" viewBox="-8 0 450 450.68049" width="450pt" xmlns="http://www.w3.org/2000/svg"><path d="m65.160156 22.351562c-1.949218 23.128907-26.050781 26.777344-26.050781 26.777344 20.695313.976563 25.851563 28.121094 25.851563 28.121094.441406-19.355469 26.640624-28.40625 26.640624-28.40625-19.625-1.171875-26.441406-26.492188-26.441406-26.492188zm0 0" fill="#d7e057"/><path d="m91.78125 45.851562c-17.207031-1.03125-23.664062-24.050781-23.726562-24.28125-.378907-1.40625-1.707032-2.320312-3.167969-2.207031-1.449219.132813-2.59375 1.285157-2.714844 2.734375-1.722656 20.429688-22.628906 23.929688-23.507813 24.066406-1.527343.230469-2.628906 1.582032-2.546874 3.121094.078124 1.542969 1.3125 2.769532 2.855468 2.84375 18.054688.847656 22.996094 25.4375 23.042969 25.683594.273437 1.421875 1.519531 2.433594 2.945313 2.433594.082031 0 .167968 0 .25-.007813 1.53125-.128906 2.714843-1.386719 2.75-2.917969.386718-17.019531 24.382812-25.554687 24.628906-25.640624 1.351562-.46875 2.183594-1.828126 1.988281-3.246094-.199219-1.414063-1.367187-2.496094-2.796875-2.582032zm-27.132812 20.691407c-2.710938-6.261719-7.417969-13.816407-15.171876-17.753907 5.863282-2.808593 12.816407-7.824218 16.402344-16.542968 3.101563 6.140625 8.398438 13.757812 16.667969 17.445312-6.015625 3.277344-13.84375 8.808594-17.898437 16.851563zm0 0" fill="#3a312a"/><path d="m21.761719 56.3125c-1.378907 16.359375-18.421875 18.941406-18.421875 18.941406 14.632812.6875 18.28125 19.886719 18.28125 19.886719.3125-13.6875 18.84375-20.089844 18.84375-20.089844-13.878906-.828125-18.703125-18.738281-18.703125-18.738281zm0 0" fill="#d7e057"/><path d="m40.644531 72.054688c-11.53125-.6875-15.945312-16.371094-15.988281-16.527344-.378906-1.40625-1.726562-2.324219-3.160156-2.203125-1.453125.128906-2.601563 1.285156-2.722656 2.734375-1.15625 13.742187-15.292969 16.136718-15.882813 16.230468-1.527344.230469-2.625 1.578126-2.546875 3.121094.082031 1.539063 1.316406 2.769532 2.855469 2.84375 12.070312.566406 15.445312 17.285156 15.476562 17.449219.273438 1.425781 1.519531 2.441406 2.945313 2.441406.082031 0 .167968-.003906.25-.011719 1.53125-.125 2.71875-1.386718 2.753906-2.921874.257812-11.417969 16.660156-17.265626 16.824219-17.324219 1.351562-.464844 2.183593-1.824219 1.992187-3.242188-.199218-1.417969-1.367187-2.503906-2.796875-2.589843zm-19.171875 13.59375c-1.847656-3.773438-4.679687-7.894532-8.890625-10.5625 3.710938-2.082032 7.394531-5.257813 9.742188-9.832032 2.113281 3.75 5.304687 7.910156 9.878906 10.445313-3.695313 2.207031-7.976563 5.484375-10.730469 9.949219zm0 0" fill="#3a312a"/><path d="m21.761719 3c-1.378907 16.355469-18.421875 18.941406-18.421875 18.941406 14.632812.6875 18.28125 19.886719 18.28125 19.886719.3125-13.6875 18.84375-20.089844 18.84375-20.089844-13.878906-.832031-18.703125-18.738281-18.703125-18.738281zm0 0" fill="#d7e057"/><path d="m40.644531 18.742188c-11.53125-.691407-15.945312-16.371094-15.988281-16.527344-.378906-1.40625-1.726562-2.324219-3.160156-2.2031252-1.453125.1289062-2.601563 1.2851562-2.722656 2.7343752-1.15625 13.742187-15.292969 16.132812-15.882813 16.226562-1.527344.230469-2.625 1.578125-2.546875 3.121094.082031 1.539062 1.316406 2.769531 2.855469 2.84375 12.070312.566406 15.445312 17.285156 15.476562 17.449219.273438 1.425781 1.519531 2.441406 2.945313 2.441406.082031 0 .167968 0 .25-.007813 1.53125-.128906 2.71875-1.390624 2.753906-2.921874.257812-11.421876 16.660156-17.269532 16.824219-17.324219 1.351562-.46875 2.183593-1.828125 1.992187-3.246094-.199218-1.417969-1.367187-2.5-2.796875-2.585937zm-19.171875 13.589843c-1.847656-3.773437-4.679687-7.894531-8.890625-10.558593 3.710938-2.082032 7.394531-5.261719 9.742188-9.835938 2.113281 3.75 5.304687 7.910156 9.878906 10.449219-3.695313 2.203125-7.976563 5.480469-10.730469 9.945312zm0 0" fill="#3a312a"/><path d="m426.800781 199.972656c-6.734375-33.898437-21.730469-64.808594-42.824219-90.539062-37.972656-46.402344-95.695312-75.992188-160.316406-75.992188-109.515625 0-199.160156 84.992188-206.609375 192.613282l.03125 29.492187c7.679688 107.394531 97.226563 192.136719 206.578125 192.136719 95.933594 0 176.632813-65.234375 200.152344-153.75 4.542969-17.019532 6.96875-34.914063 6.96875-53.371094 0-13.890625-1.367188-27.476562-3.980469-40.589844zm0 0" fill="#8ac6dd"/><path d="m429.746094 199.390625c-6.664063-33.550781-21.691406-65.316406-43.445313-91.859375-40.097656-48.992188-99.375-77.089844-162.640625-77.089844-109.953125 0-202.019531 85.832032-209.601562 195.40625-.117188 1.65625 1.132812 3.085938 2.785156 3.199219 1.636719.113281 3.085938-1.128906 3.199219-2.785156 7.367187-106.441407 96.804687-189.824219 203.617187-189.824219 61.457032 0 119.046875 27.300781 158 74.898438 21.132813 25.78125 35.726563 56.632812 42.199219 89.222656 2.601563 13.054687 3.921875 26.515625 3.921875 40 0 17.832031-2.3125 35.53125-6.867188 52.601562-23.707031 89.210938-104.820312 151.519532-197.253906 151.519532-51.949218 0-101.445312-19.527344-139.371094-54.988282-37.738281-35.285156-60.542968-83.003906-64.214843-134.359375-.121094-1.65625-1.511719-2.882812-3.210938-2.78125-1.652343.121094-2.894531 1.554688-2.777343 3.207031 3.78125 52.871094 27.257812 101.996094 66.105468 138.320313 39.039063 36.5 89.992188 56.601563 143.464844 56.601563 95.152344 0 178.652344-64.140626 203.050781-155.976563 4.691407-17.574219 7.070313-35.789063 7.070313-54.144531 0-13.878906-1.355469-27.730469-4.03125-41.167969zm0 0" fill="#3a312a"/><path d="m223.660156 33.4375c-64.742187 0-122.539062 29.710938-160.511718 76.230469-1.882813 15.441406-2.730469 31.050781-2.519532 46.707031.894532 64.972656 20.109375 128.65625 54.832032 183.175781 48.285156-13.980469 89.058593-49.695312 108.199218-98.992187-48.59375-60.5-48.59375-146.617188 0-207.121094zm0 0" fill="#f16c7a"/><path d="m226 238.683594c-23.074219-28.734375-35.785156-64.84375-35.785156-101.683594s12.710937-72.953125 35.785156-101.679688c.71875-.902343.863281-2.136718.363281-3.179687-.496093-1.039063-1.550781-1.703125-2.703125-1.703125-63.367187 0-122.714844 28.1875-162.832031 77.332031-.359375.4375-.585937.972657-.652344 1.53125-1.898437 15.566407-2.753906 31.417969-2.542969 47.113281.902344 65.476563 20.023438 129.359376 55.296876 184.75.5625.878907 1.527343 1.386719 2.53125 1.386719.28125 0 .558593-.039062.835937-.117187 50.113281-14.515625 91.292969-52.191406 110.160156-100.792969.386719-.992187.210938-2.121094-.457031-2.957031zm-109.21875 97.347656c-33.90625-54.003906-52.277344-116.085938-53.152344-179.695312-.207031-15.136719.601563-30.421876 2.394532-45.441407 37.652343-45.734375 92.519531-72.605469 151.453124-74.363281-21.488281 28.929688-33.261718 64.363281-33.261718 100.46875 0 37.617188 12.78125 74.503906 36.015625 104.070312-18.191407 45.402344-56.640625 80.6875-103.449219 94.960938zm0 0" fill="#3a312a"/><path d="m426.800781 199.972656c-6.734375-33.898437-21.730469-64.808594-42.824219-90.539062-15.867187-6.121094-32.203124-11.066406-48.894531-14.808594-12.710937-2.851562-25.542969-4.945312-38.425781-6.347656l-28.414062-1.917969c-25.117188-.671875-50.246094 1.328125-74.90625 6.003906-6.496094 23.261719-7.816407 47.671875-3.929688 71.378907.539062 3.4375 1.199219 6.851562 2 10.242187.375 1.671875.796875 3.367187 1.246094 5.035156v.074219c.328125 1.269531.683594 2.539062 1.035156 3.789062.730469 2.519532 1.53125 4.992188 2.355469 7.484376.421875 1.226562.871093 2.472656 1.320312 3.699218.046875.136719.09375.28125.140625.398438.5625 1.484375 1.128906 2.96875 1.742188 4.449218.023437.070313.042968.140626.09375.210938.492187 1.273438 1.035156 2.542969 1.597656 3.816406.894531 2.117188 1.859375 4.238282 2.898438 6.308594.539062 1.128906 1.082031 2.261719 1.671874 3.367188.234376.449218.46875.894531.703126 1.339843.683593 1.320313 1.414062 2.660157 2.144531 3.957031.09375.164063.1875.332032.257812.46875.703125 1.226563 1.410157 2.425782 2.117188 3.628907.304687.515625.613281 1.011719.917969 1.503906.683593 1.105469 1.367187 2.191406 2.070312 3.273437.238281.398438.496094.777344.730469 1.152344.871093 1.296875 1.742187 2.589844 2.636719 3.886719.824218 1.152344 1.625 2.28125 2.472656 3.414063l1.273437 1.691406c.917969 1.226562 1.859375 2.425781 2.824219 3.625l.046875-.023438c71-31.285156 154.152344-8.96875 200.011719 53.628906l.09375-.234374c4.542968-17.019532 6.96875-34.914063 6.96875-53.371094.003906-13.886719-1.363282-27.472656-3.976563-40.585938zm0 0" fill="#f16c7a"/><path d="m429.746094 199.390625c-6.664063-33.550781-21.691406-65.316406-43.449219-91.859375-.328125-.402344-.753906-.710938-1.238281-.898438-15.929688-6.140624-32.523438-11.167968-49.320313-14.933593-12.570312-2.820313-25.613281-4.972657-38.761719-6.402344-1.617187-.183594-3.125 1.011719-3.304687 2.660156-.179687 1.648438 1.011719 3.128907 2.660156 3.304688 12.925781 1.40625 25.742188 3.523437 38.09375 6.292969 16.25 3.644531 32.304688 8.484374 47.734375 14.394531 20.863282 25.65625 35.277344 56.28125 41.699219 88.613281 2.601563 13.054688 3.921875 26.511719 3.921875 40 0 15.84375-1.824219 31.578125-5.425781 46.863281-22.386719-28.269531-53.5625-48.824219-88.4375-58.175781-36.101563-9.679688-74.765625-6.988281-109.332031 7.652344-.457032-.585938-.90625-1.171875-1.351563-1.765625l-1.273437-1.695313c-.742188-.992187-1.453126-1.984375-2.171876-2.996094l-.234374-.324218c-.882813-1.285156-1.75-2.570313-2.554688-3.761719l-.308594-.488281c-.128906-.195313-.257812-.394532-.453125-.722656-.695312-1.0625-1.363281-2.121094-2.039062-3.214844-.289063-.472656-.585938-.945313-.882813-1.445313-.699218-1.195312-1.398437-2.382812-2.023437-3.453125-.09375-.1875-.214844-.40625-.324219-.59375-.710938-1.261718-1.425781-2.574218-2.101562-3.886718l-.707032-1.34375c-.570312-1.074219-1.097656-2.164063-1.640625-3.300782-.957031-1.914062-1.902343-3.980468-2.835937-6.1875-.546875-1.226562-1.070313-2.457031-1.546875-3.683594-.03125-.078124-.0625-.15625-.101563-.230468-.003906-.011719-.011718-.027344-.015625-.039063-.597656-1.445312-1.148437-2.894531-1.730469-4.417969l-.109374-.316406c-.441407-1.207031-.882813-2.441406-1.289063-3.609375-.765625-2.320312-1.578125-4.820312-2.3125-7.359375-.324219-1.148437-.648437-2.3125-.957031-3.476562-.015625-.117188-.039063-.230469-.070313-.34375-.4375-1.632813-.851562-3.292969-1.222656-4.953125-.761719-3.210938-1.417969-6.582031-1.960937-10.035157-3.703126-22.59375-2.535157-46.164062 3.371093-68.292968 23.765625-4.371094 48.121094-6.261719 72.429688-5.609375 1.632812.074219 3.035156-1.261719 3.078125-2.917969.042968-1.65625-1.265625-3.03125-2.917969-3.078125-25.355469-.675781-50.78125 1.359375-75.546875 6.058594-1.121094.210937-2.023438 1.039062-2.332031 2.136719-6.558594 23.480468-7.945313 48.613281-4.003907 72.65625.5625 3.582031 1.25 7.105468 2.039063 10.433593.367187 1.625.777344 3.273438 1.207031 4.898438.015625.101562.039063.203125.0625.300781.335938 1.292969.695313 2.585938 1.058594 3.875.769531 2.652344 1.601562 5.21875 2.398438 7.632812.429687 1.242188.882812 2.503907 1.347656 3.78125.054687.160157.109375.3125.15625.433594.558594 1.46875 1.121094 2.941406 1.726562 4.410156.035156.105469.09375.25.171875.414063.492188 1.257813 1.027344 2.511719 1.566407 3.71875.960937 2.273437 1.960937 4.453125 2.953124 6.4375.558594 1.167969 1.121094 2.332031 1.71875 3.464844l.703126 1.324219c.699218 1.351562 1.445312 2.722656 2.207031 4.082031.066406.109375.128906.21875.257812.460937.707031 1.234375 1.421875 2.445313 2.128907 3.648438.316406.542968.636718 1.054687.953124 1.5625.695313 1.125 1.390626 2.234375 2.035157 3.210937.167969.289063.347656.5625.523437.832031l.308594.484376c.875 1.304687 1.753906 2.609374 2.683594 3.953124l.257812.359376c.75 1.046874 1.480469 2.078124 2.257813 3.109374l1.269531 1.695313c.9375 1.253906 1.902344 2.476563 2.886719 3.707031.851562 1.058594 2.351562 1.394532 3.59375.839844 33.710937-14.855469 71.871093-17.78125 107.449219-8.242188 35.570312 9.542969 67.15625 31.167969 88.933593 60.898438.570313.773438 1.472657 1.226562 2.421875 1.226562.121094 0 .242188-.007812.367188-.023437 1.078125-.132813 2-.839844 2.410156-1.84375l.097656-.234375c.046875-.117188.085938-.238281.121094-.359375 4.691406-17.574219 7.066406-35.789063 7.066406-54.144531-.007812-13.878906-1.363281-27.730469-4.039062-41.167969zm0 0" fill="#3a312a"/><path d="m426.800781 199.972656c-.796875-.445312-1.621093-.867187-2.421875-1.316406-27.96875-15.089844-58.007812-26.390625-89.292968-33.40625-48.050782-10.785156-97.796876-11.136719-145.679688-1.507812.5625 3.4375 1.222656 6.851562 2.003906 10.242187.375 1.671875.796875 3.363281 1.246094 5.035156v.074219c.332031 1.269531.683594 2.539062 1.035156 3.789062.730469 2.519532 1.53125 4.992188 2.355469 7.484376.421875 1.226562.871094 2.472656 1.316406 3.699218.046875.140625.09375.28125.140625.398438.566406 1.480468 1.128906 2.964844 1.742188 4.449218.023437.070313.046875.140626.09375.210938.496094 1.273438 1.035156 2.542969 1.601562 3.816406.894532 2.117188 1.859375 4.234375 2.894532 6.308594.542968 1.128906 1.082031 2.261719 1.671874 3.367188.238282.449218.46875.894531.707032 1.339843.679687 1.320313 1.410156 2.660157 2.140625 3.957031.09375.164063.1875.328126.257812.46875.707031 1.226563 1.414063 2.425782 2.117188 3.628907.308593.515625.613281 1.011719.917969 1.503906.683593 1.105469 1.367187 2.191406 2.074218 3.273437.234375.398438.492188.777344.730469 1.152344.871094 1.296875 1.742187 2.589844 2.636719 3.886719.824218 1.148437 1.621094 2.28125 2.46875 3.414063l1.273437 1.691406c.917969 1.226562 1.859375 2.425781 2.824219 3.625l.046875-.023438c71.003906-31.285156 154.152344-8.96875 200.011719 53.628906l.09375-.234374c4.546875-17.019532 6.96875-34.914063 6.96875-53.371094.003906-13.886719-1.363282-27.46875-3.976563-40.585938zm0 0" fill="#d7e057"/><path d="m429.742188 199.386719c-.167969-.859375-.710938-1.601563-1.476563-2.03125-.417969-.234375-.847656-.464844-1.273437-.695313-.386719-.207031-.773438-.410156-1.191407-.644531-28.402343-15.328125-58.703125-26.664063-90.0625-33.695313-47.765625-10.71875-98.570312-11.242187-146.925781-1.519531-1.585938.316407-2.628906 1.832031-2.371094 3.425781.605469 3.671876 1.273438 7.082032 2.039063 10.414063.367187 1.628906.777343 3.273437 1.207031 4.898437.015625.101563.039062.203126.0625.304688.335938 1.292969.695312 2.585938 1.058594 3.875.769531 2.652344 1.601562 5.214844 2.398437 7.632812.429688 1.238282.882813 2.503907 1.34375 3.765626.054688.164062.113281.324218.148438.414062.5625 1.480469 1.128906 2.964844 1.738281 4.441406.035156.109375.09375.25.171875.414063.492187 1.257812 1.027344 2.515625 1.566406 3.722656.960938 2.277344 1.964844 4.460937 2.953125 6.4375.558594 1.167969 1.125 2.335937 1.71875 3.460937l.703125 1.332032c.699219 1.347656 1.445313 2.71875 2.207031 4.082031.0625.105469.125.207031.257813.460937.707031 1.234376 1.421875 2.441407 2.128906 3.648438.320313.539062.636719 1.054688.953125 1.558594.695313 1.128906 1.390625 2.234375 2.039063 3.21875.164062.28125.339843.554687.519531.824218l.308594.484376c.875 1.304687 1.753906 2.609374 2.683594 3.957031l.292968.40625c.734375 1.03125 1.457032 2.042969 2.222656 3.0625l1.269532 1.695312c.9375 1.25 1.902344 2.476563 2.882812 3.703125.855469 1.058594 2.355469 1.394532 3.597656.84375 33.710938-14.855468 71.871094-17.785156 107.449219-8.242187 35.570313 9.542969 67.15625 31.167969 88.933594 60.898437.570313.777344 1.472656 1.226563 2.421875 1.226563.121094 0 .242188-.007813.367188-.019531 1.082031-.136719 2.003906-.84375 2.414062-1.851563l.09375-.234375c.046875-.117188.085938-.234375.121094-.355469 4.691406-17.574219 7.066406-35.789062 7.066406-54.140625-.003906-13.886718-1.359375-27.738281-4.039062-41.179687zm-7.386719 88.039062c-22.386719-28.269531-53.5625-48.824219-88.4375-58.175781-14.21875-3.816406-28.832031-5.707031-43.4375-5.707031-22.480469 0-44.941407 4.484375-65.894531 13.355469-.457032-.582032-.90625-1.171876-1.351563-1.765626l-1.273437-1.691406c-.730469-.980468-1.429688-1.957031-2.136719-2.949218l-.265625-.371094c-.886719-1.285156-1.753906-2.570313-2.558594-3.761719l-.308594-.488281c-.128906-.195313-.257812-.394532-.453125-.71875-.695312-1.0625-1.363281-2.125-2.039062-3.214844-.292969-.476562-.589844-.949219-.882813-1.449219-.699218-1.191406-1.398437-2.382812-2.015625-3.4375-.09375-.191406-.21875-.414062-.332031-.605469-.710938-1.265624-1.425781-2.578124-2.101562-3.886718l-.710938-1.351563c-.566406-1.066406-1.09375-2.160156-1.636719-3.296875-.953125-1.910156-1.902343-3.972656-2.835937-6.1875-.546875-1.226562-1.070313-2.453125-1.546875-3.683594-.03125-.078124-.0625-.160156-.101563-.234374-.007812-.011719-.011718-.023438-.015625-.035157-.601562-1.457031-1.15625-2.914062-1.730469-4.417969l-.109374-.316406c-.441407-1.207031-.882813-2.4375-1.289063-3.605468-.765625-2.324219-1.578125-4.824219-2.3125-7.363282-.324219-1.144531-.648437-2.308594-.957031-3.476562-.015625-.117188-.039063-.230469-.070313-.34375-.4375-1.632813-.851562-3.289063-1.21875-4.929688-.535156-2.339844-1.023437-4.710937-1.472656-7.195312 46.679687-8.96875 95.558594-8.265625 141.566406 2.058594 30.824219 6.910156 60.605469 18.054687 88.488281 33.097656.398438.222656.804688.441406 1.210938.660156 2.425781 12.621094 3.652344 25.609375 3.652344 38.625 0 15.84375-1.824219 31.578125-5.421875 46.863281zm0 0" fill="#3a312a"/><path d="m223.660156 33.4375c-34.183594 0-66.4375 8.285156-94.851562 22.976562-4.945313 24.273438-7.320313 49.109376-6.96875 74.0625.871094 63.164063 19.046875 125.054688 51.933594 178.542969 21.753906-17.609375 39.199218-40.914062 49.886718-68.460937-48.59375-60.5-48.59375-146.617188 0-207.121094zm0 0" fill="#d7e057"/><path d="m226 238.683594c-23.074219-28.734375-35.785156-64.84375-35.785156-101.683594s12.707031-72.953125 35.785156-101.679688c.71875-.902343.863281-2.136718.363281-3.179687-.496093-1.039063-1.550781-1.703125-2.703125-1.703125-33.453125 0-66.726562 8.0625-96.226562 23.3125-.804688.417969-1.378906 1.175781-1.5625 2.066406-5.015625 24.625-7.378906 49.761719-7.027344 74.703125.875 63.5 18.988281 125.765625 52.375 180.070313.453125.738281 1.199219 1.242187 2.050781 1.386718.167969.03125.335938.042969.503907.042969.683593 0 1.351562-.234375 1.886718-.667969 22.648438-18.335937 40.214844-42.441406 50.792969-69.710937.390625-.992187.214844-2.121094-.453125-2.957031zm-51.46875 65.816406c-31.675781-52.683594-48.847656-112.789062-49.691406-174.0625-.34375-24.039062 1.882812-48.257812 6.621094-72.011719 26.882812-13.660156 55.785156-21.015625 86.019531-21.894531-21.492188 28.929688-33.265625 64.363281-33.265625 100.46875 0 37.617188 12.78125 74.503906 36.015625 104.074219-9.832031 24.566406-25.566407 46.402343-45.699219 63.425781zm0 0" fill="#3a312a"/><path d="m315.847656 228.53125c-.800781-.144531-1.625-.261719-2.421875-.378906-.96875-.117188-1.90625-.257813-2.875-.375-2.871093-.351563-5.765625-.636719-8.683593-.847656-1.929688-.121094-3.859376-.238282-5.816407-.308594-5.53125-.1875-11.113281-.117188-16.691406.257812-6.050781.402344-12.125 1.132813-18.175781 2.214844-2.753906.492188-5.507813 1.058594-8.238282 1.695312-5.488281 1.269532-10.945312 2.847657-16.363281 4.707032-2.707031.917968-5.390625 1.929687-8.074219 3.011718-1.339843.542969-2.683593 1.105469-4 1.671876l-.847656.378906c-24.980468 64.316406-86.753906 105.515625-154.035156 105.515625-8.382812 0-16.855469-.636719-25.332031-1.957031v.070312c17.375 30.015625 42.070312 55.277344 71.664062 73.3125 27.683594 16.902344 59.675781 27.472656 93.929688 29.707031 16.761719-8.734375 32.867187-18.832031 48.097656-30.273437 55.628906-41.738282 97.652344-99.558594 120.414063-164.980469-19.117188-12.027344-40.445313-19.960937-62.550782-23.421875zm0 0" fill="#f16c7a"/><path d="m379.996094 249.417969c-19.480469-12.261719-40.90625-20.285157-63.625-23.839844-.761719-.132813-1.546875-.25-2.316406-.363281l-.269532-.035156c-.476562-.058594-.945312-.125-1.414062-.183594l-1.457032-.195313c-2.917968-.355469-5.886718-.644531-8.992187-.871093-1.914063-.113282-3.828125-.230469-5.773437-.300782-5.773438-.199218-11.492188-.109375-16.988282.261719-6.230468.414063-12.457031 1.171875-18.507812 2.253906-2.820313.507813-5.640625 1.085938-8.386719 1.726563-5.511719 1.277344-11.121094 2.890625-16.648437 4.789062-2.621094.886719-5.3125 1.890625-8.230469 3.074219-1.363281.546875-2.722657 1.121094-4.101563 1.710937l-.847656.378907c-.722656.324219-1.292969.917969-1.578125 1.652343-24.066406 61.96875-84.84375 103.601563-151.238281 103.601563-8.316406 0-16.683594-.644531-24.867188-1.917969-.863281-.128906-1.746094.152344-2.414062.722656-.664063.570313-1.046875 1.4375-1.046875 2.3125 0 .527344.136719 1.046876.402343 1.503907 17.589844 30.390625 42.730469 56.105469 72.695313 74.367187 28.703125 17.523438 61.65625 27.945313 95.300781 30.140625.0625.007813.128906.007813.195313.007813.480469 0 .957031-.117188 1.386719-.339844 17.019531-8.867188 33.339843-19.144531 48.507812-30.535156 56.265625-42.21875 98.261719-99.757813 121.449219-166.394532.460937-1.324218-.050781-2.785156-1.234375-3.527343zm-123.816406 165.121093c-14.6875 11.03125-30.472657 20.992188-46.933594 29.625-32.390625-2.25-64.089844-12.347656-91.730469-29.222656-27.378906-16.683594-50.605469-39.769531-67.488281-67.011718 6.492187.761718 13.058594 1.144531 19.59375 1.144531 33.808594 0 66.511718-10.082031 94.570312-29.15625 27.980469-19.023438 49.332032-45.667969 61.808594-77.113281 1.195312-.511719 2.414062-1.019532 3.628906-1.511719 2.8125-1.132813 5.402344-2.101563 7.925782-2.957031 5.347656-1.835938 10.75-3.390626 16.066406-4.625 2.648437-.613282 5.371094-1.175782 8.089844-1.664063 5.832031-1.042969 11.832031-1.773437 17.847656-2.171875 5.300781-.355469 10.816406-.441406 16.378906-.253906 1.886719.070312 3.753906.183594 5.707031.300781 2.847657.207031 5.71875.488281 8.542969.832031l1.375.183594c.496094.066406.992188.132812 1.425781.183594l.199219.03125c.707031.101562 1.433594.207031 2.195312.34375 21.175782 3.3125 41.144532 10.625 59.382813 21.738281-22.949219 64.546875-63.914063 120.28125-118.585937 161.304687zm0 0" fill="#3a312a"/><path d="m313.425781 228.15625c-.96875-.121094-1.90625-.257812-2.875-.378906-2.894531-.375-5.765625-.65625-8.683593-.847656-13.46875-.964844-27.144532-.257813-40.679688 2.167968-2.753906.492188-5.507812 1.058594-8.242188 1.695313-5.484374 1.273437-10.945312 2.847656-16.359374 4.707031-2.707032.917969-5.394532 1.929688-8.074219 3.011719-1.34375.542969-2.683594 1.105469-4.003907 1.671875l-.847656.378906c-24.976562 64.316406-86.75 105.515625-154.035156 105.515625-8.378906 0-16.855469-.636719-25.328125-1.957031v.070312c17.375 30.015625 42.066406 55.277344 71.660156 73.3125 31.710938-11.675781 61.75-27.921875 89.011719-48.382812 48.589844-36.464844 86.824219-85.21875 110.882812-140.589844v-.023438c-.804687-.117187-1.628906-.238281-2.425781-.351562zm0 0" fill="#d7e057"/><path d="m316.28125 225.539062-2.496094-.363281c-.476562-.058593-.945312-.125-1.414062-.183593l-1.433594-.191407c-3.019531-.390625-5.925781-.675781-8.859375-.863281-13.792969-.992188-27.730469-.246094-41.425781 2.203125-2.820313.507813-5.640625 1.085937-8.386719 1.726563-5.511719 1.28125-11.121094 2.894531-16.648437 4.792968-2.621094.886719-5.3125 1.890625-8.230469 3.070313-1.363281.546875-2.722657 1.121093-4.101563 1.714843l-.847656.378907c-.722656.320312-1.292969.914062-1.578125 1.652343-24.066406 61.964844-84.84375 103.601563-151.238281 103.601563-8.316406 0-16.683594-.648437-24.867188-1.917969-.863281-.128906-1.746094.148438-2.414062.71875-.664063.570313-1.046875 1.441406-1.046875 2.316406 0 .527344.136719 1.046876.402343 1.5 17.589844 30.390626 42.730469 56.105469 72.699219 74.371094.476563.289063 1.015625.4375 1.558594.4375.351563 0 .703125-.0625 1.039063-.183594 32.253906-11.878906 62.457031-28.296874 89.777343-48.796874 48.75-36.585938 87.421875-85.617188 111.832031-141.796876.164063-.375.246094-.78125.246094-1.195312v-.023438c0-1.488281-1.089844-2.753906-2.566406-2.96875zm-113.113281 141.183594c-26.46875 19.863282-55.695313 35.824219-86.886719 47.457032-26.839844-16.621094-49.621094-39.417969-66.25-66.25 6.492188.757812 13.058594 1.144531 19.59375 1.144531 33.808594 0 66.507812-10.082031 94.566406-29.160157 27.980469-19.023437 49.332032-45.667968 61.808594-77.109374 1.199219-.511719 2.414062-1.023438 3.628906-1.511719 2.816406-1.136719 5.402344-2.101563 7.925782-2.957031 5.351562-1.835938 10.753906-3.394532 16.070312-4.625 2.648438-.617188 5.371094-1.175782 8.085938-1.664063 13.207031-2.363281 26.644531-3.082031 39.960937-2.125 2.824219.183594 5.601563.453125 8.515625.832031l1.320312.171875c-24.066406 53.726563-61.460937 100.613281-108.339843 135.796875zm0 0" fill="#3a312a"/><path d="m229.539062 36.542969c41.917969 7.320312 79.519532 27.238281 108.71875 55.738281 12.140626 2.800781 24.160157 6.28125 35.878907 10.359375-37.320313-40.777344-89.179688-64.539063-144.597657-66.097656zm0 0" fill="#6ca8bf"/><path d="m398.558594 270.941406c-1.160156 7.820313-2.742188 15.480469-4.742188 22.980469-20.519531 77.261719-84.617187 136.78125-164.378906 150.679687 89.441406-2.519531 167.242188-63.320312 191-149.777343-6.5-8.703125-13.839844-16.703125-21.878906-23.882813zm0 0" fill="#6ca8bf"/><path d="m382.160156 111.941406c-11.703125-4.480468-23.78125-8.339844-36.023437-11.539062 2.703125 2.921875 5.320312 5.941406 7.839843 9.019531 16.863282 20.582031 29.839844 44.460937 37.78125 70.539063 10.460938 4.28125 20.71875 9.0625 30.761719 14.363281-6.980469-30.042969-20.839843-58.382813-40.359375-82.382813zm0 0" fill="#d34e5c"/><path d="m424.117188 201.941406c-.398438-.21875-.800782-.4375-1.199219-.660156-9.460938-5.097656-19.160157-9.777344-29.039063-13.957031 1.097656 4.160156 2.078125 8.398437 2.917969 12.660156 2.621094 13.097656 3.980469 26.679687 3.980469 40.578125 0 7.859375-.4375 15.601562-1.277344 23.21875 8.339844 7.082031 16.019531 15 22.859375 23.640625 3.597656-15.28125 5.417969-31.019531 5.417969-46.859375 0-13.019531-1.21875-26-3.660156-38.621094zm0 0" fill="#b9c239"/></svg>