<svg height="512pt" viewBox="0 -1 512.09465 512" width="512pt" xmlns="http://www.w3.org/2000/svg"><path d="m450.246094 280.503906c11.300781-5.5 20.800781-14.300781 27.101562-25.203125 9.398438-13.097656 17.300782-27.296875 23.5-42.296875 28.898438-73.203125-.601562-149.703125-57.601562-207.5-6.097656-6.402344-15.898438-7.300781-23-2-22.199219 16.796875-67.097656 58.898438-67.097656 126.296875h-194.199219c0-67.398437-44.800781-109.597656-67.101563-126.296875-7.101562-5.203125-17-4.402344-23 2-57 57.796875-86.5 134.398438-57.601562 207.5 6.203125 15 14 29.097656 23.5 42.296875 6.300781 10.902344 15.800781 19.601563 27.101562 25.203125zm0 0" fill="#7f5b53"/><path d="m65.449219 195.902344c-31.203125-51.800782 14-116.398438 14-116.398438l-8.800781-8.800781s4.097656 2.800781 10.199218 7.597656c14.5 11.5 39.5 34.601563 42.398438 58.402344zm0 0" fill="#f09372"/><path d="m86.347656 71.300781c-6.398437-5-10.699218-7.898437-10.699218-7.898437-4-2.699219-9.5-1.699219-12.300782 2.300781-2.699218 4-1.699218 9.5 2.300782 12.300781.097656 0 1.199218.796875 3 2.097656-10.601563 17.402344-39.300782 72.800782-10.800782 120.300782 1.601563 2.699218 4.601563 4.300781 7.699219 4.300781 3.199219-.101563 6-1.800781 7.601563-4.601563 1.5-2.800781 1.5-6.097656-.199219-8.800781-22.402344-37.199219-.101563-83.296875 9.597656-100.199219 12.300781 10.800782 29.699219 28.902344 31.902344 46.601563.5 4.398437 4.296875 7.699219 8.699219 7.800781.398437 0 .699218 0 1.097656-.101562 4.800781-.601563 8.300781-5 7.703125-9.800782-3.203125-27.097656-29.902344-51.898437-45.601563-64.300781zm0 0" fill="#59474e"/><path d="m448.046875 195.902344c31.199219-51.800782-14-116.398438-14-116.398438l8.800781-8.800781s-4.101562 2.800781-10.199218 7.597656c-14.5 11.5-39.5 34.601563-42.402344 58.402344zm0 0" fill="#f09372"/><path d="m427.148438 71.300781c6.398437-5 10.699218-7.898437 10.699218-7.898437 4-2.699219 9.5-1.699219 12.300782 2.300781 2.800781 4 1.699218 9.5-2.300782 12.300781-.101562 0-1.199218.796875-3 2.097656 10.601563 17.5 39.398438 72.902344 10.800782 120.402344-1.601563 2.699219-4.601563 4.398438-7.699219 4.398438-3.203125 0-6.101563-1.800782-7.601563-4.601563-1.5-2.796875-1.398437-6.199219.199219-8.898437 22.402344-37.199219.101563-83.300782-9.597656-100.199219-12.300781 10.800781-29.703125 28.898437-31.902344 46.597656-.5 4.402344-4.300781 7.703125-8.699219 7.800781-.398437 0-.699218 0-1.101562-.097656-4.796875-.601562-8.296875-5-7.699219-9.800781 3.199219-27.199219 29.902344-52 45.601563-64.402344zm0 0" fill="#59474e"/><path d="m61.949219 336.300781c-.101563-.898437-.101563-1.898437-.101563-2.796875v-114.800781c0-48.800781 39.5-88.300781 88.300782-88.300781h211.898437c48.800781 0 88.300781 39.5 88.300781 88.300781v114.800781c0 1 0 1.898438-.101562 2.796875zm0 0" fill="#af8066"/><path d="m256.046875 466.902344c-.597656 0-1-.398438-1-1v-26.5c0-.601563.402344-1 1-1 .601563 0 1 .398437 1 1v26.5c0 .5-.398437 1-1 1zm0 0"/><path d="m220.746094 236.300781c0 14.636719-11.863282 26.5-26.5 26.5-14.632813 0-26.5-11.863281-26.5-26.5 0-14.632812 11.867187-26.5 26.5-26.5 14.636718 0 26.5 11.867188 26.5 26.5zm0 0" fill="#ecf0f1"/><path d="m344.347656 236.300781c0 14.636719-11.863281 26.5-26.5 26.5-14.636718 0-26.5-11.863281-26.5-26.5 0-14.632812 11.863282-26.5 26.5-26.5 14.636719 0 26.5 11.867188 26.5 26.5zm0 0" fill="#ecf0f1"/><path d="m152.746094 447.601562c10.703125 25.601563 52.902344 44.699219 103.300781 44.699219 50.402344 0 92.601563-19.097656 103.300781-44.699219l-103.300781-123zm0 0" fill="#59474e"/><path d="m203.046875 438.503906v18.5c0 10.796875 3.300781 21.296875 9.402344 30.199219h.097656c9.902344 14.300781 26.101563 22.800781 43.402344 22.800781 17.296875 0 33.597656-8.5 43.398437-22.800781h.101563c6.199219-8.800781 9.5-19.402344 9.398437-30.199219v-18.601562l-53-96.101563zm0 0" fill="#fb7b76"/><path d="m308.148438 299.402344c15.597656-6.800782 32.398437-10.199219 49.398437-10.101563 56.101563 0 101.5 35.601563 101.5 79.402344s-45.5 79.398437-101.5 79.398437-101.5-35.5-101.5-79.300781" fill="#95a5a5"/><path d="m256.046875 368.800781c0 43.902344-45.5 79.402344-101.5 79.402344s-101.5-35.601563-101.5-79.402344c0-43.796875 45.5-79.398437 101.5-79.398437 17-.101563 33.800781 3.300781 49.402344 10.101562" fill="#95a5a5"/><g fill="#2c3e50"><path d="m370.847656 368.800781c.601563 0 1.199219-.097656 1.800782-.199219.597656-.097656 1.097656-.300781 1.597656-.5.601562-.199218 1.101562-.5 1.601562-.800781.5-.296875.898438-.699219 1.300782-1.097656 1.597656-1.699219 2.5-3.902344 2.597656-6.300781 0-1.199219-.296875-2.300782-.699219-3.398438-.398437-1.101562-1.097656-2.101562-1.898437-2.902344l-1.300782-1.097656c-.5-.300781-1-.601562-1.601562-.800781-.5-.300781-1-.402344-1.597656-.5-1.199219-.300781-2.402344-.300781-3.5 0-.601563.097656-1.101563.300781-1.601563.5-.597656.199219-1.097656.5-1.597656.800781l-1.300781 1.097656c-.800782.902344-1.402344 1.800782-1.902344 2.902344-.5 1.097656-.699219 2.199219-.699219 3.398438 0 2.300781.902344 4.601562 2.601563 6.300781.398437.398437.898437.699219 1.300781 1.097656.5.300781 1 .601563 1.597656.800781.5.300782 1 .402344 1.601563.5.5.101563 1.097656.101563 1.699218.199219zm0 0"/><path d="m370.847656 333.402344c.601563 0 1.199219-.101563 1.800782-.199219.597656-.101563 1.097656-.300781 1.597656-.5.601562-.199219 1.101562-.5 1.601562-.800781.5-.300782.898438-.699219 1.300782-1.101563 1.597656-1.699219 2.5-3.898437 2.597656-6.296875 0-1.203125-.296875-2.300781-.699219-3.402344-.398437-1.097656-1.097656-2.097656-1.898437-2.898437l-1.300782-1.101563c-.5-.300781-1-.597656-1.601562-.800781-.5-.296875-1-.398437-1.597656-.5-1.199219-.296875-2.402344-.296875-3.5 0-.601563.101563-1.101563.300781-1.601563.5-.597656.203125-1.097656.5-1.597656.800781l-1.300781 1.101563c-.800782.898437-1.402344 1.800781-1.902344 2.898437-.5 1.101563-.699219 2.199219-.699219 3.402344 0 2.296875.902344 4.597656 2.601563 6.296875.398437.402344.898437.703125 1.300781 1.101563.5.300781 1 .601562 1.597656.800781.5.300781 1 .398437 1.601563.5.5.199219 1.097656.199219 1.699218.199219zm0 0"/><path d="m105.949219 351.101562c-.601563 0-1.203125-.097656-1.800781-.199218-.601563-.101563-1.101563-.300782-1.601563-.5-.597656-.199219-1.097656-.5-1.597656-.800782-.5-.300781-.902344-.699218-1.300781-1.097656-1.601563-1.703125-2.5-3.902344-2.601563-6.300781 0-1.199219.300781-2.300781.699219-3.402344.402344-1.097656 1.101562-2.097656 1.902344-2.898437l1.300781-1.101563c.5-.296875 1-.597656 1.597656-.796875.5-.300781 1-.402344 1.601563-.5 1.199218-.300781 2.398437-.300781 3.5 0 .597656.097656 1.097656.296875 1.597656.5.601562.199219 1.101562.5 1.601562.796875l1.300782 1.101563c.800781.898437 1.398437 1.800781 1.898437 2.898437.5 1.101563.699219 2.203125.699219 3.402344 0 2.300781-.898438 4.597656-2.597656 6.300781-.402344.398438-.902344.699219-1.300782 1.097656-.5.300782-1 .601563-1.601562.800782-.5.300781-1 .398437-1.597656.5-.5.101562-1.101563.199218-1.699219.199218zm0 0"/><path d="m141.246094 368.800781c-.597656 0-1.199219-.097656-1.796875-.199219-.601563-.097656-1.101563-.300781-1.601563-.5-.601562-.199218-1.101562-.5-1.601562-.800781-.5-.296875-.898438-.699219-1.296875-1.097656-1.601563-1.699219-2.5-3.902344-2.601563-6.300781 0-1.199219.300782-2.300782.699219-3.398438.402344-1.101562 1.101563-2.101562 1.902344-2.902344l1.296875-1.097656c.5-.300781 1-.601562 1.601562-.800781.5-.300781 1-.402344 1.601563-.5 1.199219-.300781 2.398437-.300781 3.5 0 .597656.097656 1.097656.300781 1.597656.5.601563.199219 1.101563.5 1.601563.800781l1.300781 1.097656c.796875.902344 1.398437 1.800782 1.898437 2.902344.5 1.097656.699219 2.199219.699219 3.398438 0 2.300781-.898437 4.601562-2.597656 6.300781-.402344.398437-.902344.699219-1.300781 1.097656-.5.300781-1 .601563-1.601563.800781-.5.300782-1 .402344-1.597656.5-.5.101563-1.101563.101563-1.703125.199219zm0 0"/></g><path d="m194.246094 245.203125c-1.199219 0-2.398438-.199219-3.5-.402344-1.097656-.199219-2.199219-.597656-3.199219-1.097656-1.097656-.402344-2.199219-.902344-3.199219-1.601563-.898437-.597656-1.800781-1.300781-2.601562-2.097656-3.199219-3.402344-5.097656-7.902344-5.097656-12.5 0-2.300781.5-4.601562 1.398437-6.703125.902344-2.097656 2.199219-4.097656 3.699219-5.796875l2.601562-2.101562c1-.699219 2-1.199219 3.199219-1.601563 1-.5 2.101563-.898437 3.199219-1.097656 2.300781-.5 4.703125-.5 7.101562 0 1.101563.199219 2.199219.5 3.199219 1.097656 1.101563.402344 2.199219.902344 3.199219 1.601563l2.601562 2.101562c1.601563 1.699219 2.800782 3.699219 3.699219 5.796875.902344 2.101563 1.402344 4.402344 1.402344 6.703125-.101563 4.699219-1.902344 9.097656-5.101563 12.5-.800781.796875-1.699218 1.5-2.601562 2.097656-1 .699219-2.097656 1.199219-3.199219 1.601563-1 .5-2.097656.898437-3.199219 1.097656-1.199218.300781-2.398437.402344-3.601562.402344zm0 0" fill="#2c2f38"/><path d="m317.847656 245.203125c-1.199218 0-2.398437-.199219-3.5-.402344-1.101562-.199219-2.199218-.597656-3.199218-1.097656-1.101563-.402344-2.199219-.902344-3.199219-1.601563-.902344-.597656-1.800781-1.300781-2.601563-2.097656-3.199218-3.402344-5.101562-7.902344-5.101562-12.5 0-2.300781.5-4.601562 1.402344-6.703125.898437-2.097656 2.199218-4.097656 3.699218-5.796875l2.601563-2.101562c1-.699219 2-1.199219 3.199219-1.601563 1-.5 2.097656-.898437 3.199218-1.097656 2.300782-.5 4.699219-.5 7.101563 0 1.097656.199219 2.199219.5 3.199219 1.097656 1.097656.402344 2.199218.902344 3.199218 1.601563l2.601563 2.101562c1.597656 1.699219 2.796875 3.699219 3.699219 5.796875.898437 2.101563 1.398437 4.402344 1.398437 6.703125-.097656 4.699219-1.898437 9.097656-5.097656 12.5-.800781.796875-1.703125 1.5-2.601563 2.097656-1 .699219-2.101562 1.199219-3.199218 1.601563-1 .5-2.101563.898437-3.199219 1.097656-1.203125.300781-2.402344.402344-3.601563.402344zm0 0" fill="#2c2f38"/><path d="m141.246094 333.402344c-.597656 0-1.199219-.101563-1.796875-.199219-.601563-.101563-1.101563-.300781-1.601563-.5-.601562-.199219-1.101562-.5-1.601562-.800781-.5-.300782-.898438-.699219-1.296875-1.101563-1.601563-1.699219-2.5-3.898437-2.601563-6.296875 0-1.203125.300782-2.300781.699219-3.402344.402344-1.097656 1.101563-2.097656 1.902344-2.898437l1.296875-1.101563c.5-.300781 1-.597656 1.601562-.800781.5-.296875 1-.398437 1.601563-.5 1.199219-.296875 2.398437-.296875 3.5 0 .597656.101563 1.097656.300781 1.597656.5.601563.203125 1.101563.5 1.601563.800781l1.300781 1.101563c.796875.898437 1.398437 1.800781 1.898437 2.898437.5 1.101563.699219 2.199219.699219 3.402344 0 2.296875-.898437 4.597656-2.597656 6.296875-.402344.402344-.902344.703125-1.300781 1.101563-.5.300781-1 .601562-1.601563.800781-.5.300781-1 .398437-1.597656.5-.5.199219-1.101563.199219-1.703125.199219zm0 0" fill="#2c3e50"/><path d="m317.847656 315.800781c0 19.5-27.699218 53-61.800781 53-34.097656 0-61.800781-33.5-61.800781-53s27.703125-26.5 61.800781-26.5c34.101563 0 61.800781 7 61.800781 26.5zm0 0" fill="#2c3e50"/><path d="m253.851562 307.289062c-1.214843-4.703124-11.78125-6.042968-23.597656-2.988281-11.816406 3.054688-20.410156 9.347657-19.195312 14.050781 1.21875 4.707032 11.78125 6.042969 23.601562 2.988282 11.816406-3.054688 20.410156-9.34375 19.191406-14.050782zm0 0" fill="#35495e"/><path d="m406.148438 351.101562c.597656 0 1.199218-.097656 1.800781-.199218.597656-.101563 1.097656-.300782 1.597656-.5.601563-.199219 1.101563-.5 1.601563-.800782.5-.300781.898437-.699218 1.300781-1.097656 1.597656-1.703125 2.5-3.902344 2.597656-6.300781 0-1.199219-.300781-2.300781-.699219-3.402344-.398437-1.097656-1.101562-2.097656-1.898437-2.898437l-1.300781-1.101563c-.5-.296875-1-.597656-1.601563-.796875-.5-.300781-1-.402344-1.597656-.5-1.203125-.300781-2.402344-.300781-3.5 0-.601563.097656-1.101563.296875-1.601563.5-.601562.199219-1.101562.5-1.601562.796875l-1.296875 1.101563c-.800781.898437-1.402344 1.800781-1.902344 2.898437-.5 1.101563-.699219 2.203125-.699219 3.402344 0 2.300781.898438 4.597656 2.601563 6.300781.398437.398438.898437.699219 1.296875 1.097656.5.300782 1 .601563 1.601562.800782.5.300781 1 .398437 1.601563.5.5.101562 1.097656.199218 1.699219.199218zm0 0" fill="#2c3e50"/><path d="m194.246094 218.703125c0 4.859375-3.9375 8.800781-8.796875 8.800781-4.863281 0-8.800781-3.941406-8.800781-8.800781s3.9375-8.800781 8.800781-8.800781c4.859375 0 8.796875 3.941406 8.796875 8.800781zm0 0" fill="#ecf0f1"/><path d="m317.847656 218.703125c0 4.859375-3.941406 8.800781-8.800781 8.800781s-8.800781-3.941406-8.800781-8.800781 3.941406-8.800781 8.800781-8.800781 8.800781 3.941406 8.800781 8.800781zm0 0" fill="#ecf0f1"/><path d="m238.347656 218.703125h-88.300781c-4.898437 0-8.800781-4-8.800781-8.800781 0-4.898438 4-8.800782 8.800781-8.800782h88.300781c4.898438 0 8.800782 4 8.800782 8.800782.097656 4.800781-3.902344 8.800781-8.800782 8.800781zm0 0" fill="#59474e"/><path d="m361.949219 218.703125h-88.300781c-4.902344 0-8.800782-4-8.800782-8.800781 0-4.898438 4-8.800782 8.800782-8.800782h88.300781c4.898437 0 8.796875 4 8.796875 8.800782.101562 4.800781-3.898438 8.800781-8.796875 8.800781zm0 0" fill="#59474e"/></svg>