<svg height="512pt" viewBox="0 0 512.0514 512" width="512pt" xmlns="http://www.w3.org/2000/svg"><path d="m431.960938 275.257812c6.253906-3.632812 12.0625-7.988281 17.300781-12.976562 12.289062-10.769531 23.332031-22.878906 32.925781-36.105469 45.550781-65.234375 35.3125-146.714843-5.914062-217.246093-4.246094-7.75-13.6875-11-21.804688-7.503907-35.378906 14.761719-64.675781 41.132813-83.066406 74.769531h-230.753906c-18.390626-33.636718-47.6875-60.007812-83.066407-74.769531-8.117187-3.496093-17.558593-.246093-21.804687 7.503907-41.226563 70.53125-51.464844 152.011718-5.914063 217.246093 9.59375 13.226563 20.636719 25.335938 32.925781 36.105469 5.238282 4.988281 11.046876 9.34375 17.304688 12.976562zm0 0" fill="#805333"/><path d="m431.855469 230.058594c89.332031-98.160156 18.269531-177.078125 18.269531-177.078125l8.828125-8.828125s-3.792969 2.824218-9.53125 8.03125c-19.078125 16.648437-34.472656 37.09375-45.199219 60.027344zm0 0" fill="#d75e72"/><path d="m404.214844 121.039062c3.546875 0 6.746094-2.121093 8.128906-5.382812 10.234375-21.738281 24.867188-41.113281 42.972656-56.902344 5.296875-4.832031 8.828125-7.496094 8.90625-7.523437 3.570313-3.011719 4.175782-8.28125 1.382813-12.023438-2.792969-3.742187-8.019531-4.664062-11.921875-2.101562-.167969.132812-4.21875 3.144531-10.203125 8.589843-20.011719 17.519532-36.152344 39.015626-47.394531 63.117188-1.160157 2.726562-.875 5.851562.761718 8.324219 1.632813 2.46875 4.394532 3.953125 7.359375 3.957031zm0 0" fill="#59474e"/><path d="m431.855469 238.886719c2.484375.003906 4.855469-1.046875 6.53125-2.886719 93.625-102.882812 19.066406-188.078125 18.300781-188.910156-2.09375-2.414063-5.324219-3.511719-8.457031-2.871094-3.128907.644531-5.667969 2.929688-6.632813 5.976562-.96875 3.042969-.214844 6.375 1.96875 8.707032 2.648438 2.984375 64.398438 74.433594-18.238281 165.234375-2.347656 2.585937-2.957031 6.3125-1.542969 9.507812 1.410156 3.195313 4.574219 5.257813 8.070313 5.261719zm0 0" fill="#59474e"/><path d="m80.09375 230.058594c-89.335938-98.160156-18.273438-177.078125-18.273438-177.078125l-8.828124-8.828125s3.792968 2.824218 9.53125 8.03125c19.078124 16.648437 34.472656 37.09375 45.199218 60.027344zm0 0" fill="#d75e72"/><path d="m107.722656 121.039062c-3.546875 0-6.746094-2.121093-8.128906-5.382812-10.234375-21.734375-24.863281-41.113281-42.964844-56.902344-5.296875-4.832031-8.828125-7.496094-8.90625-7.523437-3.828125-2.941407-4.578125-8.414063-1.691406-12.28125 2.890625-3.867188 8.347656-4.695313 12.257812-1.859375.167969.132812 4.21875 3.140625 10.203126 8.589844 20.011718 17.519531 36.152343 39.015624 47.394531 63.117187 1.160156 2.726563.871093 5.851563-.761719 8.320313s-4.398438 3.957031-7.359375 3.957031zm0 0" fill="#59474e"/><path d="m80.09375 238.886719c-2.488281.003906-4.859375-1.046875-6.535156-2.886719-93.625-102.882812-19.066406-188.078125-18.296875-188.925781 3.285156-3.507813 8.773437-3.742188 12.347656-.527344 3.570313 3.21875 3.914063 8.703125.769531 12.335937-2.648437 2.984376-64.398437 74.4375 18.238282 165.238282 2.351562 2.582031 2.957031 6.308594 1.542968 9.507812-1.410156 3.195313-4.574218 5.257813-8.066406 5.257813zm0 0" fill="#59474e"/><path d="m238.75 508.332031c10.992188 4.910157 23.558594 4.910157 34.550781 0 44.449219-19.765625 159.277344-87.394531 159.277344-258.496093 0-160.179688-100.527344-217.601563-149.875-236.140626-17.199219-6.472656-36.164063-6.472656-53.363281 0-49.335938 18.539063-149.867188 75.960938-149.867188 236.140626 0 171.101562 114.832032 238.730468 159.277344 258.496093zm0 0" fill="#e6e7e8"/><path d="m229.101562 280.492188c-9.796874 25.042968-24.1875 47.554687-34.25 72.386718-8.527343 21.496094-15.027343 43.742188-19.421874 66.445313-2.914063 14.28125-5.207032 28.925781-6.707032 43.574219-44.40625-39.65625-89.25-106.199219-89.25-213.136719 0-108.753907 46.347656-170.042969 91.542969-204.03125 29.109375 35.378906 50.707031 76.320312 63.472656 120.320312 10.746094 37.710938 8.855469 77.90625-5.386719 114.441407zm0 0" fill="#af8066"/><path d="m185.40625 238.359375c0 14.625-11.859375 26.480469-26.484375 26.480469s-26.480469-11.855469-26.480469-26.480469c0-14.628906 11.855469-26.484375 26.480469-26.484375s26.484375 11.855469 26.484375 26.484375zm0 0" fill="#2c2f38"/><path d="m379.613281 238.359375c0 14.625-11.859375 26.480469-26.484375 26.480469s-26.484375-11.855469-26.484375-26.480469c0-14.628906 11.859375-26.484375 26.484375-26.484375s26.484375 11.855469 26.484375 26.484375zm0 0" fill="#2c2f38"/><path d="m194.234375 220.703125h-70.621094c-4.875 0-8.828125-3.953125-8.828125-8.828125s3.953125-8.828125 8.828125-8.828125h70.621094c4.875 0 8.824219 3.953125 8.824219 8.828125s-3.949219 8.828125-8.824219 8.828125zm0 0" fill="#805333"/><path d="m388.441406 220.703125h-70.621094c-4.875 0-8.828124-3.953125-8.828124-8.828125s3.953124-8.828125 8.828124-8.828125h70.621094c4.875 0 8.824219 3.953125 8.824219 8.828125s-3.949219 8.828125-8.824219 8.828125zm0 0" fill="#805333"/><path d="m300.164062 435.503906c-3.410156 22.289063-21.667968 39.332032-44.136718 41.199219-22.472656-1.867187-40.730469-18.910156-44.140625-41.199219 0-15.164062 19.765625-20.59375 44.140625-20.59375 24.371094 0 44.136718 5.429688 44.136718 20.59375zm0 0" fill="#2c2f38"/><g fill="#ecf0f1"><path d="m158.921875 238.359375c0 4.875-3.953125 8.828125-8.828125 8.828125s-8.828125-3.953125-8.828125-8.828125 3.953125-8.828125 8.828125-8.828125 8.828125 3.953125 8.828125 8.828125zm0 0"/><path d="m353.128906 238.359375c0 4.875-3.953125 8.828125-8.828125 8.828125s-8.828125-3.953125-8.828125-8.828125 3.953125-8.828125 8.828125-8.828125 8.828125 3.953125 8.828125 8.828125zm0 0"/></g></svg>