<svg height="512pt" viewBox="0 -21 512.01059 512" width="512pt" xmlns="http://www.w3.org/2000/svg"><path d="m208.335938 40.453125c15.695312-3.1875 31.65625-4.902344 47.667968-5.121094 16.015625.21875 31.976563 1.933594 47.671875 5.121094 14.019531 2.769531 27.78125 6.726563 41.136719 11.828125 8.054688 2.972656 15.921875 6.421875 23.566406 10.328125 5.628906 2.820313 11.082032 5.972656 16.332032 9.445313l69.5625 104.34375c5.988281 33.039062 7.765624 66.707031 5.296874 100.191406-1.324218 23.746094-4.589843 43.433594-21.628906 61.441406-5.101562 5.34375-10.753906 10.136719-16.859375 14.300781l-99.046875 46.519531c-17.988281 7.46875-37.652344 9.96875-56.9375 7.242188h-18.183594c-19.285156 2.726562-38.949218.226562-56.9375-7.242188l-99.046874-46.519531c-6.105469-4.164062-11.757813-8.957031-16.859376-14.300781-17.039062-18.007812-20.304687-37.695312-21.628906-61.441406-2.46875-33.484375-.691406-67.152344 5.296875-100.191406l48.199219-105.753907 61.792969-26.484375zm0 0" fill="#af8066"/><path d="m214.851562 40.453125c13.492188-3.179687 27.292969-4.894531 41.152344-5.121094 13.863282.226563 27.660156 1.941407 41.15625 5.121094 12.1875 2.796875 24.082032 6.757813 35.511719 11.828125 7 2.996094 13.796875 6.445312 20.347656 10.328125 4.90625 2.84375 9.625 6 14.125 9.445313l60.027344 104.34375c5.171875 33.128906 6.707031 66.726562 4.574219 100.191406-1.148438 23.746094-3.964844 43.433594-18.671875 61.441406-4.328125 5.269531-9.210938 10.066406-14.554688 14.300781l-85.515625 46.519531c-15.246094 7.429688-32.417968 9.957032-49.160156 7.242188h-15.6875c-16.738281 2.714844-33.910156.1875-49.160156-7.242188l-85.511719-46.519531c-5.347656-4.234375-10.226563-9.03125-14.558594-14.300781-14.707031-18.007812-17.53125-37.695312-18.667969-61.441406-2.132812-33.464844-.601562-67.0625 4.570313-100.191406l41.613281-105.753907 53.355469-26.484375zm0 0" fill="#af8066"/><path d="m237.960938 164.5c-3.921876-8.195312-11.816407-13.757812-20.851563-14.699219-30.539063-3.550781-60.996094 7.296875-82.421875 29.351563-5.960938 5.8125-11.34375 12.1875-16.082031 19.03125-5.128907 7.570312-5.964844 17.257812-2.214844 25.59375 3.75 8.339844 11.554687 14.136718 20.617187 15.324218 11.527344 1.578126 22.691407 5.164063 32.980469 10.59375 35.3125 17.652344 44.140625 0 52.964844-8.828124 8.246094-8.15625 39.539063-24.074219 15.007813-76.367188zm0 0" fill="#2c2f38"/><path d="m273.378906 164.5c3.921875-8.195312 11.816406-13.757812 20.851563-14.699219 30.539062-3.550781 60.996093 7.296875 82.421875 29.351563 5.957031 5.8125 11.34375 12.1875 16.082031 19.03125 5.144531 7.578125 5.988281 17.28125 2.230469 25.632812-3.761719 8.351563-11.585938 14.148438-20.667969 15.320313-11.527344 1.578125-22.691406 5.164062-32.980469 10.59375-35.3125 17.652343-44.140625 0-52.96875-8.828125-8.207031-8.191406-39.5-24.109375-14.96875-76.402344zm0 0" fill="#2c2f38"/><path d="m229.523438 205.636719c0 14.625-11.859376 26.480469-26.484376 26.480469s-26.480468-11.855469-26.480468-26.480469c0-14.628907 11.855468-26.484375 26.480468-26.484375s26.484376 11.855468 26.484376 26.484375zm0 0" fill="#fff"/><path d="m335.453125 205.636719c0 14.625-11.855469 26.480469-26.480469 26.480469-14.628906 0-26.484375-11.855469-26.484375-26.480469 0-14.628907 11.855469-26.484375 26.484375-26.484375 14.625 0 26.480469 11.855468 26.480469 26.484375zm0 0" fill="#fff"/><path d="m220.695312 141.265625c-3.570312-.003906-6.789062-2.152344-8.152343-5.449219-1.367188-3.300781-.613281-7.097656 1.910156-9.621094l17.65625-17.65625c3.464844-3.34375 8.96875-3.296874 12.375.109376s3.453125 8.910156.105469 12.375l-17.652344 17.65625c-1.65625 1.652343-3.902344 2.585937-6.242188 2.585937zm0 0" fill="#59474e"/><path d="m291.316406 141.265625c-2.339844 0-4.585937-.933594-6.242187-2.585937l-17.65625-17.65625c-3.34375-3.464844-3.296875-8.96875.109375-12.375s8.910156-3.453126 12.375-.109376l17.65625 17.65625c2.523437 2.523438 3.277344 6.320313 1.910156 9.621094-1.367188 3.296875-4.582031 5.445313-8.152344 5.449219zm0 0" fill="#59474e"/><path d="m220.695312 205.636719c0 9.75-7.90625 17.652343-17.65625 17.652343s-17.65625-7.902343-17.65625-17.652343c0-9.753907 7.90625-17.65625 17.65625-17.65625s17.65625 7.902343 17.65625 17.65625zm0 0" fill="#e57e25"/><path d="m203.039062 214.460938c-1.152343-.011719-2.292968-.253907-3.355468-.703126-1.066406-.449218-2.050782-1.078124-2.910156-1.855468-1.613282-1.691406-2.527344-3.929688-2.5625-6.265625.015624-1.15625.253906-2.292969.707031-3.355469.449219-1.070312 1.074219-2.054688 1.855469-2.914062.84375-.796876 1.832031-1.425782 2.910156-1.851563 1.613281-.707031 3.402344-.890625 5.121094-.53125.554687.09375 1.089843.273437 1.589843.53125.5625.191406 1.097657.457031 1.589844.792969.460937.324218.902344.679687 1.324219 1.058594.777344.859374 1.402344 1.84375 1.851562 2.914062.941406 2.136719.941406 4.570312 0 6.707031-.449218 1.070313-1.074218 2.054688-1.851562 2.914063l-1.324219 1.058594c-.492187.335937-1.027344.601562-1.589844.796874-.5.25-1.035156.429688-1.589843.527344-.582032.101563-1.171876.160156-1.765626.175782zm0 0" fill="#2c2f38"/><path d="m326.625 205.636719c0 9.75-7.902344 17.652343-17.652344 17.652343-9.753906 0-17.65625-7.902343-17.65625-17.652343 0-9.753907 7.902344-17.65625 17.65625-17.65625 9.75 0 17.652344 7.902343 17.652344 17.65625zm0 0" fill="#e57e25"/><path d="m308.972656 214.460938c-1.15625-.011719-2.296875-.253907-3.355468-.703126-1.070313-.449218-2.054688-1.078124-2.914063-1.855468-1.613281-1.691406-2.527344-3.929688-2.558594-6.265625.011719-1.15625.253907-2.292969.703125-3.355469.449219-1.070312 1.078125-2.054688 1.855469-2.914062.84375-.796876 1.832031-1.425782 2.914063-1.851563 1.609374-.707031 3.398437-.890625 5.121093-.53125.550781.09375 1.085938.273437 1.585938.53125.5625.191406 1.097656.457031 1.589843.792969.460938.324218.90625.679687 1.324219 1.058594.777344.859374 1.40625 1.84375 1.855469 2.914062.941406 2.136719.941406 4.570312 0 6.707031-.449219 1.070313-1.078125 2.054688-1.855469 2.914063l-1.324219 1.058594c-.492187.335937-1.027343.601562-1.589843.796874-.5.25-1.035157.429688-1.585938.527344-.585937.101563-1.175781.160156-1.765625.175782zm0 0" fill="#2c2f38"/><path d="m203.039062 196.808594c0 4.875-3.953124 8.828125-8.828124 8.828125s-8.828126-3.953125-8.828126-8.828125 3.953126-8.828125 8.828126-8.828125 8.828124 3.953125 8.828124 8.828125zm0 0" fill="#ecf0f1"/><path d="m308.972656 196.808594c0 4.875-3.953125 8.828125-8.828125 8.828125s-8.828125-3.953125-8.828125-8.828125 3.953125-8.828125 8.828125-8.828125 8.828125 3.953125 8.828125 8.828125zm0 0" fill="#ecf0f1"/><path d="m151.398438 380.757812-60.46875-28.425781c-6.105469-4.164062-11.757813-8.957031-16.859376-14.300781-17.039062-18.007812-20.304687-37.695312-21.628906-61.441406-2.46875-33.484375-.691406-67.152344 5.296875-100.191406l48.199219-105.753907 61.792969-26.484375 40.605469-3.707031c4.945312-.972656 9.976562-1.855469 15.007812-2.558594-27.191406 11.828125-135.0625 64.261719-135.0625 151.128907 0 85.960937-13.242188 138.238281 63.117188 191.734374zm0 0" fill="#805333"/><path d="m360.746094 380.757812 60.46875-28.425781c6.105468-4.164062 11.757812-8.957031 16.859375-14.300781 17.039062-18.007812 20.304687-37.695312 21.628906-61.441406 2.46875-33.484375.6875-67.152344-5.296875-100.191406l-48.199219-105.753907-61.792969-26.484375-40.605468-3.707031c-4.945313-.972656-9.976563-1.855469-15.007813-2.558594 27.1875 11.828125 135.0625 64.261719 135.0625 151.128907 0 85.960937 13.238281 138.238281-63.117187 191.734374zm0 0" fill="#805333"/><path d="m167.199219 52.28125c-8.054688 2.972656-15.925781 6.421875-23.570313 10.328125-5.625 2.820313-11.082031 5.972656-16.328125 9.445313-5.894531-12.546876-13.277343-24.34375-21.980469-35.132813l.617188-1.589844s43.34375-8.648437 61.261719 16.949219zm0 0" fill="#59474e"/><path d="m208.335938 40.453125c-14.023438 2.769531-27.785157 6.726563-41.136719 11.828125-17.917969-25.597656-61.261719-16.949219-61.261719-16.949219l-.617188 1.589844c8.703126 10.789063 16.085938 22.585937 21.980469 35.132813 14.035157 30.101562 20.917969 72.035156-31.691406 94.191406-12.007813 5.371094-24.789063 8.796875-37.871094 10.152344-4.679687.324218-9.378906.207031-14.035156-.351563-11.59375-1.292969-22.371094-6.601563-30.457031-15.007813-19.066406-20.214843-14.210938-48.199218-6.089844-71.859374 6.386719-19.703126 16.851562-37.839844 30.71875-53.226563 14.015625-15.167969 31.898438-26.222656 51.730469-31.976563 8.273437-2.511718 16.863281-3.851562 25.511719-3.97265575 35.089843 1.11328175 68.433593 15.58203175 93.21875 40.44921875zm0 0" fill="#cb8252"/><path d="m344.800781 52.28125c8.054688 2.972656 15.925781 6.421875 23.570313 10.328125 5.628906 2.820313 11.082031 5.972656 16.332031 9.445313 5.894531-12.546876 13.273437-24.34375 21.980469-35.132813l-.609375-1.589844s-43.351563-8.648437-61.273438 16.949219zm0 0" fill="#59474e"/><path d="m303.675781 40.453125c14.019531 2.769531 27.78125 6.726563 41.136719 11.828125 17.917969-25.597656 61.261719-16.949219 61.261719-16.949219l.617187 1.589844c-8.707031 10.789063-16.085937 22.585937-21.980468 35.132813-14.035157 30.101562-20.921876 72.035156 31.691406 94.191406 12.003906 5.371094 24.789062 8.796875 37.871094 10.152344 4.679687.324218 9.378906.207031 14.035156-.351563 11.59375-1.292969 22.367187-6.601563 30.457031-15.007813 19.066406-20.214843 14.210937-48.199218 6.089844-71.859374-6.386719-19.703126-16.855469-37.839844-30.71875-53.226563-14.019531-15.160156-31.902344-26.207031-51.730469-31.957031-8.277344-2.515625-16.863281-3.851563-25.511719-3.9726565-35.089843 1.1093745-68.433593 15.5703125-93.21875 40.4296875zm0 0" fill="#cb8252"/><path d="m299.472656 283.8125c33.835938-28.566406 93.421875-46.046875 122.367188-1.308594 5.375 8.375 8.707031 17.894532 9.726562 27.792969 5.355469 37.21875-4.820312 75.007813-28.140625 104.507813-35.859375 42.433593-93.378906 53.699218-146.539062 54.386718h-1.765625c-53.113282-.679687-110.632813-11.945312-146.535156-54.378906-23.3125-29.507812-33.480469-67.296875-28.117188-104.515625 1.023438-9.882813 4.351562-19.382813 9.710938-27.746094 28.953124-44.746093 88.53125-27.261719 122.367187 1.304688zm0 0" fill="#59474e"/><g fill="#2c2f38"><path d="m231.746094 417.691406c-23.964844 0-59.230469-3.988281-80.859375-24.71875-14.96875-14.953125-21.839844-36.1875-18.46875-57.078125.488281-4.851562 4.816406-8.386719 9.667969-7.898437 4.851562.484375 8.386718 4.8125 7.898437 9.664062-2.78125 15.457032 2.082031 31.308594 13.058594 42.539063 22.339843 21.445312 66.480469 20.5625 84.132812 19.253906v-71.503906c0-4.875 3.953125-8.828125 8.828125-8.828125s8.828125 3.953125 8.828125 8.828125v79.449219c0 4.390624-3.226562 8.117187-7.574219 8.738281-8.460937 1.074219-16.980468 1.59375-25.511718 1.554687zm0 0"/><path d="m279.839844 417.691406c-8.527344.039063-17.050782-.480468-25.511719-1.554687-4.347656-.621094-7.574219-4.347657-7.574219-8.738281v-79.449219c0-4.875 3.953125-8.828125 8.828125-8.828125s8.828125 3.953125 8.828125 8.828125v71.503906c17.652344 1.351563 61.792969 2.234375 84.089844-19.21875 10.980469-11.246094 15.832031-27.109375 13.03125-42.574219-.316406-3.136718 1.066406-6.207031 3.625-8.046875 2.5625-1.84375 5.910156-2.179687 8.785156-.882812s4.839844 4.027343 5.15625 7.164062c3.375 20.875-3.476562 42.101563-18.421875 57.0625-21.628906 20.734375-56.894531 24.734375-80.835937 24.734375zm0 0"/><path d="m141.246094 301.46875c-1.152344-.015625-2.292969-.253906-3.355469-.707031-1.066406-.449219-2.050781-1.078125-2.910156-1.855469-1.613281-1.691406-2.527344-3.929688-2.5625-6.265625.015625-1.15625.253906-2.292969.707031-3.355469.449219-1.070312 1.074219-2.054687 1.855469-2.914062.84375-.796875 1.832031-1.425782 2.910156-1.851563 1.613281-.703125 3.402344-.890625 5.121094-.53125.554687.097657 1.089843.273438 1.589843.53125.5625.191407 1.097657.460938 1.589844.792969.460938.328125.902344.679688 1.324219 1.058594.777344.859375 1.402344 1.84375 1.851563 2.914062.941406 2.136719.941406 4.570313 0 6.710938-.449219 1.066406-1.074219 2.050781-1.851563 2.910156l-1.324219 1.058594c-.492187.335937-1.027344.601562-1.589844.796875-.5.253906-1.035156.429687-1.589843.527343-.582031.101563-1.171875.164063-1.765625.179688zm0 0"/><path d="m114.765625 319.121094c-1.15625-.011719-2.292969-.253906-3.355469-.703125-1.070312-.449219-2.054687-1.078125-2.914062-1.855469-1.613282-1.691406-2.527344-3.929688-2.558594-6.265625.011719-1.15625.253906-2.296875.703125-3.355469.449219-1.070312 1.078125-2.054687 1.855469-2.914062.84375-.796875 1.832031-1.429688 2.914062-1.855469 1.609375-.703125 3.398438-.886719 5.121094-.527344.550781.09375 1.085938.273438 1.585938.527344.5625.195313 1.097656.460937 1.589843.796875.460938.324219.90625.679688 1.324219 1.058594.777344.859375 1.40625 1.84375 1.855469 2.914062.941406 2.136719.941406 4.570313 0 6.707032-.449219 1.070312-1.078125 2.054687-1.855469 2.914062l-1.324219 1.058594c-.492187.335937-1.027343.601562-1.589843.796875-.5.25-1.035157.429687-1.585938.527343-.585938.101563-1.175781.160157-1.765625.175782zm0 0"/><path d="m370.765625 301.46875c1.152344-.015625 2.292969-.253906 3.351563-.707031 1.070312-.449219 2.054687-1.078125 2.914062-1.855469 1.613281-1.691406 2.527344-3.929688 2.558594-6.265625-.011719-1.15625-.253906-2.292969-.703125-3.355469-.449219-1.070312-1.074219-2.054687-1.855469-2.914062-.84375-.796875-1.832031-1.425782-2.914062-1.851563-1.609376-.703125-3.398438-.890625-5.117188-.53125-.554688.097657-1.089844.273438-1.589844.53125-.5625.191407-1.097656.460938-1.589844.792969-.460937.328125-.902343.679688-1.324218 1.058594-.777344.859375-1.40625 1.84375-1.855469 2.914062-.941406 2.136719-.941406 4.570313 0 6.710938.449219 1.066406 1.078125 2.050781 1.855469 2.910156l1.324218 1.058594c.492188.335937 1.027344.601562 1.589844.796875.5.253906 1.035156.429687 1.589844.527343.582031.101563 1.171875.164063 1.765625.179688zm0 0"/><path d="m397.246094 319.121094c1.152344-.011719 2.292968-.253906 3.355468-.703125 1.070313-.449219 2.054688-1.078125 2.914063-1.855469 1.609375-1.691406 2.523437-3.929688 2.558594-6.265625-.015625-1.15625-.253907-2.296875-.707031-3.355469-.445313-1.070312-1.074219-2.054687-1.851563-2.914062-.84375-.796875-1.832031-1.429688-2.914063-1.855469-1.609374-.703125-3.398437-.886719-5.121093-.527344-.550781.09375-1.089844.273438-1.589844.527344-.5625.195313-1.09375.460937-1.585937.796875-.464844.324219-.90625.679688-1.324219 1.058594-.78125.859375-1.40625 1.84375-1.855469 2.914062-.941406 2.136719-.941406 4.570313 0 6.707032.449219 1.070312 1.078125 2.054687 1.855469 2.914062l1.324219 1.058594c.492187.335937 1.023437.601562 1.585937.796875.503906.25 1.039063.429687 1.589844.527343.585937.101563 1.175781.160157 1.765625.175782zm0 0"/><path d="m300.144531 285.453125c-3.410156 22.289063-21.667969 39.332031-44.140625 41.199219-22.46875-1.867188-40.726562-18.910156-44.136718-41.199219 0-15.164063 19.765624-20.59375 44.136718-20.59375 24.375 0 44.140625 5.429687 44.140625 20.59375zm0 0"/></g><path d="m256.003906 283.8125c0-4.875-5.925781-8.828125-13.238281-8.828125-7.316406 0-13.242187 3.953125-13.242187 8.828125s5.925781 8.828125 13.242187 8.828125c7.3125 0 13.238281-3.953125 13.238281-8.828125zm0 0" fill="#464f5d"/></svg>