<svg height="512pt" viewBox="0 -9 512.04692 512" width="512pt" xmlns="http://www.w3.org/2000/svg"><path d="m510.964844 2.847656c-112.289063-16.15625-173.640625 41.84375-182.996094 51.554688-45.519531-21.660156-98.371094-21.660156-143.890625 0-9.355469-9.710938-70.707031-67.710938-182.996094-51.554688 0 0-17.390625 140.800782 87.21875 202.679688v.355468c.597657 42.324219 14.898438 83.3125 40.753907 116.824219-26.261719 15.042969-40.753907 34.636719-40.753907 55.3125 0 40.191407 54.4375 73.929688 132.414063 82.054688h.140625c.523437 19.066406 16.132812 34.253906 35.207031 34.253906 19.078125 0 34.6875-15.1875 35.210938-34.253906h.058593c77.941407-8.113281 132.414063-41.863281 132.414063-82.054688 0-20.675781-14.503906-40.269531-40.773438-55.320312 25.835938-33.523438 40.140625-74.5 40.773438-116.816407v-.355468c104.609375-61.878906 87.21875-202.679688 87.21875-202.679688zm0 0" fill="#e4c05c"/><path d="m377.578125 329.734375c23.304687 13.0625 37.34375 29.925781 37.34375 48.285156 0 35.839844-53.230469 65.855469-124.472656 73.269531h-68.851563c-71.242187-7.414062-124.472656-37.429687-124.472656-73.269531 0-18.359375 14.039062-35.222656 37.34375-48.285156" fill="#b19046"/><path d="m221.597656 460.117188c-.300781 0-.609375 0-.882812-.042969-77.941406-8.113281-132.414063-41.863281-132.414063-82.054688 0-20.972656 14.863281-40.855469 41.851563-55.984375 4.253906-2.386718 9.636718-.871094 12.023437 3.382813 2.386719 4.253906.871094 9.636719-3.382812 12.023437-21.175781 11.863282-32.839844 26.277344-32.839844 40.578125 0 29.847657 50.105469 57.574219 116.527344 64.496094 4.679687.46875 8.167969 4.527344 7.933593 9.222656-.234374 4.699219-4.113281 8.386719-8.816406 8.386719zm0 0" fill="#894b9d"/><path d="m290.449219 460.117188c-4.703125 0-8.582031-3.6875-8.816407-8.386719-.234374-4.699219 3.253907-8.753907 7.933594-9.226563 66.421875-6.910156 116.527344-34.648437 116.527344-64.484375 0-14.308593-11.664062-28.714843-32.839844-40.605469-4.253906-2.386718-5.765625-7.769531-3.382812-12.023437 2.386718-4.253906 7.769531-5.769531 12.023437-3.382813 26.988281 15.148438 41.851563 35.039063 41.851563 56.011719 0 40.191407-54.4375 73.929688-132.414063 82.054688-.273437.023437-.582031.042969-.882812.042969zm0 0" fill="#894b9d"/><path d="m128.554688 97.039062c-25.957032 30.1875-40.238282 68.675782-40.253907 108.488282-104.609375-61.878906-87.21875-202.679688-87.21875-202.679688zm0 0" fill="#fdd7ad"/><path d="m379.167969 327.789062c-30.632813 37.785157-74.417969 63.472657-123.144531 63.472657-48.90625 0-92.953126-25.867188-123.585938-64l.351562-.265625c-3.441406-32.660156 19.421876-57.203125 44.757813-74.679688 8.828125-6.09375 18.183594-11.566406 27.453125-17.039062 8.839844-4.632813 16.296875-11.511719 21.628906-19.949219 8.207032-14.832031 5.472656-32.839844 4.234375-48.90625-1.851562-24.980469-3.265625-51.289063 6.796875-74.855469 1.925782-4.910156 4.769532-9.40625 8.386719-13.242187 2.597656-2.816407 6.160156-4.546875 9.976563-4.855469h.265624c3.722657.375 7.175782 2.101562 9.710938 4.855469 3.585938 3.859375 6.429688 8.347656 8.386719 13.242187 10.0625 23.566406 8.648437 49.875 6.707031 74.855469-1.234375 16.066406-3.972656 34.074219 4.238281 48.90625 5.351563 8.417969 12.804688 15.292969 21.625 19.949219 9.359375 5.472656 18.714844 10.945312 27.542969 17.039062 25.511719 17.652344 48.550781 42.371094 44.667969 75.472656zm0 0" fill="#fdd7ad"/><path d="m423.746094 205.527344c-.015625-39.8125-14.296875-78.300782-40.253906-108.488282l127.472656-94.191406s17.390625 140.800782-87.21875 202.679688zm0 0" fill="#fdd7ad"/><path d="m194.230469 188.226562c0 14.625-11.855469 26.484376-26.484375 26.484376-14.625 0-26.480469-11.859376-26.480469-26.484376s11.855469-26.484374 26.480469-26.484374c14.628906 0 26.484375 11.859374 26.484375 26.484374zm0 0" fill="#2c2f38"/><path d="m370.78125 188.226562c0 14.625-11.855469 26.484376-26.480469 26.484376-14.628906 0-26.484375-11.859376-26.484375-26.484376s11.855469-26.484374 26.484375-26.484374c14.625 0 26.480469 11.859374 26.480469 26.484374zm0 0" fill="#2c2f38"/><g fill="#59474e"><path d="m216.300781 347.125c-6.835937.003906-13.601562-1.363281-19.898437-4.019531-6.640625-2.695313-12.382813-7.21875-16.5625-13.046875-4.53125-6.652344-6.378906-14.773438-5.171875-22.730469.375-3.164063 2.425781-5.878906 5.367187-7.105469 2.941406-1.226562 6.3125-.773437 8.824219 1.183594 2.515625 1.960938 3.777344 5.121094 3.304687 8.269531-.632812 3.613281.15625 7.332031 2.207032 10.375 2.292968 3.0625 5.394531 5.429688 8.960937 6.820313 7.984375 3.351562 16.96875 3.414062 25 .179687 11.441407-4.839843 18.871094-16.058593 18.863281-28.480469 0-4.875 3.953126-8.828124 8.828126-8.828124s8.828124 3.953124 8.828124 8.828124c0 26.816407-21.738281 48.554688-48.550781 48.554688zm0 0"/><path d="m295.746094 347.125c-26.8125 0-48.550782-21.738281-48.550782-48.554688 0-4.875 3.953126-8.828124 8.828126-8.828124s8.828124 3.953124 8.828124 8.828124c.007813 12.421876 7.4375 23.632813 18.871094 28.480469 8.03125 3.222657 17.011719 3.15625 24.992188-.1875 3.566406-1.390625 6.667968-3.75 8.960937-6.8125 2.050781-3.042969 2.839844-6.761719 2.207031-10.375-.472656-3.148437.789063-6.308593 3.304688-8.269531 2.511719-1.957031 5.882812-2.410156 8.824219-1.183594 2.941406 1.226563 4.992187 3.941406 5.367187 7.105469 1.207032 7.957031-.640625 16.078125-5.171875 22.730469-4.179687 5.824218-9.921875 10.34375-16.5625 13.039062-6.296875 2.660156-13.0625 4.03125-19.898437 4.027344zm0 0"/><path d="m167.746094 144.089844h-8.824219c-4.878906 0-8.828125-3.953125-8.828125-8.828125s3.949219-8.828125 8.828125-8.828125h8.824219c4.875 0 8.828125 3.953125 8.828125 8.828125s-3.953125 8.828125-8.828125 8.828125zm0 0"/><path d="m353.125 144.089844h-8.824219c-4.875 0-8.828125-3.953125-8.828125-8.828125s3.953125-8.828125 8.828125-8.828125h8.824219c4.878906 0 8.828125 3.953125 8.828125 8.828125s-3.949219 8.828125-8.828125 8.828125zm0 0"/></g><path d="m291.332031 459.058594c0 19.5-15.808593 35.308594-35.308593 35.308594s-35.308594-15.808594-35.308594-35.308594c0-19.503906 15.808594-35.3125 35.308594-35.3125s35.308593 15.808594 35.308593 35.3125zm0 0" fill="#f3d55b"/><path d="m291.332031 264.734375c0 10.832031-15.808593 29.421875-35.308593 29.421875s-35.308594-18.589844-35.308594-29.421875 15.808594-14.714844 35.308594-14.714844 35.308593 3.875 35.308593 14.714844zm0 0" fill="#2c2f38"/><path d="m167.746094 176.574219c0 4.875-3.949219 8.828125-8.824219 8.828125-4.878906 0-8.828125-3.953125-8.828125-8.828125s3.949219-8.828125 8.828125-8.828125c4.875 0 8.824219 3.953125 8.824219 8.828125zm0 0" fill="#fff"/><path d="m344.300781 176.574219c0 4.875-3.953125 8.828125-8.828125 8.828125s-8.828125-3.953125-8.828125-8.828125 3.953125-8.828125 8.828125-8.828125 8.828125 3.953125 8.828125 8.828125zm0 0" fill="#fff"/></svg>