<svg height="512pt" viewBox="0 -31 512.01421 512" width="512pt" xmlns="http://www.w3.org/2000/svg"><path d="m353.640625 365.140625c3.617187 18.011719 6.886719 36.726563 11.828125 54.378906 4.238281 14.742188 12.890625 27.894531 29.574219 28.25 16.152343.265625 32.132812-.53125 48.285156 1.324219 12.359375 1.324219 25.070313 3.089844 35.398437-5.296875 6.53125-5.9375 11.269532-13.582031 13.683594-22.070313 4.664063-17.214843 7.445313-34.882812 8.296875-52.699218 2.5625-22.070313 4.707031-44.199219 6.445313-66.382813 1.234375-15.890625 1.324218-32.046875 3.882812-47.757812 2.410156-14.398438.34375-29.1875-5.914062-42.375-6.089844-12.535157-15.800782-23.390625-18.980469-37.339844-3.175781-13.945313.179687-28.601563-4.589844-42.195313-4.476562-11.300781-12.539062-20.824218-22.949219-27.101562-27.457031-18.359375-34.515624-54.90625-54.554687-79.625-8.476563-10.414062-18.273437-18.890625-32.398437-17.566406-12.082032 1.628906-23.449219 6.683594-32.75 14.566406h-165.78125c-9.300782-7.882812-20.667969-12.9375-32.75-14.566406-14.125-1.324219-23.925782 7.152344-32.398438 17.566406-20.039062 24.71875-27.101562 61.265625-54.554688 79.625-10.410156 6.277344-18.472656 15.800781-22.953124 27.101562-4.765626 13.59375-1.410157 28.335938-4.589844 42.195313-3.175782 13.859375-12.886719 24.804687-18.976563 37.339844-6.261719 13.1875-8.324219 27.976562-5.917969 42.375 2.5625 15.710937 2.648438 31.867187 3.886719 47.757812 1.765625 22.15625 3.914063 44.285157 6.441407 66.382813.851562 17.816406 3.636718 35.484375 8.300781 52.699218 2.410156 8.488282 7.152343 16.132813 13.679687 22.070313 10.332032 8.386719 23.042969 6.621094 35.402344 5.296875 16.152344-1.855469 32.128906-1.058594 48.285156-1.324219 16.683594-.355469 25.335938-13.507812 29.574219-28.25 4.941406-17.652343 8.207031-36.367187 11.828125-54.378906zm0 0" fill="#2c2f38"/><path d="m370.765625 335.457031c-4.4375 10.566407-10.191406 20.53125-17.125 29.660157v.085937c-7.785156 10.453125-17.605469 19.21875-28.867187 25.777344-5.09375 3.050781-10.589844 5.367187-16.332032 6.886719-17.980468 5.46875-37.492187 1.953124-52.433594-9.445313-14.949218 11.300781-34.375 14.839844-52.347656 9.53125-5.757812-1.585937-11.28125-3.929687-16.421875-6.972656-11.261719-6.558594-21.078125-15.324219-28.863281-25.777344v-.085937c-6.933594-9.128907-12.6875-19.09375-17.125-29.660157-9.222656-20.238281-11.488281-42.960937-6.445312-64.621093 4.796874-19.195313 15.289062-36.488282 30.101562-49.609376 8.675781-7.667968 18.585938-13.816406 29.308594-18.183593 44.136718-17.65625 35.308594-35.3125 35.308594-70.621094 0-35.3125-52.964844-35.3125-52.964844-61.792969 0-13.949218 21.980468-32.75 42.8125-47.40625 18.804687-13.328125 36.636718-23.2148435 36.636718-23.2148435s17.832032 9.8867185 36.632813 23.2148435c20.835937 14.65625 42.816406 33.457032 42.816406 47.40625 0 26.480469-52.96875 26.480469-52.96875 61.792969 0 24.273437-4.148437 40.164063 7.59375 53.496094.707031.792969 1.410157 1.5 2.117188 2.292969 7.53125 6.5 16.214843 11.53125 25.601562 14.832031 29.476563 11.835937 51.542969 37.019531 59.410157 67.792969 5.042968 21.660156 2.777343 44.382812-6.445313 64.621093zm0 0" fill="#d1d4d1"/><path d="m229.523438 132.421875c0 35.308594 8.828124 52.964844-35.308594 70.621094-10.722656 4.367187-20.632813 10.515625-29.308594 18.183593-14.8125 13.121094-25.304688 30.414063-30.101562 49.609376-21.097657-48.375-23.128907-114.933594-17.039063-173.726563 3.796875-36.546875 28.160156-59.496094 55.351563-73.796875 25.96875-12.78125 54.066406-20.679688 82.890624-23.3046875 0 0-79.449218 44.1367185-79.449218 70.6210935 0 26.480469 52.964844 26.480469 52.964844 61.792969zm0 0" fill="#804537"/><path d="m377.210938 270.835938c-7.867188-30.773438-29.933594-55.957032-59.410157-67.792969-9.386719-3.300781-18.070312-8.332031-25.601562-14.832031-.707031-.792969-1.410157-1.5-2.117188-2.292969-11.742187-13.332031-7.59375-29.222657-7.59375-53.496094 0-35.3125 52.96875-35.3125 52.96875-61.792969 0-26.484375-79.449219-70.6210935-79.449219-70.6210935 28.824219 2.6249995 56.921876 10.5234375 82.890626 23.3046875 27.1875 14.300781 51.554687 37.25 55.347656 73.796875 6.09375 58.792969 4.0625 125.351563-17.035156 173.726563zm0 0" fill="#804537"/><g fill="#2c2f38"><path d="m300.144531 238.351562c0 12.976563-19.773437 35.3125-44.136719 35.3125-24.363281 0-44.136718-22.335937-44.136718-35.3125.007812-1.542968.308594-3.070312.878906-4.5 4.152344-9.535156 21.894531-13.15625 43.257812-13.15625 24.363282 0 44.136719 4.679688 44.136719 17.65625zm0 0"/><path d="m256.007812 353.109375c-4.875 0-8.828124-3.949219-8.828124-8.828125v-70.617188c0-4.878906 3.953124-8.828124 8.828124-8.828124s8.828126 3.949218 8.828126 8.828124v70.617188c0 4.878906-3.953126 8.828125-8.828126 8.828125zm0 0"/><path d="m324.773438 390.980469c-5.09375 3.050781-10.589844 5.367187-16.332032 6.886719-.15625-.429688-.277344-.875-.351562-1.324219-4.644532-25.113281-26.542969-43.335938-52.082032-43.335938-25.539062 0-47.441406 18.222657-52.082031 43.335938-.089843.441406-.179687.96875-.265625 1.410156-5.757812-1.585937-11.28125-3.929687-16.421875-6.972656 1.886719-9.328125 5.738281-18.144531 11.300781-25.863281 13.226563-18.605469 34.640626-29.660157 57.46875-29.660157 22.828126 0 44.242188 11.054688 57.46875 29.660157 5.5625 7.71875 9.414063 16.535156 11.296876 25.863281zm0 0"/><path d="m194.214844 158.902344c0 9.753906-7.90625 17.65625-17.65625 17.65625s-17.65625-7.902344-17.65625-17.65625c0-9.75 7.90625-17.652344 17.65625-17.652344s17.65625 7.902344 17.65625 17.652344zm0 0"/><path d="m353.109375 158.902344c0 9.753906-7.902344 17.65625-17.652344 17.65625-9.753906 0-17.65625-7.902344-17.65625-17.65625 0-9.75 7.902344-17.652344 17.65625-17.652344 9.75 0 17.652344 7.902344 17.652344 17.652344zm0 0"/></g><path d="m194.214844 291.316406c-1.15625-.011718-2.292969-.253906-3.355469-.707031-1.070313-.445313-2.054687-1.074219-2.914063-1.851563-1.609374-1.691406-2.527343-3.929687-2.558593-6.269531.011719-1.152343.253906-2.292969.707031-3.351562.445312-1.070313 1.074219-2.054688 1.851562-2.914063.84375-.800781 1.832032-1.429687 2.914063-1.855468 1.609375-.703126 3.398437-.886719 5.121094-.527344.550781.09375 1.085937.273437 1.589843.527344.5625.195312 1.09375.460937 1.585938.796874.464844.324219.90625.679688 1.324219 1.058594.777343.859375 1.40625 1.84375 1.855469 2.914063.941406 2.136719.941406 4.570312 0 6.707031-.449219 1.070312-1.078126 2.054688-1.855469 2.914062l-1.324219 1.058594c-.492188.335938-1.023438.601563-1.585938.792969-.503906.253906-1.039062.433594-1.589843.53125-.585938.101563-1.175781.160156-1.765625.175781zm0 0" fill="#7f8c8d"/><path d="m167.730469 158.902344c-1.152344-.011719-2.292969-.253906-3.355469-.703125-1.066406-.449219-2.050781-1.078125-2.910156-1.855469-1.613282-1.691406-2.527344-3.929688-2.5625-6.269531.015625-1.152344.253906-2.292969.707031-3.351563.449219-1.070312 1.074219-2.054687 1.855469-2.914062.84375-.796875 1.832031-1.429688 2.910156-1.855469 1.613281-.703125 3.402344-.886719 5.121094-.527344.554687.09375 1.089844.273438 1.589844.527344.5625.195313 1.097656.460937 1.589843.796875.460938.324219.902344.679688 1.324219 1.058594.777344.859375 1.402344 1.84375 1.851562 2.914062.941407 2.136719.941407 4.570313 0 6.707032-.449218 1.070312-1.074218 2.054687-1.851562 2.914062l-1.324219 1.058594c-.492187.335937-1.027343.601562-1.589843.796875-.5.25-1.035157.429687-1.589844.527343-.582032.101563-1.171875.160157-1.765625.175782zm0 0" fill="#fff"/><path d="m326.628906 158.902344c-1.15625-.011719-2.292968-.253906-3.355468-.703125-1.070313-.449219-2.054688-1.078125-2.914063-1.855469-1.613281-1.691406-2.527344-3.929688-2.558594-6.269531.011719-1.152344.253907-2.292969.707031-3.351563.445313-1.070312 1.074219-2.054687 1.851563-2.914062.84375-.796875 1.832031-1.429688 2.914063-1.855469 1.609374-.703125 3.398437-.886719 5.121093-.527344.550781.09375 1.085938.273438 1.585938.527344.5625.195313 1.097656.460937 1.589843.796875.464844.324219.90625.679688 1.324219 1.058594.777344.859375 1.40625 1.84375 1.855469 2.914062.941406 2.136719.941406 4.570313 0 6.707032-.449219 1.070312-1.078125 2.054687-1.855469 2.914062l-1.324219 1.058594c-.492187.335937-1.027343.601562-1.589843.796875-.5.25-1.035157.429687-1.585938.527343-.585937.101563-1.175781.160157-1.765625.175782zm0 0" fill="#fff"/><path d="m167.730469 326.628906c-1.152344-.015625-2.292969-.253906-3.355469-.707031-1.066406-.449219-2.050781-1.074219-2.910156-1.855469-1.613282-1.691406-2.527344-3.929687-2.5625-6.265625.015625-1.152343.253906-2.292969.707031-3.355469.449219-1.070312 1.074219-2.054687 1.855469-2.914062.84375-.796875 1.832031-1.425781 2.910156-1.851562 1.613281-.703126 3.402344-.890626 5.121094-.53125.554687.097656 1.089844.273437 1.589844.53125.5625.191406 1.097656.460937 1.589843.792968.460938.328125.902344.679688 1.324219 1.058594.777344.859375 1.402344 1.84375 1.851562 2.914062.941407 2.136719.941407 4.574219 0 6.710938-.449218 1.066406-1.074218 2.050781-1.851562 2.910156l-1.324219 1.0625c-.492187.332032-1.027343.597656-1.589843.792969-.5.253906-1.035157.429687-1.589844.53125-.582032.101563-1.171875.160156-1.765625.175781zm0 0" fill="#7f8c8d"/><path d="m203.042969 326.628906c-1.15625-.015625-2.292969-.253906-3.355469-.707031-1.070312-.449219-2.054688-1.074219-2.914062-1.855469-1.613282-1.691406-2.527344-3.929687-2.558594-6.265625.011718-1.152343.253906-2.292969.707031-3.355469.445313-1.070312 1.074219-2.054687 1.851563-2.914062.84375-.796875 1.832031-1.425781 2.914062-1.851562 1.609375-.703126 3.398438-.890626 5.121094-.53125.550781.097656 1.085937.273437 1.585937.53125.5625.191406 1.097657.460937 1.589844.792968.460937.328125.90625.679688 1.324219 1.058594.777344.859375 1.40625 1.84375 1.855468 2.914062.941407 2.136719.941407 4.574219 0 6.710938-.449218 1.066406-1.078124 2.050781-1.855468 2.910156l-1.324219 1.0625c-.492187.332032-1.027344.597656-1.589844.792969-.5.253906-1.035156.429687-1.585937.53125-.585938.101563-1.175782.160156-1.765625.175781zm0 0" fill="#7f8c8d"/><path d="m317.800781 291.316406c1.152344-.011718 2.292969-.253906 3.355469-.707031 1.066406-.445313 2.050781-1.074219 2.910156-1.851563 1.613282-1.691406 2.527344-3.929687 2.5625-6.269531-.015625-1.152343-.253906-2.292969-.707031-3.351562-.449219-1.070313-1.074219-2.054688-1.855469-2.914063-.84375-.800781-1.832031-1.429687-2.910156-1.855468-1.613281-.703126-3.402344-.886719-5.121094-.527344-.554687.09375-1.089844.273437-1.589844.527344-.5625.195312-1.097656.460937-1.589843.796874-.460938.324219-.902344.679688-1.324219 1.058594-.777344.859375-1.402344 1.84375-1.851562 2.914063-.941407 2.136719-.941407 4.570312 0 6.707031.449218 1.070312 1.074218 2.054688 1.851562 2.914062l1.324219 1.058594c.492187.335938 1.027343.601563 1.589843.792969.5.253906 1.035157.433594 1.589844.53125.582032.101563 1.171875.160156 1.765625.175781zm0 0" fill="#7f8c8d"/><path d="m344.28125 326.628906c1.15625-.015625 2.296875-.253906 3.355469-.707031 1.070312-.449219 2.054687-1.074219 2.914062-1.855469 1.613281-1.691406 2.527344-3.929687 2.558594-6.265625-.011719-1.152343-.253906-2.292969-.703125-3.355469-.449219-1.070312-1.078125-2.054687-1.855469-2.914062-.84375-.796875-1.832031-1.425781-2.914062-1.851562-1.609375-.703126-3.398438-.890626-5.121094-.53125-.550781.097656-1.085937.273437-1.585937.53125-.5625.191406-1.097657.460937-1.589844.792968-.460938.328125-.90625.679688-1.324219 1.058594-.777344.859375-1.40625 1.84375-1.855469 2.914062-.941406 2.136719-.941406 4.574219 0 6.710938.449219 1.066406 1.078125 2.050781 1.855469 2.910156l1.324219 1.0625c.492187.332032 1.027344.597656 1.589844.792969.5.253906 1.035156.429687 1.585937.53125.585937.101563 1.175781.160156 1.765625.175781zm0 0" fill="#7f8c8d"/><path d="m308.972656 326.628906c1.152344-.015625 2.292969-.253906 3.355469-.707031 1.066406-.449219 2.054687-1.074219 2.910156-1.855469 1.613281-1.691406 2.527344-3.929687 2.5625-6.265625-.015625-1.152343-.253906-2.292969-.707031-3.355469-.445312-1.070312-1.074219-2.054687-1.855469-2.914062-.839843-.796875-1.832031-1.425781-2.910156-1.851562-1.613281-.703126-3.402344-.890626-5.121094-.53125-.554687.097656-1.089843.273437-1.589843.53125-.5625.191406-1.097657.460937-1.589844.792968-.460938.328125-.902344.679688-1.324219 1.058594-.777344.859375-1.402344 1.84375-1.851563 2.914062-.941406 2.136719-.941406 4.574219 0 6.710938.449219 1.066406 1.074219 2.050781 1.851563 2.910156l1.324219 1.0625c.492187.332032 1.027344.597656 1.589844.792969.5.253906 1.039062.429687 1.589843.53125.582031.101563 1.171875.160156 1.765625.175781zm0 0" fill="#7f8c8d"/><path d="m265.417969 237c0-4.875-8.035157-8.828125-17.945313-8.828125-9.914062 0-17.949218 3.953125-17.949218 8.828125s8.035156 8.828125 17.949218 8.828125c9.910156 0 17.945313-3.953125 17.945313-8.828125zm0 0" fill="#464f5d"/></svg>