<svg height="511pt" viewBox="0 -8 511.93298 511" width="511pt" xmlns="http://www.w3.org/2000/svg"><path d="m149.953125 46.898438-23.21875 35.222656c-5.824219-19.066406-15.449219-23.128906-24.097656-21.890625-9.957031 1.382812-17.625 9.488281-18.449219 19.507812l-4.503906 59.054688-.617188 7.59375c-1.5 19.242187-29.042968 25.421875-40.078125 9.003906l-32.574219-48.550781c-11.261718-16.691406-7.324218-39.300782 8.917969-51.199219 26.039063-20.214844 64.792969-46.347656 91.363281-46.347656 10.769532-.957031 21.464844 2.511719 29.625 9.605469 8.160157 7.09375 13.082032 17.203124 13.632813 28zm0 0" fill="#805333"/><path d="m114.730469 137.292969c-.015625 10.347656 1.199219 20.660156 3.617187 30.722656l-.792968.175781c-6.136719-16.105468-20.746094-27.445312-37.871094-29.398437l4.503906-59.054688c.824219-10.019531 8.492188-18.125 18.449219-19.507812 8.648437-1.238281 18.273437 2.824219 24.097656 21.890625-7.949219 17.304687-12.042969 36.128906-12.003906 55.171875zm0 0" fill="#59474e"/><path d="m361.980469 46.898438 23.21875 35.222656c5.824219-19.066406 15.445312-23.128906 24.097656-21.890625 9.957031 1.382812 17.625 9.488281 18.449219 19.507812l4.503906 59.054688.617188 7.59375c1.5 19.242187 29.042968 25.421875 40.078124 9.003906l32.574219-48.550781c11.261719-16.691406 7.324219-39.300782-8.917969-51.199219-26.039062-20.214844-64.792968-46.347656-91.363281-46.347656-10.769531-.957031-21.464843 2.511719-29.625 9.605469-8.160156 7.09375-13.082031 17.203124-13.632812 28zm0 0" fill="#805333"/><path d="m397.210938 137.292969c.015624 10.347656-1.199219 20.660156-3.617188 30.722656l.792969.175781c6.140625-16.105468 20.746093-27.445312 37.871093-29.398437l-4.503906-59.054688c-.824218-10.019531-8.488281-18.125-18.449218-19.507812-8.648438-1.238281-18.273438 2.824219-24.097657 21.890625 7.949219 17.304687 12.042969 36.128906 12.003907 55.171875zm0 0" fill="#59474e"/><path d="m107.667969 427.015625c-15.65625-5.785156-29.550781-15.515625-40.34375-28.25-20.832031-25.773437-16.507813-63.46875-1.585938-90.921875 10.769531-19.773438 30.71875-30.457031 45.371094-46.699219 13.804687-16.023437 21.359375-36.492187 21.273437-57.644531-6.425781-11.058594-11.15625-23.019531-14.035156-35.484375-6.863281-28.765625-3.910156-59 8.386719-85.894531 5.832031-12.890625 13.667969-24.78125 23.21875-35.222656 27.308594-29.597657 65.746094-46.433594 106.019531-46.433594 40.269532 0 78.707032 16.835937 106.015625 46.433594 9.550781 10.441406 17.386719 22.332031 23.21875 35.222656 12.296875 26.894531 15.25 57.128906 8.386719 85.894531-2.878906 12.464844-7.609375 24.425781-14.035156 35.484375-.085938 21.152344 7.46875 41.621094 21.273437 57.644531 14.652344 16.242188 34.605469 26.925781 45.375 46.699219 14.917969 27.453125 19.242188 65.148438-1.589843 90.921875-10.339844 12.28125-23.605469 21.753906-38.578126 27.542969v.089844" fill="#b19046"/><path d="m185.171875 463.472656c13.15625 18.628906 39.902344 31.339844 70.800781 31.339844 31.160156 0 58.082032-12.976562 71.058594-31.78125l-71.058594-91.804688zm0 0" fill="#2c2f38"/><path d="m300.109375 106.398438h-88.277344c-4.875 0-8.828125-3.953126-8.828125-8.828126s3.953125-8.828124 8.828125-8.828124h88.277344c4.875 0 8.828125 3.953124 8.828125 8.828124s-3.953125 8.828126-8.828125 8.828126zm0 0" fill="#7f6e5d"/><path d="m264.796875 71.085938h-17.652344c-4.875 0-8.828125-3.949219-8.828125-8.828126 0-4.875 3.953125-8.824218 8.828125-8.824218h17.652344c4.878906 0 8.828125 3.949218 8.828125 8.824218 0 4.878907-3.949219 8.828126-8.828125 8.828126zm0 0" fill="#7f6e5d"/><path d="m254.054688 389.207031c-4.449219 16.035157-12.445313 30.863281-23.390626 43.394531-23.21875 26.679688-63.558593 44.847657-96.574218 30.898438-3.027344-1.269531-5.875-2.925781-8.476563-4.925781-19.683593-14.6875-22.15625-46.097657-18.007812-69.578125 1.214843-6.492188 2.894531-12.890625 5.03125-19.140625 16.863281-49.378907 58.527343-82.148438 103.285156-97.101563 9.265625-3.089844 18.734375-5.542968 28.335937-7.34375 4.863282-.851562 9.804688-1.175781 14.742188-.964844 3.460938.078126 6.910156.398438 10.328125.964844 9.601563 1.800782 19.066406 4.253906 28.335937 7.34375 44.753907 15.007813 86.421876 47.738282 103.28125 97.101563 2.136719 6.25 3.816407 12.648437 5.03125 19.140625 4.152344 23.480468 1.679688 54.890625-18.007812 69.578125-2.597656 2-5.449219 3.65625-8.472656 4.925781-33.015625 13.914062-73.359375-4.253906-96.574219-30.898438-10.949219-12.53125-18.941406-27.359374-23.394531-43.394531" fill="#59474e"/><g fill="#2c2f38"><path d="m300.109375 353.570312c0 12.976563-19.773437 35.308594-44.136719 35.308594-24.367187 0-44.140625-22.332031-44.140625-35.308594.011719-1.542968.3125-3.070312.882813-4.503906 4.148437-9.53125 21.894531-13.152344 43.257812-13.152344 24.363282 0 44.136719 4.679688 44.136719 17.65625zm0 0"/><path d="m167.695312 388.878906c-1.152343-.011718-2.292968-.253906-3.355468-.703125-1.066406-.449219-2.054688-1.078125-2.914063-1.855469-1.609375-1.691406-2.523437-3.929687-2.558593-6.265624.015624-1.15625.253906-2.296876.707031-3.355469.445312-1.070313 1.074219-2.054688 1.851562-2.914063.84375-.796875 1.835938-1.429687 2.914063-1.855468 1.609375-.703126 3.402344-.886719 5.121094-.527344.554687.09375 1.089843.273437 1.589843.527344.5625.195312 1.09375.460937 1.585938.796874.464843.324219.90625.679688 1.324219 1.058594.78125.859375 1.40625 1.84375 1.855468 2.914063.941406 2.136719.941406 4.570312 0 6.707031-.449218 1.070312-1.074218 2.054688-1.855468 2.914062l-1.324219 1.058594c-.492188.335938-1.023438.601563-1.585938.796875-.503906.25-1.039062.429688-1.589843.527344-.582032.101563-1.175782.160156-1.765626.175781zm0 0"/><path d="m141.210938 424.191406c-1.152344-.015625-2.292969-.253906-3.351563-.707031-1.070313-.449219-2.054687-1.074219-2.914063-1.855469-1.613281-1.691406-2.527343-3.929687-2.5625-6.265625.015626-1.152343.253907-2.292969.707032-3.355469.449218-1.070312 1.074218-2.054687 1.855468-2.914062.84375-.796875 1.832032-1.425781 2.914063-1.851562 1.609375-.703126 3.398437-.890626 5.117187-.53125.554688.097656 1.089844.277343 1.589844.53125.5625.191406 1.097656.460937 1.589844.792968.460938.328125.902344.679688 1.324219 1.058594.777343.859375 1.40625 1.847656 1.851562 2.914062.945313 2.136719.945313 4.574219 0 6.710938-.449219 1.066406-1.074219 2.050781-1.851562 2.910156l-1.324219 1.0625c-.492188.332032-1.027344.601563-1.589844.792969-.5.253906-1.035156.433594-1.589844.53125-.582031.101563-1.171874.160156-1.765624.175781zm0 0"/><path d="m176.523438 424.191406c-1.15625-.015625-2.292969-.253906-3.355469-.707031-1.070313-.449219-2.054688-1.074219-2.914063-1.855469-1.609375-1.691406-2.527344-3.929687-2.558594-6.265625.015626-1.152343.253907-2.292969.707032-3.355469.445312-1.070312 1.074218-2.054687 1.851562-2.914062.84375-.796875 1.832032-1.425781 2.914063-1.851562 1.609375-.703126 3.398437-.890626 5.121093-.53125.550782.097656 1.089844.277343 1.589844.53125.5625.191406 1.09375.460937 1.585938.792968.464844.328125.90625.679688 1.324218 1.058594.777344.859375 1.40625 1.847656 1.855469 2.914062.941407 2.136719.941407 4.574219 0 6.710938-.449219 1.066406-1.078125 2.050781-1.855469 2.910156l-1.324218 1.0625c-.492188.332032-1.023438.601563-1.585938.792969-.503906.253906-1.039062.433594-1.589844.53125-.585937.101563-1.175781.160156-1.765624.175781zm0 0"/><path d="m344.246094 388.878906c1.152344-.011718 2.292968-.253906 3.355468-.703125 1.070313-.449219 2.054688-1.078125 2.914063-1.855469 1.609375-1.691406 2.523437-3.929687 2.558594-6.265624-.015625-1.15625-.253907-2.296876-.707031-3.355469-.445313-1.070313-1.074219-2.054688-1.851563-2.914063-.84375-.796875-1.832031-1.429687-2.914063-1.855468-1.609374-.703126-3.398437-.886719-5.121093-.527344-.550781.09375-1.089844.273437-1.589844.527344-.5625.195312-1.09375.460937-1.585937.796874-.464844.324219-.90625.679688-1.324219 1.058594-.78125.859375-1.40625 1.84375-1.855469 2.914063-.941406 2.136719-.941406 4.570312 0 6.707031.449219 1.070312 1.078125 2.054688 1.855469 2.914062l1.324219 1.058594c.492187.335938 1.023437.601563 1.585937.796875.503906.25 1.039063.429688 1.589844.527344.585937.101563 1.175781.160156 1.765625.175781zm0 0"/><path d="m370.730469 424.191406c1.152343-.015625 2.292969-.253906 3.355469-.707031 1.066406-.449219 2.050781-1.074219 2.910156-1.855469 1.613281-1.691406 2.527344-3.929687 2.5625-6.265625-.015625-1.152343-.253906-2.292969-.707032-3.355469-.449218-1.070312-1.074218-2.054687-1.855468-2.914062-.84375-.796875-1.832032-1.425781-2.910156-1.851562-1.613282-.703126-3.402344-.890626-5.121094-.53125-.554688.097656-1.089844.277343-1.589844.53125-.5625.191406-1.097656.460937-1.589844.792968-.460937.328125-.902344.679688-1.324218 1.058594-.777344.859375-1.402344 1.847656-1.851563 2.914062-.945313 2.136719-.945313 4.574219 0 6.710938.449219 1.066406 1.074219 2.050781 1.851563 2.910156l1.324218 1.0625c.492188.332032 1.027344.601563 1.589844.792969.5.253906 1.035156.433594 1.589844.53125.582031.101563 1.171875.160156 1.765625.175781zm0 0"/><path d="m335.417969 424.191406c1.15625-.015625 2.292969-.253906 3.355469-.707031 1.070312-.449219 2.054687-1.074219 2.914062-1.855469 1.613281-1.691406 2.527344-3.929687 2.558594-6.265625-.011719-1.152343-.253906-2.292969-.707032-3.355469-.445312-1.070312-1.074218-2.054687-1.851562-2.914062-.84375-.796875-1.832031-1.425781-2.914062-1.851562-1.609376-.703126-3.398438-.890626-5.121094-.53125-.550782.097656-1.085938.277343-1.585938.53125-.5625.191406-1.097656.460937-1.589844.792968-.464843.328125-.90625.679688-1.324218 1.058594-.777344.859375-1.40625 1.847656-1.855469 2.914062-.941406 2.136719-.941406 4.574219 0 6.710938.449219 1.066406 1.078125 2.050781 1.855469 2.910156l1.324218 1.0625c.492188.332032 1.027344.601563 1.589844.792969.5.253906 1.035156.433594 1.585938.53125.585937.101563 1.175781.160156 1.765625.175781zm0 0"/></g><path d="m229.488281 203.5c0 14.628906-11.855469 26.484375-26.484375 26.484375-14.625 0-26.480468-11.855469-26.480468-26.484375 0-14.625 11.855468-26.480469 26.480468-26.480469 14.628906 0 26.484375 11.855469 26.484375 26.480469zm0 0" fill="#fff"/><path d="m220.660156 203.5c0 9.75-7.902344 17.65625-17.65625 17.65625-9.75 0-17.652344-7.90625-17.652344-17.65625s7.902344-17.652344 17.652344-17.652344c9.753906 0 17.65625 7.902344 17.65625 17.652344zm0 0" fill="#e57e25"/><path d="m203.003906 212.328125c-1.152344-.011719-2.292968-.253906-3.351562-.707031-1.070313-.449219-2.054688-1.074219-2.914063-1.851563-1.613281-1.691406-2.527343-3.929687-2.558593-6.269531.011718-1.152344.253906-2.292969.703124-3.351562.449219-1.070313 1.074219-2.054688 1.855469-2.914063.84375-.800781 1.832031-1.429687 2.914063-1.855469 1.609375-.703125 3.398437-.886718 5.117187-.527344.554688.09375 1.089844.273438 1.589844.527344.5625.195313 1.097656.460938 1.589844.796875.460937.324219.902343.679688 1.324219 1.058594.777343.859375 1.40625 1.84375 1.851562 2.914063.945312 2.136718.945312 4.570312 0 6.707031-.449219 1.070312-1.074219 2.054687-1.851562 2.914062l-1.324219 1.058594c-.492188.335937-1.027344.601563-1.589844.792969-.5.253906-1.035156.433594-1.589844.53125-.582031.101562-1.171875.160156-1.765625.175781zm0 0" fill="#2c2f38"/><path d="m203.003906 194.671875c0 4.878906-3.949218 8.828125-8.824218 8.828125-4.878907 0-8.828126-3.949219-8.828126-8.828125 0-4.875 3.949219-8.824219 8.828126-8.824219 4.875 0 8.824218 3.949219 8.824218 8.824219zm0 0" fill="#ecf0f1"/><path d="m335.417969 203.5c0 14.628906-11.855469 26.484375-26.480469 26.484375-14.628906 0-26.484375-11.855469-26.484375-26.484375 0-14.625 11.855469-26.480469 26.484375-26.480469 14.625 0 26.480469 11.855469 26.480469 26.480469zm0 0" fill="#fff"/><path d="m326.589844 203.5c0 9.75-7.902344 17.65625-17.652344 17.65625s-17.65625-7.90625-17.65625-17.65625 7.90625-17.652344 17.65625-17.652344 17.652344 7.902344 17.652344 17.652344zm0 0" fill="#e57e25"/><path d="m308.9375 212.328125c-1.15625-.011719-2.292969-.253906-3.355469-.707031-1.070312-.449219-2.054687-1.074219-2.914062-1.851563-1.613281-1.691406-2.527344-3.929687-2.558594-6.269531.011719-1.152344.253906-2.292969.707031-3.351562.445313-1.070313 1.074219-2.054688 1.851563-2.914063.84375-.800781 1.832031-1.429687 2.914062-1.855469 1.609375-.703125 3.398438-.886718 5.121094-.527344.550781.09375 1.085937.273438 1.585937.527344.5625.195313 1.097657.460938 1.589844.796875.464844.324219.90625.679688 1.324219 1.058594.777344.859375 1.40625 1.84375 1.855469 2.914063.941406 2.136718.941406 4.570312 0 6.707031-.449219 1.070312-1.078125 2.054687-1.855469 2.914062l-1.324219 1.058594c-.492187.335937-1.027344.601563-1.589844.792969-.5.253906-1.035156.433594-1.585937.53125-.585937.101562-1.175781.160156-1.765625.175781zm0 0" fill="#2c2f38"/><path d="m308.9375 194.671875c0 4.878906-3.953125 8.828125-8.828125 8.828125s-8.828125-3.949219-8.828125-8.828125c0-4.875 3.953125-8.824219 8.828125-8.824219s8.828125 3.949219 8.828125 8.824219zm0 0" fill="#ecf0f1"/><path d="m236.472656 199.917969c-1.164062-.003907-2.328125-.085938-3.480468-.246094-11.679688-2.140625-23.039063-5.753906-33.808594-10.753906l-4.910156-2.023438c-1.402344-.5625-2.867188-1.121093-4.359376-1.683593-9.367187-2.6875-17.835937-7.839844-24.53125-14.917969-6.980468-8.746094-9.285156-20.332031-6.179687-31.082031 1.382813-4.675782 6.292969-7.347657 10.96875-5.964844 4.675781 1.382812 7.34375 6.292968 5.960937 10.96875-1.480468 5.183594-.386718 10.765625 2.941407 15.007812 4.855469 4.5 10.71875 7.765625 17.097656 9.523438 1.617187.617187 3.195313 1.21875 4.722656 1.835937l5.023438 2.066407c9.410156 4.378906 19.316406 7.597656 29.503906 9.578124 1.453125.203126 5.914063.820313 13.1875-10.070312 2.738281-3.960938 8.148437-4.996094 12.152344-2.324219 4.007812 2.671875 5.136719 8.058594 2.535156 12.113281-5.257813 10.203126-15.386719 16.992188-26.824219 17.972657zm0 0" fill="#59474e"/><path d="m275.472656 199.917969c-11.457031-.980469-21.601562-7.785157-26.855468-18.007813-1.816407-2.625-2.074219-6.023437-.675782-8.890625 1.398438-2.871093 4.234375-4.761719 7.417969-4.945312 3.1875-.1875 6.222656 1.359375 7.945313 4.042969 7.265624 10.894531 11.734374 10.292968 13.191406 10.074218 10.1875-1.984375 20.097656-5.203125 29.507812-9.585937l5.015625-2.066407c1.527344-.617187 3.117188-1.226562 4.730469-1.835937 6.382812-1.757813 12.246094-5.027344 17.101562-9.523437 3.328126-4.246094 4.417969-9.824219 2.9375-15.007813-1.382812-4.675781 1.289063-9.585937 5.964844-10.96875 4.675782-1.382813 9.585938 1.285156 10.96875 5.960937 3.105469 10.75.800782 22.339844-6.179687 31.082032-6.695313 7.082031-15.167969 12.234375-24.53125 14.921875-1.492188.5625-2.957031 1.121093-4.363281 1.691406l-4.90625 2.023437c-10.769532 5-22.132813 8.609376-33.8125 10.75-1.144532.175782-2.300782.269532-3.457032.285157zm0 0" fill="#59474e"/><path d="m264.796875 353.570312c0-4.875-8.035156-8.828124-17.945313-8.828124-9.910156 0-17.945312 3.953124-17.945312 8.828124s8.035156 8.828126 17.945312 8.828126c9.910157 0 17.945313-3.953126 17.945313-8.828126zm0 0" fill="#464f5d"/></svg>