<svg height="512pt" viewBox="0 -9 512 512" width="512pt" xmlns="http://www.w3.org/2000/svg"><path d="m328.914062 474.773438c-21.894531 13.449218-47.226562 20.246093-72.914062 19.570312-25.6875.675781-51.019531-6.121094-72.914062-19.570312 21.539062-21.980469 38.398437-51.050782 72.914062-51.050782s51.375 29.070313 72.914062 51.050782zm0 0" fill="#804537"/><path d="m512 414.898438s-97.101562-27.015626-88.277344 26.214843c3.53125 21.011719-9.355468 39.8125-30.628906 48.375-16.972656 7.65625-36.644531 6.332031-52.4375-3.53125-4.097656-2.9375-7.992188-6.152343-11.652344-9.621093h-.089844c-21.539062-20.214844-38.398437-46.960938-72.914062-46.960938s-51.375 26.746094-72.914062 46.960938c-3.691407 3.472656-7.613282 6.6875-11.742188 9.621093-15.792969 9.863281-35.464844 11.1875-52.4375 3.53125-20.523438-6.644531-33.398438-26.976562-30.628906-48.375 2.773437-9.765625-.949219-20.21875-9.269532-26.039062-23.128906-15.714844-79.007812-.175781-79.007812-.175781 5.296875-31.605469 32.574219-44.40625 53.761719-49.523438 8.414062-2.0625 17.027343-3.21875 25.6875-3.445312-5.214844-10.085938-14.238281-17.679688-25.070313-21.097657-17.476562-6.941406-35.738281-11.714843-54.378906-14.210937 19.214844-12.949219 42.089844-19.359375 65.234375-18.273438 14.046875.511719 27.863281 3.71875 40.695313 9.445313-4.582032-12.4375-12.019532-23.625-21.714844-32.660157-4.199219-4.207031-8.746094-8.042968-13.59375-11.476562 8.761718-.757812 17.582031-.578125 26.304687.527344 66.382813 8.828125 114.9375 70.09375 114.9375 70.09375h88.273438s61.792969-77.949219 141.242187-70.621094c-15.796875 10.980469-28.0625 26.316406-35.308594 44.136719 34.519532-15.222657 74.40625-11.898438 105.929688 8.828125 0 0-70.621094 8.828125-79.449219 35.308594 0 0 70.621094 0 79.449219 52.96875zm0 0" fill="#7f5b53"/><path d="m415.074219 274.183594c-66.382813 8.828125-114.9375 70.09375-114.9375 70.09375l-5.296875.261718c-7.5-6.53125-22.066406-9.089843-38.839844-9.089843-18.273438 0-33.984375 3.089843-40.695312 10.945312l-3.441407-2.117187s-48.554687-61.265625-114.9375-70.09375c5.015625-4.203125 9.761719-8.710938 14.214844-13.503906 13.804687-16.023438 21.359375-36.496094 21.273437-57.644532-6.429687-11.0625-11.160156-23.023437-14.035156-35.488281-6.863281-28.765625-3.910156-58.996094 8.386719-85.890625 5.828125-12.894531 13.664063-24.78125 23.214844-35.222656 27.308593-29.597656 65.746093-46.433594 106.019531-46.433594s78.710938 16.835938 106.019531 46.433594c9.550781 10.441406 17.386719 22.328125 23.214844 35.222656 12.296875 26.894531 15.25 57.125 8.386719 85.890625-2.875 12.464844-7.605469 24.425781-14.035156 35.488281-.085938 21.148438 7.46875 41.621094 21.273437 57.644532 4.453125 4.792968 9.199219 9.300781 14.214844 13.503906zm0 0" fill="#cb8252"/><path d="m114.757812 136.828125c-.011718 10.347656 1.203126 20.660156 3.621094 30.71875l-.796875.175781c-6.136719-16.105468-20.742187-27.441406-37.867187-29.394531l4.5-59.054687c.828125-10.019532 8.492187-18.128907 18.449218-19.511719 8.652344-1.234375 18.273438 2.824219 24.101563 21.894531-7.949219 17.304688-12.046875 36.128906-12.007813 55.171875zm0 0" fill="#59474e"/><path d="m149.980469 46.433594c-.550781-10.796875-5.472657-20.90625-13.628907-28-8.160156-7.09375-18.855468-10.5625-29.625-9.605469-26.570312 0-65.324218 26.128906-91.367187 46.34375-16.242187 11.902344-20.179687 34.507813-8.914063 51.199219l32.574219 48.554687c11.03125 16.417969 38.574219 10.238281 40.074219-9.003906l.621094-7.59375 4.5-59.054687c.828125-10.019532 8.492187-18.128907 18.449218-19.511719 8.652344-1.234375 18.273438 2.824219 24.101563 21.894531" fill="#804537"/><path d="m397.152344 136.828125c.015625 10.347656-1.199219 20.660156-3.617188 30.71875l.792969.175781c6.136719-16.105468 20.746094-27.441406 37.871094-29.394531l-4.503907-59.054687c-.824218-10.019532-8.492187-18.128907-18.449218-19.511719-8.648438-1.234375-18.273438 2.824219-24.097656 21.894531 7.949218 17.304688 12.042968 36.128906 12.003906 55.171875zm0 0" fill="#59474e"/><path d="m361.929688 46.433594c.550781-10.796875 5.472656-20.90625 13.632812-28s18.855469-10.5625 29.625-9.605469c26.570312 0 65.324219 26.128906 91.363281 46.34375 16.242188 11.902344 20.179688 34.507813 8.917969 51.199219l-32.574219 48.554687c-11.035156 16.417969-38.578125 10.238281-40.078125-9.003906l-.617187-7.59375-4.503907-59.054687c-.824218-10.019532-8.492187-18.128907-18.449218-19.511719-8.648438-1.234375-18.273438 2.824219-24.097656 21.894531" fill="#804537"/><path d="m300.136719 356.015625c-3.402344 22.296875-21.660157 39.347656-44.136719 41.226563-22.476562-1.878907-40.734375-18.929688-44.136719-41.226563-.050781-3.515625 1.171875-6.933594 3.441407-9.621094 6.710937-7.855469 22.421874-10.945312 40.695312-10.945312 16.773438 0 31.339844 2.558593 38.839844 9.089843 3.382812 2.851563 5.320312 7.054688 5.296875 11.476563zm0 0" fill="#2c2f38"/><path d="m211.863281 185.378906c0 14.625-11.859375 26.484375-26.484375 26.484375s-26.480468-11.859375-26.480468-26.484375 11.855468-26.480468 26.480468-26.480468 26.484375 11.855468 26.484375 26.480468zm0 0" fill="#2c2f38"/><path d="m211.863281 132.414062c-4.332031.003907-8.027343-3.136718-8.722656-7.414062-.691406-4.277344 1.820313-8.425781 5.933594-9.792969l26.480469-8.824219c4.632812-1.542968 9.636718.960938 11.179687 5.589844 1.542969 4.632813-.960937 9.636719-5.589844 11.179688l-26.484375 8.828125c-.902344.292969-1.847656.441406-2.796875.433593zm0 0" fill="#804537"/><path d="m353.101562 185.378906c0 14.625-11.855468 26.484375-26.480468 26.484375s-26.484375-11.859375-26.484375-26.484375 11.859375-26.480468 26.484375-26.480468 26.480468 11.855468 26.480468 26.480468zm0 0" fill="#2c2f38"/><g fill="#804537"><path d="m300.136719 132.414062c-.945313-.003906-1.890625-.15625-2.789063-.460937l-26.480468-8.824219c-4.632813-1.542968-7.136719-6.550781-5.59375-11.183594 1.542968-4.628906 6.546874-7.132812 11.179687-5.589843l26.484375 8.828125c4.15625 1.335937 6.710938 5.507812 6.011719 9.816406-.699219 4.3125-4.445313 7.460938-8.8125 7.414062zm0 0"/><path d="m264.828125 256h-17.65625c-4.875 0-8.828125-3.953125-8.828125-8.828125s3.953125-8.828125 8.828125-8.828125h17.65625c4.875 0 8.828125 3.953125 8.828125 8.828125s-3.953125 8.828125-8.828125 8.828125zm0 0"/><path d="m282.484375 291.308594h-52.96875c-4.875 0-8.824219-3.949219-8.824219-8.824219s3.949219-8.828125 8.824219-8.828125h52.96875c4.875 0 8.824219 3.953125 8.824219 8.828125s-3.949219 8.824219-8.824219 8.824219zm0 0"/></g><path d="m264.828125 353.105469c0-4.878907-8.035156-8.828125-17.945313-8.828125-9.914062 0-17.949218 3.949218-17.949218 8.828125 0 4.875 8.035156 8.824219 17.949218 8.824219 9.910157 0 17.945313-3.949219 17.945313-8.824219zm0 0" fill="#464f5d"/><path d="m194.207031 180.964844c0 7.3125-5.929687 13.242187-13.242187 13.242187s-13.242188-5.929687-13.242188-13.242187 5.929688-13.242188 13.242188-13.242188 13.242187 5.929688 13.242187 13.242188zm0 0" fill="#fff"/><path d="m335.449219 180.964844c0 7.3125-5.929688 13.242187-13.242188 13.242187s-13.242187-5.929687-13.242187-13.242187 5.929687-13.242188 13.242187-13.242188 13.242188 5.929688 13.242188 13.242188zm0 0" fill="#fff"/></svg>