<svg height="504pt" viewBox="0 0 504 504.32054" width="504pt" xmlns="http://www.w3.org/2000/svg"><path d="m347.804688 376.28125c3.558593 17.703125 6.769531 36.101562 11.628906 53.457031 4.167968 14.492188 12.671875 27.421875 29.074218 27.769531 15.878907.257813 31.585938-.523437 47.46875 1.300782 12.148438 1.300781 24.644532 3.039062 34.796876-5.207032 6.421874-5.835937 11.078124-13.347656 13.449218-21.695312 4.585938-16.921875 7.320313-34.292969 8.160156-51.808594 2.515626-21.691406 4.625-43.445312 6.332032-65.257812 1.214844-15.617188 1.304687-31.5 3.820312-46.945313 2.367188-14.152343.335938-28.691406-5.816406-41.65625-5.984375-12.320312-15.53125-22.996093-18.65625-36.707031s.175781-28.117188-4.511719-41.480469c-4.402343-11.109375-12.328125-20.46875-22.5625-26.640625-26.988281-18.050781-33.929687-53.976562-53.628906-78.277344-8.332031-10.238281-17.964844-18.570312-31.851563-17.269531-11.878906 1.601563-23.050781 6.570313-32.195312 14.320313h-162.96875c-9.144531-7.75-20.316406-12.71875-32.195312-14.320313-13.886719-1.300781-23.519532 7.03125-31.851563 17.269531-19.695313 24.300782-26.640625 60.226563-53.628906 78.277344-10.234375 6.171875-18.160157 15.53125-22.5625 26.640625-4.683594 13.363281-1.386719 27.855469-4.511719 41.480469s-12.667969 24.386719-18.65625 36.707031c-6.152344 12.964844-8.183594 27.503907-5.816406 41.65625 2.515625 15.445313 2.605468 31.328125 3.820312 46.945313 1.734375 21.78125 3.847656 43.535156 6.332032 65.257812.839843 17.515625 3.574218 34.886719 8.160156 51.808594 2.371094 8.347656 7.027344 15.859375 13.449218 21.695312 10.152344 8.246094 22.648438 6.507813 34.800782 5.207032 15.878906-1.824219 31.585937-1.042969 47.464844-1.300782 16.402343-.347656 24.90625-13.277343 29.074218-27.769531 4.859375-17.355469 8.070313-35.753906 11.628906-53.457031zm0 0" fill="#2c2f38"/><path d="m364.640625 347.097656c-4.363281 10.386719-10.019531 20.183594-16.835937 29.15625v.089844c-7.652344 10.273438-17.304688 18.890625-28.375 25.335938-5.007813 3-10.410157 5.277343-16.054688 6.769531-17.675781 5.378906-36.859375 1.921875-51.546875-9.285157-14.695313 11.113282-33.792969 14.589844-51.460937 9.371094-5.660157-1.558594-11.085938-3.863281-16.140626-6.855468-11.070312-6.445313-20.722656-15.0625-28.375-25.335938v-.089844c-6.816406-8.972656-12.472656-18.769531-16.835937-29.15625-9.066406-19.894531-11.292969-42.230468-6.335937-63.523437 4.714843-18.871094 15.03125-35.871094 29.59375-48.769531 8.527343-7.539063 18.265624-13.582032 28.808593-17.878907 43.390625-17.355469 34.710938-34.710937 34.710938-69.421875 0-34.710937-52.066407-34.710937-52.066407-60.746094 0-13.710937 21.609376-32.195312 42.089844-46.601562 18.480469-13.101562 36.011719-22.820312 36.011719-22.820312s17.53125 9.71875 36.015625 22.820312c20.476562 14.40625 42.085938 32.890625 42.085938 46.601562 0 26.035157-52.066407 26.035157-52.066407 60.746094 0 23.863282-4.078125 39.484375 7.460938 52.589844.695312.78125 1.390625 1.472656 2.082031 2.253906 7.40625 6.390625 15.941406 11.335938 25.167969 14.578125 28.976562 11.640625 50.667969 36.394531 58.402343 66.648438 4.957032 21.292969 2.730469 43.628906-6.335937 63.523437zm0 0" fill="#d1d4d1"/><path d="m225.792969 147.503906c0 34.710938 8.679687 52.066406-34.710938 69.421875-10.542969 4.296875-20.28125 10.339844-28.808593 17.878907-14.5625 12.898437-24.878907 29.898437-29.59375 48.769531-20.738282-47.554688-22.734376-112.988281-16.75-170.78125 3.734374-35.929688 27.683593-58.492188 54.414062-72.546875 25.527344-12.566406 53.148438-20.332032 81.484375-22.910156 0 0-78.101563 43.386718-78.101563 69.421874 0 26.035157 52.066407 26.035157 52.066407 60.746094zm0 0" fill="#804537"/><path d="m370.976562 283.574219c-7.734374-30.253907-29.425781-55.007813-58.402343-66.648438-9.226563-3.242187-17.761719-8.1875-25.167969-14.578125-.691406-.78125-1.386719-1.472656-2.082031-2.253906-11.539063-13.105469-7.460938-28.726562-7.460938-52.589844 0-34.710937 52.066407-34.710937 52.066407-60.746094 0-26.035156-78.101563-69.421874-78.101563-69.421874 28.335937 2.578124 55.957031 10.34375 81.484375 22.910156 26.730469 14.054687 50.679688 36.617187 54.414062 72.546875 5.988282 57.792969 3.992188 123.226562-16.75 170.78125zm0 0" fill="#804537"/><path d="m295.21875 279.730469c0 12.757812-19.4375 34.710937-43.390625 34.710937-23.949219 0-43.390625-21.953125-43.390625-34.710937.011719-1.515625.304688-3.019531.867188-4.425781 4.082031-9.371094 21.523437-12.929688 42.523437-12.929688 23.953125 0 43.390625 4.597656 43.390625 17.355469zm0 0" fill="#2c2f38"/><path d="m251.828125 388.238281c-4.792969 0-8.679687-3.882812-8.679687-8.675781v-65.085938c0-4.792968 3.886718-8.679687 8.679687-8.679687s8.679687 3.886719 8.679687 8.679687v65.085938c0 4.792969-3.886718 8.675781-8.679687 8.675781zm0 0" fill="#2c2f38"/><path d="m191.082031 201.628906c0 9.585938-7.769531 17.355469-17.355469 17.355469-9.585937 0-17.355468-7.769531-17.355468-17.355469 0-9.585937 7.769531-17.355468 17.355468-17.355468 9.585938 0 17.355469 7.769531 17.355469 17.355468zm0 0" fill="#2c2f38"/><path d="m347.285156 201.628906c0 9.585938-7.769531 17.355469-17.355468 17.355469-9.585938 0-17.355469-7.769531-17.355469-17.355469 0-9.585937 7.769531-17.355468 17.355469-17.355468 9.585937 0 17.355468 7.769531 17.355468 17.355468zm0 0" fill="#2c2f38"/><g fill="#95a5a5"><path d="m191.082031 318.816406c-1.132812-.015625-2.253906-.25-3.296875-.695312-1.050781-.441406-2.019531-1.058594-2.863281-1.820313-1.585937-1.664062-2.484375-3.867187-2.515625-6.164062.011719-1.132813.246094-2.253907.691406-3.296875.441406-1.050782 1.058594-2.019532 1.824219-2.863282.828125-.785156 1.800781-1.402343 2.863281-1.824218 1.582032-.691406 3.34375-.871094 5.03125-.519532.546875.09375 1.070313.269532 1.5625.519532.554688.191406 1.078125.453125 1.5625.78125.457032.320312.890625.667968 1.300782 1.042968.765624.84375 1.382812 1.8125 1.824218 2.863282.925782 2.101562.925782 4.496094 0 6.59375-.441406 1.050781-1.058594 2.019531-1.824218 2.867187l-1.300782 1.039063c-.484375.328125-1.007812.589844-1.5625.78125-.492187.25-1.015625.425781-1.5625.519531-.570312.101563-1.152344.160156-1.734375.175781zm0 0"/><path d="m165.046875 366.507812c-1.132813-.011718-2.253906-.246093-3.296875-.691406-1.050781-.441406-2.019531-1.058594-2.863281-1.824218-1.585938-1.664063-2.484375-3.863282-2.515625-6.160157.011718-1.132812.25-2.253906.695312-3.296875.4375-1.050781 1.054688-2.019531 1.820313-2.863281.828125-.785156 1.800781-1.40625 2.863281-1.824219 1.585938-.691406 3.34375-.875 5.035156-.519531.542969.09375 1.070313.269531 1.5625.519531.550782.191406 1.078125.453125 1.5625.78125.453125.320313.886719.667969 1.300782 1.042969.765624.84375 1.378906 1.8125 1.820312 2.863281.925781 2.101563.925781 4.492188 0 6.59375-.441406 1.050782-1.054688 2.019532-1.820312 2.863282l-1.300782 1.042968c-.484375.328125-1.011718.589844-1.5625.78125-.492187.246094-1.019531.421875-1.5625.519532-.574218.101562-1.15625.15625-1.738281.171874zm0 0"/><path d="m199.761719 353.527344c-1.136719-.011719-2.253907-.25-3.300781-.695313-1.046876-.441406-2.015626-1.054687-2.863282-1.820312-1.582031-1.664063-2.480468-3.863281-2.515625-6.164063.015625-1.132812.25-2.253906.695313-3.296875.4375-1.050781 1.054687-2.019531 1.820312-2.863281.832032-.785156 1.804688-1.402344 2.863282-1.820312 1.585937-.691407 3.34375-.875 5.035156-.523438.542968.09375 1.070312.269531 1.5625.523438.550781.1875 1.078125.449218 1.5625.78125.453125.320312.886718.667968 1.300781 1.039062.765625.84375 1.382813 1.8125 1.824219 2.863281.925781 2.101563.925781 4.496094 0 6.597657-.445313 1.050781-1.058594 2.015624-1.824219 2.863281l-1.300781 1.039062c-.484375.328125-1.011719.59375-1.5625.78125-.492188.25-1.019532.425781-1.5625.523438-.574219.097656-1.152344.15625-1.734375.171875zm0 0"/><path d="m312.574219 318.816406c1.132812-.015625 2.253906-.25 3.296875-.695312 1.050781-.441406 2.019531-1.058594 2.863281-1.820313 1.585937-1.664062 2.484375-3.867187 2.519531-6.164062-.015625-1.132813-.25-2.253907-.695312-3.296875-.441406-1.050782-1.058594-2.019532-1.824219-2.863282-.828125-.785156-1.800781-1.402343-2.863281-1.824218-1.582032-.691406-3.339844-.871094-5.03125-.519532-.546875.09375-1.070313.269532-1.5625.519532-.554688.191406-1.078125.453125-1.5625.78125-.453125.320312-.890625.667968-1.300782 1.042968-.765624.84375-1.382812 1.8125-1.824218 2.863282-.925782 2.101562-.925782 4.496094 0 6.59375.441406 1.050781 1.058594 2.019531 1.824218 2.867187l1.300782 1.039063c.484375.328125 1.007812.589844 1.5625.78125.492187.25 1.019531.425781 1.5625.519531.570312.101563 1.152344.160156 1.734375.175781zm0 0"/><path d="m338.609375 366.507812c1.132813-.011718 2.253906-.246093 3.296875-.691406 1.050781-.441406 2.019531-1.058594 2.863281-1.824218 1.585938-1.664063 2.484375-3.863282 2.515625-6.160157-.011718-1.132812-.25-2.253906-.695312-3.296875-.4375-1.050781-1.054688-2.019531-1.820313-2.863281-.828125-.785156-1.800781-1.40625-2.863281-1.824219-1.582031-.691406-3.34375-.875-5.035156-.519531-.542969.09375-1.070313.269531-1.5625.519531-.550782.191406-1.078125.453125-1.558594.78125-.457031.320313-.890625.667969-1.304688 1.042969-.761718.84375-1.378906 1.8125-1.820312 2.863281-.925781 2.101563-.925781 4.492188 0 6.59375.441406 1.050782 1.058594 2.019532 1.820312 2.863282l1.304688 1.042968c.480469.328125 1.007812.589844 1.558594.78125.496094.246094 1.019531.421875 1.5625.519532.574218.101562 1.15625.15625 1.738281.171874zm0 0"/><path d="m303.894531 353.527344c1.136719-.011719 2.257813-.25 3.300781-.695313 1.050782-.441406 2.015626-1.054687 2.863282-1.820312 1.582031-1.664063 2.484375-3.863281 2.515625-6.164063-.015625-1.132812-.25-2.253906-.695313-3.296875-.4375-1.050781-1.054687-2.019531-1.820312-2.863281-.832032-.785156-1.800782-1.402344-2.863282-1.820312-1.585937-.691407-3.34375-.875-5.035156-.523438-.542968.09375-1.070312.269531-1.5625.523438-.550781.1875-1.078125.449218-1.5625.78125-.453125.320312-.886718.667968-1.300781 1.039062-.765625.84375-1.378906 1.8125-1.820313 2.863281-.929687 2.101563-.929687 4.496094 0 6.597657.441407 1.050781 1.054688 2.015624 1.820313 2.863281l1.300781 1.039062c.484375.328125 1.011719.59375 1.5625.78125.492188.25 1.019532.425781 1.5625.523438.574219.097656 1.152344.15625 1.734375.171875zm0 0"/></g><path d="m232.839844 399.816406c-11.535156-.910156-22.367188-5.914062-30.535156-14.109375-3.394532-3.386719-3.402344-8.882812-.015626-12.277343 3.386719-3.390626 8.882813-3.398438 12.277344-.011719 5.164063 5.324219 12.128906 8.527343 19.53125 8.980469 4.492188-.796876 8.371094-3.617188 10.511719-7.644532 1.722656-2.578125 4.695313-4.042968 7.792969-3.839844 3.09375.207032 5.847656 2.046876 7.21875 4.832032 1.371094 2.78125 1.152344 6.085937-.574219 8.667968-4.957031 8.445313-13.570313 14.097657-23.289063 15.289063-.972656.058594-1.953124.113281-2.917968.113281zm0 0" fill="#2c2f38"/><path d="m270.816406 399.816406c-.964844 0-1.9375-.042968-2.917968-.148437-9.714844-1.183594-18.324219-6.824219-23.289063-15.253907-2.558594-3.984374-1.449219-9.285156 2.492187-11.910156 3.9375-2.625 9.253907-1.609375 11.945313 2.285156 2.148437 4.042969 6.042969 6.863282 10.554687 7.644532 7.382813-.464844 14.328126-3.664063 19.480469-8.972656 3.40625-3.289063 8.816407-3.242188 12.164063.105468s3.394531 8.761719.105468 12.164063c-8.171874 8.1875-19.003906 13.183593-30.535156 14.085937zm0 0" fill="#2c2f38"/><path d="m270.660156 17.847656 44.515625-16.75c5.339844-1.996094 11.316407-1.242187 15.992188 2.015625 4.679687 3.253907 7.457031 8.601563 7.441406 14.300781v36.621094c.015625 5.695313-2.761719 11.042969-7.441406 14.296875-4.675781 3.257813-10.652344 4.011719-15.992188 2.015625l-44.515625-16.75h-37.664062l-44.515625 16.75c-5.339844 1.996094-11.316407 1.242188-15.992188-2.015625-4.679687-3.253906-7.457031-8.601562-7.441406-14.296875v-36.621094c-.015625-5.699218 2.761719-11.046874 7.441406-14.300781 4.675781-3.257812 10.652344-4.011719 15.992188-2.015625l44.515625 16.75zm0 0" fill="#df4d60"/><path d="m277.863281 35.722656c0 14.378906-11.65625 26.035156-26.035156 26.035156s-26.035156-11.65625-26.035156-26.035156 11.65625-26.035156 26.035156-26.035156 26.035156 11.65625 26.035156 26.035156zm0 0" fill="#fb7b76"/><path d="m173.726562 190.894531c0 4.792969-3.886718 8.675781-8.679687 8.675781-4.789063 0-8.675781-3.882812-8.675781-8.675781s3.886718-8.679687 8.675781-8.679687c4.792969 0 8.679687 3.886718 8.679687 8.679687zm0 0" fill="#ecf0f1"/><path d="m329.929688 190.894531c0 4.792969-3.886719 8.675781-8.675782 8.675781-4.792968 0-8.679687-3.882812-8.679687-8.675781s3.886719-8.679687 8.679687-8.679687c4.789063 0 8.675782 3.886718 8.675782 8.679687zm0 0" fill="#ecf0f1"/><path d="m89.933594 457.992188 37.84375-14.472657c4.574218-1.710937 9.703125-1.046875 13.691406 1.777344s6.316406 7.4375 6.222656 12.324219v31.648437c.09375 4.882813-2.234375 9.5-6.222656 12.320313-3.988281 2.824218-9.117188 3.492187-13.691406 1.78125l-37.84375-14.476563h-32.015625l-37.792969 14.464844c-4.578125 1.730469-9.71875 1.074219-13.71875-1.75-3.996094-2.824219-6.3359375-7.445313-6.238281-12.339844v-31.648437c-.1015628-4.898438 2.238281-9.523438 6.234375-12.351563 4-2.824219 9.144531-3.480469 13.722656-1.75l37.835938 14.472657zm0 0" fill="#df4d60"/><path d="m99.964844 468.589844c0 14.375-11.65625 26.03125-26.035156 26.03125-14.378907 0-26.035157-11.65625-26.035157-26.03125 0-14.378906 11.65625-26.035156 26.035157-26.035156 14.378906 0 26.035156 11.65625 26.035156 26.035156zm0 0" fill="#fb7b76"/><path d="m445.738281 457.992188 37.84375-14.472657c4.574219-1.707031 9.699219-1.042969 13.683594 1.78125 3.988281 2.824219 6.316406 7.4375 6.222656 12.320313v31.648437c.101563 4.894531-2.234375 9.519531-6.234375 12.347657-4 2.824218-9.140625 3.480468-13.722656 1.753906l-37.792969-14.476563h-32.015625l-37.800781 14.464844c-4.578125 1.730469-9.71875 1.074219-13.71875-1.75-3.996094-2.824219-6.335937-7.445313-6.238281-12.339844v-31.648437c-.101563-4.898438 2.234375-9.523438 6.234375-12.351563 4-2.824219 9.140625-3.480469 13.722656-1.75l37.847656 14.472657zm0 0" fill="#df4d60"/><path d="m455.761719 468.589844c0 14.375-11.65625 26.03125-26.035157 26.03125-14.378906 0-26.035156-11.65625-26.035156-26.03125 0-14.378906 11.65625-26.035156 26.035156-26.035156 14.378907 0 26.035157 11.65625 26.035157 26.035156zm0 0" fill="#fb7b76"/><path d="m261.078125 277.671875c0-4.792969-7.898437-8.675781-17.640625-8.675781-9.746094 0-17.644531 3.882812-17.644531 8.675781s7.898437 8.679687 17.644531 8.679687c9.742188 0 17.640625-3.886718 17.640625-8.679687zm0 0" fill="#464f5d"/></svg>