<svg height="512pt" viewBox="0 -18 512.01421 512" width="512pt" xmlns="http://www.w3.org/2000/svg"><path d="m353.640625 360.753906c3.617187 18.007813 6.886719 36.722656 11.828125 54.378906 4.238281 14.742188 12.890625 27.894532 29.574219 28.25 16.152343.261719 32.132812-.53125 48.285156 1.324219 12.359375 1.324219 25.070313 3.089844 35.398437-5.296875 6.53125-5.9375 11.269532-13.582031 13.683594-22.070312 4.664063-17.214844 7.445313-34.886719 8.296875-52.699219 2.5625-22.070313 4.707031-44.199219 6.445313-66.382813 1.234375-15.890624 1.324218-32.046874 3.882812-47.757812 2.410156-14.398438.34375-29.1875-5.914062-42.375-6.089844-12.535156-15.800782-23.390625-18.980469-37.339844-3.175781-13.945312.179687-28.601562-4.589844-42.195312-4.476562-11.300782-12.539062-20.824219-22.949219-27.101563-27.457031-18.359375-34.515624-54.90625-54.554687-79.625-8.476563-10.414062-18.273437-18.890625-32.398437-17.566406-9.632813 1.203125-18.832032 4.703125-26.828126 10.207031-4.289062 2.84375-9.328124 4.359375-14.476562 4.359375h-148.664062c-5.148438 0-10.1875-1.515625-14.476563-4.359375-8-5.503906-17.203125-9.003906-26.835937-10.207031-14.125-1.324219-23.925782 7.152344-32.398438 17.566406-20.039062 24.71875-27.101562 61.265625-54.554688 79.625-10.410156 6.277344-18.472656 15.800781-22.953124 27.101563-4.765626 13.59375-1.410157 28.335937-4.589844 42.195312-3.175782 13.859375-12.886719 24.804688-18.976563 37.339844-6.261719 13.1875-8.324219 27.976562-5.917969 42.375 2.5625 15.710938 2.648438 31.867188 3.886719 47.757812 1.765625 22.15625 3.914063 44.28125 6.441407 66.382813.851562 17.8125 3.636718 35.484375 8.300781 52.699219 2.410156 8.488281 7.152343 16.132812 13.679687 22.070312 10.332032 8.386719 23.042969 6.621094 35.402344 5.296875 16.152344-1.855469 32.128906-1.0625 48.285156-1.324219 16.683594-.355468 25.335938-13.507812 29.574219-28.25 4.941406-17.65625 8.207031-36.371093 11.828125-54.378906zm0 0" fill="#2c2f38"/><path d="m370.765625 332.851562c-4.441406 10.492188-10.195313 20.382813-17.125 29.429688v.089844c-7.796875 10.390625-17.617187 19.097656-28.867187 25.597656-5.097657 3.03125-10.59375 5.328125-16.332032 6.835938-17.972656 5.421874-37.457031 1.929687-52.433594-9.394532-14.984374 11.222656-34.382812 14.730469-52.347656 9.464844-5.753906-1.574219-11.273437-3.902344-16.421875-6.921875-11.246093-6.5-21.066406-15.207031-28.863281-25.601563v-.085937c-6.929688-9.042969-12.683594-18.925781-17.125-29.414063-9.222656-20.058593-11.488281-42.621093-6.445312-64.113281 4.816406-19.078125 15.316406-36.242187 30.101562-49.222656 8.6875-7.617187 18.59375-13.71875 29.308594-18.046875 44.136718-17.511719 35.308594-35.035156 35.308594-70.070312 0-35.039063-52.964844-35.039063-52.964844-61.316407 0-13.84375 21.980468-32.496093 42.8125-47.035156 18.804687-13.230469 36.636718-23.0390625 36.636718-23.0390625s17.832032 9.8085935 36.632813 23.0390625c20.835937 14.539063 42.816406 33.191406 42.816406 47.035156 0 26.277344-52.96875 26.277344-52.96875 61.316407 0 24.089843-4.148437 39.855468 7.59375 53.078124.707031.785157 1.410157 1.492188 2.117188 2.277344 7.542969 6.457032 16.226562 11.445313 25.601562 14.714844 25.125 9.574219 45.121094 29.191406 55.175781 54.128906 10.050782 24.9375 9.25 52.941406-2.210937 77.261719zm0 0" fill="#d1d4d1"/><path d="m229.523438 131.398438c0 35.035156 8.828124 52.550781-35.308594 70.070312-10.714844 4.328125-20.621094 10.429688-29.308594 18.046875-14.785156 12.980469-25.285156 30.144531-30.101562 49.222656-21.097657-48.042969-23.128907-114.046875-17.039063-172.378906 3.796875-36.261719 28.160156-59.039063 55.351563-73.269531 25.996093-12.671875 54.085937-20.492188 82.890624-23.0820315 0 0-79.449218 43.7929685-79.449218 70.0742185 0 26.277344 52.964844 26.277344 52.964844 61.316407zm0 0" fill="#804537"/><path d="m377.210938 268.738281c-7.941407-30.617187-30.011719-55.605469-59.410157-67.269531-9.375-3.269531-18.058593-8.257812-25.601562-14.714844-.707031-.785156-1.410157-1.492187-2.117188-2.277344-11.742187-13.242187-7.59375-28.988281-7.59375-53.078124 0-35.039063 52.96875-35.039063 52.96875-61.316407 0-26.28125-79.449219-70.0742185-79.449219-70.0742185 28.804688 2.6015625 56.898438 10.4414065 82.890626 23.1289065 27.1875 14.183593 51.554687 36.960937 55.347656 73.269531 6.09375 58.285156 4.0625 124.289062-17.035156 172.332031zm0 0" fill="#804537"/><path d="m300.144531 233.9375c0 12.976562-19.773437 35.3125-44.136719 35.3125-24.363281 0-44.136718-22.335938-44.136718-35.3125.007812-1.542969.308594-3.070312.878906-4.5 4.152344-9.535156 21.894531-13.15625 43.257812-13.15625 24.363282 0 44.136719 4.644531 44.136719 17.65625zm0 0" fill="#2c2f38"/><path d="m194.214844 286.902344c-1.15625-.011719-2.292969-.253906-3.355469-.703125-1.070313-.449219-2.054687-1.078125-2.914063-1.855469-1.609374-1.691406-2.527343-3.929688-2.558593-6.269531.011719-1.152344.253906-2.292969.707031-3.351563.445312-1.070312 1.074219-2.054687 1.851562-2.914062.84375-.796875 1.832032-1.429688 2.914063-1.855469 1.609375-.703125 3.398437-.886719 5.121094-.527344.550781.09375 1.085937.273438 1.589843.527344.5625.195313 1.09375.460937 1.585938.796875.464844.324219.90625.679688 1.324219 1.058594.777343.859375 1.40625 1.84375 1.855469 2.914062.941406 2.136719.941406 4.570313 0 6.707032-.449219 1.070312-1.078126 2.054687-1.855469 2.914062l-1.324219 1.058594c-.492188.335937-1.023438.601562-1.585938.796875-.503906.25-1.039062.429687-1.589843.527343-.585938.101563-1.175781.160157-1.765625.175782zm0 0" fill="#95a5a5"/><path d="m317.800781 286.902344c1.152344-.011719 2.292969-.253906 3.355469-.703125 1.066406-.449219 2.050781-1.078125 2.910156-1.855469 1.613282-1.691406 2.527344-3.929688 2.5625-6.269531-.015625-1.152344-.253906-2.292969-.707031-3.351563-.449219-1.070312-1.074219-2.054687-1.855469-2.914062-.84375-.796875-1.832031-1.429688-2.910156-1.855469-1.613281-.703125-3.402344-.886719-5.121094-.527344-.554687.09375-1.089844.273438-1.589844.527344-.5625.195313-1.097656.460937-1.589843.796875-.460938.324219-.902344.679688-1.324219 1.058594-.777344.859375-1.402344 1.84375-1.851562 2.914062-.941407 2.136719-.941407 4.570313 0 6.707032.449218 1.070312 1.074218 2.054687 1.851562 2.914062l1.324219 1.058594c.492187.335937 1.027343.601562 1.589843.796875.5.25 1.035157.429687 1.589844.527343.582032.101563 1.171875.160157 1.765625.175782zm0 0" fill="#95a5a5"/><path d="m167.730469 120.0625c11.148437-22.953125 33.449219-22.953125 44.605469-11.476562 11.160156 11.476562 11.148437 34.429687 0 57.378906-8.296876 15.039062-19.855469 28.027344-33.828126 38.011718-6.332031 4.9375-15.210937 4.9375-21.546874 0-13.976563-9.984374-25.535157-22.972656-33.835938-38.011718-11.148438-22.949219-11.148438-45.902344 0-57.378906 11.148438-11.476563 33.457031-11.476563 44.605469 11.476562zm0 0" fill="#ff5364" fill-rule="evenodd"/><path d="m300.144531 344.28125v91.296875c-.871093 23.523437-20.609375 41.914063-44.136719 41.117187-23.527343.796876-43.265624-17.59375-44.136718-41.117187v-91.296875" fill="#ff5364"/><path d="m256.007812 414.902344c-4.875 0-8.828124-3.949219-8.828124-8.828125v-61.792969c0-4.875 3.953124-8.824219 8.828124-8.824219s8.828126 3.949219 8.828126 8.824219v61.792969c0 4.878906-3.953126 8.828125-8.828126 8.828125zm0 0" fill="#fb7b76"/><g fill="#2c2f38"><path d="m220.695312 70.628906 17.65625-17.65625"/><path d="m220.695312 79.457031c-3.570312-.003906-6.785156-2.152343-8.152343-5.453125-1.367188-3.296875-.609375-7.09375 1.914062-9.617187l17.652344-17.65625c3.464844-3.34375 8.972656-3.296875 12.375.109375 3.40625 3.40625 3.453125 8.910156.109375 12.375l-17.65625 17.652344c-1.65625 1.65625-3.898438 2.585937-6.242188 2.589843zm0 0"/><path d="m291.316406 70.628906-17.652344-17.65625"/><path d="m291.316406 79.457031c-2.339844-.003906-4.585937-.933593-6.238281-2.589843l-17.65625-17.652344c-3.347656-3.464844-3.296875-8.96875.105469-12.375 3.40625-3.40625 8.914062-3.453125 12.375-.109375l17.65625 17.65625c2.523437 2.523437 3.277344 6.320312 1.914062 9.617187-1.367187 3.300782-4.585937 5.449219-8.15625 5.453125zm0 0"/></g><path d="m147.886719 116.574219c-2.195313-4.351563-9.269531-5.210938-15.796875-1.917969-6.53125 3.292969-10.042969 9.492188-7.847656 13.847656 2.195312 4.351563 9.269531 5.210938 15.800781 1.914063 6.527343-3.292969 10.039062-9.492188 7.84375-13.84375zm0 0" fill="#fb7b76"/><path d="m200.851562 116.570312c-2.195312-4.355468-9.269531-5.210937-15.796874-1.917968-6.53125 3.292968-10.042969 9.492187-7.847657 13.84375 2.195313 4.355468 9.269531 5.210937 15.796875 1.917968 6.53125-3.292968 10.042969-9.492187 7.847656-13.84375zm0 0" fill="#fb7b76"/><path d="m344.28125 120.0625c11.152344-22.953125 33.449219-22.953125 44.609375-11.476562 11.15625 11.476562 11.148437 34.429687 0 57.378906-8.296875 15.039062-19.855469 28.027344-33.828125 38.011718-6.335938 4.9375-15.214844 4.9375-21.550781 0-13.972657-9.984374-25.535157-22.972656-33.835938-38.011718-11.148437-22.949219-11.148437-45.902344 0-57.378906 11.152344-11.476563 33.457031-11.476563 44.605469 11.476562zm0 0" fill="#ff5364" fill-rule="evenodd"/><path d="m324.441406 116.570312c-2.195312-4.355468-9.269531-5.210937-15.796875-1.917968-6.53125 3.292968-10.042969 9.492187-7.847656 13.84375 2.195313 4.355468 9.269531 5.214844 15.796875 1.917968 6.53125-3.292968 10.042969-9.492187 7.847656-13.84375zm0 0" fill="#fb7b76"/><path d="m377.40625 116.574219c-2.195312-4.355469-9.269531-5.210938-15.800781-1.917969-6.527344 3.292969-10.039063 9.492188-7.84375 13.847656 2.195312 4.351563 9.269531 5.210938 15.796875 1.914063 6.53125-3.292969 10.042968-9.492188 7.847656-13.84375zm0 0" fill="#fb7b76"/><path d="m256.007812 353.109375c-34.179687 0-62.589843-13.355469-69.085937-32.464844-1.09375-3.007812-.476563-6.371093 1.613281-8.792969 2.089844-2.417968 5.328125-3.519531 8.460938-2.875 3.132812.644532 5.671875 2.933594 6.636718 5.980469 3.425782 10.074219 23.949219 20.5 52.375 20.5 28.425782 0 48.949219-10.425781 52.382813-20.5.964844-3.046875 3.503906-5.335937 6.636719-5.980469 3.132812-.644531 6.371094.457032 8.460937 2.875 2.089844 2.421876 2.707031 5.785157 1.613281 8.792969-6.507812 19.109375-34.914062 32.464844-69.09375 32.464844zm0 0" fill="#2c2f38"/><path d="m256.007812 348.695312c-4.875 0-8.828124-3.949218-8.828124-8.824218v-70.621094c0-4.875 3.953124-8.828125 8.828124-8.828125s8.828126 3.953125 8.828126 8.828125v70.621094c0 4.875-3.953126 8.824218-8.828126 8.824218zm0 0" fill="#2c2f38"/></svg>