<svg height="504pt" viewBox="0 0 504 504.62373" width="504pt" xmlns="http://www.w3.org/2000/svg"><path d="m205.117188 39.761719c15.429687-3.132813 31.117187-4.816407 46.859374-5.03125 15.746094.214843 31.433594 1.898437 46.863282 5.03125 13.785156 2.722656 27.3125 6.613281 40.4375 11.628906 7.917968 2.921875 15.65625 6.3125 23.171875 10.152344 5.53125 2.773437 10.894531 5.871093 16.054687 9.285156l68.382813 102.574219c5.882812 32.480468 7.632812 65.574218 5.207031 98.496094-1.304688 23.34375-4.515625 42.695312-21.261719 60.398437-5.019531 5.253906-10.574219 9.964844-16.574219 14.058594l-97.367187 45.730469c-17.683594 7.34375-37.015625 9.800781-55.972656 7.117187h-17.878907c-18.957031 2.683594-38.289062.226563-55.972656-7.117187l-97.367187-45.730469c-6-4.09375-11.558594-8.804688-16.574219-14.058594-16.75-17.703125-19.960938-37.054687-21.261719-60.398437-2.425781-32.921876-.679687-66.015626 5.207031-98.496094l47.382813-103.960938 60.746094-26.035156zm0 0" fill="#af8066"/><path d="m149.144531 374.296875-59.445312-27.941406c-6-4.09375-11.558594-8.804688-16.574219-14.058594-16.75-17.703125-19.960938-37.054687-21.261719-60.398437-2.425781-32.921876-.675781-66.015626 5.207031-98.496094l47.382813-103.960938 60.746094-26.035156 39.917969-3.644531c4.859374-.953125 9.804687-1.820313 14.753906-2.515625-26.730469 11.628906-132.773438 63.175781-132.773438 148.566406 0 84.507812-13.019531 135.898438 62.046875 188.484375zm0 0" fill="#805333"/><path d="m354.941406 374.296875 59.445313-27.941406c6.003906-4.09375 11.558593-8.804688 16.574219-14.058594 16.75-17.703125 19.960937-37.054687 21.261718-60.398437 2.425782-32.921876.679688-66.015626-5.207031-98.496094l-47.382813-103.960938-60.746093-26.035156-39.917969-3.644531c-4.859375-.953125-9.804688-1.820313-14.753906-2.515625 26.730468 11.628906 132.773437 63.175781 132.773437 148.566406 0 84.507812 13.019531 135.898438-62.046875 188.484375zm0 0" fill="#805333"/><path d="m164.679688 51.390625c-7.917969 2.921875-15.65625 6.3125-23.171876 10.152344-5.53125 2.773437-10.894531 5.871093-16.054687 9.285156-5.792969-12.335937-13.046875-23.929687-21.609375-34.535156l.609375-1.5625s42.609375-8.503907 60.226563 16.660156zm0 0" fill="#59474e"/><path d="m339.269531 51.390625c7.917969 2.921875 15.65625 6.3125 23.171875 10.152344 5.53125 2.773437 10.890625 5.871093 16.054688 9.285156 5.792968-12.335937 13.046875-23.929687 21.605468-34.535156l-.597656-1.5625s-42.617187-8.503907-60.234375 16.660156zm0 0" fill="#59474e"/><path d="m294.707031 278.996094c33.265625-28.082032 91.839844-45.265625 120.296875-1.285156 5.28125 8.234374 8.554688 17.589843 9.5625 27.320312 5.261719 36.589844-4.742187 73.738281-27.667968 102.738281-35.25 41.714844-91.792969 52.789063-144.050782 53.464844h-1.738281c-52.214844-.667969-108.761719-11.742187-144.054687-53.457031-22.917969-29.007813-32.910157-66.15625-27.636719-102.746094 1.003906-9.714844 4.273437-19.054688 9.542969-27.277344 28.464843-43.988281 87.03125-26.796875 120.296874 1.285156zm0 0" fill="#59474e"/><g fill="#2c2f38"><path d="m139.164062 296.351562c-1.132812-.011718-2.253906-.25-3.296874-.691406-1.050782-.441406-2.019532-1.058594-2.863282-1.824218-1.585937-1.664063-2.484375-3.863282-2.515625-6.160157.011719-1.136719.246094-2.253906.691407-3.300781.441406-1.050781 1.058593-2.019531 1.824218-2.863281.828125-.785157 1.800782-1.402344 2.863282-1.820313 1.582031-.691406 3.34375-.875 5.03125-.519531.546874.09375 1.070312.269531 1.5625.519531.554687.1875 1.078124.453125 1.5625.78125.457031.320313.890624.667969 1.300781 1.039063.765625.847656 1.382812 1.816406 1.824219 2.863281.925781 2.101562.925781 4.496094 0 6.597656-.441407 1.050782-1.058594 2.019532-1.824219 2.863282l-1.300781 1.042968c-.484376.328125-1.007813.589844-1.5625.78125-.492188.246094-1.015626.421875-1.5625.519532-.570313.097656-1.152344.15625-1.734376.171874zm0 0"/><path d="m113.128906 313.707031c-1.132812-.011719-2.253906-.25-3.296875-.691406-1.050781-.441406-2.019531-1.058594-2.863281-1.824219-1.585938-1.664062-2.484375-3.863281-2.515625-6.160156.011719-1.132812.25-2.253906.695313-3.296875.4375-1.054687 1.054687-2.019531 1.820312-2.863281.828125-.785156 1.800781-1.40625 2.863281-1.824219 1.585938-.691406 3.34375-.875 5.035157-.519531.542968.09375 1.070312.269531 1.5625.519531.550781.191406 1.078124.453125 1.5625.78125.453124.320313.886718.667969 1.300781 1.042969.765625.84375 1.378906 1.8125 1.820312 2.863281.925781 2.097656.925781 4.492187 0 6.59375-.441406 1.050781-1.058593 2.019531-1.820312 2.863281l-1.300781 1.042969c-.484376.328125-1.011719.589844-1.5625.78125-.492188.246094-1.019532.421875-1.5625.519531-.574219.097656-1.15625.15625-1.738282.171875zm0 0"/><path d="m364.792969 296.351562c1.132812-.011718 2.253906-.25 3.296875-.691406 1.050781-.441406 2.019531-1.058594 2.863281-1.824218 1.585937-1.664063 2.484375-3.863282 2.515625-6.160157-.011719-1.136719-.25-2.253906-.695312-3.300781-.4375-1.050781-1.054688-2.019531-1.820313-2.863281-.828125-.785157-1.800781-1.402344-2.863281-1.820313-1.582032-.691406-3.34375-.875-5.035156-.519531-.542969.09375-1.070313.269531-1.5625.519531-.550782.1875-1.078126.453125-1.558594.78125-.457032.320313-.890625.667969-1.304688 1.039063-.761718.847656-1.378906 1.816406-1.820312 2.863281-.925782 2.101562-.925782 4.496094 0 6.597656.441406 1.050782 1.058594 2.019532 1.820312 2.863282l1.304688 1.042968c.480468.328125 1.007812.589844 1.558594.78125.496093.246094 1.019531.421875 1.5625.519532.574218.097656 1.15625.15625 1.738281.171874zm0 0"/><path d="m390.824219 313.707031c1.136719-.011719 2.253906-.25 3.300781-.691406 1.050781-.441406 2.015625-1.058594 2.863281-1.824219 1.582031-1.664062 2.480469-3.863281 2.515625-6.160156-.015625-1.132812-.25-2.253906-.695312-3.296875-.4375-1.054687-1.054688-2.019531-1.820313-2.863281-.832031-.785156-1.800781-1.40625-2.863281-1.824219-1.585938-.691406-3.34375-.875-5.035156-.519531-.542969.09375-1.070313.269531-1.5625.519531-.550782.191406-1.078125.453125-1.5625.78125-.453125.320313-.886719.667969-1.300782 1.042969-.765624.84375-1.382812 1.8125-1.820312 2.863281-.929688 2.097656-.929688 4.492187 0 6.59375.441406 1.050781 1.054688 2.019531 1.820312 2.863281l1.300782 1.042969c.484375.328125 1.011718.589844 1.5625.78125.492187.246094 1.019531.421875 1.5625.519531.574218.097656 1.152344.15625 1.734375.171875zm0 0"/><path d="m295.367188 280.609375c-3.351563 21.914063-21.296876 38.664063-43.390626 40.5-22.089843-1.835937-40.035156-18.585937-43.386718-40.5 0-14.90625 19.429687-20.246094 43.386718-20.246094 23.960938 0 43.390626 5.339844 43.390626 20.246094zm0 0"/></g><path d="m251.976562 278.996094c0-4.792969-5.828124-8.675782-13.015624-8.675782s-13.015626 3.882813-13.015626 8.675782c0 4.792968 5.828126 8.679687 13.015626 8.679687s13.015624-3.886719 13.015624-8.679687zm0 0" fill="#464f5d"/><path d="m139.164062 296.351562c-1.132812-.011718-2.253906-.25-3.296874-.691406-1.050782-.441406-2.019532-1.058594-2.863282-1.824218-1.585937-1.664063-2.484375-3.863282-2.515625-6.160157.011719-1.136719.246094-2.253906.691407-3.300781.441406-1.050781 1.058593-2.019531 1.824218-2.863281.828125-.785157 1.800782-1.402344 2.863282-1.820313 1.582031-.691406 3.34375-.875 5.03125-.519531.546874.09375 1.070312.269531 1.5625.519531.554687.1875 1.078124.453125 1.5625.78125.457031.320313.890624.667969 1.300781 1.039063.765625.847656 1.382812 1.816406 1.824219 2.863281.925781 2.101562.925781 4.496094 0 6.597656-.441407 1.050782-1.058594 2.019532-1.824219 2.863282l-1.300781 1.042968c-.484376.328125-1.007813.589844-1.5625.78125-.492188.246094-1.015626.421875-1.5625.519532-.570313.097656-1.152344.15625-1.734376.171874zm0 0" fill="#2c2f38"/><path d="m113.128906 313.707031c-1.132812-.011719-2.253906-.25-3.296875-.691406-1.050781-.441406-2.019531-1.058594-2.863281-1.824219-1.585938-1.664062-2.484375-3.863281-2.515625-6.160156.011719-1.132812.25-2.253906.695313-3.296875.4375-1.054687 1.054687-2.019531 1.820312-2.863281.828125-.785156 1.800781-1.40625 2.863281-1.824219 1.585938-.691406 3.34375-.875 5.035157-.519531.542968.09375 1.070312.269531 1.5625.519531.550781.191406 1.078124.453125 1.5625.78125.453124.320313.886718.667969 1.300781 1.042969.765625.84375 1.378906 1.8125 1.820312 2.863281.925781 2.097656.925781 4.492187 0 6.59375-.441406 1.050781-1.058593 2.019531-1.820312 2.863281l-1.300781 1.042969c-.484376.328125-1.011719.589844-1.5625.78125-.492188.246094-1.019532.421875-1.5625.519531-.574219.097656-1.15625.15625-1.738282.171875zm0 0" fill="#2c2f38"/><path d="m364.792969 296.351562c1.132812-.011718 2.253906-.25 3.296875-.691406 1.050781-.441406 2.019531-1.058594 2.863281-1.824218 1.585937-1.664063 2.484375-3.863282 2.515625-6.160157-.011719-1.136719-.25-2.253906-.695312-3.300781-.4375-1.050781-1.054688-2.019531-1.820313-2.863281-.828125-.785157-1.800781-1.402344-2.863281-1.820313-1.582032-.691406-3.34375-.875-5.035156-.519531-.542969.09375-1.070313.269531-1.5625.519531-.550782.1875-1.078126.453125-1.558594.78125-.457032.320313-.890625.667969-1.304688 1.039063-.761718.847656-1.378906 1.816406-1.820312 2.863281-.925782 2.101562-.925782 4.496094 0 6.597656.441406 1.050782 1.058594 2.019532 1.820312 2.863282l1.304688 1.042968c.480468.328125 1.007812.589844 1.558594.78125.496093.246094 1.019531.421875 1.5625.519532.574218.097656 1.15625.15625 1.738281.171874zm0 0" fill="#2c2f38"/><path d="m390.824219 313.707031c1.136719-.011719 2.253906-.25 3.300781-.691406 1.050781-.441406 2.015625-1.058594 2.863281-1.824219 1.582031-1.664062 2.480469-3.863281 2.515625-6.160156-.015625-1.132812-.25-2.253906-.695312-3.296875-.4375-1.054687-1.054688-2.019531-1.820313-2.863281-.832031-.785156-1.800781-1.40625-2.863281-1.824219-1.585938-.691406-3.34375-.875-5.035156-.519531-.542969.09375-1.070313.269531-1.5625.519531-.550782.191406-1.078125.453125-1.5625.78125-.453125.320313-.886719.667969-1.300782 1.042969-.765624.84375-1.382812 1.8125-1.820312 2.863281-.929688 2.097656-.929688 4.492187 0 6.59375.441406 1.050781 1.054688 2.019531 1.820312 2.863281l1.300782 1.042969c.484375.328125 1.011718.589844 1.5625.78125.492187.246094 1.019531.421875 1.5625.519531.574218.097656 1.152344.15625 1.734375.171875zm0 0" fill="#2c2f38"/><path d="m234.621094 383.132812h-8.675782c-9.574218.027344-17.328124 7.78125-17.355468 17.355469v60.746094c0 23.964844 19.425781 43.390625 43.386718 43.390625 23.964844 0 43.390626-19.425781 43.390626-43.390625v-60.746094c-.027344-9.574219-7.78125-17.328125-17.355469-17.355469h-8.675781" fill="#ff5364"/><path d="m251.976562 409.167969c-4.792968 0-8.675781-3.886719-8.675781-8.679688s-3.886719-8.679687-8.679687-8.679687h-8.675782c-28.570312-.207032-66.421874-4.917969-84.941406-26.171875-8.933594-10.410157-12.75-24.265625-10.414062-37.78125.3125-3.152344 2.316406-5.882813 5.226562-7.128907 2.914063-1.242187 6.269532-.804687 8.761719 1.148438s3.722656 5.109375 3.210937 8.234375c-1.632812 8.585937.691407 17.453125 6.328126 24.132813 11.082031 12.773437 36.648437 19.953124 71.894531 20.210937h8.609375c6.40625-.003906 12.589844 2.359375 17.355468 6.640625 4.761719-4.292969 10.949219-6.65625 17.359376-6.640625h8.675781c35.007812-.347656 60.417969-7.539063 71.453125-20.253906 5.617187-6.667969 7.929687-15.515625 6.292968-24.082031-.507812-3.121094.726563-6.269532 3.214844-8.21875 2.488282-1.949219 5.84375-2.390626 8.75-1.152344 2.910156 1.238281 4.914063 3.960937 5.234375 7.109375 2.328125 13.5-1.488281 27.335937-10.414062 37.730469-18.386719 21.171874-56.09375 25.957031-84.480469 26.234374h-8.726562c-4.792969 0-8.679688 3.882813-8.679688 8.675782-.003906 4.789062-3.890625 8.671875-8.679688 8.671875zm0 0" fill="#2c2f38"/><path d="m251.976562 357.097656c-4.792968 0-8.675781-3.882812-8.675781-8.675781v-26.035156c0-4.792969 3.882813-8.679688 8.675781-8.679688 4.792969 0 8.679688 3.886719 8.679688 8.679688v26.035156c0 4.792969-3.886719 8.675781-8.679688 8.675781zm0 0" fill="#2c2f38"/><path d="m177.84375 134.230469c11.792969-24.296875 35.386719-24.296875 47.1875-12.148438 11.804688 12.148438 11.796875 36.445313 0 60.746094-8.773438 15.910156-21.003906 29.65625-35.785156 40.222656-6.703125 5.222657-16.097656 5.222657-22.796875 0-14.785157-10.566406-27.011719-24.3125-35.789063-40.222656-11.792968-24.300781-11.792968-48.597656 0-60.746094 11.792969-12.148437 35.40625-12.132812 47.183594 12.148438zm0 0" fill="#ff5364" fill-rule="evenodd"/><path d="m156.847656 130.546875c-2.320312-4.605469-9.800781-5.511719-16.707031-2.027344s-10.625 10.039063-8.300781 14.644531c2.324218 4.605469 9.804687 5.511719 16.710937 2.027344s10.621094-10.039062 8.296875-14.644531zm0 0" fill="#fb7b76"/><path d="m212.882812 130.542969c-2.324218-4.605469-9.804687-5.511719-16.710937-2.027344s-10.621094 10.039063-8.300781 14.644531c2.324218 4.605469 9.804687 5.511719 16.710937 2.027344s10.625-10.039062 8.300781-14.644531zm0 0" fill="#fb7b76"/><path d="m326.113281 134.230469c11.792969-24.296875 35.390625-24.296875 47.191407-12.148438 11.800781 12.148438 11.792968 36.445313 0 60.746094-8.777344 15.910156-21.003907 29.65625-35.789063 40.222656-6.699219 5.222657-16.09375 5.222657-22.796875 0-14.78125-10.566406-27.011719-24.3125-35.785156-40.222656-11.796875-24.300781-11.796875-48.597656 0-60.746094 11.792968-12.148437 35.378906-12.132812 47.179687 12.148438zm0 0" fill="#ff5364" fill-rule="evenodd"/><path d="m305.125 130.546875c-2.320312-4.605469-9.804688-5.511719-16.710938-2.027344s-10.621093 10.039063-8.296874 14.644531c2.324218 4.605469 9.804687 5.511719 16.710937 2.027344s10.621094-10.039062 8.296875-14.644531zm0 0" fill="#fb7b76"/><path d="m361.160156 130.542969c-2.324218-4.605469-9.804687-5.511719-16.710937-2.027344s-10.621094 10.039063-8.300781 14.644531c2.324218 4.605469 9.804687 5.511719 16.710937 2.027344s10.621094-10.039062 8.300781-14.644531zm0 0" fill="#fb7b76"/><path d="m205.117188 39.761719c-13.785157 2.722656-27.3125 6.613281-40.4375 11.628906-17.617188-25.164063-60.226563-16.660156-60.226563-16.660156l-.609375 1.5625c8.5625 10.605469 15.816406 22.199219 21.609375 34.535156 13.796875 29.59375 20.566406 70.8125-31.152344 92.59375-11.804687 5.28125-24.371093 8.648437-37.230469 9.980469-4.597656.320312-9.21875.203125-13.796874-.347656-11.398438-1.265626-21.988282-6.488282-29.9375-14.75-18.746094-19.875-13.972657-47.382813-5.988282-70.640626 6.277344-19.371093 16.566406-37.199218 30.199219-52.328124 13.777344-14.90625 31.355469-25.773438 50.851563-31.429688 8.136718-2.472656 16.578124-3.789062 25.078124-3.90625 34.5 1.09375 67.277344 15.316406 91.640626 39.761719zm0 0" fill="#cb8252"/><path d="m298.839844 39.761719c13.785156 2.722656 27.3125 6.613281 40.4375 11.628906 17.617187-25.164063 60.226562-16.660156 60.226562-16.660156l.605469 1.5625c-8.558594 10.605469-15.8125 22.199219-21.605469 34.535156-13.800781 29.59375-20.566406 70.8125 31.152344 92.59375 11.800781 5.28125 24.367188 8.648437 37.230469 9.980469 4.597656.320312 9.21875.203125 13.796875-.347656 11.394531-1.265626 21.988281-6.488282 29.9375-14.75 18.746094-19.875 13.972656-47.382813 5.988281-70.640626-6.277344-19.371093-16.566406-37.199218-30.199219-52.328124-13.777344-14.898438-31.359375-25.761719-50.851562-31.414063-8.136719-2.472656-16.578125-3.785156-25.082032-3.90625-34.492187 1.089844-67.269531 15.308594-91.636718 39.746094zm0 0" fill="#cb8252"/></svg>