<svg height="496pt" viewBox="-22 0 496 496.88909" width="496pt" xmlns="http://www.w3.org/2000/svg"><path d="m451.699219 496.460938s-95.457031 8.675781-112.8125-52.066407c0 0 0 34.710938-60.746094 52.066407 2.132813-34.535157-3.378906-69.113282-16.140625-101.273438v-.085938h-17.097656c-4.25-10.328124-10.585938-20.132812-18.832032-20.132812-8.242187 0-14.578124 9.804688-18.828124 20.132812h-17.097657v.085938c-12.765625 32.160156-18.277343 66.738281-16.140625 101.273438-60.746094-17.355469-60.746094-52.066407-60.746094-52.066407-17.355468 60.742188-112.8125 52.066407-112.8125 52.066407 52.066407-17.355469 95.457032-86.78125 69.421876-147.527344-15.570313-35.539063-18.628907-75.308594-8.675782-112.8125-8.679687-17.355469-34.714844-8.675782-34.714844-8.675782 5.988282-20.996093 22.398438-37.40625 43.390626-43.390624-19.359376-8.554688-34.832032-24.027344-43.390626-43.390626-17.355468-34.710937 8.679688-121.492187 8.679688-121.492187s71.417969 7.117187 104.136719 60.3125h173.558593c32.714844-53.195313 104.136719-60.3125 104.136719-60.3125s26.03125 86.78125 8.675781 121.492187c-8.554687 19.363282-24.027343 34.835938-43.390624 43.390626 20.996093 5.984374 37.40625 22.394531 43.390624 43.390624 0 0-26.03125-8.679687-34.710937 8.675782 9.953125 37.503906 6.890625 77.273437-8.679687 112.8125-26.03125 60.746094 17.359374 130.171875 69.425781 147.527344zm0 0" fill="#cbb292"/><path d="m243.601562 51.019531c1.078126-13.453125 4.945313-26.53125 11.359376-38.40625 1.527343-2.921875 1.253906-6.457031-.699219-9.109375s-5.25-3.957031-8.492188-3.363281c-6.507812 1.113281-13.097656 1.675781-19.699219 1.675781-6.601562 0-13.191406-.5625-19.699218-1.675781-3.234375-.585937-6.523438.71875-8.476563 3.367187-1.949219 2.648438-2.222656 6.179688-.703125 9.09375 6.410156 11.878907 10.277344 24.964844 11.351563 38.417969zm0 0" fill="#7f6e5d"/><path d="m244.902344 52.332031 44.519531-16.75c5.335937-1.996093 11.316406-1.242187 15.992187 2.015625 4.675782 3.257813 7.457032 8.601563 7.4375 14.300782v36.621093c.019532 5.695313-2.761718 11.042969-7.4375 14.296875-4.675781 3.257813-10.65625 4.011719-15.992187 2.015625l-44.519531-16.746093h-37.660156l-44.519532 16.746093c-5.339844 1.996094-11.316406 1.242188-15.992187-2.015625-4.675781-3.253906-7.457031-8.601562-7.4375-14.296875v-36.621093c-.019531-5.699219 2.761719-11.042969 7.4375-14.300782 4.675781-3.257812 10.652343-4.011718 15.992187-2.015625l44.519532 16.75zm0 0" fill="#df4d60"/><path d="m174.003906 210.085938c0 14.378906-11.65625 26.035156-26.035156 26.035156-14.375 0-26.03125-11.65625-26.03125-26.035156 0-14.375 11.65625-26.03125 26.03125-26.03125 14.378906 0 26.035156 11.65625 26.035156 26.03125zm0 0" fill="#2c2f38"/><path d="m330.207031 210.085938c0 14.378906-11.65625 26.035156-26.035156 26.035156-14.375 0-26.03125-11.65625-26.03125-26.035156 0-14.375 11.65625-26.03125 26.03125-26.03125 14.378906 0 26.035156 11.65625 26.035156 26.03125zm0 0" fill="#2c2f38"/><path d="m295.496094 340.257812c10.726562 18.332032 13.839844 40.140626 8.675781 60.746094 0 0-26.03125-43.390625-43.386719-43.390625 2.277344 12.363281 2.6875 25.003907 1.214844 37.488281v.085938c-.777344 8.574219-4.242188 16.679688-9.894531 23.171875-1.71875-7.949219-4.128907-15.730469-7.203125-23.257813-4.25-10.328124-10.585938-20.132812-18.832032-20.132812-8.242187 0-14.578124 9.804688-18.828124 20.132812-3.078126 7.527344-5.488282 15.308594-7.203126 23.257813-5.65625-6.492187-9.117187-14.597656-9.894531-23.171875v-.085938c-1.472656-12.484374-1.0625-25.125 1.214844-37.488281-17.355469 0-43.390625 43.390625-43.390625 43.390625-5.160156-20.605468-2.046875-42.414062 8.679688-60.746094-26.035157 0-34.710938 8.675782-34.710938 8.675782 7.367188-58.929688 58.503906-92.851563 73.761719-101.757813 2.671875-1.5625 5.710937-2.382812 8.808593-2.375h43.128907c3.082031-.003906 6.113281.820313 8.773437 2.375 15.289063 8.90625 66.429688 42.828125 73.796875 101.757813 0 0-8.679687-8.675782-34.710937-8.675782zm0 0" fill="#7f6e5d"/><path d="m252.105469 70.207031c0 14.378907-11.65625 26.035157-26.035157 26.035157-14.375 0-26.03125-11.65625-26.03125-26.035157 0-14.378906 11.65625-26.035156 26.03125-26.035156 14.378907 0 26.035157 11.65625 26.035157 26.035156zm0 0" fill="#fb7b76"/><path d="m95.902344 158.019531c-40.527344-16.226562-28.03125-70.292969-26.292969-77.320312l-8.417969-18.136719s17.355469 52.066406 60.746094 60.746094zm0 0" fill="#f5efca"/><path d="m121.9375 131.984375c-.585938 0-1.164062-.054687-1.738281-.171875-47.78125-9.546875-66.496094-64.21875-67.269531-66.507812-.984376-2.945313-.320313-6.191407 1.738281-8.515626 2.058593-2.324218 5.203125-3.371093 8.246093-2.75 3.039063.621094 5.519532 2.816407 6.503907 5.761719.164062.480469 16.390625 47.425781 54.21875 54.992188 4.382812.867187 7.390625 4.921875 6.953125 9.371093-.441406 4.445313-4.183594 7.832032-8.652344 7.820313zm0 0" fill="#7f6e5d"/><path d="m95.902344 166.699219c-1.105469-.003907-2.203125-.214844-3.226563-.625-35.632812-14.269531-39.625-54.535157-31.484375-87.457031.671875-3.085938 2.964844-5.5625 5.988282-6.46875 3.027343-.90625 6.304687-.097657 8.5625 2.113281 2.253906 2.207031 3.132812 5.46875 2.292968 8.511719-2.207031 8.929687-11.550781 54.105468 21.105469 67.183593 3.871094 1.542969 6.097656 5.617188 5.308594 9.710938-.792969 4.089843-4.378907 7.042969-8.546875 7.03125zm0 0" fill="#7f6e5d"/><path d="m356.242188 158.019531c40.523437-16.226562 28.027343-70.292969 26.292968-77.320312l8.417969-18.136719s-17.355469 52.066406-60.746094 60.746094zm0 0" fill="#f5efca"/><g fill="#7f6e5d"><path d="m330.207031 131.984375c-4.457031.007813-8.195312-3.367187-8.640625-7.804687-.449218-4.433594 2.535156-8.488282 6.90625-9.375 38.015625-7.601563 54.054688-54.507813 54.21875-54.984376.980469-2.945312 3.460938-5.144531 6.5-5.765624 3.042969-.625 6.183594.421874 8.246094 2.746093 2.058594 2.320313 2.722656 5.566407 1.742188 8.511719-.773438 2.316406-19.492188 56.953125-67.273438 66.507812-.558594.109376-1.128906.164063-1.699219.164063zm0 0"/><path d="m356.242188 166.699219c-4.167969.007812-7.75-2.945313-8.539063-7.035157-.789063-4.089843 1.441406-8.164062 5.308594-9.707031 32.65625-13.078125 23.308593-58.253906 21.105469-67.183593-.890626-3.058594-.035157-6.363282 2.230468-8.601563 2.265625-2.242187 5.578125-3.058594 8.628906-2.128906 3.046876.925781 5.34375 3.449219 5.976563 6.574219 8.140625 32.921874 4.140625 73.1875-31.492187 87.457031-1.023438.410156-2.117188.621093-3.21875.625zm0 0"/><path d="m191.359375 149.34375c-4.03125.007812-7.535156-2.761719-8.460937-6.683594-.929688-3.921875.96875-7.964844 4.574218-9.761718l17.355469-8.679688c4.285156-2.144531 9.5-.40625 11.644531 3.878906 2.144532 4.289063.410156 9.5-3.878906 11.644532l-17.355469 8.679687c-1.203125.605469-2.53125.917969-3.878906.921875zm0 0"/><path d="m260.785156 149.34375c-1.34375 0-2.667968-.3125-3.871094-.914062l-17.355468-8.675782c-4.289063-2.144531-6.023438-7.359375-3.878906-11.648437 2.144531-4.285157 7.355468-6.023438 11.644531-3.878907l17.355469 8.679688c3.597656 1.804688 5.484374 5.84375 4.554687 9.757812-.925781 3.917969-4.425781 6.679688-8.449219 6.679688zm0 0"/></g><path d="m252.105469 239.011719c-2.289063 12.800781-13.050781 22.367187-26.035157 23.144531-12.980468-.777344-23.742187-10.34375-26.03125-23.144531 0-8.523438 11.652344-11.566407 26.03125-11.566407 14.378907 0 26.035157 3.042969 26.035157 11.566407zm0 0" fill="#2c2f38"/><path d="m147.96875 201.410156c0 4.792969-3.882812 8.675782-8.675781 8.675782s-8.679688-3.882813-8.679688-8.675782c0-4.792968 3.886719-8.679687 8.679688-8.679687s8.675781 3.886719 8.675781 8.679687zm0 0" fill="#ecf0f1"/><path d="m304.171875 201.410156c0 4.792969-3.882813 8.675782-8.675781 8.675782-4.792969 0-8.679688-3.882813-8.679688-8.675782 0-4.792968 3.886719-8.679687 8.679688-8.679687 4.792968 0 8.675781 3.886719 8.675781 8.679687zm0 0" fill="#ecf0f1"/><path d="m226.070312 240.460938c0-4.792969-3.882812-8.679688-8.675781-8.679688s-8.679687 3.886719-8.679687 8.679688c0 4.792968 3.886718 8.675781 8.679687 8.675781s8.675781-3.882813 8.675781-8.675781zm0 0" fill="#2c3e50"/></svg>