<svg height="512pt" viewBox="0 0 512.06623 512" width="512pt" xmlns="http://www.w3.org/2000/svg"><path d="m426.492188 362.492188c35.203124 8.082031 61.808593 36.988281 66.949218 72.742187.226563 1.390625-.222656 2.804687-1.210937 3.808594-.992188 1.003906-2.398438 1.472656-3.792969 1.265625-10.832031-1.667969-33.84375-3.25-47.023438 9.929687 3.175782 6 5.976563 12.191407 8.382813 18.539063 3.335937 14.28125-1.363281 29.242187-12.257813 39.054687-.96875.96875-2.328124 1.4375-3.6875 1.265625-1.359374-.171875-2.5625-.96875-3.253906-2.148437-3.214844-5.1875-6.707031-10.195313-10.460937-15.007813-9.734375-10.90625-23.886719-16.8125-38.488281-16.066406-17.8125 1.296875-26.933594 15.511719-28.328126 31.683594-.046874 1.179687-.570312 2.292968-1.449218 3.085937s-2.039063 1.203125-3.21875 1.132813c-11.40625-.757813-41.417969-4.925782-48.480469-26.226563l-41.871094 25.121094c-1.394531.839844-3.140625.839844-4.535156 0l-41.871094-25.121094c-7.0625 21.300781-37.074219 25.46875-48.480469 26.277344-1.179687.070313-2.339843-.335937-3.21875-1.128906-.878906-.792969-1.402343-1.90625-1.449218-3.089844-1.386719-16.171875-10.515625-30.390625-28.328125-31.679687-14.601563-.746094-28.753907 5.160156-38.488281 16.066406-3.753907 4.808594-7.246094 9.820312-10.460938 15.003906-.691406 1.183594-1.894531 1.976562-3.253906 2.148438-1.359375.175781-2.71875-.292969-3.6875-1.265626-10.914063-9.820312-15.613282-24.808593-12.257813-39.105468 2.414063-6.34375 5.214844-12.535156 8.382813-18.539063-13.179688-13.179687-36.191406-11.597656-47.023438-9.957031-1.394531.207031-2.800781-.261719-3.792968-1.265625-.988282-1.003906-1.4375-2.417969-1.210938-3.808594 5.148438-35.742187 31.753906-64.636719 66.949219-72.714843zm0 0" fill="#59474e"/><path d="m450.238281 326.652344c-.59375 1.953125-1.300781 3.871094-2.117187 5.738281-14.507813 32.019531-45.589844 53.339844-80.683594 55.351563h-.089844c-6.851562 14.5625-16.304687 27.757812-27.894531 38.929687-2.117187 1.941406-4.324219 3.882813-6.621094 5.824219-3.371093 2.828125-6.90625 5.453125-10.59375 7.855468h-.085937c-19.714844 12.621094-42.71875 19.128907-66.121094 18.714844-23.402344.414063-46.402344-6.09375-66.117188-18.714844h-.085937c-3.6875-2.402343-7.222656-5.027343-10.59375-7.855468-2.296875-1.941406-4.503906-3.882813-6.621094-5.824219-11.589843-11.171875-21.042969-24.367187-27.894531-38.929687h-.089844c-67.265625-6.800782-82.800781-61.089844-82.800781-61.089844l1.410156-4.5c19.566407 9.246094 39.921875 16.71875 60.824219 22.332031 7.234375 1.964844 14.964844-.148437 20.191406-5.523437 5.230469-5.375 7.128906-13.164063 4.964844-20.339844-5.296875-20.542969-8.492188-41.574219-9.535156-62.765625 24.542968-45.726563 81.039062-52.789063 81.039062-52.789063l17.566406-202.152344c11.800782-1.175781 23.6875-1.175781 35.488282 0l17.566406 202.152344s56.496094 7.0625 81.035156 52.789063c-1.039062 21.191406-4.234375 42.222656-9.53125 62.765625-2.164062 7.175781-.265625 14.964844 4.960938 20.339844 5.230468 5.375 12.960937 7.488281 20.195312 5.523437 20.902344-5.613281 41.257813-13.085937 60.824219-22.332031zm0 0" fill="#d1d4d1"/><path d="m238.289062.914062-17.566406 202.152344s-56.496094 7.0625-81.039062 52.789063c1.042968 21.191406 4.238281 42.222656 9.535156 62.765625 2.164062 7.175781.265625 14.964844-4.964844 20.339844-5.226562 5.375-12.957031 7.488281-20.191406 5.523437-20.902344-5.613281-41.257812-13.085937-60.824219-22.332031l85.1875-273.039063c.050781-.042969.082031-.109375.085938-.175781 14.214843-25.070312 48.289062-43.785156 89.777343-48.023438zm0 0" fill="#cb8252"/><path d="m448.828125 322.152344c-19.566406 9.246094-39.921875 16.71875-60.824219 22.332031-7.234375 1.964844-14.964844-.148437-20.195312-5.523437-5.226563-5.375-7.125-13.164063-4.960938-20.339844 5.296875-20.542969 8.492188-41.574219 9.53125-62.765625-24.539062-45.726563-81.035156-52.789063-81.035156-52.789063l-17.566406-202.152344c41.488281 4.238282 75.5625 22.953126 89.777344 48.023438l.085937.089844zm0 0" fill="#cb8252"/><path d="m300.171875 282.515625c0 12.976563-19.773437 35.308594-44.140625 35.308594-24.363281 0-44.136719-22.332031-44.136719-35.308594.011719-1.542969.3125-3.070313.882813-4.503906 4.148437-9.53125 21.894531-13.152344 43.253906-13.152344 24.367188 0 44.140625 4.679687 44.140625 17.65625zm0 0" fill="#2c3e50"/><path d="m264.859375 317.824219v61.792969c-.007813 1.382812-.339844 2.746093-.96875 3.972656-2.3125 4.421875-4.9375 8.671875-7.859375 12.714844-15.265625 22.929687-39.074219 38.792968-66.117188 44.046874h-.085937c-3.6875-2.402343-7.222656-5.027343-10.59375-7.855468-2.296875-1.941406-4.503906-3.882813-6.621094-5.824219 1.605469-1.847656 3.910157-2.9375 6.355469-3.003906 40.164062-1.324219 63.382812-37.871094 68.238281-46.34375v-59.5c0-4.875 3.949219-8.824219 8.824219-8.824219 4.878906 0 8.828125 3.949219 8.828125 8.824219zm0 0" fill="#2c3e50"/><path d="m339.453125 426.671875c-2.117187 1.941406-4.324219 3.882813-6.621094 5.824219-3.371093 2.828125-6.90625 5.453125-10.59375 7.855468h-.085937c-27.042969-5.253906-50.851563-21.117187-66.121094-44.046874-2.917969-4.042969-5.542969-8.292969-7.855469-12.714844-1.027343-1.953125-1.25-4.234375-.617187-6.355469.648437-2.382813 2.289062-4.375 4.503906-5.472656 2.078125-1.0625 4.5-1.25 6.722656-.523438 2.222656.730469 4.058594 2.316407 5.105469 4.410157.28125.609374.605469 1.199218.96875 1.765624 4.871094 7.792969 10.488281 15.09375 16.773437 21.800782 13.347657 14.5 31.792969 23.261718 51.464844 24.453125 2.445313.066406 4.75 1.15625 6.355469 3.003906zm0 0" fill="#2c3e50"/><g fill="#2c2f38"><path d="m185.414062 317.824219c-.59375-.019531-1.183593-.078125-1.765624-.175781-.554688-.097657-1.089844-.277344-1.589844-.527344-.5625-.195313-1.097656-.460938-1.589844-.796875-.464844-.324219-.90625-.675781-1.324219-1.058594-1.613281-1.691406-2.527343-3.929687-2.558593-6.265625.011718-1.15625.253906-2.292969.707031-3.355469.445312-1.070312 1.074219-2.054687 1.851562-2.914062l1.324219-1.058594c.492188-.332031 1.027344-.601563 1.589844-.792969.5-.257812 1.035156-.4375 1.589844-.53125 1.160156-.269531 2.367187-.269531 3.53125 0 .550781.09375 1.085937.273438 1.585937.53125.5625.191406 1.097656.457032 1.589844.792969l1.324219 1.058594c.777343.859375 1.40625 1.84375 1.855468 2.914062.449219 1.0625.691406 2.199219.703125 3.355469-.035156 2.335938-.949219 4.574219-2.558593 6.265625-.417969.378906-.863282.734375-1.324219 1.058594-.492188.335937-1.027344.601562-1.589844.796875-.5.25-1.035156.429687-1.585937.527344-.585938.097656-1.175782.15625-1.765626.175781zm0 0"/><path d="m326.652344 317.824219c-.589844-.019531-1.179688-.078125-1.765625-.175781-.550781-.097657-1.085938-.277344-1.585938-.527344-.5625-.195313-1.097656-.460938-1.589843-.796875-.464844-.324219-.90625-.675781-1.324219-1.058594-1.613281-1.691406-2.527344-3.929687-2.558594-6.265625.011719-1.15625.253906-2.292969.703125-3.355469.449219-1.070312 1.074219-2.054687 1.855469-2.914062l1.324219-1.058594c.492187-.332031 1.027343-.601563 1.589843-.792969.5-.257812 1.035157-.4375 1.585938-.53125 1.164062-.269531 2.371093-.269531 3.53125 0 .554687.09375 1.089843.273438 1.589843.53125.5625.191406 1.097657.457032 1.589844.792969l1.324219 1.058594c.777344.859375 1.40625 1.84375 1.851563 2.914062.453124 1.0625.695312 2.199219.707031 3.355469-.035157 2.335938-.949219 4.574219-2.558594 6.265625-.421875.378906-.863281.734375-1.324219 1.058594-.492187.335937-1.027344.601562-1.589844.796875-.5.25-1.035156.429687-1.589843.527344-.582031.097656-1.171875.15625-1.765625.175781zm0 0"/><path d="m211.894531 353.136719c-.589843-.019531-1.179687-.078125-1.765625-.175781-.550781-.097657-1.085937-.277344-1.589844-.53125-.5625-.195313-1.09375-.460938-1.585937-.792969-.464844-.324219-.90625-.679688-1.324219-1.058594-1.613281-1.695313-2.527344-3.933594-2.5625-6.269531.015625-1.152344.253906-2.292969.707032-3.355469.449218-1.070313 1.074218-2.054687 1.855468-2.910156l1.324219-1.0625c.492187-.332031 1.023437-.597657 1.585937-.792969.5-.253906 1.039063-.433594 1.589844-.53125 1.164063-.265625 2.371094-.265625 3.53125 0 .554688.097656 1.089844.277344 1.589844.53125.5625.191406 1.097656.460938 1.589844.792969l1.324218 1.0625c.777344.859375 1.402344 1.84375 1.851563 2.910156.453125 1.0625.691406 2.203125.707031 3.355469-.035156 2.335937-.949218 4.574218-2.558594 6.269531-.421874.378906-.863281.730469-1.324218 1.058594-.492188.332031-1.027344.601562-1.589844.792969-.5.253906-1.035156.433593-1.589844.53125-.582031.097656-1.171875.15625-1.765625.175781zm0 0"/><path d="m300.171875 353.136719c-.59375-.019531-1.183594-.078125-1.765625-.175781-.554688-.097657-1.089844-.277344-1.589844-.53125-.5625-.195313-1.097656-.460938-1.589844-.792969-.460937-.324219-.90625-.679688-1.324218-1.058594-1.609375-1.695313-2.527344-3.933594-2.558594-6.269531.011719-1.152344.253906-2.292969.707031-3.355469.445313-1.070313 1.074219-2.054687 1.851563-2.910156l1.324218-1.0625c.492188-.332031 1.027344-.597657 1.589844-.792969.5-.253906 1.035156-.433594 1.589844-.53125 1.160156-.265625 2.367188-.265625 3.53125 0 .550781.097656 1.085938.277344 1.589844.53125.5625.191406 1.09375.460938 1.585937.792969l1.324219 1.0625c.777344.859375 1.40625 1.84375 1.855469 2.910156.453125 1.0625.691406 2.203125.707031 3.355469-.035156 2.335937-.949219 4.574218-2.5625 6.269531-.417969.378906-.859375.730469-1.324219 1.058594-.492187.332031-1.023437.601562-1.585937.792969-.503906.253906-1.039063.433593-1.589844.53125-.585938.097656-1.175781.15625-1.765625.175781zm0 0"/></g><path d="m256.03125 282.515625c0-4.875-7.902344-8.828125-17.652344-8.828125s-17.65625 3.953125-17.65625 8.828125 7.90625 8.828125 17.65625 8.828125 17.652344-3.953125 17.652344-8.828125zm0 0" fill="#35495e"/><path d="m185.414062 158.929688c0 14.625-11.859374 26.484374-26.484374 26.484374s-26.484376-11.859374-26.484376-26.484374 11.859376-26.484376 26.484376-26.484376 26.484374 11.859376 26.484374 26.484376zm0 0" fill="#d1d4d1"/><path d="m176.585938 158.929688c0 9.75-7.90625 17.65625-17.65625 17.65625s-17.65625-7.90625-17.65625-17.65625 7.90625-17.65625 17.65625-17.65625 17.65625 7.90625 17.65625 17.65625zm0 0" fill="#e4c05c"/><path d="m167.757812 158.929688c0 4.875-3.953124 8.828124-8.828124 8.828124s-8.828126-3.953124-8.828126-8.828124 3.953126-8.828126 8.828126-8.828126 8.828124 3.953126 8.828124 8.828126zm0 0" fill="#2c2f38"/><path d="m158.929688 150.101562c0 4.875-3.953126 8.828126-8.828126 8.828126s-8.828124-3.953126-8.828124-8.828126 3.953124-8.828124 8.828124-8.828124 8.828126 3.953124 8.828126 8.828124zm0 0" fill="#fff"/><path d="m379.621094 158.929688c0 14.625-11.859375 26.484374-26.484375 26.484374s-26.484375-11.859374-26.484375-26.484374 11.859375-26.484376 26.484375-26.484376 26.484375 11.859376 26.484375 26.484376zm0 0" fill="#d1d4d1"/><path d="m370.792969 158.929688c0 9.75-7.90625 17.65625-17.65625 17.65625s-17.65625-7.90625-17.65625-17.65625 7.90625-17.65625 17.65625-17.65625 17.65625 7.90625 17.65625 17.65625zm0 0" fill="#e4c05c"/><path d="m361.964844 158.929688c0 4.875-3.953125 8.828124-8.828125 8.828124s-8.828125-3.953124-8.828125-8.828124 3.953125-8.828126 8.828125-8.828126 8.828125 3.953126 8.828125 8.828126zm0 0" fill="#2c2f38"/><path d="m353.136719 150.101562c0 4.875-3.953125 8.828126-8.828125 8.828126s-8.828125-3.953126-8.828125-8.828126 3.953125-8.828124 8.828125-8.828124 8.828125 3.953124 8.828125 8.828124zm0 0" fill="#fff"/><path d="m124.0625 344.484375c-20.902344-5.613281-41.257812-13.085937-60.824219-22.332031-25.777343-12.449219-48.992187-29.042969-59.761719-50.671875-20.570312-41.402344 54.640626-160.660157 107.429688-236.050781 5.351562-7.660157 15.175781-10.785157 23.96875-7.625 8.796875 3.15625 14.382812 11.816406 13.636719 21.132812-.003907.066406-.035157.132812-.085938.175781v.441407c-6.535156 59.410156-12.976562 141.332031-8.742187 206.300781 1.042968 21.191406 4.238281 42.222656 9.535156 62.765625 2.164062 7.175781.265625 14.964844-4.964844 20.339844-5.226562 5.375-12.957031 7.488281-20.191406 5.523437zm0 0" fill="#804537"/><path d="m317.828125 141.273438h52.964844c4.875 0 8.828125-3.953126 8.828125-8.828126s-3.953125-8.828124-8.828125-8.828124h-52.964844c-4.878906 0-8.828125 3.953124-8.828125 8.828124s3.949219 8.828126 8.828125 8.828126zm0 0" fill="#804537"/><path d="m508.589844 271.480469c-10.769532 21.628906-33.984375 38.222656-59.761719 50.671875-19.566406 9.246094-39.921875 16.71875-60.824219 22.332031-7.234375 1.964844-14.964844-.148437-20.195312-5.523437-5.226563-5.375-7.125-13.164063-4.960938-20.339844 5.296875-20.542969 8.492188-41.574219 9.53125-62.765625 4.238282-64.96875-2.207031-146.890625-8.738281-206.300781v-.527344l-.085937-.089844c-.746094-9.316406 4.839843-17.976562 13.636718-21.132812 8.792969-3.160157 18.617188-.035157 23.96875 7.625 52.789063 75.390624 128 194.648437 107.429688 236.050781zm0 0" fill="#804537"/><path d="m194.238281 141.273438h-52.964843c-4.875 0-8.828126-3.953126-8.828126-8.828126s3.953126-8.828124 8.828126-8.828124h52.964843c4.878907 0 8.828125 3.953124 8.828125 8.828124s-3.949218 8.828126-8.828125 8.828126zm0 0" fill="#804537"/></svg>