<svg height="512pt" viewBox="0 -22 512.00574 512" width="512pt" xmlns="http://www.w3.org/2000/svg"><path d="m450.207031 132.519531-8.828125 229.519531s-8.828125 52.964844-61.792968 52.964844c-10.679688 0-19.597657 7.679688-30.984376 17.214844-2.117187 1.851562-4.414062 3.707031-6.796874 5.558594l-.089844.089844c-.441406.351562-.882813.707031-1.410156 1.148437-1.765626 1.324219-3.53125 2.734375-5.472657 4.148437-11.582031 8.746094-24.652343 15.328126-38.578125 19.421876-1.5.441406-3.089844.882812-4.679687 1.234374-2.117188.53125-4.234375 1.058594-6.355469 1.414063-2.117188.351563-4.058594.792969-6.179688 1.058594-15.277343 2.234375-30.800781 2.234375-46.078124 0-2.121094-.265625-4.148438-.617188-6.179688-1.058594s-4.238281-.882813-6.355469-1.414063c-1.589843-.351562-3.179687-.792968-4.679687-1.234374-13.925782-4.09375-26.992188-10.675782-38.574219-19.421876-2.472656-1.855468-4.769531-3.621093-6.976563-5.386718-2.382812-1.851563-4.679687-3.707032-6.796874-5.558594-11.386719-9.535156-20.304688-17.214844-30.984376-17.214844-52.964843 0-61.792968-52.964844-61.792968-52.964844v-229.519531l111.667968-112.640625c21.992188-13.921875 47.703126-20.820312 73.710938-19.773437 26.007812-1.046875 51.71875 5.851562 73.710938 19.773437zm0 0" fill="#d1d4d1"/><path d="m238.257812.988281-15.097656 242.582031c-1.5 23.820313-16.585937 44.644532-38.75 53.496094l-48.289062 19.332032c.355468-1.410157.707031-2.824219 1.058594-4.324219 8.386718-38.753907 3.621093-78.476563-.175782-117.496094-3.796875-39.015625-4.855468-75.738281 14.125-111.226563 9.09375-17.039062 22.511719-31.074218 31.777344-47.847656 1.855469-2.847656 2.695312-6.234375 2.386719-9.621094-.257813-2.292968-1.320313-4.421874-3.003907-6.003906 16.699219-11.050781 35.988282-17.558594 55.96875-18.890625zm0 0" fill="#cb8252"/><path d="m374.820312 312.074219c.351563 1.5.707032 2.914062 1.058594 4.324219l-48.285156-19.332032c-22.167969-8.851562-37.25-29.675781-38.753906-53.496094l-15.097656-242.582031c19.980468 1.332031 39.269531 7.839844 55.96875 18.890625-1.683594 1.582032-2.746094 3.710938-3 6.003906-.3125 3.386719.527343 6.773438 2.382812 9.621094 9.269531 16.773438 22.6875 30.808594 31.777344 47.847656 18.980468 35.488282 17.832031 72.296876 14.125 111.226563-3.707032 38.929687-8.5625 78.742187-.175782 117.496094zm0 0" fill="#cb8252"/><path d="m172.304688 18.027344c-15.09375 3.125-29.421876 9.21875-42.140626 17.929687-17.070312 10.328125-33.226562 22.097657-48.289062 35.1875-11.691406 10.085938-22.433594 21.230469-32.085938 33.285157-35.242187 44.238281-48.324218 102.65625-49.621093 158.273437-.519531 22.015625-.742188 46.722656 13.902343 64.722656 18.023438 20.136719 43.164063 32.480469 70.117188 34.425781 30.378906 2.253907 47.113281-22.949218 52.96875-49.8125 8.4375-38.753906 3.644531-78.476562-.117188-117.488281-3.761718-39.007812-4.863281-75.722656 14.0625-111.226562 9.085938-17.046875 22.589844-31.054688 31.851563-47.828125 1.808594-2.878906 2.621094-6.277344 2.3125-9.664063-1.140625-7.1875-6.425781-8.792969-12.960937-7.804687zm0 0" fill="#804537"/><path d="m339.695312 18.027344c15.097657 3.125 29.421876 9.21875 42.140626 17.929687 17.074218 10.328125 33.226562 22.097657 48.289062 35.1875 11.695312 10.085938 22.433594 21.230469 32.085938 33.285157 35.242187 44.246093 48.332031 102.65625 49.628906 158.273437.511718 22.015625.734375 46.722656-13.902344 64.722656-18.019531 20.136719-43.164062 32.480469-70.117188 34.425781-30.375 2.253907-47.113281-22.949218-52.964843-49.8125-8.441407-38.753906-3.644531-78.476562.113281-117.488281 3.761719-39.007812 4.863281-75.722656-14.0625-111.226562-9.082031-17.046875-22.589844-31.054688-31.847656-47.828125-1.8125-2.878906-2.625-6.277344-2.3125-9.664063 1.128906-7.1875 6.417968-8.792969 12.949218-7.804687zm0 0" fill="#804537"/><path d="m300.136719 326.726562c0 12.976563-19.773438 35.3125-44.136719 35.3125s-44.136719-22.335937-44.136719-35.3125c.011719-1.542968.308594-3.070312.882813-4.5 4.148437-9.535156 21.890625-13.152343 43.253906-13.152343 24.363281 0 44.136719 4.675781 44.136719 17.652343zm0 0" fill="#2c2f38"/><path d="m194.207031 238.453125c0 14.625-11.855469 26.480469-26.484375 26.480469-14.625 0-26.480468-11.855469-26.480468-26.480469 0-14.628906 11.855468-26.484375 26.480468-26.484375 14.628906 0 26.484375 11.855469 26.484375 26.484375zm0 0" fill="#d1d4d1"/><path d="m370.757812 238.453125c0 14.625-11.855468 26.480469-26.480468 26.480469-14.628906 0-26.484375-11.855469-26.484375-26.480469 0-14.628906 11.855469-26.484375 26.484375-26.484375 14.625 0 26.480468 11.855469 26.480468 26.484375zm0 0" fill="#d1d4d1"/><path d="m176.550781 150.175781c-3.253906-.003906-6.242187-1.796875-7.777343-4.667969-1.535157-2.871093-1.363282-6.351562.441406-9.058593l17.65625-26.484375c2.742187-3.957032 8.148437-4.992188 12.15625-2.320313 4.003906 2.667969 5.132812 8.058594 2.535156 12.113281l-17.65625 26.480469c-1.636719 2.460938-4.398438 3.9375-7.355469 3.9375zm0 0" fill="#2c2f38"/><path d="m335.449219 150.175781c-2.953125.003907-5.714844-1.472656-7.355469-3.929687l-17.652344-26.480469c-1.816406-2.625-2.074218-6.023437-.675781-8.890625 1.394531-2.867188 4.234375-4.757812 7.417969-4.945312s6.222656 1.359374 7.945312 4.046874l17.65625 26.480469c1.800782 2.707031 1.96875 6.1875.433594 9.054688-1.53125 2.867187-4.519531 4.660156-7.769531 4.664062zm0 0" fill="#2c2f38"/><g fill="#95a5a5"><path d="m176.550781 353.210938c-.589843-.019532-1.179687-.078126-1.765625-.175782-.550781-.097656-1.085937-.277344-1.585937-.53125-.5625-.195312-1.097657-.460937-1.589844-.792968-.464844-.324219-.90625-.679688-1.324219-1.058594-1.613281-1.695313-2.527344-3.933594-2.5625-6.269532.015625-1.152343.253906-2.292968.707032-3.355468.449218-1.070313 1.074218-2.054688 1.855468-2.910156l1.324219-1.0625c.492187-.332032 1.027344-.597657 1.589844-.792969.5-.253907 1.035156-.433594 1.585937-.53125 1.164063-.265625 2.371094-.265625 3.53125 0 .554688.097656 1.089844.277343 1.589844.53125.5625.191406 1.097656.460937 1.589844.792969l1.324218 1.0625c.777344.859374 1.402344 1.84375 1.851563 2.910156.453125 1.0625.695313 2.203125.707031 3.355468-.035156 2.335938-.949218 4.574219-2.558594 6.269532-.421874.378906-.863281.730468-1.324218 1.058594-.492188.332031-1.027344.601562-1.589844.792968-.5.253906-1.035156.433594-1.589844.53125-.582031.097656-1.171875.15625-1.765625.175782zm0 0"/><path d="m194.207031 379.691406c-.589843-.019531-1.179687-.078125-1.765625-.175781-.550781-.097656-1.085937-.277344-1.589844-.527344-.5625-.195312-1.09375-.460937-1.585937-.796875-.464844-.324218-.90625-.675781-1.324219-1.058594-1.613281-1.691406-2.527344-3.929687-2.5625-6.265624.015625-1.15625.253906-2.292969.707032-3.355469.449218-1.070313 1.074218-2.054688 1.855468-2.914063l1.324219-1.058594c.492187-.332031 1.023437-.601562 1.585937-.792968.5-.257813 1.035157-.433594 1.589844-.53125 1.164063-.265625 2.371094-.265625 3.53125 0 .554688.097656 1.089844.273437 1.589844.53125.5625.191406 1.097656.457031 1.589844.792968l1.324218 1.058594c.777344.859375 1.402344 1.84375 1.851563 2.914063.453125 1.0625.691406 2.199219.707031 3.355469-.035156 2.335937-.949218 4.574218-2.558594 6.265624-.421874.378907-.863281.734376-1.324218 1.058594-.492188.335938-1.027344.601563-1.589844.796875-.5.25-1.039062.429688-1.589844.527344-.582031.097656-1.171875.15625-1.765625.175781zm0 0"/><path d="m158.898438 379.691406c-.59375-.019531-1.183594-.078125-1.765626-.175781-.554687-.097656-1.089843-.277344-1.589843-.527344-.5625-.195312-1.097657-.460937-1.589844-.796875-.464844-.324218-.90625-.675781-1.324219-1.058594-1.613281-1.691406-2.527344-3.929687-2.558594-6.265624.011719-1.15625.253907-2.292969.707032-3.355469.445312-1.070313 1.074218-2.054688 1.851562-2.914063l1.324219-1.058594c.492187-.332031 1.027344-.601562 1.589844-.792968.5-.257813 1.035156-.433594 1.589843-.53125 1.160157-.265625 2.367188-.265625 3.53125 0 .550782.097656 1.085938.273437 1.585938.53125.5625.191406 1.097656.457031 1.589844.792968l1.324218 1.058594c.777344.859375 1.40625 1.84375 1.855469 2.914063.449219 1.0625.691407 2.199219.703125 3.355469-.035156 2.335937-.949218 4.574218-2.558594 6.265624-.417968.378907-.863281.734376-1.324218 1.058594-.492188.335938-1.027344.601563-1.589844.796875-.5.25-1.035156.429688-1.585938.527344-.585937.097656-1.175781.15625-1.765624.175781zm0 0"/><path d="m335.449219 353.210938c-.59375-.019532-1.183594-.078126-1.765625-.175782-.554688-.097656-1.089844-.277344-1.589844-.53125-.5625-.195312-1.097656-.460937-1.589844-.792968-.460937-.324219-.90625-.679688-1.324218-1.058594-1.609376-1.695313-2.523438-3.933594-2.558594-6.269532.015625-1.152343.253906-2.292968.707031-3.355468.445313-1.070313 1.074219-2.054688 1.851563-2.910156l1.324218-1.0625c.492188-.332032 1.027344-.597657 1.589844-.792969.5-.253907 1.035156-.433594 1.589844-.53125 1.160156-.265625 2.367187-.265625 3.53125 0 .550781.097656 1.089844.277343 1.589844.53125.5625.191406 1.09375.460937 1.585937.792969l1.324219 1.0625c.78125.859374 1.40625 1.84375 1.855468 2.910156.453126 1.0625.691407 2.203125.707032 3.355468-.035156 2.335938-.949219 4.574219-2.5625 6.269532-.417969.378906-.859375.730468-1.324219 1.058594-.492187.332031-1.023437.601562-1.585937.792968-.503907.253906-1.039063.433594-1.589844.53125-.585938.097656-1.175782.15625-1.765625.175782zm0 0"/><path d="m353.105469 379.691406c-.59375-.019531-1.183594-.078125-1.765625-.175781-.554688-.097656-1.089844-.277344-1.589844-.527344-.5625-.195312-1.097656-.460937-1.589844-.796875-.464844-.324218-.90625-.675781-1.324218-1.058594-1.613282-1.691406-2.527344-3.929687-2.558594-6.265624.011718-1.15625.253906-2.292969.703125-3.355469.449219-1.070313 1.078125-2.054688 1.855469-2.914063l1.324218-1.058594c.492188-.332031 1.027344-.601562 1.589844-.792968.5-.257813 1.035156-.433594 1.589844-.53125 1.160156-.265625 2.367187-.265625 3.53125 0 .550781.097656 1.085937.273437 1.585937.53125.5625.191406 1.097657.457031 1.589844.792968l1.324219 1.058594c.777344.859375 1.40625 1.84375 1.855468 2.914063.449219 1.0625.691407 2.199219.703126 3.355469-.035157 2.335937-.949219 4.574218-2.558594 6.265624-.417969.378907-.863282.734376-1.324219 1.058594-.492187.335938-1.027344.601563-1.589844.796875-.5.25-1.035156.429688-1.585937.527344-.585938.097656-1.175782.15625-1.765625.175781zm0 0"/><path d="m317.792969 379.691406c-.589844-.019531-1.179688-.078125-1.765625-.175781-.550782-.097656-1.085938-.277344-1.589844-.527344-.5625-.195312-1.09375-.460937-1.585938-.796875-.464843-.324218-.90625-.675781-1.324218-1.058594-1.613282-1.691406-2.527344-3.929687-2.5625-6.265624.015625-1.15625.253906-2.292969.707031-3.355469.449219-1.070313 1.074219-2.054688 1.855469-2.914063l1.324218-1.058594c.492188-.332031 1.023438-.601562 1.585938-.792968.5-.257813 1.039062-.433594 1.589844-.53125 1.164062-.265625 2.371094-.265625 3.53125 0 .554687.097656 1.089844.273437 1.589844.53125.5625.191406 1.097656.457031 1.589843.792968l1.324219 1.058594c.777344.859375 1.402344 1.84375 1.851562 2.914063.453126 1.0625.691407 2.199219.707032 3.355469-.035156 2.335937-.949219 4.574218-2.558594 6.265624-.421875.378907-.863281.734376-1.324219 1.058594-.492187.335938-1.027343.601563-1.589843.796875-.5.25-1.035157.429688-1.589844.527344-.582032.097656-1.171875.15625-1.765625.175781zm0 0"/></g><path d="m256 326.726562c0-4.875-7.902344-8.828124-17.65625-8.828124-9.75 0-17.652344 3.953124-17.652344 8.828124s7.902344 8.828126 17.652344 8.828126c9.753906 0 17.65625-3.953126 17.65625-8.828126zm0 0" fill="#35495e"/><path d="m341.804688 437.777344-.089844.089844c-.441406.351562-.882813.707031-1.410156 1.148437-1.765626 1.324219-3.53125 2.734375-5.472657 4.148437-11.582031 8.746094-24.652343 15.328126-38.578125 19.421876-1.5.441406-3.089844.882812-4.679687 1.234374-2.117188.53125-4.234375 1.058594-6.355469 1.414063-2.117188.351563-4.058594.792969-6.179688 1.058594-15.277343 2.234375-30.800781 2.234375-46.078124 0-2.121094-.265625-4.148438-.617188-6.179688-1.058594s-4.238281-.882813-6.355469-1.414063c-1.589843-.351562-3.179687-.792968-4.679687-1.234374-13.925782-4.09375-26.992188-10.675782-38.574219-19.421876-2.472656-1.855468-4.769531-3.621093-6.976563-5.386718 6.710938-9.003906 29.308594-31.601563 85.804688-31.601563s79.09375 22.597657 85.804688 31.601563zm0 0" fill="#cb8252"/><path d="m348.601562 432.21875c-2.117187 1.851562-4.414062 3.707031-6.796874 5.558594l-.089844.089844c-.441406.351562-.882813.707031-1.410156 1.148437-1.765626 1.324219-3.53125 2.734375-5.472657 4.148437l-.089843-.089843c-4.941407-6.621094-25.070313-28.070313-78.742188-28.070313s-73.796875 21.449219-78.742188 28.070313l-.085937.089843c-2.472656-1.855468-4.769531-3.621093-6.976563-5.386718-2.382812-1.851563-4.679687-3.707032-6.796874-5.558594 7.503906-10.066406 30.457031-32.398438 83.773437-34.605469v-35.574219c0-4.875 3.953125-8.828124 8.828125-8.828124s8.828125 3.953124 8.828125 8.828124v35.484376c53.40625 2.296874 76.183594 24.628906 83.773437 34.695312zm0 0" fill="#2c2f38"/><path d="m185.378906 238.453125c0 9.75-7.902344 17.652344-17.65625 17.652344-9.75 0-17.652344-7.902344-17.652344-17.652344s7.902344-17.65625 17.652344-17.65625c9.753906 0 17.65625 7.90625 17.65625 17.65625zm0 0" fill="#e4c05c"/><path d="m176.550781 238.453125c0 4.875-3.949219 8.828125-8.828125 8.828125-4.875 0-8.824218-3.953125-8.824218-8.828125s3.949218-8.828125 8.824218-8.828125c4.878906 0 8.828125 3.953125 8.828125 8.828125zm0 0" fill="#2c2f38"/><path d="m167.722656 229.625c0 4.875-3.949218 8.828125-8.824218 8.828125s-8.828126-3.953125-8.828126-8.828125 3.953126-8.828125 8.828126-8.828125 8.824218 3.953125 8.824218 8.828125zm0 0" fill="#fff"/><path d="m370.757812 238.453125c0 14.625-11.855468 26.480469-26.480468 26.480469-14.628906 0-26.484375-11.855469-26.484375-26.480469 0-14.628906 11.855469-26.484375 26.484375-26.484375 14.625 0 26.480468 11.855469 26.480468 26.484375zm0 0" fill="#d1d4d1"/><path d="m361.929688 238.453125c0 9.75-7.902344 17.652344-17.652344 17.652344s-17.65625-7.902344-17.65625-17.652344 7.90625-17.65625 17.65625-17.65625 17.652344 7.90625 17.652344 17.65625zm0 0" fill="#e4c05c"/><path d="m353.105469 238.453125c0 4.875-3.953125 8.828125-8.828125 8.828125s-8.828125-3.953125-8.828125-8.828125 3.953125-8.828125 8.828125-8.828125 8.828125 3.953125 8.828125 8.828125zm0 0" fill="#2c2f38"/><path d="m344.277344 229.625c0 4.875-3.953125 8.828125-8.828125 8.828125s-8.828125-3.953125-8.828125-8.828125 3.953125-8.828125 8.828125-8.828125 8.828125 3.953125 8.828125 8.828125zm0 0" fill="#fff"/></svg>