<svg height="512pt" viewBox="0 -4 512 512" width="512pt" xmlns="http://www.w3.org/2000/svg"><path d="m406.070312 344.277344c35.308594 26.480468 26.480469 70.621094 26.480469 70.621094 44.140625-52.96875 35.3125-88.277344 35.3125-88.277344 17.652344 17.65625 17.652344 61.792968 17.652344 61.792968 15.949219-26.804687 25.042969-57.121093 26.484375-88.277343 0-105.929688-105.929688-123.585938-105.929688-123.585938 26.480469-26.480469 70.621094 0 70.621094 0-17.65625-61.792969-70.621094-52.964843-70.621094-52.964843-8.828124-26.484376 52.964844-44.136719 52.964844-44.136719-31.492187-15.347657-68.898437-11.949219-97.105468 8.828125-17.652344-26.484375 52.96875-70.621094 52.96875-70.621094-79.449219-8.828125-114.761719 44.136719-114.761719 44.136719-4.5-22.242188 2.085937-45.285157 17.65625-61.792969 0 0-52.964844 8.828125-61.792969 52.964844-8.828125-44.136719-61.792969-52.964844-61.792969-52.964844 15.570313 16.507812 22.15625 39.550781 17.65625 61.792969 0 0-35.3125-52.964844-114.761719-44.136719 0 0 70.621094 44.136719 52.96875 70.621094-28.207031-20.777344-65.613281-24.175782-97.105468-8.828125 0 0 61.792968 17.652343 52.964844 44.136719 0 0-52.964844-8.828126-70.621094 52.964843 0 0 44.140625-26.480469 70.621094 0 0 0-105.929688 17.65625-105.929688 123.585938 1.441406 31.15625 10.535156 61.472656 26.484375 88.277343 0 0 0-44.136718 17.652344-61.792968 0 0-8.828125 35.308594 35.3125 88.277344 0 0-8.828125-44.140626 26.480469-70.621094" fill="#af8066"/><path d="m203.035156 220.691406c0 14.625-11.855468 26.480469-26.484375 26.480469-14.625 0-26.480469-11.855469-26.480469-26.480469 0-14.628906 11.855469-26.484375 26.480469-26.484375 14.628907 0 26.484375 11.855469 26.484375 26.484375zm0 0" fill="#fff"/><path d="m361.929688 220.691406c0 14.625-11.855469 26.480469-26.480469 26.480469-14.628907 0-26.484375-11.855469-26.484375-26.480469 0-14.628906 11.855468-26.484375 26.484375-26.484375 14.625 0 26.480469 11.855469 26.480469 26.484375zm0 0" fill="#fff"/><path d="m300.136719 282.484375c14.019531-1.890625 28.246093-1.570313 42.160156.953125 19.265625 2.722656 36.867187 12.390625 49.496094 27.1875 8.492187 11.035156 13.339843 24.441406 13.871093 38.355469.632813 15.765625-5.984374 28.636719-11.113281 43.105469-3.839843 10.117187-5.914062 20.820312-6.136719 31.636718 0 20.839844 9.8125 40.464844 26.484376 52.96875 0 0-61.796876 0-70.621094-44.140625 0 0-44.140625 8.828125-26.484375 52.964844 0 0-35.308594 8.828125-61.792969-35.308594-26.484375 44.136719-61.792969 35.308594-61.792969 35.308594 17.65625-44.136719-26.484375-52.964844-26.484375-52.964844-8.824218 44.140625-70.621094 44.140625-70.621094 44.140625 16.671876-12.503906 26.484376-32.128906 26.484376-52.96875-.222657-10.816406-2.296876-21.519531-6.136719-31.636718-5.136719-14.46875-11.746094-27.367188-11.113281-43.105469.53125-13.914063 5.378906-27.320313 13.871093-38.355469 12.628907-14.796875 30.230469-24.464844 49.496094-27.1875 13.914063-2.523438 28.140625-2.84375 42.160156-.953125zm0 0" fill="#cbb292"/><path d="m300.136719 282.484375c0 12.976563-19.773438 35.308594-44.136719 35.308594s-44.136719-22.332031-44.136719-35.308594c.007813-1.542969.308594-3.070313.882813-4.503906 4.148437-9.535157 21.890625-13.152344 43.253906-13.152344 24.363281 0 44.136719 4.679687 44.136719 17.65625zm0 0" fill="#2c2f38"/><path d="m256 282.484375c0-4.878906-7.90625-8.828125-17.65625-8.828125s-17.652344 3.949219-17.652344 8.828125c0 4.875 7.902344 8.824219 17.652344 8.824219s17.65625-3.949219 17.65625-8.824219zm0 0" fill="#35495e"/><path d="m194.207031 220.691406c0 9.75-7.90625 17.652344-17.65625 17.652344s-17.652343-7.902344-17.652343-17.652344c0-9.753906 7.902343-17.65625 17.652343-17.65625s17.65625 7.902344 17.65625 17.65625zm0 0" fill="#35495e"/><path d="m185.378906 220.691406c0 4.875-3.953125 8.824219-8.828125 8.824219s-8.828125-3.949219-8.828125-8.824219c0-4.878906 3.953125-8.828125 8.828125-8.828125s8.828125 3.949219 8.828125 8.828125zm0 0" fill="#2c2f38"/><path d="m176.550781 211.863281c0 4.875-3.953125 8.828125-8.828125 8.828125s-8.824218-3.953125-8.824218-8.828125 3.949218-8.828125 8.824218-8.828125 8.828125 3.953125 8.828125 8.828125zm0 0" fill="#fff"/><path d="m353.101562 220.691406c0 9.75-7.902343 17.652344-17.652343 17.652344s-17.65625-7.902344-17.65625-17.652344c0-9.753906 7.90625-17.65625 17.65625-17.65625s17.652343 7.902344 17.652343 17.65625zm0 0" fill="#35495e"/><path d="m344.277344 220.691406c0 4.875-3.953125 8.824219-8.828125 8.824219s-8.828125-3.949219-8.828125-8.824219c0-4.878906 3.953125-8.828125 8.828125-8.828125s8.828125 3.949219 8.828125 8.828125zm0 0" fill="#2c2f38"/><path d="m335.449219 211.863281c0 4.875-3.953125 8.828125-8.828125 8.828125s-8.828125-3.953125-8.828125-8.828125 3.953125-8.828125 8.828125-8.828125 8.828125 3.953125 8.828125 8.828125zm0 0" fill="#fff"/><path d="m158.898438 158.898438c-3.570313-.003907-6.789063-2.152344-8.15625-5.453126-1.367188-3.296874-.609376-7.09375 1.914062-9.617187l26.480469-26.484375c3.464843-3.34375 8.972656-3.296875 12.375.109375 3.40625 3.40625 3.453125 8.910156.109375 12.375l-26.484375 26.480469c-1.652344 1.65625-3.898438 2.585937-6.238281 2.589844zm0 0" fill="#59474e"/><path d="m353.101562 158.898438c-2.339843-.003907-4.585937-.933594-6.238281-2.589844l-26.484375-26.480469c-3.34375-3.464844-3.296875-8.96875.109375-12.375 3.402344-3.40625 8.910157-3.453125 12.375-.109375l26.480469 26.484375c2.523438 2.523437 3.28125 6.320313 1.914062 9.617187-1.367187 3.300782-4.585937 5.449219-8.15625 5.453126zm0 0" fill="#59474e"/><path d="m273.65625 361.929688h8.828125c9.738281.03125 17.625 7.917968 17.652344 17.65625v79.449218c0 24.375-19.761719 44.136719-44.136719 44.136719s-44.136719-19.761719-44.136719-44.136719v-79.449218c.027344-9.738282 7.914063-17.625 17.652344-17.65625zm0 0" fill="#ff5364"/><path d="m255.71875 352.582031c-4.875 0-8.828125-3.953125-8.828125-8.828125v-34.648437c0-4.875 3.953125-8.828125 8.828125-8.828125s8.828125 3.953125 8.828125 8.828125v34.648437c0 2.34375-.933594 4.585938-2.585937 6.242188-1.65625 1.65625-3.902344 2.585937-6.242188 2.585937zm0 0" fill="#2c2f38"/><path d="m275.15625 31.417969 45.285156-17.039063c5.429688-2.027344 11.511719-1.261718 16.269532 2.050782 4.753906 3.3125 7.582031 8.75 7.566406 14.546874v37.25c.015625 5.796876-2.8125 11.234376-7.566406 14.546876-4.757813 3.3125-10.839844 4.078124-16.269532 2.050781l-45.285156-17.039063h-38.3125l-45.285156 17.039063c-5.429688 2.027343-11.511719 1.261719-16.269532-2.050781-4.753906-3.3125-7.582031-8.75-7.566406-14.546876v-37.25c-.015625-5.796874 2.8125-11.234374 7.566406-14.546874 4.757813-3.3125 10.839844-4.078126 16.269532-2.050782l45.285156 17.039063zm0 0" fill="#df4d60"/><path d="m282.484375 49.601562c0 14.625-11.859375 26.484376-26.484375 26.484376s-26.484375-11.859376-26.484375-26.484376 11.859375-26.480468 26.484375-26.480468 26.484375 11.855468 26.484375 26.480468zm0 0" fill="#fb7b76"/><path d="m255.71875 469.925781c-4.875 0-8.828125-3.949219-8.828125-8.824219v-100.582031c0-4.875 3.953125-8.828125 8.828125-8.828125s8.828125 3.953125 8.828125 8.828125v100.582031c0 4.875-3.953125 8.824219-8.828125 8.824219zm0 0" fill="#c03a2b"/><g fill="#2c2f38"><path d="m226.867188 376.054688c-5.71875-.007813-11.425782-.546876-17.042969-1.605469-4.71875-1.015625-7.75-5.628907-6.804688-10.363281.945313-4.730469 5.519531-7.828126 10.265625-6.949219 7.261719 1.441406 24.460938 2.648437 31.019532-2.726563 1.851562-1.527344 2.816406-3.878906 2.566406-6.269531v-26.480469c0-4.875 3.953125-8.828125 8.828125-8.828125s8.828125 3.953125 8.828125 8.828125v26.480469c.242187 7.695313-3.089844 15.066406-9.023438 19.96875-8.398437 5.75-18.472656 8.546875-28.636718 7.945313zm0 0"/><path d="m284.539062 376.054688c-10.15625.597656-20.222656-2.199219-28.617187-7.945313-5.929687-4.890625-9.261719-12.25-9.03125-19.933594v-26.480469c0-4.875 3.953125-8.828124 8.828125-8.828124s8.828125 3.953124 8.828125 8.828124v26.480469c-.25 2.394531.71875 4.75 2.574219 6.277344 6.605468 5.421875 23.746094 4.167969 31.003906 2.71875 3.097656-.628906 6.292969.445313 8.382812 2.816406 2.085938 2.371094 2.75 5.675781 1.738282 8.667969-1.015625 2.992188-3.550782 5.214844-6.652344 5.828125-5.625 1.050781-11.332031 1.574219-17.054688 1.570313zm0 0"/></g></svg>