<svg height="512pt" viewBox="0 -4 512.00574 512" width="512pt" xmlns="http://www.w3.org/2000/svg"><path d="m450.207031 158.878906-8.828125 229.515625s-8.828125 52.964844-61.792968 52.964844c-10.679688 0-19.597657 7.679687-30.984376 17.214844-2.117187 1.855469-4.414062 3.707031-6.796874 5.5625l-.089844.085937c-.441406.355469-.882813.707032-1.410156 1.148438-1.765626 1.324218-3.53125 2.738281-5.472657 4.148437-11.582031 8.75-24.652343 15.328125-38.578125 19.421875-1.5.441406-3.089844.882813-4.679687 1.234375-2.117188.53125-4.234375 1.058594-6.355469 1.414063-2.117188.351562-4.058594.792968-6.179688 1.058594-15.277343 2.238281-30.800781 2.238281-46.078124 0-2.121094-.265626-4.148438-.617188-6.179688-1.058594s-4.238281-.882813-6.355469-1.414063c-1.589843-.351562-3.179687-.792969-4.679687-1.234375-13.925782-4.09375-26.992188-10.671875-38.574219-19.421875-2.472656-1.851562-4.769531-3.617187-6.976563-5.382812-2.382812-1.855469-4.679687-3.707031-6.796874-5.5625-11.386719-9.535157-20.304688-17.214844-30.984376-17.214844-52.964843 0-61.792968-52.964844-61.792968-52.964844v-229.515625l111.667968-112.640625c21.992188-13.925781 47.703126-20.824219 73.710938-19.773437 26.007812-1.050782 51.71875 5.847656 73.710938 19.773437zm0 0" fill="#d1d4d1"/><path d="m238.257812 27.347656-15.097656 242.582032c-1.5 23.816406-16.585937 44.640624-38.75 53.492187l-48.289062 19.335937c.355468-1.414062.707031-2.828124 1.058594-4.328124 8.386718-38.753907 3.621093-78.476563-.175782-117.496094-3.796875-39.015625-4.855468-75.738282 14.125-111.226563 9.09375-17.035156 22.511719-31.074219 31.777344-47.84375 1.855469-2.847656 2.695312-6.238281 2.386719-9.621093-.257813-2.296876-1.320313-4.425782-3.003907-6.003907 16.699219-11.050781 35.988282-17.5625 55.96875-18.890625zm0 0" fill="#cb8252"/><path d="m374.820312 338.429688c.351563 1.5.707032 2.914062 1.058594 4.328124l-48.285156-19.335937c-22.167969-8.851563-37.25-29.675781-38.753906-53.492187l-15.097656-242.582032c19.980468 1.328125 39.269531 7.839844 55.96875 18.890625-1.683594 1.578125-2.746094 3.707031-3 6.003907-.3125 3.382812.527343 6.773437 2.382812 9.621093 9.269531 16.769531 22.6875 30.808594 31.777344 47.84375 18.980468 35.488281 17.832031 72.296875 14.125 111.226563-3.707032 38.929687-8.5625 78.742187-.175782 117.496094zm0 0" fill="#cb8252"/><path d="m172.304688 44.382812c-15.09375 3.125-29.421876 9.222657-42.140626 17.929688-17.070312 10.328125-33.226562 22.101562-48.289062 35.1875-11.691406 10.089844-22.433594 21.230469-32.085938 33.289062-35.242187 44.234376-48.324218 102.65625-49.621093 158.269532-.519531 22.015625-.742188 46.722656 13.902343 64.722656 18.023438 20.136719 43.164063 32.480469 70.117188 34.429688 30.378906 2.25 47.113281-22.953126 52.96875-49.816407 8.4375-38.753906 3.644531-78.476562-.117188-117.484375-3.761718-39.011718-4.863281-75.722656 14.0625-111.230468 9.085938-17.042969 22.589844-31.054688 31.851563-47.828126 1.808594-2.878906 2.621094-6.277343 2.3125-9.664062-1.140625-7.1875-6.425781-8.792969-12.960937-7.804688zm0 0" fill="#804537"/><path d="m339.695312 44.382812c15.097657 3.125 29.421876 9.222657 42.140626 17.929688 17.074218 10.328125 33.226562 22.101562 48.289062 35.1875 11.695312 10.089844 22.433594 21.230469 32.085938 33.289062 35.242187 44.242188 48.332031 102.65625 49.628906 158.269532.511718 22.015625.734375 46.722656-13.902344 64.722656-18.019531 20.136719-43.164062 32.480469-70.117188 34.429688-30.375 2.25-47.113281-22.953126-52.964843-49.816407-8.441407-38.753906-3.644531-78.476562.113281-117.484375 3.761719-39.011718 4.863281-75.722656-14.0625-111.230468-9.082031-17.042969-22.589844-31.054688-31.847656-47.828126-1.8125-2.878906-2.625-6.277343-2.3125-9.664062 1.128906-7.1875 6.417968-8.792969 12.949218-7.804688zm0 0" fill="#804537"/><path d="m300.136719 353.085938c0 12.976562-19.773438 35.308593-44.136719 35.308593s-44.136719-22.332031-44.136719-35.308593c.011719-1.542969.308594-3.070313.882813-4.503907 4.148437-9.535156 21.890625-13.152343 43.253906-13.152343 24.363281 0 44.136719 4.679687 44.136719 17.65625zm0 0" fill="#2c2f38"/><path d="m194.207031 264.808594c0 14.625-11.855469 26.484375-26.484375 26.484375-14.625 0-26.480468-11.859375-26.480468-26.484375s11.855468-26.484375 26.480468-26.484375c14.628906 0 26.484375 11.859375 26.484375 26.484375zm0 0" fill="#d1d4d1"/><path d="m370.757812 264.808594c0 14.625-11.855468 26.484375-26.480468 26.484375-14.628906 0-26.484375-11.859375-26.484375-26.484375s11.855469-26.484375 26.484375-26.484375c14.625 0 26.480468 11.859375 26.480468 26.484375zm0 0" fill="#d1d4d1"/><path d="m176.550781 176.53125c-3.253906 0-6.242187-1.792969-7.777343-4.664062-1.535157-2.871094-1.363282-6.355469.441406-9.0625l17.65625-26.480469c2.742187-3.960938 8.148437-4.992188 12.15625-2.324219 4.003906 2.671875 5.132812 8.058594 2.535156 12.113281l-17.65625 26.480469c-1.636719 2.460938-4.398438 3.941406-7.355469 3.9375zm0 0" fill="#2c2f38"/><path d="m335.449219 176.53125c-2.953125.003906-5.714844-1.46875-7.355469-3.925781l-17.652344-26.484375c-1.816406-2.625-2.074218-6.023438-.675781-8.890625 1.394531-2.867188 4.234375-4.757813 7.417969-4.945313s6.222656 1.359375 7.945312 4.046875l17.65625 26.484375c1.800782 2.707032 1.96875 6.183594.433594 9.050782-1.53125 2.867187-4.519531 4.660156-7.769531 4.664062zm0 0" fill="#2c2f38"/><g fill="#95a5a5"><path d="m176.550781 379.566406c-.589843-.019531-1.179687-.078125-1.765625-.175781-.550781-.097656-1.085937-.277344-1.585937-.53125-.5625-.191406-1.097657-.460937-1.589844-.792969-.464844-.324218-.90625-.679687-1.324219-1.058594-1.613281-1.691406-2.527344-3.929687-2.5625-6.269531.015625-1.152343.253906-2.292969.707032-3.351562.449218-1.070313 1.074218-2.054688 1.855468-2.914063l1.324219-1.058594c.492187-.335937 1.027344-.601562 1.589844-.796874.5-.253907 1.035156-.433594 1.585937-.527344 1.164063-.269532 2.371094-.269532 3.53125 0 .554688.09375 1.089844.273437 1.589844.527344.5625.195312 1.097656.460937 1.589844.796874l1.324218 1.058594c.777344.859375 1.402344 1.84375 1.851563 2.914063.453125 1.058593.695313 2.199219.707031 3.351562-.035156 2.339844-.949218 4.574219-2.558594 6.269531-.421874.378907-.863281.734376-1.324218 1.058594-.492188.335938-1.027344.601563-1.589844.792969-.5.253906-1.035156.433594-1.589844.53125-.582031.097656-1.171875.15625-1.765625.175781zm0 0"/><path d="m194.207031 406.050781c-.589843-.019531-1.179687-.082031-1.765625-.175781-.550781-.101562-1.085937-.277344-1.589844-.53125-.5625-.195312-1.09375-.460938-1.585937-.792969-.464844-.324219-.90625-.679687-1.324219-1.0625-1.613281-1.691406-2.527344-3.929687-2.5625-6.265625.015625-1.152344.253906-2.292968.707032-3.355468.449218-1.070313 1.074218-2.054688 1.855468-2.914063l1.324219-1.058594c.492187-.332031 1.023437-.601562 1.585937-.792969.5-.253906 1.035157-.433593 1.589844-.53125 1.164063-.265624 2.371094-.265624 3.53125 0 .554688.097657 1.089844.277344 1.589844.53125.5625.191407 1.097656.460938 1.589844.792969l1.324218 1.058594c.777344.859375 1.402344 1.847656 1.851563 2.914063.453125 1.0625.691406 2.203124.707031 3.355468-.035156 2.335938-.949218 4.574219-2.558594 6.265625-.421874.382813-.863281.734375-1.324218 1.0625-.492188.332031-1.027344.601563-1.589844.792969-.5.253906-1.039062.429688-1.589844.53125-.582031.097656-1.171875.15625-1.765625.175781zm0 0"/><path d="m158.898438 406.050781c-.59375-.019531-1.183594-.082031-1.765626-.175781-.554687-.101562-1.089843-.277344-1.589843-.53125-.5625-.195312-1.097657-.460938-1.589844-.792969-.464844-.324219-.90625-.679687-1.324219-1.0625-1.613281-1.691406-2.527344-3.929687-2.558594-6.265625.011719-1.152344.253907-2.292968.707032-3.355468.445312-1.070313 1.074218-2.054688 1.851562-2.914063l1.324219-1.058594c.492187-.332031 1.027344-.601562 1.589844-.792969.5-.253906 1.035156-.433593 1.589843-.53125 1.160157-.265624 2.367188-.265624 3.53125 0 .550782.097657 1.085938.277344 1.585938.53125.5625.191407 1.097656.460938 1.589844.792969l1.324218 1.058594c.777344.859375 1.40625 1.847656 1.855469 2.914063.449219 1.0625.691407 2.203124.703125 3.355468-.035156 2.335938-.949218 4.574219-2.558594 6.265625-.417968.382813-.863281.734375-1.324218 1.0625-.492188.332031-1.027344.601563-1.589844.792969-.5.253906-1.035156.429688-1.585938.53125-.585937.097656-1.175781.15625-1.765624.175781zm0 0"/><path d="m335.449219 379.566406c-.59375-.019531-1.183594-.078125-1.765625-.175781-.554688-.097656-1.089844-.277344-1.589844-.53125-.5625-.191406-1.097656-.460937-1.589844-.792969-.460937-.324218-.90625-.679687-1.324218-1.058594-1.609376-1.691406-2.523438-3.929687-2.558594-6.269531.015625-1.152343.253906-2.292969.707031-3.351562.445313-1.070313 1.074219-2.054688 1.851563-2.914063l1.324218-1.058594c.492188-.335937 1.027344-.601562 1.589844-.796874.5-.253907 1.035156-.433594 1.589844-.527344 1.160156-.269532 2.367187-.269532 3.53125 0 .550781.09375 1.089844.273437 1.589844.527344.5625.195312 1.09375.460937 1.585937.796874l1.324219 1.058594c.78125.859375 1.40625 1.84375 1.855468 2.914063.453126 1.058593.691407 2.199219.707032 3.351562-.035156 2.339844-.949219 4.574219-2.5625 6.269531-.417969.378907-.859375.734376-1.324219 1.058594-.492187.335938-1.023437.601563-1.585937.792969-.503907.253906-1.039063.433594-1.589844.53125-.585938.097656-1.175782.15625-1.765625.175781zm0 0"/><path d="m353.105469 406.050781c-.59375-.019531-1.183594-.082031-1.765625-.175781-.554688-.101562-1.089844-.277344-1.589844-.53125-.5625-.195312-1.097656-.460938-1.589844-.792969-.464844-.324219-.90625-.679687-1.324218-1.0625-1.613282-1.691406-2.527344-3.929687-2.558594-6.265625.011718-1.152344.253906-2.292968.703125-3.355468.449219-1.070313 1.078125-2.054688 1.855469-2.914063l1.324218-1.058594c.492188-.332031 1.027344-.601562 1.589844-.792969.5-.253906 1.035156-.433593 1.589844-.53125 1.160156-.265624 2.367187-.265624 3.53125 0 .550781.097657 1.085937.277344 1.585937.53125.5625.191407 1.097657.460938 1.589844.792969l1.324219 1.058594c.777344.859375 1.40625 1.847656 1.855468 2.914063.449219 1.0625.691407 2.203124.703126 3.355468-.035157 2.335938-.949219 4.574219-2.558594 6.265625-.417969.382813-.863282.734375-1.324219 1.0625-.492187.332031-1.027344.601563-1.589844.792969-.5.253906-1.035156.429688-1.585937.53125-.585938.097656-1.175782.15625-1.765625.175781zm0 0"/><path d="m317.792969 406.050781c-.589844-.019531-1.179688-.082031-1.765625-.175781-.550782-.101562-1.085938-.277344-1.589844-.53125-.5625-.195312-1.09375-.460938-1.585938-.792969-.464843-.324219-.90625-.679687-1.324218-1.0625-1.613282-1.691406-2.527344-3.929687-2.5625-6.265625.015625-1.152344.253906-2.292968.707031-3.355468.449219-1.070313 1.074219-2.054688 1.855469-2.914063l1.324218-1.058594c.492188-.332031 1.023438-.601562 1.585938-.792969.5-.253906 1.039062-.433593 1.589844-.53125 1.164062-.265624 2.371094-.265624 3.53125 0 .554687.097657 1.089844.277344 1.589844.53125.5625.191407 1.097656.460938 1.589843.792969l1.324219 1.058594c.777344.859375 1.402344 1.847656 1.851562 2.914063.453126 1.0625.691407 2.203124.707032 3.355468-.035156 2.335938-.949219 4.574219-2.558594 6.265625-.421875.382813-.863281.734375-1.324219 1.0625-.492187.332031-1.027343.601563-1.589843.792969-.5.253906-1.035157.429688-1.589844.53125-.582032.097656-1.171875.15625-1.765625.175781zm0 0"/></g><path d="m256 353.085938c0-4.875-7.902344-8.828126-17.65625-8.828126-9.75 0-17.652344 3.953126-17.652344 8.828126s7.902344 8.824218 17.652344 8.824218c9.753906 0 17.65625-3.949218 17.65625-8.824218zm0 0" fill="#35495e"/><path d="m341.804688 464.136719-.089844.085937c-.441406.355469-.882813.707032-1.410156 1.148438-1.765626 1.324218-3.53125 2.738281-5.472657 4.148437-11.582031 8.75-24.652343 15.328125-38.578125 19.421875-1.5.441406-3.089844.882813-4.679687 1.234375-2.117188.53125-4.234375 1.058594-6.355469 1.414063-2.117188.351562-4.058594.792968-6.179688 1.058594-15.277343 2.238281-30.800781 2.238281-46.078124 0-2.121094-.265626-4.148438-.617188-6.179688-1.058594s-4.238281-.882813-6.355469-1.414063c-1.589843-.351562-3.179687-.792969-4.679687-1.234375-13.925782-4.09375-26.992188-10.671875-38.574219-19.421875-2.472656-1.851562-4.769531-3.617187-6.976563-5.382812 6.710938-9.003907 29.308594-31.605469 85.804688-31.605469s79.09375 22.601562 85.804688 31.605469zm0 0" fill="#cb8252"/><path d="m185.378906 264.808594c0 9.75-7.902344 17.65625-17.65625 17.65625-9.75 0-17.652344-7.90625-17.652344-17.65625s7.902344-17.65625 17.652344-17.65625c9.753906 0 17.65625 7.90625 17.65625 17.65625zm0 0" fill="#e4c05c"/><path d="m176.550781 264.808594c0 4.875-3.949219 8.828125-8.828125 8.828125-4.875 0-8.824218-3.953125-8.824218-8.828125s3.949218-8.828125 8.824218-8.828125c4.878906 0 8.828125 3.953125 8.828125 8.828125zm0 0" fill="#2c2f38"/><path d="m167.722656 255.980469c0 4.875-3.949218 8.828125-8.824218 8.828125s-8.828126-3.953125-8.828126-8.828125 3.953126-8.828125 8.828126-8.828125 8.824218 3.953125 8.824218 8.828125zm0 0" fill="#fff"/><path d="m370.757812 264.808594c0 14.625-11.855468 26.484375-26.480468 26.484375-14.628906 0-26.484375-11.859375-26.484375-26.484375s11.855469-26.484375 26.484375-26.484375c14.625 0 26.480468 11.859375 26.480468 26.484375zm0 0" fill="#d1d4d1"/><path d="m361.929688 264.808594c0 9.75-7.902344 17.65625-17.652344 17.65625s-17.65625-7.90625-17.65625-17.65625 7.90625-17.65625 17.65625-17.65625 17.652344 7.90625 17.652344 17.65625zm0 0" fill="#e4c05c"/><path d="m353.105469 264.808594c0 4.875-3.953125 8.828125-8.828125 8.828125s-8.828125-3.953125-8.828125-8.828125 3.953125-8.828125 8.828125-8.828125 8.828125 3.953125 8.828125 8.828125zm0 0" fill="#2c2f38"/><path d="m344.277344 255.980469c0 4.875-3.953125 8.828125-8.828125 8.828125s-8.828125-3.953125-8.828125-8.828125 3.953125-8.828125 8.828125-8.828125 8.828125 3.953125 8.828125 8.828125zm0 0" fill="#fff"/><path d="m211.863281 427.414062v31.601563c.007813 4.734375.75 9.441406 2.207031 13.949219 6.035157 18.027344 22.917969 30.179687 41.929688 30.179687s35.898438-12.152343 41.929688-30.179687c1.457031-4.507813 2.199218-9.214844 2.207031-13.949219v-31.601563" fill="#ff5364"/><path d="m275.15625 18.15625 45.285156-17.035156c5.429688-2.03125 11.511719-1.265625 16.269532 2.046875 4.757812 3.3125 7.585937 8.75 7.566406 14.546875v37.253906c.019531 5.796875-2.808594 11.234375-7.566406 14.546875-4.757813 3.3125-10.839844 4.078125-16.269532 2.046875l-45.285156-17.035156h-38.3125l-45.285156 17.035156c-5.429688 2.03125-11.511719 1.265625-16.269532-2.046875-4.753906-3.3125-7.582031-8.75-7.566406-14.546875v-37.253906c-.015625-5.796875 2.8125-11.234375 7.566406-14.546875 4.757813-3.3125 10.839844-4.078125 16.269532-2.046875l45.285156 17.035156zm0 0" fill="#df4d60"/><path d="m282.484375 36.339844c0 14.628906-11.859375 26.484375-26.484375 26.484375s-26.484375-11.855469-26.484375-26.484375c0-14.625 11.859375-26.480469 26.484375-26.480469s26.484375 11.855469 26.484375 26.480469zm0 0" fill="#fb7b76"/><path d="m256 486.53125c-4.875 0-8.828125-3.953125-8.828125-8.828125v-45.171875c0-4.875 3.953125-8.824219 8.828125-8.824219s8.828125 3.949219 8.828125 8.824219v45.171875c0 4.875-3.953125 8.828125-8.828125 8.828125zm0 0" fill="#c03a2b"/><path d="m321.863281 406.757812c-2.042969-1.085937-4.4375-1.304687-6.640625-.601562-2.203125.699219-4.035156 2.257812-5.074218 4.324219-.078126.125-8.101563 11.476562-45.320313 13.03125v-35.117188c0-4.875-3.953125-8.828125-8.828125-8.828125s-8.828125 3.953125-8.828125 8.828125v35.117188c-36.023437-1.535157-44.703125-12.199219-45.285156-12.984375-2.292969-4.304688-7.640625-5.933594-11.941407-3.640625-4.304687 2.296875-5.933593 7.644531-3.640624 11.945312 1.882812 3.761719 14.082031 22.527344 69.695312 22.527344s67.8125-18.765625 69.695312-22.535156c2.21875-4.394531.515626-9.757813-3.832031-12.066407zm0 0" fill="#2c2f38"/></svg>