<svg height="512pt" viewBox="-25 0 512 512" width="512pt" xmlns="http://www.w3.org/2000/svg"><path d="m420.464844 342.679688c86.59375 13.296874 17.875-133.117188-7.722656-182.792969v-.089844l-21.738282-87.9375s-44.914062-71.859375-161.683594-71.859375c-116.773437 0-161.683593 71.859375-161.683593 71.859375l-17.515625 87.9375v.089844c-25.601563 49.675781-94.316406 196.089843-7.726563 182.792969zm0 0" fill="#cb8252"/><path d="m247.679688 166.03125c3.988281-8.335938 12.023437-14 21.214843-14.957031 31.078125-3.609375 62.070313 7.425781 83.871094 29.867187 6.0625 5.917969 11.542969 12.402344 16.367187 19.367188 5.214844 7.703125 6.066407 17.558594 2.25 26.042968-3.816406 8.484376-11.753906 14.382813-20.980468 15.589844-11.730469 1.609375-23.085938 5.257813-33.558594 10.78125-35.929688 17.964844-44.910156 0-53.894531-8.984375-8.390625-8.300781-40.230469-24.496093-15.269531-77.707031zm0 0" fill="#7f5b53"/><path d="m310.160156 195.359375c0 14.882813-12.0625 26.949219-26.945312 26.949219-14.882813 0-26.949219-12.066406-26.949219-26.949219s12.066406-26.949219 26.949219-26.949219c14.882812 0 26.945312 12.066406 26.945312 26.949219zm0 0" fill="#fff"/><path d="m301.179688 195.359375c0 9.921875-8.042969 17.964844-17.964844 17.964844s-17.964844-8.042969-17.964844-17.964844 8.042969-17.964844 17.964844-17.964844 17.964844 8.042969 17.964844 17.964844zm0 0" fill="#e4c05c"/><path d="m292.195312 195.359375c0 4.960937-4.019531 8.984375-8.980468 8.984375-4.960938 0-8.984375-4.023438-8.984375-8.984375s4.023437-8.980469 8.984375-8.980469c4.960937 0 8.980468 4.019532 8.980468 8.980469zm0 0" fill="#2c2f38"/><path d="m283.214844 186.378906c0 4.957032-4.023438 8.980469-8.984375 8.980469-4.960938 0-8.980469-4.023437-8.980469-8.980469 0-4.960937 4.019531-8.984375 8.980469-8.984375 4.960937 0 8.984375 4.023438 8.984375 8.984375zm0 0" fill="#fff"/><path d="m210.960938 166.03125c-3.992188-8.335938-12.027344-14-21.21875-14.957031-31.078126-3.609375-62.070313 7.425781-83.867188 29.867187-6.066406 5.917969-11.546875 12.402344-16.367188 19.367188-5.214843 7.703125-6.070312 17.558594-2.253906 26.042968 3.816406 8.484376 11.757813 14.382813 20.980469 15.589844 11.730469 1.609375 23.089844 5.257813 33.558594 10.78125 35.929687 17.964844 44.914062 0 53.894531-8.984375 8.390625-8.300781 40.234375-24.496093 15.273438-77.707031zm0 0" fill="#7f5b53"/><path d="m273.082031 444.328125c-4.5 12.976563-22.960937 22.757813-44.992187 22.757813-22.035156 0-40.492188-9.78125-44.984375-22.757813v-.199219c.738281-14.957031.355469-29.949218-1.152344-44.851562 0-21.402344 20.660156-38.738282 46.144531-38.738282s46.132813 17.335938 46.132813 38.75c-1.503907 14.960938-1.886719 30.015626-1.148438 45.039063zm0 0" fill="#cb8252"/><path d="m434.121094 443.195312c-14.285156 55.0625-82.011719 68.265626-131.324219 68.714844-2.964844 0-6.648437.089844-10.601563.089844-20.390624-4.941406-26.496093-37.816406-27.84375-66.019531-.574218-13.929688-.277343-27.878907.898438-41.769531 0-19.84375-16.085938-35.929688-35.929688-35.929688s-35.929687 16.085938-35.929687 35.929688c1.171875 13.828124 1.472656 27.71875.898437 41.589843v.179688c-1.347656 28.203125-7.457031 61.078125-27.847656 66.019531-3.953125 0-7.632812-.089844-10.597656-.089844-49.3125-.449218-117.042969-13.652344-131.324219-68.714844-3.703125-17.820312-2.554687-36.308593 3.324219-53.535156 9.878906-34.222656 22.007812-67.640625 30.808594-102.222656h341.332031c8.804687 34.582031 20.929687 68 30.8125 102.222656 5.878906 17.226563 7.023437 35.714844 3.324219 53.535156zm0 0" fill="#805333"/><path d="m148.476562 80.84375c-21.84375-20.871094-54.949218-24.550781-80.839843-8.984375-21.148438 14.101563-31.9375 39.386719-27.488281 64.414063.667968 7.894531 3.460937 15.464843 8.085937 21.898437 4.847656 5.8125 13.660156 2.890625 19.230469-.25 16.0625-7.523437 26.539062-23.425781 27.117187-41.148437" fill="#fac176"/><path d="m310.160156 80.84375c21.84375-20.871094 54.953125-24.550781 80.84375-8.984375 21.144532 14.101563 31.9375 39.386719 27.484375 64.414063-.664062 7.894531-3.457031 15.464843-8.082031 21.898437-4.851562 5.8125-13.664062 2.890625-19.230469-.25-16.0625-7.523437-26.542969-23.425781-27.121093-41.148437" fill="#fac176"/><path d="m55.859375 170.441406c-5.59375.15625-10.953125-2.242187-14.5625-6.519531-5.761719-7.691406-9.242187-16.851563-10.050781-26.425781-5.039063-28.601563 7.457031-57.453125 31.761718-73.34375 29.378907-17.917969 67.160157-13.664063 91.820313 10.332031 3.410156 3.519531 3.367187 9.121094-.089844 12.589844-3.460937 3.46875-9.0625 3.527343-12.59375.128906-18.878906-18.074219-47.542969-21.214844-69.882812-7.65625-18.117188 12.207031-27.246094 34.015625-23.21875 55.488281.417969 6.230469 2.511719 12.238282 6.0625 17.378906 2.820312.105469 5.601562-.707031 7.921875-2.316406 13.277344-5.878906 22.039062-18.816406 22.574218-33.324218 0-4.960938 4.019532-8.984376 8.980469-8.984376 4.960938 0 8.984375 4.023438 8.984375 8.984376-.421875 21.015624-12.703125 39.980468-31.710937 48.960937-4.839844 2.910156-10.347657 4.53125-15.996094 4.707031zm0 0" fill="#805333"/><path d="m402.769531 170.441406c-5.636719-.175781-11.136719-1.796875-15.96875-4.707031-19.011719-8.972656-31.304687-27.941406-31.726562-48.960937 0-4.960938 4.019531-8.984376 8.980469-8.984376 4.960937 0 8.984374 4.023438 8.984374 8.984376.535157 14.511718 9.304688 27.449218 22.589844 33.324218 2.324219 1.601563 5.101563 2.421875 7.921875 2.335938 3.539063-5.152344 5.632813-11.15625 6.054688-17.390625 4.023437-21.46875-5.105469-43.273438-23.21875-55.476563-22.296875-13.714844-51.058594-10.574218-69.867188 7.636719-3.523437 3.402344-9.125 3.355469-12.589843-.109375-3.464844-3.464844-3.515626-9.070312-.109376-12.59375 24.664063-23.988281 62.441407-28.238281 91.820313-10.328125 24.304687 15.890625 36.800781 44.742187 31.761719 73.339844-.808594 9.574219-4.289063 18.726562-10.042969 26.417969-3.617187 4.28125-8.988281 6.679687-14.589844 6.511718zm0 0" fill="#805333"/><path d="m364.335938 232.644531c13.964843-.4375 26.640624 8.128907 31.4375 21.253907 6.277343 19.859374 5.402343 41.289062-2.46875 60.570312-9.539063 27.8125-33.511719 48.195312-62.5 53.128906-40.367188 5.578125-74.367188-25.214844-83.195313-63.082031h-36.253906c-8.832031 37.867187-42.828125 68.667969-83.195313 63.082031-28.988281-4.933594-52.964844-25.316406-62.5-53.128906-7.875-19.28125-8.75-40.710938-2.472656-60.570312 4.792969-13.109376 17.445312-21.671876 31.394531-21.253907zm0 0" fill="#fdd7ad"/><path d="m274.230469 273.964844c0 13.203125-20.121094 35.929687-44.910157 35.929687-24.792968 0-44.914062-22.726562-44.914062-35.929687.011719-1.570313.316406-3.125.898438-4.582032 4.222656-9.699218 22.277343-13.382812 44.015624-13.382812 24.789063 0 44.910157 4.761719 44.910157 17.964844zm0 0" fill="#2c3e50"/><g fill="#b19046"><path d="m157.460938 323.367188c-.601563-.019532-1.203126-.078126-1.796876-.179688-.5625-.097656-1.109374-.28125-1.617187-.539062-.574219-.195313-1.117187-.46875-1.617187-.808594-.472657-.328125-.921876-.6875-1.347657-1.078125-1.640625-1.71875-2.570312-3.996094-2.605469-6.375.015626-1.175781.257813-2.335938.71875-3.414063.457032-1.089844 1.09375-2.089844 1.886719-2.964844l1.347657-1.078124c.5-.339844 1.042968-.609376 1.617187-.808594.507813-.257813 1.054687-.441406 1.617187-.539063 1.179688-.269531 2.410157-.269531 3.59375 0 .5625.097657 1.105469.28125 1.617188.539063.570312.199218 1.113281.46875 1.613281.808594l1.347657 1.078124c.792968.875 1.429687 1.878907 1.886718 2.964844.460938 1.078125.707032 2.238282.71875 3.414063-.035156 2.378906-.964844 4.652343-2.605468 6.375-.425782.386719-.875.746093-1.347657 1.078125-.5.339844-1.042969.613281-1.613281.808594-.511719.257812-1.054688.441406-1.617188.539062-.59375.101562-1.195312.160156-1.796874.179688zm0 0"/><path d="m139.496094 278.457031c-.601563-.023437-1.203125-.082031-1.796875-.179687-.5625-.101563-1.109375-.28125-1.617188-.539063-.574219-.199219-1.117187-.46875-1.617187-.808593-.472656-.332032-.921875-.691407-1.347656-1.078126-1.640626-1.722656-2.570313-4-2.605469-6.378906.015625-1.171875.257812-2.332031.71875-3.414062.457031-1.085938 1.09375-2.089844 1.886719-2.960938l1.347656-1.078125c.5-.339843 1.042968-.613281 1.617187-.808593.507813-.261719 1.054688-.441407 1.617188-.539063 1.179687-.273437 2.410156-.273437 3.59375 0 .5625.097656 1.105469.277344 1.617187.539063.570313.195312 1.113282.46875 1.613282.808593l1.347656 1.078125c.792968.871094 1.429687 1.875 1.886718 2.960938.460938 1.082031.707032 2.242187.71875 3.414062-.035156 2.378906-.964843 4.65625-2.605468 6.378906-.425782.386719-.875.746094-1.347656 1.078126-.5.339843-1.042969.613281-1.613282.808593-.511718.257813-1.054687.4375-1.617187.539063-.597657.097656-1.195313.160156-1.796875.179687zm0 0"/><path d="m112.546875 314.386719c-.601563-.023438-1.203125-.082031-1.796875-.179688-.5625-.101562-1.105469-.28125-1.617188-.539062-.570312-.199219-1.113281-.46875-1.617187-.808594-.46875-.328125-.921875-.691406-1.34375-1.078125-1.640625-1.722656-2.574219-4-2.605469-6.378906.011719-1.171875.257813-2.332032.71875-3.414063.453125-1.085937 1.09375-2.089843 1.886719-2.960937l1.34375-1.078125c.503906-.339844 1.046875-.613281 1.617187-.808594.511719-.261719 1.054688-.441406 1.617188-.539063 1.183594-.273437 2.410156-.273437 3.59375 0 .5625.097657 1.109375.277344 1.617188.539063.574218.195313 1.117187.46875 1.617187.808594l1.347656 1.078125c.792969.871094 1.429688 1.875 1.886719 2.960937.460938 1.082031.703125 2.242188.71875 3.414063-.035156 2.378906-.96875 4.65625-2.605469 6.378906-.425781.386719-.878906.746094-1.347656 1.078125-.5.339844-1.042969.613281-1.617187.808594-.511719.257812-1.054688.4375-1.617188.539062-.59375.097657-1.195312.160157-1.796875.179688zm0 0"/><path d="m301.179688 323.367188c.601562-.019532 1.203124-.078126 1.796874-.179688.5625-.097656 1.105469-.28125 1.617188-.539062.570312-.195313 1.113281-.46875 1.617188-.808594.46875-.328125.921874-.6875 1.347656-1.078125 1.640625-1.71875 2.570312-3.996094 2.601562-6.375-.011718-1.175781-.257812-2.335938-.71875-3.414063-.453125-1.089844-1.089844-2.089844-1.882812-2.964844l-1.347656-1.078124c-.503907-.339844-1.046876-.609376-1.617188-.808594-.511719-.257813-1.054688-.441406-1.617188-.539063-1.183593-.269531-2.410156-.269531-3.59375 0-.5625.097657-1.109374.28125-1.617187.539063-.570313.199218-1.117187.46875-1.617187.808594l-1.347657 1.078124c-.789062.875-1.429687 1.878907-1.886719 2.964844-.460937 1.078125-.703124 2.238282-.71875 3.414063.039063 2.378906.96875 4.652343 2.605469 6.375.429688.386719.878907.746093 1.347657 1.078125.5.339844 1.046874.613281 1.617187.808594.511719.257812 1.054687.441406 1.617187.539062.59375.101562 1.195313.160156 1.796876.179688zm0 0"/><path d="m319.144531 278.457031c.601563-.023437 1.203125-.082031 1.796875-.179687.5625-.101563 1.105469-.28125 1.617188-.539063.570312-.199219 1.113281-.46875 1.617187-.808593.46875-.332032.921875-.691407 1.347657-1.078126 1.640624-1.722656 2.570312-4 2.601562-6.378906-.011719-1.171875-.257812-2.332031-.71875-3.414062-.453125-1.085938-1.089844-2.089844-1.882812-2.960938l-1.347657-1.078125c-.503906-.339843-1.046875-.613281-1.617187-.808593-.511719-.261719-1.054688-.441407-1.617188-.539063-1.183594-.273437-2.410156-.273437-3.59375 0-.5625.097656-1.109375.277344-1.617187.539063-.570313.195312-1.117188.46875-1.617188.808593l-1.347656 1.078125c-.789063.871094-1.429687 1.875-1.886719 2.960938-.457031 1.082031-.703125 2.242187-.71875 3.414062.039063 2.378906.96875 4.65625 2.605469 6.378906.429687.386719.878906.746094 1.347656 1.078126.5.339843 1.046875.613281 1.617188.808593.511719.257813 1.054687.4375 1.617187.539063.59375.097656 1.195313.160156 1.796875.179687zm0 0"/><path d="m346.089844 314.386719c.605468-.023438 1.203125-.082031 1.796875-.179688.5625-.101562 1.109375-.28125 1.617187-.539062.574219-.199219 1.117188-.46875 1.617188-.808594.472656-.328125.921875-.691406 1.347656-1.078125 1.640625-1.722656 2.570312-4 2.605469-6.378906-.015625-1.171875-.257813-2.332032-.71875-3.414063-.457031-1.085937-1.09375-2.089843-1.886719-2.960937l-1.347656-1.078125c-.5-.339844-1.042969-.613281-1.617188-.808594-.507812-.261719-1.054687-.441406-1.617187-.539063-1.179688-.273437-2.410157-.273437-3.589844 0-.566406.097657-1.109375.277344-1.617187.539063-.574219.195313-1.117188.46875-1.617188.808594l-1.347656 1.078125c-.792969.871094-1.429688 1.875-1.886719 2.960937-.460937 1.082031-.703125 2.242188-.71875 3.414063.035156 2.378906.964844 4.65625 2.605469 6.378906.425781.386719.875.746094 1.347656 1.078125.5.339844 1.042969.613281 1.617188.808594.507812.257812 1.054687.4375 1.617187.539062.59375.097657 1.191406.160157 1.792969.179688zm0 0"/></g><path d="m202.371094 195.359375c0 14.882813-12.0625 26.949219-26.945313 26.949219-14.882812 0-26.949219-12.066406-26.949219-26.949219s12.066407-26.949219 26.949219-26.949219c14.882813 0 26.945313 12.066406 26.945313 26.949219zm0 0" fill="#fff"/><path d="m193.390625 195.359375c0 9.921875-8.042969 17.964844-17.964844 17.964844s-17.964843-8.042969-17.964843-17.964844 8.042968-17.964844 17.964843-17.964844 17.964844 8.042969 17.964844 17.964844zm0 0" fill="#e4c05c"/><path d="m184.40625 195.359375c0 4.960937-4.019531 8.984375-8.980469 8.984375-4.960937 0-8.984375-4.023438-8.984375-8.984375s4.023438-8.980469 8.984375-8.980469c4.960938 0 8.980469 4.019532 8.980469 8.980469zm0 0" fill="#2c2f38"/><path d="m175.425781 186.378906c0 4.957032-4.023437 8.980469-8.984375 8.980469-4.960937 0-8.980468-4.023437-8.980468-8.980469 0-4.960937 4.019531-8.984375 8.980468-8.984375 4.960938 0 8.984375 4.023438 8.984375 8.984375zm0 0" fill="#fff"/></svg>