<svg height="512pt" viewBox="0 0 512.01667 512" width="512pt" xmlns="http://www.w3.org/2000/svg"><path d="m66.214844 370.503906c-12.445313-.863281-23.230469-8.949218-27.542969-20.65625-7.414063-18.804687-12.710937-38.3125-20.566406-57.027344-7.503907-17.65625-18.449219-34.78125-18.0976565-54.644531 1.3749995-26.769531 12.9335935-52.003906 32.3085935-70.53125 21.980469-21.449219 50.40625-33.898437 75.828125-50.582031 25.425781-16.683594 32.046875-71.589844 94.367188-80.507812l-14.386719 3.089843c6.878906-9.691406 15.148438-18.320312 24.539062-25.601562 25.867188-18.714844 60.824219-18.714844 86.6875 0 9.394532 7.28125 17.664063 15.910156 24.539063 25.601562v.089844l-14.386719-3.179687c46.785156 6.710937 62.144532 39.195312 77.683594 62.144531 4.332031 7.132812 9.996094 13.367187 16.683594 18.363281 25.421875 16.683594 53.847656 29.132812 75.828125 50.582031 19.375 18.527344 30.933593 43.761719 32.308593 70.53125.355469 19.863281-10.59375 36.988281-18.097656 54.644531-7.855468 18.714844-13.152344 38.222657-20.566406 57.027344-4.3125 11.707032-15.09375 19.792969-27.542969 20.65625zm0 0" fill="#2c3e50"/><path d="m328.675781 123.59375c14.523438.007812 28.113281 7.144531 36.363281 19.09375 20.039063 28.929688 52.539063 87.800781 44.25 156.3125-.582031 4.808594 14.019532 20.019531 17.066407 25.148438 28.636719 48.269531 38.566406 113.8125-10.710938 155.65625-45.203125 38.382812-126.59375 49.207031-159.636719-5.402344-33.042968 54.609375-114.429687 43.804687-159.636718 5.402344-49.277344-41.851563-39.34375-107.386719-10.734375-155.65625 3.042969-5.128907 17.65625-20.304688 17.0625-25.148438-8.289063-68.503906 24.214843-127.382812 44.253906-156.3125 8.253906-11.957031 21.855469-19.097656 36.386719-19.09375zm0 0" fill="#35495e"/><path d="m308.972656 350.171875c0 17.328125-23.710937 47.078125-52.964844 47.078125-29.253906 0-52.964843-29.75-52.964843-47.078125s23.710937-23.542969 52.964843-23.542969c29.253907 0 52.964844 6.179688 52.964844 23.542969zm0 0" fill="#2c2f38"/><path d="m164.757812 275.527344c-14.671874.910156-28.679687-6.230469-36.5625-18.636719-6.636718-12.699219-5.996093-27.976563 1.683594-40.078125 7.160156-12.152344 17.433594-22.179688 29.757813-29.042969 11.820312-7.023437 25.246093-10.886719 38.992187-11.210937 14.648438-.921875 28.644532 6.175781 36.554688 18.539062 12.578125 21.796875-.933594 51.507813-31.445313 69.128906-11.804687 7.058594-25.230469 10.949219-38.980469 11.300782zm0 0" fill="#2c3e50"/><path d="m210.898438 236.410156c-4.671876 4.949219-10.058594 9.175782-15.976563 12.535156-4.714844 2.726563-9.71875 4.917969-14.917969 6.535157h-.089844c-16.066406 4.765625-30.894531 2.292969-36.457031-7.328125-7.238281-12.710938 3.882813-32.839844 24.980469-45.019532 21.097656-12.183593 44.226562-11.832031 51.464844.882813 5.121094 8.914063 1.148437 21.449219-9.003906 32.394531zm0 0" fill="#d1d4d1"/><path d="m347.257812 278.148438c-13.761718-.335938-27.203124-4.214844-39.027343-11.265626-30.507813-17.652343-44.019531-47.324218-31.441407-69.117187 7.914063-12.386719 21.929688-19.492187 36.597657-18.558594 28.230469 1.0625 54.054687 16.191407 68.785156 40.300781 7.683594 12.101563 8.324219 27.382813 1.6875 40.085938-7.898437 12.382812-21.898437 19.5-36.554687 18.582031zm0 0" fill="#2c3e50"/><path d="m368.558594 250.710938c-6.265625 10.859374-24.097656 12.714843-42.371094 5.296874-8.785156-3.527343-16.792969-8.746093-23.570312-15.359374-11.296876-11.300782-15.890626-24.71875-10.503907-34.074219 7.238281-12.625 30.277344-13.066407 51.464844-.882813s32.21875 32.398438 24.980469 45.019532zm0 0" fill="#d1d4d1"/><g fill="#2c2f38"><path d="m256.007812 441.386719c-4.875 0-8.828124-3.949219-8.828124-8.828125v-35.308594c0-4.875 3.953124-8.828125 8.828124-8.828125s8.828126 3.953125 8.828126 8.828125v35.308594c0 4.878906-3.953126 8.828125-8.828126 8.828125zm0 0"/><path d="m97.113281 414.90625c-1.15625-.015625-2.292969-.253906-3.355469-.707031-1.070312-.449219-2.054687-1.074219-2.914062-1.855469-1.613281-1.691406-2.527344-3.929688-2.558594-6.265625.011719-1.152344.253906-2.292969.707032-3.355469.445312-1.070312 1.074218-2.054687 1.851562-2.914062.84375-.796875 1.832031-1.425782 2.914062-1.851563 1.609376-.703125 3.398438-.890625 5.121094-.53125.550782.097657 1.085938.273438 1.585938.53125.5625.191407 1.097656.460938 1.589844.792969.460937.328125.90625.679688 1.324218 1.058594.777344.859375 1.40625 1.847656 1.855469 2.914062.941406 2.136719.941406 4.574219 0 6.710938-.449219 1.066406-1.078125 2.050781-1.855469 2.910156l-1.324218 1.0625c-.492188.332031-1.027344.601562-1.589844.792969-.5.253906-1.035156.429687-1.585938.53125-.585937.101562-1.175781.160156-1.765625.175781zm0 0"/><path d="m114.765625 379.59375c-1.152344-.011719-2.292969-.253906-3.351563-.703125-1.070312-.449219-2.054687-1.078125-2.914062-1.855469-1.613281-1.691406-2.527344-3.929687-2.5625-6.269531.015625-1.152344.253906-2.292969.707031-3.351563.449219-1.070312 1.074219-2.054687 1.855469-2.914062.84375-.800781 1.832031-1.429688 2.914062-1.855469 1.609376-.703125 3.398438-.886719 5.117188-.527343.554688.09375 1.089844.273437 1.589844.527343.5625.195313 1.097656.460938 1.589844.796875.460937.324219.902343.679688 1.324218 1.058594.777344.859375 1.402344 1.84375 1.851563 2.914062.945312 2.136719.945312 4.570313 0 6.707032-.449219 1.070312-1.074219 2.054687-1.851563 2.914062l-1.324218 1.058594c-.492188.335938-1.027344.601562-1.589844.796875-.5.25-1.035156.429687-1.589844.527344-.582031.101562-1.171875.160156-1.765625.175781zm0 0"/><path d="m123.59375 450.214844c-1.152344-.011719-2.292969-.253906-3.355469-.707032-1.066406-.449218-2.050781-1.074218-2.910156-1.851562-1.613281-1.691406-2.527344-3.929688-2.5625-6.269531.015625-1.152344.253906-2.292969.707031-3.351563.449219-1.070312 1.074219-2.054687 1.855469-2.914062.84375-.800782 1.832031-1.429688 2.910156-1.855469 1.613281-.703125 3.402344-.886719 5.121094-.527344.554687.09375 1.089844.273438 1.589844.527344.5625.195313 1.097656.460937 1.589843.796875.460938.324219.902344.679688 1.324219 1.058594.777344.859375 1.402344 1.84375 1.851563 2.914062.941406 2.136719.941406 4.570313 0 6.707032-.449219 1.070312-1.074219 2.054687-1.851563 2.914062l-1.324219 1.058594c-.492187.335937-1.027343.601562-1.589843.792968-.5.253907-1.035157.433594-1.589844.53125-.582031.101563-1.171875.160157-1.765625.175782zm0 0"/><path d="m132.421875 414.90625c-1.152344-.015625-2.292969-.253906-3.355469-.707031-1.066406-.449219-2.050781-1.074219-2.910156-1.855469-1.613281-1.691406-2.527344-3.929688-2.5625-6.265625.015625-1.152344.253906-2.292969.707031-3.355469.449219-1.070312 1.074219-2.054687 1.855469-2.914062.839844-.796875 1.832031-1.425782 2.910156-1.851563 1.613282-.703125 3.402344-.890625 5.121094-.53125.554688.097657 1.089844.273438 1.589844.53125.5625.191407 1.097656.460938 1.589844.792969.460937.328125.902343.679688 1.324218 1.058594.777344.859375 1.402344 1.847656 1.851563 2.914062.941406 2.136719.941406 4.574219 0 6.710938-.449219 1.066406-1.074219 2.050781-1.851563 2.910156l-1.324218 1.0625c-.492188.332031-1.027344.601562-1.589844.792969-.5.253906-1.035156.429687-1.589844.53125-.582031.101562-1.171875.160156-1.765625.175781zm0 0"/><path d="m414.90625 414.90625c1.152344-.015625 2.292969-.253906 3.351562-.707031 1.070313-.449219 2.054688-1.074219 2.914063-1.855469 1.613281-1.691406 2.527344-3.929688 2.5625-6.265625-.015625-1.152344-.253906-2.292969-.707031-3.355469-.449219-1.070312-1.074219-2.054687-1.855469-2.914062-.84375-.796875-1.832031-1.425782-2.914063-1.851563-1.609374-.703125-3.398437-.890625-5.117187-.53125-.554687.097657-1.089844.273438-1.589844.53125-.5625.191407-1.097656.460938-1.589843.792969-.460938.328125-.902344.679688-1.324219 1.058594-.777344.859375-1.40625 1.847656-1.851563 2.914062-.945312 2.136719-.945312 4.574219 0 6.710938.449219 1.066406 1.074219 2.050781 1.851563 2.910156l1.324219 1.0625c.492187.332031 1.027343.601562 1.589843.792969.5.253906 1.035157.429687 1.589844.53125.582031.101562 1.171875.160156 1.765625.175781zm0 0"/><path d="m397.25 379.59375c1.152344-.011719 2.292969-.253906 3.355469-.703125 1.066406-.449219 2.050781-1.078125 2.910156-1.855469 1.613281-1.691406 2.527344-3.929687 2.5625-6.269531-.015625-1.152344-.253906-2.292969-.707031-3.351563-.449219-1.070312-1.074219-2.054687-1.855469-2.914062-.839844-.800781-1.832031-1.429688-2.910156-1.855469-1.613281-.703125-3.402344-.886719-5.121094-.527343-.554687.09375-1.089844.273437-1.589844.527343-.5625.195313-1.097656.460938-1.589843.796875-.460938.324219-.902344.679688-1.324219 1.058594-.777344.859375-1.402344 1.84375-1.851563 2.914062-.941406 2.136719-.941406 4.570313 0 6.707032.449219 1.070312 1.074219 2.054687 1.851563 2.914062l1.324219 1.058594c.492187.335938 1.027343.601562 1.589843.796875.5.25 1.035157.429687 1.589844.527344.582031.101562 1.171875.160156 1.765625.175781zm0 0"/><path d="m388.421875 450.214844c1.152344-.011719 2.292969-.253906 3.355469-.707032 1.066406-.449218 2.054687-1.074218 2.914062-1.851562 1.609375-1.691406 2.523438-3.929688 2.558594-6.269531-.015625-1.152344-.253906-2.292969-.707031-3.351563-.445313-1.070312-1.074219-2.054687-1.851563-2.914062-.84375-.800782-1.835937-1.429688-2.914062-1.855469-1.609375-.703125-3.402344-.886719-5.121094-.527344-.554688.09375-1.089844.273438-1.589844.527344-.5625.195313-1.09375.460937-1.585937.796875-.464844.324219-.90625.679688-1.324219 1.058594-.78125.859375-1.40625 1.84375-1.855469 2.914062-.941406 2.136719-.941406 4.570313 0 6.707032.449219 1.070312 1.074219 2.054687 1.855469 2.914062l1.324219 1.058594c.492187.335937 1.023437.601562 1.585937.792968.503906.253907 1.039063.433594 1.589844.53125.582031.101563 1.175781.160157 1.765625.175782zm0 0"/><path d="m379.59375 414.90625c1.15625-.015625 2.292969-.253906 3.355469-.707031 1.070312-.449219 2.054687-1.074219 2.914062-1.855469 1.609375-1.691406 2.527344-3.929688 2.558594-6.265625-.015625-1.152344-.253906-2.292969-.707031-3.355469-.445313-1.070312-1.074219-2.054687-1.851563-2.914062-.84375-.796875-1.832031-1.425782-2.914062-1.851563-1.609375-.703125-3.398438-.890625-5.121094-.53125-.550781.097657-1.089844.273438-1.589844.53125-.5625.191407-1.09375.460938-1.585937.792969-.464844.328125-.90625.679688-1.324219 1.058594-.777344.859375-1.40625 1.847656-1.855469 2.914062-.941406 2.136719-.941406 4.574219 0 6.710938.449219 1.066406 1.078125 2.050781 1.855469 2.910156l1.324219 1.0625c.492187.332031 1.023437.601562 1.585937.792969.503907.253906 1.039063.429687 1.589844.53125.585937.101562 1.175781.160156 1.765625.175781zm0 0"/><path d="m300.144531 97.113281h-88.273437c-4.875 0-8.828125-3.953125-8.828125-8.828125s3.953125-8.828125 8.828125-8.828125h88.273437c4.878907 0 8.828125 3.953125 8.828125 8.828125s-3.949218 8.828125-8.828125 8.828125zm0 0"/><path d="m317.800781 132.421875h-123.585937c-4.875 0-8.828125-3.953125-8.828125-8.828125s3.953125-8.828125 8.828125-8.828125h123.585937c4.875 0 8.828125 3.953125 8.828125 8.828125s-3.953125 8.828125-8.828125 8.828125zm0 0"/></g><path d="m264.835938 348.699219c0-7.3125-9.878907-13.242188-22.070313-13.242188-12.1875 0-22.066406 5.929688-22.066406 13.242188s9.878906 13.242187 22.066406 13.242187c12.191406 0 22.070313-5.929687 22.070313-13.242187zm0 0" fill="#547580"/><path d="m211.871094 229.527344c-.007813 2.328125-.335938 4.644531-.972656 6.882812-4.671876 4.949219-10.058594 9.175782-15.976563 12.535156-4.714844 2.726563-9.71875 4.917969-14.917969 6.535157h-.089844c-13.605468-2.875-22.671874-15.785157-20.757812-29.5625 1.917969-13.773438 14.164062-23.71875 28.039062-22.769531 13.875.949218 24.652344 12.46875 24.675782 26.378906zm0 0" fill="#41767f"/><path d="m185.386719 242.765625c-1.730469-.019531-3.445313-.378906-5.039063-1.058594-1.601562-.671875-3.074218-1.613281-4.363281-2.78125-2.417969-2.535156-3.789063-5.894531-3.839844-9.398437.019531-1.734375.375-3.445313 1.050781-5.042969.675782-1.601563 1.621094-3.074219 2.789063-4.359375 1.265625-1.199219 2.742187-2.148438 4.363281-2.789062 2.414063-1.054688 5.101563-1.328126 7.679688-.785157.828125.140625 1.632812.40625 2.382812.785157.84375.289062 1.644532.691406 2.382813 1.191406.695312.488281 1.359375 1.019531 1.988281 1.589844 1.164062 1.285156 2.105469 2.757812 2.78125 4.359374 1.410156 3.207032 1.410156 6.859376 0 10.0625-.671875 1.621094-1.613281 3.113282-2.78125 4.414063l-1.988281 1.582031c-.738281.5-1.539063.902344-2.382813 1.191406-.75.378907-1.554687.644532-2.382812.792969-.871094.148438-1.753906.230469-2.640625.246094zm0 0" fill="#2c2f38"/><path d="m185.386719 216.285156c0 7.3125-5.925781 13.242188-13.242188 13.242188-7.3125 0-13.238281-5.929688-13.238281-13.242188s5.925781-13.242187 13.238281-13.242187c7.316407 0 13.242188 5.929687 13.242188 13.242187zm0 0" fill="#fff"/><path d="m353.113281 229.527344c0 14.625-11.859375 26.480468-26.484375 26.480468h-.441406c-8.785156-3.527343-16.792969-8.746093-23.570312-15.359374-1.636719-3.480469-2.480469-7.277344-2.472657-11.121094 0-14.628906 11.859375-26.484375 26.484375-26.484375s26.484375 11.855469 26.484375 26.484375zm0 0" fill="#41767f"/><path d="m326.628906 242.765625c-1.734375-.019531-3.445312-.378906-5.039062-1.058594-1.601563-.671875-3.074219-1.613281-4.363282-2.78125-2.417968-2.535156-3.789062-5.894531-3.839843-9.398437.019531-1.734375.375-3.445313 1.050781-5.042969.675781-1.601563 1.617188-3.074219 2.789062-4.359375 1.261719-1.199219 2.742188-2.148438 4.363282-2.789062 2.414062-1.054688 5.097656-1.328126 7.679687-.785157.828125.140625 1.632813.40625 2.382813.785157.84375.289062 1.644531.691406 2.382812 1.191406.695313.488281 1.355469 1.019531 1.988282 1.589844 1.164062 1.285156 2.105468 2.757812 2.777343 4.359374 1.414063 3.207032 1.414063 6.859376 0 10.0625-.667969 1.621094-1.609375 3.113282-2.777343 4.414063l-1.988282 1.582031c-.738281.5-1.539062.902344-2.382812 1.191406-.75.378907-1.554688.644532-2.382813.792969-.875.148438-1.757812.230469-2.640625.246094zm0 0" fill="#2c2f38"/><path d="m326.628906 216.285156c0 7.3125-5.929687 13.242188-13.242187 13.242188s-13.242188-5.929688-13.242188-13.242188 5.929688-13.242187 13.242188-13.242187 13.242187 5.929687 13.242187 13.242187zm0 0" fill="#fff"/></svg>