<svg height="503pt" viewBox="0 -6 503.88215 503" width="503pt" xmlns="http://www.w3.org/2000/svg"><path d="m394.875 382.941406c1.25 2.058594 1.585938 4.546875.929688 6.867188-.660157 2.320312-2.253907 4.261718-4.398438 5.359375-26.375 13.570312-107.945312 57.316406-132.246094 91.335937-1.601562 2.238282-4.1875 3.566406-6.941406 3.566406s-5.339844-1.328124-6.941406-3.566406c-24.300782-34.019531-105.871094-77.765625-132.261719-91.34375-2.148437-1.097656-3.742187-3.039062-4.398437-5.359375-.660157-2.320312-.324219-4.808593.925781-6.871093l142.675781-234.964844zm0 0" fill="#7f8c8d"/><path d="m364.476562 356.238281c34.710938 60.746094 130.167969 60.746094 138.847657-60.746093 8.679687-121.492188-86.78125-190.914063-86.78125-190.914063l.382812.257813c.046875-.09375.105469-.179688.175781-.257813 0 0-73.851562-104.136719-164.882812-104.136719s-164.882812 104.136719-164.882812 104.136719-95.457032 69.421875-86.777344 190.914063c8.675781 121.492187 104.132812 121.492187 138.847656 60.746093zm0 0" fill="#d1d4d1"/><g fill="#e6e7e8"><path d="m133.417969 303.476562c-.625 1.902344-1.117188 3.84375-1.476563 5.8125"/><path d="m372.496094 309.289062c-.359375-1.96875-.851563-3.910156-1.476563-5.8125"/><path d="m373.363281 315.191406c-.140625-1.632812-.371093-3.253906-.695312-4.859375"/><path d="m373.363281 327.859375c-.140625 1.632813-.371093 3.253906-.695312 4.859375"/></g><path d="m186.785156 382.011719c9.460938 20.394531 35.148438 34.972656 65.433594 34.972656s55.972656-14.578125 65.433594-34.972656l-65.433594-77.84375zm0 0" fill="#bdc3c7"/><path d="m252.21875 182.679688c-63.097656 0-130.167969-19.769532-130.167969-56.40625 0-4.792969 3.882813-8.679688 8.675781-8.679688 4.792969 0 8.679688 3.886719 8.679688 8.679688 0 18.429687 48.25 39.050781 112.8125 39.050781s112.8125-20.621094 112.8125-39.050781c0-4.792969 3.886719-8.679688 8.679688-8.679688 4.792968 0 8.675781 3.886719 8.675781 8.679688 0 36.636718-67.070313 56.40625-130.167969 56.40625zm0 0" fill="#bdc3c7"/><path d="m147.902344 304.167969c-4.625.007812-8.445313-3.613281-8.679688-8.234375-1.933594-24.238282-10.253906-47.535156-24.117187-67.511719-2.875-3.835937-2.097657-9.277344 1.738281-12.152344 3.832031-2.875 9.273438-2.097656 12.148438 1.738281 15.96875 22.726563 25.5 49.351563 27.585937 77.050782.117187 2.300781-.683594 4.550781-2.226563 6.261718-1.542968 1.707032-3.699218 2.734376-6 2.847657zm0 0" fill="#7f8c8d"/><path d="m356.535156 304.167969h-.449218c-4.785157-.246094-8.464844-4.324219-8.21875-9.109375 2.082031-27.707032 11.609374-54.335938 27.578124-77.070313 2.875-3.832031 8.316407-4.609375 12.148438-1.734375 3.835938 2.875 4.613281 8.316406 1.738281 12.148438-13.832031 20.003906-22.15625 43.292968-24.144531 67.53125-.234375 4.609375-4.035156 8.226562-8.652344 8.234375zm0 0" fill="#7f8c8d"/><path d="m208.828125 226.066406c0 14.378906-11.65625 26.035156-26.03125 26.035156-14.378906 0-26.035156-11.65625-26.035156-26.035156 0-14.375 11.65625-26.03125 26.035156-26.03125 14.375 0 26.03125 11.65625 26.03125 26.03125zm0 0" fill="#fff"/><path d="m200.152344 226.066406c0 9.585938-7.773438 17.359375-17.355469 17.359375-9.585937 0-17.359375-7.773437-17.359375-17.359375 0-9.582031 7.773438-17.355468 17.359375-17.355468 9.582031 0 17.355469 7.773437 17.355469 17.355468zm0 0" fill="#b0d3f0"/><path d="m182.796875 234.746094c-1.136719-.011719-2.257813-.25-3.300781-.695313-1.050782-.441406-2.019532-1.054687-2.863282-1.820312-1.585937-1.664063-2.484374-3.863281-2.515624-6.164063.011718-1.132812.25-2.253906.695312-3.296875.4375-1.050781 1.054688-2.019531 1.820312-2.863281.828126-.785156 1.800782-1.402344 2.863282-1.820312 1.585937-.691407 3.34375-.875 5.035156-.523438.542969.09375 1.070312.269531 1.5625.523438.550781.1875 1.078125.449218 1.5625.78125.453125.320312.886719.667968 1.300781 1.039062.765625.84375 1.378907 1.8125 1.820313 2.863281.925781 2.101563.925781 4.496094 0 6.597657-.441406 1.050781-1.054688 2.015624-1.820313 2.863281l-1.300781 1.039062c-.484375.328125-1.011719.59375-1.5625.78125-.492188.25-1.019531.425781-1.5625.523438-.574219.097656-1.152344.15625-1.734375.171875zm0 0" fill="#2c2f38"/><path d="m182.796875 217.390625c0 4.792969-3.886719 8.675781-8.679687 8.675781-4.792969 0-8.679688-3.882812-8.679688-8.675781s3.886719-8.679687 8.679688-8.679687c4.792968 0 8.679687 3.886718 8.679687 8.679687zm0 0" fill="#fff"/><path d="m347.675781 226.066406c0 14.378906-11.65625 26.035156-26.035156 26.035156-14.375 0-26.03125-11.65625-26.03125-26.035156 0-14.375 11.65625-26.03125 26.03125-26.03125 14.378906 0 26.035156 11.65625 26.035156 26.03125zm0 0" fill="#fff"/><path d="m339 226.066406c0 9.585938-7.773438 17.359375-17.359375 17.359375-9.582031 0-17.355469-7.773437-17.355469-17.359375 0-9.582031 7.773438-17.355468 17.355469-17.355468 9.585937 0 17.359375 7.773437 17.359375 17.355468zm0 0" fill="#b0d3f0"/><path d="m321.640625 234.746094c-1.132813-.011719-2.253906-.25-3.296875-.695313-1.050781-.441406-2.019531-1.054687-2.863281-1.820312-1.585938-1.664063-2.484375-3.863281-2.515625-6.164063.011718-1.132812.25-2.253906.695312-3.296875.4375-1.050781 1.054688-2.019531 1.820313-2.863281.828125-.785156 1.800781-1.402344 2.863281-1.820312 1.585938-.691407 3.34375-.875 5.035156-.523438.542969.09375 1.070313.269531 1.5625.523438.550782.1875 1.078125.449218 1.5625.78125.453125.320312.886719.667968 1.300782 1.039062.765624.84375 1.378906 1.8125 1.820312 2.863281.925781 2.101563.925781 4.496094 0 6.597657-.441406 1.050781-1.054688 2.015624-1.820312 2.863281l-1.300782 1.039062c-.484375.328125-1.011718.59375-1.5625.78125-.492187.25-1.019531.425781-1.5625.523438-.574218.097656-1.15625.15625-1.738281.171875zm0 0" fill="#2c2f38"/><path d="m321.640625 217.390625c0 4.792969-3.882813 8.675781-8.675781 8.675781-4.792969 0-8.679688-3.882812-8.679688-8.675781s3.886719-8.679687 8.679688-8.679687c4.792968 0 8.675781 3.886718 8.675781 8.679687zm0 0" fill="#fff"/><path d="m373.710938 321.527344c.015624 2.058594-.101563 4.117187-.347657 6.160156v.171875c-.144531 1.632813-.378906 3.253906-.695312 4.859375-.015625.324219-.074219.648438-.171875.957031v.085938c-6.214844 30.601562-34.613282 51.507812-65.679688 48.347656s-54.675781-29.359375-54.597656-60.582031c.078125 31.222656-23.53125 57.421875-54.597656 60.582031s-59.464844-17.746094-65.679688-48.347656v-.085938c-.421875-1.917969-.710937-3.859375-.867187-5.816406v-.171875c-.460938-4.09375-.460938-8.226562 0-12.324219v-.171875c.15625-1.957031.445312-3.898437.867187-5.816406v-.085938c.433594-1.996093.957032-3.902343 1.476563-5.8125 11.628906-39.226562 60.398437-68.730468 118.800781-68.730468s107.171875 29.503906 118.800781 68.730468c.519531 1.910157 1.042969 3.816407 1.476563 5.8125v.085938c.097656.3125.15625.632812.171875.957031.316406 1.605469.550781 3.226563.695312 4.859375v.171875c.246094 2.046875.363281 4.101563.347657 6.164063zm0 0" fill="#e6e7e8"/><path d="m295.609375 286.8125c0 12.757812-19.4375 34.714844-43.390625 34.714844-23.949219 0-43.390625-21.957032-43.390625-34.714844.011719-1.515625.304687-3.015625.867187-4.425781 4.078126-9.371094 21.523438-12.929688 42.523438-12.929688 23.953125 0 43.390625 4.601563 43.390625 17.355469zm0 0" fill="#2c2f38"/><path d="m260.898438 286.8125c0-4.792969-7.773438-8.675781-17.359376-8.675781-9.582031 0-17.355468 3.882812-17.355468 8.675781s7.773437 8.679688 17.355468 8.679688c9.585938 0 17.359376-3.886719 17.359376-8.679688zm0 0" fill="#2c3e50"/></svg>