<svg height="512pt" viewBox="0 0 512.01133 512" width="512pt" xmlns="http://www.w3.org/2000/svg"><path d="m387.273438 408.546875c-4.945313 9.535156-26.574219 44.136719-87.128907 59.320313h-88.277343c-60.558594-15.183594-82.183594-49.785157-87.128907-59.320313l69.472657-81.921875h123.585937zm0 0" fill="#804537"/><path d="m441.386719 353.109375s-17.214844 94.894531-119.96875 37.339844h-130.824219c-102.753906 57.554687-119.96875-37.339844-119.96875-37.339844l61.53125-304.992187h.085938c30.632812-23.394532 74.769531-48.11328175 123.761718-48.11328175 48.996094 0 92.867188 24.62890575 123.5 47.84765575zm0 0" fill="#af8066"/><path d="m.09375 168.710938c-1.300781-29.707032 10.980469-58.390626 33.378906-77.949219 22.457032-19.535157 52.691406-41.207031 80.507813-45.839844 52.964843-8.828125 17.652343 97.101563 0 150.066406-13.242188 39.726563-26.484375 89.378907-24.832031 130.347657.71875 11.332031-5.90625 21.84375-16.4375 26.082031-10.53125 4.234375-22.59375 1.238281-29.917969-7.4375-19.835938-24.035157-38.507813-73.949219-42.699219-175.269531zm0 0" fill="#cb8252"/><path d="m511.917969 168.199219c1.300781-29.707031-10.980469-58.390625-33.378907-77.949219-22.457031-19.535156-52.691406-41.207031-80.507812-45.839844-52.964844-8.828125-17.652344 97.101563 0 150.066406 13.242188 39.726563 26.484375 89.378907 24.832031 130.347657-.722656 11.332031 5.90625 21.84375 16.4375 26.082031 10.53125 4.234375 22.59375 1.238281 29.917969-7.4375 19.835938-24.046875 38.503906-73.957031 42.699219-175.269531zm0 0" fill="#cb8252"/><path d="m176.558594 132.417969c-2.839844 0-5.503906-1.367188-7.160156-3.667969-1.660157-2.304688-2.109376-5.265625-1.210938-7.957031.425781-1.324219 11.414062-32.511719 61.335938-32.511719 4.875 0 8.828124 3.953125 8.828124 8.828125s-3.953124 8.828125-8.828124 8.828125c-36.75 0-44.527344 20.242188-44.597657 20.445312-1.199219 3.601563-4.570312 6.035157-8.367187 6.035157zm0 0" fill="#2c3e50"/><path d="m335.453125 132.417969c-3.753906 0-7.097656-2.375-8.332031-5.921875-.398438-1.058594-8.28125-20.558594-44.632813-20.558594-4.875 0-8.828125-3.953125-8.828125-8.828125s3.953125-8.828125 8.828125-8.828125c49.921875 0 60.910157 31.1875 61.335938 32.519531.894531 2.691407.441406 5.648438-1.214844 7.949219s-4.320313 3.667969-7.15625 3.667969zm0 0" fill="#2c3e50"/><path d="m212.042969 385.769531v.089844c-.101563.851563-.160157 1.703125-.175781 2.558594v79.449219c0 24.378906 19.761718 44.136718 44.136718 44.136718 24.378906 0 44.140625-19.757812 44.140625-44.136718v-79.449219c-.015625-.855469-.074219-1.707031-.175781-2.558594v-.089844l-43.964844-59.144531zm0 0" fill="#ff5364"/><path d="m256.003906 459.039062c-4.875 0-8.824218-3.949218-8.824218-8.828124v-52.964844c0-4.875 3.949218-8.828125 8.824218-8.828125 4.878906 0 8.828125 3.953125 8.828125 8.828125v52.964844c0 4.878906-3.949219 8.828124-8.828125 8.828124zm0 0" fill="#c03a2b"/><g fill-rule="evenodd"><path d="m194.210938 170.535156c11.152343-24.714844 33.449218-24.714844 44.605468-12.355468 11.160156 12.355468 11.152344 37.074218 0 61.792968-8.117187 15.964844-19.667968 29.9375-33.824218 40.914063-6.203126 5.3125-15.347657 5.3125-21.550782 0-14.15625-10.976563-25.707031-24.949219-33.824218-40.914063-11.152344-24.71875-11.152344-49.4375 0-61.792968 11.148437-12.359376 33.445312-12.34375 44.59375 12.355468zm0 0" fill="#ff5364"/><path d="m174.378906 166.777344c2.195313 4.6875-1.316406 11.351562-7.851562 14.898437-6.53125 3.550781-13.601563 2.648438-15.800782-2.0625-2.195312-4.714843 1.316407-11.355469 7.847657-14.902343 6.535156-3.550782 13.570312-2.613282 15.804687 2.066406zm0 0" fill="#fb7b76"/><path d="m227.34375 166.777344c2.195312 4.6875-1.316406 11.351562-7.847656 14.898437-6.535156 3.550781-13.605469 2.648438-15.800782-2.0625-2.199218-4.714843 1.3125-11.355469 7.847657-14.902343 6.53125-3.550782 13.566406-2.613282 15.800781 2.066406zm0 0" fill="#fb7b76"/><path d="m317.796875 170.535156c11.152344-24.714844 33.449219-24.714844 44.609375-12.355468 11.15625 12.355468 11.148438 37.074218 0 61.792968-8.121094 15.964844-19.671875 29.9375-33.828125 40.914063-6.203125 5.3125-15.347656 5.3125-21.550781 0-14.15625-10.976563-25.707032-24.949219-33.824219-40.914063-11.152344-24.71875-11.152344-49.4375 0-61.792968 11.148437-12.359376 33.445313-12.34375 44.59375 12.355468zm0 0" fill="#ff5364"/><path d="m297.964844 166.777344c2.195312 4.6875-1.316406 11.351562-7.847656 14.898437-6.535157 3.550781-13.605469 2.648438-15.804688-2.0625-2.195312-4.714843 1.316406-11.355469 7.847656-14.902343 6.535156-3.550782 13.570313-2.613282 15.804688 2.066406zm0 0" fill="#fb7b76"/><path d="m350.929688 166.777344c2.195312 4.6875-1.316407 11.351562-7.847657 14.898437-6.535156 3.550781-13.605469 2.648438-15.800781-2.0625-2.199219-4.714843 1.3125-11.355469 7.847656-14.902343 6.53125-3.550782 13.566406-2.613282 15.800782 2.066406zm0 0" fill="#fb7b76"/></g><path d="m133.65625 347.902344v-.089844c-.429688-1.949219-.726562-3.925781-.882812-5.914062v-.175782c-.472657-4.167968-.472657-8.371094 0-12.535156v-.175781c.15625-1.992188.453124-3.96875.882812-5.917969v-.085938c8.472656-42.816406 60.027344-75.828124 122.347656-75.828124 62.324219 0 113.878906 33.011718 122.351563 75.828124v.085938c.429687 1.949219.726562 3.925781.882812 5.917969v.175781c.472657 4.164062.472657 8.367188 0 12.535156v.175782c-.15625 1.988281-.453125 3.964843-.882812 5.914062v.089844l-1.5-30.808594c.53125 1.941406 1.058593 3.882812 1.5 5.914062v.085938c0 .089844.089843.265625.089843.355469.351563 1.851562.617188 3.707031.792969 5.5625v.351562c.472657 4.046875.472657 8.132813 0 12.183594v.351563c-.175781 1.851562-.441406 3.707031-.792969 5.5625 0 .085937-.089843.261718-.089843.351562v.089844c-6.320313 31.125-35.210938 52.394531-66.8125 49.179687-31.597657-3.214843-55.613281-29.863281-55.539063-61.628906.078125 31.765625-23.9375 58.414063-55.539062 61.628906-31.597656 3.214844-60.488282-18.054687-66.808594-49.179687v-.089844c0-.089844-.089844-.265625-.089844-.351562-.351562-1.765626-.617187-3.710938-.792968-5.5625v-.351563c-.472657-4.050781-.472657-8.136719 0-12.183594v-.351562c.175781-1.855469.441406-3.796875.792968-5.5625 0-.089844.089844-.265625.089844-.355469v-.085938c.441406-2.03125.96875-3.972656 1.5-5.914062zm0 0" fill="#59474e"/><path d="m300.144531 300.144531c0 12.976563-19.773437 35.308594-44.140625 35.308594-24.363281 0-44.136718-22.332031-44.136718-35.308594.011718-1.542969.3125-3.070312.882812-4.503906 4.148438-9.53125 21.894531-13.152344 43.253906-13.152344 24.367188 0 44.140625 4.679688 44.140625 17.65625zm0 0" fill="#2c3e50"/><path d="m167.730469 335.453125c-1.152344-.011719-2.292969-.253906-3.355469-.707031-1.070312-.445313-2.054688-1.074219-2.914062-1.851563-1.609376-1.691406-2.523438-3.929687-2.558594-6.269531.015625-1.152344.253906-2.292969.707031-3.351562.445313-1.070313 1.074219-2.054688 1.851563-2.914063.84375-.800781 1.832031-1.429687 2.914062-1.855469 1.609375-.703125 3.398438-.886718 5.121094-.527344.550781.09375 1.089844.273438 1.589844.527344.5625.195313 1.09375.460938 1.585937.796875.464844.324219.90625.679688 1.324219 1.058594.78125.859375 1.40625 1.84375 1.855468 2.914063.941407 2.136718.941407 4.570312 0 6.707031-.449218 1.070312-1.078124 2.054687-1.855468 2.914062l-1.324219 1.058594c-.492187.335937-1.023437.601563-1.585937.792969-.503907.253906-1.039063.433594-1.589844.53125-.585938.101562-1.175782.160156-1.765625.175781zm0 0" fill="#2c2f38"/><path d="m185.386719 361.9375c-1.15625-.015625-2.296875-.253906-3.355469-.707031-1.070312-.449219-2.054688-1.074219-2.914062-1.855469-1.613282-1.691406-2.527344-3.929688-2.558594-6.265625.011718-1.152344.253906-2.292969.703125-3.355469.449219-1.070312 1.078125-2.054687 1.855469-2.914062.84375-.796875 1.832031-1.425782 2.914062-1.851563 1.609375-.703125 3.398438-.890625 5.121094-.53125.550781.097657 1.085937.277344 1.585937.53125.5625.191407 1.097657.460938 1.589844.792969.460937.328125.90625.679688 1.324219 1.058594.777344.859375 1.40625 1.847656 1.855468 2.914062.941407 2.136719.941407 4.574219 0 6.710938-.449218 1.066406-1.078124 2.050781-1.855468 2.910156l-1.324219 1.0625c-.492187.332031-1.027344.601562-1.589844.792969-.5.253906-1.035156.429687-1.585937.53125-.585938.101562-1.175782.160156-1.765625.175781zm0 0" fill="#2c2f38"/><path d="m344.28125 335.453125c1.152344-.011719 2.292969-.253906 3.355469-.707031 1.066406-.445313 2.054687-1.074219 2.914062-1.851563 1.609375-1.691406 2.523438-3.929687 2.558594-6.269531-.015625-1.152344-.253906-2.292969-.707031-3.351562-.445313-1.070313-1.074219-2.054688-1.851563-2.914063-.84375-.800781-1.835937-1.429687-2.914062-1.855469-1.609375-.703125-3.402344-.886718-5.121094-.527344-.554687.09375-1.089844.273438-1.589844.527344-.5625.195313-1.09375.460938-1.585937.796875-.464844.324219-.90625.679688-1.324219 1.058594-.78125.859375-1.40625 1.84375-1.855469 2.914063-.941406 2.136718-.941406 4.570312 0 6.707031.449219 1.070312 1.074219 2.054687 1.855469 2.914062l1.324219 1.058594c.492187.335937 1.023437.601563 1.585937.792969.503907.253906 1.039063.433594 1.589844.53125.582031.101562 1.175781.160156 1.765625.175781zm0 0" fill="#2c2f38"/><path d="m326.625 361.9375c1.15625-.015625 2.292969-.253906 3.355469-.707031 1.070312-.449219 2.054687-1.074219 2.914062-1.855469 1.613281-1.691406 2.527344-3.929688 2.558594-6.265625-.011719-1.152344-.253906-2.292969-.707031-3.355469-.445313-1.070312-1.074219-2.054687-1.851563-2.914062-.84375-.796875-1.832031-1.425782-2.914062-1.851563-1.609375-.703125-3.398438-.890625-5.121094-.53125-.550781.097657-1.085937.277344-1.585937.53125-.5625.191407-1.097657.460938-1.589844.792969-.460938.328125-.90625.679688-1.324219 1.058594-.777344.859375-1.40625 1.847656-1.855469 2.914062-.941406 2.136719-.941406 4.574219 0 6.710938.449219 1.066406 1.078125 2.050781 1.855469 2.910156l1.324219 1.0625c.492187.332031 1.027344.601562 1.589844.792969.5.253906 1.035156.429687 1.585937.53125.585937.101562 1.175781.160156 1.765625.175781zm0 0" fill="#2c2f38"/><path d="m264.832031 300.144531c0-4.875-7.902343-8.828125-17.652343-8.828125-9.753907 0-17.65625 3.953125-17.65625 8.828125s7.902343 8.828125 17.65625 8.828125c9.75 0 17.652343-3.953125 17.652343-8.828125zm0 0" fill="#35495e"/></svg>