<svg height="511pt" viewBox="-39 0 511 511.89981" width="511pt" xmlns="http://www.w3.org/2000/svg"><path d="m169.683594 476.078125c12.894531 12.316406 30.160156 18.996094 47.988281 18.570313 17.828125.425781 35.09375-6.253907 47.992187-18.570313l-47.992187-111.601563zm0 0" fill="#547580"/><path d="m395.050781 281.949219h.085938c1.746093 1.617187 3.632812 3.070312 5.640625 4.339843 3.113281 2.058594 6.769531 3.144532 10.5 3.125 4.589844-.191406 8.605468-3.140624 10.15625-7.464843 1.011718-3.101563 1.425781-6.371094 1.214844-9.632813-.957032-17.5-4.078126-34.8125-9.289063-51.546875-3.644531-14.144531-7.375-28.203125-11.019531-42.347656-3.207032-13.515625-5.296875-27.273437-6.246094-41.132813-1.5625-16.226562-3.300781-32.542968-4.863281-48.769531l-9.890625-26.730469c.574218 17.121094 10.699218 32.472657 26.207031 39.746094 5.378906 3.039063 13.972656 5.8125 18.570313.171875 4.511718-6.167969 7.214843-13.46875 7.8125-21.085937 4.328124-24.175782-6.101563-48.621094-26.554688-62.222656-23.699219-14.5625-54.101562-12.105469-75.152344 6.078124l-1.734375 27.59375c4.335938-10.960937 6.296875-26.09375-3.472656-35.03125-10.925781-9.972656-28.890625-8.941406-42.679687-7.308593-22.730469 3.613281-45.054688 9.425781-66.664063 17.355469-21.605469-7.929688-43.933594-13.742188-66.664063-17.355469-13.789062-1.632813-31.75-2.664063-42.675781 7.308593-9.773437 8.9375-7.8125 24.070313-3.472656 35.03125l-1.734375-27.59375c-21.050781-18.183593-51.453125-20.640624-75.152344-6.078124-20.453125 13.601562-30.886718 38.046874-26.554687 62.222656.597656 7.617187 3.300781 14.917968 7.808593 21.085937 4.601563 5.640625 13.191407 2.867188 18.574219-.171875 15.507813-7.273437 25.628907-22.625 26.207031-39.746094l-10.066406 26.730469c-1.5625 16.226563-3.300781 32.542969-4.859375 48.769531-.953125 13.859376-3.042969 27.617188-6.25 41.132813-3.644531 14.144531-7.375 28.203125-11.019531 42.347656-5.210938 16.734375-8.332031 34.046875-9.285156 51.546875-.214844 3.261719.199218 6.53125 1.214844 9.632813 1.550781 4.324219 5.5625 7.273437 10.152343 7.464843 3.730469.019532 7.386719-1.066406 10.5-3.125 2.007813-1.269531 3.898438-2.722656 5.640625-4.339843zm0 0" fill="#547580"/><path d="m332.855469 10.632812c-13.128907-12.007812-32.429688-11.550781-49.542969-9.527343-20.808594 3.113281-41.257812 8.265625-61.058594 15.386719l-4.582031 1.457031-4.582031-1.457031c-19.796875-7.121094-40.25-12.273438-61.058594-15.386719-17.121094-2.023438-36.445312-2.472657-49.539062 9.546875-10.71875 9.804687-12.855469 26.484375-5.703126 44.621094 1.757813 4.460937 6.796876 6.652343 11.253907 4.894531 4.460937-1.757813 6.652343-6.796875 4.894531-11.257813-3.410156-8.632812-4.867188-19.84375 1.269531-25.441406 8.015625-7.324219 23.351563-6.5625 35.796875-5.09375 19.675782 2.957031 39.015625 7.847656 57.734375 14.605469l7.289063 2.351562c.285156.050781.574218.085938.867187.101563 1.175781.273437 2.398438.273437 3.574219 0 .292969-.015625.582031-.046875.867188-.09375l7.289062-2.351563c18.71875-6.769531 38.054688-11.671875 57.734375-14.640625 12.480469-1.464844 27.769531-2.230468 35.796875 5.09375 6.128906 5.597656 4.671875 16.820313 1.269531 25.445313-1.136719 2.882812-.648437 6.15625 1.28125 8.582031 1.929688 2.425781 5.007813 3.640625 8.074219 3.179688 3.066406-.457032 5.65625-2.515626 6.792969-5.402344 7.140625-18.128906 5.007812-34.816406-5.71875-44.613282zm0 0" fill="#35495e"/><path d="m278.417969 208.273438s95.457031 0 130.171875 104.136718c34.710937 104.136719-26.035156 234.304688-104.136719 190.914063s-86.78125-104.132813-86.78125-104.132813-8.675781 60.742188-86.777344 104.132813c-78.101562 43.390625-138.847656-86.777344-104.136719-190.914063 34.710938-104.136718 130.167969-104.136718 130.167969-104.136718zm0 0" fill="#95a5a5"/><g fill="#2c3e50"><path d="m96.179688 269.019531c-.578126-.019531-1.160157-.078125-1.734376-.171875-.542968-.097656-1.070312-.273437-1.5625-.523437-.550781-.1875-1.078124-.453125-1.5625-.78125-.453124-.316407-.890624-.664063-1.300781-1.039063-1.585937-1.664062-2.484375-3.863281-2.515625-6.160156.011719-1.136719.25-2.257812.695313-3.300781.4375-1.050781 1.054687-2.019531 1.820312-2.863281l1.300781-1.039063c.484376-.328125 1.011719-.59375 1.5625-.78125.492188-.25 1.019532-.425781 1.5625-.523437 1.144532-.261719 2.328126-.261719 3.472657 0 .542969.097656 1.070312.273437 1.5625.523437.550781.1875 1.078125.453125 1.5625.78125l1.300781 1.039063c.765625.847656 1.378906 1.8125 1.820312 2.863281.445313 1.042969.683594 2.164062.695313 3.300781-.035156 2.296875-.933594 4.496094-2.515625 6.160156-.414062.371094-.847656.71875-1.300781 1.039063-.484375.332031-1.011719.59375-1.5625.78125-.492188.25-1.019531.425781-1.5625.523437-.574219.09375-1.15625.152344-1.738281.171875zm0 0"/><path d="m130.894531 277.699219c-.582031-.019531-1.164062-.078125-1.738281-.175781-.542969-.09375-1.066406-.269532-1.558594-.519532-.554687-.191406-1.078125-.453125-1.5625-.78125-.457031-.320312-.890625-.667968-1.304687-1.042968-1.582031-1.660157-2.480469-3.863282-2.515625-6.160157.015625-1.132812.25-2.253906.695312-3.296875.441406-1.050781 1.054688-2.019531 1.820313-2.863281l1.304687-1.042969c.484375-.328125 1.007813-.589844 1.5625-.78125.488282-.25 1.015625-.425781 1.558594-.519531 1.144531-.261719 2.332031-.261719 3.472656 0 .542969.09375 1.070313.269531 1.5625.519531.550782.191406 1.078125.453125 1.5625.78125l1.300782 1.042969c.765624.84375 1.382812 1.8125 1.824218 2.863281.441406 1.042969.679688 2.164063.691406 3.296875-.035156 2.296875-.933593 4.496094-2.515624 6.160157-.414063.375-.847657.722656-1.300782 1.042968-.484375.328125-1.011718.589844-1.5625.78125-.492187.25-1.019531.425782-1.5625.519532-.574218.097656-1.152344.15625-1.734375.175781zm0 0"/><path d="m87.503906 303.730469c-.582031-.019531-1.160156-.078125-1.734375-.171875-.542969-.097656-1.070312-.273438-1.5625-.519532-.554687-.191406-1.078125-.453124-1.5625-.78125-.457031-.320312-.890625-.667968-1.300781-1.042968-1.585938-1.664063-2.484375-3.863282-2.519531-6.160156.015625-1.136719.25-2.253907.695312-3.296876.441407-1.054687 1.054688-2.019531 1.824219-2.867187l1.300781-1.039063c.484375-.328124 1.007813-.589843 1.5625-.78125.492188-.25 1.015625-.425781 1.5625-.519531 1.140625-.265625 2.328125-.265625 3.46875 0 .542969.09375 1.070313.269531 1.5625.519531.554688.191407 1.078125.453126 1.5625.78125l1.300781 1.039063c.765626.847656 1.382813 1.816406 1.824219 2.867187.445313 1.042969.679688 2.160157.691407 3.296876-.03125 2.296874-.929688 4.496093-2.515626 6.160156-.410156.375-.847656.722656-1.300781 1.042968-.484375.328126-1.007812.589844-1.5625.78125-.492187.246094-1.019531.421876-1.5625.519532-.574219.09375-1.152343.152344-1.734375.171875zm0 0"/><path d="m339.164062 269.019531c.582032-.019531 1.160157-.078125 1.734376-.171875.546874-.097656 1.070312-.273437 1.5625-.523437.554687-.1875 1.078124-.453125 1.5625-.78125.457031-.316407.890624-.664063 1.300781-1.039063 1.585937-1.664062 2.484375-3.863281 2.519531-6.160156-.015625-1.136719-.25-2.257812-.695312-3.300781-.441407-1.050781-1.054688-2.019531-1.824219-2.863281l-1.300781-1.039063c-.484376-.328125-1.007813-.59375-1.5625-.78125-.492188-.25-1.015626-.425781-1.5625-.523437-1.140626-.261719-2.328126-.261719-3.46875 0-.542969.097656-1.070313.273437-1.5625.523437-.554688.1875-1.078126.453125-1.5625.78125l-1.300782 1.039063c-.765625.847656-1.382812 1.8125-1.824218 2.863281-.445313 1.042969-.679688 2.164062-.691407 3.300781.03125 2.296875.929688 4.496094 2.515625 6.160156.410156.371094.847656.71875 1.300782 1.039063.484374.332031 1.007812.59375 1.5625.78125.492187.25 1.019531.425781 1.5625.523437.574218.09375 1.152343.152344 1.734374.171875zm0 0"/><path d="m304.453125 277.699219c.582031-.019531 1.160156-.078125 1.734375-.175781.542969-.09375 1.070312-.269532 1.5625-.519532.554688-.191406 1.078125-.453125 1.5625-.78125.457031-.320312.890625-.667968 1.300781-1.042968 1.585938-1.660157 2.484375-3.863282 2.515625-6.160157-.011718-1.132812-.246094-2.253906-.691406-3.296875-.441406-1.050781-1.058594-2.019531-1.824219-2.863281l-1.300781-1.042969c-.484375-.328125-1.007812-.589844-1.5625-.78125-.492188-.25-1.019531-.425781-1.5625-.519531-1.140625-.261719-2.328125-.261719-3.46875 0-.546875.09375-1.070312.269531-1.5625.519531-.554688.191406-1.078125.453125-1.5625.78125l-1.300781 1.042969c-.765625.84375-1.382813 1.8125-1.824219 2.863281-.445312 1.042969-.679688 2.164063-.695312 3.296875.035156 2.296875.933593 4.496094 2.519531 6.160157.410156.375.84375.722656 1.300781 1.042968.484375.328125 1.007812.589844 1.5625.78125.492188.25 1.019531.425782 1.5625.519532.574219.097656 1.152344.15625 1.734375.175781zm0 0"/><path d="m347.84375 303.730469c.582031-.019531 1.160156-.078125 1.734375-.171875.542969-.097656 1.070313-.273438 1.5625-.519532.550781-.191406 1.078125-.453124 1.5625-.78125.457031-.320312.890625-.667968 1.300781-1.042968 1.585938-1.664063 2.484375-3.863282 2.515625-6.160156-.011719-1.136719-.25-2.253907-.691406-3.296876-.441406-1.054687-1.058594-2.019531-1.824219-2.867187l-1.300781-1.039063c-.484375-.328124-1.011719-.589843-1.5625-.78125-.492187-.25-1.019531-.425781-1.5625-.519531-1.140625-.265625-2.328125-.265625-3.472656 0-.542969.09375-1.070313.269531-1.558594.519531-.554687.191407-1.082031.453126-1.5625.78125l-1.304687 1.039063c-.761719.847656-1.378907 1.816406-1.820313 2.867187-.445313 1.042969-.679687 2.160157-.695313 3.296876.035157 2.296874.933594 4.496093 2.515626 6.160156.414062.375.847656.722656 1.304687 1.042968.480469.328126 1.007813.589844 1.5625.78125.492187.246094 1.015625.421876 1.558594.519532.574219.09375 1.15625.152344 1.738281.171875zm0 0"/></g><path d="m217.671875 112.816406c-4.792969 0-8.675781-3.886718-8.675781-8.679687v-17.355469c0-4.792969 3.882812-8.675781 8.675781-8.675781s8.679687 3.882812 8.679687 8.675781v17.355469c0 4.792969-3.886718 8.679687-8.679687 8.679687zm0 0" fill="#35495e"/><path d="m200.316406 177.902344c0 21.566406-17.484375 39.050781-39.050781 39.050781s-39.050781-17.484375-39.050781-39.050781 17.484375-39.050782 39.050781-39.050782 39.050781 17.484376 39.050781 39.050782zm0 0" fill="#fff"/><path d="m92.882812 191.683594c-4.902343-.035156-9.722656-1.25-14.058593-3.542969-21.519531-11.027344-24.375-36.707031-7.808594-70.472656 2.125-4.285157 7.3125-6.042969 11.601563-3.933594 4.289062 2.109375 6.066406 7.289063 3.976562 11.585937-5.589844 11.371094-16.75 38.730469.128906 47.367188 7.417969 3.800781 14.179688 1.167969 25.765625-10.113281 17.355469-16.910157 41.140625-36.808594 71.046875-40.558594 2.6875-.34375 5.394532-.519531 8.105469-.519531 4.792969 0 8.675781 3.882812 8.675781 8.675781s-3.882812 8.679687-8.675781 8.679687c-1.984375.003907-3.96875.128907-5.9375.378907-24.636719 3.089843-44.707031 19.824219-61.101563 35.78125-8.054687 9.402343-19.40625 15.367187-31.71875 16.671875zm0 0" fill="#35495e"/><path d="m313.128906 177.902344c0 21.566406-17.480468 39.050781-39.050781 39.050781-21.566406 0-39.050781-17.484375-39.050781-39.050781s17.484375-39.050782 39.050781-39.050782c21.570313 0 39.050781 17.484376 39.050781 39.050782zm0 0" fill="#fff"/><path d="m342.460938 191.683594c-12.3125-1.308594-23.660157-7.269532-31.714844-16.671875-16.394532-15.949219-36.449219-32.679688-61.09375-35.78125-1.972656-.25-3.957032-.375-5.945313-.378907-4.792969 0-8.679687-3.886718-8.679687-8.679687s3.886718-8.675781 8.679687-8.675781c2.710938 0 5.417969.175781 8.105469.519531 29.886719 3.75 53.671875 23.648437 71.039062 40.558594 11.59375 11.28125 18.335938 13.886719 25.761719 10.113281 16.871094-8.679688 5.710938-36.007812.132813-47.367188-2.09375-4.296874-.316406-9.476562 3.972656-11.585937 4.292969-2.109375 9.480469-.351563 11.601562 3.933594 16.585938 33.757812 13.738282 59.445312-7.808593 70.472656-4.332031 2.292969-9.148438 3.507813-14.050781 3.542969zm0 0" fill="#35495e"/><path d="m182.960938 177.902344c0 11.980468-9.710938 21.695312-21.695313 21.695312-11.980469 0-21.695313-9.714844-21.695313-21.695312 0-11.984375 9.714844-21.695313 21.695313-21.695313 11.984375 0 21.695313 9.710938 21.695313 21.695313zm0 0" fill="#b0d3f0"/><path d="m161.265625 188.75c-1.417969-.019531-2.816406-.3125-4.121094-.867188-1.3125-.550781-2.519531-1.320312-3.574219-2.277343-1.984374-2.074219-3.109374-4.824219-3.152343-7.695313.019531-1.417968.3125-2.816406.867187-4.121094.554688-1.3125 1.324219-2.523437 2.285156-3.578124 1.035157-.980469 2.246094-1.753907 3.574219-2.28125 1.980469-.859376 4.179688-1.085938 6.292969-.640626.675781.113282 1.335938.332032 1.949219.640626.691406.238281 1.351562.570312 1.953125.980468.566406.402344 1.109375.835938 1.625 1.300782.953125 1.058593 1.722656 2.265624 2.273437 3.578124 1.15625 2.625 1.15625 5.617188 0 8.242188-.550781 1.316406-1.320312 2.527344-2.273437 3.585938l-1.625 1.300781c-.601563.410156-1.261719.742187-1.953125.980469-.613281.3125-1.273438.53125-1.949219.652343-.71875.117188-1.445312.183594-2.171875.199219zm0 0" fill="#2c2f38"/><path d="m161.265625 167.054688c0 5.988281-4.855469 10.847656-10.847656 10.847656-5.988281 0-10.847657-4.859375-10.847657-10.847656 0-5.992188 4.859376-10.847657 10.847657-10.847657 5.992187 0 10.847656 4.855469 10.847656 10.847657zm0 0" fill="#fff"/><path d="m295.773438 177.902344c0 11.980468-9.710938 21.695312-21.695313 21.695312-11.980469 0-21.691406-9.714844-21.691406-21.695312 0-11.984375 9.710937-21.695313 21.691406-21.695313 11.984375 0 21.695313 9.710938 21.695313 21.695313zm0 0" fill="#b0d3f0"/><path d="m274.078125 188.75c-1.414063-.019531-2.816406-.3125-4.121094-.867188-1.3125-.550781-2.519531-1.320312-3.574219-2.277343-1.980468-2.074219-3.105468-4.824219-3.152343-7.695313.019531-1.417968.3125-2.816406.871093-4.121094.550782-1.3125 1.320313-2.523437 2.28125-3.578124 1.035157-.980469 2.25-1.753907 3.574219-2.28125 1.980469-.859376 4.179688-1.085938 6.292969-.640626.679688.113282 1.335938.332032 1.953125.640626.691406.238281 1.347656.570312 1.953125.980468.566406.402344 1.105469.835938 1.621094 1.300782.953125 1.058593 1.722656 2.265624 2.273437 3.578124 1.15625 2.625 1.15625 5.617188 0 8.242188-.550781 1.316406-1.320312 2.527344-2.273437 3.585938l-1.621094 1.300781c-.605469.410156-1.261719.742187-1.953125.980469-.617187.3125-1.273437.53125-1.953125.652343-.71875.117188-1.441406.183594-2.171875.199219zm0 0" fill="#2c2f38"/><path d="m274.078125 167.054688c0 5.988281-4.855469 10.847656-10.847656 10.847656-5.988281 0-10.84375-4.859375-10.84375-10.847656 0-5.992188 4.855469-10.847657 10.84375-10.847657 5.992187 0 10.847656 4.855469 10.847656 10.847657zm0 0" fill="#fff"/><path d="m278.417969 208.273438c0 19.09375-27.214844 52.070312-60.746094 52.070312s-60.746094-32.976562-60.746094-52.070312c.015625-2.265626.425781-4.511719 1.214844-6.636719 5.730469-14.058594 30.132813-19.394531 59.53125-19.394531 33.53125 0 60.746094 6.898437 60.746094 26.03125zm0 0" fill="#2c2f38"/><path d="m217.671875 208.273438c0-4.792969-7.769531-8.675782-17.355469-8.675782-9.585937 0-17.355468 3.882813-17.355468 8.675782 0 4.792968 7.769531 8.679687 17.355468 8.679687 9.585938 0 17.355469-3.886719 17.355469-8.679687zm0 0" fill="#35495e"/></svg>