<svg height="512pt" viewBox="-43 0 512 512.00315" width="512pt" xmlns="http://www.w3.org/2000/svg"><path d="m372.96875 231.460938c76.269531-71.5 55.527344-164.542969 34.605469-216.539063-2.453125-8.121094-9.554688-13.964844-17.992188-14.816406-8.441406-.847657-16.5625 3.464843-20.585937 10.933593-16.417969 27.097657-42.636719 61.96875-75.652344 76.796876h-159.777344c-33.015625-14.828126-59.234375-49.699219-75.652344-76.796876-4.023437-7.46875-12.144531-11.78125-20.585937-10.933593-8.441406.851562-15.539063 6.695312-17.992187 14.816406-20.921876 51.996094-41.664063 145.039063 34.605468 216.539063zm0 0" fill="#cb8252"/><path d="m360.257812 193.679688c32.53125-38.160157 35.671876-82.511719 27.753907-122.148438-.640625-3.378906-3.164063-6.09375-6.488281-6.972656-3.324219-.882813-6.863282.222656-9.09375 2.84375-15.355469 19.492187-34.324219 35.839844-55.867188 48.152344h-206.214844c-21.539062-12.3125-40.503906-28.664063-55.859375-48.152344-2.230469-2.621094-5.765625-3.726563-9.09375-2.84375-3.324219.878906-5.847656 3.59375-6.488281 6.972656-7.945312 39.636719-4.773438 83.980469 27.753906 122.148438zm0 0" fill="#cbb292"/><path d="m213.453125 512.003906c130.941406-8.828125 132.414063-88.277344 132.414063-88.277344 26.484374 26.484376 61.792968 0 61.792968 0-26.480468 0-35.308594-52.964843-35.308594-52.964843 19.609376 5.6875 40.691407-1.339844 52.964844-17.65625-44.136718 0-44.136718-70.621094-44.136718-70.621094 0-33.992187-20.949219-125.597656-91.082032-198.167969-20.066406-20.8125-47.734375-32.570312-76.644531-32.570312-28.90625 0-56.574219 11.757812-76.640625 32.570312-70.132812 72.570313-91.082031 164.175782-91.082031 198.167969 0 0 0 70.621094-44.136719 70.621094 12.273438 16.316406 33.355469 23.34375 52.964844 17.65625 0 0-8.828125 52.964843-35.3125 52.964843 0 0 35.3125 26.484376 61.796875 0 0 0 1.472656 79.449219 132.410156 88.277344zm0 0" fill="#fdd7ad"/><path d="m36.992188 326.625c5.515624-14.078125 8.476562-29.023438 8.738281-44.140625 0-33.984375 20.921875-125.613281 91.101562-198.179687 13.769531-14.328126 31.300781-24.484376 50.582031-29.304688 10.0625 52.699219 42.195313 279.390625-150.421874 271.625zm0 0" fill="#e57e25"/><path d="m389.917969 326.625c-192.617188 7.765625-160.484375-218.925781-150.421875-271.625 19.28125 4.820312 36.8125 14.976562 50.582031 29.304688 70.179687 72.566406 91.101563 164.195312 91.101563 198.179687.261718 15.117187 3.222656 30.0625 8.738281 44.140625zm0 0" fill="#e57e25"/><path d="m257.59375 338.390625c-3.421875 22.285156-21.671875 39.316406-44.140625 41.199219-22.464844-1.882813-40.714844-18.914063-44.136719-41.199219.003906-1.800781.304688-3.589844.882813-5.296875 4.148437-11.078125 21.894531-15.296875 43.253906-15.296875 24.367187 0 44.140625 5.453125 44.140625 20.59375zm0 0" fill="#2c2f38"/><path d="m320.859375 379.714844c-4.796875-.78125-9.328125 2.441406-10.167969 7.226562-1.546875 9.066406-4.707031 17.777344-9.332031 25.726563-10.34375 17.652343-31.894531 21.890625-47.261719 20.035156-10.375-.742187-19.828125-6.21875-25.636718-14.847656-5.085938-12.078125-7.207032-25.199219-6.179688-38.265625 0-4.875-3.949219-8.828125-8.828125-8.828125-4.875 0-8.824219 3.953125-8.824219 8.828125 1.027344 13.066406-1.09375 26.1875-6.179687 38.265625-5.800781 8.621093-15.238281 14.097656-25.601563 14.847656-15.332031 1.855469-36.917968-2.335937-47.261718-20.035156-4.625-7.949219-7.785157-16.660157-9.332032-25.726563-.527344-3.109375-2.671875-5.699218-5.628906-6.800781-2.957031-1.097656-6.273438-.535156-8.703125 1.476563-2.429687 2.011718-3.601563 5.164062-3.074219 8.273437 1.894532 11.164063 5.785156 21.898437 11.472656 31.691406 11.988282 18.867188 33.070313 29.976563 55.414063 29.203125 3.0625-.015625 6.121094-.207031 9.160156-.574218 15.75-1.253907 30.011719-9.789063 38.558594-23.078126 8.550781 13.289063 22.8125 21.824219 38.5625 23.078126 3.042969.359374 6.105469.542968 9.171875.546874 22.339844.78125 43.421875-10.332031 55.410156-29.203124 5.691406-9.789063 9.578125-20.523438 11.476563-31.691407.796875-4.789062-2.425781-9.328125-7.214844-10.148437zm0 0" fill="#2c2f38"/><g fill="#cb8252"><path d="m142.835938 388.417969c-1.15625-.015625-2.292969-.253907-3.355469-.707031-2.21875-.804688-3.964844-2.550782-4.769531-4.765626-.9375-2.140624-.9375-4.574218 0-6.710937.429687-1.078125 1.058593-2.070313 1.855468-2.914063 2.0625-2.144531 5.078125-3.085937 7.996094-2.496093 2.914062.589843 5.328125 2.632812 6.394531 5.410156.941407 2.136719.941407 4.574219 0 6.710937-.453125 1.066407-1.078125 2.050782-1.855469 2.910157-1.660156 1.660156-3.917968 2.582031-6.265624 2.5625zm0 0"/><path d="m160.488281 414.898438c-1.152343-.011719-2.292969-.253907-3.351562-.703126-2.21875-.804687-3.964844-2.550781-4.769531-4.769531-.9375-2.136719-.9375-4.570312 0-6.707031.425781-1.082031 1.054687-2.070312 1.855468-2.914062 2.0625-2.144532 5.078125-3.089844 7.996094-2.496094 2.914062.589844 5.328125 2.628906 6.390625 5.410156.945313 2.136719.945313 4.570312 0 6.707031-.449219 1.070313-1.074219 2.054688-1.851563 2.914063-1.664062 1.660156-3.921874 2.582031-6.269531 2.558594zm0 0"/><path d="m284.074219 388.417969c1.15625-.015625 2.292969-.253907 3.355469-.707031 2.21875-.804688 3.964843-2.550782 4.765624-4.765626.941407-2.140624.941407-4.574218 0-6.710937-.425781-1.078125-1.054687-2.070313-1.851562-2.914063-2.0625-2.144531-5.078125-3.085937-7.996094-2.496093-2.917968.589843-5.328125 2.632812-6.394531 5.410156-.941406 2.136719-.941406 4.574219 0 6.710937.453125 1.066407 1.078125 2.050782 1.855469 2.910157 1.660156 1.660156 3.917968 2.582031 6.265625 2.5625zm0 0"/><path d="m266.421875 414.898438c1.152344-.011719 2.292969-.253907 3.351563-.703126 2.21875-.804687 3.964843-2.550781 4.769531-4.769531.9375-2.136719.9375-4.570312 0-6.707031-.425781-1.082031-1.054688-2.070312-1.855469-2.914062-2.0625-2.144532-5.078125-3.089844-7.996094-2.496094-2.914062.589844-5.328125 2.628906-6.390625 5.410156-.945312 2.136719-.945312 4.570312 0 6.707031.449219 1.070313 1.074219 2.054688 1.851563 2.914063 1.660156 1.660156 3.921875 2.582031 6.269531 2.558594zm0 0"/></g><path d="m213.453125 335.453125c0-4.878906-7.902344-8.828125-17.652344-8.828125s-17.65625 3.949219-17.65625 8.828125c0 4.875 7.90625 8.824219 17.65625 8.824219s17.652344-3.949219 17.652344-8.824219zm0 0" fill="#35495e"/><path d="m151.660156 238.347656c0 14.625-11.855468 26.484375-26.480468 26.484375s-26.484376-11.859375-26.484376-26.484375 11.859376-26.484375 26.484376-26.484375 26.480468 11.859375 26.480468 26.484375zm0 0" fill="#d1d4d1"/><path d="m142.835938 238.347656c0 9.75-7.90625 17.65625-17.65625 17.65625s-17.65625-7.90625-17.65625-17.65625 7.90625-17.65625 17.65625-17.65625 17.65625 7.90625 17.65625 17.65625zm0 0" fill="#e4c05c"/><path d="m134.007812 238.347656c0 4.875-3.953124 8.828125-8.828124 8.828125s-8.828126-3.953125-8.828126-8.828125 3.953126-8.828125 8.828126-8.828125 8.828124 3.953125 8.828124 8.828125zm0 0" fill="#2c2f38"/><path d="m125.179688 229.519531c0 4.875-3.953126 8.828125-8.828126 8.828125s-8.828124-3.953125-8.828124-8.828125 3.953124-8.828125 8.828124-8.828125 8.828126 3.953125 8.828126 8.828125zm0 0" fill="#fff"/><path d="m328.214844 238.347656c0 14.625-11.859375 26.484375-26.484375 26.484375s-26.484375-11.859375-26.484375-26.484375 11.859375-26.484375 26.484375-26.484375 26.484375 11.859375 26.484375 26.484375zm0 0" fill="#d1d4d1"/><path d="m319.386719 238.347656c0 9.75-7.90625 17.65625-17.65625 17.65625s-17.65625-7.90625-17.65625-17.65625 7.90625-17.65625 17.65625-17.65625 17.65625 7.90625 17.65625 17.65625zm0 0" fill="#e4c05c"/><path d="m310.558594 238.347656c0 4.875-3.953125 8.828125-8.828125 8.828125s-8.828125-3.953125-8.828125-8.828125 3.953125-8.828125 8.828125-8.828125 8.828125 3.953125 8.828125 8.828125zm0 0" fill="#2c2f38"/><path d="m301.730469 229.519531c0 4.875-3.953125 8.828125-8.828125 8.828125s-8.828125-3.953125-8.828125-8.828125 3.953125-8.828125 8.828125-8.828125 8.828125 3.953125 8.828125 8.828125zm0 0" fill="#fff"/></svg>