<svg height="512pt" viewBox="0 0 512 512.04479" width="512pt" xmlns="http://www.w3.org/2000/svg"><path d="m414.917969 167.289062c19.953125 12.003907 51.199219 39.105469 63.03125 94.808594 0 0 52.347656 62.585938 27.277343 166.308594 4.449219 8.023438 6.785157 17.046875 6.796876 26.21875-1.25 32.894531-28.898438 58.566406-61.792969 57.378906-10.773438.027344-21.390625-2.613281-30.898438-7.679687-7.058593 4.960937-15.46875 7.640625-24.097656 7.679687-17.855469-.628906-34.117187-10.445312-42.992187-25.953125-2.351563-4.144531-4.105469-8.601562-5.207032-13.238281h-182.023437c-1.105469 4.636719-2.855469 9.09375-5.210938 13.238281-8.871093 15.507813-25.132812 25.324219-42.988281 25.953125-8.628906-.039062-17.039062-2.71875-24.101562-7.679687-9.507813 5.066406-20.121094 7.707031-30.894532 7.679687-32.898437 1.1875-60.542968-24.484375-61.7929685-57.378906.0078125-9.171875 2.3476565-18.195312 6.7968745-26.21875-25.070312-103.722656 27.277344-166.308594 27.277344-166.308594 11.828125-55.703125 43.078125-82.804687 63.027344-94.808594zm0 0" fill="#95a5a5"/><path d="m132.4375 247.175781v70.621094l35.308594 61.792969h176.550781l35.3125-61.792969v-88.273437h-247.171875zm0 0" fill="#d1d4d1"/><g fill="#bdc3c7"><path d="m230.070312 31.695312c-.355468-1.710937-.535156-3.457031-.53125-5.207031.003907-3.136719.570313-6.246093 1.679688-9.179687"/><path d="m188.226562 47.144531c-2.960937-5.78125-3.621093-12.464843-1.855468-18.714843"/><path d="m155.386719 68.859375c-3.117188-4.140625-4.929688-9.121094-5.207031-14.300781"/><path d="m131.464844 103.996094c-3.773438-1.429688-7.140625-3.761719-9.796875-6.800782"/><path d="m123.609375 150.074219c-5.207031-.027344-10.296875-1.558594-14.65625-4.414063"/><path d="m280.828125 17.308594c1.105469 2.933594 1.675781 6.042968 1.675781 9.179687.003906 1.75-.171875 3.496094-.527344 5.207031"/><path d="m325.671875 28.429688c1.769531 6.25 1.105469 12.933593-1.851563 18.714843"/><path d="m361.867188 54.558594c-.277344 5.179687-2.089844 10.160156-5.210938 14.300781"/><path d="m390.378906 97.195312c-2.660156 3.039063-6.023437 5.371094-9.800781 6.800782"/><path d="m403.089844 145.660156c-4.355469 2.855469-9.445313 4.386719-14.652344 4.414063"/><path d="m395.410156 193.242188c-2.269531.636718-4.617187.964843-6.972656.96875"/><path d="m326.464844 229.523438c-9.597656 6.300781-20.148438 11.007812-31.246094 13.945312"/><path d="m216.828125 243.46875c-11.097656-2.9375-21.652344-7.644531-31.25-13.945312"/></g><path d="m162.175781 389.566406c-4.699219.007813-8.578125-3.667968-8.828125-8.359375-1.484375-21.8125-11.199218-42.246093-27.179687-57.167969-3.34375-3.464843-3.296875-8.96875.109375-12.375 3.402344-3.40625 8.910156-3.453124 12.375-.105468 19.109375 17.96875 30.667968 42.535156 32.324218 68.710937.261719 4.871094-3.472656 9.027344-8.339843 9.289063zm0 0" fill="#7f8c8d"/><path d="m349.867188 389.566406h-.476563c-4.867187-.261718-8.601563-4.417968-8.339844-9.285156 1.65625-26.179688 13.214844-50.746094 32.324219-68.714844 3.464844-3.347656 8.972656-3.296875 12.375.105469 3.40625 3.40625 3.453125 8.914063.109375 12.375-15.980469 14.921875-25.695313 35.355469-27.179687 57.167969-.253907 4.683594-4.121094 8.347656-8.8125 8.351562zm0 0" fill="#7f8c8d"/><path d="m304.105469 361.9375c13.722656 3.117188 26.949219 8.101562 39.308593 14.820312 10.230469 5.519532 19.238282 13.046876 26.484376 22.128907 6.109374 7.695312 9.523437 17.183593 9.710937 27.003906-.21875 9.800781-3.609375 19.261719-9.667969 26.96875-7.253906 9.050781-16.261718 16.542969-26.480468 22.027344-1.609376.898437-3.253907 1.78125-4.945313 2.648437-18.246094 9.597656-39.824219 10.570313-58.863281 2.648438-10.710938-4.03125-19.269532-12.328125-23.628906-22.910156-4.34375 10.59375-12.894532 18.90625-23.605469 22.953124-19.039063 7.921876-40.613281 6.949219-58.863281-2.648437-1.683594-.847656-3.332032-1.730469-4.941407-2.648437-10.222656-5.484376-19.230469-12.972657-26.484375-22.023438-6.074218-7.714844-9.476562-17.195312-9.691406-27.015625.175781-9.816406 3.570312-19.304687 9.664062-27.003906 7.25-9.082031 16.257813-16.609375 26.484376-22.128907 12.375-6.722656 25.617187-11.707031 39.351562-14.820312" fill="#d1d4d1"/><path d="m206.589844 494.351562c-12.855469-.054687-25.523438-3.097656-37-8.890624-1.765625-.882813-3.527344-1.84375-5.292969-2.796876-11.304687-6.066406-21.242187-14.378906-29.210937-24.425781-15.273438-18.835937-15.292969-45.785156-.046876-64.636719 7.96875-10.058593 17.894532-18.390624 29.175782-24.496093 13.105468-7.148438 27.132812-12.449219 41.683594-15.757813 4.746093-1.117187 9.5 1.824219 10.617187 6.570313 1.117187 4.746093-1.828125 9.5-6.574219 10.617187-12.941406 2.917969-25.417968 7.613282-37.074218 13.945313-9.160157 4.910156-17.238282 11.613281-23.746094 19.714843-4.929688 6.175782-7.6875 13.796876-7.855469 21.695313.214844 7.921875 3.003906 15.558594 7.941406 21.753906 6.53125 8.042969 14.601563 14.699219 23.738281 19.578125 1.476563.828125 3.011719 1.652344 4.582032 2.429688 15.882812 8.390625 34.671875 9.28125 51.28125 2.433594 8.496094-3.046876 15.339844-9.492188 18.898437-17.785157 1.242188-3.539062 4.582031-5.902343 8.328125-5.902343 3.75 0 7.085938 2.363281 8.328125 5.902343 3.558594 8.292969 10.40625 14.738281 18.902344 17.785157 16.609375 6.851562 35.402344 5.957031 51.289063-2.433594 1.5625-.789063 3.105468-1.609375 4.597656-2.4375 9.15625-4.898438 17.238281-11.582032 23.773437-19.652344 4.894531-6.179688 7.652344-13.785156 7.855469-21.671875-.191406-7.910156-2.980469-15.539063-7.945312-21.707031-6.53125-8.121094-14.640626-14.84375-23.835938-19.753906-11.621094-6.308594-24.058594-10.984376-36.960938-13.894532-4.746093-1.117187-7.6875-5.871094-6.570312-10.617187 1.117188-4.746094 5.867188-7.6875 10.613281-6.570313 14.519531 3.296875 28.511719 8.582032 41.589844 15.703125 11.324219 6.109375 21.285156 14.457031 29.28125 24.542969 15.21875 18.824219 15.21875 45.726562 0 64.554688-7.992187 10.070312-17.960937 18.398437-29.292969 24.46875-1.765625.964843-3.53125 1.902343-5.296875 2.808593-20.636719 10.75-44.984375 11.761719-66.441406 2.761719-7.542969-3.214844-14.324219-7.988281-19.898437-14-5.605469 6.019531-12.417969 10.78125-19.996094 13.984375-9.265625 4.113281-19.300782 6.21875-29.4375 6.179687zm0 0" fill="#7f8c8d"/><path d="m300.160156 406.074219c0 12.976562-19.773437 35.308593-44.136718 35.308593-24.363282 0-44.140626-22.332031-44.140626-35.308593.011719-1.542969.3125-3.070313.882813-4.503907 4.152344-9.53125 21.894531-13.152343 43.257813-13.152343 24.363281 0 44.136718 4.679687 44.136718 17.65625zm0 0" fill="#2c3e50"/><path d="m220.710938 282.488281c0 14.625-11.855469 26.484375-26.480469 26.484375-14.628907 0-26.484375-11.859375-26.484375-26.484375s11.855468-26.484375 26.484375-26.484375c14.625 0 26.480469 11.859375 26.480469 26.484375zm0 0" fill="#fff"/><path d="m211.882812 282.488281c0 9.75-7.902343 17.65625-17.652343 17.65625s-17.65625-7.90625-17.65625-17.65625 7.90625-17.65625 17.65625-17.65625 17.652343 7.90625 17.652343 17.65625zm0 0" fill="#b0d3f0"/><path d="m194.230469 291.316406c-1.15625-.015625-2.292969-.253906-3.355469-.707031-1.070312-.449219-2.054688-1.074219-2.914062-1.855469-1.613282-1.691406-2.527344-3.929687-2.558594-6.265625.011718-1.152343.253906-2.292969.707031-3.355469.445313-1.070312 1.074219-2.054687 1.851563-2.914062.84375-.796875 1.832031-1.425781 2.914062-1.851562 1.609375-.703126 3.398438-.890626 5.121094-.53125.550781.097656 1.085937.277343 1.585937.53125.566407.191406 1.097657.460937 1.589844.792968.464844.328125.90625.679688 1.324219 1.058594.777344.859375 1.40625 1.847656 1.855468 2.914062.941407 2.136719.941407 4.574219 0 6.710938-.449218 1.066406-1.078124 2.050781-1.855468 2.910156l-1.324219 1.0625c-.492187.332032-1.023437.601563-1.589844.792969-.5.253906-1.035156.429687-1.585937.53125-.585938.101563-1.175782.160156-1.765625.175781zm0 0" fill="#2c2f38"/><path d="m194.230469 273.660156c0 4.875-3.953125 8.828125-8.828125 8.828125s-8.828125-3.953125-8.828125-8.828125 3.953125-8.828125 8.828125-8.828125 8.828125 3.953125 8.828125 8.828125zm0 0" fill="#fff"/><path d="m344.296875 282.488281c0 14.625-11.855469 26.484375-26.480469 26.484375s-26.484375-11.859375-26.484375-26.484375 11.859375-26.484375 26.484375-26.484375 26.480469 11.859375 26.480469 26.484375zm0 0" fill="#fff"/><path d="m335.472656 282.488281c0 9.75-7.90625 17.65625-17.65625 17.65625s-17.65625-7.90625-17.65625-17.65625 7.90625-17.65625 17.65625-17.65625 17.65625 7.90625 17.65625 17.65625zm0 0" fill="#b0d3f0"/><path d="m317.816406 291.316406c-1.15625-.015625-2.292968-.253906-3.355468-.707031-1.070313-.449219-2.054688-1.074219-2.914063-1.855469-1.609375-1.691406-2.527344-3.929687-2.558594-6.265625.015625-1.152343.253907-2.292969.707031-3.355469.445313-1.070312 1.074219-2.054687 1.851563-2.914062.84375-.796875 1.832031-1.425781 2.914063-1.851562 1.609374-.703126 3.398437-.890626 5.121093-.53125.550781.097656 1.089844.277343 1.589844.53125.5625.191406 1.09375.460937 1.585937.792968.464844.328125.90625.679688 1.324219 1.058594.78125.859375 1.40625 1.847656 1.855469 2.914062.941406 2.136719.941406 4.574219 0 6.710938-.449219 1.066406-1.078125 2.050781-1.855469 2.910156l-1.324219 1.0625c-.492187.332032-1.023437.601563-1.585937.792969-.503906.253906-1.039063.429687-1.589844.53125-.585937.101563-1.175781.160156-1.765625.175781zm0 0" fill="#2c2f38"/><path d="m317.816406 273.660156c0 4.875-3.953125 8.828125-8.828125 8.828125s-8.828125-3.953125-8.828125-8.828125 3.953125-8.828125 8.828125-8.828125 8.828125 3.953125 8.828125 8.828125zm0 0" fill="#fff"/><path d="m264.851562 406.074219c0-4.875-7.90625-8.828125-17.65625-8.828125s-17.65625 3.953125-17.65625 8.828125 7.90625 8.828125 17.65625 8.828125 17.65625-3.953125 17.65625-8.828125zm0 0" fill="#35495e"/><path d="m414.917969 167.730469c.054687 11.949219-7.960938 22.433593-19.507813 25.511719 1.25 4.632812 1.875 9.414062 1.855469 14.210937 0 24.328125-15.34375 46.011719-38.285156 54.109375-22.941407 8.097656-48.492188.847656-63.761719-18.09375-25.652344 7.0625-52.738281 7.0625-78.390625 0-15.269531 18.941406-40.824219 26.191406-63.765625 18.09375s-38.28125-29.78125-38.28125-54.109375c-.019531-4.796875.601562-9.578125 1.855469-14.210937-10.007813-2.746094-17.492188-11.078126-19.144531-21.320313-1.652344-10.246094 2.828124-20.507813 11.460937-26.261719-9.421875-6.265625-13.820313-17.824218-10.949219-28.773437 2.871094-10.945313 12.378906-18.855469 23.664063-19.691407-7.054688-7.742187-8.867188-18.925781-4.625-28.503906 4.246093-9.574218 13.746093-15.742187 24.222656-15.71875 3.042969-.027344 6.066406.511719 8.914063 1.585938-.074219-.523438-.101563-1.058594-.089844-1.585938 0-14.628906 11.859375-26.484375 26.484375-26.484375 3.363281.003907 6.691406.664063 9.796875 1.941407 2.46875-9.292969 9.800781-16.507813 19.132812-18.824219 9.335938-2.316407 19.1875.636719 25.714844 7.703125 3.820312-10.398438 13.726562-17.308594 24.804688-17.308594 11.078124 0 20.980468 6.910156 24.804687 17.308594 6.523437-7.066406 16.378906-10.019532 25.710937-7.703125 9.335938 2.316406 16.667969 9.53125 19.132813 18.824219 3.109375-1.277344 6.4375-1.9375 9.800781-1.941407 14.625 0 26.480469 11.855469 26.480469 26.484375.015625.527344-.015625 1.0625-.085937 1.585938 2.847656-1.074219 5.871093-1.613282 8.914062-1.585938 10.476562-.023437 19.976562 6.144532 24.222656 15.71875 4.242188 9.578125 2.429688 20.761719-4.625 28.503906 11.285156.835938 20.792969 8.746094 23.664063 19.691407 2.871093 10.949219-1.53125 22.507812-10.953125 28.773437 7.40625 4.894532 11.851562 13.191406 11.828125 22.070313zm0 0" fill="#bdc3c7"/></svg>