<svg height="512pt" viewBox="0 -4 512.08648 512" width="512pt" xmlns="http://www.w3.org/2000/svg"><path d="m408.738281 223.789062c73.726563-69.117187 53.675781-159.058593 33.449219-209.320312-2.371094-7.851562-9.230469-13.5-17.390625-14.324219-8.160156-.820312-16.011719 3.347657-19.898437 10.570313-15.871094 26.195312-41.214844 59.902344-73.128907 74.238281h-154.457031c-31.914062-14.335937-57.257812-48.042969-73.128906-74.238281-3.886719-7.222656-11.738282-11.390625-19.898438-10.570313-8.160156.824219-15.019531 6.472657-17.390625 14.324219-20.226562 50.261719-40.277343 140.203125 33.449219 209.320312zm0 0" fill="#cb8252"/><path d="m396.449219 187.269531c31.445312-36.890625 34.484375-79.761719 26.828125-118.078125-.617188-3.265625-3.054688-5.890625-6.269532-6.742187-3.214843-.851563-6.632812.214843-8.789062 2.75-14.847656 18.839843-33.183594 34.644531-54.007812 46.546875h-199.339844c-20.820313-11.902344-39.15625-27.707032-54-46.546875-2.152344-2.535157-5.574219-3.601563-8.789063-2.75-3.214843.851562-5.652343 3.476562-6.269531 6.742187-7.679688 38.316406-4.617188 81.179688 26.828125 118.078125zm0 0" fill="#cbb292"/><path d="m254.542969 494.980469c126.574219-8.535157 128-85.335938 128-85.335938 25.597656 25.601563 59.730469 0 59.730469 0-25.597657 0-34.132813-51.199219-34.132813-51.199219 18.957031 5.496094 39.335937-1.296874 51.199219-17.066406-42.664063 0-42.664063-68.265625-42.664063-68.265625 0-32.863281-20.25-121.414062-88.046875-191.566406-19.398437-20.117187-46.140625-31.480469-74.085937-31.480469-27.949219 0-54.691407 11.363282-74.089844 31.480469-67.796875 70.152344-88.046875 158.703125-88.046875 191.566406 0 0 0 68.265625-42.664062 68.265625 11.863281 15.769532 32.242187 22.5625 51.199218 17.066406 0 0-8.535156 51.199219-34.132812 51.199219 0 0 34.132812 25.601563 59.734375 0 0 0 1.414062 76.800781 128 85.335938zm0 0" fill="#fdd7ad"/><path d="m83.960938 315.78125c5.332031-13.609375 8.191406-28.058594 8.445312-42.667969 0-32.855469 20.226562-121.429687 88.066406-191.574219 13.3125-13.851562 30.257813-23.667968 48.894532-28.332031 9.730468 50.945313 40.789062 270.082031-145.40625 262.574219zm0 0" fill="#e57e25"/><path d="m425.121094 315.78125c-186.195313 7.507812-155.132813-211.628906-145.40625-262.574219 18.636718 4.664063 35.582031 14.480469 48.894531 28.332031 67.839844 70.144532 88.066406 158.71875 88.066406 191.574219.253907 14.609375 3.113281 29.058594 8.445313 42.667969zm0 0" fill="#e57e25"/><path d="m25.761719 418.179688 25.515625 8.535156c-9.210938.019531-18.171875-2.976563-25.515625-8.535156zm0 0" fill="#fdd7ad"/><path d="m486.476562 418.179688c14.222657-10.636719 20.371094-28.96875 15.433594-46.03125-4.9375-17.058594-19.925781-29.277344-37.628906-30.671876-17.707031-1.398437-34.425781 8.320313-41.976562 24.394532l-4.09375 18.175781c-.007813-6.253906 1.359374-12.429687 4.011718-18.089844-11.261718 11.808594-26.417968 19.144531-42.667968 20.648438h-.085938c-1.496094.234375-3.007812.378906-4.523438.425781h-237.738281c-1.515625-.046875-3.023437-.191406-4.523437-.425781h-.082032c-16.25-1.503907-31.40625-8.839844-42.667968-20.648438-7.535156-16.078125-24.238282-25.808593-41.9375-24.433593-17.699219 1.375-32.699219 13.566406-37.664063 30.613281-4.960937 17.042969 1.148438 35.382812 15.34375 46.042969-16.050781 12.039062-21.546875 33.632812-13.199219 51.882812 8.347657 18.246094 28.277344 28.210938 47.882813 23.9375 19.605469-4.269531 33.585937-21.621094 33.585937-41.6875h324.265626c0 20.066406 13.980468 37.417969 33.585937 41.6875 19.601563 4.273438 39.535156-5.691406 47.878906-23.9375 8.347657-18.25 2.851563-39.84375-13.199219-51.882812zm-460.714843 0 25.515625 8.535156c-9.210938.019531-18.171875-2.976563-25.515625-8.535156zm64.171875-52.140626c2.640625 5.636719 4.007812 11.785157 4.011718 18.007813zm370.945312 43.605469c9.207032-.019531 18.171875 2.976563 25.511719 8.535157zm0 0" fill="#d1d4d1"/><path d="m460.878906 503.511719c-24.976562-.03125-46.296875-18.046875-50.492187-42.664063h-308.617188c-3.617187 21.46875-20.421875 38.304688-41.886719 41.964844-21.464843 3.65625-42.894531-6.660156-53.421874-25.71875-10.527344-19.0625-7.847657-42.695312 6.679687-58.914062-13.335937-14.820313-16.855469-36.039063-9.019531-54.371094 7.839844-18.335938 25.605468-30.453125 45.535156-31.054688 19.929688-.601562 38.398438 10.421875 47.324219 28.253906 9.796875 9.726563 22.660156 15.757813 36.40625 17.066407.265625.019531.527343.054687.792969.101562 1.074218.164063 2.160156.265625 3.25.296875h237.515624c1.011719-.042968 2.019532-.140625 3.023438-.296875.28125-.050781.566406-.089843.851562-.113281 13.71875-1.316406 26.554688-7.347656 36.328126-17.066406 8.949218-17.789063 27.402343-28.777344 47.308593-28.164063 19.90625.609375 37.652344 12.710938 45.492188 31.015625 7.84375 18.308594 4.355469 39.5-8.9375 54.332032 13.457031 15.046874 16.820312 36.59375 8.582031 55.023437-8.234375 18.429687-26.53125 30.300781-46.714844 30.308594zm-366.933594-59.730469h324.265626c4.710937 0 8.53125 3.820312 8.53125 8.53125-.003907 15.894531 10.960937 29.691406 26.449218 33.273438 15.484375 3.578124 31.394532-4.003907 38.363282-18.292969 6.96875-14.285157 3.15625-31.492188-9.199219-41.492188l-24.175781-8.054687c-3.972657-1.320313-6.402344-5.332032-5.730469-9.464844.667969-4.132812 4.238281-7.171875 8.429687-7.167969 8.65625-.007812 17.175782 2.195313 24.746094 6.398438 9.222656-9.707031 11.917969-23.910157 6.890625-36.320313-5.023437-12.410156-16.839844-20.738281-30.21875-21.292968-13.378906-.558594-25.847656 6.761718-31.882813 18.710937l-3.902343 17.304687c-.867188 3.867188-4.28125 6.625-8.242188 6.664063-3.960937.039063-7.429687-2.652344-8.371093-6.5-9.128907 4.804687-19.082032 7.855469-29.335938 8.992187h-.113281c-1.679688.246094-3.371094.402344-5.066407.46875h-238.636718c-1.695313-.066406-3.386719-.222656-5.066406-.46875h-.113282c-10.253906-1.136718-20.207031-4.1875-29.335937-8.992187-.949219 3.847656-4.421875 6.535156-8.382813 6.488281-3.960937-.042968-7.371094-2.808594-8.230468-6.675781l-3.789063-17.066406c-6.21875-12.488281-19.410156-19.933594-33.316406-18.804688-13.902344 1.125-25.71875 10.601563-29.84375 23.925781-4.128907 13.324219.269531 27.820313 11.105469 36.605469l24.175781 8.054688c3.980469 1.308593 6.425781 5.320312 5.761719 9.460937-.667969 4.140625-4.242188 7.183594-8.433594 7.179688-8.660156.007812-17.175782-2.195313-24.746094-6.398438-10.570312 11.125-12.414062 27.9375-4.511719 41.089844 7.90625 13.152344 23.617188 19.414062 38.402344 15.304688 14.785156-4.109376 25.007813-17.582032 24.988281-32.929688 0-4.710938 3.820313-8.53125 8.535156-8.53125zm0 0" fill="#a5a5a4"/><path d="m297.207031 327.15625c-3.308593 21.539062-20.949219 38.003906-42.664062 39.824219-21.71875-1.820313-39.359375-18.285157-42.667969-39.824219.003906-1.742188.292969-3.472656.851562-5.121094 4.011719-10.710937 21.164063-14.789062 41.816407-14.789062 23.550781 0 42.664062 5.273437 42.664062 19.910156zm0 0" fill="#2c2f38"/><g fill="#cb8252"><path d="m186.273438 375.511719c-1.113282-.011719-2.214844-.246094-3.242188-.679688-2.144531-.777343-3.832031-2.464843-4.609375-4.609375-.90625-2.066406-.90625-4.417968 0-6.484375.414063-1.046875 1.023437-2 1.792969-2.816406 1.996094-2.074219 4.910156-2.984375 7.730468-2.414063 2.820313.570313 5.148438 2.542969 6.179688 5.230469.910156 2.0625.910156 4.417969 0 6.484375-.433594 1.03125-1.039062 1.984375-1.792969 2.816406-1.605469 1.601563-3.789062 2.496094-6.058593 2.472657zm0 0"/><path d="m203.339844 401.113281c-1.113282-.015625-2.214844-.246093-3.242188-.683593-2.144531-.773438-3.832031-2.464844-4.605468-4.605469-.910157-2.070313-.910157-4.421875 0-6.488281.410156-1.042969 1.019531-2 1.789062-2.816407 1.996094-2.074219 4.910156-2.984375 7.730469-2.414062 2.820312.570312 5.152343 2.546875 6.179687 5.230469.914063 2.066406.914063 4.421874 0 6.488281-.433594 1.03125-1.039062 1.984375-1.792968 2.8125-1.605469 1.605469-3.789063 2.496093-6.058594 2.476562zm0 0"/><path d="m322.808594 375.511719c1.113281-.011719 2.214844-.246094 3.242187-.679688 2.144531-.777343 3.832031-2.464843 4.609375-4.609375.90625-2.066406.90625-4.417968 0-6.484375-.414062-1.046875-1.023437-2-1.792968-2.816406-1.992188-2.074219-4.910157-2.984375-7.730469-2.414063-2.816407.570313-5.148438 2.542969-6.179688 5.230469-.910156 2.0625-.910156 4.417969 0 6.484375.433594 1.03125 1.042969 1.984375 1.792969 2.816406 1.605469 1.601563 3.789062 2.496094 6.058594 2.472657zm0 0"/><path d="m305.742188 401.113281c1.113281-.015625 2.214843-.246093 3.242187-.683593 2.144531-.773438 3.832031-2.464844 4.605469-4.605469.910156-2.070313.910156-4.421875 0-6.488281-.410156-1.042969-1.019532-2-1.789063-2.816407-1.996093-2.074219-4.910156-2.984375-7.730469-2.414062-2.820312.570312-5.148437 2.546875-6.179687 5.230469-.910156 2.066406-.910156 4.421874 0 6.488281.433594 1.03125 1.039063 1.984375 1.792969 2.8125 1.605468 1.605469 3.789062 2.496093 6.058594 2.476562zm0 0"/></g><path d="m254.542969 324.3125c0-4.710938-7.644531-8.53125-17.070313-8.53125-9.425781 0-17.066406 3.820312-17.066406 8.53125 0 4.714844 7.640625 8.535156 17.066406 8.535156 9.425782 0 17.070313-3.820312 17.070313-8.535156zm0 0" fill="#35495e"/><path d="m194.808594 230.445312c0 14.140626-11.460938 25.601563-25.601563 25.601563-14.136719 0-25.597656-11.460937-25.597656-25.601563 0-14.136718 11.460937-25.597656 25.597656-25.597656 14.140625 0 25.601563 11.460938 25.601563 25.597656zm0 0" fill="#d1d4d1"/><path d="m186.273438 230.445312c0 9.425782-7.640626 17.066407-17.066407 17.066407s-17.066406-7.640625-17.066406-17.066407c0-9.425781 7.640625-17.066406 17.066406-17.066406s17.066407 7.640625 17.066407 17.066406zm0 0" fill="#e4c05c"/><path d="m177.742188 230.445312c0 4.714844-3.820313 8.535157-8.535157 8.535157-4.710937 0-8.53125-3.820313-8.53125-8.535157 0-4.710937 3.820313-8.53125 8.53125-8.53125 4.714844 0 8.535157 3.820313 8.535157 8.53125zm0 0" fill="#2c2f38"/><path d="m169.207031 221.914062c0 4.710938-3.820312 8.53125-8.53125 8.53125-4.714843 0-8.535156-3.820312-8.535156-8.53125 0-4.714843 3.820313-8.535156 8.535156-8.535156 4.710938 0 8.53125 3.820313 8.53125 8.535156zm0 0" fill="#fff"/><path d="m365.472656 230.445312c0 14.140626-11.460937 25.601563-25.597656 25.601563-14.140625 0-25.601562-11.460937-25.601562-25.601563 0-14.136718 11.460937-25.597656 25.601562-25.597656 14.136719 0 25.597656 11.460938 25.597656 25.597656zm0 0" fill="#d1d4d1"/><path d="m356.941406 230.445312c0 9.425782-7.640625 17.066407-17.066406 17.066407s-17.066406-7.640625-17.066406-17.066407c0-9.425781 7.640625-17.066406 17.066406-17.066406s17.066406 7.640625 17.066406 17.066406zm0 0" fill="#e4c05c"/><path d="m348.40625 230.445312c0 4.714844-3.820312 8.535157-8.53125 8.535157-4.714844 0-8.535156-3.820313-8.535156-8.535157 0-4.710937 3.820312-8.53125 8.535156-8.53125 4.710938 0 8.53125 3.820313 8.53125 8.53125zm0 0" fill="#2c2f38"/><path d="m339.875 221.914062c0 4.710938-3.820312 8.53125-8.535156 8.53125-4.710938 0-8.53125-3.820312-8.53125-8.53125 0-4.714843 3.820312-8.535156 8.53125-8.535156 4.714844 0 8.535156 3.820313 8.535156 8.535156zm0 0" fill="#fff"/><path d="m358.476562 375.511719c-.480468 2.882812-1.136718 5.730469-1.960937 8.535156-1.855469 6.726563-4.582031 13.179687-8.109375 19.199219-10.035156 15.667968-27.660156 24.804687-46.25 23.980468-2.59375.027344-5.1875-.113281-7.765625-.429687-12.800781-.945313-24.402344-7.871094-31.316406-18.6875-3.777344-7.496094-5.984375-15.683594-6.484375-24.0625-.511719-5.71875-.511719-11.433594-.511719-17.066406 0 5.632812 0 11.347656-.511719 17.066406-.5 8.378906-2.707031 16.566406-6.488281 24.0625-6.910156 10.816406-18.515625 17.742187-31.316406 18.6875-21.074219 3.503906-42.238281-5.722656-54.015625-23.550781-3.523438-6.019532-6.25-12.472656-8.105469-19.199219-.824219-2.804687-1.480469-5.652344-1.964844-8.535156zm0 0" fill="#fdd7ad"/><path d="m358.359375 367.097656c-4.640625-.75-9.019531 2.363282-9.832031 6.988282-1.492188 8.765624-4.550782 17.1875-9.019532 24.867187-10 17.066406-30.832031 21.164063-45.6875 19.371094-10.039062-.710938-19.1875-6.003907-24.808593-14.351563-4.90625-11.679687-6.941407-24.363281-5.9375-36.992187 0-4.714844-3.820313-8.535157-8.53125-8.535157-4.714844 0-8.535157 3.820313-8.535157 8.535157.992188 12.628906-1.054687 25.316406-5.972656 36.992187-5.617187 8.347656-14.769531 13.640625-24.808594 14.351563-14.820312 1.792969-35.683593-2.261719-45.6875-19.371094-4.46875-7.683594-7.523437-16.105469-9.019531-24.867187-.507812-3.003907-2.582031-5.511719-5.441406-6.570313-2.855469-1.0625-6.0625-.519531-8.414063 1.421875-2.347656 1.945312-3.480468 4.996094-2.972656 8 1.835938 10.792969 5.59375 21.171875 11.09375 30.636719 11.589844 18.238281 31.96875 28.976562 53.566406 28.226562 2.980469-.011719 5.957032-.195312 8.914063-.554687 15.230469-1.214844 29.019531-9.476563 37.277344-22.332032 8.253906 12.851563 22.035156 21.113282 37.261719 22.332032 2.945312.347656 5.90625.527344 8.867187.527344 21.582031.753906 41.949219-9.976563 53.539063-28.199219 5.503906-9.464844 9.261718-19.84375 11.09375-30.636719.789062-4.632812-2.316407-9.03125-6.945313-9.839844zm0 0" fill="#2c2f38"/></svg>