<svg height="498pt" viewBox="0 -11 498.97578 498" width="498pt" xmlns="http://www.w3.org/2000/svg"><path d="m350.0625 56.101562c-6.148438-6.082031-13.0625-11.339843-20.570312-15.632812-24.679688-13.097656-52.074219-20.257812-80.003907-20.921875-27.929687.667969-55.320312 7.832031-79.996093 20.929687-7.507813 4.289063-14.425782 9.542969-20.578126 15.625l-57.703124 184.671876c.644531 5.550781 1.589843 11.058593 2.824218 16.507812 10.105469 41.917969 34.675782 78.929688 69.382813 104.519531h172.140625c34.707031-25.589843 59.273437-62.601562 69.382812-104.519531 1.234375-5.449219 2.175782-10.957031 2.824219-16.507812" fill="#804537"/><path d="m295.214844 477.175781c-27.453125 0-45.726563-9.179687-45.726563-36.632812 0 27.453125-18.273437 36.632812-45.726562 36.632812s-54.820313-27.453125-45.726563-91.539062c1.175782-7.957031 2.976563-15.808594 5.382813-23.484375 0-.085938.089843-.261719.089843-.351563 16.859376-54.378906 59.675782-104.519531 67.707032-168.34375.53125-4.332031.796875-8.695312.792968-13.0625 0-61.707031-51.109374-126.148437-62.496093-139.917969 24.671875-13.089843 52.054687-20.253906 79.976562-20.921874 27.921875.667968 55.304688 7.832031 79.976563 20.921874-11.386719 13.769532-62.5 78.210938-62.5 139.917969 0 4.367188.265625 8.730469.796875 13.0625 8.03125 63.824219 50.847656 113.964844 67.707031 168.34375 0 .089844.089844.265625.089844.351563 2.40625 7.675781 4.207031 15.527344 5.382812 23.484375 9.09375 64.085937-18.273437 91.539062-45.726562 91.539062zm0 0" fill="#cb9080"/><path d="m293.625 356.59375c-.1875 4.46875-1.363281 8.839844-3.441406 12.796875-7.476563 16.082031-23.019532 26.902344-40.695313 28.339844-16.328125-1.183594-30.949219-10.550781-38.839843-24.894531-3.109376-4.882813-4.933594-10.46875-5.296876-16.242188.011719-1.800781.308594-3.589844.882813-5.296875 4.148437-11.125 21.890625-15.359375 43.253906-15.359375 24.363281 0 44.136719 5.472656 44.136719 20.65625zm0 0" fill="#2c3e50"/><path d="m136.414062 146.847656c-3.957031.003906-7.433593-2.628906-8.503906-6.4375-1.070312-3.8125.527344-7.867187 3.90625-9.925781 10.636719-6.570313 22.894532-10.046875 35.398438-10.03125 4.875 0 8.828125 3.953125 8.828125 8.828125s-3.953125 8.828125-8.828125 8.828125c-9.261719 0-18.34375 2.585937-26.21875 7.460937-1.378906.835938-2.964844 1.277344-4.582032 1.277344zm0 0" fill="#2c2f38"/><path d="m362.558594 146.847656c-1.613282 0-3.199219-.445312-4.578125-1.289062-7.878907-4.875-16.957031-7.457032-26.21875-7.457032-4.875 0-8.828125-3.953124-8.828125-8.828124s3.953125-8.828126 8.828125-8.828126c12.5-.011718 24.753906 3.460938 35.390625 10.027344 3.378906 2.058594 4.976562 6.117188 3.902344 9.929688-1.070313 3.808594-4.546876 6.441406-8.503907 6.4375zm0 0" fill="#2c2f38"/><g fill="#59474e"><path d="m187.695312 424.210938c-1.152343-.011719-2.292968-.253907-3.355468-.707032-1.066406-.449218-2.054688-1.074218-2.914063-1.851562-1.609375-1.691406-2.523437-3.929688-2.558593-6.269532.015624-1.152343.253906-2.292968.707031-3.351562.445312-1.070312 1.074219-2.054688 1.851562-2.914062.84375-.800782 1.832031-1.429688 2.914063-1.855469 1.609375-.703125 3.398437-.886719 5.121094-.527344.550781.09375 1.089843.273437 1.589843.527344.5625.195312 1.09375.460937 1.585938.796875.464843.324218.90625.679687 1.324219 1.058594.78125.859374 1.40625 1.84375 1.855468 2.914062.941406 2.136719.941406 4.570312 0 6.707031-.449218 1.070313-1.078125 2.054688-1.855468 2.914063l-1.324219 1.058594c-.492188.335937-1.023438.601562-1.585938.792968-.503906.253906-1.039062.433594-1.589843.53125-.585938.101563-1.175782.160156-1.765626.175782zm0 0"/><path d="m214.175781 441.867188c-1.152343-.015626-2.292969-.253907-3.351562-.707032-1.070313-.449218-2.054688-1.074218-2.914063-1.851562-1.613281-1.695313-2.527344-3.933594-2.558594-6.269532.011719-1.152343.253907-2.292968.703126-3.355468.449218-1.066406 1.074218-2.054688 1.855468-2.910156.84375-.800782 1.832032-1.429688 2.914063-1.855469 1.609375-.703125 3.398437-.890625 5.117187-.53125.554688.097656 1.089844.277343 1.589844.53125.5625.191406 1.097656.460937 1.589844.792969.460937.328124.902344.679687 1.324218 1.0625.777344.859374 1.40625 1.84375 1.855469 2.910156.941407 2.136718.941407 4.574218 0 6.710937-.449219 1.066407-1.078125 2.054688-1.855469 2.914063l-1.324218 1.058594c-.492188.332031-1.027344.601562-1.589844.792968-.5.253906-1.035156.433594-1.589844.53125-.582031.101563-1.171875.160156-1.765625.175782zm0 0"/><path d="m311.28125 424.210938c1.152344-.011719 2.292969-.253907 3.355469-.707032 1.066406-.449218 2.050781-1.074218 2.910156-1.851562 1.613281-1.691406 2.527344-3.929688 2.5625-6.269532-.015625-1.152343-.253906-2.292968-.707031-3.351562-.449219-1.070312-1.074219-2.054688-1.855469-2.914062-.839844-.800782-1.832031-1.429688-2.910156-1.855469-1.613281-.703125-3.402344-.886719-5.121094-.527344-.554687.09375-1.089844.273437-1.589844.527344-.5625.195312-1.097656.460937-1.589843.796875-.460938.324218-.902344.679687-1.324219 1.058594-.777344.859374-1.402344 1.84375-1.851563 2.914062-.941406 2.136719-.941406 4.570312 0 6.707031.449219 1.070313 1.074219 2.054688 1.851563 2.914063l1.324219 1.058594c.492187.335937 1.027343.601562 1.589843.792968.5.253906 1.035157.433594 1.589844.53125.582031.101563 1.171875.160156 1.765625.175782zm0 0"/><path d="m284.796875 441.867188c1.15625-.015626 2.292969-.253907 3.355469-.707032 1.070312-.449218 2.054687-1.074218 2.914062-1.851562 1.613282-1.695313 2.527344-3.933594 2.558594-6.269532-.011719-1.152343-.253906-2.292968-.707031-3.355468-.445313-1.066406-1.074219-2.054688-1.851563-2.910156-.84375-.800782-1.832031-1.429688-2.914062-1.855469-1.609375-.703125-3.398438-.890625-5.121094-.53125-.550781.097656-1.085938.277343-1.585938.53125-.5625.191406-1.097656.460937-1.589843.792969-.460938.328124-.90625.679687-1.324219 1.0625-.777344.859374-1.40625 1.84375-1.855469 2.910156-.941406 2.136718-.941406 4.574218 0 6.710937.449219 1.066407 1.078125 2.054688 1.855469 2.914063l1.324219 1.058594c.492187.332031 1.027343.601562 1.589843.792968.5.253906 1.035157.433594 1.585938.53125.585938.101563 1.175781.160156 1.765625.175782zm0 0"/><path d="m.550781 129.105469c1.515625 7.023437 3.703125 13.882812 6.53125 20.488281 13.382813 34.066406 28.019531 67.167969 38.046875 102.355469.925782 3.242187 1.808594 6.496093 2.648438 9.765625 2.332031 7.105468 8.558594 12.226562 15.984375 13.148437 7.421875.917969 14.710937-2.527343 18.707031-8.851562 39.433594-62.488281 99.257812-178.847657 53.300781-251.804688 0 0-17.945312-32.398437-48.445312 2.382813-11.863281 13.53125-23.832031 27.753906-36.128907 41.214844-12.808593 14-26.855468 26.835937-40.210937 40.359374-8.578125 7.824219-12.523437 19.519532-10.433594 30.941407zm0 0"/><path d="m498.425781 129.105469c-1.519531 7.023437-3.707031 13.882812-6.53125 20.488281-13.390625 34.058594-28.027343 67.152344-38.058593 102.402344-.921876 3.242187-1.804688 6.496094-2.648438 9.761718-2.332031 7.105469-8.558594 12.230469-15.980469 13.148438-7.425781.921875-14.710937-2.527344-18.710937-8.847656-39.421875-62.535156-99.246094-178.894532-53.292969-251.851563 0 0 17.949219-32.398437 48.449219 2.382813 11.863281 13.53125 23.832031 27.753906 36.128906 41.214844 12.808594 14 26.855469 26.835937 40.210938 40.359374 8.578124 7.824219 12.523437 19.519532 10.433593 30.941407zm0 0"/></g><path d="m196.523438 203.523438c0 14.625-11.859376 26.480468-26.484376 26.480468s-26.480468-11.855468-26.480468-26.480468c0-14.628907 11.855468-26.484376 26.480468-26.484376s26.484376 11.855469 26.484376 26.484376zm0 0" fill="#fff"/><path d="m187.695312 203.523438c0 9.75-7.90625 17.652343-17.65625 17.652343s-17.65625-7.902343-17.65625-17.652343c0-9.753907 7.90625-17.65625 17.65625-17.65625s17.65625 7.902343 17.65625 17.65625zm0 0" fill="#e4c05c"/><path d="m178.867188 203.523438c0 4.875-3.953126 8.828124-8.828126 8.828124s-8.828124-3.953124-8.828124-8.828124 3.953124-8.828126 8.828124-8.828126 8.828126 3.953126 8.828126 8.828126zm0 0" fill="#2c2f38"/><path d="m170.039062 194.695312c0 4.875-3.953124 8.828126-8.828124 8.828126s-8.828126-3.953126-8.828126-8.828126 3.953126-8.828124 8.828126-8.828124 8.828124 3.953124 8.828124 8.828124zm0 0" fill="#fff"/><path d="m355.417969 203.523438c0 14.625-11.855469 26.480468-26.480469 26.480468-14.628906 0-26.484375-11.855468-26.484375-26.480468 0-14.628907 11.855469-26.484376 26.484375-26.484376 14.625 0 26.480469 11.855469 26.480469 26.484376zm0 0" fill="#fff"/><path d="m346.589844 203.523438c0 9.75-7.902344 17.652343-17.652344 17.652343-9.753906 0-17.65625-7.902343-17.65625-17.652343 0-9.753907 7.902344-17.65625 17.65625-17.65625 9.75 0 17.652344 7.902343 17.652344 17.65625zm0 0" fill="#e4c05c"/><path d="m337.765625 203.523438c0 4.875-3.953125 8.828124-8.828125 8.828124s-8.828125-3.953124-8.828125-8.828124 3.953125-8.828126 8.828125-8.828126 8.828125 3.953126 8.828125 8.828126zm0 0" fill="#2c2f38"/><path d="m328.9375 194.695312c0 4.875-3.953125 8.828126-8.828125 8.828126s-8.828125-3.953126-8.828125-8.828126 3.953125-8.828124 8.828125-8.828124 8.828125 3.953124 8.828125 8.828124zm0 0" fill="#fff"/></svg>