<svg height="512pt" viewBox="0 0 511 512" width="512pt" xmlns="http://www.w3.org/2000/svg"><path d="m185.859375 88.277344v-61.792969h-70.621094l-17.65625 114.757813 158.898438 26.480468 150.070312-26.480468-17.65625-114.757813h-52.964843l-26.484376 70.617187zm0 0" fill="#59474e"/><path d="m387.039062 268.445312c-13.769531-42.988281 10.683594-91.894531 10.683594-91.894531l-8.828125-44.136719s-8.625-86.246093-119.648437-96.769531c-2.589844-.238281-5.234375-.335937-7.832032-.335937h-9.867187c-2.597656 0-5.246094.097656-7.832031.335937-111.023438 10.523438-119.648438 96.769531-119.648438 96.769531l-8.828125 44.136719s24.453125 48.90625 10.683594 91.894531l130.558594 31.691407zm0 0" fill="#804537"/><path d="m265.308594 291.308594s70.621094-52.964844 132.414062-17.652344c61.792969 35.308594 61.792969 70.621094 61.792969 70.621094-12.015625-10.746094-28.914063-14.125-44.140625-8.828125 15.878906 16.804687 25.261719 38.707031 26.484375 61.792969-11.058594-5.285157-23.066406-8.285157-35.308594-8.828126 0 0 17.652344 26.484376 8.824219 52.964844 0 0-17.652344-17.65625-35.308594-8.828125 10.160156 16.195313 10.160156 36.773438 0 52.964844 0 0-8.828125-35.308594-35.3125-26.480469 0 0 8.828125 35.308594-8.824218 44.136719 0 0-8.828126-26.480469-35.3125-26.480469 0 0-44.136719 0-44.136719 35.308594 0-35.308594-44.136719-35.308594-44.136719-35.308594-26.484375 0-35.3125 26.480469-35.3125 26.480469-17.65625-8.828125-8.828125-44.136719-8.828125-44.136719-26.480469-8.828125-35.308594 26.480469-35.308594 26.480469-10.164062-16.191406-10.164062-36.769531 0-52.964844-17.65625-8.828125-35.3125 8.828125-35.3125 8.828125-8.828125-26.480468 8.828125-52.964844 8.828125-52.964844-12.242187.542969-24.25 3.542969-35.308594 8.828126 1.21875-23.085938 10.605469-44.988282 26.480469-61.792969-15.222656-5.296875-32.121093-1.917969-44.136719 8.828125 0 0 0-35.3125 61.792969-70.621094 61.792969-35.3125 132.414063 17.652344 132.414063 17.652344zm0 0" fill="#cb8252"/><path d="m335.929688 503.171875s-8.828126-26.480469-35.3125-26.480469c0 0-44.136719 0-44.136719 35.308594 0-35.308594-44.136719-35.308594-44.136719-35.308594-26.484375 0-35.3125 26.480469-35.3125 26.480469-17.65625-8.828125-8.828125-44.136719-8.828125-44.136719 2.523437-6.367187 6.339844-12.136718 11.210937-16.949218 10.386719-8.628907 22.351563-15.164063 35.222657-19.246094 13.625-5.710938 24.703125-16.195313 31.160156-29.484375 5.089844-9.890625 8.6875-20.480469 10.683594-31.425781 1.992187 10.945312 5.59375 21.535156 10.679687 31.425781 6.460938 13.289062 17.535156 23.773437 31.164063 29.484375 12.871093 4.082031 24.832031 10.617187 35.21875 19.246094 4.871093 4.8125 8.691406 10.582031 11.210937 16.949218 0 0 8.828125 35.308594-8.824218 44.136719zm0 0" fill="#804537"/><path d="m176.148438 56.496094c-1.058594-7.769532-4.679688-21.1875-17.476563-21.1875-17.921875 0-34.429687 33.8125-34.429687 95.515625v.175781c.855468 25.625-8.476563 50.542969-25.953126 69.296875-1.941406 2.429687-4.992187 3.683594-8.082031 3.324219-3.085937-.355469-5.769531-2.28125-7.101562-5.089844-5.789063-11.554688-13.589844-21.988281-23.039063-30.808594-26.835937-26.480468-17.921875-35.308594-44.757812-61.792968-26.835938-26.480469-9.003906-44.136719-9.003906-44.136719s134.445312-61.792969 170.285156-61.792969c26.308594 0 28.511718 28.511719 27.71875 43.695312" fill="#cb8252"/><path d="m309.445312 314.855469c0 17.328125-23.710937 47.074219-52.964843 47.074219-29.253907 0-52.964844-29.746094-52.964844-47.074219 0-17.332031 23.710937-23.546875 52.964844-23.546875 29.253906 0 52.964843 6.179687 52.964843 23.546875zm0 0" fill="#2c3e50"/><path d="m336.8125 56.496094c1.058594-7.769532 4.675781-21.1875 17.476562-21.1875 17.921876 0 34.429688 33.8125 34.429688 95.515625v.175781c-.859375 25.625 8.472656 50.542969 25.953125 69.296875 1.9375 2.429687 4.992187 3.683594 8.078125 3.324219 3.089844-.355469 5.773438-2.28125 7.105469-5.089844 5.789062-11.554688 13.589843-21.988281 23.039062-30.808594 26.835938-26.480468 17.917969-35.308594 44.753907-61.792968 26.835937-26.480469 9.003906-44.136719 9.003906-44.136719s-134.441406-61.792969-170.28125-61.792969c-26.308594 0-28.515625 28.511719-27.71875 43.695312" fill="#cb8252"/><path d="m256.480469 308.964844c0-4.875-7.90625-8.828125-17.65625-8.828125s-17.65625 3.953125-17.65625 8.828125 7.90625 8.828125 17.65625 8.828125 17.65625-3.953125 17.65625-8.828125zm0 0" fill="#35495e"/><path d="m229.996094 207.449219c0 17.0625-13.832032 30.894531-30.894532 30.894531-17.066406 0-30.898437-13.832031-30.898437-30.894531 0-17.066407 13.832031-30.898438 30.898437-30.898438 17.0625 0 30.894532 13.832031 30.894532 30.898438zm0 0" fill="#d1d4d1"/><path d="m219.695312 207.449219c0 11.375-9.21875 20.59375-20.59375 20.59375s-20.59375-9.21875-20.59375-20.59375 9.21875-20.59375 20.59375-20.59375 20.59375 9.21875 20.59375 20.59375zm0 0" fill="#e4c05c"/><path d="m209.402344 207.449219c0 5.6875-4.613282 10.300781-10.300782 10.300781-5.691406 0-10.300781-4.613281-10.300781-10.300781 0-5.691407 4.609375-10.304688 10.300781-10.304688 5.6875 0 10.300782 4.613281 10.300782 10.304688zm0 0" fill="#2c2f38"/><path d="m199.101562 197.144531c0 5.691407-4.613281 10.304688-10.300781 10.304688-5.691406 0-10.304687-4.613281-10.304687-10.304688 0-5.6875 4.613281-10.300781 10.304687-10.300781 5.6875 0 10.300781 4.613281 10.300781 10.300781zm0 0" fill="#fff"/><path d="m344.753906 207.449219c0 17.0625-13.832031 30.894531-30.894531 30.894531s-30.898437-13.832031-30.898437-30.894531c0-17.066407 13.835937-30.898438 30.898437-30.898438s30.894531 13.832031 30.894531 30.898438zm0 0" fill="#d1d4d1"/><path d="m334.453125 207.449219c0 11.375-9.21875 20.59375-20.59375 20.59375s-20.59375-9.21875-20.59375-20.59375 9.21875-20.59375 20.59375-20.59375 20.59375 9.21875 20.59375 20.59375zm0 0" fill="#e4c05c"/><path d="m324.160156 207.449219c0 5.6875-4.613281 10.300781-10.300781 10.300781-5.691406 0-10.300781-4.613281-10.300781-10.300781 0-5.691407 4.609375-10.304688 10.300781-10.304688 5.6875 0 10.300781 4.613281 10.300781 10.304688zm0 0" fill="#2c2f38"/><path d="m313.859375 197.144531c0 5.691407-4.613281 10.304688-10.300781 10.304688-5.691406 0-10.304688-4.613281-10.304688-10.304688 0-5.6875 4.613282-10.300781 10.304688-10.300781 5.6875 0 10.300781 4.613281 10.300781 10.300781zm0 0" fill="#fff"/><g fill="#cb8252"><path d="m165.140625 178.105469c24.15625 4.066406 46.539063 15.277343 64.265625 32.183593 1.382812 1.28125 3.425781 1.542969 5.089844.648438 1.660156-.890625 2.570312-2.742188 2.261718-4.601562-4.535156-25.484376-17.960937-76.527344-53.148437-82.230469-1.484375-.242188-2.988281.273437-4.011719 1.375-1.019531 1.101562-1.425781 2.640625-1.074218 4.101562l6.472656 25.871094c.5 2.003906-.460938 4.089844-2.304688 5.015625l-18.714844 9.355469c-1.691406.851562-2.652343 2.683593-2.386718 4.558593.261718 1.875 1.691406 3.371094 3.550781 3.722657zm0 0"/><path d="m347.820312 178.105469c-24.15625 4.066406-46.539062 15.277343-64.265624 32.183593-1.382813 1.28125-3.429688 1.542969-5.089844.648438-1.660156-.890625-2.570313-2.742188-2.265625-4.601562 4.539062-25.484376 17.964843-76.527344 53.152343-82.230469 1.480469-.242188 2.988282.273437 4.011719 1.375 1.019531 1.101562 1.425781 2.640625 1.074219 4.101562l-6.453125 25.878907c-.5 2.007812.457031 4.089843 2.304687 5.015624l18.710938 9.355469c1.683594.859375 2.636719 2.691407 2.371094 4.5625-.269532 1.867188-1.695313 3.359375-3.550782 3.710938zm0 0"/></g></svg>