<svg height="511pt" viewBox="-39 0 511 511.95357" width="511pt" xmlns="http://www.w3.org/2000/svg"><path d="m395.082031 281.980469h.089844c1.742187 1.617187 3.628906 3.066406 5.640625 4.339843 3.113281 2.058594 6.765625 3.144532 10.5 3.125 4.585938-.191406 8.601562-3.144531 10.152344-7.464843 1.015625-3.105469 1.425781-6.375 1.214844-9.632813-.957032-17.5-4.074219-34.8125-9.285157-51.546875-3.644531-14.144531-7.378906-28.203125-11.023437-42.347656-3.207032-13.515625-5.296875-27.273437-6.246094-41.132813-1.5625-16.230468-3.296875-32.542968-4.859375-48.773437l-9.894531-26.726563c.578125 17.121094 10.699218 32.472657 26.207031 39.746094 5.382813 3.035156 13.972656 5.8125 18.570313.171875 4.511718-6.167969 7.214843-13.46875 7.8125-21.085937 4.328124-24.179688-6.101563-48.621094-26.554688-62.222656-23.699219-14.5625-54.101562-12.105469-75.152344 6.074218l-1.734375 27.5625c4.339844-10.960937 6.300781-26.09375-3.472656-35.03125-10.925781-9.972656-28.886719-8.941406-42.675781-7.316406-22.730469 3.613281-45.058594 9.425781-66.664063 17.355469-21.609375-7.929688-43.933593-13.742188-66.664062-17.355469-13.789063-1.625-31.753907-2.65625-42.679688 7.316406-9.773437 8.945313-7.808593 24.070313-3.472656 35.03125l-1.734375-27.597656c-21.050781-18.179688-51.453125-20.636719-75.152344-6.074219-20.464844 13.609375-30.898437 38.066407-26.554687 62.257813.597656 7.617187 3.300781 14.917968 7.8125 21.085937 4.597656 5.640625 13.191406 2.863281 18.570312-.171875 15.507813-7.273437 25.628907-22.625 26.207031-39.746094l-10.066406 26.726563c-1.5625 16.230469-3.296875 32.542969-4.859375 48.773437-.949219 13.859376-3.039062 27.617188-6.25 41.132813-3.644531 14.144531-7.375 28.203125-11.019531 42.347656-5.210938 16.734375-8.328125 34.046875-9.285156 51.546875-.214844 3.257813.199218 6.527344 1.214844 9.632813 1.550781 4.320312 5.566406 7.273437 10.152343 7.464843 3.734375.019532 7.386719-1.066406 10.5-3.125 2.007813-1.273437 3.898438-2.722656 5.640625-4.339843zm0 0" fill="#547580"/><path d="m332.886719 10.621094c-13.128907-11.992188-32.410157-11.542969-49.542969-9.511719-20.773438 3.097656-41.199219 8.230469-60.96875 15.324219l-4.667969 1.503906-4.671875-1.503906c-19.769531-7.09375-40.191406-12.226563-60.96875-15.324219-17.132812-2.011719-36.449218-2.480469-49.542968 9.546875-10.726563 9.804688-12.851563 26.484375-5.703126 44.628906 1.09375 2.945313 3.695313 5.070313 6.800782 5.554688 3.105468.484375 6.230468-.75 8.167968-3.222656 1.9375-2.472657 2.386719-5.800782 1.171876-8.699219-3.398438-8.628907-4.859376-19.847657 1.269531-25.445313 8.015625-7.367187 23.335937-6.613281 35.785156-5.128906 19.660156 2.949219 38.976563 7.832031 57.675781 14.578125l7.367188 2.371094c.304687.050781.613281.085937.921875.101562 1.140625.253907 2.324219.253907 3.46875 0 .292969-.015625.582031-.046875.867187-.09375l7.367188-2.371093c18.710937-6.75 38.039062-11.636719 57.710937-14.585938 12.453125-1.492188 27.769531-2.238281 35.796875 5.09375 6.125 5.597656 4.667969 16.816406 1.265625 25.445312-1.644531 4.425782.554688 9.359376 4.949219 11.09375 4.394531 1.734376 9.371094-.367187 11.191406-4.726562 7.152344-18.144531 5.015625-34.824219-5.710937-44.628906zm0 0" fill="#35495e"/><path d="m217.707031 112.8125c-4.792969 0-8.679687-3.886719-8.679687-8.679688v-17.355468c0-4.792969 3.886718-8.675782 8.679687-8.675782s8.675781 3.882813 8.675781 8.675782v17.355468c0 4.792969-3.882812 8.679688-8.675781 8.679688zm0 0" fill="#35495e"/><path d="m182.992188 169.167969c0 26.378906-17.441407 47.726562-39.050782 47.726562-21.605468 0-39.050781-21.347656-39.050781-47.726562-.011719-6.378907 1.042969-12.714844 3.125-18.746094 2.898437-8.828125 8.441406-16.554687 15.882813-22.128906 7.335937-2.804688 14.878906-5.039063 22.5625-6.679688 10.976562 1.070313 20.875 7.070313 26.898437 16.3125 6.425781 9.140625 9.796875 20.074219 9.632813 31.242188zm0 0" fill="#fff"/><path d="m165.636719 169.167969c0 11.980469-9.710938 21.695312-21.695313 21.695312-11.980468 0-21.695312-9.714843-21.695312-21.695312 0-11.984375 9.714844-21.695313 21.695312-21.695313 11.984375 0 21.695313 9.710938 21.695313 21.695313zm0 0" fill="#b0d3f0"/><path d="m143.941406 180.015625c-1.417968-.019531-2.816406-.3125-4.121094-.867187-1.3125-.550782-2.519531-1.320313-3.574218-2.277344-1.980469-2.074219-3.105469-4.824219-3.152344-7.695313.019531-1.417969.3125-2.816406.871094-4.121093.550781-1.3125 1.320312-2.523438 2.28125-3.578126 1.035156-.980468 2.246094-1.753906 3.574218-2.28125 1.980469-.859374 4.179688-1.085937 6.292969-.640624.679688.113281 1.335938.332031 1.953125.640624.691406.238282 1.347656.570313 1.949219.980469.566406.402344 1.109375.835938 1.625 1.300781.953125 1.058594 1.722656 2.265626 2.273437 3.578126 1.15625 2.625 1.15625 5.617187 0 8.242187-.550781 1.316406-1.320312 2.527344-2.273437 3.585937l-1.625 1.300782c-.601563.410156-1.257813.742187-1.949219.980468-.617187.3125-1.273437.53125-1.953125.652344-.71875.117188-1.445312.183594-2.171875.199219zm0 0" fill="#2c2f38"/><path d="m143.941406 158.320312c0 5.988282-4.855468 10.847657-10.847656 10.847657-5.988281 0-10.847656-4.859375-10.847656-10.847657 0-5.992187 4.859375-10.847656 10.847656-10.847656 5.992188 0 10.847656 4.855469 10.847656 10.847656zm0 0" fill="#fff"/><path d="m330.519531 169.167969c0 26.378906-17.441406 47.726562-39.050781 47.726562s-39.050781-21.347656-39.050781-47.726562c-.160157-11.167969 3.210937-22.101563 9.632812-31.242188 6.023438-9.242187 15.921875-15.242187 26.902344-16.3125 7.679687 1.640625 15.222656 3.875 22.5625 6.679688 7.4375 5.574219 12.980469 13.300781 15.878906 22.128906 2.082031 6.03125 3.140625 12.367187 3.125 18.746094zm0 0" fill="#fff"/><path d="m313.164062 169.167969c0 11.980469-9.714843 21.695312-21.695312 21.695312s-21.695312-9.714843-21.695312-21.695312c0-11.984375 9.714843-21.695313 21.695312-21.695313s21.695312 9.710938 21.695312 21.695313zm0 0" fill="#b0d3f0"/><path d="m291.46875 180.015625c-1.417969-.019531-2.820312-.3125-4.121094-.867187-1.3125-.550782-2.523437-1.320313-3.578125-2.277344-1.980469-2.074219-3.105469-4.824219-3.148437-7.695313.015625-1.417969.3125-2.816406.867187-4.121093.550781-1.3125 1.324219-2.523438 2.28125-3.578126 1.035157-.980468 2.25-1.753906 3.578125-2.28125 1.976563-.859374 4.175782-1.085937 6.289063-.640624.679687.113281 1.339843.332031 1.953125.640624.691406.238282 1.347656.570313 1.953125.980469.566406.402344 1.109375.835938 1.621093 1.300781.957032 1.058594 1.722657 2.265626 2.273438 3.578126 1.160156 2.625 1.160156 5.617187 0 8.242187-.546875 1.316406-1.316406 2.527344-2.273438 3.585937l-1.621093 1.300782c-.605469.410156-1.261719.742187-1.953125.980468-.613282.3125-1.273438.53125-1.953125.652344-.714844.117188-1.441407.183594-2.167969.199219zm0 0" fill="#2c2f38"/><path d="m291.46875 158.320312c0 5.988282-4.855469 10.847657-10.847656 10.847657-5.992188 0-10.847656-4.859375-10.847656-10.847657 0-5.992187 4.855468-10.847656 10.847656-10.847656 5.992187 0 10.847656 4.855469 10.847656 10.847656zm0 0" fill="#fff"/><path d="m199.132812 139.660156c-2.410156 4.101563-7.675781 5.496094-11.800781 3.125-1.414062-.84375-2.894531-1.570312-4.425781-2.167968-3.066406-1.265626-6.269531-2.171876-9.546875-2.691407-16.234375-1.6875-32.621094 1.105469-47.378906 8.070313-5.683594 2.519531-11.761719 4.015625-17.964844 4.425781h-.867187c-9.414063.160156-18.152344-4.875-22.738282-13.101563-11.800781-18.832031-4.511718-42.785156 19.960938-65.605468 3.5-3.285156 8.996094-3.109375 12.28125.390625 3.28125 3.496093 3.105468 8.996093-.390625 12.277343-8.507813 7.898438-27.078125 27.945313-17.183594 43.738282 3.382813 5.378906 7.289063 7.027344 20.566406 1.820312 1.386719-.519531 2.777344-1.128906 4.253907-1.648437 7.335937-2.804688 14.878906-5.039063 22.5625-6.679688 14.320312-3.335937 29.308593-2.304687 43.042968 2.949219 2.25.894531 4.425782 1.96875 6.507813 3.210938 1.992187 1.160156 3.441406 3.066406 4.027343 5.296874.585938 2.230469.261719 4.601563-.90625 6.589844zm0 0" fill="#35495e"/><path d="m351 137.320312c-4.582031 8.226563-13.320312 13.261719-22.738281 13.101563h-.867188c-6.199219-.410156-12.28125-1.90625-17.964843-4.425781-14.773438-6.921875-31.148438-9.710938-47.378907-8.070313-3.300781.53125-6.535156 1.433594-9.632812 2.691407-1.496094.617187-2.945313 1.34375-4.339844 2.167968-4.121094 2.15625-9.207031.679688-11.535156-3.347656-2.328125-4.023438-1.066407-9.167969 2.859375-11.664062 2.058594-1.226563 4.203125-2.296876 6.417968-3.210938 13.765626-5.257812 28.78125-6.285156 43.132813-2.949219 7.679687 1.640625 15.222656 3.875 22.5625 6.679688 1.472656.519531 2.863281 1.128906 4.25 1.648437 13.277344 5.207032 17.183594 3.558594 20.566406-1.820312 9.894531-15.792969-8.675781-35.839844-17.179687-43.738282-2.265625-2.125-3.222656-5.292968-2.515625-8.316406.707031-3.019531 2.972656-5.433594 5.945312-6.332031 2.96875-.898437 6.195313-.144531 8.457031 1.980469 24.472657 22.820312 31.761719 46.773437 19.960938 65.605468zm0 0" fill="#35495e"/><path d="m280.742188 208.304688c62.601562 3.285156 116.480468 45.335937 134.871093 105.261718 10.527344 31.695313 13.105469 65.488282 7.515625 98.410156-3.949218 28.949219-15.929687 56.21875-34.582031 78.710938-25.703125 28.722656-69.882813 24.46875-102.199219 9.976562-17.542968-7.550781-33.210937-18.871093-45.898437-33.148437h-45.523438c-12.648437 14.320313-28.328125 25.640625-45.898437 33.148437-32.230469 14.492188-76.488282 18.746094-102.199219-9.976562-18.660156-22.480469-30.609375-49.757812-34.488281-78.710938-5.679688-32.917968-3.101563-66.734374 7.507812-98.410156 18.335938-59.933594 72.203125-102 134.796875-105.261718zm0 0" fill="#95a5a5"/><g fill="#2c3e50"><path d="m96.214844 269.042969c-.582032-.019531-1.164063-.078125-1.738282-.175781-.542968-.09375-1.066406-.269532-1.558593-.519532-.554688-.191406-1.078125-.453125-1.5625-.78125-.457031-.320312-.890625-.667968-1.304688-1.042968-1.582031-1.660157-2.480469-3.863282-2.515625-6.160157.015625-1.132812.25-2.253906.695313-3.296875.441406-1.050781 1.054687-2.019531 1.820312-2.863281l1.304688-1.042969c.484375-.328125 1.007812-.589844 1.5625-.78125.488281-.25 1.015625-.425781 1.558593-.519531 1.144532-.261719 2.332032-.261719 3.472657 0 .542969.09375 1.070312.269531 1.5625.519531.554687.191406 1.078125.453125 1.5625.78125l1.300781 1.042969c.765625.84375 1.382812 1.8125 1.824219 2.863281.441406 1.042969.679687 2.164063.691406 3.296875-.03125 2.296875-.933594 4.496094-2.515625 6.160157-.414062.375-.847656.722656-1.300781 1.042968-.484375.328125-1.007813.589844-1.5625.78125-.492188.25-1.019531.425782-1.5625.519532-.574219.097656-1.152344.15625-1.734375.175781zm0 0"/><path d="m130.925781 277.71875c-.582031-.019531-1.160156-.078125-1.734375-.171875-.542968-.097656-1.070312-.273437-1.5625-.519531-.554687-.191406-1.078125-.453125-1.5625-.78125-.457031-.320313-.890625-.667969-1.300781-1.042969-1.585937-1.664063-2.484375-3.863281-2.519531-6.160156.015625-1.136719.25-2.253907.695312-3.300781.441406-1.050782 1.058594-2.019532 1.824219-2.863282l1.300781-1.039062c.484375-.328125 1.007813-.589844 1.5625-.78125.492188-.25 1.015625-.425782 1.5625-.519532 1.140625-.265624 2.328125-.265624 3.46875 0 .546875.09375 1.070313.269532 1.5625.519532.554688.1875 1.078125.453125 1.5625.78125l1.300782 1.039062c.765624.847656 1.382812 1.816406 1.824218 2.863282.445313 1.046874.679688 2.164062.695313 3.300781-.035157 2.296875-.933594 4.496093-2.519531 6.160156-.410157.371094-.847657.71875-1.300782 1.042969-.484375.328125-1.007812.589844-1.5625.78125-.492187.246094-1.019531.421875-1.5625.519531-.574218.09375-1.152344.152344-1.734375.171875zm0 0"/><path d="m339.195312 269.042969c.582032-.019531 1.164063-.078125 1.738282-.175781.542968-.09375 1.070312-.269532 1.5625-.519532.550781-.191406 1.078125-.453125 1.5625-.78125.453125-.320312.890625-.667968 1.300781-1.042968 1.585937-1.660157 2.484375-3.863282 2.515625-6.160157-.015625-1.132812-.25-2.253906-.695312-3.296875-.4375-1.050781-1.054688-2.019531-1.820313-2.863281l-1.300781-1.042969c-.484375-.328125-1.011719-.589844-1.5625-.78125-.492188-.25-1.019532-.425781-1.5625-.519531-1.144532-.261719-2.328125-.261719-3.472656 0-.542969.09375-1.070313.269531-1.5625.519531-.550782.191406-1.078126.453125-1.5625.78125l-1.300782 1.042969c-.765625.84375-1.378906 1.8125-1.820312 2.863281-.445313 1.042969-.683594 2.164063-.695313 3.296875.035157 2.296875.933594 4.496094 2.515625 6.160157.414063.375.847656.722656 1.300782 1.042968.484374.328125 1.011718.589844 1.5625.78125.492187.25 1.019531.425782 1.5625.519532.574218.097656 1.15625.15625 1.734374.175781zm0 0"/><path d="m304.484375 277.71875c.582031-.019531 1.164063-.078125 1.738281-.171875.542969-.097656 1.066406-.273437 1.558594-.519531.554688-.191406 1.078125-.453125 1.5625-.78125.457031-.320313.890625-.667969 1.304688-1.042969 1.582031-1.664063 2.480468-3.863281 2.515624-6.160156-.015624-1.136719-.25-2.253907-.695312-3.300781-.441406-1.050782-1.054688-2.019532-1.820312-2.863282l-1.304688-1.039062c-.484375-.328125-1.007812-.589844-1.5625-.78125-.488281-.25-1.015625-.425782-1.558594-.519532-1.144531-.265624-2.332031-.265624-3.472656 0-.542969.09375-1.070312.269532-1.5625.519532-.554688.1875-1.078125.453125-1.5625.78125l-1.300781 1.039062c-.765625.847656-1.382813 1.816406-1.824219 2.863282-.441406 1.046874-.679688 2.164062-.691406 3.300781.03125 2.296875.933594 4.496093 2.515625 6.160156.414062.371094.847656.71875 1.300781 1.042969.484375.328125 1.007812.589844 1.5625.78125.492188.246094 1.019531.421875 1.5625.519531.574219.09375 1.152344.152344 1.734375.171875zm0 0"/></g><path d="m304.484375 312.351562s-17.355469 20.828126-17.355469 62.484376c0 41.652343-69.421875 41.652343-69.421875 41.652343s-69.425781 0-69.425781-41.652343c0-41.65625-17.355469-62.484376-17.355469-62.484376l.347657-1.039062c28.171874 7.484375 57.300781 10.757812 86.433593 9.71875 29.132813 1.039062 58.257813-2.234375 86.429688-9.71875zm0 0" fill="#2c2f38"/><path d="m217.707031 477.234375c-24.6875.230469-49.21875-3.90625-72.460937-12.21875-2.972656-1.035156-5.144532-3.597656-5.6875-6.695313-.542969-3.101562.632812-6.25 3.074218-8.230468 2.441407-1.984375 5.765626-2.492188 8.6875-1.328125 21.300782 7.585937 43.773438 11.347656 66.386719 11.117187 22.609375.230469 45.082031-3.53125 66.386719-11.117187 2.917969-1.164063 6.242188-.65625 8.683594 1.328125 2.441406 1.980468 3.617187 5.128906 3.074218 8.230468-.539062 3.097657-2.714843 5.660157-5.683593 6.695313-23.246094 8.3125-47.777344 12.449219-72.460938 12.21875zm0 0" fill="#35495e"/><path d="m165.636719 321.03125 10.734375 29.304688c1.351562 3.09375 4.316406 5.171874 7.683594 5.390624 3.367187.21875 6.574218-1.464843 8.3125-4.355468l16.660156-30.339844" fill="#e6e7e8"/><path d="m269.773438 321.03125-10.734376 29.304688c-1.351562 3.09375-4.316406 5.171874-7.683593 5.390624-3.367188.21875-6.574219-1.464843-8.308594-4.355468l-16.664063-30.339844" fill="#e6e7e8"/><path d="m333.410156 286.398438c-2.113281-.796876-4.460937-.703126-6.503906.261718-2.039062.964844-3.601562 2.71875-4.328125 4.859375-.113281.199219-12.730469 20.832031-104.871094 20.832031-89.382812 0-103.929687-19.402343-104.839843-20.773437-1.828126-4.28125-6.710938-6.359375-11.066407-4.703125-4.351562 1.652344-6.621093 6.449219-5.144531 10.863281.980469 2.953125 5.804688 12.429688 27.691406 20.300781 10.914063 16.863282 16.25 36.730469 15.257813 56.796876 0 49.75 74.90625 50.332031 78.101562 50.332031 3.191407 0 78.101563-.574219 78.101563-50.332031-.996094-20.066407 4.34375-39.933594 15.253906-56.796876 21.886719-7.871093 26.710938-17.359374 27.691406-20.300781 1.574219-4.601562-.792968-9.625-5.34375-11.339843zm-54.957031 88.4375c0 32.464843-60.0625 32.976562-60.746094 32.976562-.6875 0-60.746093-.511719-60.746093-32.976562.25-17.363282-2.996094-34.597657-9.546876-50.679688 23.203126 4.054688 46.738282 5.914062 70.292969 5.554688 23.550781.359374 47.085938-1.496094 70.289063-5.546876-6.546875 16.078126-9.792969 33.3125-9.542969 50.671876zm0 0" fill="#35495e"/><path d="m278.453125 208.269531c0 19.09375-27.214844 52.066407-60.746094 52.066407s-60.746093-32.972657-60.746093-52.066407c.011718-2.265625.425781-4.511719 1.214843-6.636719 5.710938-14.058593 30.128907-19.398437 59.53125-19.398437 33.53125 0 60.746094 6.890625 60.746094 26.035156zm0 0" fill="#2c2f38"/></svg>