<svg height="512pt" viewBox="-39 0 512 512.4469" width="512pt" xmlns="http://www.w3.org/2000/svg"><path d="m40.316406 247.367188c-62.242187-70.0625-35.308594-208.65625-28.078125-240.558594.898438-4.042969 4.519531-6.8906252 8.660157-6.808594 2.992187.046875 6.832031.222656 11.324218.679688 29.925782 3.089843 88.804688 18.804687 121.292969 92.957031" fill="#7f6e5d"/><path d="m393.421875 247.367188c62.242187-70.019532 35.308594-208.613282 28.078125-240.515626-.878906-4.058593-4.507812-6.9257808-8.65625-6.851562-2.996094.046875-6.835938.222656-11.328125.679688-29.835937 3.089843-88.539063 18.714843-121.203125 92.601562" fill="#7f6e5d"/><path d="m119.414062 126.03125v.0625c-14.699218 18.640625-28.367187 38.070312-40.941406 58.203125-13.378906 20.546875-25.554687 41.859375-36.460937 63.820313l-1.695313-.75c-62.242187-70.0625-35.308594-208.65625-28.078125-240.558594.898438-4.042969 4.519531-6.8906252 8.660157-6.808594 2.992187.046875 6.832031.222656 11.324218.679688 8.007813 6.621093 81.804688 68.503906 87.191406 125.351562zm0 0" fill="#fdd7ad"/><path d="m393.421875 247.367188-.882813.441406c-10.914062-21.808594-23.027343-42.996094-36.28125-63.46875-12.835937-20.496094-26.800781-40.265625-41.835937-59.207032 6.179687-56.585937 79.183594-117.761718 87.128906-124.378906 4.484375-.558594 8.335938-.707031 11.292969-.753906 4.128906-.0664062 7.734375 2.777344 8.632812 6.808594 7.253907 31.902344 34.1875 170.496094-28.054687 240.558594zm0 0" fill="#fdd7ad"/><path d="m287.492188 495.734375c5.558593-2.207031 11.121093-4.769531 16.503906-7.503906 30.828125-15.878907 57.9375-38.113281 79.539062-65.238281 22.597656-28.425782 41.3125-60.113282 35.222656-97.542969-8.210937-50.496094-35.488281-98.515625-62.5-141.152344-12.464843-19.898437-25.992187-39.113281-40.519531-57.558594-7.578125-11.113281-16.773437-21.035156-27.277343-29.4375-26.480469-17.65625-70.621094 8.828125-70.621094 8.828125h-.96875s-44.140625-26.484375-70.621094-8.828125c-10.558594 8.390625-19.785156 18.332031-27.367188 29.484375-14.5 18.445313-27.996093 37.65625-40.429687 57.554688-27.101563 42.636718-54.289063 90.660156-62.5 141.152344-6.089844 37.429687 12.535156 69.121093 35.222656 97.546874 21.570313 27.121094 48.648438 49.355469 79.449219 65.234376 5.117188 2.648437 10.328125 5.03125 15.625 7.148437zm0 0" fill="#cbb292"/><path d="m216.871094 375.324219c0-4.875-5.269532-8.828125-11.769532-8.828125-6.496093 0-11.765624 3.953125-11.765624 8.828125s5.269531 8.828125 11.765624 8.828125c6.5 0 11.769532-3.953125 11.769532-8.828125zm0 0" fill="#35495e"/><path d="m146.25 495.421875c-5.296875-2.117187-10.507812-4.5-15.625-7.148437-30.800781-15.878907-57.878906-38.113282-79.449219-65.234376-22.6875-28.425781-41.3125-60.117187-35.222656-97.546874 8.210937-50.492188 35.398437-98.515626 62.5-141.152344 12.433594-19.898438 25.929687-39.109375 40.429687-57.554688 7.582032-11.152344 16.808594-21.09375 27.367188-29.484375 26.480469-17.65625 70.621094 8.828125 70.621094 8.828125s-35.3125 61.792969-17.65625 97.101563c17.65625 35.308593 17.65625 52.964843 17.65625 132.414062" fill="#b19046"/><path d="m216.871094 457.28125c12.976562 46.132812 45.019531 54.113281 61.113281 55.101562 2.3125.289063 4.644531-.386718 6.441406-1.871093 1.800781-1.484375 2.90625-3.644531 3.066407-5.96875v-94.324219c0-36.640625-24.074219-57.226562-44.140626-68.023438-16.59375-8.730468-36.421874-8.730468-53.019531 0-20.035156 10.796876-44.136719 31.390626-44.136719 68.023438v94.324219c.15625 2.324219 1.265626 4.484375 3.066407 5.96875 1.796875 1.484375 4.128906 2.160156 6.441406 1.871093 16.144531-.988281 48.191406-8.96875 61.167969-55.101562zm0 0" fill="#fdd7ad"/><path d="m252.179688 394.496094c0 10.816406-15.820313 29.425781-35.308594 29.425781-19.492188 0-35.3125-18.609375-35.3125-29.425781.007812-1.28125.25-2.550782.707031-3.75 3.320313-7.945313 17.515625-10.964844 34.605469-10.964844 19.488281 0 35.308594 3.902344 35.308594 14.714844zm0 0" fill="#2c3e50"/><path d="m357.75 291.171875c1.5-1.652344 2.738281-3.523437 3.679688-5.542969 1.867187-4.460937 2.382812-9.375 1.476562-14.125-1.050781-5.546875-2.925781-10.902344-5.5625-15.890625-10.480469-20.019531-25.421875-37.359375-43.671875-50.6875-6.5625-6.042969-14.945313-9.742187-23.832031-10.523437-7.945313-.109375-15.617188 2.90625-21.363282 8.394531-3.644531 3.550781-6.28125 8.003906-7.636718 12.90625-5.1875 17.503906-8.097656 35.601563-8.660156 53.847656-.40625 13.359375 4.140624 26.398438 12.765624 36.609375 22.367188 24.910156 60.910157 8.128906 83.542969-7.378906 3.382813-2.15625 6.492188-4.710938 9.261719-7.609375zm0 0" fill="#fdd7ad"/><path d="m155.078125 264.980469c0 14.625-11.859375 26.480469-26.484375 26.480469s-26.484375-11.855469-26.484375-26.480469c0-14.628907 11.859375-26.484375 26.484375-26.484375s26.484375 11.855468 26.484375 26.484375zm0 0" fill="#fff"/><path d="m146.25 264.980469c0 9.75-7.90625 17.652343-17.65625 17.652343s-17.65625-7.902343-17.65625-17.652343 7.90625-17.65625 17.65625-17.65625 17.65625 7.90625 17.65625 17.65625zm0 0" fill="#b0d3f0"/><path d="m128.59375 273.851562c-1.152344-.015624-2.292969-.253906-3.355469-.707031-1.066406-.449219-2.054687-1.074219-2.910156-1.851562-1.613281-1.695313-2.527344-3.933594-2.5625-6.269531.015625-1.152344.253906-2.292969.707031-3.355469.445313-1.070313 1.074219-2.054688 1.855469-2.910157.839844-.800781 1.832031-1.429687 2.910156-1.855468 1.613281-.703125 3.402344-.890625 5.121094-.53125.554687.097656 1.089844.277344 1.589844.53125.5625.191406 1.097656.460937 1.589843.792968.460938.328126.902344.679688 1.324219 1.0625.777344.859376 1.402344 1.84375 1.851563 2.910157.941406 2.136719.941406 4.574219 0 6.710937-.449219 1.066406-1.074219 2.050782-1.851563 2.914063l-1.324219 1.058593c-.492187.332032-1.027343.601563-1.589843.792969-.5.253907-1.039063.433594-1.589844.53125-.582031.101563-1.171875.160157-1.765625.175781zm0 0" fill="#2c2f38"/><path d="m128.59375 256.152344c0 4.875-3.953125 8.828125-8.828125 8.828125s-8.828125-3.953125-8.828125-8.828125 3.953125-8.828125 8.828125-8.828125 8.828125 3.953125 8.828125 8.828125zm0 0" fill="#fff"/><path d="m331.628906 264.980469c0 14.625-11.855468 26.480469-26.484375 26.480469-14.625 0-26.480469-11.855469-26.480469-26.480469 0-14.628907 11.855469-26.484375 26.480469-26.484375 14.628907 0 26.484375 11.855468 26.484375 26.484375zm0 0" fill="#fff"/><path d="m322.800781 264.980469c0 9.75-7.90625 17.652343-17.65625 17.652343s-17.652343-7.902343-17.652343-17.652343 7.902343-17.65625 17.652343-17.65625 17.65625 7.90625 17.65625 17.65625zm0 0" fill="#b0d3f0"/><path d="m305.144531 273.851562c-1.152343-.015624-2.292969-.253906-3.351562-.707031-1.070313-.449219-2.054688-1.074219-2.914063-1.851562-1.613281-1.695313-2.527344-3.933594-2.5625-6.269531.015625-1.152344.253906-2.292969.707032-3.355469.449218-1.070313 1.074218-2.054688 1.855468-2.910157.84375-.800781 1.832032-1.429687 2.914063-1.855468 1.609375-.703125 3.398437-.890625 5.117187-.53125.554688.097656 1.089844.277344 1.589844.53125.5625.191406 1.097656.460937 1.589844.792968.460937.328126.902344.679688 1.324218 1.0625.777344.859376 1.402344 1.84375 1.851563 2.910157.945313 2.136719.945313 4.574219 0 6.710937-.449219 1.066406-1.074219 2.050782-1.851563 2.914063l-1.324218 1.058593c-.492188.332032-1.027344.601563-1.589844.792969-.5.253907-1.035156.433594-1.589844.53125-.582031.101563-1.171875.160157-1.765625.175781zm0 0" fill="#2c2f38"/><path d="m305.144531 256.152344c0 4.875-3.953125 8.828125-8.828125 8.828125s-8.824218-3.953125-8.824218-8.828125 3.949218-8.828125 8.824218-8.828125 8.828125 3.953125 8.828125 8.828125zm0 0" fill="#fff"/><path d="m216.871094 393.023438c0-4.875-5.929688-8.828126-13.242188-8.828126s-13.242187 3.953126-13.242187 8.828126 5.929687 8.828124 13.242187 8.828124 13.242188-3.953124 13.242188-8.828124zm0 0" fill="#35495e"/></svg>