<svg height="512pt" viewBox="-4 0 512 512.01086" width="512pt" xmlns="http://www.w3.org/2000/svg"><path d="m192.375 451.367188c5.554688 34.597656 29.941406 60.632812 59.273438 60.632812 29.328124 0 53.714843-26.035156 59.269531-60.746094" fill="#2c2f38"/><path d="m408.285156 231.875c43.910156 13.796875 81.226563 58.75 91.984375 117.238281 14.320313 77.757813-23.691406 149.957031-84.957031 161.238281-40.613281 7.460938-81.3125-13.710937-108.300781-51.546874l-110.730469.085937c-26.988281 37.921875-67.601562 59.097656-108.300781 51.632813-61.265625-11.367188-99.277344-83.566407-84.957031-161.320313 10.761718-58.492187 48.164062-103.441406 92.074218-117.242187zm0 0" fill="#2c2f38"/><path d="m442.5625 147.527344c0-81.476563-85.476562-147.527344-190.914062-147.527344-105.441407 0-190.917969 66.050781-190.917969 147.527344 0 81.472656 85.476562 147.523437 190.917969 147.523437 105.4375 0 190.914062-66.050781 190.914062-147.523437zm0 0" fill="#2c3e50"/><path d="m251.648438 265.71875c-12.871094 0-25.71875-.960938-38.445313-2.871094-23.316406-3.449218-45.96875-10.441406-67.175781-20.730468-2.789063-1.367188-4.640625-4.117188-4.851563-7.21875-.214843-3.097657 1.242188-6.074219 3.820313-7.808594s5.886718-1.960938 8.675781-.59375c19.613281 9.515625 40.566406 15.980468 62.136719 19.167968 23.726562 3.558594 47.855468 3.558594 71.582031 0 21.597656-3.183593 42.585937-9.644531 62.230469-19.167968 2.792968-1.445313 6.148437-1.269532 8.773437.464844 2.621094 1.734374 4.101563 4.75 3.867188 7.886718-.230469 3.136719-2.144531 5.898438-4.996094 7.222656-21.230469 10.3125-43.914063 17.3125-67.261719 20.75-12.695312 1.929688-25.515625 2.898438-38.355468 2.898438zm0 0" fill="#547580"/><path d="m353.4375 272.316406c7.355469 19.765625 11.085938 40.695313 11.023438 61.785156 0 53.542969-23.171876 100.230469-57.449219 124.703126-32.796875 24.613281-77.894531 24.648437-110.730469.085937-34.277344-24.558594-57.449219-71.246094-57.449219-124.789063-.0625-21.089843 3.667969-42.019531 11.023438-61.785156" fill="#2c3e50"/><path d="m295.035156 407.863281c0 12.757813-19.4375 34.714844-43.386718 34.714844-23.953126 0-43.390626-21.957031-43.390626-34.714844.007813-1.515625.304688-3.015625.867188-4.425781 4.078125-9.371094 21.519531-12.929688 42.523438-12.929688 23.949218 0 43.386718 4.601563 43.386718 17.355469zm0 0" fill="#2c2f38"/><path d="m251.648438 485.964844c-4.792969 0-8.679688-3.882813-8.679688-8.675782v-34.710937c0-4.792969 3.886719-8.679687 8.679688-8.679687 4.789062 0 8.675781 3.886718 8.675781 8.679687v34.710937c0 4.792969-3.886719 8.675782-8.675781 8.675782zm0 0" fill="#2c2f38"/><path d="m112.800781 112.8125c-3.199219 0-6.140625-1.765625-7.648437-4.585938-1.507813-2.824218-1.339844-6.246093.433594-8.90625 1.503906-2.257812 37.429687-55.304687 92.578124-64.496093 3.058594-.507813 6.15625.652343 8.125 3.046875 1.96875 2.394531 2.511719 5.660156 1.425782 8.5625-1.089844 2.902344-3.644532 5.003906-6.703125 5.511718-47.808594 7.96875-80.652344 56.511719-80.984375 56.996094-1.609375 2.421875-4.324219 3.875-7.226563 3.871094zm0 0" fill="#547580"/><path d="m60.730469 468.609375c-2.300781 0-4.507813-.914063-6.132813-2.542969-19.03125-18.984375-28.039062-63.304687-28.40625-65.144531-.617187-3.039063.429688-6.175781 2.75-8.234375 2.320313-2.054688 5.5625-2.714844 8.503906-1.734375 2.941407.984375 5.136719 3.460937 5.757813 6.496094 2.28125 11.371093 10.984375 43.632812 23.664063 56.3125 2.503906 2.480469 3.265624 6.226562 1.917968 9.484375-1.347656 3.257812-4.527344 5.378906-8.054687 5.363281zm0 0" fill="#5e5f62"/><path d="m234.289062 312.363281c0 14.378907-11.652343 26.035157-26.03125 26.035157-14.378906 0-26.035156-11.65625-26.035156-26.035157 0-14.378906 11.65625-26.035156 26.035156-26.035156 14.378907 0 26.03125 11.65625 26.03125 26.035156zm0 0" fill="#fff"/><path d="m225.613281 312.363281c0 9.585938-7.769531 17.355469-17.355469 17.355469-9.585937 0-17.355468-7.769531-17.355468-17.355469 0-9.585937 7.769531-17.355469 17.355468-17.355469 9.585938 0 17.355469 7.769532 17.355469 17.355469zm0 0" fill="#b0d3f0"/><path d="m208.257812 321.085938c-1.136718-.015626-2.253906-.25-3.296874-.695313-1.050782-.441406-2.019532-1.058594-2.867188-1.824219-1.582031-1.660156-2.480469-3.863281-2.515625-6.160156.015625-1.132812.25-2.253906.695313-3.296875.441406-1.050781 1.054687-2.019531 1.820312-2.863281.832031-.785156 1.804688-1.40625 2.867188-1.824219 1.582031-.691406 3.339843-.871094 5.03125-.519531.542968.09375 1.070312.269531 1.5625.519531.554687.191406 1.078124.453125 1.5625.78125.453124.320313.886718.667969 1.300781 1.042969.765625.84375 1.382812 1.8125 1.824219 2.863281.925781 2.101563.925781 4.496094 0 6.59375-.441407 1.050781-1.058594 2.019531-1.824219 2.863281l-1.300781 1.042969c-.484376.328125-1.007813.589844-1.5625.78125-.492188.25-1.019532.425781-1.5625.519531-.574219.101563-1.152344.160156-1.734376.175782zm0 0" fill="#2c2f38"/><path d="m208.257812 303.683594c0 4.792968-3.886718 8.679687-8.679687 8.679687s-8.675781-3.886719-8.675781-8.679687c0-4.789063 3.882812-8.675782 8.675781-8.675782s8.679687 3.886719 8.679687 8.675782zm0 0" fill="#fff"/><path d="m321.070312 312.363281c0 14.378907-11.65625 26.035157-26.035156 26.035157-14.375 0-26.03125-11.65625-26.03125-26.035157 0-14.378906 11.65625-26.035156 26.03125-26.035156 14.378906 0 26.035156 11.65625 26.035156 26.035156zm0 0" fill="#fff"/><path d="m312.390625 312.363281c0 9.585938-7.769531 17.355469-17.355469 17.355469-9.585937 0-17.355468-7.769531-17.355468-17.355469 0-9.585937 7.769531-17.355469 17.355468-17.355469 9.585938 0 17.355469 7.769532 17.355469 17.355469zm0 0" fill="#b0d3f0"/><path d="m295.035156 321.085938c-1.132812-.015626-2.253906-.25-3.296875-.695313-1.050781-.441406-2.019531-1.058594-2.863281-1.824219-1.585938-1.660156-2.484375-3.863281-2.515625-6.160156.011719-1.132812.25-2.253906.695313-3.296875.4375-1.050781 1.054687-2.019531 1.820312-2.863281.828125-.785156 1.800781-1.40625 2.863281-1.824219 1.582031-.691406 3.34375-.871094 5.035157-.519531.542968.09375 1.070312.269531 1.5625.519531.550781.191406 1.078124.453125 1.558593.78125.457031.320313.890625.667969 1.304688 1.042969.761719.84375 1.378906 1.8125 1.820312 2.863281.925781 2.101563.925781 4.496094 0 6.59375-.441406 1.050781-1.058593 2.019531-1.820312 2.863281l-1.304688 1.042969c-.480469.328125-1.007812.589844-1.558593.78125-.496094.25-1.019532.425781-1.5625.519531-.574219.101563-1.15625.160156-1.738282.175782zm0 0" fill="#2c2f38"/><path d="m295.035156 303.683594c0 4.792968-3.882812 8.679687-8.675781 8.679687s-8.679687-3.886719-8.679687-8.679687c0-4.789063 3.886718-8.675782 8.679687-8.675782s8.675781 3.886719 8.675781 8.675782zm0 0" fill="#fff"/><path d="m251.648438 407.863281c0-4.792969-7.773438-8.675781-17.359376-8.675781-9.582031 0-17.355468 3.882812-17.355468 8.675781s7.773437 8.679688 17.355468 8.679688c9.585938 0 17.359376-3.886719 17.359376-8.679688zm0 0" fill="#35495e"/></svg>