<svg height="512pt" viewBox="-41 0 512 512" width="512pt" xmlns="http://www.w3.org/2000/svg"><path d="m277.457031 476.070312s-8.980469 35.929688-62.875 35.929688-62.878906-35.929688-62.878906-35.929688l62.878906-62.878906zm0 0" fill="#804537"/><path d="m332.351562 413.191406c44.910157-17.964844 71.859376-62.875 53.894532-107.789062-17.964844-44.910156-8.984375-71.859375-8.984375-71.859375s26.949219 8.984375 44.914062-26.945313c17.964844-35.929687 0-35.929687 0-98.808594.039063-37.601562-9.21875-74.628906-26.949219-107.789062 0 0-98.804687 53.894531-98.804687 89.824219 0 35.929687 0 53.894531-17.964844 53.894531-12.335937 0-20.4375-12.699219-35.933593-20.660156-8.332032-4.265625-17.585938-6.425782-26.945313-6.285156h-.996094c-9.363281-.140626-18.617187 2.019531-26.949219 6.285156-15.492187 7.960937-23.597656 20.660156-35.929687 20.660156-17.964844 0-17.964844-17.964844-17.964844-53.894531 0-35.929688-98.804687-89.824219-98.804687-89.824219-17.730469 33.160156-26.988282 70.1875-26.949219 107.789062 0 62.878907-17.964844 62.878907 0 98.808594 17.964844 35.929688 44.914063 26.945313 44.914063 26.945313s8.980468 26.949219-8.984376 71.859375c-17.964843 44.914062 8.984376 89.824218 53.894532 107.789062zm0 0" fill="#804537"/><path d="m238.050781 197.613281c19.324219-.277343 35.304688 14.972657 35.929688 34.285157-.972657 19.195312-5.550781 38.039062-13.492188 55.539062-17.964843 44.914062 0 53.894531 35.933594 71.859375 20.886719 10.09375 34.644531 30.734375 35.929687 53.894531 0 0 8.980469 62.878906-35.929687 62.878906-44.914063 0-72.859375-17.964843-81.839844-35.929687v-17.964844 17.964844c-8.984375 17.964844-35.929687 35.929687-80.84375 35.929687-44.910156 0-35.929687-62.878906-35.929687-62.878906 1.285156-23.160156 15.042968-43.800781 35.929687-53.894531 35.929688-17.964844 53.894531-26.945313 35.929688-71.859375-7.933594-17.503906-12.503907-36.34375-13.472657-55.539062.625-19.3125 16.609376-34.5625 35.929688-34.285157zm0 0" fill="#fdd7ad"/><path d="m250.511719 386.246094c0 13.230468-16.089844 35.929687-35.929688 35.929687-19.84375 0-35.929687-22.699219-35.929687-35.929687 0-13.230469 16.085937-17.964844 35.929687-17.964844 19.839844 0 35.929688 4.734375 35.929688 17.964844zm0 0" fill="#2c3e50"/><path d="m43.914062 188.632812s-17.964843-8.984374 0-35.929687c17.964844-26.949219 0-89.824219 0-89.824219 21.730469 6.191406 38.71875 23.179688 44.914063 44.910156 8.980469 35.929688 0 44.914063 17.964844 53.894532 17.964843 8.984375-26.949219 53.894531-62.878907 26.949218zm0 0" fill="#cb9080"/><path d="m386.246094 188.632812s17.964844-8.984374 0-35.929687c-17.964844-26.949219 0-89.824219 0-89.824219-21.734375 6.191406-38.71875 23.179688-44.914063 44.910156-8.980469 35.929688 0 44.914063-17.964843 53.894532-17.964844 8.984375 26.949218 53.894531 62.878906 26.949218zm0 0" fill="#cb9080"/><path d="m223.5625 386.246094c0-4.960938-8.042969-8.984375-17.964844-8.984375s-17.964844 4.023437-17.964844 8.984375c0 4.960937 8.042969 8.980468 17.964844 8.980468s17.964844-4.019531 17.964844-8.980468zm0 0" fill="#35495e"/><path d="m142.722656 305.402344c0 14.882812-12.066406 26.949218-26.949218 26.949218-14.882813 0-26.945313-12.066406-26.945313-26.949218 0-14.882813 12.0625-26.945313 26.945313-26.945313 14.882812 0 26.949218 12.0625 26.949218 26.945313zm0 0" fill="#d1d4d1"/><path d="m133.738281 305.402344c0 9.921875-8.042969 17.964844-17.964843 17.964844-9.921876 0-17.964844-8.042969-17.964844-17.964844s8.042968-17.964844 17.964844-17.964844c9.921874 0 17.964843 8.042969 17.964843 17.964844zm0 0" fill="#e4c05c"/><path d="m124.757812 305.402344c0 4.960937-4.023437 8.984375-8.984374 8.984375-4.960938 0-8.980469-4.023438-8.980469-8.984375 0-4.960938 4.019531-8.980469 8.980469-8.980469 4.960937 0 8.984374 4.019531 8.984374 8.980469zm0 0" fill="#2c2f38"/><path d="m115.773438 296.421875c0 4.960937-4.019532 8.980469-8.980469 8.980469-4.960938 0-8.984375-4.019532-8.984375-8.980469s4.023437-8.984375 8.984375-8.984375c4.960937 0 8.980469 4.023438 8.980469 8.984375zm0 0" fill="#fff"/><path d="m340.335938 305.402344c0 14.882812-12.066407 26.949218-26.949219 26.949218-14.882813 0-26.945313-12.066406-26.945313-26.949218 0-14.882813 12.0625-26.945313 26.945313-26.945313 14.882812 0 26.949219 12.0625 26.949219 26.945313zm0 0" fill="#d1d4d1"/><path d="m331.351562 305.402344c0 9.921875-8.042968 17.964844-17.964843 17.964844s-17.964844-8.042969-17.964844-17.964844 8.042969-17.964844 17.964844-17.964844 17.964843 8.042969 17.964843 17.964844zm0 0" fill="#e4c05c"/><path d="m322.371094 305.402344c0 4.960937-4.023438 8.984375-8.984375 8.984375-4.960938 0-8.980469-4.023438-8.980469-8.984375 0-4.960938 4.019531-8.980469 8.980469-8.980469 4.960937 0 8.984375 4.019531 8.984375 8.980469zm0 0" fill="#2c2f38"/><path d="m313.386719 296.421875c0 4.960937-4.019531 8.980469-8.980469 8.980469s-8.984375-4.019532-8.984375-8.980469 4.023437-8.984375 8.984375-8.984375 8.980469 4.023438 8.980469 8.984375zm0 0" fill="#fff"/></svg>