<svg height="512pt" viewBox="-25 0 512 512.00116" width="512pt" xmlns="http://www.w3.org/2000/svg"><path d="m361.238281 380.46875c8.070313 16.144531 12.011719 34.039062 11.476563 52.082031 0 40.34375-15.007813 61.882813-25.511719 71.945313-5.179687 4.878906-12.042969 7.570312-19.15625 7.503906-6.789063.003906-13.359375-2.40625-18.539063-6.796875-3.34375-2.90625-5.945312-6.570313-7.59375-10.683594-.960937-2.070312-1.617187-4.269531-1.941406-6.53125-4.324218-29.308593-17.832031-75.5625-59.671875-81.300781-5.859375-.824219-11.800781-.824219-17.65625 0-41.84375 5.738281-55.347656 51.992188-59.675781 81.300781-.324219 2.261719-.976562 4.460938-1.941406 6.53125-1.644532 4.113281-4.246094 7.777344-7.589844 10.683594-5.179688 4.390625-11.75 6.800781-18.539062 6.796875-7.113282.066406-13.980469-2.625-19.15625-7.503906-10.503907-10.0625-25.511719-31.601563-25.511719-71.945313-.539063-18.042969 3.40625-35.9375 11.476562-52.082031-.9375-2.453125-1.617187-4.996094-2.03125-7.589844-1.042969-13.769531.542969-27.609375 4.679688-40.785156.527343-2.03125 1.148437-4.148438 1.765625-6.179688-24.277344-10.59375-15.890625-61.085937-15.890625-61.085937l-.351563-.089844c8.472656-29.660156 23.304688-68.765625 44.488282-79.359375 35.3125-17.65625 26.484374-35.308594 26.484374-70.621094 0-35.308593 17.65625-44.136718 17.65625-44.136718s-1.945312-61.792969 52.964844-70.621094c54.90625 8.828125 52.964844 70.621094 52.964844 70.621094s17.65625 8.828125 17.65625 44.136718c0 35.3125-8.828125 52.964844 26.480469 70.621094 21.1875 10.59375 36.015625 49.699219 44.492187 79.359375l-.351562.089844s8.382812 50.492187-15.890625 61.085937c.617187 2.03125 1.234375 4.148438 1.765625 6.179688 4.132812 13.175781 5.722656 27.015625 4.675781 40.785156-.410156 2.59375-1.09375 5.136719-2.027344 7.589844zm0 0" fill="#d1d4d1"/><path d="m284.527344 247.171875c20.238281 13.574219 30.609375 37.777344 26.480468 61.792969v26.484375l44.136719 35.308593 7.417969 5.5625c.347656-1.128906.613281-2.277343.792969-3.441406 1.046875-13.769531-.542969-27.609375-4.679688-40.785156-.527343-2.03125-1.144531-4.148438-1.765625-6.179688 24.277344-10.59375 15.890625-61.085937 15.890625-61.085937l.355469-.089844c-8.476562-29.660156-23.308594-68.765625-44.492188-79.359375-35.3125-17.65625-26.484374-35.308594-26.484374-70.621094 0-35.308593-17.652344-44.136718-17.652344-44.136718s-35.3125 150.070312 0 176.550781zm0 0" fill="#805333"/><path d="m178.507812 247.171875c-20.242187 13.574219-30.613281 37.777344-26.484374 61.792969v26.484375l-44.136719 35.308593-7.417969 5.5625c-.347656-1.128906-.613281-2.277343-.792969-3.441406-1.042969-13.769531.542969-27.609375 4.679688-40.785156.527343-2.03125 1.148437-4.148438 1.765625-6.179688-24.277344-10.59375-15.890625-61.085937-15.890625-61.085937l-.351563-.089844c8.472656-29.660156 23.304688-68.765625 44.488282-79.359375 35.3125-17.65625 26.484374-35.308594 26.484374-70.621094 0-35.308593 17.65625-44.136718 17.65625-44.136718s35.308594 150.070312 0 176.550781zm0 0" fill="#805333"/><path d="m143.550781 180.171875c6.972657-2.460937 14.320313-3.6875 21.714844-3.621094 21.980469 0 39.722656 9.886719 39.722656 22.070313s-17.742187 22.070312-39.722656 22.070312-39.726563-9.886718-39.726563-22.070312c.191407-4.535156 2.351563-8.757813 5.917969-11.566406" fill="#e6e7e8"/><path d="m331.488281 187.054688c3.566407 2.808593 5.726563 7.03125 5.914063 11.566406 0 12.183594-17.742188 22.070312-39.722656 22.070312-21.980469 0-39.726563-9.886718-39.726563-22.070312s17.746094-22.070313 39.726563-22.070313c7.421874-.0625 14.800781 1.160157 21.804687 3.621094" fill="#e6e7e8"/><path d="m213.816406 150.070312c-3.800781 0-7.175781-2.433593-8.378906-6.039062-6.175781-18.539062-42.496094-11.855469-42.855469-11.792969-4.730469.855469-9.277343-2.226562-10.230469-6.9375-.949218-4.710937 2.042969-9.320312 6.734376-10.367187 2.128906-.414063 51.898437-9.964844 63.074218 23.519531.894532 2.683594.445313 5.636719-1.207031 7.9375s-4.304687 3.667969-7.136719 3.679687zm0 0" fill="#2c3e50"/><path d="m249.125 150.070312c-2.835938 0-5.5-1.363281-7.160156-3.664062-1.660156-2.304688-2.113282-5.261719-1.214844-7.953125 11.167969-33.484375 60.910156-23.933594 63.074219-23.519531 4.691406 1.035156 7.695312 5.636718 6.757812 10.347656-.941406 4.714844-5.480469 7.808594-10.210937 6.964844-.371094-.070313-36.722656-6.671875-42.875 11.792968-1.203125 3.601563-4.574219 6.027344-8.371094 6.03125zm0 0" fill="#2c3e50"/><path d="m240.300781 282.484375c0-4.878906-7.90625-8.828125-17.65625-8.828125s-17.65625 3.949219-17.65625 8.828125c0 4.875 7.90625 8.824219 17.65625 8.824219s17.65625-3.949219 17.65625-8.824219zm0 0" fill="#35495e"/><path d="m187.332031 199.316406c0 9.753906-7.902343 17.65625-17.652343 17.65625s-17.65625-7.902344-17.65625-17.65625c0-9.75 7.90625-17.652344 17.65625-17.652344s17.652343 7.902344 17.652343 17.652344zm0 0" fill="#805333"/><path d="m169.679688 208.144531c-1.15625-.011719-2.292969-.253906-3.355469-.707031-1.070313-.445312-2.054688-1.074219-2.914063-1.851562-1.613281-1.691407-2.527344-3.929688-2.558594-6.269532.011719-1.152344.253907-2.292968.707032-3.351562.445312-1.070313 1.074218-2.054688 1.851562-2.914063.84375-.800781 1.832032-1.429687 2.914063-1.855469 1.609375-.703124 3.398437-.886718 5.121093-.527343.550782.09375 1.085938.273437 1.585938.527343.5625.195313 1.097656.460938 1.589844.796876.464844.324218.90625.679687 1.324218 1.058593.777344.859375 1.40625 1.84375 1.855469 2.914063.941407 2.136718.941407 4.570312 0 6.707031-.449219 1.070313-1.078125 2.054687-1.855469 2.914063l-1.324218 1.058593c-.492188.335938-1.027344.601563-1.589844.792969-.5.253906-1.035156.433594-1.585938.53125-.585937.101562-1.175781.160156-1.765624.175781zm0 0" fill="#2c2f38"/><path d="m169.679688 190.492188c0 4.875-3.953126 8.824218-8.828126 8.824218s-8.828124-3.949218-8.828124-8.824218c0-4.878907 3.953124-8.828126 8.828124-8.828126s8.828126 3.949219 8.828126 8.828126zm0 0" fill="#fff"/><path d="m310.921875 199.316406c0 9.753906-7.90625 17.65625-17.65625 17.65625s-17.65625-7.902344-17.65625-17.65625c0-9.75 7.90625-17.652344 17.65625-17.652344s17.65625 7.902344 17.65625 17.652344zm0 0" fill="#805333"/><path d="m293.265625 208.144531c-1.15625-.011719-2.292969-.253906-3.355469-.707031-1.070312-.445312-2.054687-1.074219-2.914062-1.851562-1.609375-1.691407-2.527344-3.929688-2.558594-6.269532.011719-1.152344.253906-2.292968.707031-3.351562.445313-1.070313 1.074219-2.054688 1.851563-2.914063.84375-.800781 1.832031-1.429687 2.914062-1.855469 1.609375-.703124 3.398438-.886718 5.121094-.527343.550781.09375 1.085938.273437 1.589844.527343.5625.195313 1.09375.460938 1.585937.796876.464844.324218.90625.679687 1.324219 1.058593.777344.859375 1.40625 1.84375 1.855469 2.914063.941406 2.136718.941406 4.570312 0 6.707031-.449219 1.070313-1.078125 2.054687-1.855469 2.914063l-1.324219 1.058593c-.492187.335938-1.023437.601563-1.585937.792969-.503906.253906-1.039063.433594-1.589844.53125-.585938.101562-1.175781.160156-1.765625.175781zm0 0" fill="#2c2f38"/><path d="m293.265625 190.492188c0 4.875-3.953125 8.824218-8.828125 8.824218s-8.828125-3.949218-8.828125-8.824218c0-4.878907 3.953125-8.828126 8.828125-8.828126s8.828125 3.949219 8.828125 8.828126zm0 0" fill="#fff"/><path d="m101.707031 389.296875c-3.09375-.003906-5.957031-1.625-7.554687-4.277344-1.59375-2.648437-1.683594-5.9375-.242188-8.671875 8.457032-14.914062 19.800782-27.988281 33.371094-38.464844 3.53125-3.027343 6.859375-5.84375 9.707031-8.667968 7.53125-5.96875 10.417969-16.074219 7.179688-25.121094-1.414063-2.820312-1.210938-6.183594.527343-8.816406 1.734376-2.632813 4.746094-4.136719 7.894532-3.949219 3.148437.1875 5.957031 2.042969 7.371094 4.863281 6.710937 15.835938 2.484374 34.195313-10.480469 45.496094-3.125 3.125-6.777344 6.261719-10.691407 9.613281-11.851562 9.050781-21.789062 20.367188-29.234374 33.289063-1.535157 2.910156-4.558594 4.722656-7.847657 4.707031zm0 0" fill="#bdc3c7"/><path d="m106.121094 334.742188c-.816406 0-1.628906-.109376-2.410156-.335938-4.691407-1.332031-7.414063-6.210938-6.082032-10.902344 3.527344-12.125 7.804688-24.023437 12.808594-35.617187 1.894531-4.492188 7.070312-6.601563 11.5625-4.707031 4.492188 1.894531 6.601562 7.070312 4.707031 11.566406-4.71875 10.917968-8.757812 22.121094-12.09375 33.542968-1.066406 3.8125-4.535156 6.449219-8.492187 6.453126zm0 0" fill="#59474e"/><path d="m356.902344 334.742188c.816406 0 1.625-.109376 2.410156-.335938 4.691406-1.332031 7.414062-6.210938 6.082031-10.902344-3.527343-12.125-7.804687-24.023437-12.808593-35.617187-1.226563-2.90625-3.90625-4.941407-7.039063-5.332031-3.128906-.390626-6.226563.914062-8.132813 3.429687-1.902343 2.515625-2.324218 5.855469-1.097656 8.761719 4.71875 10.917968 8.757813 22.121094 12.09375 33.542968 1.066406 3.8125 4.535156 6.449219 8.492188 6.453126zm0 0" fill="#59474e"/><path d="m361.238281 389.296875c-3.277343.003906-6.285156-1.808594-7.8125-4.707031-7.457031-12.910156-17.402343-24.214844-29.265625-33.25-3.917968-3.355469-7.5625-6.480469-10.6875-9.613282-12.964844-11.304687-17.195312-29.664062-10.480468-45.5 1.410156-2.820312 4.222656-4.675781 7.371093-4.863281 3.148438-.1875 6.15625 1.320313 7.894531 3.949219 1.738282 2.632812 1.9375 5.996094.527344 8.816406-3.222656 9.046875-.339844 19.144532 7.175782 25.121094 2.824218 2.824219 6.179687 5.652344 9.710937 8.671875 13.570313 10.472656 24.914063 23.546875 33.367187 38.460937 1.429688 2.730469 1.328126 6.011719-.265624 8.652344-1.597657 2.636719-4.453126 4.253906-7.535157 4.261719zm0 0" fill="#bdc3c7"/><path d="m231.570312 264.828125c15.074219 0 27.363282-1.386719 37.773438 8.535156 4.191406 4.175781 6.445312 9.914063 6.214844 15.828125-.226563 5.910156-2.917969 11.457032-7.417969 15.296875-10.925781 9.289063-23.273437 16.761719-36.570313 22.132813h-.097656c-13.300781-5.382813-25.648437-12.867188-36.574218-22.167969-4.5-3.839844-7.191407-9.386719-7.417969-15.296875-.226563-5.914062 2.027343-11.652344 6.21875-15.828125 10.40625-9.929687 22.703125-8.5 37.773437-8.5" fill="#2c3e50"/><path d="m301.914062 494.519531c-4.605468 4.78125-10.964843 7.464844-17.601562 7.429688-6.636719-.03125-12.972656-2.78125-17.53125-7.605469-17.65625-17.652344-17.65625-26.480469-35.308594-26.480469-17.65625 0-17.65625 8.828125-35.3125 26.480469-4.558594 4.824219-10.890625 7.574219-17.527344 7.605469-6.636718.035156-13-2.648438-17.605468-7.429688.964844-2.070312 1.617187-4.269531 1.941406-6.53125 4.589844-31.25 19.6875-81.917969 68.503906-81.917969s63.910156 50.667969 68.5 81.917969c.324219 2.261719.980469 4.460938 1.941406 6.53125zm0 0" fill="#bdc3c7"/><path d="m240.300781 313.378906v93.308594c-5.859375-.824219-11.800781-.824219-17.65625 0v-93.308594c0-4.875 3.953125-8.828125 8.828125-8.828125s8.828125 3.953125 8.828125 8.828125zm0 0" fill="#2c3e50"/><g fill="#59474e"><path d="m178.507812 70.621094s-17.65625 8.828125-17.65625 44.136718c0 35.3125 8.828126 52.964844-26.484374 70.621094-21.183594 10.59375-36.015626 49.699219-44.488282 79.359375-1.0625 3.886719-2.121094 7.679688-3.003906 11.125-3.480469 13.683594-16.886719 22.40625-30.808594 20.039063l-9.621094-1.589844c-4.722656-.789062-8.917968-3.464844-11.632812-7.410156-2.710938-3.941406-3.707031-8.820313-2.757812-13.511719l14.039062-70.355469c4.765625-23.921875-16.332031-52.964844-36.636719-74.59375-7.421875-8.003906-10.742187-18.984375-9.003906-29.761718 1.742187-10.777344 8.355469-20.152344 17.921875-25.410157l101.867188-56.585937c8.65625-4.839844 19.289062-4.429688 27.542968 1.058594l3.972656 2.648437c5.457032 3.6875 12.519532 3.992187 18.273438.796875 38.578125-21.1875 61.441406-21.1875 61.441406-21.1875-54.910156 8.828125-52.964844 70.621094-52.964844 70.621094zm0 0"/><path d="m453.484375 128.441406c-20.300781 21.628906-41.398437 50.671875-36.632813 74.59375l14.035157 70.355469c.953125 4.691406-.042969 9.570313-2.757813 13.511719-2.710937 3.945312-6.910156 6.621094-11.632812 7.410156l-9.621094 1.589844c-13.921875 2.367187-27.328125-6.355469-30.808594-20.039063-.882812-3.445312-1.941406-7.238281-3-11.125-8.476562-29.660156-23.304687-68.765625-44.492187-79.359375-35.308594-17.65625-26.480469-35.308594-26.480469-70.621094 0-35.308593-17.65625-44.136718-17.65625-44.136718s1.941406-61.792969-52.964844-70.621094c0 0 22.863282 0 61.4375 21.1875 5.757813 3.195312 12.820313 2.890625 18.273438-.796875l3.972656-2.648437c8.257812-5.488282 18.890625-5.898438 27.542969-1.058594l101.871093 56.585937c9.566407 5.257813 16.175782 14.632813 17.917969 25.410157 1.742188 10.777343-1.578125 21.757812-9.003906 29.761718zm0 0"/></g></svg>