<svg height="512pt" viewBox="-87 0 512 512" width="512pt" xmlns="http://www.w3.org/2000/svg"><path d="m106.488281 118.644531c-13.773437-58.441406-90.835937-115.378906-95.164062-118.46875l-.175781-.175781s-21.449219 97.101562 0 158.898438c4.589843 13.238281 8.210937 23.65625 11.035156 31.777343" fill="#d75e72"/><path d="m232.28125 118.644531c13.59375-58.441406 90.746094-115.378906 95.070312-118.46875l.179688-.175781s21.449219 97.101562 0 158.898438c-4.589844 13.238281-8.210938 23.65625-11.035156 31.777343" fill="#d75e72"/><path d="m106.488281 118.644531c-1.589843.527344-3.179687 1.144531-4.679687 1.765625-13.890625 5.648438-26.886719 13.289063-38.578125 22.683594-3.089844-66.648438-49.078125-138.414062-51.90625-142.917969 4.328125 3.089844 81.390625 60.027344 95.164062 118.46875zm0 0" fill="#805333"/><path d="m327.351562.175781c-2.824218 4.503907-48.816406 76.359375-51.816406 143.007813-11.71875-9.425782-24.742187-17.097656-38.664062-22.773438-1.5-.621094-3-1.238281-4.589844-1.765625 13.59375-58.441406 90.746094-115.378906 95.070312-118.46875zm0 0" fill="#805333"/><path d="m336.800781 292.28125c-6.621093 39.546875-32.664062 69.828125-55.878906 100.988281-18.429687 22.902344-34.019531 47.945313-46.433594 74.59375-2.484375 5.683594-4.609375 11.523438-6.355469 17.476563 0 .089844 0 .089844-.089843.175781v.089844c-4.355469 15.492187-18.421875 26.25-34.515625 26.394531h-48.375c-16.09375-.144531-30.160156-10.902344-34.515625-26.394531v-.089844c-.089844-.085937-.089844-.085937-.089844-.175781-1.746094-5.953125-3.871094-11.792969-6.355469-17.476563-6.632812-15.210937-14.703125-29.753906-24.097656-43.433593-7.0625-10.59375-14.742188-20.921876-22.335938-31.160157-23.214843-31.160156-49.257812-61.441406-55.878906-100.988281-11.914062-70.972656 34.164063-145.300781 99.929688-171.871094 13.601562-5.507812 27.742187-9.5625 42.195312-12.09375 8.371094-1.457031 16.839844-2.253906 25.335938-2.386718 23.203125.679687 46.085937 5.585937 67.53125 14.480468 65.765625 26.570313 111.84375 100.898438 99.929687 171.871094zm0 0" fill="#e6e7e8"/><path d="m174.105469 211.949219c1.246093 18.953125-4.433594 37.710937-15.976563 52.789062-11.035156 13.152344-26.925781 20.570313-40.429687 30.632813-14.09375 10.238281-24.597657 24.667968-30.015625 41.226562-9.003906 27.980469-6.53125 58.171875-6.621094 87.125l-.96875.707032c-7.0625-10.59375-14.742188-20.921876-22.335938-31.160157-23.214843-31.160156-49.257812-61.441406-55.878906-100.988281-11.914062-70.972656 34.164063-145.300781 99.929688-171.871094 13.601562-5.507812 27.742187-9.5625 42.195312-12.09375 15.359375 31.601563 29.042969 68.324219 30.101563 103.632813zm0 0" fill="#af8066"/><g fill="#2c2f38"><path d="m178.167969 432.550781v26.484375c-.199219 5.125-1.988281 10.0625-5.121094 14.125-1.09375 1.5-2.371094 2.867188-3.796875 4.058594-7.449219 5.96875-16.867188 8.925781-26.394531 8.296875h-32.21875c-.089844-.085937-.089844-.085937-.089844-.175781-1.746094-5.953125-3.871094-11.792969-6.355469-17.476563h38.664063c15.539062 0 17.390625-6.976562 17.65625-8.828125v-26.484375c0-4.875 3.953125-8.828125 8.828125-8.828125s8.828125 3.953125 8.828125 8.828125zm0 0"/><path d="m234.488281 467.863281c-2.484375 5.683594-4.609375 11.523438-6.355469 17.476563 0 .089844 0 .089844-.089843.175781h-32.21875c-9.574219.574219-19.027344-2.378906-26.574219-8.296875-5.324219-4.574219-8.492188-11.167969-8.738281-18.183594v-26.484375c0-4.875 3.953125-8.828125 8.828125-8.828125s8.828125 3.953125 8.828125 8.828125v26.484375c.085937 1.234375 1.410156 8.828125 17.65625 8.828125zm0 0"/><path d="m169.339844 379.65625c15.078125 0 27.367187-1.386719 37.773437 8.519531 4.171875 4.171875 6.417969 9.898438 6.1875 15.796875-.226562 5.898438-2.90625 11.4375-7.386719 15.277344-10.929687 9.285156-23.277343 16.757812-36.574218 22.128906h-.089844c-13.296875-5.371094-25.644531-12.84375-36.570312-22.128906-4.484376-3.839844-7.164063-9.378906-7.390626-15.277344-.226562-5.898437 2.015626-11.625 6.1875-15.796875 10.417969-9.914062 22.699219-8.519531 37.773438-8.519531"/></g><path d="m125.203125 220.691406c0 14.625-11.859375 26.480469-26.484375 26.480469s-26.484375-11.855469-26.484375-26.480469c0-14.628906 11.859375-26.484375 26.484375-26.484375s26.484375 11.855469 26.484375 26.484375zm0 0" fill="#fff"/><path d="m116.375 220.691406c0 9.75-7.90625 17.652344-17.65625 17.652344s-17.65625-7.902344-17.65625-17.652344c0-9.753906 7.90625-17.65625 17.65625-17.65625s17.65625 7.902344 17.65625 17.65625zm0 0" fill="#e4c05c"/><path d="m107.546875 220.691406c0 4.875-3.953125 8.824219-8.828125 8.824219s-8.828125-3.949219-8.828125-8.824219c0-4.878906 3.953125-8.828125 8.828125-8.828125s8.828125 3.949219 8.828125 8.828125zm0 0" fill="#2c2f38"/><path d="m98.71875 211.863281c0 4.875-3.953125 8.828125-8.828125 8.828125s-8.828125-3.953125-8.828125-8.828125 3.953125-8.828125 8.828125-8.828125 8.828125 3.953125 8.828125 8.828125zm0 0" fill="#fff"/><path d="m266.441406 220.691406c0 14.625-11.855468 26.480469-26.480468 26.480469s-26.484376-11.855469-26.484376-26.480469c0-14.628906 11.859376-26.484375 26.484376-26.484375s26.480468 11.855469 26.480468 26.484375zm0 0" fill="#fff"/><path d="m257.617188 220.691406c0 9.75-7.90625 17.652344-17.65625 17.652344s-17.65625-7.902344-17.65625-17.652344c0-9.753906 7.90625-17.65625 17.65625-17.65625s17.65625 7.902344 17.65625 17.65625zm0 0" fill="#e4c05c"/><path d="m248.789062 220.691406c0 4.875-3.953124 8.824219-8.828124 8.824219s-8.828126-3.949219-8.828126-8.824219c0-4.878906 3.953126-8.828125 8.828126-8.828125s8.828124 3.949219 8.828124 8.828125zm0 0" fill="#2c2f38"/><path d="m239.960938 211.863281c0 4.875-3.953126 8.828125-8.828126 8.828125s-8.828124-3.953125-8.828124-8.828125 3.953124-8.828125 8.828124-8.828125 8.828126 3.953125 8.828126 8.828125zm0 0" fill="#fff"/><path d="m178.167969 397.242188c0-4.875-7.90625-8.828126-17.65625-8.828126s-17.65625 3.953126-17.65625 8.828126 7.90625 8.828124 17.65625 8.828124 17.65625-3.953124 17.65625-8.828124zm0 0" fill="#35495e"/></svg>