<svg height="512pt" viewBox="0 -5 512.03072 512" width="512pt" xmlns="http://www.w3.org/2000/svg"><path d="m68.070312 369.265625c-67.902343-28.363281-69.488281-62.054687-67.671874-73.699219.519531-2.5625 2.175781-4.746094 4.503906-5.933594 38.496094-22.289062 6.082031-132.191406 31.65625-183.691406 13.644531-30.027344 47.53125-45.175781 79.003906-35.3125 0 0 26.308594-52.964844 140.449219-52.964844s140.445312 52.964844 140.445312 52.964844c31.472657-9.863281 65.363281 5.285156 79.007813 35.3125 25.601562 51.5-6.839844 161.402344 31.664062 183.683594 2.328125 1.1875 3.984375 3.371094 4.503906 5.933594 1.816407 11.6875.226563 45.335937-67.671874 73.699218l-114.859376 98.964844c-12.003906 20.570313-40.253906 34.957032-73.089843 34.957032-32.839844 0-61.085938-14.386719-73.09375-34.957032zm0 0" fill="#b19046"/><path d="m438.273438 308.296875c-.996094-2.621094-1.644532-5.359375-1.921876-8.148437 19.136719-37.546876 13.617188-94.640626 6.335938-133.667969-2.410156-12.902344-9.625-24.414063-20.1875-32.203125-10.988281-7.425782-17.285156-20.0625-16.597656-33.308594.117187-1.277344.175781-2.5625.175781-3.855469 0-43.882812-67.183594-79.449219-150.066406-79.449219-82.882813 0-150.070313 35.566407-150.070313 79.449219 0 1.289063.0625 2.570313.1875 3.847657.6875 13.25-5.613281 25.890624-16.605468 33.316406-10.566407 7.789062-17.785157 19.296875-20.199219 32.203125-7.289063 39.027343-12.816407 96.121093 6.332031 133.667969-.28125 2.789062-.929688 5.527343-1.925781 8.148437-1.546875 7.191406-2.789063 14.457031-3.761719 21.75-6.117188 46.015625-1.101562 99.867187 44.09375 125.6875 22.078125 12.160156 47.65625 16.398437 72.476562 12.003906 26.941407-4.570312 47.316407-20.71875 69.472657-35.175781 22.148437 14.449219 42.523437 30.605469 69.464843 35.167969 24.820313 4.394531 50.394532.15625 72.472657-12.007813 45.207031-25.808594 50.210937-79.660156 44.085937-125.667968-.972656-7.300782-2.207031-14.566407-3.761718-21.757813zm0 0" fill="#f3d55b"/><path d="m300.148438 391.363281c-3.421876 22.28125-21.671876 39.316407-44.136719 41.199219-22.46875-1.882812-40.714844-18.917969-44.140625-41.199219.007812-1.800781.304687-3.589843.882812-5.296875 4.152344-11.078125 21.894532-15.296875 43.257813-15.296875 24.363281 0 44.136719 5.453125 44.136719 20.59375zm0 0" fill="#2c2f38"/><path d="m123.597656 273.664062c-4.875 0-8.828125-3.953124-8.828125-8.828124-.277343-9.445313 3.355469-18.589844 10.039063-25.273438 6.683594-6.679688 15.824218-10.3125 25.269531-10.035156 4.878906 0 8.828125 3.953125 8.828125 8.828125s-3.949219 8.824219-8.828125 8.824219c-4.769531-.304688-9.4375 1.457031-12.820313 4.835937-3.378906 3.378906-5.140624 8.050781-4.832031 12.820313 0 4.875-3.953125 8.828124-8.828125 8.828124zm0 0" fill="#b19046"/><path d="m388.425781 273.664062c-4.855469 0-8.800781-3.917968-8.828125-8.773437.320313-4.777344-1.4375-9.464844-4.816406-12.855469-3.382812-3.390625-8.058594-5.160156-12.839844-4.855468-4.875 0-8.828125-3.949219-8.828125-8.824219s3.953125-8.828125 8.828125-8.828125c9.449219-.277344 18.589844 3.355468 25.273438 10.035156 6.683594 6.683594 10.3125 15.828125 10.039062 25.273438 0 2.34375-.929687 4.585937-2.585937 6.242187s-3.902344 2.585937-6.242188 2.585937zm0 0" fill="#b19046"/><path d="m264.839844 388.421875c0-4.875-7.90625-8.828125-17.65625-8.828125s-17.65625 3.953125-17.65625 8.828125 7.90625 8.828125 17.65625 8.828125 17.65625-3.953125 17.65625-8.828125zm0 0" fill="#35495e"/><path d="m203.046875 300.148438c0 14.625-11.859375 26.480468-26.484375 26.480468s-26.484375-11.855468-26.484375-26.480468c0-14.628907 11.859375-26.484376 26.484375-26.484376s26.484375 11.855469 26.484375 26.484376zm0 0" fill="#fff"/><path d="m194.21875 300.148438c0 9.75-7.90625 17.652343-17.65625 17.652343s-17.65625-7.902343-17.65625-17.652343c0-9.753907 7.90625-17.65625 17.65625-17.65625s17.65625 7.902343 17.65625 17.65625zm0 0" fill="#804537"/><path d="m176.5625 308.976562c-1.152344-.015624-2.292969-.253906-3.355469-.707031-1.066406-.449219-2.050781-1.078125-2.910156-1.855469-1.613281-1.691406-2.527344-3.929687-2.5625-6.265624.015625-1.15625.253906-2.292969.707031-3.355469.449219-1.070313 1.074219-2.054688 1.855469-2.914063.839844-.796875 1.832031-1.425781 2.910156-1.851562 1.613281-.707032 3.402344-.890625 5.121094-.53125.554687.097656 1.089844.273437 1.589844.53125.5625.191406 1.097656.457031 1.589843.792968.460938.324219.902344.679688 1.324219 1.058594.777344.859375 1.402344 1.84375 1.851563 2.914063.941406 2.136719.941406 4.570312 0 6.707031-.449219 1.070312-1.074219 2.054688-1.851563 2.914062l-1.324219 1.058594c-.492187.335938-1.027343.601563-1.589843.796875-.5.253907-1.039063.429688-1.589844.527344-.582031.101563-1.171875.160156-1.765625.179687zm0 0" fill="#2c2f38"/><path d="m176.5625 291.320312c0 4.875-3.953125 8.828126-8.828125 8.828126s-8.828125-3.953126-8.828125-8.828126 3.953125-8.828124 8.828125-8.828124 8.828125 3.953124 8.828125 8.828124zm0 0" fill="#fff"/><path d="m361.941406 300.148438c0 14.625-11.855468 26.480468-26.480468 26.480468-14.628907 0-26.484376-11.855468-26.484376-26.480468 0-14.628907 11.855469-26.484376 26.484376-26.484376 14.625 0 26.480468 11.855469 26.480468 26.484376zm0 0" fill="#fff"/><path d="m353.113281 300.148438c0 9.75-7.902343 17.652343-17.652343 17.652343-9.753907 0-17.65625-7.902343-17.65625-17.652343 0-9.753907 7.902343-17.65625 17.65625-17.65625 9.75 0 17.652343 7.902343 17.652343 17.65625zm0 0" fill="#804537"/><path d="m335.460938 308.976562c-1.15625-.015624-2.296876-.253906-3.355469-.707031-1.070313-.449219-2.054688-1.078125-2.914063-1.855469-1.613281-1.691406-2.527344-3.929687-2.558594-6.265624.011719-1.15625.253907-2.292969.703126-3.355469.449218-1.070313 1.078124-2.054688 1.855468-2.914063.84375-.796875 1.832032-1.425781 2.914063-1.851562 1.609375-.707032 3.398437-.890625 5.121093-.53125.550782.097656 1.085938.273437 1.585938.53125.5625.191406 1.097656.457031 1.589844.792968.460937.324219.90625.679688 1.324218 1.058594.777344.859375 1.40625 1.84375 1.855469 2.914063.941407 2.136719.941407 4.570312 0 6.707031-.449219 1.070312-1.078125 2.054688-1.855469 2.914062l-1.324218 1.058594c-.492188.335938-1.027344.601563-1.589844.796875-.5.253907-1.035156.429688-1.585938.527344-.585937.101563-1.175781.160156-1.765624.179687zm0 0" fill="#2c2f38"/><path d="m335.460938 291.320312c0 4.875-3.953126 8.828126-8.828126 8.828126s-8.828124-3.953126-8.828124-8.828126 3.953124-8.828124 8.828124-8.828124 8.828126 3.953124 8.828126 8.828124zm0 0" fill="#fff"/><path d="m406.882812 116.824219 44.78125 45.320312c5.378907 5.417969 13.074219 7.851563 20.585938 6.507813 7.515625-1.339844 13.894531-6.28125 17.066406-13.226563l20.523438-44.558593c3.214844-6.925782 2.824218-14.984376-1.039063-21.566407-3.867187-6.582031-10.714843-10.847656-18.328125-11.414062l-63.558594-4.566407-45.816406-21.105468-44.753906-45.328125c-5.378906-5.417969-13.074219-7.851563-20.585938-6.507813-7.515624 1.339844-13.894531 6.28125-17.066406 13.226563l-20.550781 44.558593c-3.214844 6.921876-2.824219 14.980469 1.039063 21.5625 3.863281 6.582032 10.710937 10.851563 18.320312 11.417969l63.558594 4.566407zm0 0" fill="#ff5364"/><path d="m408.574219 52.84375c17.5 8.058594 25.148437 28.773438 17.089843 46.269531-8.054687 17.496094-28.769531 25.148438-46.265624 17.089844-17.496094-8.058594-25.148438-28.773437-17.089844-46.269531 8.054687-17.496094 28.769531-25.148438 46.265625-17.089844zm0 0" fill="#fb7b76"/></svg>