<?xml version="1.0" encoding="UTF-8" standalone="no"?>
<!DOCTYPE svg PUBLIC "-//W3C//DTD SVG 1.1//EN"
 "http://www.w3.org/Graphics/SVG/1.1/DTD/svg11.dtd">
<!-- Generated by graphviz version 2.44.1 (20200629.0846)
 -->
<!-- Title: dependencies Pages: 1 -->
<svg width="547pt" height="211pt"
 viewBox="0.00 0.00 547.00 211.00" xmlns="http://www.w3.org/2000/svg" xmlns:xlink="http://www.w3.org/1999/xlink">
<g id="graph0" class="graph" transform="scale(1 1) rotate(0) translate(4 207)">
<title>dependencies</title>
<polygon fill="white" stroke="transparent" points="-4,4 -4,-207 543,-207 543,4 -4,4"/>
<text text-anchor="start" x="248.51" y="-42.4" font-family="sans-serif" font-weight="bold" font-size="14.00">Legend</text>
<polygon fill="#ffffb3" stroke="transparent" points="35.5,-10 35.5,-30 55.5,-30 55.5,-10 35.5,-10"/>
<text text-anchor="start" x="59.13" y="-15.4" font-family="sans-serif" font-size="14.00"> &#160;Declarations</text>
<polygon fill="#8dd3c7" stroke="transparent" points="148.5,-10 148.5,-30 168.5,-30 168.5,-10 148.5,-10"/>
<text text-anchor="start" x="172.23" y="-15.4" font-family="sans-serif" font-size="14.00"> &#160;Module</text>
<polygon fill="#80b1d3" stroke="transparent" points="234.5,-10 234.5,-30 254.5,-30 254.5,-10 234.5,-10"/>
<text text-anchor="start" x="258.28" y="-15.4" font-family="sans-serif" font-size="14.00"> &#160;Bootstrap</text>
<polygon fill="#fdb462" stroke="transparent" points="331.5,-10 331.5,-30 351.5,-30 351.5,-10 331.5,-10"/>
<text text-anchor="start" x="355.17" y="-15.4" font-family="sans-serif" font-size="14.00"> &#160;Providers</text>
<polygon fill="#fb8072" stroke="transparent" points="427.5,-10 427.5,-30 447.5,-30 447.5,-10 427.5,-10"/>
<text text-anchor="start" x="451.23" y="-15.4" font-family="sans-serif" font-size="14.00"> &#160;Exports</text>
<g id="clust1" class="cluster">
<title>cluster_ScheduleModule</title>
<polygon fill="none" stroke="black" stroke-dasharray="1,5" points="8,-70 8,-195 531,-195 531,-70 8,-70"/>
</g>
<g id="clust5" class="cluster">
<title>cluster_ScheduleModule_imports</title>
<polygon fill="none" stroke="black" points="351,-78 351,-130 523,-130 523,-78 351,-78"/>
</g>
<g id="clust2" class="cluster">
<title>cluster_ScheduleModule_declarations</title>
<polygon fill="none" stroke="black" points="16,-78 16,-130 343,-130 343,-78 16,-78"/>
</g>
<!-- AppointmentsComponent -->
<g id="node1" class="node">
<title>AppointmentsComponent</title>
<polygon fill="#ffffb3" stroke="black" points="335.16,-122 174.84,-122 174.84,-86 335.16,-86 335.16,-122"/>
<text text-anchor="middle" x="255" y="-99.8" font-family="Times,serif" font-size="14.00">AppointmentsComponent</text>
</g>
<!-- ScheduleModule -->
<g id="node3" class="node">
<title>ScheduleModule</title>
<polygon fill="#8dd3c7" stroke="black" points="310.37,-187 307.37,-191 286.37,-191 283.37,-187 199.63,-187 199.63,-151 310.37,-151 310.37,-187"/>
<text text-anchor="middle" x="255" y="-164.8" font-family="Times,serif" font-size="14.00">ScheduleModule</text>
</g>
<!-- AppointmentsComponent&#45;&gt;ScheduleModule -->
<g id="edge1" class="edge">
<title>AppointmentsComponent&#45;&gt;ScheduleModule</title>
<path fill="none" stroke="black" d="M255,-122.11C255,-122.11 255,-140.99 255,-140.99"/>
<polygon fill="black" stroke="black" points="251.5,-140.99 255,-150.99 258.5,-140.99 251.5,-140.99"/>
</g>
<!-- ScheduleComponent -->
<g id="node2" class="node">
<title>ScheduleComponent</title>
<polygon fill="#ffffb3" stroke="black" points="156.15,-122 23.85,-122 23.85,-86 156.15,-86 156.15,-122"/>
<text text-anchor="middle" x="90" y="-99.8" font-family="Times,serif" font-size="14.00">ScheduleComponent</text>
</g>
<!-- ScheduleComponent&#45;&gt;ScheduleModule -->
<g id="edge2" class="edge">
<title>ScheduleComponent&#45;&gt;ScheduleModule</title>
<path fill="none" stroke="black" d="M90,-122.11C90,-141.34 90,-169 90,-169 90,-169 189.6,-169 189.6,-169"/>
<polygon fill="black" stroke="black" points="189.6,-172.5 199.6,-169 189.6,-165.5 189.6,-172.5"/>
</g>
<!-- ScheduleRoutingModule -->
<g id="node4" class="node">
<title>ScheduleRoutingModule</title>
<polygon fill="#8dd3c7" stroke="black" points="514.98,-122 511.98,-126 490.98,-126 487.98,-122 359.02,-122 359.02,-86 514.98,-86 514.98,-122"/>
<text text-anchor="middle" x="437" y="-99.8" font-family="Times,serif" font-size="14.00">ScheduleRoutingModule</text>
</g>
<!-- ScheduleRoutingModule&#45;&gt;ScheduleModule -->
<g id="edge3" class="edge">
<title>ScheduleRoutingModule&#45;&gt;ScheduleModule</title>
<path fill="none" stroke="black" d="M437,-122.11C437,-141.34 437,-169 437,-169 437,-169 320.59,-169 320.59,-169"/>
<polygon fill="black" stroke="black" points="320.59,-165.5 310.59,-169 320.59,-172.5 320.59,-165.5"/>
</g>
</g>
</svg>
