<?xml version="1.0" encoding="UTF-8" standalone="no"?>
<!DOCTYPE svg PUBLIC "-//W3C//DTD SVG 1.1//EN"
 "http://www.w3.org/Graphics/SVG/1.1/DTD/svg11.dtd">
<!-- Generated by graphviz version 2.44.1 (20200629.0846)
 -->
<!-- Title: dependencies Pages: 1 -->
<svg width="1218pt" height="211pt"
 viewBox="0.00 0.00 1218.00 211.00" xmlns="http://www.w3.org/2000/svg" xmlns:xlink="http://www.w3.org/1999/xlink">
<g id="graph0" class="graph" transform="scale(1 1) rotate(0) translate(4 207)">
<title>dependencies</title>
<polygon fill="white" stroke="transparent" points="-4,4 -4,-207 1214,-207 1214,4 -4,4"/>
<text text-anchor="start" x="584.01" y="-42.4" font-family="sans-serif" font-weight="bold" font-size="14.00">Legend</text>
<polygon fill="#ffffb3" stroke="transparent" points="371,-10 371,-30 391,-30 391,-10 371,-10"/>
<text text-anchor="start" x="394.63" y="-15.4" font-family="sans-serif" font-size="14.00"> &#160;Declarations</text>
<polygon fill="#8dd3c7" stroke="transparent" points="484,-10 484,-30 504,-30 504,-10 484,-10"/>
<text text-anchor="start" x="507.73" y="-15.4" font-family="sans-serif" font-size="14.00"> &#160;Module</text>
<polygon fill="#80b1d3" stroke="transparent" points="570,-10 570,-30 590,-30 590,-10 570,-10"/>
<text text-anchor="start" x="593.78" y="-15.4" font-family="sans-serif" font-size="14.00"> &#160;Bootstrap</text>
<polygon fill="#fdb462" stroke="transparent" points="667,-10 667,-30 687,-30 687,-10 667,-10"/>
<text text-anchor="start" x="690.67" y="-15.4" font-family="sans-serif" font-size="14.00"> &#160;Providers</text>
<polygon fill="#fb8072" stroke="transparent" points="763,-10 763,-30 783,-30 783,-10 763,-10"/>
<text text-anchor="start" x="786.73" y="-15.4" font-family="sans-serif" font-size="14.00"> &#160;Exports</text>
<g id="clust1" class="cluster">
<title>cluster_ScheduleModule</title>
<polygon fill="none" stroke="black" stroke-dasharray="1,5" points="8,-70 8,-195 1202,-195 1202,-70 8,-70"/>
</g>
<g id="clust2" class="cluster">
<title>cluster_ScheduleModule_declarations</title>
<polygon fill="none" stroke="black" points="444,-78 444,-130 1194,-130 1194,-78 444,-78"/>
</g>
<g id="clust7" class="cluster">
<title>cluster_ScheduleModule_imports</title>
<polygon fill="none" stroke="black" points="264,-78 264,-130 436,-130 436,-78 264,-78"/>
</g>
<g id="clust10" class="cluster">
<title>cluster_ScheduleModule_providers</title>
<polygon fill="none" stroke="black" points="16,-78 16,-130 256,-130 256,-78 16,-78"/>
</g>
<!-- AppointmentFormComponent -->
<g id="node1" class="node">
<title>AppointmentFormComponent</title>
<polygon fill="#ffffb3" stroke="black" points="1185.55,-122 1000.45,-122 1000.45,-86 1185.55,-86 1185.55,-122"/>
<text text-anchor="middle" x="1093" y="-99.8" font-family="Times,serif" font-size="14.00">AppointmentFormComponent</text>
</g>
<!-- ScheduleModule -->
<g id="node5" class="node">
<title>ScheduleModule</title>
<polygon fill="#8dd3c7" stroke="black" points="661.37,-187 658.37,-191 637.37,-191 634.37,-187 550.63,-187 550.63,-151 661.37,-151 661.37,-187"/>
<text text-anchor="middle" x="606" y="-164.8" font-family="Times,serif" font-size="14.00">ScheduleModule</text>
</g>
<!-- AppointmentFormComponent&#45;&gt;ScheduleModule -->
<g id="edge1" class="edge">
<title>AppointmentFormComponent&#45;&gt;ScheduleModule</title>
<path fill="none" stroke="black" d="M1093,-122.28C1093,-143.32 1093,-175 1093,-175 1093,-175 671.39,-175 671.39,-175"/>
<polygon fill="black" stroke="black" points="671.39,-171.5 661.39,-175 671.39,-178.5 671.39,-171.5"/>
</g>
<!-- AppointmentListComponent -->
<g id="node2" class="node">
<title>AppointmentListComponent</title>
<polygon fill="#ffffb3" stroke="black" points="982.49,-122 805.51,-122 805.51,-86 982.49,-86 982.49,-122"/>
<text text-anchor="middle" x="894" y="-99.8" font-family="Times,serif" font-size="14.00">AppointmentListComponent</text>
</g>
<!-- AppointmentListComponent&#45;&gt;ScheduleModule -->
<g id="edge2" class="edge">
<title>AppointmentListComponent&#45;&gt;ScheduleModule</title>
<path fill="none" stroke="black" d="M894,-122.02C894,-139.37 894,-163 894,-163 894,-163 671.53,-163 671.53,-163"/>
<polygon fill="black" stroke="black" points="671.53,-159.5 661.53,-163 671.53,-166.5 671.53,-159.5"/>
</g>
<!-- AppointmentViewComponent -->
<g id="node3" class="node">
<title>AppointmentViewComponent</title>
<polygon fill="#ffffb3" stroke="black" points="787.53,-122 602.47,-122 602.47,-86 787.53,-86 787.53,-122"/>
<text text-anchor="middle" x="695" y="-99.8" font-family="Times,serif" font-size="14.00">AppointmentViewComponent</text>
</g>
<!-- AppointmentViewComponent&#45;&gt;ScheduleModule -->
<g id="edge3" class="edge">
<title>AppointmentViewComponent&#45;&gt;ScheduleModule</title>
<path fill="none" stroke="black" d="M631.83,-122.11C631.83,-122.11 631.83,-140.99 631.83,-140.99"/>
<polygon fill="black" stroke="black" points="628.33,-140.99 631.83,-150.99 635.33,-140.99 628.33,-140.99"/>
</g>
<!-- ScheduleComponent -->
<g id="node4" class="node">
<title>ScheduleComponent</title>
<polygon fill="#ffffb3" stroke="black" points="584.15,-122 451.85,-122 451.85,-86 584.15,-86 584.15,-122"/>
<text text-anchor="middle" x="518" y="-99.8" font-family="Times,serif" font-size="14.00">ScheduleComponent</text>
</g>
<!-- ScheduleComponent&#45;&gt;ScheduleModule -->
<g id="edge4" class="edge">
<title>ScheduleComponent&#45;&gt;ScheduleModule</title>
<path fill="none" stroke="black" d="M567.45,-122.11C567.45,-122.11 567.45,-140.99 567.45,-140.99"/>
<polygon fill="black" stroke="black" points="563.95,-140.99 567.45,-150.99 570.95,-140.99 563.95,-140.99"/>
</g>
<!-- ScheduleRoutingModule -->
<g id="node6" class="node">
<title>ScheduleRoutingModule</title>
<polygon fill="#8dd3c7" stroke="black" points="427.98,-122 424.98,-126 403.98,-126 400.98,-122 272.02,-122 272.02,-86 427.98,-86 427.98,-122"/>
<text text-anchor="middle" x="350" y="-99.8" font-family="Times,serif" font-size="14.00">ScheduleRoutingModule</text>
</g>
<!-- ScheduleRoutingModule&#45;&gt;ScheduleModule -->
<g id="edge5" class="edge">
<title>ScheduleRoutingModule&#45;&gt;ScheduleModule</title>
<path fill="none" stroke="black" d="M350,-122.02C350,-139.37 350,-163 350,-163 350,-163 540.45,-163 540.45,-163"/>
<polygon fill="black" stroke="black" points="540.45,-166.5 550.45,-163 540.45,-159.5 540.45,-166.5"/>
</g>
<!-- AppointmentFormService -->
<g id="node7" class="node">
<title>AppointmentFormService</title>
<ellipse fill="#fdb462" stroke="black" cx="136" cy="-104" rx="111.76" ry="18"/>
<text text-anchor="middle" x="136" y="-99.8" font-family="Times,serif" font-size="14.00">AppointmentFormService</text>
</g>
<!-- AppointmentFormService&#45;&gt;ScheduleModule -->
<g id="edge6" class="edge">
<title>AppointmentFormService&#45;&gt;ScheduleModule</title>
<path fill="none" stroke="black" d="M136,-122.28C136,-143.32 136,-175 136,-175 136,-175 540.24,-175 540.24,-175"/>
<polygon fill="black" stroke="black" points="540.24,-178.5 550.24,-175 540.24,-171.5 540.24,-178.5"/>
</g>
</g>
</svg>
