<?xml version="1.0" encoding="iso-8859-1"?>
<!-- Generator: Adobe Illustrator 19.0.0, SVG Export Plug-In . SVG Version: 6.00 Build 0)  -->
<svg version="1.1" id="Capa_1" xmlns="http://www.w3.org/2000/svg" xmlns:xlink="http://www.w3.org/1999/xlink" x="0px" y="0px"
	 viewBox="0 0 511.999 511.999" style="enable-background:new 0 0 511.999 511.999;" xml:space="preserve">
<g>
	<path style="fill:#3A484A;" d="M370.128,389.467H328.76l-28.225,66.366l28.225,56.167h43.603l7.726-4.415l7.726,4.415h50.494
		C438.311,443.623,442.645,416.127,370.128,389.467z"/>
	<path style="fill:#3A484A;" d="M183.239,389.467h-41.368c-72.517,26.66-68.183,54.157-68.183,122.533h50.494l7.468-6.476
		l7.985,6.476h43.602l28.225-56.167L183.239,389.467z"/>
</g>
<g>
	<path style="fill:#313D40;" d="M172.777,389.467h-30.905c-72.517,26.66-68.183,54.157-68.183,122.533h30.905
		C104.594,443.623,100.26,416.127,172.777,389.467z"/>
	<path style="fill:#313D40;" d="M124.183,511.999v-45.217c0-4.267,3.459-7.726,7.726-7.726s7.726,3.459,7.726,7.726v45.217H124.183z
		"/>
	<path style="fill:#313D40;" d="M372.364,511.999v-45.217c0-4.267,3.459-7.726,7.726-7.726c4.267,0,7.726,3.459,7.726,7.726v45.217
		H372.364z"/>
</g>
<polygon style="fill:#EFEDEE;" points="183.239,389.467 183.239,511.999 229.822,511.999 256,498.4 282.178,511.999 328.76,511.999 
	328.76,389.467 "/>
<polygon style="fill:#BF4E57;" points="282.178,511.999 271.102,454.917 240.897,454.917 229.822,511.999 "/>
<path style="fill:#DC5A64;" d="M277.358,439.145l-2.952-14.007h-36.811l-2.952,14.007c-1.272,6.037,1.192,12.249,6.256,15.772
	l8.901,6.192c3.728,2.593,8.676,2.593,12.403,0l8.901-6.192C276.167,451.394,278.631,445.182,277.358,439.145z"/>
<path style="fill:#E6742E;" d="M183.239,62.409c0,0-13.733-51.125-66.094-61.974c-6.518-1.351-13.277,0.492-18.328,4.826
	C83.426,18.467,57.239,55.656,87.943,144.507L183.239,62.409z"/>
<path style="fill:#FFDFBF;" d="M154.674,80.28l0.081,0.298c-0.388-1.328-9.483-41.509-39.417-50.144
	c-8.397,9.549-22.641,37.276,0.559,104.412L154.674,80.28z"/>
<path style="fill:#E6742E;" d="M328.76,62.409c0,0,13.733-51.125,66.094-61.974c6.518-1.351,13.277,0.492,18.328,4.826
	c15.391,13.205,41.578,50.394,10.874,139.245L328.76,62.409z"/>
<path style="fill:#FFDFBF;" d="M357.325,80.28l-0.081,0.298c0.388-1.328,9.483-41.509,39.417-50.144
	c8.397,9.549,22.641,37.276-0.559,104.412L357.325,80.28z"/>
<path style="fill:#FF8840;" d="M174.08,407.214c-65.499-30.067-110.845-95.087-110.845-170.45
	C63.234,132.803,149.54,48.517,256,48.517s192.765,84.286,192.765,188.247c0,75.362-45.345,140.382-110.845,170.449H174.08V407.214z
	"/>
<g>
	<path style="fill:#3A484A;" d="M176.323,209.79c-4.267,0-7.726-3.459-7.726-7.726v-14.42c0-4.267,3.459-7.726,7.726-7.726
		s7.726,3.459,7.726,7.726v14.42C184.05,206.33,180.59,209.79,176.323,209.79z"/>
	<path style="fill:#3A484A;" d="M335.676,209.79c-4.267,0-7.726-3.459-7.726-7.726v-14.42c0-4.267,3.459-7.726,7.726-7.726
		c4.267,0,7.726,3.459,7.726,7.726v14.42C343.402,206.33,339.943,209.79,335.676,209.79z"/>
</g>
<path style="fill:#E67A3A;" d="M174.08,407.214h30.905c-65.499-30.067-110.844-95.088-110.844-170.449
	c0-98.88,78.077-179.955,177.294-187.645c-5.132-0.397-10.286-0.602-15.435-0.602c-83.172,0-154.042,51.444-181.068,123.524
	c-7.59,20.243-11.697,42.717-11.697,64.723c0,17.663,2.491,34.757,7.148,50.968C85.421,340.074,124.381,384.399,174.08,407.214z"/>
<path style="fill:#FFDFBF;" d="M383.531,318.256c0,54.178-26.763,78.534-45.611,88.957c-0.021,0.01-0.031,0.021-0.051,0.031
	c-5.824,2.662-11.801,5.059-17.92,7.16c-0.031,0.01-0.061,0.01-0.081,0.021c-0.071,0.01-0.102,0.021-0.102,0.021l0.01,0.021
	c-19.96,6.833-41.429,10.546-63.775,10.546s-43.795-3.713-63.755-10.546l-0.01-0.021c0,0-0.031-0.01-0.102-0.021
	c-0.021-0.01-0.05-0.01-0.081-0.021c-6.119-2.101-12.096-4.498-17.92-7.16c-0.021-0.01-0.031-0.021-0.05-0.031
	c-18.848-10.423-45.611-34.779-45.611-88.957c0-83.633,76.198-78.871,83.674-104.787c7.476-25.916,15.635-33.923,43.857-33.923
	s36.381,8.007,43.857,33.923C307.333,239.386,383.531,234.622,383.531,318.256z"/>
<path style="fill:#E6C9AC;" d="M256.165,425.01c1.27-0.001,2.536-0.014,3.8-0.04c1.088-0.022,2.172-0.057,3.255-0.097
	c0.195-0.007,0.391-0.011,0.586-0.019c2.562-0.102,5.111-0.252,7.647-0.448c-16.799-1.301-32.991-4.699-48.304-9.941l-0.01-0.021
	c0,0-0.031-0.01-0.102-0.021c-0.021-0.01-0.05-0.01-0.081-0.021c-6.119-2.102-12.096-4.498-17.92-7.16
	c-0.021-0.01-0.031-0.021-0.05-0.031c-29.193-13.402-54.378-33.751-73.333-58.859c7.635,33.602,27.504,50.606,42.426,58.858
	c0,0,0.002,0,0.002,0.001c0.021,0.01,0.031,0.021,0.05,0.031c5.824,2.662,11.801,5.059,17.92,7.16
	c0.031,0.01,0.061,0.01,0.081,0.021c0.036,0.005,0.061,0.01,0.078,0.014c0.016,0.003,0.024,0.006,0.024,0.006l0.004,0.008
	l0.006,0.012c11.227,3.844,22.926,6.7,34.99,8.464c4.022,0.587,8.084,1.054,12.183,1.395c5.465,0.454,10.996,0.687,16.582,0.687
	C256.055,425.011,256.11,425.01,256.165,425.01z"/>
<g>
	<path style="fill:#3A484A;" d="M256,249.819c-8.423,0-16.423-2.846-21.949-7.808c-3.175-2.852-3.437-7.737-0.586-10.911
		c2.852-3.175,7.737-3.437,10.911-0.586c2.686,2.413,7.032,3.853,11.624,3.853c4.592,0,8.937-1.44,11.622-3.852
		c3.175-2.851,8.059-2.59,10.912,0.585c2.852,3.175,2.589,8.06-0.585,10.911C272.423,246.973,264.424,249.819,256,249.819z"/>
	<path style="fill:#3A484A;" d="M270.997,206.459h-29.995c-5.959,0-7.626,8.161-2.154,10.518c5.214,2.246,11.025,3.5,17.151,3.5
		s11.938-1.254,17.151-3.5C278.622,214.619,276.955,206.459,270.997,206.459z"/>
</g>
<g>
</g>
<g>
</g>
<g>
</g>
<g>
</g>
<g>
</g>
<g>
</g>
<g>
</g>
<g>
</g>
<g>
</g>
<g>
</g>
<g>
</g>
<g>
</g>
<g>
</g>
<g>
</g>
<g>
</g>
</svg>
