<?xml version="1.0" encoding="iso-8859-1"?>
<!-- Generator: Adobe Illustrator 19.0.0, SVG Export Plug-In . SVG Version: 6.00 Build 0)  -->
<svg version="1.1" id="Capa_1" xmlns="http://www.w3.org/2000/svg" xmlns:xlink="http://www.w3.org/1999/xlink" x="0px" y="0px"
	 viewBox="0 0 512 512" style="enable-background:new 0 0 512 512;" xml:space="preserve">
<g>
	<path style="fill:#DC5A64;" d="M374.575,383.65h-31.203l-23.623,67.593L343.372,512h52.069l7.726-3.914l7.726,3.914h43.098
		C453.992,392.356,374.575,383.65,374.575,383.65z"/>
	<path style="fill:#DC5A64;" d="M168.625,383.65h-31.203c0,0-79.418,8.707-79.418,128.35h43.098l7.726-4.883l7.726,4.883h52.069
		l23.623-60.757L168.625,383.65z"/>
</g>
<path style="fill:#BF4E57;" d="M158.025,383.65h-20.604c0,0-79.418,8.707-79.418,128.35h20.604
	C78.609,392.356,158.025,383.65,158.025,383.65z"/>
<path style="fill:#3A484A;" d="M29.462,195.852C-3.005,32.037,145.051-21.429,255.999,7.452
	c110.947-28.881,259.004,24.583,226.537,188.4l-17.674,35.338H40.796L29.462,195.852z"/>
<rect x="168.619" y="468.866" style="fill:#2FC8B4;" width="174.75" height="43.134"/>
<polygon style="fill:#FBC4AC;" points="343.372,440.337 343.372,383.646 168.623,383.646 168.623,440.337 193.746,458.025 
	255.997,465.912 316.165,455.964 "/>
<g>
	<path style="fill:#FFCE1C;" d="M475.252,310.511c-4.267,0-7.726-3.459-7.726-7.726v-43.322c0-4.267,3.459-7.726,7.726-7.726
		c4.267,0,7.726,3.459,7.726,7.726v43.322C482.978,307.052,479.519,310.511,475.252,310.511z"/>
	<path style="fill:#FFCE1C;" d="M36.745,310.511c-4.267,0-7.726-3.459-7.726-7.726v-43.322c0-4.267,3.459-7.726,7.726-7.726
		s7.726,3.459,7.726,7.726v43.322C44.471,307.052,41.012,310.511,36.745,310.511z"/>
</g>
<path style="fill:#2FC8B4;" d="M440.369,229.329c0.371-16.774-0.93-33.445-6.156-49.483c-5.225-16.032-14.316-31.899-26.24-43.907
	c-41.547-41.846-101.429-55.274-158.657-54.421c-58.428,0.87-122.413,18.392-156.978,68.991
	c-16.336,23.914-20.92,51.225-20.766,79.609c0.047,8.744-6.993,15.874-15.734,15.942c-27.999,0.213-20.43-60.415-17.539-75.904
	c7.992-42.824,35.421-79.256,71.372-102.957c25.581-16.866,54.279-28.15,84.228-34.406c19.904-4.744,41.143-6.689,61.603-6.317
	c20.754,0.396,42.333,1.487,62.6,6.317c29.329,6.126,59.619,16.945,84.228,34.406c36.4,23.999,62.139,60.193,71.372,102.957
	c3.919,20.997,2.671,42.127-1.852,62.902c-1.871,8.593-10.354,14.041-18.947,12.171C445.33,243.581,440.204,236.796,440.369,229.329
	z"/>
<g>
	<circle style="fill:#E3B098;" cx="456.111" cy="231.193" r="44.125"/>
	<polygon style="fill:#E3B098;" points="168.625,440.338 193.746,458.025 200.27,458.851 200.27,383.646 168.625,383.646 	"/>
</g>
<path style="fill:#FBC4AC;" d="M255.999,110.25c-89.42,82.142-194.689,77.156-194.717,77.155
	c-3.52,14.055-5.394,28.712-5.394,43.785c0,104.522,89.593,189.255,200.111,189.255s200.111-84.732,200.111-189.255
	c0-15.073-1.873-29.73-5.394-43.785C450.687,187.407,345.418,192.392,255.999,110.25z"/>
<path style="fill:#E3B098;" d="M86.793,231.19c0-13.972,2.975-31.928,6.214-45.673c-19.553,2.46-31.716,1.888-31.725,1.888
	c-0.004,0.016-0.007,0.032-0.011,0.048c-1.646-0.247-3.424-0.387-5.382-0.387c-24.369,0-44.125,19.755-44.125,44.125
	c0,24.369,19.756,44.125,44.125,44.125c2.011,0,3.834-0.147,5.516-0.408c5.608,22.378,15.427,43.714,29.057,62.651
	c5.299,7.362,11.127,14.341,17.411,20.882c4.306,4.481,8.837,8.766,13.576,12.839c2.369,2.037,4.79,4.02,7.261,5.948
	c1.235,0.964,2.483,1.914,3.744,2.852c34.021,25.285,76.921,40.366,123.546,40.366c0.022,0,0.043,0,0.064,0
	c2.005,0,4.008-0.094,6.012-0.094c1.598-0.042,3.196-0.105,4.791-0.185c1.399-0.071,2.795-0.152,4.187-0.251
	c0.132-0.009,0.264-0.015,0.398-0.025C168.154,412.427,86.793,330.794,86.793,231.19z"/>
<path style="fill:#3A484A;" d="M155.291,282.343c-4.267,0-7.726-3.459-7.726-7.726v-19.582c0-4.267,3.459-7.726,7.726-7.726
	s7.726,3.459,7.726,7.726v19.582C163.017,278.884,159.558,282.343,155.291,282.343z"/>
<path style="fill:#F98084;" d="M168.626,311.125h-26.67c-4.267,0-7.726-3.459-7.726-7.726s3.459-7.726,7.726-7.726h26.67
	c4.267,0,7.726,3.459,7.726,7.726S172.893,311.125,168.626,311.125z"/>
<path style="fill:#3A484A;" d="M356.706,282.343c-4.267,0-7.726-3.459-7.726-7.726v-19.582c0-4.267,3.459-7.726,7.726-7.726
	c4.267,0,7.726,3.459,7.726,7.726v19.582C364.432,278.884,360.973,282.343,356.706,282.343z"/>
<path style="fill:#F98084;" d="M370.042,311.125h-26.67c-4.267,0-7.726-3.459-7.726-7.726s3.459-7.726,7.726-7.726h26.67
	c4.267,0,7.726,3.459,7.726,7.726S374.309,311.125,370.042,311.125z"/>
<g>
	<path style="fill:#3A484A;" d="M255.999,310.019c-9.25,0-17.935-3.867-23.83-10.611c-2.808-3.213-2.481-8.094,0.732-10.902
		c3.213-2.808,8.093-2.481,10.902,0.732c2.96,3.386,7.405,5.328,12.195,5.328s9.236-1.942,12.195-5.328
		c2.808-3.213,7.689-3.541,10.902-0.732c3.213,2.808,3.541,7.689,0.731,10.902C273.934,306.151,265.249,310.019,255.999,310.019z"/>
	<path style="fill:#3A484A;" d="M380.682,228.621H131.315c-4.267,0-7.726-3.459-7.726-7.726c0-4.267,3.459-7.726,7.726-7.726
		h249.369c4.267,0,7.726,3.459,7.726,7.726C388.41,225.162,384.949,228.621,380.682,228.621z"/>
</g>
<path style="fill:#00AE95;" d="M402.327,67.199c-24.609-17.46-54.899-28.28-84.228-34.405c-2.084-0.497-4.186-0.945-6.295-1.366
	c-2.545,4.618-4.304,9.634-5.202,14.885c-9.674,9.938-14.557,23.548-13.306,37.584c40.611,5.221,79.855,19.457,110.238,47.756
	c10.929-4.209,20.101-12.351,25.58-23.276c2.358-4.702,3.877-9.647,4.612-14.652C424.47,83.765,413.945,74.858,402.327,67.199z"/>
<path style="fill:#DC5A64;" d="M404.032,73.537l-2.525-3.384l1.356-3.998c5.927-17.477-10.76-34.164-28.237-28.237l-3.998,1.356
	l-3.384-2.525c-14.79-11.037-35.817-0.323-35.581,18.129l0.054,4.222l-3.447,2.437c-15.067,10.656-11.376,33.964,6.247,39.442
	l4.032,1.254l1.254,4.032c5.479,17.623,28.786,21.314,39.442,6.247l2.437-3.447l4.222,0.054
	C404.356,109.354,415.07,88.327,404.032,73.537z"/>
<circle style="fill:#FFCE1C;" cx="366.413" cy="74.359" r="12.687"/>
<g>
	<path style="fill:#BF4E57;" d="M395.442,512v-43.763c0-4.267,3.459-7.726,7.726-7.726s7.726,3.459,7.726,7.726V512H395.442z"/>
	<path style="fill:#BF4E57;" d="M101.103,512v-43.763c0-4.267,3.459-7.726,7.726-7.726s7.726,3.459,7.726,7.726V512H101.103z"/>
</g>
<rect x="168.629" y="468.866" style="fill:#00AE95;" width="31.645" height="43.134"/>
<path style="fill:#EFEDEE;" d="M343.372,440.337v28.526c-23.478,8.118-54.002,13.022-87.37,13.022
	c-33.378,0-63.902-4.904-87.38-13.022v-28.526c23.478,8.118,54.002,13.022,87.38,13.022
	C289.37,453.358,319.894,448.454,343.372,440.337z"/>
<path style="fill:#D4D2D3;" d="M168.625,468.862c9.485,3.28,20.136,6.023,31.645,8.143v-28.526
	c-11.509-2.119-22.16-4.862-31.645-8.142V468.862z"/>
<g>
</g>
<g>
</g>
<g>
</g>
<g>
</g>
<g>
</g>
<g>
</g>
<g>
</g>
<g>
</g>
<g>
</g>
<g>
</g>
<g>
</g>
<g>
</g>
<g>
</g>
<g>
</g>
<g>
</g>
</svg>
