<?xml version="1.0" encoding="iso-8859-1"?>
<!-- Generator: Adobe Illustrator 19.0.0, SVG Export Plug-In . SVG Version: 6.00 Build 0)  -->
<svg version="1.1" id="Capa_1" xmlns="http://www.w3.org/2000/svg" xmlns:xlink="http://www.w3.org/1999/xlink" x="0px" y="0px"
	 viewBox="0 0 512.001 512.001" style="enable-background:new 0 0 512.001 512.001;" xml:space="preserve">
<g>
	<path style="fill:#3A484A;" d="M38.1,170.921V374.73c0,44.418,36.008,80.425,80.425,80.425h274.949
		c44.418,0,80.425-36.008,80.425-80.425V170.921H38.1z"/>
	<polygon style="fill:#3A484A;" points="150.114,371.754 156.635,441.876 238.053,512 273.949,512 355.367,441.876 361.888,371.754 
			"/>
</g>
<path style="fill:#D4835F;" d="M75.217,431.882C65.859,451.977,59.154,478.178,59.154,512h153.162v-28.353l-73.725-75.4
	L75.217,431.882z"/>
<path style="fill:#A36549;" d="M146.849,416.692l-8.259-8.446l-63.373,23.635C65.859,451.977,59.154,478.178,59.154,512h30.905
	c0-33.822,6.705-60.022,16.064-80.118L146.849,416.692z"/>
<g>
	<path style="fill:#D4835F;" d="M436.784,431.882c9.358,20.096,16.064,46.296,16.064,80.118H299.687v-28.353l73.725-75.4
		L436.784,431.882z"/>
	<path style="fill:#D4835F;" d="M417.216,47.592c-9.758-31.938-41.485-51.864-74.497-46.811l-76.528,11.737
		c-6.758,1.031-13.621,1.031-20.379,0L169.283,0.781c-33.011-5.053-64.739,14.874-74.497,46.811l-16.78,54.907l177.994,20.527
		L433.995,102.5L417.216,47.592z"/>
</g>
<g>
	<path style="fill:#A36549;" d="M119.214,102.499l16.78-54.907c6.821-22.323,24.379-38.765,45.603-44.923l-12.313-1.888
		c-33.011-5.053-64.739,14.874-74.497,46.811l-16.781,54.907l177.995,20.527l20.604-2.377L119.214,102.499z"/>
	<polygon style="fill:#A36549;" points="433.995,102.499 78.007,102.499 65.47,143.552 256.001,167.764 446.532,143.552 	"/>
</g>
<g>
	<polygon style="fill:#87543D;" points="106.677,143.552 119.214,102.499 78.007,102.499 65.47,143.552 256.001,167.764 
		276.604,165.145 	"/>
	<path style="fill:#87543D;" d="M439.005,423.451c-6.948-50.738-38.254-71.307-38.254-71.307
		c-14.295,4.232-27.222,11.085-38.865,19.611C299.36,417.566,273.949,512,273.949,512h25.737
		c26.811-31.591,62.854-38.57,82.192-39.906c7.516-0.516,12.6-7.926,10.264-15.095c-3.463-10.663-8.242-19.211-8.242-19.211
		c16.274-4.21,31.222-3.274,41.643-1.474c4.515,0.779,8.747-1.148,11.242-4.432C438.532,429.587,439.437,426.629,439.005,423.451z"
		/>
	<path style="fill:#87543D;" d="M150.114,371.754c-11.642-8.527-24.569-15.38-38.865-19.611c0,0-31.306,20.569-38.254,71.307
		c-0.432,3.179,0.474,6.137,2.221,8.432c2.495,3.284,6.726,5.211,11.242,4.432c10.421-1.8,25.369-2.737,41.643,1.474
		c0,0-4.779,8.547-8.241,19.211c-2.337,7.169,2.747,14.579,10.263,15.095c19.338,1.337,55.38,8.316,82.192,39.906h25.738
		C238.053,512,212.642,417.566,150.114,371.754z"/>
</g>
<polygon style="fill:#313D40;" points="38.101,217.73 38.101,217.73 473.902,217.73 473.902,170.921 38.101,170.921 "/>
<path style="fill:#FBC4AC;" d="M69.833,191.959c-3.366,13.438-5.157,27.451-5.157,41.862c0,99.934,85.659,180.946,191.325,180.946
	s191.325-81.012,191.325-180.946c0-14.411-1.792-28.425-5.157-41.862l-186.168-30.616L69.833,191.959z"/>
<path style="fill:#3A484A;" d="M155.673,259.553c-4.267,0-7.726-3.459-7.726-7.726v-19.508c0-4.267,3.459-7.726,7.726-7.726
	c4.267,0,7.726,3.459,7.726,7.726v19.508C163.399,256.094,159.941,259.553,155.673,259.553z"/>
<path style="fill:#F98084;" d="M168.958,288.226h-26.569c-4.267,0-7.726-3.459-7.726-7.726s3.459-7.726,7.726-7.726h26.569
	c4.267,0,7.726,3.459,7.726,7.726S173.225,288.226,168.958,288.226z"/>
<path style="fill:#3A484A;" d="M356.329,259.553c-4.267,0-7.726-3.459-7.726-7.726v-19.508c0-4.267,3.459-7.726,7.726-7.726
	c4.267,0,7.726,3.459,7.726,7.726v19.508C364.056,256.094,360.596,259.553,356.329,259.553z"/>
<path style="fill:#F98084;" d="M369.613,288.226h-26.569c-4.267,0-7.726-3.459-7.726-7.726s3.459-7.726,7.726-7.726h26.569
	c4.267,0,7.726,3.459,7.726,7.726S373.88,288.226,369.613,288.226z"/>
<path style="fill:#3A484A;" d="M256.001,287.125c-9.223,0-17.884-3.857-23.762-10.581c-2.808-3.213-2.481-8.094,0.732-10.902
	c3.213-2.808,8.093-2.481,10.902,0.732c2.943,3.367,7.363,5.298,12.127,5.298c4.765,0,9.185-1.931,12.127-5.298
	c2.808-3.213,7.689-3.54,10.902-0.732c3.213,2.808,3.541,7.689,0.732,10.902C273.885,283.268,265.224,287.125,256.001,287.125z"/>
<path style="fill:#E3B098;" d="M95.582,233.821c0-5.424,0.254-10.79,0.75-16.091h350.243c-0.822-8.785-2.308-17.39-4.406-25.771
	l-170.715-28.076l-15.453-2.541L69.833,191.959c-0.375,1.498-0.723,3.006-1.059,4.518c-1.544,6.954-2.678,14.113-3.346,21.245
	c-0.497,5.303-0.751,10.673-0.751,16.099c0,99.934,85.659,180.946,191.325,180.946c5.202,0,10.354-0.204,15.453-0.589
	C173.015,406.736,95.582,328.835,95.582,233.821z"/>
<path style="fill:#D4835F;" d="M473.902,143.552H38.1c-13.372,0-24.211,10.84-24.211,24.211l0,0
	c0,13.372,10.84,24.211,24.211,24.211h435.801c13.372,0,24.211-10.84,24.211-24.211l0,0
	C498.112,154.392,487.272,143.552,473.902,143.552z"/>
<path style="fill:#A36549;" d="M75.701,167.764L75.701,167.764c0-13.372,10.84-24.211,24.211-24.211H38.101
	c-13.372,0-24.211,10.84-24.211,24.211l0,0c0,13.371,10.84,24.211,24.211,24.211h61.811
	C86.54,191.975,75.701,181.134,75.701,167.764z"/>
<g>
</g>
<g>
</g>
<g>
</g>
<g>
</g>
<g>
</g>
<g>
</g>
<g>
</g>
<g>
</g>
<g>
</g>
<g>
</g>
<g>
</g>
<g>
</g>
<g>
</g>
<g>
</g>
<g>
</g>
</svg>
