<?xml version="1.0" encoding="iso-8859-1"?>
<!-- Generator: Adobe Illustrator 19.0.0, SVG Export Plug-In . SVG Version: 6.00 Build 0)  -->
<svg version="1.1" id="Capa_1" xmlns="http://www.w3.org/2000/svg" xmlns:xlink="http://www.w3.org/1999/xlink" x="0px" y="0px"
	 viewBox="0 0 512.001 512.001" style="enable-background:new 0 0 512.001 512.001;" xml:space="preserve">
<polygon style="fill:#EFEDEE;" points="269.529,385.593 242.472,385.593 222.353,460.315 242.472,512 269.529,512 293.464,459.968 
	"/>
<path style="fill:#3A484A;" d="M139.032,385.593c0,0-78.028,8.575-78.028,126.408h50.852l7.726-6.182l7.726,6.182h115.164V385.593
	H139.032z"/>
<path style="fill:#313D40;" d="M162.726,385.593h-23.694c0,0-78.028,8.575-78.028,126.408h23.694
	C84.698,394.167,162.726,385.593,162.726,385.593z"/>
<path style="fill:#3A484A;" d="M372.969,385.593h-103.44V512h115.164l7.726-4.416l7.726,4.416h50.852
	C450.997,394.167,372.969,385.593,372.969,385.593z"/>
<g>
	<path style="fill:#313D40;" d="M384.693,512v-44.748c0-4.267,3.459-7.726,7.726-7.726s7.726,3.459,7.726,7.726V512H384.693z"/>
	<path style="fill:#313D40;" d="M111.856,512v-44.748c0-4.267,3.459-7.726,7.726-7.726s7.726,3.459,7.726,7.726V512H111.856z"/>
</g>
<circle style="fill:#937FE6;" cx="256" cy="220.613" r="220.613"/>
<path style="fill:#E3B098;" d="M402.826,123.796c18.357,27.775,29.045,61.044,29.045,96.823
	c0,97.135-78.736,175.869-175.869,175.869c-83.762,0-153.839-58.547-171.541-136.949l55.999-88.812L402.826,123.796z"/>
<path style="fill:#A36549;" d="M402.826,123.786v0.01c0,0-40.679,118.676-146.826,125.96l13.528-41.627
	c0,0-47.869,50.992-109.268,56.195l20.813-43.708c0,0-49.774,46.341-96.614,38.92c-2.841-12.519-4.329-25.547-4.329-38.92
	c0-97.135,78.736-175.869,175.869-175.869C317.357,44.748,371.367,76.165,402.826,123.786z"/>
<path style="fill:#C99C87;" d="M115.365,259.539c-2.841-12.519-4.329-25.548-4.329-38.92c0-1.1,0.02-2.196,0.039-3.291L84.46,259.54
	C102.161,337.941,172.239,396.488,256,396.488c1.38,0,2.756-0.021,4.128-0.053c0.799-0.02,1.596-0.05,2.392-0.08
	c0.505-0.019,1.01-0.035,1.513-0.058c1.068-0.049,2.135-0.108,3.198-0.176c0.178-0.011,0.356-0.022,0.536-0.034
	c1.204-0.08,2.406-0.171,3.605-0.275h0.002C194.591,389.094,131.961,333.042,115.365,259.539z"/>
<path style="fill:#87543D;" d="M114.987,257.756c-2.585-11.974-3.951-24.398-3.951-37.139c0-91.917,70.509-167.345,160.39-175.184
	c-2.064-0.179-4.14-0.316-6.223-0.428c-3.049-0.163-6.106-0.257-9.159-0.258c-0.014,0-0.029,0-0.043,0
	c-75.886,0-140.542,48.056-165.199,115.398c-9.859,26.928-12.96,56.573-8.964,85.076c0.674,4.806,1.548,9.583,2.622,14.315
	C94.678,261.157,105.037,260.215,114.987,257.756z"/>
<path style="fill:#F98084;" d="M178.988,298.415h-23.508c-4.267,0-7.726-3.459-7.726-7.726c0-4.267,3.459-7.726,7.726-7.726h23.508
	c4.267,0,7.726,3.459,7.726,7.726C186.715,294.955,183.255,298.415,178.988,298.415z"/>
<path style="fill:#3A484A;" d="M344.767,273.045c-4.267,0-7.726-3.459-7.726-7.726v-17.26c0-4.267,3.459-7.726,7.726-7.726
	s7.726,3.459,7.726,7.726v17.26C352.493,269.587,349.034,273.045,344.767,273.045z"/>
<path style="fill:#F98084;" d="M356.521,298.415h-23.508c-4.267,0-7.726-3.459-7.726-7.726c0-4.267,3.459-7.726,7.726-7.726h23.508
	c4.267,0,7.726,3.459,7.726,7.726C364.248,294.955,360.788,298.415,356.521,298.415z"/>
<path style="fill:#3A484A;" d="M256,297.44c-8.418,0-16.324-3.523-21.695-9.666c-2.808-3.213-2.481-8.094,0.732-10.902
	s8.094-2.481,10.902,0.732c2.434,2.786,6.101,4.383,10.06,4.383c3.959,0,7.624-1.598,10.06-4.383
	c2.808-3.213,7.689-3.541,10.902-0.732c3.213,2.808,3.541,7.689,0.732,10.902C272.325,293.917,264.418,297.44,256,297.44z"/>
<path style="fill:#EFEDEE;" d="M184.542,474.978c-4.267,0-7.726-3.459-7.726-7.726c0-26.808,11.482-56.692,11.971-57.951
	c1.545-3.978,6.02-5.951,9.999-4.406c3.977,1.544,5.949,6.018,4.407,9.996l0,0c-0.109,0.282-10.924,28.49-10.924,52.361
	C192.268,471.519,188.809,474.978,184.542,474.978z"/>
<circle style="fill:#937FE6;" cx="184.547" cy="467.249" r="13.876"/>
<path style="fill:#EFEDEE;" d="M327.458,474.978c-4.267,0-7.726-3.459-7.726-7.726c0-23.945-10.815-52.077-10.924-52.358
	c-1.544-3.978,0.429-8.455,4.406-9.999c3.978-1.545,8.455,0.429,9.999,4.406c0.488,1.259,11.971,31.142,11.971,57.951
	C335.184,471.519,331.725,474.978,327.458,474.978z"/>
<circle style="fill:#937FE6;" cx="327.454" cy="467.249" r="13.876"/>
<g>
</g>
<g>
</g>
<g>
</g>
<g>
</g>
<g>
</g>
<g>
</g>
<g>
</g>
<g>
</g>
<g>
</g>
<g>
</g>
<g>
</g>
<g>
</g>
<g>
</g>
<g>
</g>
<g>
</g>
</svg>
