<?xml version="1.0" encoding="iso-8859-1"?>
<!-- Generator: Adobe Illustrator 19.0.0, SVG Export Plug-In . SVG Version: 6.00 Build 0)  -->
<svg version="1.1" id="Capa_1" xmlns="http://www.w3.org/2000/svg" xmlns:xlink="http://www.w3.org/1999/xlink" x="0px" y="0px"
	 viewBox="0 0 512.001 512.001" style="enable-background:new 0 0 512.001 512.001;" xml:space="preserve">
<path style="fill:#A36549;" d="M471.287,277.394c17.391,58.736-27.977,65.101-27.977,95.257s-7.562,43.718-7.562,43.718h-359.5
	c0,0-7.562-13.562-7.562-43.718S23.32,336.13,40.711,277.394v-38.118h428.72L471.287,277.394z"/>
<g>
	<path style="fill:#FBC4AC;" d="M453.893,459.333l-40.856-15.591l-25.297,15.591V512h72.093
		C459.832,491.667,457.604,474.242,453.893,459.333z"/>
	<path style="fill:#FBC4AC;" d="M98.961,443.741l-40.856,15.591c-3.712,14.91-5.939,32.334-5.939,52.668h72.093v-52.668
		L98.961,443.741z"/>
</g>
<path style="fill:#E3B098;" d="M89.011,459.333c1.162-4.67,2.471-9.092,3.903-13.283l-34.809,13.283l0,0l0,0
	c-3.712,14.91-5.939,32.334-5.939,52.668h30.905C83.072,491.667,85.299,474.242,89.011,459.333L89.011,459.333z"/>
<path style="fill:#DC5A64;" d="M453.893,459.333h-66.154V512h-263.48v-52.667H58.105c18.766-75.402,75.618-86.683,75.618-86.683
	h244.55C378.274,372.65,435.127,383.93,453.893,459.333z"/>
<path style="fill:#BF4E57;" d="M89.011,459.333L89.011,459.333L89.011,459.333c18.766-75.402,75.619-86.683,75.619-86.683h-30.905
	c0,0-17.908,3.555-36.94,20.003c-0.075,0.065-0.15,0.13-0.227,0.195c-1.006,0.875-2.015,1.784-3.025,2.733
	c-0.553,0.52-1.107,1.051-1.661,1.593c-5.762,5.65-11.494,12.551-16.737,20.949c-1.546,2.476-3.05,5.078-4.5,7.822
	c-4.977,9.423-9.313,20.462-12.53,33.388l0,0l0,0L89.011,459.333L89.011,459.333z"/>
<ellipse style="fill:#FBC4AC;" cx="255.999" cy="399.02" rx="85.258" ry="64.273"/>
<path style="fill:#FF99B1;" d="M56.47,152.599C56.47,152.599,59.064,0,255.999,0s199.529,152.599,199.529,152.599l-199.012,21.81
	L56.47,152.599z"/>
<path style="fill:#F2859F;" d="M87.376,152.599c0,0,2.464-144.5,184.076-152.268C266.436,0.116,261.292,0,255.999,0
	C59.064,0,56.47,152.599,56.47,152.599l200.044,21.81l15.413-1.689L87.376,152.599z"/>
<path style="fill:#87543D;" d="M451.268,308.087c8.424,0,16.494-1.528,23.96-4.31c0.215-7.469-0.903-16.125-3.94-26.383
	l-1.856-38.118h-86.976C382.456,277.219,413.325,308.087,451.268,308.087z"/>
<circle style="fill:#E3B098;" cx="451.27" cy="239.28" r="43.056"/>
<path style="fill:#87543D;" d="M40.711,277.394c-3.037,10.258-4.156,18.914-3.94,26.383c7.466,2.783,15.537,4.31,23.961,4.31
	c37.943,0,68.812-30.868,68.812-68.811H40.711V277.394z"/>
<circle style="fill:#E3B098;" cx="60.731" cy="239.28" r="43.056"/>
<path style="fill:#FF99B1;" d="M446.004,196.22l-189.489-21.81l-190.52,21.81c-3.435,13.715-5.263,28.018-5.263,42.725
	c0,101.993,87.424,184.674,195.268,184.674s195.268-82.682,195.268-184.674C451.267,224.236,449.439,209.933,446.004,196.22z"/>
<path style="fill:#F2859F;" d="M450.442,221.973c-0.839-8.677-2.32-17.298-4.438-25.755l-75.796-8.724l-113.694-13.086
	l-114.312,13.086l-76.208,8.724c-0.38,1.516-0.732,3.042-1.072,4.572c-1.551,6.981-2.677,14.064-3.366,21.183H450.442z"/>
<path style="fill:#FBC4AC;" d="M419.595,172.762c0.492,4.855,0.739,61.293,0.739,66.182c0,84.774-73.721,153.743-164.335,153.743
	S91.663,323.718,91.663,238.944c0-4.884,0.246-61.317,0.737-66.168L419.595,172.762z"/>
<path style="fill:#3A484A;" d="M157.728,258.114c-4.268,0-7.726-3.459-7.726-7.726V231.28c0-4.267,3.458-7.726,7.726-7.726
	s7.726,3.459,7.726,7.726v19.108C165.454,254.656,161.996,258.114,157.728,258.114z"/>
<path style="fill:#F98084;" d="M170.741,286.2h-26.025c-4.268,0-7.726-3.459-7.726-7.726s3.458-7.726,7.726-7.726h26.025
	c4.268,0,7.726,3.459,7.726,7.726S175.009,286.2,170.741,286.2z"/>
<path style="fill:#3A484A;" d="M354.269,258.114c-4.268,0-7.726-3.459-7.726-7.726V231.28c0-4.267,3.458-7.726,7.726-7.726
	c4.268,0,7.726,3.459,7.726,7.726v19.108C361.995,254.656,358.537,258.114,354.269,258.114z"/>
<path style="fill:#F98084;" d="M367.282,286.2h-26.025c-4.268,0-7.726-3.459-7.726-7.726s3.458-7.726,7.726-7.726h26.025
	c4.268,0,7.726,3.459,7.726,7.726S371.55,286.2,367.282,286.2z"/>
<path style="fill:#3A484A;" d="M255.999,285.12c-9.079,0-17.607-3.797-23.393-10.418c-2.809-3.213-2.481-8.094,0.732-10.902
	s8.094-2.481,10.901,0.732c2.854,3.264,7.139,5.135,11.76,5.135s8.907-1.872,11.76-5.134c2.808-3.213,7.689-3.541,10.901-0.732
	c3.213,2.808,3.542,7.689,0.732,10.902C273.606,281.323,265.078,285.12,255.999,285.12z"/>
<path style="fill:#E3B098;" d="M420.259,221.973c-0.107-18.581-0.329-45.899-0.664-49.212L92.4,172.776
	c-0.335,3.309-0.555,30.619-0.662,49.196h328.522V221.973z"/>
<g>
	<path style="fill:#DC5A64;" d="M455.528,152.599H56.47c-12.045,0-21.81,9.765-21.81,21.81l0,0c0,12.045,9.765,21.81,21.81,21.81
		h399.056c12.046,0,21.81-9.765,21.81-21.81l0,0C477.337,162.364,467.572,152.599,455.528,152.599z"/>
	<circle style="fill:#DC5A64;" cx="221.972" cy="100.7" r="16.153"/>
	<circle style="fill:#DC5A64;" cx="290.026" cy="100.7" r="16.153"/>
</g>
<path style="fill:#F2859F;" d="M255.999,392.686c-23.568,0-45.989-4.675-66.272-13.071c-3.106,6.508-4.85,13.785-4.85,21.463v9.902
	c22.04,8.156,46.026,12.638,71.122,12.638s49.082-4.482,71.122-12.638v-9.902c0-7.679-1.744-14.956-4.85-21.463
	C301.987,388.012,279.567,392.686,255.999,392.686z"/>
<path style="fill:#DC5A64;" d="M277.122,376.835h-42.246c-13.39,0-24.244,10.855-24.244,24.244v17.518
	c14.56,3.277,29.748,5.022,45.367,5.022s30.808-1.745,45.367-5.022v-17.518C301.366,387.69,290.512,376.835,277.122,376.835z"/>
<g>
</g>
<g>
</g>
<g>
</g>
<g>
</g>
<g>
</g>
<g>
</g>
<g>
</g>
<g>
</g>
<g>
</g>
<g>
</g>
<g>
</g>
<g>
</g>
<g>
</g>
<g>
</g>
<g>
</g>
</svg>
