<?xml version="1.0" encoding="iso-8859-1"?>
<!-- Generator: Adobe Illustrator 19.0.0, SVG Export Plug-In . SVG Version: 6.00 Build 0)  -->
<svg version="1.1" id="Capa_1" xmlns="http://www.w3.org/2000/svg" xmlns:xlink="http://www.w3.org/1999/xlink" x="0px" y="0px"
	 viewBox="0 0 512.004 512.004" style="enable-background:new 0 0 512.004 512.004;" xml:space="preserve">
<polygon style="fill:#EFEDEE;" points="337.467,374.731 174.533,374.731 157.582,431.494 174.533,488.258 233.305,488.258 
	256,475.872 278.695,488.258 337.467,488.258 354.418,431.494 "/>
<path style="fill:#2FC8B4;" d="M150.944,374.731c0,0-70.076,7.706-70.076,113.526h37.233l7.721-5.446l7.721,5.446h40.99V374.731
	L150.944,374.731L150.944,374.731z"/>
<path style="fill:#00AE95;" d="M171.548,374.731h-20.604c0,0-70.076,7.706-70.076,113.526h20.604
	C101.472,382.438,171.548,374.731,171.548,374.731z"/>
<path style="fill:#2FC8B4;" d="M386.178,484.253l7.719,4.004h37.235c0-105.82-70.076-113.526-70.076-113.526h-23.589v113.526h40.992
	L386.178,484.253z"/>
<polygon style="fill:#BF4E57;" points="271.007,442.368 256,425.964 240.993,442.368 233.305,488.258 278.695,488.258 "/>
<polygon style="fill:#DC5A64;" points="223.618,416.743 240.993,442.368 271.007,442.368 288.382,416.743 302.417,408.864 
	290.551,378.152 235.06,379.897 211.677,396.3 "/>
<g>
	<path style="fill:#D4D2D3;" d="M206.442,374.731l-31.909,11.784l20.966,41.053c4.546,6.859,14.268,7.758,19.996,1.85l17.81-27.793
		L206.442,374.731z"/>
	<path style="fill:#D4D2D3;" d="M305.558,374.731l31.909,11.784L316.5,427.568c-4.546,6.859-14.268,7.758-19.996,1.85l-17.81-27.793
		L305.558,374.731z"/>
</g>
<g>
	<path style="fill:#00AE95;" d="M393.904,488.262v-42.899c0-4.267-3.459-7.726-7.726-7.726c-4.267,0-7.726,3.459-7.726,7.726v42.899
		H393.904z"/>
	<path style="fill:#00AE95;" d="M133.549,488.262v-42.899c0-4.267-3.459-7.726-7.726-7.726c-4.267,0-7.726,3.459-7.726,7.726v42.899
		H133.549z"/>
</g>
<g>
	<circle style="fill:#FBC4AC;" cx="55.582" cy="213.291" r="55.582"/>
	<circle style="fill:#FBC4AC;" cx="456.422" cy="213.291" r="55.582"/>
</g>
<ellipse style="fill:#D4835F;" cx="256" cy="213.291" rx="200.422" ry="189.543"/>
<path style="fill:#A36549;" d="M80.307,213.288c0-100.756,83.127-183.135,188.055-189.176c-4.09-0.236-8.21-0.369-12.362-0.369
	c-110.688,0-200.418,84.862-200.418,189.545S145.312,402.833,256,402.833c4.153,0,8.272-0.134,12.362-0.369
	C163.434,396.423,80.307,314.042,80.307,213.288z"/>
<path style="fill:#FBC4AC;" d="M275.243,149.262c-12.037,6.211-26.448,6.211-38.484,0c-69.936-36.084-166.721-6.981-136.762,106.74
	C132.831,380.627,256,374.735,256,374.735s123.169,5.894,156.003-118.732C441.963,142.281,345.178,113.178,275.243,149.262z"/>
<g>
	<path style="fill:#3A484A;" d="M165.304,230.882c-4.267,0-7.726,3.459-7.726,7.726v17.635c0,4.268,3.459,7.726,7.726,7.726
		s7.726-3.458,7.726-7.726v-17.635C173.03,234.343,169.571,230.882,165.304,230.882z"/>
	<path style="fill:#3A484A;" d="M346.697,230.882c-4.267,0-7.726,3.459-7.726,7.726v17.635c0,4.268,3.459,7.726,7.726,7.726
		s7.726-3.458,7.726-7.726v-17.635C354.423,234.343,350.964,230.882,346.697,230.882z"/>
	<path style="fill:#3A484A;" d="M286.113,268.911c-3.213-2.808-8.094-2.481-10.902,0.731c-1.609,1.84-4.05,2.896-6.697,2.896
		c-2.648,0-5.088-1.055-6.696-2.895c-1.444-1.659-3.624-2.635-5.819-2.635c-2.201,0-4.365,0.975-5.815,2.634
		c-1.609,1.84-4.05,2.896-6.696,2.896c-2.648,0-5.088-1.055-6.696-2.895c-2.808-3.213-7.69-3.541-10.902-0.732
		c-3.213,2.808-3.542,7.689-0.732,10.902c4.543,5.197,11.225,8.178,18.331,8.178c4.484,0,8.798-1.189,12.514-3.371
		c3.715,2.182,8.029,3.371,12.514,3.371c7.106,0,13.788-2.981,18.331-8.178C289.654,276.601,289.325,271.72,286.113,268.911z"/>
</g>
<g>
</g>
<g>
</g>
<g>
</g>
<g>
</g>
<g>
</g>
<g>
</g>
<g>
</g>
<g>
</g>
<g>
</g>
<g>
</g>
<g>
</g>
<g>
</g>
<g>
</g>
<g>
</g>
<g>
</g>
</svg>
