<?xml version="1.0" encoding="iso-8859-1"?>
<!-- Generator: Adobe Illustrator 19.0.0, SVG Export Plug-In . SVG Version: 6.00 Build 0)  -->
<svg version="1.1" id="Capa_1" xmlns="http://www.w3.org/2000/svg" xmlns:xlink="http://www.w3.org/1999/xlink" x="0px" y="0px"
	 viewBox="0 0 512 512" style="enable-background:new 0 0 512 512;" xml:space="preserve">
<path style="fill:#FF8840;" d="M446.986,439.852c13.473-9.352,25.742-56.26,29.31-72.521c5.291-24.118-12.142-45.152-12.152-68.886
	c-0.01-23.693,10.577-45.633,13.176-68.956l0.561-9.804c0-58.964-24.192-114.318-68.121-155.863C366.244,22.666,308.49,0,247.139,0
	S128.033,22.666,84.516,63.822C54.683,92.036,32.236,128.91,21.999,168.75c-5.05,19.653-7.296,40.507-5.041,60.739
	c2.599,23.323,13.186,45.263,13.176,68.956c-0.01,23.734-17.442,44.77-12.152,68.886c3.568,16.261,15.837,63.169,29.31,72.521
	H446.986z"/>
<path style="fill:#E6742E;" d="M48.887,367.332c-5.291-24.118,12.142-45.152,12.152-68.886c0.01-23.694-10.577-45.633-13.176-68.956
	c-2.255-20.233-0.008-41.087,5.041-60.739c10.237-39.84,32.685-76.713,62.518-104.928c39.843-37.682,91.623-59.849,147.17-63.326
	C257.469,0.175,252.318,0,247.139,0C185.787,0,128.033,22.665,84.516,63.822C54.683,92.036,32.236,128.91,21.999,168.75
	c-5.05,19.653-7.296,40.507-5.041,60.739c2.599,23.323,13.186,45.263,13.176,68.956c-0.01,23.734-17.442,44.77-12.152,68.886
	c3.568,16.261,15.837,63.169,29.31,72.521h30.905C64.724,430.5,52.455,383.593,48.887,367.332z"/>
<path style="fill:#FBC4AC;" d="M371.07,372.737H123.207c0,0-73.033,29.48-73.033,139.263h74.782l122.184-15.068L369.321,512h74.782
	C444.103,402.217,371.07,372.737,371.07,372.737z"/>
<g>
	<circle style="fill:#E3B098;" cx="450.972" cy="219.686" r="44.946"/>
	<path style="fill:#E3B098;" d="M247.139,438.216c54.257,0,105.674-17.824,146.842-50.528c-12.744-10.844-22.91-14.951-22.91-14.951
		H123.207c0,0-10.145,4.099-22.871,14.917c12.576,9.972,26.239,18.69,40.724,25.883
		C173.565,429.683,210.247,438.216,247.139,438.216z"/>
</g>
<path style="fill:#FBC4AC;" d="M444.216,170.276C423.794,97.226,343.005,58.428,274.505,91.001
	c-11.846,5.633-22.95,13.163-32.947,22.891c-39.375,38.321-33.669,89.186-52.65,136.324
	c-17.699,43.953-58.019,81.683-107.522,81.683c36.987,48.779,97.442,80.564,165.753,80.564c112.575,0,203.835-86.31,203.835-192.777
	C450.973,202.606,448.625,186.045,444.216,170.276z"/>
<path style="fill:#3A484A;" d="M349.72,239.357c-4.268,0-7.726-3.459-7.726-7.726v-19.945c0-4.267,3.458-7.726,7.726-7.726
	c4.268,0,7.726,3.459,7.726,7.726v19.945C357.446,235.898,353.988,239.357,349.72,239.357z"/>
<path style="fill:#F98084;" d="M363.304,268.674h-27.166c-4.268,0-7.726-3.459-7.726-7.726c0-4.267,3.458-7.726,7.726-7.726h27.166
	c4.268,0,7.726,3.459,7.726,7.726C371.03,265.215,367.571,268.674,363.304,268.674z"/>
<path style="fill:#3A484A;" d="M247.139,267.547c-9.38,0-18.188-3.922-24.165-10.759c-2.809-3.213-2.481-8.094,0.732-10.902
	c3.211-2.807,8.093-2.481,10.901,0.732c3.042,3.48,7.61,5.476,12.531,5.476c4.92,0,9.488-1.996,12.53-5.476
	c2.808-3.213,7.689-3.541,10.901-0.732c3.213,2.808,3.542,7.689,0.732,10.902C265.325,263.626,256.518,267.547,247.139,267.547z"/>
<path style="fill:#DC5A64;" d="M369.321,512v-72.148c0,0-52.783-19.698-122.184,35.553c-69.4-55.251-122.184-35.553-122.184-35.553
	V512H369.321z"/>
<circle style="fill:#FFCE1C;" cx="457.329" cy="264.283" r="16.47"/>
<g>
</g>
<g>
</g>
<g>
</g>
<g>
</g>
<g>
</g>
<g>
</g>
<g>
</g>
<g>
</g>
<g>
</g>
<g>
</g>
<g>
</g>
<g>
</g>
<g>
</g>
<g>
</g>
<g>
</g>
</svg>
