<?xml version="1.0" encoding="iso-8859-1"?>
<!-- Generator: Adobe Illustrator 19.0.0, SVG Export Plug-In . SVG Version: 6.00 Build 0)  -->
<svg version="1.1" id="Capa_1" xmlns="http://www.w3.org/2000/svg" xmlns:xlink="http://www.w3.org/1999/xlink" x="0px" y="0px"
	 viewBox="0 0 512 512" style="enable-background:new 0 0 512 512;" xml:space="preserve">
<path style="fill:#D4835F;" d="M455.999,467.334c71.754-48.05,9.457-92.715,18.728-136.028
	c9.271-43.313-18.728-66.438-18.728-66.438l17.628-57.669c0-55.613-22.817-107.821-64.248-147.005C368.336,21.377,313.864,0,256,0
	S143.665,21.377,102.62,60.195c-41.431,39.184-64.248,91.39-64.248,147.005l17.628,57.669c0,0-27.998,23.127-18.728,66.438
	s-53.027,87.978,18.728,136.028H455.999z"/>
<path style="fill:#A36549;" d="M82.601,331.306c-9.271-43.312,18.728-66.438,18.728-66.438L83.7,207.199
	c0-55.613,22.817-107.821,64.248-147.004c35.638-33.705,81.401-54.25,130.716-59.081C271.183,0.381,263.622,0,256,0
	c-57.864,0-112.335,21.377-153.379,60.195c-41.432,39.184-64.248,91.39-64.248,147.004l17.628,57.669
	c0,0-27.997,23.127-18.728,66.438c9.27,43.314-53.028,87.978,18.727,136.029h45.328C29.574,419.284,91.872,374.619,82.601,331.306z"
	/>
<polygon style="fill:#E3B098;" points="153.38,346.797 183.215,426.495 256,473.882 328.785,426.495 358.62,346.797 "/>
<g>
	<rect x="56.001" y="438.455" style="fill:#FBC4AC;" width="72.432" height="73.545"/>
	<rect x="383.567" y="438.455" style="fill:#FBC4AC;" width="72.432" height="73.545"/>
</g>
<path style="fill:#937FE6;" d="M401.571,358.227l-88.174,71.171L277.409,512h106.163v-45.346l80.53-22.668
	C459.707,400.487,425.213,372.5,401.571,358.227z"/>
<path style="fill:#F98084;" d="M401.571,358.227L277.409,512h-52.188L358.62,346.797h20.556c0,0,1.837,0.711,4.984,2.162
	C390.13,351.713,395.955,354.81,401.571,358.227z"/>
<path style="fill:#937FE6;" d="M183.215,426.495l-72.785-68.268c-23.643,14.273-58.137,42.26-62.532,85.758l80.53,22.668V512h96.793
	l4.68-5.807L183.215,426.495z"/>
<path style="fill:#DC5A64;" d="M256,473.882l-26.1,32.312L110.429,358.227c0.934-0.569,1.857-1.117,2.761-1.634
	c4.79-2.745,9.634-5.321,14.648-7.634c3.147-1.452,4.984-2.162,4.984-2.162h20.556L256,473.882z"/>
<g>
	<circle style="fill:#E3B098;" cx="63.751" cy="217.348" r="42.392"/>
	<circle style="fill:#E3B098;" cx="448.252" cy="217.348" r="42.392"/>
</g>
<path style="fill:#FBC4AC;" d="M256,58.235c0,0-47.262,88.938-187.067,106.9c-3.382,13.503-5.182,27.584-5.182,42.064
	c0,100.417,86.073,181.821,192.249,181.821s192.249-81.404,192.249-181.821c0-14.48-1.8-28.562-5.182-42.064
	C303.262,147.173,256,58.235,256,58.235z"/>
<path style="fill:#3A484A;" d="M159.248,226.192c-4.267,0-7.726-3.459-7.726-7.726v-18.812c0-4.267,3.459-7.726,7.726-7.726
	c4.267,0,7.726,3.459,7.726,7.726v18.812C166.975,222.733,163.515,226.192,159.248,226.192z"/>
<path style="fill:#F98084;" d="M172.06,253.843h-25.623c-4.267,0-7.726-3.459-7.726-7.726s3.459-7.726,7.726-7.726h25.623
	c4.267,0,7.726,3.459,7.726,7.726S176.327,253.843,172.06,253.843z"/>
<path style="fill:#3A484A;" d="M352.751,226.192c-4.267,0-7.726-3.459-7.726-7.726v-18.812c0-4.267,3.459-7.726,7.726-7.726
	s7.726,3.459,7.726,7.726v18.812C360.478,222.733,357.018,226.192,352.751,226.192z"/>
<path style="fill:#F98084;" d="M365.563,253.843H339.94c-4.267,0-7.726-3.459-7.726-7.726s3.459-7.726,7.726-7.726h25.623
	c4.267,0,7.726,3.459,7.726,7.726S369.83,253.843,365.563,253.843z"/>
<path style="fill:#3A484A;" d="M256,252.781c-8.974,0-17.403-3.754-23.122-10.299c-2.808-3.213-2.48-8.094,0.732-10.902
	c3.212-2.807,8.093-2.481,10.902,0.734c2.786,3.187,6.972,5.015,11.488,5.015c4.514,0,8.702-1.828,11.488-5.015
	c2.808-3.214,7.689-3.54,10.902-0.732c3.213,2.808,3.541,7.689,0.731,10.902C273.402,249.027,264.974,252.781,256,252.781z"/>
<g>
	<circle style="fill:#FFCE1C;" cx="455.999" cy="264.87" r="18.729"/>
	<circle style="fill:#FFCE1C;" cx="56.001" cy="264.87" r="18.729"/>
</g>
<g>
</g>
<g>
</g>
<g>
</g>
<g>
</g>
<g>
</g>
<g>
</g>
<g>
</g>
<g>
</g>
<g>
</g>
<g>
</g>
<g>
</g>
<g>
</g>
<g>
</g>
<g>
</g>
<g>
</g>
</svg>
