<?xml version="1.0" encoding="iso-8859-1"?>
<!-- Generator: Adobe Illustrator 19.0.0, SVG Export Plug-In . SVG Version: 6.00 Build 0)  -->
<svg version="1.1" id="Capa_1" xmlns="http://www.w3.org/2000/svg" xmlns:xlink="http://www.w3.org/1999/xlink" x="0px" y="0px"
	 viewBox="0 0 512 512" style="enable-background:new 0 0 512 512;" xml:space="preserve">
<path style="fill:#EFEDEE;" d="M133.21,394.014h-0.01c-20.755,7.3-63.548,32.678-63.548,117.987h63.558l26.286-51.88L133.21,394.014
	z"/>
<path style="fill:#D4D2D3;" d="M137.258,404.195l-4.049-10.181h-0.01c-20.755,7.3-63.548,32.679-63.548,117.987h23.694
	C93.346,448.991,116.691,418.679,137.258,404.195z"/>
<path style="fill:#EFEDEE;" d="M378.81,394.014c-0.01,0-0.02,0-0.02,0l-26.286,66.108L378.79,512h63.558
	C442.349,426.702,399.565,401.313,378.81,394.014z"/>
<path style="fill:#A36549;" d="M367.781,391.199H144.219c0,0-4.376,0.477-11.009,2.814V512h95.38l27.41-12.929L283.41,512h95.38
	V394.014C372.157,391.676,367.781,391.199,367.781,391.199z"/>
<polygon style="fill:#DC5A64;" points="283.41,512 270.626,468.705 241.375,468.705 228.59,512 "/>
<path style="fill:#BF4E57;" d="M270.626,468.705h-29.252l-7.357,24.914l6.705,2.979c4.84,2.151,9.98,3.241,15.277,3.241
	s10.436-1.091,15.277-3.241l6.705-2.979L270.626,468.705z"/>
<path style="fill:#DC5A64;" d="M283.164,452.914l-8.013-38.832h-38.302l-8.013,38.832c-1.128,5.465,1.704,10.977,6.803,13.243
	l15.541,6.906c3.068,1.363,6.569,1.363,9.637,0l15.541-6.906C281.46,463.891,284.292,458.379,283.164,452.914z"/>
<g>
	<path style="fill:#EFEDEE;" d="M242.586,435.748c0,0-19.983,27.801-47.163,32.467c-6.563,1.127-12.999-2.693-15.223-8.97
		c-3.768-10.637-8.601-28-5.319-40.082l35.371-5.082L242.586,435.748z"/>
	<path style="fill:#EFEDEE;" d="M269.414,435.748c0,0,19.983,27.801,47.163,32.467c6.563,1.127,12.999-2.693,15.223-8.97
		c3.768-10.637,8.601-28,5.319-40.082l-35.371-5.082L269.414,435.748z"/>
</g>
<path style="fill:#F2973D;" d="M414.522,165.926l-21.054-2.426V129.35c25.956-67.029,102.871-55.095,102.871-55.095L414.522,165.926
	z"/>
<path style="fill:#E6C9AC;" d="M423.036,166.901l-8.512-0.975c-0.01-3.182,0.408-6.574,1.323-10.194
	c13.485-53.563,80.494-81.479,80.494-81.479S505.539,162.753,423.036,166.901z"/>
<path style="fill:#F2973D;" d="M97.478,165.926l21.054-2.426V129.35C92.575,62.32,15.661,74.254,15.661,74.254L97.478,165.926z"/>
<path style="fill:#E6C9AC;" d="M88.964,166.901l8.512-0.975c0.01-3.182-0.408-6.574-1.323-10.194
	C82.669,102.169,15.66,74.254,15.66,74.254S6.461,162.753,88.964,166.901z"/>
<path style="fill:#FFA74F;" d="M69.353,295.201h-0.02c-3.063-12.859-4.684-26.245-4.684-39.978
	c0-99.947,85.676-180.968,191.351-180.968s191.351,81.022,191.351,180.968c0,13.734-1.62,27.11-4.684,39.969l-0.02,0.01H69.353
	V295.201z"/>
<path style="fill:#F2973D;" d="M69.333,295.201h0.02h30.886l0,0c-3.063-12.859-4.684-26.245-4.684-39.978
	c0-95.026,77.449-172.936,175.898-180.379c-0.905-0.068-1.813-0.124-2.722-0.18c-0.57-0.036-1.138-0.072-1.709-0.103
	c-0.787-0.043-1.576-0.079-2.366-0.113c-0.802-0.034-1.606-0.063-2.412-0.087c-0.614-0.02-1.227-0.04-1.842-0.054
	c-1.455-0.031-2.912-0.053-4.374-0.053c-0.009,0-0.019,0-0.028,0c-28.07,0-54.728,5.716-78.746,15.986
	c-1.412,0.604-2.817,1.224-4.21,1.859c-11.154,5.083-21.706,11.159-31.53,18.106c-12.279,8.684-23.418,18.732-33.168,29.903
	c-7.799,8.938-14.709,18.596-20.601,28.852c-0.737,1.282-1.457,2.573-2.161,3.873C72.2,197.547,64.65,225.55,64.65,255.222
	c0,1.717,0.026,3.428,0.075,5.133c0.101,3.411,0.301,6.799,0.599,10.161c0.298,3.361,0.692,6.698,1.182,10.005
	C67.239,285.482,68.185,290.378,69.333,295.201L69.333,295.201z"/>
<path style="fill:#FFDFBF;" d="M442.667,295.19c-19.244,80.714-95.511,141-186.667,141S88.577,375.913,69.333,295.201h0.02
	c24.176-160.61,169.382-102.931,169.382-30.004h34.529c0-72.927,145.206-130.607,169.382,30.004L442.667,295.19z"/>
<path style="fill:#E6C9AC;" d="M100.239,295.201c-3.063-12.859-4.684-26.245-4.684-39.978c0-12.171,1.278-24.057,3.7-35.554
	c-13.821,16.369-24.683,40.86-29.902,75.532h-0.02C88.577,375.913,164.845,436.19,256,436.19c0.083,0,0.166-0.002,0.248-0.002
	c1.25-0.001,2.497-0.014,3.742-0.038c1.027-0.021,2.051-0.054,3.074-0.09c0.259-0.009,0.517-0.014,0.776-0.024
	c2.55-0.1,5.088-0.246,7.612-0.437C187.232,429.232,118.384,371.306,100.239,295.201z"/>
<path style="fill:#3A484A;" d="M159.496,289.156c-4.267,0-7.726-3.459-7.726-7.726v-18.764c0-4.267,3.459-7.726,7.726-7.726
	s7.726,3.459,7.726,7.726v18.764C167.222,285.696,163.763,289.156,159.496,289.156z"/>
<path style="fill:#F98084;" d="M172.274,316.736h-25.557c-4.267,0-7.726-3.459-7.726-7.726c0-4.267,3.459-7.726,7.726-7.726h25.557
	c4.267,0,7.726,3.459,7.726,7.726C180.001,313.276,176.541,316.736,172.274,316.736z"/>
<path style="fill:#3A484A;" d="M352.504,289.156c-4.267,0-7.726-3.459-7.726-7.726v-18.764c0-4.267,3.459-7.726,7.726-7.726
	s7.726,3.459,7.726,7.726v18.764C360.231,285.696,356.771,289.156,352.504,289.156z"/>
<path style="fill:#F98084;" d="M365.283,316.736h-25.557c-4.267,0-7.726-3.459-7.726-7.726c0-4.267,3.459-7.726,7.726-7.726h25.557
	c4.267,0,7.726,3.459,7.726,7.726C373.009,313.276,369.55,316.736,365.283,316.736z"/>
<g>
	<path style="fill:#3A484A;" d="M256,326.638c-8.956,0-17.368-3.746-23.078-10.278c-2.808-3.212-2.481-8.093,0.731-10.902
		c3.212-2.809,8.092-2.481,10.902,0.731c2.775,3.175,6.947,4.995,11.444,4.995c4.498,0,8.669-1.82,11.443-4.995
		c2.809-3.212,7.689-3.541,10.902-0.732c3.213,2.808,3.541,7.689,0.732,10.902C273.368,322.891,264.956,326.638,256,326.638z"/>
	<path style="fill:#3A484A;" d="M275.151,284.736c0,6.717-8.574,12.161-19.151,12.161s-19.151-5.445-19.151-12.161
		S275.151,278.019,275.151,284.736z"/>
</g>
<g>
	<path style="fill:#A36549;" d="M202.263,9.316c-7.487-3.438-16.344-0.152-19.779,7.337c-3.369,7.341-7.898,14.191-12.295,19.942
		c-3.074-8.633-5.354-16.778-6.11-23.375c-0.938-8.185-8.332-14.059-16.518-13.122c-8.185,0.937-14.06,8.334-13.122,16.518
		c0.96,8.376,3.563,18.051,6.969,27.927c-7.782-1.858-15.448-4.099-20.584-6.562c-7.431-3.563-16.34-0.43-19.902,6.998
		c-3.563,7.428-0.431,16.339,6.998,19.902c13.52,6.485,35.258,10.853,47.17,12.903c8.14,17.449,15.681,30.857,16.323,31.992
		c2.743,4.852,7.796,7.577,12.999,7.577c2.487,0,5.01-0.623,7.329-1.935c7.172-4.055,9.698-13.156,5.642-20.328
		c-3.269-5.78-8.671-15.973-14.196-27.647c7.574-8.204,18.948-22.079,26.414-38.348C213.035,21.608,209.75,12.753,202.263,9.316z"/>
	<path style="fill:#A36549;" d="M309.737,9.316c7.487-3.438,16.344-0.152,19.779,7.337c3.369,7.341,7.898,14.191,12.295,19.942
		c3.073-8.633,5.354-16.778,6.11-23.375c0.939-8.185,8.332-14.059,16.518-13.122c8.185,0.937,14.06,8.334,13.122,16.518
		c-0.96,8.376-3.563,18.051-6.969,27.927c7.782-1.858,15.448-4.099,20.584-6.562c7.431-3.563,16.34-0.43,19.902,6.998
		c3.563,7.428,0.431,16.339-6.998,19.902c-13.52,6.485-35.258,10.853-47.17,12.903c-8.141,17.449-15.681,30.857-16.323,31.992
		c-2.743,4.852-7.796,7.577-12.999,7.577c-2.487,0-5.01-0.623-7.329-1.935c-7.172-4.055-9.698-13.156-5.642-20.328
		c3.269-5.78,8.671-15.973,14.196-27.647c-7.574-8.204-18.948-22.079-26.414-38.348C298.965,21.608,302.25,12.753,309.737,9.316z"/>
</g>
<g>
</g>
<g>
</g>
<g>
</g>
<g>
</g>
<g>
</g>
<g>
</g>
<g>
</g>
<g>
</g>
<g>
</g>
<g>
</g>
<g>
</g>
<g>
</g>
<g>
</g>
<g>
</g>
<g>
</g>
</svg>
