<?xml version="1.0" encoding="iso-8859-1"?>
<!-- Generator: Adobe Illustrator 19.0.0, SVG Export Plug-In . SVG Version: 6.00 Build 0)  -->
<svg version="1.1" id="Capa_1" xmlns="http://www.w3.org/2000/svg" xmlns:xlink="http://www.w3.org/1999/xlink" x="0px" y="0px"
	 viewBox="0 0 512 512" style="enable-background:new 0 0 512 512;" xml:space="preserve">
<polygon style="fill:#EFEDEE;" points="337.297,364.372 174.702,364.372 144.19,434.239 174.702,512 240.839,498.217 259.478,512 
	337.297,512 372.88,444.448 "/>
<path style="fill:#F98084;" d="M142.512,364.372c0,0-8.034,3.012-18.867,11.016c-22.42,16.56-56.836,59.531-56.836,136.612h53.617
	l7.726-6.226l7.726,6.226h38.823V364.372H142.512z"/>
<path style="fill:#DC5A64;" d="M149.4,375.389c10.832-8.005,18.867-11.016,18.867-11.016h-25.755c0,0-8.034,3.012-18.867,11.016
	c-22.42,16.559-56.836,59.53-56.836,136.611h25.755C92.564,434.919,126.98,391.948,149.4,375.389z"/>
<path style="fill:#F98084;" d="M383.848,508.606l7.726,3.394h53.617c0-58.747-19.991-97.661-39.425-120.189l-27.61,1.25
	l-3.298-26.177c-3.358-1.756-5.37-2.512-5.37-2.512h-32.19V512h38.824L383.848,508.606z"/>
<g>
	<path style="fill:#DC5A64;" d="M120.426,512v-49.086c0-4.267,3.459-7.726,7.726-7.726s7.726,3.459,7.726,7.726V512H120.426z"/>
	<path style="fill:#DC5A64;" d="M376.121,512v-49.086c0-4.267,3.459-7.726,7.726-7.726s7.726,3.459,7.726,7.726V512H376.121z"/>
</g>
<path style="fill:#3A484A;" d="M405.765,391.811c-6.066-7.031-12.078-12.484-17.41-16.422c-5.421-4.002-10.138-6.759-13.496-8.504
	c-3.359-1.756-5.37-2.512-5.37-2.512C282.378,470.788,174.702,512,174.702,512h84.776
	C297.878,489.146,355.233,449.39,405.765,391.811z"/>
<circle style="fill:#E3B098;" cx="57.237" cy="227.763" r="43.828"/>
<path style="fill:#FFCE1C;" d="M474.974,295.29c-4.267,0-7.726-3.459-7.726-7.726v-30.968c0-4.267,3.459-7.726,7.726-7.726
	c4.267,0,7.726,3.459,7.726,7.726v30.968C482.701,291.831,479.241,295.29,474.974,295.29z"/>
<g>
	<circle style="fill:#E3B098;" cx="454.763" cy="227.763" r="43.828"/>
	<path style="fill:#E3B098;" d="M440.005,119.794v104.103c-2.435,36.65-19.588,70.124-43.158,97.702
		c-16.567,19.384-35.514,42.506-61.335,49.169c-29.675,7.657-50.844-18.643-79.359-18.643s-49.684,26.301-79.359,18.643
		c-25.821-6.663-44.769-29.786-61.335-49.169c-23.571-27.578-40.722-61.053-43.158-97.702V119.794H440.005z"/>
</g>
<path style="fill:#3A484A;" d="M356.031,250.297c-4.267,0-7.726-3.459-7.726-7.726v-19.45c0-4.267,3.459-7.726,7.726-7.726
	c4.267,0,7.726,3.459,7.726,7.726v19.45C363.757,246.838,360.298,250.297,356.031,250.297z"/>
<path style="fill:#F98084;" d="M369.276,278.884h-26.49c-4.267,0-7.726-3.459-7.726-7.726c0-4.267,3.459-7.726,7.726-7.726h26.49
	c4.267,0,7.726,3.459,7.726,7.726C377.002,275.425,373.543,278.884,369.276,278.884z"/>
<path style="fill:#3A484A;" d="M256,277.786c-9.203,0-17.844-3.848-23.709-10.557c-2.808-3.213-2.481-8.094,0.732-10.902
	c3.213-2.808,8.093-2.481,10.902,0.732c2.93,3.352,7.331,5.275,12.074,5.275c4.743,0,9.144-1.922,12.075-5.275
	c2.808-3.214,7.689-3.541,10.902-0.731c3.213,2.808,3.541,7.689,0.731,10.902C273.844,273.939,265.203,277.786,256,277.786z"/>
<path style="fill:#DC5A64;" d="M255.848,344.275c26.051,0,45.39,24.028,72.5,17.032c23.59-6.087,40.899-27.211,56.035-44.92
	c21.533-25.194,37.203-55.776,39.428-89.259v-72.022l30.276,5.802c0.442,5.119,0.679,51.13,0.679,56.356
	c0,103.82-88.99,187.982-198.764,187.982S57.236,321.084,57.236,217.264c0-5.226,0.236-51.237,0.679-56.356l30.276-5.802v72.022
	c2.225,33.482,17.895,64.064,39.428,89.259c15.135,17.709,32.445,38.833,56.035,44.92c27.11,6.996,46.449-17.032,72.5-17.032
	H255.848z"/>
<path style="fill:#3A484A;" d="M255.848,146.405c108.137,0,198.917,37.526,198.917,37.526s42.946-21.256,42.946-75.074
	s-57.378-7.51-104.938-45.058S313.228,0,256,0s-89.211,26.25-136.772,63.799S14.29,55.037,14.29,108.857
	s42.946,75.074,42.946,75.074s90.78-37.526,198.917-37.526H255.848z"/>
<path style="fill:#313D40;" d="M47.255,98.555c0-8.225,1.345-14.101,3.786-18.306C29.64,79.971,14.29,81.021,14.29,108.857
	c0,53.819,42.946,75.074,42.946,75.074s11.678-4.827,31.644-11.019C81.667,168.814,47.255,146.734,47.255,98.555z"/>
<path style="fill:#EFEDEE;" d="M275.143,76.652l19.223-19.223c5.245-5.244,5.245-13.746,0-18.99c-5.244-5.245-13.747-5.245-18.99,0
	l-19.223,19.223l-19.223-19.223c-5.244-5.245-13.747-5.245-18.99,0c-5.244,5.244-5.244,13.746,0,18.99l19.223,19.223l-19.223,19.223
	c-5.244,5.244-5.244,13.746,0,18.99c2.622,2.622,6.058,3.933,9.495,3.933c3.437,0,6.873-1.311,9.495-3.933l19.223-19.223
	l19.223,19.223c2.622,2.622,6.059,3.933,9.495,3.933c3.437,0,6.873-1.311,9.495-3.933c5.245-5.244,5.245-13.746,0-18.99
	L275.143,76.652z"/>
<path style="fill:#313D40;" d="M264.226,146.486c-9.724,13.801-22.2,26.072-37.366,36.655
	c-20.496,14.304-45.895,25.629-75.488,33.66c-23.36,6.34-45.708,9.602-63.107,11.278c-14.218,1.369-25.125,1.678-30.578,1.735
	c0.363,5.209,0.943,10.362,1.745,15.445c6.273-0.088,17.129-0.465,30.929-1.814c17.847-1.746,40.594-5.121,64.692-11.633
	c31.388-8.481,58.465-20.554,80.48-35.882c19.7-13.717,35.334-30.07,46.749-48.793C276.335,146.814,270.311,146.593,264.226,146.486
	z"/>
<path style="fill:#3A484A;" d="M111.86,209.966c0-34.023,100.732-34.023,100.732,0s-22.55,61.603-50.367,61.603
	S111.86,243.989,111.86,209.966z"/>
<g>
</g>
<g>
</g>
<g>
</g>
<g>
</g>
<g>
</g>
<g>
</g>
<g>
</g>
<g>
</g>
<g>
</g>
<g>
</g>
<g>
</g>
<g>
</g>
<g>
</g>
<g>
</g>
<g>
</g>
</svg>
