<?xml version="1.0" encoding="iso-8859-1"?>
<!-- Generator: Adobe Illustrator 19.0.0, SVG Export Plug-In . SVG Version: 6.00 Build 0)  -->
<svg version="1.1" id="Capa_1" xmlns="http://www.w3.org/2000/svg" xmlns:xlink="http://www.w3.org/1999/xlink" x="0px" y="0px"
	 viewBox="0 0 512 512" style="enable-background:new 0 0 512 512;" xml:space="preserve">
<g>
	<path style="fill:#3A484A;" d="M36.081,253.748L36.081,253.748c-18.793,25.136-5.632,61.296,24.921,68.471l0,0l0,0
		c-9.063,30.047,15.672,59.525,46.837,55.818l0,0h35.198l29.118-64.74l-94.969-61.027L36.081,253.748z"/>
	<path style="fill:#3A484A;" d="M475.919,253.748L475.919,253.748c18.793,25.136,5.632,61.296-24.921,68.471l0,0l0,0
		c9.063,30.047-15.672,59.525-46.837,55.818l0,0h-35.198l-29.118-64.74l94.969-61.027L475.919,253.748z"/>
</g>
<g>
	<path style="fill:#FBC4AC;" d="M129.737,357.756h-0.01c-3.568,1.866-8.598,4.794-14.382,9.063
		C91.519,384.417,54.95,430.089,54.95,512h74.787l26.507-77.121L129.737,357.756z"/>
	<path style="fill:#FBC4AC;" d="M396.656,366.819c-5.763-4.247-10.774-7.175-14.341-9.042c-0.01-0.01-0.031-0.01-0.041-0.021h-0.01
		v0.233l-26.507,109.163L382.263,512h74.787C457.05,430.089,420.481,384.417,396.656,366.819z"/>
</g>
<path style="fill:#E3B098;" d="M64.583,444.247C57.857,466.103,54.95,489.176,54.95,512h30.905c0-70.714,27.25-114.4,50.032-136.35
	c0,0-6.15-17.893-6.16-17.893c-3.568,1.866-8.598,4.794-14.382,9.063C90.18,385.389,73.645,414.801,64.583,444.247z"/>
<path style="fill:#00A1E0;" d="M382.263,357.756V512H129.737V357.756c3.547-1.855,5.66-2.639,5.66-2.639h241.207
	C376.603,355.117,378.716,355.901,382.263,357.756z"/>
<path style="fill:#008FC7;" d="M129.737,382.009c5.765-6.39,11.43-11.436,16.513-15.191c5.783-4.268,10.815-7.196,14.382-9.063h0.01
	c3.547-1.856,5.66-2.639,5.66-2.639h-30.905c0,0-2.114,0.783-5.66,2.639C129.737,357.755,129.737,382.009,129.737,382.009z"/>
<path style="fill:#3A484A;" d="M32.006,213.241c0-57.232,23.482-110.96,66.121-151.285C140.372,22.004,196.439,0,256,0
	c59.562,0,115.629,22.003,157.873,61.956c42.638,40.325,66.121,94.053,66.121,151.285L32.006,213.241L32.006,213.241z"/>
<circle style="fill:#E3B098;" cx="454.217" cy="223.704" r="43.711"/>
<g>
	<ellipse style="fill:#FBC4AC;" cx="256" cy="388.141" rx="83.846" ry="72.824"/>
	<path style="fill:#FBC4AC;" d="M61.043,179.212c-2.155,11.041-3.268,22.414-3.268,34.032c0,103.53,88.746,187.461,198.224,187.461
		s198.224-83.931,198.224-187.461c0-11.619-1.114-22.991-3.268-34.032l-22.097-17.915l-80.416-16.495L256,137.118l-75.414,4.247
		l-79.097,15.808L61.043,179.212z"/>
</g>
<path style="fill:#3A484A;" d="M156.243,232.584c-4.267,0-7.726-3.459-7.726-7.726v-19.396c0-4.267,3.459-7.726,7.726-7.726
	c4.267,0,7.726,3.459,7.726,7.726v19.396C163.97,229.125,160.51,232.584,156.243,232.584z"/>
<path style="fill:#F98084;" d="M169.453,261.093h-26.419c-4.267,0-7.726-3.459-7.726-7.726c0-4.267,3.459-7.726,7.726-7.726h26.419
	c4.267,0,7.726,3.459,7.726,7.726C177.18,257.634,173.72,261.093,169.453,261.093z"/>
<path style="fill:#3A484A;" d="M355.757,232.584c-4.267,0-7.726-3.459-7.726-7.726v-19.396c0-4.267,3.459-7.726,7.726-7.726
	s7.726,3.459,7.726,7.726v19.396C363.483,229.125,360.024,232.584,355.757,232.584z"/>
<path style="fill:#F98084;" d="M368.966,261.093h-26.419c-4.267,0-7.726-3.459-7.726-7.726c0-4.267,3.459-7.726,7.726-7.726h26.419
	c4.267,0,7.726,3.459,7.726,7.726C376.692,257.634,373.233,261.093,368.966,261.093z"/>
<path style="fill:#3A484A;" d="M256,259.998c-9.183,0-17.807-3.84-23.66-10.536c-2.808-3.213-2.481-8.093,0.732-10.902
	c3.213-2.808,8.094-2.481,10.902,0.732c2.918,3.339,7.301,5.253,12.025,5.253c4.724,0,9.107-1.914,12.024-5.253
	c2.808-3.214,7.689-3.541,10.902-0.732s3.542,7.689,0.732,10.902C273.807,256.158,265.184,259.998,256,259.998z"/>
<path style="fill:#EFEDEE;" d="M450.957,179.212c-18.114-4.258-108.572-24.444-194.957-24.444S79.157,174.955,61.043,179.212
	c2.423-12.474,6.155-24.516,11.041-35.991c6.413,3,13.578,4.68,21.135,4.68c22.073,0,40.785-14.362,47.332-34.248
	c8.795,7.794,20.351,12.536,33.022,12.536c20.919,0,38.816-12.898,46.208-31.166c9.083,9.619,21.939,15.63,36.218,15.63
	s27.135-6.01,36.218-15.63c7.392,18.269,25.29,31.166,46.208,31.166c12.67,0,24.228-4.743,33.022-12.536
	c6.547,19.888,25.259,34.248,47.332,34.248c7.557,0,14.722-1.68,21.135-4.68C444.801,154.696,448.534,166.738,450.957,179.212z"/>
<path style="fill:#E3B098;" d="M88.681,213.245c0-11.619,1.114-22.991,3.268-34.032c2.142-11.026,5.31-21.712,9.39-31.97
	c-2.642,0.434-5.354,0.659-8.119,0.659c-7.557,0-14.722-1.68-21.135-4.68c-4.887,11.474-8.618,23.516-11.041,35.991
	c-0.06,0.305-0.11,0.613-0.168,0.918C59.888,180.054,58.868,180,57.78,180c-24.139,0-43.707,19.569-43.707,43.708
	s19.568,43.708,43.707,43.708c3.105,0,5.787-0.33,8.114-0.945C90.151,344.073,166.074,400.706,256,400.706
	c5.2,0,10.353-0.192,15.453-0.564C169.197,392.686,88.681,311.857,88.681,213.245z"/>
<path style="fill:#D4D2D3;" d="M93.442,172.323c2.028-8.597,4.673-16.974,7.897-25.079l0,0c-0.618,0.101-1.24,0.189-1.866,0.268
	c-0.043,0.005-0.087,0.013-0.13,0.019c-0.638,0.078-1.281,0.143-1.925,0.197c-0.031,0.002-0.062,0.007-0.093,0.009
	c-0.482,0.039-0.967,0.064-1.454,0.089c-0.198,0.01-0.392,0.028-0.591,0.036c-0.271,0.011-0.545,0.01-0.817,0.016
	c-0.414,0.01-0.826,0.026-1.243,0.026c-1.889,0-3.754-0.105-5.589-0.31c-2.752-0.307-5.436-0.837-8.033-1.572
	c-2.597-0.735-5.108-1.674-7.513-2.799c-3.665,8.606-6.681,17.531-8.981,26.719c-0.383,1.532-0.747,3.07-1.091,4.615
	c-0.343,1.545-0.667,3.098-0.969,4.657C66.324,177.972,77.759,175.376,93.442,172.323z"/>
<g>
</g>
<g>
</g>
<g>
</g>
<g>
</g>
<g>
</g>
<g>
</g>
<g>
</g>
<g>
</g>
<g>
</g>
<g>
</g>
<g>
</g>
<g>
</g>
<g>
</g>
<g>
</g>
<g>
</g>
</svg>
