<?xml version="1.0" encoding="iso-8859-1"?>
<!-- Generator: Adobe Illustrator 19.0.0, SVG Export Plug-In . SVG Version: 6.00 Build 0)  -->
<svg version="1.1" id="Capa_1" xmlns="http://www.w3.org/2000/svg" xmlns:xlink="http://www.w3.org/1999/xlink" x="0px" y="0px"
	 viewBox="0 0 512 512" style="enable-background:new 0 0 512 512;" xml:space="preserve">
<path style="fill:#008FC7;" d="M370.073,388.729H141.927c0,0-76.089,8.36-76.089,123.271h41.086l7.726-4.517l7.726,4.517h103.291
	l30.334-16.746L286.334,512h103.291l7.726-4.937l7.726,4.937h41.086C446.162,397.088,370.073,388.729,370.073,388.729z"/>
<g>
	<path style="fill:#007BAB;" d="M162.531,388.729h-20.604c0,0-76.089,8.36-76.089,123.271h20.604
		C86.441,397.088,162.531,388.729,162.531,388.729z"/>
	<path style="fill:#007BAB;" d="M389.625,512v-52.181c0-4.267,3.459-7.726,7.726-7.726c4.267,0,7.726,3.459,7.726,7.726V512H389.625
		z"/>
	<path style="fill:#007BAB;" d="M106.922,512v-52.181c0-4.267,3.459-7.726,7.726-7.726s7.726,3.459,7.726,7.726V512H106.922z"/>
</g>
<polygon style="fill:#313D40;" points="286.334,512 278.8,456.455 233.2,456.455 225.666,512 "/>
<path style="fill:#3A484A;" d="M285.425,441.186l-3.748-14.994c-1.522-6.087-6.991-10.358-13.266-10.358h-24.823
	c-6.275,0-11.744,4.271-13.266,10.358l-3.748,14.994c-1.5,6.002,1.217,12.264,6.625,15.268l16.159,8.977
	c4.13,2.294,9.151,2.294,13.281,0l16.159-8.977C284.208,453.45,286.925,447.188,285.425,441.186z"/>
<g>
	<path style="fill:#00A1E0;" d="M199.168,395.798l-25.511,14.141l6.682,25.014c2.624,9.821,13.702,14.648,22.68,9.88l34.652-18.396
		L199.168,395.798z"/>
	<path style="fill:#00A1E0;" d="M312.833,395.798l25.511,14.141l-6.682,25.014c-2.624,9.821-13.702,14.648-22.68,9.88
		l-34.652-18.396L312.833,395.798z"/>
</g>
<path style="fill:#FFCE1C;" d="M355.119,493.225c-19.959-9.473-19.283-31.146-19.283-31.146l19.283-7.653l19.283,7.653
	C374.401,462.078,375.078,483.752,355.119,493.225z"/>
<ellipse style="fill:#FFDFBF;" cx="256" cy="243.875" rx="193.901" ry="183.383"/>
<path style="fill:#E6C9AC;" d="M93.004,243.872c0-96.36,78.585-175.356,178.449-182.804c-5.098-0.38-10.251-0.58-15.453-0.58
	c-107.089,0-193.902,82.103-193.902,183.383S148.911,427.253,256,427.253c5.201,0,10.354-0.2,15.453-0.58
	C171.589,419.227,93.004,340.232,93.004,243.872z"/>
<path style="fill:#3A484A;" d="M157.519,252.971c-4.267,0-7.726-3.459-7.726-7.726v-19.148c0-4.267,3.459-7.726,7.726-7.726
	c4.267,0,7.726,3.459,7.726,7.726v19.148C165.245,249.512,161.786,252.971,157.519,252.971z"/>
<path style="fill:#F98084;" d="M170.559,279.087h-26.08c-4.267,0-7.726-3.459-7.726-7.726c0-4.267,3.459-7.726,7.726-7.726h26.08
	c4.267,0,7.726,3.459,7.726,7.726C178.285,275.628,174.826,279.087,170.559,279.087z"/>
<path style="fill:#3A484A;" d="M354.481,252.971c-4.267,0-7.726-3.459-7.726-7.726v-19.148c0-4.267,3.459-7.726,7.726-7.726
	c4.267,0,7.726,3.459,7.726,7.726v19.148C362.208,249.512,358.748,252.971,354.481,252.971z"/>
<path style="fill:#F98084;" d="M367.521,279.087h-26.08c-4.267,0-7.726-3.459-7.726-7.726c0-4.267,3.459-7.726,7.726-7.726h26.08
	c4.267,0,7.726,3.459,7.726,7.726C375.248,275.628,371.788,279.087,367.521,279.087z"/>
<path style="fill:#87543D;" d="M225.666,296.717c0,0,8.513,14.34,30.334,14.34s30.334-14.34,30.334-14.34v-29.299h-60.666v29.299
	H225.666z"/>
<path style="fill:#A36549;" d="M277.819,241.091c20.298,0,39.073,21.252,39.073,41.041c0,8.412-4.402,12.974-9.462,15.438
	c-6.693,3.258-14.594,2.769-21.096-0.854c-7.555-4.209-20.523-10.524-30.334-10.524c-9.81,0-22.778,6.315-30.334,10.524
	c-6.503,3.623-14.403,4.114-21.096,0.854c-5.061-2.464-9.462-7.026-9.462-15.438c0-19.79,18.775-41.041,39.073-41.041H277.819z"/>
<g>
	<path style="fill:#87543D;" d="M386.959,108.639c45.967-44.703,84.531-19.669,87.915,16.189s-5.976,77.092-37.493,54.107
		S409.326,130.339,386.959,108.639z"/>
	<path style="fill:#87543D;" d="M125.041,108.639C79.075,63.936,40.51,88.97,37.127,124.828
		c-3.383,35.859,5.976,77.092,37.493,54.107S102.674,130.339,125.041,108.639z"/>
</g>
<path style="fill:#00A1E0;" d="M167.25,80.785c-21.871,28.82-8.169,64.849,88.75,64.849s110.621-36.027,88.75-64.849L331.1,50.236
	H197.645L167.25,80.785z"/>
<g>
	<path style="fill:#008FC7;" d="M187.854,80.785l30.396-30.549h-20.604L167.25,80.785c-21.871,28.82-8.169,64.849,88.75,64.849
		c3.549,0,6.973-0.054,10.302-0.148C178.742,142.998,166.784,108.55,187.854,80.785z"/>
	<path style="fill:#008FC7;" d="M344.75,80.785c0,0,8.169-11.774,7.155-35.624S300.146,0,256,0s-94.89,21.312-95.905,45.161
		c-1.015,23.85,7.155,35.624,7.155,35.624H344.75z"/>
</g>
<path style="fill:#007BAB;" d="M180.699,45.161c0.936-22.011,44.23-41.859,85.603-44.789C262.846,0.128,259.404,0,256,0
	c-44.146,0-94.89,21.312-95.905,45.161c-1.015,23.85,7.155,35.624,7.155,35.624h20.604
	C187.854,80.785,179.684,69.011,180.699,45.161z"/>
<path style="fill:#FFCE1C;" d="M263.774,26.322h-15.549c-3.741,0-6.772,3.032-6.772,6.772v13.713c0,2.214,1.082,4.288,2.897,5.554
	l7.774,5.424c2.328,1.625,5.422,1.625,7.75,0l7.774-5.424c1.815-1.266,2.897-3.341,2.897-5.554V33.095
	C270.546,29.354,267.514,26.322,263.774,26.322z"/>
<path style="fill:#313D40;" d="M284.991,235.698c0,10.168-12.98,18.411-28.991,18.411s-28.991-8.242-28.991-18.411
	S284.991,225.53,284.991,235.698z"/>
<g>
</g>
<g>
</g>
<g>
</g>
<g>
</g>
<g>
</g>
<g>
</g>
<g>
</g>
<g>
</g>
<g>
</g>
<g>
</g>
<g>
</g>
<g>
</g>
<g>
</g>
<g>
</g>
<g>
</g>
</svg>
