<?xml version="1.0" encoding="iso-8859-1"?>
<!-- Generator: Adobe Illustrator 19.0.0, SVG Export Plug-In . SVG Version: 6.00 Build 0)  -->
<svg version="1.1" id="Capa_1" xmlns="http://www.w3.org/2000/svg" xmlns:xlink="http://www.w3.org/1999/xlink" x="0px" y="0px"
	 viewBox="0 0 512 512" style="enable-background:new 0 0 512 512;" xml:space="preserve">
<path style="fill:#D4D2D3;" d="M255.998,375.019H129.243c0,0-2.247,0.247-5.999,1.206h0.052v0.095l-0.052-0.095l-25.986,44.334
	L123.296,512h132.703l36.239-60.209L255.998,375.019z"/>
<path style="fill:#EFEDEE;" d="M388.753,376.225l-0.052,0.126v-0.126H388.753c-3.752-0.959-5.999-1.206-5.999-1.206H255.998V512
	h132.703l29.646-72.886L388.753,376.225z"/>
<g>
	<path style="fill:#FFA74F;" d="M92.391,423.19l-39.189,26.421c-2.843,9.09-5.101,19.284-6.577,30.705l38.335,14.214l38.335-28.689
		v-34.086L92.391,423.19z"/>
	<path style="fill:#FFA74F;" d="M419.606,423.19l39.189,26.421c2.843,9.09,5.101,19.284,6.577,30.705l-38.335,14.214l-38.335-28.689
		v-34.086L419.606,423.19z"/>
</g>
<path style="fill:#EFEDEE;" d="M53.202,449.611c28.807,0.414,54.779-10.035,70.094-17.856v-55.53h-0.052
	c-14.663,3.767-52.4,18.486-69.678,72.235L53.202,449.611z"/>
<path style="fill:#D4D2D3;" d="M458.795,449.611c-28.807,0.414-54.779-10.035-70.094-17.856v-55.53h0.052
	c14.663,3.767,52.4,18.486,69.678,72.235L458.795,449.611z"/>
<ellipse style="fill:#9E9C9D;" cx="255.998" cy="209.044" rx="221.036" ry="209.044"/>
<polygon style="fill:#FBC4AC;" points="477.031,209.041 423.748,280.817 255.998,341.977 88.249,280.817 34.966,209.041 
	88.249,137.265 255.998,76.106 423.748,137.265 "/>
<path style="fill:#3A484A;" d="M167.589,211.886c-4.267,0-7.726-3.459-7.726-7.726v-17.191c0-4.267,3.459-7.726,7.726-7.726
	c4.267,0,7.726,3.459,7.726,7.726v17.191C175.316,208.426,171.856,211.886,167.589,211.886z"/>
<path style="fill:#F98084;" d="M179.296,237.153h-23.413c-4.267,0-7.726-3.459-7.726-7.726c0-4.267,3.459-7.726,7.726-7.726h23.413
	c4.267,0,7.726,3.459,7.726,7.726C187.023,233.693,183.563,237.153,179.296,237.153z"/>
<path style="fill:#3A484A;" d="M344.408,211.886c-4.267,0-7.726-3.459-7.726-7.726v-17.191c0-4.267,3.459-7.726,7.726-7.726
	c4.267,0,7.726,3.459,7.726,7.726v17.191C352.134,208.426,348.675,211.886,344.408,211.886z"/>
<path style="fill:#F98084;" d="M356.113,237.153h-23.413c-4.267,0-7.726-3.459-7.726-7.726c0-4.267,3.459-7.726,7.726-7.726h23.413
	c4.267,0,7.726,3.459,7.726,7.726C363.84,233.693,360.381,237.153,356.113,237.153z"/>
<path style="fill:#3A484A;" d="M255.998,236.181c-8.392,0-16.276-3.513-21.631-9.637c-2.808-3.213-2.481-8.094,0.732-10.902
	c3.213-2.808,8.093-2.481,10.902,0.732c2.419,2.768,6.063,4.355,9.996,4.355c3.933,0,7.576-1.588,9.995-4.355
	c2.808-3.213,7.689-3.541,10.902-0.732c3.213,2.808,3.541,7.689,0.732,10.902C272.274,232.668,264.391,236.181,255.998,236.181z"/>
<path style="fill:#E3B098;" d="M423.748,137.265l-167.75-61.16l-167.75,61.16l-53.282,71.776c0,0,11.119,14.978,21.413,28.845
	h23.094l8.335-14.378c9.017-15.555,28.744-37.784,71.516-55.358c30.261-12.433,65.497-19.564,96.674-19.564
	s66.414,7.131,96.674,19.564c42.772,17.574,62.499,39.804,71.516,55.358l8.335,14.378h23.094l21.413-28.845L423.748,137.265z"/>
<g>
	<path style="fill:#EFEDEE;" d="M255.998,32.469c183.822,0,221.033,176.572,221.033,176.572h-27.887
		c-35.435-61.125-128.206-89.299-193.145-89.299s-157.71,28.175-193.146,89.299H34.967C34.966,209.041,72.176,32.469,255.998,32.469
		z"/>
	<path style="fill:#EFEDEE;" d="M255.998,385.613c183.822,0,221.033-176.572,221.033-176.572h-27.887
		c-35.436,61.125-128.206,89.299-193.146,89.299S98.289,270.166,62.854,209.041H34.967
		C34.966,209.041,72.176,385.613,255.998,385.613z"/>
</g>
<g>
	<path style="fill:#9E9C9D;" d="M255.998,98.264c-4.267,0-7.726-3.459-7.726-7.726V61.675c0-4.267,3.459-7.726,7.726-7.726
		c4.267,0,7.726,3.459,7.726,7.726v28.863C263.725,94.804,260.265,98.264,255.998,98.264z"/>
	<path style="fill:#9E9C9D;" d="M207.208,99.638c-4.267,0-7.726-3.459-7.726-7.726v-21.99c0-4.267,3.459-7.726,7.726-7.726
		c4.267,0,7.726,3.459,7.726,7.726v21.99C214.934,96.179,211.475,99.638,207.208,99.638z"/>
	<path style="fill:#9E9C9D;" d="M158.418,113.382c-4.267,0-7.726-3.459-7.726-7.726V87.788c0-4.267,3.459-7.726,7.726-7.726
		s7.726,3.459,7.726,7.726v17.867C166.144,109.922,162.685,113.382,158.418,113.382z"/>
	<path style="fill:#9E9C9D;" d="M109.627,144.993c-4.267,0-7.726-3.459-7.726-7.726v-19.242c0-4.267,3.459-7.726,7.726-7.726
		s7.726,3.459,7.726,7.726v19.242C117.354,141.533,113.894,144.993,109.627,144.993z"/>
	<path style="fill:#9E9C9D;" d="M304.789,99.638c-4.267,0-7.726-3.459-7.726-7.726v-21.99c0-4.267,3.459-7.726,7.726-7.726
		c4.267,0,7.726,3.459,7.726,7.726v21.99C312.515,96.179,309.056,99.638,304.789,99.638z"/>
	<path style="fill:#9E9C9D;" d="M353.579,113.382c-4.267,0-7.726-3.459-7.726-7.726V87.788c0-4.267,3.459-7.726,7.726-7.726
		c4.267,0,7.726,3.459,7.726,7.726v17.867C361.306,109.922,357.846,113.382,353.579,113.382z"/>
	<path style="fill:#9E9C9D;" d="M402.37,144.993c-4.267,0-7.726-3.459-7.726-7.726v-19.242c0-4.267,3.459-7.726,7.726-7.726
		c4.267,0,7.726,3.459,7.726,7.726v19.242C410.096,141.533,406.637,144.993,402.37,144.993z"/>
</g>
<g>
	<circle style="fill:#FFA74F;" cx="34.966" cy="209.044" r="27.887"/>
	<circle style="fill:#FFA74F;" cx="477.034" cy="209.044" r="27.887"/>
</g>
<g>
	<path style="fill:#9E9C9D;" d="M46.445,481.711c-1.135,9.273-1.756,19.346-1.756,30.289h78.608v-46.159
		c-17.919,7.538-41.937,14.711-68.458,14.711c-2.712,0-5.453-0.079-8.214-0.236L46.445,481.711z"/>
	<path style="fill:#9E9C9D;" d="M465.552,481.711c1.135,9.273,1.756,19.346,1.756,30.289H388.7v-46.159
		c17.919,7.538,41.937,14.711,68.458,14.711c2.712,0,5.453-0.079,8.214-0.236L465.552,481.711z"/>
</g>
<g>
</g>
<g>
</g>
<g>
</g>
<g>
</g>
<g>
</g>
<g>
</g>
<g>
</g>
<g>
</g>
<g>
</g>
<g>
</g>
<g>
</g>
<g>
</g>
<g>
</g>
<g>
</g>
<g>
</g>
</svg>
