<?xml version="1.0" encoding="iso-8859-1"?>
<!-- Generator: Adobe Illustrator 19.0.0, SVG Export Plug-In . SVG Version: 6.00 Build 0)  -->
<svg version="1.1" id="Capa_1" xmlns="http://www.w3.org/2000/svg" xmlns:xlink="http://www.w3.org/1999/xlink" x="0px" y="0px"
	 viewBox="0 0 512 512" style="enable-background:new 0 0 512 512;" xml:space="preserve">
<g>
	<path style="fill:#3A484A;" d="M194.624,362.885h-53.252c0,0-5.94,2.227-14.499,7.941L95.89,441.413L126.873,512h67.751
		l31.628-70.587L194.624,362.885z"/>
	<path style="fill:#3A484A;" d="M317.689,362.885h53.252c0,0,5.94,2.227,14.499,7.941l30.983,70.587L385.44,512h-67.751
		l-31.628-70.587L317.689,362.885z"/>
</g>
<path style="fill:#00A1E0;" d="M126.873,370.826V512H64.907c0-77.857,34.762-121.261,57.408-137.988
	C123.903,372.847,125.429,371.775,126.873,370.826z"/>
<path style="fill:#008FC7;" d="M126.873,370.826c-1.443,0.949-2.97,2.021-4.558,3.186C99.669,390.739,64.907,434.143,64.907,512
	h25.755c0-55.7,17.792-93.759,36.212-117.039V370.826z"/>
<g>
	<path style="fill:#00A1E0;" d="M385.44,370.826V512h61.966c0-77.857-34.762-121.261-57.408-137.988
		C388.41,372.847,386.883,371.775,385.44,370.826z"/>
	<rect x="194.624" y="362.881" style="fill:#00A1E0;" width="123.065" height="149.119"/>
</g>
<path style="fill:#DC5A64;" d="M399.777,347.101c0,0-18.156,115.916-143.621,131.728
	c-125.465-15.812-143.621-131.728-143.621-131.728H399.777z"/>
<path style="fill:#BF4E57;" d="M143.441,347.101h-30.905c0,0,18.156,115.916,143.621,131.728c5.349-0.675,10.487-1.543,15.453-2.565
	C160.097,453.331,143.441,347.101,143.441,347.101z"/>
<g>
	<circle style="fill:#FBC4AC;" cx="55.236" cy="224.899" r="44.269"/>
	<circle style="fill:#FBC4AC;" cx="456.764" cy="224.899" r="44.269"/>
	<path style="fill:#FBC4AC;" d="M441.86,146.78v74.214c-2.46,37.019-19.786,70.831-43.593,98.686
		c-16.734,19.58-35.872,42.934-61.953,49.665c-29.974,7.735-51.356-18.831-80.157-18.831c-28.802,0-50.184,26.565-80.157,18.831
		c-26.081-6.73-45.219-30.085-61.953-49.665c-23.807-27.856-41.132-61.668-43.593-98.686V146.78L441.86,146.78L441.86,146.78z"/>
</g>
<path style="fill:#D4835F;" d="M256.311,404.171c110.88,0,200.766-85.01,200.766-189.875c0-5.279-0.239-10.505-0.685-15.674
	l0.008-51.841h-30.589v77.479c-2.248,33.819-18.076,64.709-39.825,90.157c-15.288,17.887-32.771,39.224-56.599,45.372
	c-27.383,7.066-46.917-17.203-73.23-17.203s-45.847,24.269-73.23,17.203c-23.827-6.149-41.311-27.485-56.599-45.372
	c-21.75-25.449-37.578-56.339-39.825-90.157v-77.48H55.913l0.008,51.841c-0.447,5.17-0.685,10.396-0.685,15.674
	c0,104.865,89.886,189.875,200.766,189.875h0.309V404.171z"/>
<path style="fill:#3A484A;" d="M154.964,227.99c-4.267,0-7.726-3.459-7.726-7.726v-19.646c0-4.267,3.459-7.726,7.726-7.726
	c4.267,0,7.726,3.459,7.726,7.726v19.646C162.69,224.531,159.231,227.99,154.964,227.99z"/>
<path style="fill:#F98084;" d="M168.343,256.866h-26.758c-4.267,0-7.726-3.459-7.726-7.726c0-4.267,3.459-7.726,7.726-7.726h26.758
	c4.267,0,7.726,3.459,7.726,7.726C176.069,253.407,172.61,256.866,168.343,256.866z"/>
<path style="fill:#3A484A;" d="M357.04,227.99c-4.267,0-7.726-3.459-7.726-7.726v-19.646c0-4.267,3.459-7.726,7.726-7.726
	s7.726,3.459,7.726,7.726v19.646C364.767,224.531,361.307,227.99,357.04,227.99z"/>
<path style="fill:#F98084;" d="M370.418,256.866H343.66c-4.267,0-7.726-3.459-7.726-7.726c0-4.267,3.459-7.726,7.726-7.726h26.758
	c4.267,0,7.726,3.459,7.726,7.726C378.144,253.407,374.686,256.866,370.418,256.866z"/>
<g>
	<path style="fill:#D4835F;" d="M256.157,271.503c25.862,26.733,51.545,16.283,64.09,8.151c3.292-2.135,3.403-6.844,0.339-9.296
		c-17.78-14.233-17.791-69.252-64.429-40.443c-46.638-28.809-46.649,26.21-64.429,40.443c-3.064,2.453-2.954,7.162,0.339,9.296
		C204.61,287.786,230.295,298.236,256.157,271.503z"/>
	<path style="fill:#D4835F;" d="M440.992,68.875l-54.558-27.282H127.254L71.32,68.875c-7.445,19.377-11.436,35.278-11.436,35.278
		l196.272,21.315l196.272-21.315C452.428,104.153,448.438,88.251,440.992,68.875z"/>
</g>
<g>
	<path style="fill:#A36549;" d="M101.092,104.153c0,0,3.991-15.902,11.436-35.278l55.934-27.282h-41.207L71.32,68.875
		c-7.445,19.377-11.436,35.278-11.436,35.278l196.272,21.315l20.604-2.238L101.092,104.153z"/>
	<path style="fill:#A36549;" d="M475.922,104.153H36.39c-11.771,0-21.313,9.543-21.313,21.313l0,0
		c0,11.771,9.543,21.313,21.313,21.313h439.532c11.771,0,21.313-9.543,21.313-21.313l0,0
		C497.235,113.696,487.694,104.153,475.922,104.153z"/>
</g>
<path style="fill:#87543D;" d="M76.888,125.467L76.888,125.467c0-11.772,9.543-21.313,21.313-21.313H36.39
	c-11.771,0-21.313,9.543-21.313,21.313l0,0c0,11.771,9.543,21.313,21.313,21.313h61.811C86.43,146.78,76.888,137.238,76.888,125.467
	z"/>
<path style="fill:#A36549;" d="M440.992,68.875H71.32C82.922,38.661,102.927,0,129.317,0c43.311,0,58.439,14.777,126.84,14.777
	S339.685,0,382.997,0C409.385,0,429.391,38.661,440.992,68.875z"/>
<path style="fill:#87543D;" d="M158.987,2.507C150.053,1.013,140.651,0,129.317,0C102.927,0,82.922,38.661,71.32,68.875h41.207
	C122.373,43.235,138.273,11.525,158.987,2.507z"/>
<g>
</g>
<g>
</g>
<g>
</g>
<g>
</g>
<g>
</g>
<g>
</g>
<g>
</g>
<g>
</g>
<g>
</g>
<g>
</g>
<g>
</g>
<g>
</g>
<g>
</g>
<g>
</g>
<g>
</g>
</svg>
