<?xml version="1.0" encoding="iso-8859-1"?>
<!-- Generator: Adobe Illustrator 19.0.0, SVG Export Plug-In . SVG Version: 6.00 Build 0)  -->
<svg version="1.1" id="Capa_1" xmlns="http://www.w3.org/2000/svg" xmlns:xlink="http://www.w3.org/1999/xlink" x="0px" y="0px"
	 viewBox="0 0 512 512" style="enable-background:new 0 0 512 512;" xml:space="preserve">
<g>
	<path style="fill:#FF8840;" d="M114.69,460.313l-15.995-18.846l-38.788,18.846C56.223,474.764,54.02,491.834,54.02,512h60.668
		l16.482-21.143L114.69,460.313z"/>
	<path style="fill:#FF8840;" d="M397.31,460.313l15.995-18.846l38.788,18.846c3.684,14.451,5.886,31.521,5.886,51.687H397.31
		l-16.482-21.143L397.31,460.313z"/>
</g>
<path style="fill:#E6742E;" d="M88.97,446.192l-29.063,14.121c-0.69,2.709-1.329,5.511-1.911,8.408
	c-0.969,4.828-1.781,9.921-2.414,15.292c-0.127,1.074-0.245,2.16-0.357,3.256c-0.671,6.581-1.077,13.568-1.179,20.985
	c-0.018,1.236-0.026,2.485-0.026,3.745h24.724c0-20.165,2.203-37.236,5.886-51.687C85.909,455.294,87.367,450.598,88.97,446.192z"/>
<path style="fill:#EFEDEE;" d="M417.231,400.466c-20.084-17.212-40.067-19.404-40.067-19.404H134.835
	c0,0-19.982,2.192-40.067,19.404c-13.64,11.692-27.34,30.294-34.86,59.847h54.783V512h19.08l0,0l7.726-5.835l7.726,5.835l0,0h41.8
	l0,0l7.726-5.835l7.726,5.835l0,0h41.798l0,0l7.726-5.835l7.726,5.835l0,0h41.8l0,0l7.726-5.835l7.726,5.835l0,0h41.8l0,0
	l7.726-5.835l7.726,5.835l0,0h19.08v-51.687h54.782C444.572,430.76,430.871,412.158,417.231,400.466z"/>
<path style="fill:#D4D2D3;" d="M119.493,400.466c20.084-17.212,40.067-19.404,40.067-19.404h-24.724c0,0-19.982,2.192-40.067,19.404
	c-13.64,11.692-27.34,30.294-34.86,59.847h24.724C92.152,430.76,105.853,412.158,119.493,400.466z"/>
<path style="fill:#E6742E;" d="M158.948,98.412C90.576,24.019-42.228,4.781,54.021,207.425L158.948,98.412z"/>
<path style="fill:#FFDFBF;" d="M136.532,119.015c-15.169-16.506-34.435-30.12-52.857-37.354c-9.559-3.753-17.046-5.032-22.159-5.032
	c-3.467,0-5.84,0.587-7.031,1.391c-4.241,2.86-12.761,32.554,27.037,116.345L136.532,119.015z"/>
<path style="fill:#E6742E;" d="M353.051,98.412c68.372-74.393,201.177-93.631,104.928,109.013L353.051,98.412z"/>
<path style="fill:#FFDFBF;" d="M375.468,119.015c15.169-16.506,34.435-30.12,52.857-37.354c9.559-3.753,17.046-5.032,22.159-5.032
	c3.467,0,5.84,0.587,7.031,1.391c4.241,2.86,12.761,32.554-27.037,116.345L375.468,119.015z"/>
<g>
	<path style="fill:#DC5A64;" d="M248.273,512v-75.871c0-4.267,3.459-7.726,7.726-7.726s7.726,3.459,7.726,7.726V512H248.273z"/>
	<path style="fill:#DC5A64;" d="M191.021,512V381.813c0-4.267,3.459-7.726,7.726-7.726c4.267,0,7.726,3.459,7.726,7.726V512H191.021
		z"/>
	<path style="fill:#DC5A64;" d="M133.77,512V381.813c0-4.267,3.459-7.726,7.726-7.726s7.726,3.459,7.726,7.726V512H133.77z"/>
	<path style="fill:#DC5A64;" d="M305.526,512V381.813c0-4.267,3.459-7.726,7.726-7.726c4.267,0,7.726,3.459,7.726,7.726V512H305.526
		z"/>
	<path style="fill:#DC5A64;" d="M362.777,512V381.813c0-4.267,3.459-7.726,7.726-7.726c4.267,0,7.726,3.459,7.726,7.726V512H362.777
		z"/>
</g>
<path style="fill:#BF4E57;" d="M317.709,62.687C317.709,18.305,302.177,0,256,0s-61.709,18.305-61.709,62.687H317.709z"/>
<path style="fill:#DC5A64;" d="M336.471,91.525c0,0,1.733-42.304-80.472-42.304s-80.472,42.304-80.472,42.304H336.471z"/>
<path style="fill:#FF8840;" d="M44.106,323.925c-9.611-18.024-12.848-39.092-8.646-59.654C53.848,174.293,123.083,77.962,256,77.962
	s202.151,96.331,220.54,186.309c4.201,20.561,0.964,41.63-8.646,59.654H44.106z"/>
<path style="fill:#313D40;" d="M281.68,224.285c0,9.007-11.498,16.309-25.68,16.309c-14.182,0-25.68-7.302-25.68-16.309
	C230.319,215.278,281.68,215.278,281.68,224.285z"/>
<path style="fill:#E6742E;" d="M75.011,323.925c-9.611-18.024-12.848-39.093-8.646-59.654
	C84.028,177.85,148.606,85.585,271.444,78.424c-5.075,0.296-10.346-0.462-15.444-0.462c-26.999,0-51.37,3.974-73.221,11.063
	c-40.643,13.184-75.97,39.028-101.729,73.015c-10.206,13.465-18.909,28.055-26.088,43.345c-5.648,12.029-10.364,24.51-14.117,37.259
	c-3.552,12.068-6.822,24.442-7.158,37.087c-0.034,1.287-0.04,2.572-0.02,3.856c0.15,8.982,1.661,17.85,4.442,26.304
	c0.398,1.207,0.821,2.408,1.269,3.597c1.346,3.571,2.925,7.057,4.726,10.437h30.906V323.925z"/>
<path style="fill:#FFDFBF;" d="M467.894,323.925c-4.313,8.109-9.926,15.599-16.725,22.154
	C413.294,382.554,342.892,436.128,256,436.128S98.706,382.554,60.831,346.079c-6.799-6.556-12.412-14.045-16.725-22.154
	c0,0,78.947-69.68,211.894-69.68S467.894,323.925,467.894,323.925z"/>
<path style="fill:#E6C9AC;" d="M256.323,436.125c1.207-0.002,2.411-0.012,3.612-0.035c1.146-0.022,2.287-0.056,3.427-0.096
	c0.142-0.005,0.284-0.007,0.426-0.012c2.57-0.096,5.125-0.237,7.665-0.422c-79.767-5.803-144.113-55.195-179.716-89.482
	c-6.799-6.556-12.412-14.046-16.725-22.154c-2.919-5.472-5.239-11.229-6.953-17.163c-15.68,9.867-23.953,17.163-23.953,17.163
	c1.079,2.027,2.238,4.016,3.477,5.961c3.717,5.835,8.149,11.277,13.248,16.193c12.428,11.968,28.358,25.777,47.222,38.932
	c2.695,1.879,5.45,3.745,8.263,5.59c18.754,12.3,40.099,23.683,63.542,31.989c1.172,0.415,2.35,0.823,3.532,1.223
	c22.47,7.595,46.812,12.316,72.609,12.316C256.108,436.128,256.215,436.126,256.323,436.125z"/>
<g>
	<path style="fill:#3A484A;" d="M164.666,201.394c-4.267,0-7.726,3.459-7.726,7.726v17.758c0,4.267,3.459,7.726,7.726,7.726
		c4.267,0,7.726-3.459,7.726-7.726v-17.758C172.392,204.854,168.933,201.394,164.666,201.394z"/>
	<path style="fill:#3A484A;" d="M347.334,201.394c-4.267,0-7.726,3.459-7.726,7.726v17.758c0,4.267,3.459,7.726,7.726,7.726
		c4.267,0,7.726-3.459,7.726-7.726v-17.758C355.06,204.854,351.601,201.394,347.334,201.394z"/>
	<path style="fill:#3A484A;" d="M296.344,276.455c-3.213-2.808-8.094-2.482-10.902,0.732c-2.866,3.279-7.171,5.159-11.812,5.159
		c-4.641,0-8.947-1.88-11.812-5.158c-1.447-1.653-3.623-2.63-5.817-2.634c-2.205-0.004-4.367,0.975-5.817,2.634
		c-2.865,3.278-7.171,5.158-11.812,5.158s-8.946-1.88-11.812-5.159c-2.808-3.212-7.689-3.541-10.902-0.732
		s-3.541,7.689-0.732,10.902c5.801,6.635,14.346,10.442,23.447,10.442c6.408,0,12.536-1.894,17.629-5.327
		c5.093,3.434,11.222,5.327,17.629,5.327c9.1,0,17.646-3.805,23.447-10.442C299.884,284.146,299.557,279.264,296.344,276.455z"/>
</g>
<g>
</g>
<g>
</g>
<g>
</g>
<g>
</g>
<g>
</g>
<g>
</g>
<g>
</g>
<g>
</g>
<g>
</g>
<g>
</g>
<g>
</g>
<g>
</g>
<g>
</g>
<g>
</g>
<g>
</g>
</svg>
