<?xml version="1.0" encoding="iso-8859-1"?>
<!-- Generator: Adobe Illustrator 19.0.0, SVG Export Plug-In . SVG Version: 6.00 Build 0)  -->
<svg version="1.1" id="Capa_1" xmlns="http://www.w3.org/2000/svg" xmlns:xlink="http://www.w3.org/1999/xlink" x="0px" y="0px"
	 viewBox="0 0 512 512" style="enable-background:new 0 0 512 512;" xml:space="preserve">
<g>
	<path style="fill:#FBC4AC;" d="M112.593,466.335l-41.659-20.061l-34.108,20.06c-3.393,13.387-5.324,28.652-5.324,45.662h57.419
		l29.057-20.454L112.593,466.335z"/>
	<path style="fill:#FBC4AC;" d="M399.412,466.335l41.659-20.06l34.108,20.06c3.393,13.387,5.324,28.652,5.324,45.662h-57.419
		l-29.057-20.454L399.412,466.335z"/>
</g>
<path style="fill:#E3B098;" d="M52.106,511.997c0-17.008,1.931-32.275,5.324-45.662c1.325-5.237,2.877-10.181,4.62-14.835
	l-25.224,14.835c-0.424,1.674-0.825,3.376-1.203,5.108c-1.887,8.66-3.181,18.046-3.766,28.126
	c-0.234,4.032-0.354,8.176-0.354,12.427h20.604V511.997z"/>
<path style="fill:#3A484A;" d="M112.593,466.335H36.826c10.804-42.714,36.457-66.324,61.612-66.324L112.593,466.335z"/>
<path style="fill:#313D40;" d="M36.826,466.335H57.43l0,0c7.975-31.532,24.044-52.637,42.03-61.535l-0.409-1.916l-0.613-2.873
	C73.282,400.011,47.629,423.62,36.826,466.335z"/>
<path style="fill:#3A484A;" d="M399.412,466.335h75.768c-10.804-42.714-36.457-66.324-61.612-66.324L399.412,466.335z"/>
<g>
	<path style="fill:#007BAB;" d="M98.436,400.015c0,0-17.817,36.92-9.515,111.985h106.544l-40.53-39.435v-59.499L98.436,400.015z"/>
	<path style="fill:#007BAB;" d="M413.569,400.015c0,0,17.817,36.92,9.515,111.985H316.539l40.53-39.435v-59.499L413.569,400.015z"/>
</g>
<polygon style="fill:#3A484A;" points="195.466,512 316.539,512 357.069,472.565 357.069,413.067 381.572,400.015 357.069,361.87 
	154.936,361.87 154.936,413.067 154.936,472.565 "/>
<g>
	<path style="fill:#00A1E0;" d="M131.588,378.776l-39.207,7.308c0,0,9.788,35.976,49.172,53.272l-31.876,8.993
		c0,0,22.139,46.354,85.788,63.65L160.1,396.561l-5.165-34.693L131.588,378.776z"/>
	<path style="fill:#00A1E0;" d="M380.418,378.776l39.207,7.308c0,0-9.788,35.976-49.172,53.272l31.876,8.993
		c0,0-22.139,46.354-85.788,63.65l35.365-115.438l5.165-34.693L380.418,378.776z"/>
</g>
<ellipse style="fill:#FBC4AC;" cx="256.003" cy="408.941" rx="55.692" ry="47.069"/>
<g>
	<path style="fill:#FFCE1C;" d="M34.771,298.118c-4.268,0-7.726-3.459-7.726-7.726v-34.5c0-4.267,3.458-7.726,7.726-7.726
		s7.726,3.459,7.726,7.726v34.5C42.498,294.659,39.038,298.118,34.771,298.118z"/>
	<path style="fill:#FFCE1C;" d="M477.235,298.118c-4.268,0-7.726-3.459-7.726-7.726v-34.5c0-4.267,3.458-7.726,7.726-7.726
		c4.268,0,7.726,3.459,7.726,7.726v34.5C484.961,294.659,481.502,298.118,477.235,298.118z"/>
</g>
<circle style="fill:#E3B098;" cx="457.063" cy="229.39" r="45.4"/>
<path style="fill:#FBC4AC;" d="M444.098,162.058C415.352,90.261,341.986,39.231,256.003,39.231S96.653,90.261,67.907,162.058
	c-8.386,20.927-12.968,43.627-12.968,67.332c0,105.019,90.02,190.158,201.065,190.158s201.065-85.139,201.065-190.158
	C457.067,205.685,452.484,182.985,444.098,162.058z"/>
<path style="fill:#E3B098;" d="M85.843,229.389c0-23.704,4.582-46.404,12.969-67.332C125.82,94.604,192.216,45.484,271.455,39.789
	c-5.1-0.367-10.252-0.557-15.453-0.557c-85.983,0-159.349,51.03-188.096,122.826c-2.903,7.245-5.338,14.708-7.298,22.347
	c-1.734-0.267-3.609-0.417-5.67-0.417c-25.075,0-45.402,20.328-45.402,45.402s20.328,45.402,45.402,45.402
	c2.064,0,3.94-0.15,5.675-0.417c21.369,83.306,100.734,145.173,195.389,145.173c5.199,0,10.352-0.186,15.453-0.553
	C167.632,411.531,85.843,329.491,85.843,229.389z"/>
<path style="fill:#3A484A;" d="M154.936,251.172c-4.268,0-7.726-3.459-7.726-7.726v-19.652c0-4.267,3.458-7.726,7.726-7.726
	c4.268,0,7.726,3.459,7.726,7.726v19.652C162.662,247.712,159.204,251.172,154.936,251.172z"/>
<path style="fill:#F98084;" d="M168.319,280.056h-26.765c-4.268,0-7.726-3.459-7.726-7.726s3.458-7.726,7.726-7.726h26.765
	c4.268,0,7.726,3.459,7.726,7.726S172.586,280.056,168.319,280.056z"/>
<path style="fill:#3A484A;" d="M357.069,251.172c-4.268,0-7.726-3.459-7.726-7.726v-19.652c0-4.267,3.458-7.726,7.726-7.726
	s7.726,3.459,7.726,7.726v19.652C364.796,247.712,361.338,251.172,357.069,251.172z"/>
<path style="fill:#F98084;" d="M370.452,280.056h-26.765c-4.268,0-7.726-3.459-7.726-7.726s3.458-7.726,7.726-7.726h26.765
	c4.268,0,7.726,3.459,7.726,7.726S374.72,280.056,370.452,280.056z"/>
<path style="fill:#3A484A;" d="M256.003,278.945c-9.275,0-17.984-3.879-23.894-10.64c-2.808-3.213-2.48-8.094,0.734-10.902
	c3.213-2.808,8.093-2.481,10.902,0.732c2.975,3.404,7.443,5.356,12.258,5.356c4.815,0,9.284-1.952,12.259-5.356
	c2.808-3.213,7.69-3.541,10.901-0.732c3.213,2.808,3.542,7.689,0.732,10.902C273.986,275.068,265.277,278.945,256.003,278.945z"/>
<path style="fill:#2FC8B4;" d="M291.372,47.399C283.022,29.192,267.794,0,256.003,0c-11.791,0-27.02,29.192-35.369,47.399
	c-3.271,7.131-0.773,15.564,5.839,19.787c6.821,4.357,13.029,10.249,17.973,15.676c6.189,6.794,16.927,6.794,23.116,0
	c4.944-5.427,11.151-11.32,17.973-15.676C292.144,62.963,294.643,54.53,291.372,47.399z"/>
<path style="fill:#00AE95;" d="M229.471,67.168c8.984-19.589,23.587-48.149,37.411-60.766C263.135,2.468,259.424,0,256.003,0
	c-11.791,0-27.02,29.192-35.369,47.399c-3.271,7.131-0.773,15.564,5.839,19.787c0.793,0.507,1.576,1.038,2.352,1.583
	C229.022,68.232,229.229,67.696,229.471,67.168z"/>
<g>
</g>
<g>
</g>
<g>
</g>
<g>
</g>
<g>
</g>
<g>
</g>
<g>
</g>
<g>
</g>
<g>
</g>
<g>
</g>
<g>
</g>
<g>
</g>
<g>
</g>
<g>
</g>
<g>
</g>
</svg>
