<?xml version="1.0" encoding="iso-8859-1"?>
<!-- Generator: Adobe Illustrator 19.0.0, SVG Export Plug-In . SVG Version: 6.00 Build 0)  -->
<svg version="1.1" id="Capa_1" xmlns="http://www.w3.org/2000/svg" xmlns:xlink="http://www.w3.org/1999/xlink" x="0px" y="0px"
	 viewBox="0 0 512 512" style="enable-background:new 0 0 512 512;" xml:space="preserve">
<path style="fill:#3A484A;" d="M478.497,275.595c11.581,59.548-24.926,58.473-21.705,106.793
	c3.221,48.32-31.139,63.797-31.139,63.797H86.344c0,0-34.361-15.478-31.139-63.797c3.221-48.32-33.286-47.245-21.705-106.793
	v-53.503h440.472L478.497,275.595z"/>
<path style="fill:#313D40;" d="M158.223,382.388c3.221-48.32-33.286-47.245-21.705-106.793v-53.503H33.5v53.503
	c-11.581,59.548,24.926,58.473,21.705,106.793c-3.221,48.32,31.139,63.797,31.139,63.797h103.018
	C189.362,446.185,155.002,430.706,158.223,382.388z"/>
<g>
	<path style="fill:#00A1E0;" d="M402.491,382.045c-11.995-8.863-20.89-12.185-20.89-12.185h-19.428l-39.94,62.765L362.173,512
		h43.449l7.726-6.384l7.726,6.384h44.318C465.393,426.685,427.303,400.38,402.491,382.045z"/>
	<path style="fill:#00A1E0;" d="M149.824,369.86h-19.428c0,0-8.895,3.322-20.89,12.185C84.694,400.38,46.604,426.685,46.604,512
		h44.318l7.726-6.145l7.726,6.145h43.449l39.94-79.375L149.824,369.86z"/>
</g>
<path style="fill:#008FC7;" d="M133.2,382.045c7.581-5.601,13.916-8.984,17.557-10.72l-0.932-1.465h-19.428
	c0,0-8.895,3.322-20.89,12.185C84.694,400.38,46.604,426.685,46.604,512h23.694C70.298,426.685,108.388,400.38,133.2,382.045z"/>
<rect x="149.828" y="369.856" style="fill:#EFEDEE;" width="212.351" height="142.144"/>
<g>
	<path style="fill:#008FC7;" d="M90.922,512v-46.434c0-4.267,3.459-7.726,7.726-7.726c4.267,0,7.726,3.459,7.726,7.726V512H90.922z"
		/>
	<path style="fill:#008FC7;" d="M405.622,512v-46.434c0-4.267,3.459-7.726,7.726-7.726c4.267,0,7.726,3.459,7.726,7.726V512H405.622
		z"/>
</g>
<path style="fill:#E3B098;" d="M322.233,407.074c0,0-14.018,51.483-66.234,67.604c-52.217-16.12-66.234-67.604-66.234-67.604
	H322.233z"/>
<path style="fill:#3A484A;" d="M22.708,222.092c0-59.607,24.456-115.565,68.866-157.564C135.571,22.916,193.965,0,255.998,0
	s120.428,22.916,164.426,64.527c44.408,41.999,68.866,97.957,68.866,157.564L22.708,222.092L22.708,222.092z"/>
<path style="fill:#313D40;" d="M153.384,64.527c36.605-34.619,83.18-56.284,133.52-62.592C276.738,0.662,266.422,0,255.998,0
	C193.965,0,135.571,22.916,91.573,64.527c-44.409,41.999-68.867,97.957-68.867,157.564h61.811
	C84.519,162.484,108.975,106.527,153.384,64.527z"/>
<circle style="fill:#C99C87;" cx="462.447" cy="232.996" r="45.524"/>
<path style="fill:#E3B098;" d="M215.832,89.356c0,0-49.972,72.475-160.715,87.564c-3.631,14.5-5.564,29.621-5.564,45.171
	c0,107.832,92.43,195.248,206.447,195.248s206.447-87.415,206.447-195.248c0-15.55-1.933-30.672-5.564-45.171
	C306.75,157.632,215.832,89.356,215.832,89.356z"/>
<path style="fill:#C99C87;" d="M89.728,200.027c0-10.425,0.794-20.674,2.298-30.707c-11.461,3.196-23.752,5.806-36.911,7.599
	c-0.884,3.528-1.663,7.094-2.342,10.692c-1.01-0.084-2.067-0.142-3.222-0.142c-25.142,0-45.522,20.381-45.522,45.522
	s20.381,45.522,45.522,45.522c3.44,0,6.192-0.395,8.415-1.117c25.219,80.894,104.328,139.942,198.032,139.942
	c10.515,0,20.845-0.749,30.937-2.183C175.461,400.194,89.728,309.588,89.728,200.027z"/>
<g>
	<path style="fill:#FBE1D5;" d="M220.636,199.689c-9.807-6.929-28.037-14.891-60.032-14.891c-31.995,0-50.225,7.962-60.032,14.891
		c-6.726,4.752-10.373,12.768-9.693,20.976c1.973,23.807,12.715,78.292,69.725,78.292s67.753-54.484,69.725-78.292
		C231.009,212.457,227.363,204.441,220.636,199.689z"/>
	<path style="fill:#FBE1D5;" d="M291.36,199.689c9.807-6.929,28.037-14.891,60.032-14.891c31.995,0,50.225,7.962,60.032,14.891
		c6.726,4.752,10.373,12.768,9.693,20.976c-1.973,23.807-12.715,78.292-69.725,78.292s-67.753-54.484-69.725-78.292
		C280.988,212.457,284.634,204.441,291.36,199.689z"/>
</g>
<path style="fill:#DC5A64;" d="M415.883,193.378c-10.53-7.439-30.265-16.307-64.49-16.307c-34.227,0-53.962,8.868-64.49,16.307
	c-4.78,3.377-8.408,8.04-10.613,13.325c-5.343-3.147-12.316-5.931-20.29-5.931c-7.975,0-14.948,2.784-20.29,5.931
	c-2.205-5.286-5.834-9.948-10.613-13.325c-10.529-7.439-30.265-16.307-64.49-16.307s-53.961,8.868-64.49,16.307
	c-8.885,6.278-13.842,16.976-12.935,27.923c1.147,13.828,4.734,33.978,15.316,51.44c13.457,22.204,34.933,33.939,62.11,33.939
	s48.653-11.736,62.11-33.939c9.861-16.271,13.645-34.87,15.043-48.519c3.079-2.733,10.069-7.996,18.241-7.996
	c8.161,0,15.147,5.253,18.242,7.999c1.398,13.65,5.183,32.247,15.043,48.516c13.457,22.204,34.933,33.939,62.11,33.939
	s48.653-11.736,62.11-33.939c10.582-17.462,14.169-37.612,15.316-51.441C429.724,210.356,424.768,199.656,415.883,193.378z
	 M209.499,264.733c-10.655,17.581-27.106,26.496-48.894,26.496s-38.239-8.914-48.894-26.496c-9.5-15.677-12.304-34.74-13.131-44.707
	c-0.457-5.518,2.015-10.892,6.451-14.027c8.701-6.147,25.405-13.475,55.574-13.475s46.873,7.328,55.574,13.475
	c4.436,3.134,6.908,8.509,6.451,14.026C221.804,229.993,218.999,249.056,209.499,264.733z M413.417,220.026
	c-0.826,9.968-3.629,29.031-13.131,44.707c-10.655,17.581-27.106,26.496-48.894,26.496s-38.239-8.914-48.894-26.496
	c-9.501-15.677-12.304-34.74-13.131-44.707c-0.457-5.518,2.015-10.892,6.451-14.027c8.7-6.147,25.404-13.475,55.574-13.475
	c30.169,0,46.873,7.328,55.574,13.475C411.402,209.134,413.875,214.508,413.417,220.026z"/>
<g>
	<path style="fill:#3A484A;" d="M160.605,250.417c-4.267,0-7.726-3.459-7.726-7.726v-18.548c0-4.267,3.459-7.726,7.726-7.726
		c4.267,0,7.726,3.459,7.726,7.726v18.548C168.331,246.958,164.872,250.417,160.605,250.417z"/>
	<path style="fill:#3A484A;" d="M351.392,250.417c-4.267,0-7.726-3.459-7.726-7.726v-18.548c0-4.267,3.459-7.726,7.726-7.726
		s7.726,3.459,7.726,7.726v18.548C359.119,246.958,355.659,250.417,351.392,250.417z"/>
	<path style="fill:#3A484A;" d="M255.998,292.995c-9.342,0-18.113-3.905-24.065-10.715c-2.808-3.213-2.481-8.094,0.732-10.902
		c3.213-2.808,8.093-2.481,10.902,0.732c3.017,3.452,7.548,5.432,12.43,5.432c4.882,0,9.413-1.98,12.43-5.431
		c2.808-3.214,7.689-3.541,10.902-0.731c3.213,2.808,3.541,7.689,0.731,10.902C274.11,289.09,265.339,292.995,255.998,292.995z"/>
</g>
<g>
	<circle style="fill:#EFEDEE;" cx="44.087" cy="278.674" r="19.975"/>
	<circle style="fill:#EFEDEE;" cx="467.907" cy="278.674" r="19.975"/>
</g>
<g>
	<path style="fill:#F98084;" d="M77.412,99.973c-7.778,46.544-23.292,67.019-55.047,35.265S11.086,87.969,57.63,80.191
		L77.412,99.973z"/>
	<path style="fill:#F98084;" d="M99.245,78.14c46.544-7.778,67.019-23.292,35.265-55.047S87.241,11.815,79.464,58.359L99.245,78.14z
		"/>
</g>
<path style="fill:#BF4E57;" d="M125.817,29.8c-2.311-3.588-7.092-4.622-10.679-2.314C96.955,39.193,77.257,67.177,72.873,73.601
	c-6.424,4.383-34.408,24.083-46.114,42.264c-2.31,3.588-1.274,8.369,2.314,10.679c1.294,0.833,2.743,1.231,4.175,1.231
	c2.539,0,5.026-1.251,6.504-3.545c11.229-17.442,42.643-38.418,42.959-38.628c0.021-0.013,0.039-0.03,0.059-0.043
	c0.092-0.062,0.178-0.131,0.267-0.197c0.151-0.112,0.3-0.227,0.44-0.347c0.083-0.072,0.164-0.146,0.244-0.221
	c0.151-0.142,0.296-0.289,0.434-0.442c0.059-0.065,0.117-0.127,0.174-0.194c0.203-0.239,0.392-0.485,0.562-0.744
	c0.466-0.698,21.278-31.776,38.611-42.935C127.091,38.169,128.126,33.388,125.817,29.8z"/>
<path style="fill:#DC5A64;" d="M67.872,63.691L62.963,68.6c-7.191,7.191-7.191,18.849,0,26.041l0,0
	c7.191,7.191,18.849,7.191,26.041,0l4.908-4.908c7.191-7.191,7.191-18.849,0-26.041l0,0C86.721,56.5,75.063,56.5,67.872,63.691z"/>
<g>
</g>
<g>
</g>
<g>
</g>
<g>
</g>
<g>
</g>
<g>
</g>
<g>
</g>
<g>
</g>
<g>
</g>
<g>
</g>
<g>
</g>
<g>
</g>
<g>
</g>
<g>
</g>
<g>
</g>
</svg>
