<?xml version="1.0" encoding="iso-8859-1"?>
<!-- Generator: Adobe Illustrator 19.0.0, SVG Export Plug-In . SVG Version: 6.00 Build 0)  -->
<svg version="1.1" id="Capa_1" xmlns="http://www.w3.org/2000/svg" xmlns:xlink="http://www.w3.org/1999/xlink" x="0px" y="0px"
	 viewBox="0 0 512.002 512.002" style="enable-background:new 0 0 512.002 512.002;" xml:space="preserve">
<path style="fill:#FFA74F;" d="M485.63,151.526l-0.132-0.422l-210.036-31.843L65.427,151.104
	c-5.887,19.004-8.947,38.924-8.947,59.304c0,55.951,22.958,108.476,64.642,147.9c41.3,39.059,96.113,60.571,154.342,60.571
	s113.042-21.511,154.342-60.571c41.685-39.423,64.642-91.949,64.642-147.9C494.447,190.179,491.437,170.4,485.63,151.526z"/>
<path style="fill:#DC5A64;" d="M28.837,135.665c15.607,11.83,35.509,13.996,52.556,7.509c1.639-18.165-5.826-36.741-21.433-48.571
	c-15.606-11.83-35.508-13.996-52.555-7.509C5.766,105.259,13.231,123.835,28.837,135.665z"/>
<path style="fill:#BF4E57;" d="M53.089,188.088c17.169-9.42,27.269-26.705,28.304-44.915c-15.914-8.91-35.92-9.676-53.089-0.257
	C11.135,152.337,1.034,169.622,0,187.832C15.914,196.742,35.92,197.508,53.089,188.088z"/>
<path style="fill:#FFA74F;" d="M67.591,240.625v180.353c0,13.798,11.186,24.984,24.984,24.984h365.777
	c13.798,0,24.984-11.186,24.984-24.984V240.625H67.591z"/>
<g>
	<path style="fill:#F2973D;" d="M108.798,420.977V240.625H67.591v180.353c0,13.798,11.186,24.984,24.984,24.984h41.207
		C119.984,445.961,108.798,434.776,108.798,420.977z"/>
	<path style="fill:#F2973D;" d="M107.989,210.408c0-20.38,3.06-40.301,8.947-59.304l184.282-27.939l-25.755-3.904L65.427,151.104
		c-5.887,19.004-8.947,38.924-8.947,59.304H107.989z"/>
</g>
<circle style="fill:#E3B098;" cx="469.268" cy="240.806" r="42.734"/>
<g>
	<path style="fill:#FBC4AC;" d="M143.818,386.518c-76.71,46.876-78.393,123.547-78.393,123.547h78.393l26.411-48.346
		L143.818,386.518z"/>
	<path style="fill:#FBC4AC;" d="M485.5,510.064c0,0-1.682-76.67-78.393-123.547l0,0l0,0l-26.411,75.199l26.411,48.346l0,0l0,0H485.5
		V510.064z"/>
</g>
<path style="fill:#E3B098;" d="M150.157,404.565l-6.339-18.048c-3.595,2.197-7.027,4.461-10.301,6.778
	c-13.757,9.739-26.105,21.472-36.322,34.888c-12.07,15.85-21.142,33.978-26.629,53.131c-2.601,9.079-4.93,19.104-5.142,28.75H96.33
	C96.331,510.064,97.643,450.751,150.157,404.565z"/>
<path style="fill:#3A484A;" d="M407.108,386.518v123.547h-263.29V386.518c10.334-6.315,22.028-12.087,35.263-17.063h192.763
	C385.08,374.432,396.773,380.203,407.108,386.518z"/>
<path style="fill:#313D40;" d="M174.724,386.518c10.334-6.315,22.028-12.087,35.263-17.063h-30.905
	c-3.309,1.244-6.521,2.537-9.64,3.877c-1.56,0.67-3.096,1.351-4.609,2.043c-7.566,3.46-14.555,7.195-21.015,11.142v23.912
	C152.456,401.998,162.66,393.89,174.724,386.518z"/>
<circle style="fill:#E3B098;" cx="275.46" cy="393.695" r="76.862"/>
<ellipse style="fill:#FBC4AC;" cx="275.46" cy="210.405" rx="193.798" ry="183.29"/>
<path style="fill:#E3B098;" d="M107.989,210.408c0-20.38,3.06-40.301,8.947-59.304l184.282-27.939l-25.755-3.904L93.646,146.826
	c-6.312,16.137-10.293,33.343-11.551,51.253c-0.145-0.001-0.288-0.01-0.434-0.01c-23.601,0-42.734,19.133-42.734,42.734
	s19.133,42.734,42.734,42.734c5.223,0,10.225-0.943,14.851-2.658c18.993,43.087,54.873,77.851,99.826,96.891
	c-8.304-5.897-16.228-12.388-23.707-19.46C130.945,318.884,107.989,266.358,107.989,210.408z"/>
<path style="fill:#DC5A64;" d="M121.121,62.508c-26.501,25.063-45.419,55.428-55.695,88.596H485.5
	c-10.275-33.169-29.193-63.532-55.695-88.596c-41.3-39.059-96.113-60.571-154.342-60.571S162.421,23.449,121.121,62.508z"/>
<path style="fill:#BF4E57;" d="M172.631,62.508c35.149-33.242,80.087-53.763,128.587-59.141c-8.488-0.942-17.081-1.429-25.755-1.429
	c-58.229,0-113.042,21.511-154.342,60.571c-26.501,25.063-45.419,55.427-55.695,88.596h51.509
	C127.212,117.935,146.129,87.572,172.631,62.508z"/>
<path style="fill:#3A484A;" d="M179.078,243.071c-4.267,0-7.726-3.459-7.726-7.726v-28.854c0-4.267,3.459-7.726,7.726-7.726
	c4.267,0,7.726,3.459,7.726,7.726v28.853C186.805,239.612,183.345,243.071,179.078,243.071z"/>
<path style="fill:#FFA74F;" d="M186.261,191.916h-14.366c-6.818,0-12.345,5.527-12.345,12.345s5.527,12.345,12.345,12.345h14.366
	c6.818,0,12.345-5.527,12.345-12.345C198.606,197.441,193.079,191.916,186.261,191.916z"/>
<path style="fill:#3A484A;" d="M371.848,243.071c-4.267,0-7.726-3.459-7.726-7.726v-28.854c0-4.267,3.459-7.726,7.726-7.726
	c4.267,0,7.726,3.459,7.726,7.726v28.853C379.574,239.612,376.115,243.071,371.848,243.071z"/>
<g>
	<path style="fill:#FFA74F;" d="M364.666,191.916h14.366c6.818,0,12.345,5.527,12.345,12.345s-5.527,12.345-12.345,12.345h-14.366
		c-6.818,0-12.345-5.527-12.345-12.345C352.321,197.441,357.848,191.916,364.666,191.916z"/>
	<path style="fill:#FFA74F;" d="M275.463,275.381c3.693,59.09,87.098,88.528,88.956,65.134
		c1.858-23.393-26.843-28.874-28.187-69.834c-1.175-29.965-26.513-45.925-50.597-36.06c-6.543,2.681-13.799,2.681-20.342,0
		c-24.086-9.865-49.423,6.096-50.598,36.06c-1.343,40.961-30.044,46.441-28.187,69.834
		C188.366,363.908,271.77,334.471,275.463,275.381z"/>
</g>
<g>
	<path style="fill:#F98084;" d="M170.229,273.11h-18.975c-4.267,0-7.726-3.459-7.726-7.726s3.459-7.726,7.726-7.726h18.975
		c4.267,0,7.726,3.459,7.726,7.726S174.496,273.11,170.229,273.11z"/>
	<path style="fill:#F98084;" d="M399.672,273.11h-18.975c-4.267,0-7.726-3.459-7.726-7.726s3.459-7.726,7.726-7.726h18.975
		c4.267,0,7.726,3.459,7.726,7.726S403.939,273.11,399.672,273.11z"/>
</g>
<g>
</g>
<g>
</g>
<g>
</g>
<g>
</g>
<g>
</g>
<g>
</g>
<g>
</g>
<g>
</g>
<g>
</g>
<g>
</g>
<g>
</g>
<g>
</g>
<g>
</g>
<g>
</g>
<g>
</g>
</svg>
