<?xml version="1.0" encoding="UTF-8" standalone="no"?>
<!DOCTYPE svg PUBLIC "-//W3C//DTD SVG 1.1//EN"
 "http://www.w3.org/Graphics/SVG/1.1/DTD/svg11.dtd">
<!-- Generated by graphviz version 2.44.1 (20200629.0846)
 -->
<!-- Title: dependencies Pages: 1 -->
<svg width="631pt" height="211pt"
 viewBox="0.00 0.00 631.00 211.00" xmlns="http://www.w3.org/2000/svg" xmlns:xlink="http://www.w3.org/1999/xlink">
<g id="graph0" class="graph" transform="scale(1 1) rotate(0) translate(4 207)">
<title>dependencies</title>
<polygon fill="white" stroke="transparent" points="-4,4 -4,-207 627,-207 627,4 -4,4"/>
<text text-anchor="start" x="290.51" y="-42.4" font-family="sans-serif" font-weight="bold" font-size="14.00">Legend</text>
<polygon fill="#ffffb3" stroke="transparent" points="77.5,-10 77.5,-30 97.5,-30 97.5,-10 77.5,-10"/>
<text text-anchor="start" x="101.13" y="-15.4" font-family="sans-serif" font-size="14.00"> &#160;Declarations</text>
<polygon fill="#8dd3c7" stroke="transparent" points="190.5,-10 190.5,-30 210.5,-30 210.5,-10 190.5,-10"/>
<text text-anchor="start" x="214.23" y="-15.4" font-family="sans-serif" font-size="14.00"> &#160;Module</text>
<polygon fill="#80b1d3" stroke="transparent" points="276.5,-10 276.5,-30 296.5,-30 296.5,-10 276.5,-10"/>
<text text-anchor="start" x="300.28" y="-15.4" font-family="sans-serif" font-size="14.00"> &#160;Bootstrap</text>
<polygon fill="#fdb462" stroke="transparent" points="373.5,-10 373.5,-30 393.5,-30 393.5,-10 373.5,-10"/>
<text text-anchor="start" x="397.17" y="-15.4" font-family="sans-serif" font-size="14.00"> &#160;Providers</text>
<polygon fill="#fb8072" stroke="transparent" points="469.5,-10 469.5,-30 489.5,-30 489.5,-10 469.5,-10"/>
<text text-anchor="start" x="493.23" y="-15.4" font-family="sans-serif" font-size="14.00"> &#160;Exports</text>
<g id="clust1" class="cluster">
<title>cluster_IdentityModule</title>
<polygon fill="none" stroke="black" stroke-dasharray="1,5" points="8,-70 8,-195 615,-195 615,-70 8,-70"/>
</g>
<g id="clust6" class="cluster">
<title>cluster_IdentityModule_imports</title>
<polygon fill="none" stroke="black" points="443,-78 443,-130 607,-130 607,-78 443,-78"/>
</g>
<g id="clust2" class="cluster">
<title>cluster_IdentityModule_declarations</title>
<polygon fill="none" stroke="black" points="16,-78 16,-130 435,-130 435,-78 16,-78"/>
</g>
<!-- IdentityComponent -->
<g id="node1" class="node">
<title>IdentityComponent</title>
<polygon fill="#ffffb3" stroke="black" points="427.38,-122 302.62,-122 302.62,-86 427.38,-86 427.38,-122"/>
<text text-anchor="middle" x="365" y="-99.8" font-family="Times,serif" font-size="14.00">IdentityComponent</text>
</g>
<!-- IdentityModule -->
<g id="node4" class="node">
<title>IdentityModule</title>
<polygon fill="#8dd3c7" stroke="black" points="347.6,-187 344.6,-191 323.6,-191 320.6,-187 244.4,-187 244.4,-151 347.6,-151 347.6,-187"/>
<text text-anchor="middle" x="296" y="-164.8" font-family="Times,serif" font-size="14.00">IdentityModule</text>
</g>
<!-- IdentityComponent&#45;&gt;IdentityModule -->
<g id="edge1" class="edge">
<title>IdentityComponent&#45;&gt;IdentityModule</title>
<path fill="none" stroke="black" d="M325.05,-122.11C325.05,-122.11 325.05,-140.99 325.05,-140.99"/>
<polygon fill="black" stroke="black" points="321.55,-140.99 325.05,-150.99 328.55,-140.99 321.55,-140.99"/>
</g>
<!-- LoginComponent -->
<g id="node2" class="node">
<title>LoginComponent</title>
<polygon fill="#ffffb3" stroke="black" points="284.28,-122 169.72,-122 169.72,-86 284.28,-86 284.28,-122"/>
<text text-anchor="middle" x="227" y="-99.8" font-family="Times,serif" font-size="14.00">LoginComponent</text>
</g>
<!-- LoginComponent&#45;&gt;IdentityModule -->
<g id="edge2" class="edge">
<title>LoginComponent&#45;&gt;IdentityModule</title>
<path fill="none" stroke="black" d="M264.42,-122.11C264.42,-122.11 264.42,-140.99 264.42,-140.99"/>
<polygon fill="black" stroke="black" points="260.92,-140.99 264.42,-150.99 267.92,-140.99 260.92,-140.99"/>
</g>
<!-- RegisterComponent -->
<g id="node3" class="node">
<title>RegisterComponent</title>
<polygon fill="#ffffb3" stroke="black" points="151.98,-122 24.02,-122 24.02,-86 151.98,-86 151.98,-122"/>
<text text-anchor="middle" x="88" y="-99.8" font-family="Times,serif" font-size="14.00">RegisterComponent</text>
</g>
<!-- RegisterComponent&#45;&gt;IdentityModule -->
<g id="edge3" class="edge">
<title>RegisterComponent&#45;&gt;IdentityModule</title>
<path fill="none" stroke="black" d="M88,-122.11C88,-141.34 88,-169 88,-169 88,-169 234.32,-169 234.32,-169"/>
<polygon fill="black" stroke="black" points="234.32,-172.5 244.32,-169 234.32,-165.5 234.32,-172.5"/>
</g>
<!-- IdentityRoutingModule -->
<g id="node5" class="node">
<title>IdentityRoutingModule</title>
<polygon fill="#8dd3c7" stroke="black" points="599.21,-122 596.21,-126 575.21,-126 572.21,-122 450.79,-122 450.79,-86 599.21,-86 599.21,-122"/>
<text text-anchor="middle" x="525" y="-99.8" font-family="Times,serif" font-size="14.00">IdentityRoutingModule</text>
</g>
<!-- IdentityRoutingModule&#45;&gt;IdentityModule -->
<g id="edge4" class="edge">
<title>IdentityRoutingModule&#45;&gt;IdentityModule</title>
<path fill="none" stroke="black" d="M525,-122.11C525,-141.34 525,-169 525,-169 525,-169 357.68,-169 357.68,-169"/>
<polygon fill="black" stroke="black" points="357.68,-165.5 347.68,-169 357.68,-172.5 357.68,-165.5"/>
</g>
</g>
</svg>
