<?xml version="1.0" encoding="UTF-8" standalone="no"?>
<!DOCTYPE svg PUBLIC "-//W3C//DTD SVG 1.1//EN"
 "http://www.w3.org/Graphics/SVG/1.1/DTD/svg11.dtd">
<!-- Generated by graphviz version 2.44.1 (20200629.0846)
 -->
<!-- Title: dependencies Pages: 1 -->
<svg width="813pt" height="211pt"
 viewBox="0.00 0.00 813.00 211.00" xmlns="http://www.w3.org/2000/svg" xmlns:xlink="http://www.w3.org/1999/xlink">
<g id="graph0" class="graph" transform="scale(1 1) rotate(0) translate(4 207)">
<title>dependencies</title>
<polygon fill="white" stroke="transparent" points="-4,4 -4,-207 809,-207 809,4 -4,4"/>
<text text-anchor="start" x="381.51" y="-42.4" font-family="sans-serif" font-weight="bold" font-size="14.00">Legend</text>
<polygon fill="#ffffb3" stroke="transparent" points="168.5,-10 168.5,-30 188.5,-30 188.5,-10 168.5,-10"/>
<text text-anchor="start" x="192.13" y="-15.4" font-family="sans-serif" font-size="14.00"> &#160;Declarations</text>
<polygon fill="#8dd3c7" stroke="transparent" points="281.5,-10 281.5,-30 301.5,-30 301.5,-10 281.5,-10"/>
<text text-anchor="start" x="305.23" y="-15.4" font-family="sans-serif" font-size="14.00"> &#160;Module</text>
<polygon fill="#80b1d3" stroke="transparent" points="367.5,-10 367.5,-30 387.5,-30 387.5,-10 367.5,-10"/>
<text text-anchor="start" x="391.28" y="-15.4" font-family="sans-serif" font-size="14.00"> &#160;Bootstrap</text>
<polygon fill="#fdb462" stroke="transparent" points="464.5,-10 464.5,-30 484.5,-30 484.5,-10 464.5,-10"/>
<text text-anchor="start" x="488.17" y="-15.4" font-family="sans-serif" font-size="14.00"> &#160;Providers</text>
<polygon fill="#fb8072" stroke="transparent" points="560.5,-10 560.5,-30 580.5,-30 580.5,-10 560.5,-10"/>
<text text-anchor="start" x="584.23" y="-15.4" font-family="sans-serif" font-size="14.00"> &#160;Exports</text>
<g id="clust1" class="cluster">
<title>cluster_IdentityModule</title>
<polygon fill="none" stroke="black" stroke-dasharray="1,5" points="8,-70 8,-195 797,-195 797,-70 8,-70"/>
</g>
<g id="clust6" class="cluster">
<title>cluster_IdentityModule_imports</title>
<polygon fill="none" stroke="black" points="625,-78 625,-130 789,-130 789,-78 625,-78"/>
</g>
<g id="clust2" class="cluster">
<title>cluster_IdentityModule_declarations</title>
<polygon fill="none" stroke="black" points="198,-78 198,-130 617,-130 617,-78 198,-78"/>
</g>
<g id="clust9" class="cluster">
<title>cluster_IdentityModule_providers</title>
<polygon fill="none" stroke="black" points="16,-78 16,-130 190,-130 190,-78 16,-78"/>
</g>
<!-- IdentityComponent -->
<g id="node1" class="node">
<title>IdentityComponent</title>
<polygon fill="#ffffb3" stroke="black" points="609.38,-122 484.62,-122 484.62,-86 609.38,-86 609.38,-122"/>
<text text-anchor="middle" x="547" y="-99.8" font-family="Times,serif" font-size="14.00">IdentityComponent</text>
</g>
<!-- IdentityModule -->
<g id="node4" class="node">
<title>IdentityModule</title>
<polygon fill="#8dd3c7" stroke="black" points="460.6,-187 457.6,-191 436.6,-191 433.6,-187 357.4,-187 357.4,-151 460.6,-151 460.6,-187"/>
<text text-anchor="middle" x="409" y="-164.8" font-family="Times,serif" font-size="14.00">IdentityModule</text>
</g>
<!-- IdentityComponent&#45;&gt;IdentityModule -->
<g id="edge1" class="edge">
<title>IdentityComponent&#45;&gt;IdentityModule</title>
<path fill="none" stroke="black" d="M547,-122.02C547,-139.37 547,-163 547,-163 547,-163 470.78,-163 470.78,-163"/>
<polygon fill="black" stroke="black" points="470.78,-159.5 460.78,-163 470.78,-166.5 470.78,-159.5"/>
</g>
<!-- LoginComponent -->
<g id="node2" class="node">
<title>LoginComponent</title>
<polygon fill="#ffffb3" stroke="black" points="466.28,-122 351.72,-122 351.72,-86 466.28,-86 466.28,-122"/>
<text text-anchor="middle" x="409" y="-99.8" font-family="Times,serif" font-size="14.00">LoginComponent</text>
</g>
<!-- LoginComponent&#45;&gt;IdentityModule -->
<g id="edge2" class="edge">
<title>LoginComponent&#45;&gt;IdentityModule</title>
<path fill="none" stroke="black" d="M409,-122.11C409,-122.11 409,-140.99 409,-140.99"/>
<polygon fill="black" stroke="black" points="405.5,-140.99 409,-150.99 412.5,-140.99 405.5,-140.99"/>
</g>
<!-- RegisterComponent -->
<g id="node3" class="node">
<title>RegisterComponent</title>
<polygon fill="#ffffb3" stroke="black" points="333.98,-122 206.02,-122 206.02,-86 333.98,-86 333.98,-122"/>
<text text-anchor="middle" x="270" y="-99.8" font-family="Times,serif" font-size="14.00">RegisterComponent</text>
</g>
<!-- RegisterComponent&#45;&gt;IdentityModule -->
<g id="edge3" class="edge">
<title>RegisterComponent&#45;&gt;IdentityModule</title>
<path fill="none" stroke="black" d="M270,-122.02C270,-139.37 270,-163 270,-163 270,-163 347.24,-163 347.24,-163"/>
<polygon fill="black" stroke="black" points="347.24,-166.5 357.24,-163 347.24,-159.5 347.24,-166.5"/>
</g>
<!-- IdentityRoutingModule -->
<g id="node5" class="node">
<title>IdentityRoutingModule</title>
<polygon fill="#8dd3c7" stroke="black" points="781.21,-122 778.21,-126 757.21,-126 754.21,-122 632.79,-122 632.79,-86 781.21,-86 781.21,-122"/>
<text text-anchor="middle" x="707" y="-99.8" font-family="Times,serif" font-size="14.00">IdentityRoutingModule</text>
</g>
<!-- IdentityRoutingModule&#45;&gt;IdentityModule -->
<g id="edge4" class="edge">
<title>IdentityRoutingModule&#45;&gt;IdentityModule</title>
<path fill="none" stroke="black" d="M707,-122.28C707,-143.32 707,-175 707,-175 707,-175 470.57,-175 470.57,-175"/>
<polygon fill="black" stroke="black" points="470.57,-171.5 460.57,-175 470.57,-178.5 470.57,-171.5"/>
</g>
<!-- UserFormService -->
<g id="node6" class="node">
<title>UserFormService</title>
<ellipse fill="#fdb462" stroke="black" cx="103" cy="-104" rx="79.29" ry="18"/>
<text text-anchor="middle" x="103" y="-99.8" font-family="Times,serif" font-size="14.00">UserFormService</text>
</g>
<!-- UserFormService&#45;&gt;IdentityModule -->
<g id="edge5" class="edge">
<title>UserFormService&#45;&gt;IdentityModule</title>
<path fill="none" stroke="black" d="M103,-122.28C103,-143.32 103,-175 103,-175 103,-175 347.44,-175 347.44,-175"/>
<polygon fill="black" stroke="black" points="347.44,-178.5 357.44,-175 347.44,-171.5 347.44,-178.5"/>
</g>
</g>
</svg>
