<?xml version="1.0" encoding="UTF-8" standalone="no"?>
<!DOCTYPE svg PUBLIC "-//W3C//DTD SVG 1.1//EN"
 "http://www.w3.org/Graphics/SVG/1.1/DTD/svg11.dtd">
<!-- Generated by graphviz version 2.44.1 (20200629.0846)
 -->
<!-- Title: dependencies Pages: 1 -->
<svg width="813pt" height="211pt"
 viewBox="0.00 0.00 813.00 211.00" xmlns="http://www.w3.org/2000/svg" xmlns:xlink="http://www.w3.org/1999/xlink">
<g id="graph0" class="graph" transform="scale(1 1) rotate(0) translate(4 207)">
<title>dependencies</title>
<polygon fill="white" stroke="transparent" points="-4,4 -4,-207 809,-207 809,4 -4,4"/>
<text text-anchor="start" x="381.51" y="-42.4" font-family="sans-serif" font-weight="bold" font-size="14.00">Legend</text>
<polygon fill="#ffffb3" stroke="transparent" points="168.5,-10 168.5,-30 188.5,-30 188.5,-10 168.5,-10"/>
<text text-anchor="start" x="192.13" y="-15.4" font-family="sans-serif" font-size="14.00"> &#160;Declarations</text>
<polygon fill="#8dd3c7" stroke="transparent" points="281.5,-10 281.5,-30 301.5,-30 301.5,-10 281.5,-10"/>
<text text-anchor="start" x="305.23" y="-15.4" font-family="sans-serif" font-size="14.00"> &#160;Module</text>
<polygon fill="#80b1d3" stroke="transparent" points="367.5,-10 367.5,-30 387.5,-30 387.5,-10 367.5,-10"/>
<text text-anchor="start" x="391.28" y="-15.4" font-family="sans-serif" font-size="14.00"> &#160;Bootstrap</text>
<polygon fill="#fdb462" stroke="transparent" points="464.5,-10 464.5,-30 484.5,-30 484.5,-10 464.5,-10"/>
<text text-anchor="start" x="488.17" y="-15.4" font-family="sans-serif" font-size="14.00"> &#160;Providers</text>
<polygon fill="#fb8072" stroke="transparent" points="560.5,-10 560.5,-30 580.5,-30 580.5,-10 560.5,-10"/>
<text text-anchor="start" x="584.23" y="-15.4" font-family="sans-serif" font-size="14.00"> &#160;Exports</text>
<g id="clust1" class="cluster">
<title>cluster_IdentityModule</title>
<polygon fill="none" stroke="black" stroke-dasharray="1,5" points="8,-70 8,-195 797,-195 797,-70 8,-70"/>
</g>
<g id="clust9" class="cluster">
<title>cluster_IdentityModule_providers</title>
<polygon fill="none" stroke="black" points="615,-78 615,-130 789,-130 789,-78 615,-78"/>
</g>
<g id="clust6" class="cluster">
<title>cluster_IdentityModule_imports</title>
<polygon fill="none" stroke="black" points="443,-78 443,-130 607,-130 607,-78 443,-78"/>
</g>
<g id="clust2" class="cluster">
<title>cluster_IdentityModule_declarations</title>
<polygon fill="none" stroke="black" points="16,-78 16,-130 435,-130 435,-78 16,-78"/>
</g>
<!-- IdentityComponent -->
<g id="node1" class="node">
<title>IdentityComponent</title>
<polygon fill="#ffffb3" stroke="black" points="427.38,-122 302.62,-122 302.62,-86 427.38,-86 427.38,-122"/>
<text text-anchor="middle" x="365" y="-99.8" font-family="Times,serif" font-size="14.00">IdentityComponent</text>
</g>
<!-- IdentityModule -->
<g id="node4" class="node">
<title>IdentityModule</title>
<polygon fill="#8dd3c7" stroke="black" points="416.6,-187 413.6,-191 392.6,-191 389.6,-187 313.4,-187 313.4,-151 416.6,-151 416.6,-187"/>
<text text-anchor="middle" x="365" y="-164.8" font-family="Times,serif" font-size="14.00">IdentityModule</text>
</g>
<!-- IdentityComponent&#45;&gt;IdentityModule -->
<g id="edge1" class="edge">
<title>IdentityComponent&#45;&gt;IdentityModule</title>
<path fill="none" stroke="black" d="M365,-122.11C365,-122.11 365,-140.99 365,-140.99"/>
<polygon fill="black" stroke="black" points="361.5,-140.99 365,-150.99 368.5,-140.99 361.5,-140.99"/>
</g>
<!-- LoginComponent -->
<g id="node2" class="node">
<title>LoginComponent</title>
<polygon fill="#ffffb3" stroke="black" points="284.28,-122 169.72,-122 169.72,-86 284.28,-86 284.28,-122"/>
<text text-anchor="middle" x="227" y="-99.8" font-family="Times,serif" font-size="14.00">LoginComponent</text>
</g>
<!-- LoginComponent&#45;&gt;IdentityModule -->
<g id="edge2" class="edge">
<title>LoginComponent&#45;&gt;IdentityModule</title>
<path fill="none" stroke="black" d="M227,-122.02C227,-139.37 227,-163 227,-163 227,-163 303.22,-163 303.22,-163"/>
<polygon fill="black" stroke="black" points="303.22,-166.5 313.22,-163 303.22,-159.5 303.22,-166.5"/>
</g>
<!-- RegisterComponent -->
<g id="node3" class="node">
<title>RegisterComponent</title>
<polygon fill="#ffffb3" stroke="black" points="151.98,-122 24.02,-122 24.02,-86 151.98,-86 151.98,-122"/>
<text text-anchor="middle" x="88" y="-99.8" font-family="Times,serif" font-size="14.00">RegisterComponent</text>
</g>
<!-- RegisterComponent&#45;&gt;IdentityModule -->
<g id="edge3" class="edge">
<title>RegisterComponent&#45;&gt;IdentityModule</title>
<path fill="none" stroke="black" d="M88,-122.28C88,-143.32 88,-175 88,-175 88,-175 303.22,-175 303.22,-175"/>
<polygon fill="black" stroke="black" points="303.22,-178.5 313.22,-175 303.22,-171.5 303.22,-178.5"/>
</g>
<!-- IdentityRoutingModule -->
<g id="node5" class="node">
<title>IdentityRoutingModule</title>
<polygon fill="#8dd3c7" stroke="black" points="599.21,-122 596.21,-126 575.21,-126 572.21,-122 450.79,-122 450.79,-86 599.21,-86 599.21,-122"/>
<text text-anchor="middle" x="525" y="-99.8" font-family="Times,serif" font-size="14.00">IdentityRoutingModule</text>
</g>
<!-- IdentityRoutingModule&#45;&gt;IdentityModule -->
<g id="edge4" class="edge">
<title>IdentityRoutingModule&#45;&gt;IdentityModule</title>
<path fill="none" stroke="black" d="M525,-122.02C525,-139.37 525,-163 525,-163 525,-163 426.95,-163 426.95,-163"/>
<polygon fill="black" stroke="black" points="426.95,-159.5 416.95,-163 426.95,-166.5 426.95,-159.5"/>
</g>
<!-- UserFormService -->
<g id="node6" class="node">
<title>UserFormService</title>
<ellipse fill="#fdb462" stroke="black" cx="702" cy="-104" rx="79.29" ry="18"/>
<text text-anchor="middle" x="702" y="-99.8" font-family="Times,serif" font-size="14.00">UserFormService</text>
</g>
<!-- UserFormService&#45;&gt;IdentityModule -->
<g id="edge5" class="edge">
<title>UserFormService&#45;&gt;IdentityModule</title>
<path fill="none" stroke="black" d="M702,-122.28C702,-143.32 702,-175 702,-175 702,-175 426.55,-175 426.55,-175"/>
<polygon fill="black" stroke="black" points="426.55,-171.5 416.55,-175 426.55,-178.5 426.55,-171.5"/>
</g>
</g>
</svg>
