<?xml version="1.0" encoding="UTF-8" standalone="no"?>
<!DOCTYPE svg PUBLIC "-//W3C//DTD SVG 1.1//EN"
 "http://www.w3.org/Graphics/SVG/1.1/DTD/svg11.dtd">
<!-- Generated by graphviz version 2.44.1 (20200629.0846)
 -->
<!-- Title: dependencies Pages: 1 -->
<svg width="1368pt" height="284pt"
 viewBox="0.00 0.00 1368.00 284.00" xmlns="http://www.w3.org/2000/svg" xmlns:xlink="http://www.w3.org/1999/xlink">
<g id="graph0" class="graph" transform="scale(1 1) rotate(0) translate(4 280)">
<title>dependencies</title>
<polygon fill="white" stroke="transparent" points="-4,4 -4,-280 1364,-280 1364,4 -4,4"/>
<text text-anchor="start" x="659.01" y="-42.4" font-family="sans-serif" font-weight="bold" font-size="14.00">Legend</text>
<polygon fill="#ffffb3" stroke="transparent" points="446,-10 446,-30 466,-30 466,-10 446,-10"/>
<text text-anchor="start" x="469.63" y="-15.4" font-family="sans-serif" font-size="14.00"> &#160;Declarations</text>
<polygon fill="#8dd3c7" stroke="transparent" points="559,-10 559,-30 579,-30 579,-10 559,-10"/>
<text text-anchor="start" x="582.73" y="-15.4" font-family="sans-serif" font-size="14.00"> &#160;Module</text>
<polygon fill="#80b1d3" stroke="transparent" points="645,-10 645,-30 665,-30 665,-10 645,-10"/>
<text text-anchor="start" x="668.78" y="-15.4" font-family="sans-serif" font-size="14.00"> &#160;Bootstrap</text>
<polygon fill="#fdb462" stroke="transparent" points="742,-10 742,-30 762,-30 762,-10 742,-10"/>
<text text-anchor="start" x="765.67" y="-15.4" font-family="sans-serif" font-size="14.00"> &#160;Providers</text>
<polygon fill="#fb8072" stroke="transparent" points="838,-10 838,-30 858,-30 858,-10 838,-10"/>
<text text-anchor="start" x="861.73" y="-15.4" font-family="sans-serif" font-size="14.00"> &#160;Exports</text>
<g id="clust1" class="cluster">
<title>cluster_SharedModule</title>
<polygon fill="none" stroke="black" stroke-dasharray="1,5" points="8,-70 8,-268 1352,-268 1352,-70 8,-70"/>
</g>
<g id="clust8" class="cluster">
<title>cluster_SharedModule_exports</title>
<polygon fill="none" stroke="black" points="364,-208 364,-260 943,-260 943,-208 364,-208"/>
</g>
<g id="clust10" class="cluster">
<title>cluster_SharedModule_providers</title>
<polygon fill="none" stroke="black" points="589,-78 589,-130 1344,-130 1344,-78 589,-78"/>
</g>
<g id="clust2" class="cluster">
<title>cluster_SharedModule_declarations</title>
<polygon fill="none" stroke="black" points="16,-78 16,-130 581,-130 581,-78 16,-78"/>
</g>
<!-- AboutComponent -->
<g id="node1" class="node">
<title>AboutComponent</title>
<polygon fill="#ffffb3" stroke="black" points="573.33,-122 456.67,-122 456.67,-86 573.33,-86 573.33,-122"/>
<text text-anchor="middle" x="515" y="-99.8" font-family="Times,serif" font-size="14.00">AboutComponent</text>
</g>
<!-- SharedModule -->
<g id="node5" class="node">
<title>SharedModule</title>
<polygon fill="#8dd3c7" stroke="black" points="715.42,-187 712.42,-191 691.42,-191 688.42,-187 616.58,-187 616.58,-151 715.42,-151 715.42,-187"/>
<text text-anchor="middle" x="666" y="-164.8" font-family="Times,serif" font-size="14.00">SharedModule</text>
</g>
<!-- AboutComponent&#45;&gt;SharedModule -->
<g id="edge1" class="edge">
<title>AboutComponent&#45;&gt;SharedModule</title>
<path fill="none" stroke="black" d="M555.32,-122.24C555.32,-137.57 555.32,-157 555.32,-157 555.32,-157 606.49,-157 606.49,-157"/>
<polygon fill="black" stroke="black" points="606.49,-160.5 616.49,-157 606.49,-153.5 606.49,-160.5"/>
</g>
<!-- DialogComponent -->
<g id="node2" class="node">
<title>DialogComponent</title>
<polygon fill="#ffffb3" stroke="black" points="438.94,-122 319.06,-122 319.06,-86 438.94,-86 438.94,-122"/>
<text text-anchor="middle" x="379" y="-99.8" font-family="Times,serif" font-size="14.00">DialogComponent</text>
</g>
<!-- DialogComponent&#45;&gt;SharedModule -->
<g id="edge2" class="edge">
<title>DialogComponent&#45;&gt;SharedModule</title>
<path fill="none" stroke="black" d="M405.6,-122.02C405.6,-139.37 405.6,-163 405.6,-163 405.6,-163 606.71,-163 606.71,-163"/>
<polygon fill="black" stroke="black" points="606.71,-166.5 616.71,-163 606.71,-159.5 606.71,-166.5"/>
</g>
<!-- HomeComponent -->
<g id="node3" class="node">
<title>HomeComponent</title>
<polygon fill="#ffffb3" stroke="black" points="301.55,-122 186.45,-122 186.45,-86 301.55,-86 301.55,-122"/>
<text text-anchor="middle" x="244" y="-99.8" font-family="Times,serif" font-size="14.00">HomeComponent</text>
</g>
<!-- HomeComponent&#45;&gt;SharedModule -->
<g id="edge3" class="edge">
<title>HomeComponent&#45;&gt;SharedModule</title>
<path fill="none" stroke="black" d="M244,-122.11C244,-141.34 244,-169 244,-169 244,-169 606.77,-169 606.77,-169"/>
<polygon fill="black" stroke="black" points="606.77,-172.5 616.77,-169 606.77,-165.5 606.77,-172.5"/>
</g>
<!-- NavigationComponent -->
<g id="node4" class="node">
<title>NavigationComponent</title>
<polygon fill="#ffffb3" stroke="black" points="167.54,-122 24.46,-122 24.46,-86 167.54,-86 167.54,-122"/>
<text text-anchor="middle" x="96" y="-99.8" font-family="Times,serif" font-size="14.00">NavigationComponent</text>
</g>
<!-- NavigationComponent&#45;&gt;SharedModule -->
<g id="edge4" class="edge">
<title>NavigationComponent&#45;&gt;SharedModule</title>
<path fill="none" stroke="black" d="M96,-122.28C96,-143.32 96,-175 96,-175 96,-175 606.41,-175 606.41,-175"/>
<polygon fill="black" stroke="black" points="606.41,-178.5 616.41,-175 606.41,-171.5 606.41,-178.5"/>
</g>
<!-- AboutComponent  -->
<g id="node6" class="node">
<title>AboutComponent </title>
<polygon fill="#fb8072" stroke="black" points="934.83,-252 815.17,-252 815.17,-216 934.83,-216 934.83,-252"/>
<text text-anchor="middle" x="875" y="-229.8" font-family="Times,serif" font-size="14.00">AboutComponent </text>
</g>
<!-- SharedModule&#45;&gt;AboutComponent  -->
<g id="edge5" class="edge">
<title>SharedModule&#45;&gt;AboutComponent </title>
<path fill="none" stroke="black" stroke-dasharray="5,2" d="M715.35,-181C770.45,-181 851.98,-181 851.98,-181 851.98,-181 851.98,-205.76 851.98,-205.76"/>
<polygon fill="black" stroke="black" points="848.48,-205.76 851.98,-215.76 855.48,-205.76 848.48,-205.76"/>
</g>
<!-- DialogComponent  -->
<g id="node7" class="node">
<title>DialogComponent </title>
<polygon fill="#fb8072" stroke="black" points="797.43,-252 674.57,-252 674.57,-216 797.43,-216 797.43,-252"/>
<text text-anchor="middle" x="736" y="-229.8" font-family="Times,serif" font-size="14.00">DialogComponent </text>
</g>
<!-- SharedModule&#45;&gt;DialogComponent  -->
<g id="edge6" class="edge">
<title>SharedModule&#45;&gt;DialogComponent </title>
<path fill="none" stroke="black" stroke-dasharray="5,2" d="M694.87,-187.11C694.87,-187.11 694.87,-205.99 694.87,-205.99"/>
<polygon fill="black" stroke="black" points="691.37,-205.99 694.87,-215.99 698.37,-205.99 691.37,-205.99"/>
</g>
<!-- HomeComponent  -->
<g id="node8" class="node">
<title>HomeComponent </title>
<polygon fill="#fb8072" stroke="black" points="656.54,-252 537.46,-252 537.46,-216 656.54,-216 656.54,-252"/>
<text text-anchor="middle" x="597" y="-229.8" font-family="Times,serif" font-size="14.00">HomeComponent </text>
</g>
<!-- SharedModule&#45;&gt;HomeComponent  -->
<g id="edge7" class="edge">
<title>SharedModule&#45;&gt;HomeComponent </title>
<path fill="none" stroke="black" stroke-dasharray="5,2" d="M636.66,-187.11C636.66,-187.11 636.66,-205.99 636.66,-205.99"/>
<polygon fill="black" stroke="black" points="633.16,-205.99 636.66,-215.99 640.16,-205.99 633.16,-205.99"/>
</g>
<!-- NavigationComponent  -->
<g id="node9" class="node">
<title>NavigationComponent </title>
<polygon fill="#fb8072" stroke="black" points="519.54,-252 372.46,-252 372.46,-216 519.54,-216 519.54,-252"/>
<text text-anchor="middle" x="446" y="-229.8" font-family="Times,serif" font-size="14.00">NavigationComponent </text>
</g>
<!-- SharedModule&#45;&gt;NavigationComponent  -->
<g id="edge8" class="edge">
<title>SharedModule&#45;&gt;NavigationComponent </title>
<path fill="none" stroke="black" stroke-dasharray="5,2" d="M616.47,-181C563.85,-181 488.18,-181 488.18,-181 488.18,-181 488.18,-205.76 488.18,-205.76"/>
<polygon fill="black" stroke="black" points="484.68,-205.76 488.18,-215.76 491.68,-205.76 484.68,-205.76"/>
</g>
<!-- DialogService -->
<g id="node10" class="node">
<title>DialogService</title>
<ellipse fill="#fdb462" stroke="black" cx="1270" cy="-104" rx="66.05" ry="18"/>
<text text-anchor="middle" x="1270" y="-99.8" font-family="Times,serif" font-size="14.00">DialogService</text>
</g>
<!-- DialogService&#45;&gt;SharedModule -->
<g id="edge9" class="edge">
<title>DialogService&#45;&gt;SharedModule</title>
<path fill="none" stroke="black" d="M1270,-122.28C1270,-143.32 1270,-175 1270,-175 1270,-175 725.43,-175 725.43,-175"/>
<polygon fill="black" stroke="black" points="725.43,-171.5 715.43,-175 725.43,-178.5 725.43,-171.5"/>
</g>
<!-- ErrorService -->
<g id="node11" class="node">
<title>ErrorService</title>
<ellipse fill="#fdb462" stroke="black" cx="1125" cy="-104" rx="60.23" ry="18"/>
<text text-anchor="middle" x="1125" y="-99.8" font-family="Times,serif" font-size="14.00">ErrorService</text>
</g>
<!-- ErrorService&#45;&gt;SharedModule -->
<g id="edge10" class="edge">
<title>ErrorService&#45;&gt;SharedModule</title>
<path fill="none" stroke="black" d="M1125,-122.11C1125,-141.34 1125,-169 1125,-169 1125,-169 725.56,-169 725.56,-169"/>
<polygon fill="black" stroke="black" points="725.56,-165.5 715.56,-169 725.56,-172.5 725.56,-165.5"/>
</g>
<!-- IdentityService -->
<g id="node12" class="node">
<title>IdentityService</title>
<ellipse fill="#fdb462" stroke="black" cx="977" cy="-104" rx="70.06" ry="18"/>
<text text-anchor="middle" x="977" y="-99.8" font-family="Times,serif" font-size="14.00">IdentityService</text>
</g>
<!-- IdentityService&#45;&gt;SharedModule -->
<g id="edge11" class="edge">
<title>IdentityService&#45;&gt;SharedModule</title>
<path fill="none" stroke="black" d="M920.94,-114.82C920.94,-131.85 920.94,-163 920.94,-163 920.94,-163 725.46,-163 725.46,-163"/>
<polygon fill="black" stroke="black" points="725.46,-159.5 715.46,-163 725.46,-166.5 725.46,-159.5"/>
</g>
<!-- LoggerService -->
<g id="node13" class="node">
<title>LoggerService</title>
<ellipse fill="#fdb462" stroke="black" cx="821" cy="-104" rx="67.76" ry="18"/>
<text text-anchor="middle" x="821" y="-99.8" font-family="Times,serif" font-size="14.00">LoggerService</text>
</g>
<!-- LoggerService&#45;&gt;SharedModule -->
<g id="edge12" class="edge">
<title>LoggerService&#45;&gt;SharedModule</title>
<path fill="none" stroke="black" d="M775.29,-117.37C775.29,-133.07 775.29,-157 775.29,-157 775.29,-157 725.21,-157 725.21,-157"/>
<polygon fill="black" stroke="black" points="725.21,-153.5 715.21,-157 725.21,-160.5 725.21,-153.5"/>
</g>
<!-- StorageService -->
<g id="node14" class="node">
<title>StorageService</title>
<ellipse fill="#fdb462" stroke="black" cx="666" cy="-104" rx="69.48" ry="18"/>
<text text-anchor="middle" x="666" y="-99.8" font-family="Times,serif" font-size="14.00">StorageService</text>
</g>
<!-- StorageService&#45;&gt;SharedModule -->
<g id="edge13" class="edge">
<title>StorageService&#45;&gt;SharedModule</title>
<path fill="none" stroke="black" d="M666,-122.11C666,-122.11 666,-140.99 666,-140.99"/>
<polygon fill="black" stroke="black" points="662.5,-140.99 666,-150.99 669.5,-140.99 662.5,-140.99"/>
</g>
</g>
</svg>
