<svg id="Layer_1" enable-background="new 0 0 512 512" height="512" viewBox="0 0 512 512" width="512" xmlns="http://www.w3.org/2000/svg"><path d="m512 283.295c0 35.67-31.06 61.27-56.02 81.84-8.75 7.21-21.86 18.02-23.96 22.83.83 14.939 23.21 34.546 15.17 54.81-13.541 34.223-97.823 21.053-116.35-52.37-2.91 1-6.06 1.64-9.42 1.92-30.253 25.333-100.567 25.35-130.84 0-3.36-.28-6.51-.92-9.42-1.92-18.587 73.662-102.867 86.447-116.35 52.37-8.038-20.258 14.34-39.87 15.17-54.81-7.56-17.317-79.98-51.149-79.98-104.67 0-52.483 65.94-169.851 95.12-189.31 4.87-3.24 13.77-7.05 35.75-4.8 14.99-14.94 35.94-25.58 62.35-31.66 36.286-8.358 89.255-8.363 125.56 0 26.41 6.08 47.36 16.72 62.35 31.66 21.98-2.25 30.88 1.56 35.75 4.8 29.425 19.623 95.12 137.083 95.12 189.31z" fill="#c79a83"/><path d="m351.69 366.435c-3.151 15.672-15.198 24.97-31.22 25.96-21.648 1.26-48.656-12.104-64.47-26.53-31.079 28.35-87.51 41.415-95.69.57-6.683-33.431 6.045-88.764 16.7-120.74l28.28-75.67c5.81-15.55 20.87-26 37.47-26h26.48c16.6 0 31.66 10.45 37.47 26 25.975 69.503 28.318 75.753 28.47 76.21 1.03 3.1 25.24 76.53 16.51 120.2z" fill="#e0b7a3"/><path d="m288.41 340.235c-12.64 9.19-25.88 13.75-27.35 14.24-3.257 1.092-6.855 1.095-10.12 0-1.47-.49-14.71-5.05-27.35-14.24-19.82-14.41-28.02-33.17-23.11-52.82 7.03-28.12 41.01-28.12 55.52-28.12s48.49 0 55.52 28.12c5.359 21.437-5.177 39.786-23.11 52.82z" fill="#999"/><path d="m183.92 345.705c11.108 111.02-103.012 137.746-119.11 97.06-8.048-20.266 14.339-39.836 15.17-54.8-7.532-17.25-79.98-51.235-79.98-104.67 0-52.436 65.89-169.817 95.12-189.31 5.46-3.64 16-7.99 44.37-3.7 12.246 1.851 17.843 16.373 9.98 25.96-10.99 13.42-15.42 30.99-13.53 53.72 4.62 55.462 23.634 79.54 25.92 85.9 8.48 23.46 18.09 50.05 22.06 89.84z" fill="#a07765"/><path d="m512 283.295c0 35.66-31.06 61.27-56.02 81.84-8.75 7.21-21.86 18.02-23.96 22.83.83 14.944 23.21 34.552 15.17 54.8-5.002 12.643-19.318 17.98-33.26 17.98-16.49 0-35.6-6.88-50.74-18.99-54.178-43.315-36.576-120.805-13.05-185.89 2.294-6.38 21.301-30.442 25.92-85.9 1.89-22.73-2.54-40.3-13.53-53.72-7.856-9.578-2.279-24.107 9.98-25.96 28.37-4.29 38.91.06 44.37 3.7 29.425 19.623 95.12 137.083 95.12 189.31z" fill="#a07765"/><g fill="#818182"><circle cx="184" cy="163.297" r="16"/><circle cx="328" cy="163.297" r="16"/></g></svg>