<svg id="Layer_1" enable-background="new 0 0 512.392 512.392" height="512" viewBox="0 0 512.392 512.392" width="512" xmlns="http://www.w3.org/2000/svg"><path d="m431.831 88.275c-16.298 87.903-4.74 52.775-4.74 98.84 0 10.93-1.01 22.61-3.02 34.13-4.186 24.035 15.851 42.001-42.96 93.23-11.446 9.953-29.544-.371-26.12-15.58 3.58-15.92 5.32-32.44 5.32-50.51 0-35.97-15.36-61.46-45.64-75.76-8.244-3.883-11.599-13.906-7.28-22.02 5.08-9.49 23.19-42.98 43.09-75.52 36.17-59.18 50.58-70.48 60.77-73.88 7.4-2.46 14.82-1.12 20.36 3.71 12.97 11.29 9.44 33.72.22 83.36z" fill="#999"/><path d="m197.721 172.625c-30.28 14.3-45.64 39.79-45.64 75.76 0 18.07 1.74 34.59 5.32 50.51 3.387 15.043-14.483 25.699-26.12 15.58-58.797-51.217-38.781-69.234-42.96-93.23-4.11-23.5-4.02-47.7.24-64.74 2.68-10.71-3.5-43.96-8-68.23-9.22-49.64-12.75-72.07.22-83.36 5.744-4.988 13.217-6.091 20.36-3.71 10.19 3.4 24.6 14.7 60.77 73.88 19.89 32.53 38.01 66.03 43.09 75.52 4.312 8.04 1.002 18.119-7.28 22.02z" fill="#999"/><path d="m147.821 317.215c-5.478 2.259-11.918 1.279-16.54-2.74-58.797-51.217-38.781-69.234-42.96-93.23-4.11-23.5-4.02-47.7.24-64.74 2.68-10.71-3.5-43.96-8-68.23-8.989-48.399-13.838-74.523 2.59-85.14 33.06 14.5 67.18 83.39 52.93 133.25-11.49 40.22 14.16 134.09 11.74 180.83z" fill="#f2a661"/><path d="m364.571 317.215c5.478 2.259 11.918 1.279 16.54-2.74 58.797-51.217 38.781-69.234 42.96-93.23 4.11-23.5 4.02-47.7-.24-64.74-2.68-10.71 3.5-43.96 8-68.23 8.989-48.399 13.839-74.523-2.59-85.14-33.06 14.5-67.18 83.39-52.93 133.25 11.49 40.22-14.16 134.09-11.74 180.83z" fill="#f2a661"/><path d="m392.311 248.385c0 88.459-40 127.733-40 152 0 39.73-8.287 104-48 104-17.977 0-35.729-9.452-48.11-22.36-12.586 13.027-30.2 22.36-48.12 22.36-39.718 0-48-64.287-48-104 0-24.226-40-63.589-40-152 0-61.56 34.79-90.92 63.98-104.7 43.173-20.406 101.267-20.323 144.28 0 29.18 13.79 63.97 43.14 63.97 104.7z" fill="#999"/><path d="m392.311 248.385c0 89.594-40 127.224-40 152 0 39.095-8.032 102.828-46.97 103.98-18.237.435-36.578-9.238-49.15-22.34-11.532 12.105-28.571 21.518-45.32 22.28-41.823 2.855-50.79-62.195-50.79-103.92 0-24.624-40-62.481-40-152 0-123.498 146.849-142.296 219.46-98.72 34.52 20.71 52.77 54.85 52.77 98.72z" fill="#999"/><path d="m372.811 346.945c-9.938 23.907-20.73 40.95-20.73 53.44 0 38.934-7.97 102.565-46.74 103.98-18.237.435-36.578-9.238-49.15-22.34-11.532 12.105-28.571 21.518-45.32 22.28-41.823 2.855-50.79-62.195-50.79-103.92 0-12.491-10.78-29.506-20.73-53.44 13.55 16.51 31.55 33.83 44.73 29.44 24-8 16-40 32-40s-24 64 40 64 24-64 40-64 8 32 32 40c13.18 4.39 31.18-12.93 44.73-29.44z" fill="#f2a661"/><path d="m304.081 504.385c-1.36 0-2.73-.05-4.1-.16-25.878 10.716-61.087 11.061-87.8 0 16.589-1.328 32.713-10.341 44.01-22.2 12.564 13.094 30.266 22.276 47.89 22.36z" fill="#c79a83"/><path d="m304.081 400.385c0 15.477-18.938 56-48 56-28.678 0-48-40.128-48-56 0-42.6 96-42.733 96 0z" fill="#818182"/><circle cx="192.081" cy="272.385" fill="#a07765" r="16"/><circle cx="320.31" cy="272.385" fill="#a07765" r="16"/><g fill="#f2a661"><circle cx="212.081" cy="252.385" r="12"/><circle cx="300.081" cy="252.385" r="12"/></g></svg>