<svg id="Layer_1" enable-background="new 0 0 512 512" height="512" viewBox="0 0 512 512" width="512" xmlns="http://www.w3.org/2000/svg"><path d="m465.96 250.959c-12.242 14.993-40.33 47.692-35.1 61.31 4.202 10.515-3.565 21.94-14.86 21.94-20.26 0-27.68-25.59-30.48-35.27-2.69 3.87-5.54 6.48-8.41 8.43-4.427 5.625-6.305 30.868-7.02 38.78-2.615 28.973-5.552 64.901-28.35 82.91-16.867 28.889-35.42 65.15-85.74 65.15-48.48 0-68.36-34.78-82.88-60.18-.98-1.71-1.92-3.36-2.86-4.97-15.431-12.19-21.545-32.363-24.77-51.85-4.106-24.874-4.594-62.209-10.6-69.84-2.87-1.95-5.72-4.56-8.41-8.43-2.8 9.68-10.22 35.27-30.48 35.27-11.281 0-19.068-11.411-14.86-21.94 4.93-12.32-17.27-39.48-35.1-61.31-22.64-27.7-46.04-56.34-46.04-84.75 0-47.077 80.63-107.642 119.12-133.31 21.78-14.51 40.73-18.6 56.34-12.13 6.23 2.58 10.92 6.43 14.43 10.53 20.27-9.09 46.02-9.09 66.11-9.09s45.84 0 66.11 9.09c3.51-4.1 8.2-7.95 14.43-10.53 18.752-7.769 39.528.883 56.34 12.13 38.64 25.767 119.12 86.288 119.12 133.31 0 28.41-23.4 57.05-46.04 84.75z" fill="#818182"/><path d="m377.11 307.369c-4.427 5.625-6.305 30.868-7.02 38.78-2.628 29.114-5.586 64.921-28.34 82.89-17.05 29.383-35.748 65.17-85.75 65.17-48.48 0-68.36-34.78-82.88-60.18-.99-1.72-1.93-3.37-2.87-4.99-22.749-17.965-25.71-53.753-28.34-82.89-.703-7.775-2.584-33.143-7.02-38.78-14.25-9.68-28.04-35.57-23.09-151.86.254-6.514.155-7.565.96-10.08 1.664-26.38 5.939-71.279 30.32-81.37 4.74-1.96 11.07-3.08 18.48-.75 8.75-17.489 8.678-17.959 11.13-20.41 20.68-20.69 56.88-20.69 83.31-20.69s62.63 0 83.31 20.69c2.447 2.447 2.369 2.898 11.13 20.41 7.41-2.33 13.74-1.21 18.48.75 24.304 10.06 28.635 54.684 30.32 81.28.817 2.552.703 3.578.96 10.17 4.95 116.29-8.84 142.18-23.09 151.86z" fill="#aaa"/><path d="m465.96 250.959c-17.45 21.37-39.09 47.84-35.38 60.5-24.38-32.09-6.53-87.81 1.42-151.45 6.62-52.97-30.59-111.41-43.62-129.99 1.49.91 2.99 1.87 4.5 2.88 38.64 25.767 119.12 86.288 119.12 133.31 0 28.41-23.4 57.05-46.04 84.75z" fill="#999"/><path d="m46.04 250.959c17.45 21.37 39.09 47.84 35.38 60.5 24.38-32.09 6.53-87.81-1.42-151.45-6.62-52.97 30.59-111.41 43.62-129.99-1.49.91-2.99 1.87-4.5 2.88-38.64 25.767-119.12 86.288-119.12 133.31 0 28.41 23.4 57.05 46.04 84.75z" fill="#999"/><path d="m344 272.009c8-40-16-40-24-56s48-32 32-64-48.68-39.32-72-16c-8 8 0 40 0 40s-8-8-24-8-24 8-24 8 8-32 0-40c-23.32-23.32-56-16-72 16s40 48 32 64-32 16-24 56c5.43 27.13-11.23 76.34-22.51 105.2 3.221 19.464 9.33 39.653 24.77 51.85 16.867 28.889 35.42 65.15 85.74 65.15 48.48 0 68.36-34.78 82.88-60.18.98-1.71 1.92-3.36 2.86-4.97 15.431-12.19 21.545-32.363 24.77-51.85-11.28-28.86-27.94-78.07-22.51-105.2z" fill="#999"/><path d="m300.14 408.658c-8.04 8.33-21.53 13.55-44.14 13.55s-36.1-5.22-44.14-13.55c17.05-29.78 26.05-96.48 44.14-90.45 18.09-6.03 27.09 60.671 44.14 90.45z" fill="#ffa4b8"/><g fill="#818182"><path d="m312 254.209c0 31.19-33.66 44.73-53.55 47.82-10.057 1.49-58.45-12.955-58.45-47.82 0-26.771 15.566-30.187 20.69-35.31 16.772-16.772 53.824-16.796 70.62 0 5.104 5.103 20.69 8.554 20.69 35.31z"/><circle cx="184" cy="158.213" r="16"/><circle cx="328" cy="158.213" r="16"/></g></svg>