<svg id="Layer_1" enable-background="new 0 0 512.09 512.09" height="512" viewBox="0 0 512.09 512.09" width="512" xmlns="http://www.w3.org/2000/svg"><path d="m477.303 145.59c-5.91 14.16-13.26 31.78-13.26 38.41 0 12.45-7.88 18.39-14.63 19.69-14.42 2.837-25.137-12.399-35.06-26.69-2.3 11.53-5.95 21.2-10.92 26.23-5.49 6.31-17.77 39.04-12.21 55.71 10.41 31.23 15.89 61.65 16.71 92.8 18.781 23.277 22.259 55.628 19.48 83.99-4.595 46.73-27.147 71.735-38.35 75.47-10.385 3.398-21.02-4.331-21.02-15.2 0-3.39-.2-6.91-.58-10.51-5.318 9.537-12.409 18.51-23.42 18.51-6.18 0-11.53-3.51-14.19-8.63-43.161 23.049-107.244 21.526-147.62 0-2.712 5.219-8.124 8.63-14.19 8.63-8.92 0-16.26-5.67-23.42-18.51-.38 3.6-.58 7.12-.58 10.51 0 13.272-15.195 20.622-25.6 12.8-37.912-28.434-47.822-115.277-14.29-157.06.83-31.15 6.31-61.57 16.71-92.8 5.56-16.67-6.72-49.4-12.21-55.71-4.97-5.03-8.62-14.7-10.91-26.23-8.723 12.509-18.904 27.04-31.51 27.04-9.533 0-18.19-7.256-18.19-20.04 0-20.301-42.237-83.812-29.95-116.2 7.928-21.959 38.644-29.892 59.56-35.88 24.286-6.971 28.717-8.572 47.55-18.93 11.571-6.346 23.47-12.99 36.47-12.99 24.451 0 42.386 16.413 51.72 40h85.3c9.271-23.429 27.162-40 51.72-40 20.77 0 37.976 16.558 61.38 24.93 30.594 10.93 68.366 14.854 80.93 39.91 10.675 21.912-5.31 56.517-15.42 80.75z" fill="#999"/><path d="m352.943 479.12c-16.31 15-46.36 32.88-96.9 32.88s-80.59-17.88-96.9-32.88c-4.03-3.71-5.88-9.21-4.92-14.6 6.295-35.166 26.238-72.52 61.82-72.52 18.02 0 23.56-5.38 24-8.31.22-8.64 7.3-15.59 16-15.59s15.78 6.95 16 15.59c.44 2.93 5.98 8.31 24 8.31 35.582 0 55.525 37.353 61.82 72.52.96 5.39-.89 10.89-4.92 14.6z" fill="#f2f2f2"/><path d="m393.643 508.8c-10.431 7.841-25.6.435-25.6-12.8 0-3.39-.2-6.91-.58-10.51-7.16 12.84-14.5 18.51-23.42 18.51-8.84 0-16-7.16-16-16 0-28.99-14.27-64-32-64-16.85 0-30.27-3.58-40-10.65-9.73 7.07-23.15 10.65-40 10.65-17.73 0-32 35.01-32 64 0 8.84-7.16 16-16 16-8.92 0-16.26-5.67-23.42-18.51-.38 3.6-.58 7.12-.58 10.51 0 13.175-15.08 20.695-25.6 12.8-38.982-29.236-44.294-112.804-19.71-149.68 33.42-50.13 94.98-48.23 124.57-47.32 10.004.322 55.483.322 65.48 0 29.58-.91 91.15-2.81 124.57 47.32 24.474 36.711 19.442 120.332-19.71 149.68z" fill="#ece2e2"/><path d="m304.043 344c0 74.837-96 74.873-96 0 0-19.34 12.61-40 48-40s48 20.66 48 40z" fill="#818182"/><path d="m304.043 128c-32 0-48 8-48 8s-16-8-48-8c-17.889 0-56 24-56 56s16 48 32 48c40 0 34.274-19.262 56-24 10.418-2.272 0 32 16 32s5.582-34.272 16-32c21.726 4.738 16 24 56 24 16 0 32-16 32-48s-38.111-56-56-56z" fill="#818182"/><path d="m295.924 149.925c7.563-4.238 19.646-7.897 28.674-6.857 11.557 1.329 16.856 10.107 20.062 21.327 3.716 13.008 18.048 11.608 15.377 11.608 10.648 0 18.306-10.2 15.392-20.399-7.298-25.544-21.975-36.258-33.002-40.749-20.016-8.149-45.215-2.525-62.32 7.252-7.672 4.384-10.367 14.175-5.983 21.847 4.383 7.673 14.129 10.355 21.8 5.971z" fill="#ece2e2"/><path d="m328.044 184c-8.809 0-16 7.136-16 16 0 8.809 7.136 16 16 16 8.837 0 16-7.164 16-16s-7.163-16-16-16z" fill="#a07765"/><path d="m171.932 114.004c-18.563 6.552-29.796 22.432-35.273 41.601-2.918 10.213 4.763 20.403 15.392 20.399 6.919-.002 13.356-4.536 15.377-11.608 4.536-15.877 11.831-18.884 14.228-19.872 9.852-4.061 25.354.273 34.508 5.402 7.671 4.383 17.417 1.702 21.801-5.97s1.689-17.463-5.983-21.847c-3.321-1.899-32.525-17.824-60.05-8.105z" fill="#ece2e2"/><path d="m184.043 184c-8.809 0-16 7.136-16 16 0 8.809 7.136 16 16 16 8.837 0 16-7.164 16-16s-7.163-16-16-16z" fill="#a07765"/><g fill="#818182"><path d="m208.823 70.31-32 16c-6.3 3.15-13.55 2.2-18.39-2.91-1.58-1.43-4.25-2.72-5.17-2.52-1 .22-4.75 3.1-8.74 13.06-8.725 21.829-36.405 70.26-53.82 92.71-7.45 9.594-16.056 19.395-28.03 17.04-6.75-1.3-14.63-7.24-14.63-19.69 0-6.63-7.35-24.25-13.26-38.41-13.05-31.29-25.37-60.84-15.42-80.75 9.47-18.94 33.18-25.73 58.29-32.92 24.286-6.971 28.717-8.572 47.55-18.93 12.18-6.68 23.68-12.99 36.47-12.99 18.74 0 34.98 9.86 45.72 27.77 7.22 12.03 9.71 23.79 9.97 25.09 1.41 7.08-2.08 14.22-8.54 17.45z"/><path d="m477.303 145.59c-5.91 14.16-13.26 31.78-13.26 38.41 0 12.45-7.88 18.39-14.63 19.69-11.957 2.352-20.559-7.408-28.03-17.04-17.412-22.478-45.067-70.813-53.82-92.71-3.99-9.96-7.74-12.84-8.73-13.06-.94-.21-3.6 1.09-5.18 2.52-4.84 5.11-12.09 6.06-18.39 2.91l-32-16c-6.46-3.23-9.95-10.37-8.54-17.45.26-1.3 2.75-13.06 9.97-25.09 10.75-17.91 26.98-27.77 45.72-27.77 12.79 0 24.29 6.31 36.47 12.99 19.104 10.507 23.599 12.056 47.55 18.93 25.11 7.19 48.82 13.98 58.29 32.92 9.96 19.91-2.37 49.46-15.42 80.75z"/></g></svg>