<svg id="Layer_1" enable-background="new 0 0 512.018 512.018" height="512" viewBox="0 0 512.018 512.018" width="512" xmlns="http://www.w3.org/2000/svg"><path d="m487.129 285.318c-1.44-.96-2.89-1.89-4.33-2.79 14.27 47.355 8.068 105.194-3.22 153.14-3.35 14.268-22.595 16.857-29.62 4-24.61 44.601-67.972 65.378-119.64 64.79-9.59 5.76-18.7 7.55-26.31 7.55-6.071 0-11.878-3.465-14.58-9.42-22.833 12.338-43.288 12.726-66.84 0-2.7 5.952-8.505 9.42-14.58 9.42-7.61 0-16.72-1.79-26.31-7.55-56.75.646-97.259-24.227-119.64-64.79-7.018 12.866-26.272 10.264-29.62-4-11.29-47.956-17.488-105.79-3.22-153.14-1.44.9-2.89 1.83-4.33 2.79-11.422 7.622-26.556-1.795-24.74-15.43 10.919-81.866 60.227-121.685 116.56-125.7 30.692-18.979 75.729-24.273 111.8-24.79-10.12-7.61-24.53-13.59-32.92-16.01-8.48-2.46-13.38-11.32-10.94-19.8 2.43-8.48 11.27-13.39 19.76-10.96 2.94.84 15.59 4.68 29.17 12.1-10.11-38.16-28.63-57.15-28.88-57.41-6.25-6.24-6.25-16.38 0-22.62 6.25-6.25 16.37-6.25 22.62 0 1.26 1.25 21.99 22.46 34.77 63.53 14.79-21.13 31.79-32.7 33.04-33.53 7.36-4.9 17.29-2.92 22.19 4.43 4.89 7.34 2.93 17.25-4.39 22.16-.58.4-31.38 21.82-39.15 58.08 38.766-.361 88.672 4.501 121.53 24.82 55.999 3.992 105.567 43.282 116.56 125.7 1.814 13.612-13.298 23.065-24.74 15.43z" fill="#ece2e2"/><path d="m186.839 504.318c-53.591 2.019-99.083-18.196-124.79-64.65-6.998 12.87-26.262 10.264-29.61-4-11.29-47.956-17.488-105.79-3.22-153.14-1.44.9-2.89 1.83-4.33 2.79-11.422 7.622-26.556-1.795-24.74-15.43 6.41-48.05 25.48-83.35 56.69-104.91 25.16-17.38 51.21-20.64 64.5-21.03 6.69-.2 12.75 3.77 15.27 9.88 14.353 2.404 31.73 8.154 31.4 22.56-.11 4.37-2 8.52-5.24 11.46-.18.17-20.55 19.01-34.95 47.3-16.64 32.68-18.6 63.88-5.87 92.86h2.86c12.681 0 20.293 14.078 13.44 24.68-9.139 14.209-16.771 31.914-12.69 48.39l9.57-6.38c9.354-6.229 22.054-1.135 24.5 9.84 3.31 14.76 16.25 56.32 36.05 70.91 12.141 8.944 6.233 28.247-8.84 28.87z" fill="#f2a661"/><path d="m487.129 285.318c-1.44-.96-2.89-1.89-4.33-2.79 14.27 47.355 8.068 105.194-3.22 153.14-3.35 14.27-22.617 16.862-29.61 4-25.511 46.1-70.746 66.686-124.79 64.65-15.062-.621-20.987-19.921-8.84-28.87 19.8-14.59 32.74-56.15 36.05-70.93 2.472-10.951 15.163-16.052 24.5-9.82l9.63 6.42c4.152-16.307-3.604-34.21-12.75-48.43-6.857-10.609.765-24.68 13.44-24.68h2.84c31.84-72.9-40.04-139.47-40.8-140.16-7.966-7.228-12.186-27.598 26.16-34.02 2.52-6.11 8.62-10.09 15.27-9.88 13.29.39 39.34 3.65 64.5 21.03 31.21 21.56 50.28 56.86 56.69 104.91 1.814 13.612-13.298 23.065-24.74 15.43z" fill="#f2a661"/><path d="m414.059 351.668c-2.81 5.14-8.19 8.34-14.05 8.34h-12.8c-5.42 0-10.48-2.75-13.43-7.3-34.24-52.84-89.74-41.21-90.3-41.08-2.44.535.695.38-51.47.38-4.381 0-59.015-12.93-93.77 40.7-2.95 4.55-8.01 7.3-13.43 7.3h-12.8c-5.85 0-11.24-3.2-14.05-8.34-30.979-56.813-14.884-117.505 24.86-167.28-3.13-.24-6.72-.38-10.81-.38-14.205 0-21.391-17.251-11.31-27.31 34.081-34.081 108.305-39.829 155.31-36.73 46.477-3.064 120.959 2.379 155.31 36.73 10.052 10.03 2.931 27.31-11.31 27.31-4.09 0-7.68.14-10.81.38 39.843 49.831 55.782 110.572 24.86 167.28z" fill="#ece2e2"/><path d="m107.779 256.008c4.65-6.51 36.919-48 80-48 40 0 56 56 8 80-86.163 43.081-104 112-104 112s-24-88 16-144z" fill="#e0b7a3"/><path d="m404.24 256.008c-4.65-6.51-36.919-48-80-48-40 0-56 56-8 80 86.163 43.081 104 112 104 112s24-88-16-144z" fill="#e0b7a3"/><circle cx="180.009" cy="252.008" fill="#999" r="20"/><circle cx="332.009" cy="252.008" fill="#999" r="20"/><path d="m330.159 465.998c-.67 2.66-2 5.11-3.88 7.1-13.57 14.56-40.71 38.91-70.27 38.91-29.54 0-56.67-24.33-70.25-38.88-1.93-2.05-3.33-4.6-3.98-7.44-7.23-29.27-5.95-53.1 3.92-72.83 1.16-2.34 2.89-4.35 5.01-5.87 19.88-14.24 49.3-42.84 49.3-58.98 0-8.84 7.16-16 16-16s16 7.16 16 16c0 16.21 29.42 44.78 49.3 58.98 2.12 1.52 3.85 3.53 5.01 5.87 9.9 19.81 11.16 43.73 3.84 73.14z" fill="#ece2e2"/><path d="m403.109 435.538c-5.41 5.21-13.72 5.95-19.98 1.78l-5.75-3.84c-12.142 36.203-35.225 78.53-73.37 78.53-5.14 0-9.97-2.47-12.98-6.64-5.46-7.564-2.235-14.361-.09-20.65 7.803-22.833 17.292-51.74 8.2-74.34-15.011-11.434-31.811-26.866-43.13-42.18-11.312 15.305-28.106 30.736-43.13 42.18-9.103 22.608.477 51.776 8.19 74.32 2.185 6.38 5.435 13.029-.08 20.67-3.01 4.17-7.84 6.64-12.98 6.64-38.109 0-61.202-42.249-73.37-78.53l-5.75 3.84c-6.26 4.17-14.56 3.43-19.98-1.78-1.42-1.38-34.56-34.29-2.89-91.3 20.031-36.153 50.349-56.923 84.64-63.49 20.7-3.95 37.21-1.75 42.89-.74h44.92c41.2-7.326 96.304 7.837 127.54 64.25 31.66 56.99-1.48 89.9-2.9 91.28z" fill="#f2f2f2"/><path d="m216.009 308.008c0-10.99 9.067-18.81 18.866-25.622 6.577-4.572 13.073-8.203 13.346-8.355 4.841-2.697 10.734-2.697 15.576 0 .273.152 6.77 3.783 13.346 8.355 9.799 6.813 18.866 14.632 18.866 25.622 0 37.271-80 37.395-80 0zm49.739 6.226h.011z" fill="#a07765"/></svg>