<svg id="Layer_1" enable-background="new 0 0 512.047 512.047" height="512" viewBox="0 0 512.047 512.047" width="512" xmlns="http://www.w3.org/2000/svg"><path d="m471.604 239.99c4.159 31.799 6.654 76.711-9.86 104.24-6.472 10.808-22.393 10.204-28.03-1.07-.47-.95-.93-1.83-1.38-2.66-15.134 42.946-47.931 117.2-89.15 137.81-10.161 5.081-22.195-1.759-23.11-13.03-40.778 62.302-87.251 62.411-128.1 0-.916 11.28-12.955 18.107-23.11 13.03-41.227-20.613-74.065-95.002-89.15-137.81-.45.83-.91 1.71-1.38 2.66-5.623 11.246-21.515 11.914-28.03 1.07-16.514-27.527-14.019-72.444-9.86-104.24-9.563.272-17.298-7.96-16.34-17.58.86-8.64 9.19-85.44 35.12-120.01 17.15-22.87 37.98-35.03 51.36-40.98-.45-4-.92-8.62-1.3-13.37-2.21-27.51.15-35.93 5.27-41.83 3.43-3.95 8.34-6.22 13.47-6.22 18.57 0 32.47 30.576 66.06 17.14 30.39-12.16 50.55-8.59 61.94-3.66 11.38-4.94 31.54-8.5 61.94 3.66 33.729 13.492 47.395-17.14 66.06-17.14 5.13 0 10.04 2.27 13.47 6.22 5.12 5.9 7.48 14.32 5.27 41.83-.38 4.75-.85 9.37-1.3 13.37 13.38 5.95 34.21 18.11 51.36 40.98 25.93 34.57 34.26 111.37 35.12 120.01.965 9.694-6.887 17.886-16.34 17.58z" fill="#ffaa64"/><path d="m384.024 184s-24-64-56-80-72 24-72 24-40-40-72-24-56 80-56 80l40 8s-8 32 0 56 8-32 24-32 24 80 64 72c40 8 48-72 64-72s16 56 24 32 0-56 0-56z" fill="#f2a661"/><ellipse cx="256.024" cy="224" fill="#ffbd7b" rx="64" ry="48"/><path d="m396.824 314.67c-5.87-11.74-11.73-17.6-17.6-17.6 0 5.86-29.33 93.86-64.53 111.46 0-17.6-5.87-35.2-5.87-35.2s-23.47 58.67-52.8 58.67-52.8-58.67-52.8-58.67-5.87 17.6-5.87 35.2c-35.2-17.6-64.53-105.6-64.53-111.46-5.87 0-11.73 5.86-17.6 17.6-17.42-29.03-5.43-121.75-2.31-121.75 0 5.87 34.07 93.87 74.96 111.47 0-17.6 6.82-35.2 6.82-35.2s27.26 58.66 61.33 58.66 61.33-58.66 61.33-58.66 6.82 17.6 6.82 35.2c40.89-17.6 74.96-105.6 74.96-111.47 3.12 0 15.11 92.72-2.31 121.75z" fill="#ffbd7b"/><g fill="#999"><path d="m306.964 192.821c-8.383 2.794-12.914 11.855-10.119 20.238-.565-1.761 2.041 5.689-1.117 9.073-3.852 4.118-17.543 6.808-23.894-.601-.524-3.379-2.134-6.566-4.749-9.074 7.686-5.02 12.938-14.281 12.938-20.457 0-8.836-10.745-16-24-16s-24 7.164-24 16c0 6.176 5.252 15.437 12.938 20.457-2.614 2.508-4.225 5.694-4.749 9.074-6.408 7.476-20.144 4.611-23.894.601-3.128-3.351-.58-10.744-1.117-9.073 2.795-8.383-1.736-17.444-10.119-20.238-8.379-2.796-17.444 1.736-20.238 10.119-5.377 16.135-1.257 36.448 15.454 47.198 3.527 23.7 19.482 45.862 55.725 45.862s52.198-22.162 55.725-45.862c16.767-10.786 20.787-31.193 15.454-47.198-2.794-8.383-11.859-12.915-20.238-10.119zm-70.203 64.727c7.173-1.126 13.714-3.793 19.263-7.579 5.549 3.786 12.09 6.453 19.263 7.579-4.735 5.415-12.049 6.452-19.263 6.452s-14.528-1.038-19.263-6.452z"/><circle cx="320.024" cy="152" r="16"/><circle cx="192.024" cy="152" r="16"/></g></svg>