<svg id="Layer_1" enable-background="new 0 0 512 512" height="512" viewBox="0 0 512 512" width="512" xmlns="http://www.w3.org/2000/svg"><path d="m475.31 268.053c-4.73 4.73-4.06 19.99-3.62 30.09.69 15.81 1.4 32.15-12.6 39.75-14.308 7.763-30.906-2.505-44.39-12.13-7.15-5.11-13.09-10.28-18.02-15.49-2.63 27.53-4.68 57.14-4.68 82.47 0 29.16-5.9 49.97-18.04 63.63-16.713 18.802-44.654 20.347-61.79 10.27-33.161 8.071-78.455 8.247-112.34 0-17.04 10.02-45.006 8.612-61.79-10.27-12.14-13.66-18.04-34.47-18.04-63.63 0-25.33-2.05-54.94-4.68-82.47-4.93 5.21-10.87 10.38-18.02 15.49-13.425 9.582-30.049 19.889-44.39 12.13-14-7.6-13.29-23.94-12.6-39.75.44-10.1 1.11-25.36-3.62-30.09-27.05-27.049-36.69-77.299-36.69-115.31 0-16.95 17.76-38.21 52.8-63.18 34.514-24.604 110.253-67.882 144.14-42.79 33.747-7.891 84.217-7.926 118.13 0 33.875-25.109 109.681 18.233 144.13 42.79 35.04 24.97 52.8 46.23 52.8 63.18 0 38.011-9.64 88.261-36.69 115.31z" fill="#f2a661"/><path d="m319.96 464.564c-37.081 10.943-90.778 10.961-127.92 0-11.856-3.514-15.415-18.575-6.42-27.01 15.5-14.586 13.039-76.81 70.38-76.81 57.388 0 54.848 62.194 70.38 76.81 8.985 8.426 5.448 23.492-6.42 27.01z" fill="#ffebd2"/><path d="m416 176.743c0 13.16-1.61 25.05-3.02 33.93-.653 4.135-2.284 6.06-5.53 10.94-2.37 16.02-15.45 107.23-15.45 171.13 0 29.16-5.9 49.97-18.04 63.63-9.52 10.71-22.65 16.37-37.96 16.37-15.5 0-27.94-6.05-36.99-17.97-6.86-9.04-10.65-19.93-14.32-30.46-7.97-22.91-12.51-31.57-28.69-31.57s-20.72 8.66-28.69 31.57c-3.67 10.53-7.46 21.42-14.32 30.46-9.05 11.92-21.49 17.97-36.99 17.97-15.31 0-28.44-5.66-37.96-16.37-12.14-13.66-18.04-34.47-18.04-63.63 0-49.967-8.296-123.262-15.62-172.25-4.396-8.793-5.451-10.301-5.96-13.72-1.65-11.27-2.42-20.81-2.42-30.03 0-54.97 38.83-83.5 52.35-91.77 2.654-2.66-10.369 10.369 32.03-32.03 2.89-2.9 6.76-4.55 10.79-4.68 36.113-10.26 96.646-9.384 129.66 0 4.04.13 7.9 1.78 10.79 4.68l31.69 31.69c3.415 3.137 52.69 29.912 52.69 92.11z" fill="#ffaa64"/><path d="m392 392.743c0 29.16-5.9 49.97-18.04 63.63-9.52 10.71-22.65 16.37-37.96 16.37-15.5 0-27.94-6.05-36.99-17.97-6.86-9.04-10.65-19.93-14.32-30.46-7.97-22.91-12.51-31.57-28.69-31.57s-20.72 8.66-28.69 31.57c-3.67 10.53-7.46 21.42-14.32 30.46-9.05 11.92-21.49 17.97-36.99 17.97-15.31 0-28.44-5.66-37.96-16.37-12.14-13.66-18.04-34.47-18.04-63.63 0-87.744 62.127-104.024 103.06-128.25 19.622-11.387 19.803-196.897 17.7-223.29 11.502-.601 18.977-.601 30.48 0-2.305 28.925-1.541 212.465 17.7 223.29 40.127 23.75 103.06 40.161 103.06 128.25z" fill="#fff3e4"/><path d="m304 304.743c0 16.43-20.27 48-48 48s-48-31.57-48-48c0-42.662 96-42.67 96 0z" fill="#a07765"/><g fill="#999"><circle cx="180" cy="204.74" r="20"/><circle cx="332" cy="204.74" r="20"/></g></svg>