<svg id="Layer_1" enable-background="new 0 0 512 512" height="512" viewBox="0 0 512 512" width="512" xmlns="http://www.w3.org/2000/svg"><path d="m512 92.776c0 51.508-5.77 148.294-46 180.49-26.11 20.88-46.59 29.479-59.38 33.03-4.24 33.37-17.44 59.92-27.31 69.79-6.22 6.22-20.94 28.16-28.13 49.74-8.59 25.78-20.55 50.95-63.18 50.95-14.02 0-24.48-4.56-32-11.26-7.52 6.7-17.98 11.26-32 11.26-42.63 0-54.59-25.17-63.18-50.95-6.55-19.645-20.858-42.466-28.13-49.74-9.87-9.87-23.07-36.42-27.31-69.79-12.79-3.55-33.27-12.15-59.38-33.03-40.231-32.196-46-128.982-46-180.49 0-21.16 10.39-41.02 20.69-51.32 39.186-39.187 130.506 86.98 170.31 114.52 28.26-9.442 100.767-9.669 130 0 39.728-27.488 131.136-153.694 170.31-114.52 10.3 10.3 20.69 30.16 20.69 51.32z" fill="#c79a83"/><g fill="#ffdfba"><path d="m154.45 277.231c7.389-6.754 42.234-23.811 53.55 2.045 14.779 33.77-53.55 58.742-60.939 38.48-7.39-20.262 0-33.771 7.389-40.525z"/><path d="m32 63.276c6.644-16.609 120 96 104 120s-1.352 80-48 80c-48 0-88-120-56-200z"/><path d="m357.55 278.481c-7.389-6.754-42.234-23.811-53.55 2.045-14.779 33.77 53.55 58.742 60.939 38.48 7.39-20.262 0-33.771-7.389-40.525z"/><path d="m280 328.526c-8-40 16-40 32-104 10.209-40.81-16.677-66.065-56-74.48v-1.25c-9.44 2.02-42.52 10.67-54.14 37.23-.101 0-7.6 14.306-1.86 37.25 16 64 40 64 32 104-7.633 38.152-73.467 32.641-72.61 94.5 9.18 24.788 17.425 55 64.61 55 14.02 0 24.48-4.56 32-11.26v1.25c7.52 6.7 17.98 11.26 32 11.26 42.63 0 54.59-25.17 63.18-50.95.45-1.35.93-2.7 1.43-4.05.857-61.864-64.976-56.345-72.61-94.5z"/></g><path d="m304 396.776c0 16.43-20.27 48-48 48s-48-31.57-48-48c0-18.143 21.818-40 48-40 26.181 0 48 21.847 48 40z" fill="#818182"/><path d="m480 64.526c-6.644-16.609-120 96-104 120s1.352 80 48 80c48 0 88-120 56-200z" fill="#ffdfba"/><circle cx="176" cy="316.771" fill="#999" r="24"/><circle cx="336" cy="316.771" fill="#999" r="24"/></svg>