<svg id="Layer_1" enable-background="new 0 0 512.117 512.117" height="512" viewBox="0 0 512.117 512.117" width="512" xmlns="http://www.w3.org/2000/svg"><path d="m463.337 339.129c4.4 13.35-2.1 21.14-5.1 23.87-18.052 16.411-57.97-8.071-72.82-27.13-5.49 8.33-12.7 25.11-17.46 58.45-4.207 29.878-6.61 54.546-24.02 71.59-16.07 15.73-41.52 22.15-87.82 22.15s-71.75-6.42-87.82-22.15c-17.353-16.989-19.76-41.333-24.02-71.59-4.79-33.55-12.1-50.3-17.44-58.48-14.79 19.012-54.751 43.605-72.84 27.16-3-2.73-9.5-10.52-5.1-23.87.57-4.46-7.31-19.05-13.07-29.72-20.374-37.761-35.71-71.903-35.71-117.35 0-107.682 82.774-107.454 111.48-125.54 52.34-32.94 84.76-42.46 144.52-42.46 59.77 0 92.18 9.52 144.52 42.46 28.728 18.091 111.48 17.874 111.48 125.54 0 77.799-50.647 132.456-48.78 147.07z" fill="#a2d0ff"/><path d="m463.337 339.129c4.4 13.35-2.1 21.14-5.1 23.87-18.052 16.411-57.97-8.071-72.82-27.13-5.49 8.33-12.7 25.11-17.46 58.45-4.207 29.878-6.61 54.546-24.02 71.59-16.07 15.73-41.52 22.15-87.82 22.15s-71.75-6.42-87.82-22.15c-17.353-16.989-19.76-41.333-24.02-71.59-4.79-33.55-12.1-50.3-17.44-58.48-14.79 19.012-54.751 43.605-72.84 27.16-3-2.73-9.5-10.52-5.1-23.87.57-4.46-7.31-19.05-13.07-29.72-20.374-37.761-35.71-71.903-35.71-117.35 0-107.682 82.774-107.454 111.48-125.54 52.34-32.94 84.76-42.46 144.52-42.46 59.77 0 92.18 9.52 144.52 42.46 28.728 18.091 111.48 17.874 111.48 125.54 0 77.799-50.647 132.456-48.78 147.07z" fill="#ffe773"/><path d="m512.117 192.059c0 8.72-.6 17.06-1.67 25.04-11.8-82.763-83.703-84.139-109.81-100.58-52.34-32.94-84.75-42.46-144.52-42.46-59.76 0-92.18 9.52-144.52 42.46-26.097 16.442-97.971 17.787-109.81 100.56-5.178-38.574-.058-81.816 28.07-109.34 26.668-26.092 63.682-29.842 81.74-41.22 52.34-32.94 84.76-42.46 144.52-42.46 59.77 0 92.18 9.52 144.52 42.46 28.728 18.091 111.48 17.874 111.48 125.54z" fill="#ffec8f"/><path d="m510.417 217.289c-18.49 38.26-53 81.87-110.3 62.77-96-32-32 112-144 112s-48-144-144-112c-57.3 19.1-91.81-24.51-110.3-62.77 8.348 62.036 48.66 109.48 47.08 121.84-5.414 16.426 4.981 29.43 20.49 29.43 18.754 0 45.769-17.704 57.45-32.72 10.828 16.586 15.62 45.042 18.29 64.52 3.91 27.77 6.99 49.71 23.17 65.55 16.07 15.73 41.52 22.15 87.82 22.15s71.75-6.42 87.82-22.15c16.18-15.84 19.26-37.78 23.17-65.55 2.673-19.501 7.461-47.932 18.29-64.52 11.689 15.026 38.71 32.72 57.45 32.72 15.502 0 25.907-12.996 20.49-29.43-1.576-12.334 38.728-59.773 47.08-121.84z" fill="#efd66c"/><path d="m365.367 399.219c-8.683 17.385-33.099 48.84-54.31 48.84-12.82 0-38.01 0-55.47-13.01-17.46 13.01-42.65 13.01-55.47 13.01-21.119 0-45.653-31.508-54.31-48.84-4.36-8.73-5.84-22.48 12.72-63.73 2.843-6.317 17.218-36.603 21.5-41.93 39.043-48.799 113.151-48.275 151.61.61 3.478 4.481 17.001 32.41 21.01 41.32 18.56 41.25 17.08 55 12.72 63.73z" fill="#ffec8f"/><g fill="#999"><path d="m304.287 368.069c-10.5 15.51-30.95 31.99-48.17 31.99-25.495 0-65.651-38.963-54.86-65.94 10.249-25.469 15.267-38.06 54.86-38.06 34.294 0 43.709 9.193 52.98 33.25 2.679 7.02 8.928 18.459-4.81 38.76z"/><circle cx="188.117" cy="212.059" r="20"/><circle cx="324.117" cy="212.059" r="20"/></g></svg>