<svg id="Layer_1" enable-background="new 0 0 511.987 511.987" height="512" viewBox="0 0 511.987 511.987" width="512" xmlns="http://www.w3.org/2000/svg"><path d="m503.727 285.14c2.32 12.686-10.687 22.869-22.5 17.36-4.63 46.494-29.972 47.215-38.55 34.38-5.38-8.065-11.018-23.321-16.5-37.72 1.21 11.55 3.87 23.06 7.99 34.31 6.98 19 8.83 37.05 5.51 53.67-2.514 12.528-18.01 17.182-27 8.17l-9.78-9.77c-5.65 20.31-17.56 45.11-42.68 60.18-7.319 4.386-16.875 2.302-21.63-5.01-22.377 19.573-67.37 47.972-94.72 54.81-10.091 2.522-19.88-5.114-19.88-15.52 0-5.32-7.06-16.37-22.83-29.05-9.43-7.58-18.65-13.19-25.09-16.55-.3.87-.6 1.76-.9 2.66-3.239 9.676-14.6 13.939-23.41 8.66-25.12-15.07-37.03-39.87-42.68-60.18l-9.78 9.77c-8.989 9.011-24.486 4.36-27-8.17-3.32-16.62-1.47-34.67 5.51-53.68 4.12-11.24 6.78-22.75 7.99-34.3-5.157 13.544-11.196 29.769-16.5 37.72-8.493 12.707-33.845 12.466-38.54-34.4-11.992 5.552-24.809-4.77-22.51-17.34 6.877-37.83-34.646-87.349 22.18-138.22 20.241-18.111 47.02-30.256 73.53-37.08-8.527-4.972-10.526-16.261-4.46-23.84 23.7-29.61 77-34.73 122.6-32.86-.82-3.6-2.31-8.55-4.97-15.2-4.831-12.087 6.095-24.626 18.74-21.46 21.67 5.41 42.25 21.91 57.07 36.57 43.05-1.4 96.11 3.66 119.54 32.95 6.071 7.585 4.06 18.872-4.46 23.84 49.536 12.751 103.97 46.602 103.97 98.16 0 26.357-11.804 57.647-8.26 77.14z" fill="#f2f2f2"/><path d="m367.166 426.94c-4.13-12.391-10.84-30.488-21.379-44.54-19.423-25.896-41.97-24.85-53.681-21.923-15.31 3.83-19.848-2.889-21.088-5.953.239.59 1.787-.131-15.031 5.476l-15.179-5.06c.791-2.99-.912 10.548-20.94 5.537-11.711-2.927-34.26-3.973-53.681 21.923-10.539 14.052-17.249 32.149-21.379 44.54-3.458 10.373 4.295 21.063 15.181 21.063 6.699 0 12.942-4.24 15.177-10.944 16.853-50.556 31.973-46.777 36.94-45.537 15.479 3.868 31.092 2.906 43.88-6.392 9.708 7.06 24.062 11.348 43.882 6.392 4.966-1.241 20.088-5.021 36.94 45.537 2.799 8.398 11.872 12.91 20.238 10.119 8.383-2.794 12.915-11.855 10.12-20.238z" fill="#ece2e2"/><path d="m503.237 245.979c-16.87-57.91-66.33-143.26-211.26-146.25-12.39-14.72 4.01-31.12 4.01-31.12s-80-8-80 16c0 6.18-2.65 11.3-6.6 15.49-136.75 6.84-184.2 89.41-200.65 145.88 1.198-14.744-4.27-34.766-7.03-53.27 9.836-43.917 58.881-71.707 102.25-82.87-8.527-4.972-10.526-16.261-4.46-23.84 23.7-29.61 77-34.73 122.6-32.86-.82-3.6-2.31-8.55-4.97-15.2-4.831-12.087 6.095-24.626 18.74-21.46 21.67 5.41 42.25 21.91 57.07 36.57 43.05-1.4 96.11 3.66 119.54 32.95 6.071 7.585 4.06 18.872-4.46 23.84 43.38 11.166 92.415 38.96 102.25 82.87-2.766 18.546-8.229 38.517-7.03 53.27z" fill="#f9f9f9"/><path d="m311.987 295.999c.52-8.037 32-8 56 8 0-24-40.902-36.451-48-40 8-8 32 0 48 8 0-16-16-48-40-48 24-8 56 16 56 16s-10.531-31.161-40-48c-56-32-88-16-88-16s-32-16-88 16c-29.469 16.839-40 48-40 48s32-24 56-16c-24 0-40 32-40 48 16-8 40-16 48-8-7.098 3.549-48 16-48 40 24-16 55.48-16.037 56-8 .792 12.256-48 40-72 24 8 24 32 16 64 16-24 8-40 32-40 40 32-24 104 0 104 0s72-24 104 0c0-8-16-32-40-40 32 0 56 8 64-16-24 16-72.792-11.743-72-24z" fill="#ece2e2"/><g fill="#999"><path d="m295.987 323.999c0 15.55-13.61 52-40 52s-40-36.45-40-52c0-19.85 17.94-36 40-36s40 16.15 40 36z"/><circle cx="187.987" cy="251.999" r="20"/><circle cx="323.987" cy="251.999" r="20"/></g></svg>