<svg id="Layer_1" enable-background="new 0 0 512 512" height="512" viewBox="0 0 512 512" width="512" xmlns="http://www.w3.org/2000/svg"><path d="m512 159.961c0 70.19-45.91 97.46-55.11 102.21-8.4 4.35-22.31 29.41-22.31 49.79 0 31.121-34.226 38.238-54.19 10.66-.02 41.23-.92 113.97-42.97 124.83-3.21.83-6.4 1.39-9.56 1.729-33.429 41.054-110.313 41.027-143.72 0-3.16-.34-6.35-.9-9.56-1.729-42.05-10.86-42.95-83.6-42.97-124.83-20.011 27.644-54.19 20.394-54.19-10.66 0-20.38-13.91-45.44-22.31-49.79-9.2-4.75-55.11-32.02-55.11-102.21 0-28.52 22.17-56.13 65.9-82.08 30-17.8 59.56-28.53 60.81-28.97 6.97-2.52 14.64.11 18.68 6.09 1.22-.21 4-1.03 8.63-4.22 36.382-25.038 167.722-24.939 203.96 0 4.46 3.07 7.21 3.95 8.49 4.19 3.79-6.39 11.5-8.7 18.82-6.06 1.25.44 30.81 11.17 60.81 28.97 43.73 25.95 65.9 53.56 65.9 82.08z" fill="#c79a83"/><path d="m419.87 200.631c-.379 2.755-1.259 4.623-2.55 6.74-14.46 33.04-36.93 91.95-36.93 112.59 0 34.54 0 94.32-26.3 118.39-6.884 6.294-16.76 11.25-33.91 11.25-29.103 0-55.846-17.443-64.19-17.64-10.243.244-45.242 24.838-81.41 15.49-42.277-10.945-42.97-83.99-42.97-127.49 0-25.617-34.719-108.964-37.29-113.18-1.15-1.88-1.89-3.97-2.19-6.15-7.44-54.09-2.99-82.41 14.93-93.6l12.55-43.92c3.144-10.993 16.505-15.241 25.42-8.06.97-.1 3.84-.71 8.99-4.27 36.367-25.028 167.732-24.953 203.96.01 5.15 3.55 8.02 4.16 8.99 4.26 8.935-7.196 22.282-2.913 25.42 8.06l12.55 43.92c17.92 11.19 22.37 39.51 14.93 93.6z" fill="#a07765"/><path d="m368 351.961c0 34.05-4.79 63.31-13.91 86.39-4.67 4.27-10.18 7.42-16.67 9.1-35.883 9.261-71.515-15.256-81.43-15.49-10.243.244-45.242 24.838-81.41 15.49-6.49-1.68-12-4.83-16.67-9.1-9.12-23.08-13.91-52.34-13.91-86.39 0-64 48-104 64-104s32 8 48 8 32-8 48-8 64 40 64 104z" fill="#ffdfba"/><g fill="#999"><path d="m325.42 348.871c-7.18 22.27-17.7 42.88-45.76 43.09-4.87.52-7.66 6.34-7.66 16 0 8.84-7.16 16-16 16s-16-7.16-16-16c0-9.66-2.79-15.48-7.66-16-28.06-.21-38.58-20.82-45.76-43.09-11.89-36.87 13.05-59.39 23.7-69.01 6.188-5.579 14.651-16.837 45.72-8.59 14.616-3.88 31.957-5.298 42.47 5.56 6.852 7.154 40.378 30.401 26.95 72.04z"/><circle cx="159.226" cy="171.961" r="20"/><circle cx="352.774" cy="171.961" r="20"/></g></svg>