<svg id="Layer_1" enable-background="new 0 0 512.002 512.002" height="512" viewBox="0 0 512.002 512.002" width="512" xmlns="http://www.w3.org/2000/svg"><path d="m464.001 272c0 34.2-8.46 59.98-8.82 61.06-3.242 9.71-14.586 13.862-23.31 8.72-6.11 33.6-22.88 68.02-25.56 73.38-4.341 8.68-15.344 11.439-23.17 6.16-2.387-1.573-5.233-4.927-7.02-7.16-9.933 15.667-40.253 63.796-56.96 72.15-6.958 3.479-15.298 1.424-19.89-4.62-8.935 10.477-27.158 28.216-40.75 30.11-4.622.717-8.253-.59-12.55-2.6-.397-.407-14.044-5.003-33.24-27.51-4.596 6.05-12.937 8.097-19.89 4.62-16.691-8.346-46.949-56.359-56.96-72.15-5.041 6.3-9.899 11.014-18.44 9.63-5.08-.82-9.45-4.03-11.75-8.63-2.68-5.36-19.43-39.75-25.56-73.34-8.735 5.148-20.058.981-23.31-8.76-.36-1.08-8.82-26.86-8.82-61.06 0-36.298 60.808-128.074 74.13-144.41 4.242-5.205-2.13-58.396-2.13-71.59 0-17.491 1.142-36.272 15.23-47.82 6.49-5.36 14.89-8.18 24.77-8.18 26.879 0 62.484 42.145 79.83 64h32.34c17.257-21.742 52.919-64 79.83-64 17.751 0 30.237 9.066 35.98 24.38 5.889 15.705 3.981 37.374 2.6 53.92-.362 4.421-3.907 45.306-1.1 48.82 9.962 11.498 74.52 107.041 74.52 144.88z" fill="#999"/><path d="m184.001 80c-13.54 40.61-55.71 69.77-73.22 63.24 4.95-7.28 9.23-13.15 12.1-16.56 2.625-11.884-2.88-58.371-2.88-70.68 0-17.491 1.142-36.272 15.23-47.82 23.09 12.42 59.98 38.19 48.77 71.82z" fill="#ea8692"/><path d="m401.601 143.79c-18.5 3.92-58.22-24.6-71.28-63.79-10.98-32.95 24.21-58.36 47.36-71.06 13.204 11.716 14.32 29.963 14.32 47.06 0 12.384-5.513 58.759-2.88 70.68 2.94 3.49 7.36 9.58 12.48 17.11z" fill="#ea8692"/><path d="m464.001 272c0 34.2-8.46 59.98-8.82 61.06-3.242 9.71-14.586 13.862-23.31 8.72-6.11 33.6-22.88 68.02-25.56 73.38-4.341 8.68-15.344 11.439-23.17 6.16-2.387-1.573-5.233-4.927-7.02-7.16-9.933 15.667-40.253 63.796-56.96 72.15-6.958 3.479-15.298 1.424-19.89-4.62-9.113 10.687-29.168 30.31-43.27 30.31-14.1 0-34.155-19.622-43.27-30.31-4.596 6.05-12.937 8.097-19.89 4.62-16.691-8.346-46.949-56.359-56.96-72.15-1.48 1.85-3.01 3.59-4.57 5.15-7.647 7.668-20.713 5.664-25.62-4.15-2.68-5.36-19.43-39.75-25.56-73.34-8.735 5.148-20.058.981-23.31-8.76-.36-1.08-8.82-26.86-8.82-61.06 0-34.599 58.623-126.381 74.88-145.32.375-.434 9.215-18.89 54.54-37.28l47.42-23.71c4.545-2.262 2.05-1.69 55.16-1.69 5.173 0 3.716-.032 54.58 25.4 15.829 6.422 46.457 21.865 54.17 36.85 11.054 12.896 75.25 107.923 75.25 145.75z" fill="#999"/><path d="m240.001 64s0 88 16 88 16-88 16-88c-11.192 0-20.808 0-32 0z" fill="#ece2e2"/><path d="m391.761 280c-12.48 43.69-73.67 160.44-99.96 209.64-7.68 7.88-16.57 15.23-26 19.55-7.958 3.736-14.435 5.365-31.19-6.72-5.122-3.682-10.181-8.237-14.65-12.83-26.29-49.2-87.48-165.95-99.96-209.64-16-56 32-56 40-80s16-64 40-72c23.16-7.72 53.75 44.13 55.88 47.79 2.12-3.66 32.72-55.51 55.88-47.79 24 8 32 48 40 72s56 24 40 80z" fill="#f2a661"/><path d="m319.761 376c0 29.65-13.74 86.78-53.96 133.19-.05.06-.1.13-.16.19-5.222 2.37-9.23 3.501-14.63 1.82-.693-.237-4.804-1.758-5.05-2.01-40.22-46.41-53.96-103.54-53.96-133.19 0-64.38 60.94-48.82 63.88-48.03 2.94-.79 63.88-16.35 63.88 48.03z" fill="#ece2e2"/><circle cx="200.001" cy="176" fill="#a07765" r="16"/><path d="m341.619 209.019c-8.273-3.097-17.495 1.089-20.6 9.363-33.038 88.102-31.484 100.54-34.669 101.872-2.717 1.134-8.616-.076-14.35-2.276 0-6.049.189-7.802-.716-10.722 13.993-9.054 23.725-30.293 10.197-41.237-9.271-7.501-19.436-2.019-25.481-2.019-6.04 0-16.213-5.48-25.481 2.019-13.394 10.837-3.911 32.108 10.197 41.237-.903 2.911-.716 4.624-.716 10.692-5.498 2.093-11.523 3.476-14.342 2.309-3.235-1.34-1.158-12.491-34.677-101.875-3.104-8.274-12.325-12.464-20.6-9.363-8.273 3.103-12.466 12.325-9.363 20.6.237.631 23.773 63.52 31.459 94.263 6.307 25.23 30.035 37.249 63.522 22.105 29.598 13.386 56.35 6.585 63.522-22.105 7.686-30.743 31.222-93.632 31.459-94.263 3.105-8.275-1.087-17.498-9.361-20.6z" fill="#999"/><circle cx="312.001" cy="176" fill="#a07765" r="16"/></svg>