<svg id="Layer_1" enable-background="new 0 0 512.253 512.253" height="512" viewBox="0 0 512.253 512.253" width="512" xmlns="http://www.w3.org/2000/svg"><path d="m472.111 265.403c-7.66 20.73-18.14 49.11-15.68 58.97 4.45 17.81-3.33 25.82-8.37 29.01-13.322 8.431-30.321-1.112-43.5-9.98-13.88 44.18-34.58 87.2-60.21 102.57-36.95 22.17-67.44 59.9-67.74 60.28-4.913 6.126-13.572 7.841-20.49 3.84-6.854 3.979-15.559 2.324-20.49-3.84-.3-.38-30.79-38.11-67.74-60.28-25.63-15.37-46.33-58.39-60.21-102.57-13.061 8.79-30.186 18.444-43.5 9.98-5.04-3.19-12.82-11.2-8.37-29.01 2.46-9.86-8.02-38.24-15.68-58.97-26.075-70.551-31.518-94.512 16.02-130.4 14.56-10.98 32.68-24.66 58.66-63.63 21.81-32.71 53.33-55.39 91.15-65.57 24.56-6.61 44.51-5.96 50.16-5.59 5.66-.37 25.6-1.02 50.16 5.59 37.82 10.18 69.34 32.86 91.15 65.57 25.98 38.97 44.1 52.65 58.66 63.63 47.291 35.701 42.335 59.197 16.02 130.4z" fill="#c79a83"/><path d="m424.121 240.253c0 46.86-30.96 176.43-79.77 205.72-37.1 22.26-67.43 59.9-67.74 60.28-3.03 3.79-7.63 6-12.49 6h-16c-4.86 0-9.46-2.21-12.49-6-.3-.38-30.79-38.11-67.74-60.28-48.81-29.29-79.77-158.86-79.77-205.72 0-52.744 24-74.255 24-160 0-3.16.94-6.25 2.69-8.88 21.81-32.71 53.33-55.39 91.15-65.57 24.54-6.61 44.49-5.96 50.16-5.59 5.67-.37 25.62-1.01 50.16 5.59 37.82 10.18 69.34 32.86 91.15 65.57 1.75 2.63 2.69 5.72 2.69 8.88 0 84.09 24 108.223 24 160z" fill="#e0b7a3"/><path d="m322.661 362.463c-34.791 29.063-98.327 29.031-133.08 0-5.68-4.73-7.37-12.74-4.1-19.36 6.288-12.738 4.512-51.824 39.24-62.18 14.47-4.32 15.39-32.26 15.4-32.73.204-9.575 7.703-15.97 16-15.97 8.84 0 16 7.19 16 16.03 0 .22.88 28.34 15.4 32.67 34.737 10.359 32.941 49.421 39.24 62.18 3.27 6.62 1.58 14.63-4.1 19.36z" fill="#ffdfba"/><path d="m352.121 104.253c-12.184-8.123-36.741-3.874-57.966 2.278-24.852 7.203-51.216 7.203-76.068 0-21.226-6.152-45.782-10.401-57.966-2.278-24 16-16 120 32 120s64-8 64-24c0 16 16 24 64 24s56-104 32-120z" fill="#c79a83"/><path d="m93.921 99.643c-4.802 5.77-11.532 13.041-10.48 11.73 3.31-4.07 6.81-7.98 10.48-11.73z" fill="#8bc4ff"/><path d="m428.921 111.523c-3.35-3.49-6.88-7.41-10.6-11.88 4.179 4.27 8.237 8.907 10.6 11.88z" fill="#8bc4ff"/><path d="m353.691 364.203c-15.497 17.723-44.075 16.519-55.63-6.95-8.616-17.445-6.366-41.692-19.68-45.67-9.44-2.81-16.72-8.17-22.26-14.79-5.54 6.62-12.82 11.98-22.26 14.79-13.27 3.965-11.085 28.252-19.68 45.68-11.413 23.166-39.925 24.902-55.63 6.94-24.33-27.84-17.98-97.45-14.12-126.09 5.34-39.63 32.52-68.21 76.53-80.48 2.959-.824-1.349-.59 66.02-.59 1.45 0 2.9.2 4.3.59 44.01 12.27 71.19 40.85 76.53 80.48 3.86 28.64 10.21 98.25-14.12 126.09z" fill="#fff3e4"/><g fill="#818182"><path d="m256.121 212.253c-26.019 0-48-16.12-48-35.2 0-8.659 4.677-28.8 48-28.8s48 20.141 48 28.8c0 19.08-21.982 35.2-48 35.2zm18.61-29.231h.01zm-18.61-2.769h.01z"/><circle cx="192.121" cy="136.253" r="16"/><circle cx="320.121" cy="136.253" r="16"/></g></svg>