<svg id="Layer_1" enable-background="new 0 0 512.015 512.015" height="512" viewBox="0 0 512.015 512.015" width="512" xmlns="http://www.w3.org/2000/svg"><path d="m424.857 166.31c-3.39-1.69-7.09-2.99-11.07-3.89 19.68 53.69 25.53 98.59 17.91 136.72-1.935 9.662-12.041 15.238-21.16 11.9-3.294 57.591-25.068 111.36-73.94 142.46-4.72 3-10.61 3.29-15.53.92-17.897 23.914-51.637 55.809-62.41 57.35-2.563.513-5.907.274-9.33-1.23-7.777-3.459-37.032-27.595-58.38-56.12-4.92 2.37-10.81 2.08-15.53-.92-48.52-30.881-70.616-84.347-73.94-142.46-9.102 3.332-19.222-2.222-21.16-11.9-7.62-38.13-1.77-83.03 17.91-136.72-3.98.9-7.68 2.2-11.07 3.89-12.233 6.106-25.982-4.986-22.67-18.19 7.06-28.25 35.09-41.87 53.17-47.83-9.61-47.82-12.46-76.6-.34-91.41 4.69-5.73 11.32-8.88 18.69-8.88 31.168 0 69.083 28.671 79.18 58.94.96 2.89 6.47 4.83 13.66 5.75 15.486 1.959 23.29-1.164 29.5-.51 8.3 1.847 36.039 2.072 38.48-5.24 10.104-30.29 48.034-58.94 79.18-58.94 7.37 0 14 3.15 18.69 8.88 12.12 14.81 9.27 43.59-.34 91.41 18.08 5.96 46.11 19.58 53.17 47.83 3.314 13.21-10.441 24.294-22.67 18.19z" fill="#999"/><path d="m272.007 208c-8-32 24-64 24-96 0-25.46-6.57-39.6-12.84-47.31-14.981 1.895-24.704-1.199-29.66-.49-1.554.505-13.826 1.86-24.66.49-6.27 7.71-12.84 21.85-12.84 47.31 0 32 32 64 24 96-4.34 17.35-64 24-64 72 0 32.98 8 76 80 58 72 18 80-25.02 80-58 0-48-59.66-54.65-64-72z" fill="#f2f2f2"/><path d="m256.007 338c-71.95-96.48-127.85-9.79-145.85 25.04 11.52 39.48 33.71 70.38 65.26 90.46 4.72 3 10.61 3.29 15.53.92 20.64 27.58 50.363 52.555 58.38 56.12 4.413 1.939 8.841 1.986 13.36 0 7.777-3.459 37.032-27.595 58.38-56.12 4.92 2.37 10.81 2.08 15.53-.92 31.55-20.08 53.74-50.98 65.26-90.46-18-34.83-73.9-121.52-145.85-25.04z" fill="#ece2e2"/><circle cx="200.007" cy="192" fill="#a07765" r="16"/><path d="m316.531 248.355c-8.626 1.917-14.07 10.439-12.153 19.065 1.51 7.014 3.771 29.273-5.339 39.22-4.387 4.789-12.024 6.716-22.728 5.734-1.39-2.574-2.685-7.779-3.484-13.567 18.429-12.272 21.726-39.533.496-48.124-8.951-3.623-25.66-3.632-34.631 0-21.279 8.611-17.864 35.896.495 48.123-.804 5.76-2.105 10.994-3.486 13.569-10.701.978-18.338-.947-22.724-5.735-9.106-9.942-6.851-32.19-5.341-39.213 1.89-8.611-3.545-17.133-12.158-19.047-8.62-1.916-17.173 3.521-19.09 12.148-.977 4.396-8.917 43.648 12.883 67.607 13.363 14.687 33.018 18.207 52.72 15.739 4.386-.548 9.377-2.239 14.016-6.259 4.639 4.02 9.629 5.711 14.016 6.259 19.753 2.473 39.385-1.082 52.72-15.739 21.8-23.959 13.86-63.211 12.883-67.607-1.917-8.626-10.47-14.092-19.095-12.173z" fill="#818182"/><circle cx="312.007" cy="192" fill="#a07765" r="16"/></svg>