<svg id="Layer_1" enable-background="new 0 0 512 512" height="512" viewBox="0 0 512 512" width="512" xmlns="http://www.w3.org/2000/svg"><path d="m512 296.61c0 82.593-84.777 125.125-162.94 151.18-21.125 7.039-69.027 13.865-91.31 16.72-4.681.586-71.559-8.973-94.81-16.72-78.029-26.01-162.94-68.524-162.94-151.18 0-39.7 19.92-91.85 56.84-110.31 10.02-5.01 22.78-38 31.22-59.83 14.79-38.23 27.56-71.25 52.06-77.38 29.952-7.489 87.007 11.507 115.88 22.38 28.932-10.896 85.933-29.863 115.88-22.38 24.5 6.13 37.27 39.15 52.06 77.38 8.44 21.83 21.2 54.82 31.22 59.83 36.92 18.46 56.84 70.61 56.84 110.31z" fill="#f9f9f9"/><path d="m360 255.97c-48-88-104-16-104-16s-56-72-104 16c-34.264 62.817 32 48 32 72 0 32-24 24-24 64 0 46.647 96 72.64 96 72.64s96-25.993 96-72.64c0-40-24-32-24-64 0-24 66.264-9.183 32-72z" fill="#f2f2f2"/><path d="m328 375.97c-22.311-55.797-40-63.358-72-63.358s-49.689 7.562-72 63.358 72 88.643 72 88.643 94.311-32.846 72-88.643z" fill="#ece2e2"/><path d="m312 367.97c-6.932 0-12.817 4.417-15.039 10.583-5.359 7.698-8.218 6.059-24.961 6.059v-19.328c32.741-13.771 36.036-52.672-16-52.672-51.904 0-48.857 38.848-16 52.672v19.328c-16.244 0-19.578 1.674-24.961-6.059-2.222-6.166-8.107-10.583-15.039-10.583-12.28 0-19.777 13.186-14.046 23.664-.977.489 12.598 24.978 38.046 24.978h64c20.436 0 33.697-15.617 38.311-24.845l-.265-.133c5.731-10.478-1.765-23.664-14.046-23.664z" fill="#818182"/><g fill="#a07765"><path d="m335.182 252.027c-6.731-4.547-15.607-4.565-22.364 0-16.233 10.964-8.483 36.584 11.182 36.584 19.528.001 27.575-25.509 11.182-36.584z"/><path d="m195.785 287.04c16.237-6.865 16.275-29.975 0-36.856-6.636-2.807-14.595-1.885-20.507 2.995-9.716 8.021-9.692 22.865 0 30.866 5.856 4.828 13.791 5.836 20.507 2.995z"/></g></svg>