<svg id="Layer_1" enable-background="new 0 0 512.031 512.031" height="512" viewBox="0 0 512.031 512.031" width="512" xmlns="http://www.w3.org/2000/svg"><path d="m512.03 362.706c.099 30.775-8.251 50.465-24.94 72.5-15.865 20.661-55.98 64.81-81.72 64.81-18.203 0-43.992-22.633-57.66-35.08-23.294 19.911-63.032 43.36-91.92 43.36-28.646 0-69.053-24.299-91.45-43.36-34.614 31.522-51.029 37.982-65.67 33.96-24.194-6.727-61.36-46.43-75.7-66.37-17.885-24.376-25.33-47.143-22.32-83.86 5.788-70.94 58.334-182.337 84.64-228.66 36.088-66.082 101.45-139.295 170.74-109.38 9.406-4.007 21.016-6.51 33.37-6.51 56.901 0 103.142 58.401 132.25 107.1 33.401 56.632 90.209 178.773 90.38 251.49z" fill="#ffdfba"/><path d="m507.47 321.206c-4.223 14.275-11.417 26.065-20.38 37.91-15.81 20.57-56.01 64.81-81.72 64.81-18.24 0-44.09-11.36-57.66-23.72-23.29 19.91-63.03 43.36-91.92 43.36-24.95 0-63.52-19.59-91.45-43.36-13.065 11.901-47.851 27.472-65.67 22.6-16.52-4.59-36.42-22.96-48.6-35.14-18.253-18.253-38.1-41.594-45.49-66.46 12.416-63.337 55.695-159.768 87.59-212.94 19.549-32.918 48.069-70.067 81.23-89.43 24.652-14.532 53.074-19.741 79.73-9.36 3.716 1.384 2.373 1.317 4.3.58 6.129-2.574 14.585-4.805 22.73-5.6 1.837 1.792 56.724-15.865 123.04 78.23 44.071 62.408 92.112 177.135 104.27 238.52z" fill="#ffebd2"/><path d="m403.43 391.106c-33.222 74.749-110.444 117.19-147.17 117.19-38.248 0-114.792-43.305-147.63-117.19-11.38-25.6-12.91-51.57-4.72-76.45 10.536 33.216 38.728 73.047 79.72 100.92 19.211 13.065 49.614 28.65 72.63 28.65 18.24 0 46.57-11.24 72.17-28.65 41.061-27.933 69.207-67.775 79.72-100.92 8.19 24.88 6.66 50.85-4.72 76.45z" fill="#ffdfba"/><path d="m302.47 376.206c-6.264-9.96-20.826-9.981-27.08 0h-39.11c-8.437-13.643-29.62-7.702-29.62 8.4v24.85c0 27.1 22.04 49.14 49.13 49.14 27.1 0 49.14-22.04 49.14-49.14 0-25.86.825-28.05-2.46-33.25z" fill="#ea8692"/><path d="m511.45 349.136c-20.262-67.029-69.185-159.683-106.87-214.31-35.659-51.872-90.054-98.627-148.55-74.01-17.06-7.2-37.52-8.83-57.79-2.79-59.03 17.66-103.72 90.56-130.79 146.08-21.048 43.099-52.253 99.304-67.16 149.92 3.794-73.71 63.775-202.409 98.49-256.37 18.916-29.452 43.087-59.43 72.91-77.8 6.219-4.152 19.887-10.147 23.74-11.09 20.818-6.832 40.707-5.908 57.7.71 5.162 1.922-.078 1.33 12.94-2.36 55.056-15.81 104.158 28.875 137.5 76.09 45.495 65.43 103.679 198.715 107.88 265.93z" fill="#fff3e4"/><path d="m181.715 174.757c5.06-1.733 10.475-2.8 15.8-2.296 14.928 1.419 20.648 15.2 19.116 12.207 3.951 7.901 13.562 11.107 21.464 7.152 7.903-3.951 11.108-13.563 7.155-21.466.789 0-23.983-45.975-78.241-24.268-44.185 17.674-52.955 56.269-51.419 74.208.755 8.819 8.522 15.334 17.307 14.576 8.805-.754 15.331-8.502 14.577-17.307.1 0-2.481-30.134 34.241-42.806z" fill="#ffdfba"/><path d="m311.8 224.206c9.916 0 16.455-7.625 16.455-16 0-8.321-6.488-16-16.455-16-8.837 0-16 7.164-16 16s7.163 16 16 16z" fill="#a07765"/><path d="m345.046 146.085c-54.307-21.723-78.758 24.268-78.241 24.268-3.952 7.903-.748 17.515 7.155 21.466 7.902 3.956 17.513.749 21.464-7.152-1.15 2.247 6.531-15.259 27.232-11.884 21.711 3.495 43.255 22.652 41.91 44.973l.015-.192c-.801 9.364 6.586 17.366 15.96 17.366 8.22.001 15.209-6.296 15.924-14.636 1.536-17.94-7.234-56.535-51.419-74.209z" fill="#ffdfba"/><path d="m200.028 192.218c-8.81-.168-16.228 6.981-16.228 15.988 0 9.024 7.433 16.156 16.228 15.988 8.809.169 16.228-6.98 16.228-15.988-.001-9.023-7.434-16.156-16.228-15.988z" fill="#a07765"/><path d="m328.426 373.175c-9.673-7.554-23.709-8.889-42.908-4.09-4.041 1.011-5.228.095-5.734-.3-2.779-2.155-4.858-7.765-6.118-13.67 32.411-15.039 33.996-52.779-17.874-52.779-52.177 0-50.174 38.187-17.446 52.972-1.264 5.84-3.326 11.347-6.074 13.478-.506.393-1.691 1.31-5.735.3-19.201-4.798-33.235-3.462-42.906 4.089-7.454 5.82-10.11 14.002-10.11 19.718 0 8.837 7.164 16 16 16 6.91 0 12.796-4.38 15.035-10.515 4.405-.39 9.871.665 14.22 1.753 15.036 3.759 27.974-.143 37.252-9.816 9.257 9.65 22.187 13.579 37.251 9.816 7.72-1.93 12.075-1.972 14.222-1.753 2.239 6.135 8.126 10.515 15.035 10.515 8.837 0 16-7.163 16-16-.001-5.717-2.657-13.899-10.11-19.718zm-122.927 20.54c.014-.272.021-.547.021-.823 0 .198 0 .482-.021.823z" fill="#999"/><path d="m255.792 359.188c-21.759 0-40.852-18.232-40.852-32.567 0-14.979 15.653-24.284 40.852-24.284s40.852 9.305 40.852 24.284c0 14.294-19.044 32.567-40.852 32.567zm13.56-22.834h.011z" fill="#818182"/></svg>