<svg id="Layer_1" enable-background="new 0 0 511.98 511.98" height="512" viewBox="0 0 511.98 511.98" width="512" xmlns="http://www.w3.org/2000/svg"><path d="m468.94 430.012c-9.087 12.495-28.94 6.051-28.94-9.41 0-1.51-.09-2.909-.26-4.199-15.884 17.589-36.388 28.869-60.37 29.09-11.25 21.34-28.63 39.92-55.49 46.63-13.093 3.35-24.23-10.328-18.25-22.55-16.58 12.942-29.942 17.911-45.82 22.569-2.57.623-4.339.453-5.43.38-10.2-1.299-30.925-9.614-48.01-22.949 5.982 12.227-5.162 25.899-18.25 22.55-26.86-6.71-44.24-25.29-55.49-46.63-23.982-.22-44.485-11.501-60.37-29.09-.17 1.29-.26 2.689-.26 4.199 0 15.453-19.846 21.915-28.94 9.41-35.58-48.908-44.924-110.127-36.52-169.32 2.949-20.843 4.215-16.469 1.05-18.48-4.769-2.954-7.59-8.099-7.59-13.61 0-22.884 23.056-59.737 36.72-80.18-2.65-2.52-6.9-6.04-13.6-10.51-7.35-4.9-9.33-14.83-4.43-22.18 15.95-23.94 58.81-49.39 91.71-48.68 14.74-8.79 32.91-15.15 54.38-19.04-9.159-9.002-4.462-24.592 8.08-27.1 34.19-6.84 67.14 10.04 83.14 20.21 16-10.17 48.96-27.04 83.14-20.21 12.543 2.508 17.238 18.098 8.08 27.1 21.47 3.89 39.64 10.26 54.38 19.04 32.89-.69 75.76 24.74 91.71 48.68 2.36 3.53 3.21 7.85 2.38 12.01-1.994 9.995-9.552 10.356-20.41 20.68 11.251 16.833 26.021 41.111 32.71 60.13 4.775 13.551 7.608 28.817-5.54 34.7 13.118 64.11 5.518 133.113-33.51 186.76z" fill="#e0b7a3"/><path d="m468.94 351.521c-9.086 12.494-28.94 6.052-28.94-9.409 0-1.511-.09-2.91-.26-4.2-15.947 17.666-36.482 28.871-60.37 29.09-11.25 21.34-28.63 39.92-55.49 46.63-12.974 3.32-24.277-10.231-18.25-22.55-15.895 12.408-39.667 23.03-49.55 23.03-13.1 0-37.959-13.857-49.71-23.03 5.97 12.202-5.131 25.907-18.25 22.55-26.86-6.71-44.24-25.29-55.49-46.63-23.889-.218-44.424-11.425-60.37-29.09-.17 1.29-.26 2.689-.26 4.2 0 15.452-19.846 21.914-28.94 9.409-30.19-41.482-41.616-92.131-39.05-142.969 6.69-19.023 21.464-43.304 32.71-60.13-2.65-2.52-6.9-6.04-13.6-10.51-7.35-4.9-9.33-14.83-4.43-22.18 15.95-23.94 58.81-49.39 91.71-48.68 14.74-8.79 32.91-15.15 54.38-19.04-9.159-9.002-4.462-24.592 8.08-27.1 34.19-6.84 67.14 10.04 83.14 20.21 16-10.17 48.96-27.04 83.14-20.21 12.543 2.508 17.238 18.098 8.08 27.1 21.47 3.89 39.64 10.26 54.38 19.04 32.89-.69 75.76 24.74 91.71 48.68 4.887 7.31 2.943 17.271-4.43 22.18-6.7 4.47-10.95 7.99-13.6 10.51 11.251 16.833 26.021 41.111 32.71 60.13 2.555 50.624-8.755 101.343-39.05 142.969z" fill="#ece2e2"/><path d="m448 236.602c0 28.167-2.1 76.549-22.37 95.971 1.58 12.729 1.27 27.1-1.94 43.17-2.391 11.937-16.69 16.908-25.97 9.12-5.07 35.77-21.38 94.149-73.84 107.26-15.576 3.986-26.678-15.364-15.19-26.83 9.82-9.83 25.73-52.07 5-93.53-14.614-29.227-39.995-37.527-57.69-56.01-17.652 18.438-43.086 26.804-57.69 56.01-20.73 41.46-4.82 83.7 5 93.53 11.482 11.46.398 30.819-15.19 26.83-52.46-13.11-68.77-71.49-73.84-107.26-9.288 7.795-23.581 2.805-25.97-9.12-3.21-16.05-3.52-30.4-1.95-43.12.149-.306-3.743-2.811-8.41-11.36-13.353-24.47-15.088-72.987-13.56-97.68 2.64-43.5 18.35-71.66 33.71-89.07l-12.73-2.13c-8.669-1.448-14.601-9.643-13.15-18.41.48-2.9 3.76-18.19 20.89-34.09 16.82-15.62 40.86-26.29 71.67-31.87-9.159-9.002-4.462-24.592 8.08-27.1 34.19-6.84 67.14 10.04 83.14 20.21 16-10.17 48.96-27.04 83.14-20.21 12.543 2.508 17.238 18.098 8.08 27.1 30.81 5.58 54.85 16.25 71.67 31.87 15.01 13.94 19.39 27.4 20.57 32.47 2.337 10.368-4.214 18.597-12.83 20.03l-12.73 2.13c16.84 19.089 34.1 51.099 34.1 102.089z" fill="#f9f9f9"/><path d="m192 492.603c-4.095 0-8.189-1.563-11.313-4.687-22.92-22.918-35.603-81.257-10.998-130.469 24.91-49.82 70.311-53.365 70.311-80.845 0-8.837 7.164-16 16-16 8.837 0 16 7.163 16 16 0 50.308-51.979 51.735-73.689 95.155-20.731 41.463-4.82 83.708 5.002 93.531 10.11 10.111 2.812 27.315-11.313 27.315z" fill="#f2f2f2"/><path d="m320 492.603c-14.125 0-21.424-17.205-11.313-27.313 9.822-9.823 25.733-52.068 5.003-93.531-21.72-43.435-73.69-44.849-73.69-95.156 0-8.837 7.164-16 16-16 8.837 0 16 7.163 16 16 0 27.564 45.334 30.892 70.311 80.845 24.445 48.891 12.129 107.345-10.997 130.469-3.125 3.124-7.219 4.686-11.314 4.686z" fill="#f2f2f2"/><g fill="#e0b7a3"><path d="m439.46 112.352c-30.17-8.31-81.98-19.1-119.46-8.39-56 16-64 40-64 48 0 0-16-40-56-48-38.02-7.6-104.96 6.48-125.23 21.63-2.23-3.28-3.25-7.39-2.55-11.62.48-2.9 3.76-18.19 20.89-34.09 16.82-15.62 40.86-26.29 71.67-31.87-9.159-9.002-4.462-24.592 8.08-27.1 34.19-6.84 67.14 10.04 83.14 20.21 16-10.17 48.96-27.04 83.14-20.21 12.543 2.508 17.238 18.098 8.08 27.1 30.81 5.58 54.85 16.25 71.67 31.87 15.01 13.94 19.39 27.4 20.57 32.47z"/><path d="m192 255.962c-32 8-96 48-104 72-.47 1.4-1.02 2.97-1.64 4.66.149-.306-3.743-2.811-8.41-11.36-13.353-24.47-15.088-72.987-13.56-97.68 6.31-6.07 88.17-83.33 143.61-55.62 48 24 16 80-16 88z"/><path d="m320 255.962c32 8 96 48 104 72 .47 1.4 1.02 2.97 1.64 4.66-.149-.306 3.743-2.811 8.41-11.36 13.353-24.47 15.089-72.987 13.56-97.68-6.31-6.07-88.17-83.33-143.61-55.62-48 24-16 80 16 88z"/></g><circle cx="172" cy="200.603" fill="#999" r="20"/><circle cx="340" cy="200.603" fill="#999" r="20"/><path d="m224 260.603c0-12.588 13.741-32 32-32s32 19.412 32 32c0 31.948-64 32.053-64 0zm32.358 2.656h.01z" fill="#999"/></svg>