<svg id="Layer_1" enable-background="new 0 0 512 512" height="512" viewBox="0 0 512 512" width="512" xmlns="http://www.w3.org/2000/svg"><path d="m512 249.553c0 51.126-4.417 168-56 168-14.766 0-27.989-10.208-42.98-12.88-21.15 42.43-65.69 72.56-68.14 74.199-2.69 1.79-5.79 2.681-8.88 2.681-8.204 0-8.443-4.084-33.49-16.84-22.249 33.107-70.775 33.101-93.02 0-24.983 12.723-25.293 16.84-33.49 16.84-3.1 0-6.19-.891-8.88-2.681-2.45-1.64-46.99-31.77-68.14-74.199-15.081 2.687-28.159 12.88-42.98 12.88-51.583 0-56-116.874-56-168 0-47.416 9.257-110.222 55.65-119.7 8.39-29.01 27.91-52.72 63.18-77.41 54.755-38.324 103.904-36.013 137.17-14.92 33.264-21.092 82.411-23.407 137.18 14.93 35.25 24.67 54.77 48.39 63.17 77.4 46.403 9.48 55.65 72.31 55.65 119.7z" fill="#818182"/><path d="m423.79 356.752c3.521 47.017-40.477 96.428-78.91 122.12-2.69 1.79-5.79 2.681-8.88 2.681-8.204 0-8.443-4.084-33.49-16.84-22.249 33.107-70.775 33.101-93.02 0-24.983 12.723-25.293 16.84-33.49 16.84-3.1 0-6.19-.891-8.88-2.681-3.23-2.159-79.12-53.489-79.12-117.319 0-2.309.196-4.543.21-4.801-29.782-29.133-43.647-78.295-41.16-121.42.995-17.004 2.755-14.384 3.05-51.449.441-48.634 3.517-85.788 68.73-131.44 54.755-38.324 103.904-36.013 137.17-14.92 33.264-21.092 82.411-23.407 137.18 14.93 86.639 60.646 62.819 108.068 70.7 171.12 5.856 46.896-7.929 101.72-40.09 133.179z" fill="#f2f2f2"/><path d="m282.88 367.983h-53.76c-8.948-12.787-29.12-6.457-29.12 9.16v56.41c0 30.88 25.12 56 56 56s56-25.12 56-56v-56.41c0-15.488-20.119-22.023-29.12-9.16z" fill="#ea8692"/><path d="m462.63 210.143c-30.115-41.003-127.799-107.248-206.63-62.19-36.743-21.001-91.189-23.522-152.08 14.92-24.74 15.62-42.49 30.841-54.55 47.271 3.59-55.27-11.589-100.962 69.46-157.7 54.755-38.325 103.904-36.014 137.17-14.921 33.264-21.092 82.411-23.407 137.18 14.93 80.624 56.435 65.79 101.344 69.45 157.69z" fill="#f9f9f9"/><path d="m216 263.983c-48-8-64 8-88 40-12.299 16.398-27.66 35.09-39.83 53.32.102-1.838-18.858-15.797-31.72-53.24-7.54-21.96-10.74-45.49-9.4-68.73 30.41 1.53 53.897-3.533 72.95-27.35 32-40 64-40 88-24 33.282 22.188 15.891 81.315 8 80z" fill="#999"/><path d="m296.002 263.983c48-8 64 8 88 40 12.299 16.398 27.66 35.09 39.83 53.32-.102-1.838 18.858-15.797 31.72-53.24 7.54-21.96 10.74-45.49 9.4-68.73-30.41 1.53-53.897-3.533-72.95-27.35-32-40-64-40-88-24-33.282 22.188-15.891 81.315-8 80z" fill="#999"/><circle cx="176" cy="225.556" fill="#a07765" r="24"/><circle cx="336" cy="225.556" fill="#a07765" r="24"/><path d="m343.893 375.814c-.962-8.776-8.872-15.122-17.637-14.162-14.46 1.561-50.295.571-53.868-12.813 4.686-2.757 9.12-6.668 13.093-11.651 22.777-28.563 6.107-47.631-29.481-47.631-35.344 0-52.411 18.877-29.481 47.631 3.973 4.983 8.407 8.895 13.093 11.651-3.562 13.346-39.209 14.399-53.868 12.813-8.766-.974-16.671 5.361-17.646 14.138-.976 8.782 5.353 16.693 14.136 17.669 22.529 2.503 55.382.127 73.767-14.5 18.335 14.588 51.163 17.013 73.767 14.5 8.772-.975 15.087-8.871 14.125-17.645z" fill="#818182"/></svg>