<svg id="Layer_1" enable-background="new 0 0 512 512" height="512" viewBox="0 0 512 512" width="512" xmlns="http://www.w3.org/2000/svg"><path d="m195.098 168.73c-33.444 8.478-75.974 26.293-87.93 58.77-3.391 9.167-14.153 13.211-22.78 8.45-41.73-23.17-35.61-55.26-31.15-78.69 3.398-17.771 3.22-19.189 1.91-39.42-2.12-32.69-5.04-77.46 17.95-101.99 9.86-10.52 22.95-15.85 38.93-15.85 28.38 0 52.35 22.7 71.26 67.46 16.07 38.03 22.94 78.69 23.67 83.2 1.33 8.19-3.82 16.03-11.86 18.07z" fill="#ea8692"/><path d="m195.098 168.73c-25.72 6.52-69.58 21.86-85.35 52.91 42.28-69.64 10.76-54.59 34.28-101.64 24-48-32-120-32-120 28.38 0 52.35 22.7 71.26 67.46 16.07 38.03 22.94 78.69 23.67 83.2 1.33 8.19-3.82 16.03-11.86 18.07z" fill="#a07765"/><path d="m427.668 235.95c-8.67 4.785-19.403.681-22.78-8.45-12.93-35.01-60.64-51.85-87.93-58.77-8.04-2.04-13.19-9.88-11.86-18.07.73-4.51 7.6-45.17 23.67-83.2 18.91-44.76 42.88-67.46 71.26-67.46 15.98 0 29.07 5.33 38.93 15.85 28.597 30.512 17.07 93.027 17.07 120.15 0 26.967 25.173 70.226-28.36 99.95z" fill="#ea8692"/><path d="m316.958 168.73c25.72 6.52 69.58 21.86 85.35 52.91-42.28-69.64-10.76-54.59-34.28-101.64-24-48 32-120 32-120-28.38 0-52.35 22.7-71.26 67.46-16.07 38.03-22.94 78.69-23.67 83.2-1.33 8.19 3.82 16.03 11.86 18.07z" fill="#a07765"/><path d="m399.888 418.05c-1.05 55.88-8.79 93.95-55.86 93.95-15.3 0-25.44-6.37-32.79-14.55-9.854 3.66-21.22 14.55-55.21 14.55-33.957 0-45.406-10.909-55.21-14.55-7.35 8.18-17.49 14.55-32.79 14.55-47.07 0-54.81-38.07-55.86-93.96-2.258-18.908-57.583-49.5-39-95.98 14.009-35.005-4.698-47.2-1.06-83.65 4.02-40.19 33.5-71.79 85.26-91.37 39.79-15.06 81.94-19.04 98.66-19.04s58.87 3.98 98.66 19.04c51.76 19.58 81.24 51.18 85.26 91.37 3.626 36.333-15.015 48.781-1.06 83.65 18.588 46.49-36.741 77.079-39 95.99z" fill="#c79a83"/><path d="m318.678 496.03c-15.277.589-21.366 15.97-62.65 15.97-41.357 0-47.365-15.381-62.65-15.97-12.323-.474-19.505-14.173-12.87-24.6 10.999-17.151 22.149-55.43 75.52-55.43 53.393 0 64.557 38.336 75.52 55.43 6.623 10.406-.52 24.126-12.87 24.6z" fill="#c79a83"/><path d="m328.528 264c0-25.298 56-32 56 24s-56 48-80 24 24-8 24-48z" fill="#999"/><path d="m296.528 200s-24 32-8 56 40-64 8-56z" fill="#e0b7a3"/><path d="m184.028 264c0-25.298-56-32-56 24s56 48 80 24-24-8-24-48z" fill="#999"/><path d="m400.028 400c0 65.58-4.02 112-56 112-22 0-33.05-13.33-39.45-23.35-10.477-16.395-14.442-32.996-32.55-38.57-9.046-2.788-22.935-2.794-32 0-18.071 5.563-22.065 22.109-32.54 38.57-6.41 10.02-17.46 23.35-39.46 23.35-51.98 0-56-46.42-56-112 0-32.43 24.06-63.91 71.52-93.57 32.98-20.61 65.49-32.9 66.86-33.41 3.62-1.36 7.62-1.36 11.24 0 1.37.51 33.88 12.8 66.86 33.41 47.46 29.66 71.52 61.14 71.52 93.57z" fill="#818182"/><path d="m256.028 304c-8.836 0-16-7.164-16-16v-40c0-8.836 7.164-16 16-16s16 7.164 16 16v40c0 8.836-7.163 16-16 16z" fill="#818182"/><path d="m272.028 392v58.08c-9.046-2.788-22.935-2.794-32 0v-58.08c0-8.84 7.16-16 16-16s16 7.16 16 16z" fill="#b2b2b2"/><path d="m312.028 360c0 25.898-29.043 40-56 40-27.628 0-56-14.633-56-40 0-25.898 29.043-40 56-40 27.629 0 56 14.633 56 40z" fill="#999"/><circle cx="148.028" cy="292" fill="#a07765" r="28"/><circle cx="364.028" cy="292" fill="#a07765" r="28"/><path d="m216.028 200s24 32 8 56-40-64-8-56z" fill="#e0b7a3"/></svg>