<svg id="Layer_1" enable-background="new 0 0 512 512" height="512" viewBox="0 0 512 512" width="512" xmlns="http://www.w3.org/2000/svg"><path d="m488.88 369.277c-22.506 15.041-46.166-12.03-61.4-34.43-6.07 13.41-14.64 26.45-26.6 34.43-16.96 11.31-29.62 22.53-38.37 30.93-4.497 25.383-19.518 41.44-44.7 43.52-31.24 21.758-92.431 21.723-123.62 0-25.184-2.08-40.204-18.14-44.7-43.52-37.368-35.873-48.168-28.83-64.97-65.36-11.163 16.414-28.467 38.57-47.72 38.57-13.685 0-30.302-13.479-31.4-35.88-1.034-21.173 10.6-45.438 10.6-77.57 0-27.958-16-45.2-16-80 0-73.064 81.301-104.883 153.72-111.55 8.25-6.13 26.29-16.45 54.28-16.45 23.46 0 39.46 3.96 48 6.84 8.54-2.88 24.54-6.84 48-6.84 27.99 0 46.03 10.32 54.28 16.45 72.453 6.67 153.72 38.496 153.72 111.55 0 35.067-16 51.725-16 80 0 47.402 28.084 85.851-7.12 109.31z" fill="#818182"/><path d="m424 327.967c-8-24 0-88-24-48s-80 80-144 80-120-40-144-80-16 24-24 48c-1.07 3.2-1.99 5.97-2.79 8.37 16.306 34.887 26.964 28.046 64.28 63.87 4.497 25.383 19.518 41.44 44.7 43.52 31.24 21.758 92.431 21.723 123.62 0 25.184-2.08 40.204-18.14 44.7-43.52 36.992-35.512 48.054-29.154 64.28-63.87-.8-2.4-1.72-5.17-2.79-8.37z" fill="#f2a661"/><path d="m350.12 428.337c-9 10.37-21.82 15.63-38.12 15.63-10.46 0-24.87-3.64-34.12-20.97-9.231-17.307-9.722-43.227-16-55-2.05-3.85-3.43-4.03-5.88-4.03s-3.83.18-5.88 4.03c-6.311 11.835-6.692 37.549-16 55-9.25 17.33-23.66 20.97-34.12 20.97-16.3 0-29.12-5.26-38.12-15.63-17.02-19.63-16.34-52.29-9.72-98.63 4.28-29.97 17.34-54.57 37.75-71.16 53.543-43.504 155.961-26.659 169.93 71.16 6.62 46.34 7.3 79-9.72 98.63z" fill="#ffaa64"/><path d="m312 279.967c0 12.25-8.5 23.96-26.77 36.87-10.79 7.63-21.47 13.13-21.92 13.36-4.573 2.346-9.992 2.374-14.62 0-.45-.23-11.13-5.73-21.92-13.36-18.27-12.91-26.77-24.62-26.77-36.87 0-24.67 24.6-44 56-44s56 19.33 56 44z" fill="#a07765"/><circle cx="172" cy="215.967" fill="#999" r="20"/><path d="m215.155 149.656c-20.771-10.385-36.468-3.002-42.469 2.998-6.249 6.248-6.249 16.379 0 22.627 5.827 5.828 15.03 6.22 21.314 1.178.813-.158 3.085-.06 6.844 1.82 7.913 3.956 17.52.738 21.466-7.156 3.953-7.904.75-17.514-7.155-21.467z" fill="#ffbd7b"/><circle cx="340" cy="215.967" fill="#999" r="20"/><path d="m339.313 175.281c6.249-6.248 6.249-16.379 0-22.627-6.001-6-21.697-13.384-42.469-2.998-15.021 7.51-9.688 30.316 7.168 30.314 6.773 0 9.947-4.294 13.986-3.512 6.284 5.043 15.487 4.651 21.315-1.177z" fill="#ffbd7b"/><g fill="#999"><path d="m171.31 95.277c-5.469 5.469-4.871 2.211-10.77 33.81-8.863 47.531-16.93 99.855-57.57 175.01-12.795 23.664-39.352 69.31-66.1 69.31-13.829 0-30.372-13.467-31.47-35.87-1.037-21.222 10.6-45.405 10.6-77.57 0-27.958-16-45.2-16-80 0-30.22 14.32-71.41 82.57-96.05 37.77-13.64 74.98-15.84 76.54-15.93 14.665-.776 22.55 16.941 12.2 27.29z"/><path d="m502.16 305.017c4.809 21.901 11.104 48.012-13.28 64.26-29.862 19.933-62.778-33.606-79.85-65.18-22.43-41.48-41.1-90.9-48.72-128.99-15.985-79.924-11.796-72.006-19.62-79.83-10.337-10.337-2.49-28.066 12.2-27.29 1.56.09 38.77 2.29 76.54 15.93 68.25 24.64 82.57 65.83 82.57 96.05 0 18.6-4.69 32.66-8.82 45.06-7.624 22.894-11.016 34.437-1.02 79.99z"/></g></svg>