<?xml version="1.0" encoding="UTF-8" standalone="no"?>
<!DOCTYPE svg PUBLIC "-//W3C//DTD SVG 1.1//EN"
 "http://www.w3.org/Graphics/SVG/1.1/DTD/svg11.dtd">
<!-- Generated by graphviz version 2.44.1 (20200629.0846)
 -->
<!-- Title: dependencies Pages: 1 -->
<svg width="1405pt" height="284pt"
 viewBox="0.00 0.00 1405.00 284.00" xmlns="http://www.w3.org/2000/svg" xmlns:xlink="http://www.w3.org/1999/xlink">
<g id="graph0" class="graph" transform="scale(1 1) rotate(0) translate(4 280)">
<title>dependencies</title>
<polygon fill="white" stroke="transparent" points="-4,4 -4,-280 1401,-280 1401,4 -4,4"/>
<text text-anchor="start" x="677.51" y="-42.4" font-family="sans-serif" font-weight="bold" font-size="14.00">Legend</text>
<polygon fill="#ffffb3" stroke="transparent" points="464.5,-10 464.5,-30 484.5,-30 484.5,-10 464.5,-10"/>
<text text-anchor="start" x="488.13" y="-15.4" font-family="sans-serif" font-size="14.00"> &#160;Declarations</text>
<polygon fill="#8dd3c7" stroke="transparent" points="577.5,-10 577.5,-30 597.5,-30 597.5,-10 577.5,-10"/>
<text text-anchor="start" x="601.23" y="-15.4" font-family="sans-serif" font-size="14.00"> &#160;Module</text>
<polygon fill="#80b1d3" stroke="transparent" points="663.5,-10 663.5,-30 683.5,-30 683.5,-10 663.5,-10"/>
<text text-anchor="start" x="687.28" y="-15.4" font-family="sans-serif" font-size="14.00"> &#160;Bootstrap</text>
<polygon fill="#fdb462" stroke="transparent" points="760.5,-10 760.5,-30 780.5,-30 780.5,-10 760.5,-10"/>
<text text-anchor="start" x="784.17" y="-15.4" font-family="sans-serif" font-size="14.00"> &#160;Providers</text>
<polygon fill="#fb8072" stroke="transparent" points="856.5,-10 856.5,-30 876.5,-30 876.5,-10 856.5,-10"/>
<text text-anchor="start" x="880.23" y="-15.4" font-family="sans-serif" font-size="14.00"> &#160;Exports</text>
<g id="clust1" class="cluster">
<title>cluster_SharedModule</title>
<polygon fill="none" stroke="black" stroke-dasharray="1,5" points="8,-70 8,-268 1389,-268 1389,-70 8,-70"/>
</g>
<g id="clust6" class="cluster">
<title>cluster_SharedModule_imports</title>
<polygon fill="none" stroke="black" points="1261,-78 1261,-130 1381,-130 1381,-78 1261,-78"/>
</g>
<g id="clust2" class="cluster">
<title>cluster_SharedModule_declarations</title>
<polygon fill="none" stroke="black" points="825,-78 825,-130 1253,-130 1253,-78 825,-78"/>
</g>
<g id="clust9" class="cluster">
<title>cluster_SharedModule_providers</title>
<polygon fill="none" stroke="black" points="16,-78 16,-130 817,-130 817,-78 16,-78"/>
</g>
<g id="clust7" class="cluster">
<title>cluster_SharedModule_exports</title>
<polygon fill="none" stroke="black" points="447,-208 447,-260 1010,-260 1010,-208 447,-208"/>
</g>
<!-- AboutComponent -->
<g id="node1" class="node">
<title>AboutComponent</title>
<polygon fill="#ffffb3" stroke="black" points="1245.33,-122 1128.67,-122 1128.67,-86 1245.33,-86 1245.33,-122"/>
<text text-anchor="middle" x="1187" y="-99.8" font-family="Times,serif" font-size="14.00">AboutComponent</text>
</g>
<!-- SharedModule -->
<g id="node4" class="node">
<title>SharedModule</title>
<polygon fill="#8dd3c7" stroke="black" points="788.42,-187 785.42,-191 764.42,-191 761.42,-187 689.58,-187 689.58,-151 788.42,-151 788.42,-187"/>
<text text-anchor="middle" x="739" y="-164.8" font-family="Times,serif" font-size="14.00">SharedModule</text>
</g>
<!-- AboutComponent&#45;&gt;SharedModule -->
<g id="edge1" class="edge">
<title>AboutComponent&#45;&gt;SharedModule</title>
<path fill="none" stroke="black" d="M1187,-122.11C1187,-141.34 1187,-169 1187,-169 1187,-169 798.23,-169 798.23,-169"/>
<polygon fill="black" stroke="black" points="798.23,-165.5 788.23,-169 798.23,-172.5 798.23,-165.5"/>
</g>
<!-- HomeComponent -->
<g id="node2" class="node">
<title>HomeComponent</title>
<polygon fill="#ffffb3" stroke="black" points="1110.55,-122 995.45,-122 995.45,-86 1110.55,-86 1110.55,-122"/>
<text text-anchor="middle" x="1053" y="-99.8" font-family="Times,serif" font-size="14.00">HomeComponent</text>
</g>
<!-- HomeComponent&#45;&gt;SharedModule -->
<g id="edge2" class="edge">
<title>HomeComponent&#45;&gt;SharedModule</title>
<path fill="none" stroke="black" d="M1056.34,-122.02C1056.34,-139.37 1056.34,-163 1056.34,-163 1056.34,-163 798.24,-163 798.24,-163"/>
<polygon fill="black" stroke="black" points="798.24,-159.5 788.24,-163 798.24,-166.5 798.24,-159.5"/>
</g>
<!-- NavigationComponent -->
<g id="node3" class="node">
<title>NavigationComponent</title>
<polygon fill="#ffffb3" stroke="black" points="976.54,-122 833.46,-122 833.46,-86 976.54,-86 976.54,-122"/>
<text text-anchor="middle" x="905" y="-99.8" font-family="Times,serif" font-size="14.00">NavigationComponent</text>
</g>
<!-- NavigationComponent&#45;&gt;SharedModule -->
<g id="edge3" class="edge">
<title>NavigationComponent&#45;&gt;SharedModule</title>
<path fill="none" stroke="black" d="M848.88,-122.24C848.88,-137.57 848.88,-157 848.88,-157 848.88,-157 798.47,-157 798.47,-157"/>
<polygon fill="black" stroke="black" points="798.47,-153.5 788.47,-157 798.47,-160.5 798.47,-153.5"/>
</g>
<!-- AboutComponent  -->
<g id="node6" class="node">
<title>AboutComponent </title>
<polygon fill="#fb8072" stroke="black" points="1001.83,-252 882.17,-252 882.17,-216 1001.83,-216 1001.83,-252"/>
<text text-anchor="middle" x="942" y="-229.8" font-family="Times,serif" font-size="14.00">AboutComponent </text>
</g>
<!-- SharedModule&#45;&gt;AboutComponent  -->
<g id="edge5" class="edge">
<title>SharedModule&#45;&gt;AboutComponent </title>
<path fill="none" stroke="black" stroke-dasharray="5,2" d="M788.54,-181C844.96,-181 929.43,-181 929.43,-181 929.43,-181 929.43,-205.76 929.43,-205.76"/>
<polygon fill="black" stroke="black" points="925.93,-205.76 929.43,-215.76 932.93,-205.76 925.93,-205.76"/>
</g>
<!-- HomeComponent  -->
<g id="node7" class="node">
<title>HomeComponent </title>
<polygon fill="#fb8072" stroke="black" points="864.54,-252 745.46,-252 745.46,-216 864.54,-216 864.54,-252"/>
<text text-anchor="middle" x="805" y="-229.8" font-family="Times,serif" font-size="14.00">HomeComponent </text>
</g>
<!-- SharedModule&#45;&gt;HomeComponent  -->
<g id="edge6" class="edge">
<title>SharedModule&#45;&gt;HomeComponent </title>
<path fill="none" stroke="black" stroke-dasharray="5,2" d="M766.84,-187.11C766.84,-187.11 766.84,-205.99 766.84,-205.99"/>
<polygon fill="black" stroke="black" points="763.34,-205.99 766.84,-215.99 770.34,-205.99 763.34,-205.99"/>
</g>
<!-- IdentityModule  -->
<g id="node8" class="node">
<title>IdentityModule </title>
<polygon fill="#fb8072" stroke="black" points="727.1,-252 620.9,-252 620.9,-216 727.1,-216 727.1,-252"/>
<text text-anchor="middle" x="674" y="-229.8" font-family="Times,serif" font-size="14.00">IdentityModule </text>
</g>
<!-- SharedModule&#45;&gt;IdentityModule  -->
<g id="edge7" class="edge">
<title>SharedModule&#45;&gt;IdentityModule </title>
<path fill="none" stroke="black" stroke-dasharray="5,2" d="M708.54,-187.11C708.54,-187.11 708.54,-205.99 708.54,-205.99"/>
<polygon fill="black" stroke="black" points="705.04,-205.99 708.54,-215.99 712.04,-205.99 705.04,-205.99"/>
</g>
<!-- NavigationComponent  -->
<g id="node9" class="node">
<title>NavigationComponent </title>
<polygon fill="#fb8072" stroke="black" points="602.54,-252 455.46,-252 455.46,-216 602.54,-216 602.54,-252"/>
<text text-anchor="middle" x="529" y="-229.8" font-family="Times,serif" font-size="14.00">NavigationComponent </text>
</g>
<!-- SharedModule&#45;&gt;NavigationComponent  -->
<g id="edge8" class="edge">
<title>SharedModule&#45;&gt;NavigationComponent </title>
<path fill="none" stroke="black" stroke-dasharray="5,2" d="M689.77,-181C636.42,-181 558.82,-181 558.82,-181 558.82,-181 558.82,-205.76 558.82,-205.76"/>
<polygon fill="black" stroke="black" points="555.32,-205.76 558.82,-215.76 562.32,-205.76 555.32,-205.76"/>
</g>
<!-- IdentityModule -->
<g id="node5" class="node">
<title>IdentityModule</title>
<polygon fill="#8dd3c7" stroke="black" points="1372.6,-122 1369.6,-126 1348.6,-126 1345.6,-122 1269.4,-122 1269.4,-86 1372.6,-86 1372.6,-122"/>
<text text-anchor="middle" x="1321" y="-99.8" font-family="Times,serif" font-size="14.00">IdentityModule</text>
</g>
<!-- IdentityModule&#45;&gt;SharedModule -->
<g id="edge4" class="edge">
<title>IdentityModule&#45;&gt;SharedModule</title>
<path fill="none" stroke="black" d="M1321,-122.28C1321,-143.32 1321,-175 1321,-175 1321,-175 798.62,-175 798.62,-175"/>
<polygon fill="black" stroke="black" points="798.62,-171.5 788.62,-175 798.62,-178.5 798.62,-171.5"/>
</g>
<!-- IdentityService -->
<g id="node10" class="node">
<title>IdentityService</title>
<ellipse fill="#fdb462" stroke="black" cx="739" cy="-104" rx="70.06" ry="18"/>
<text text-anchor="middle" x="739" y="-99.8" font-family="Times,serif" font-size="14.00">IdentityService</text>
</g>
<!-- IdentityService&#45;&gt;SharedModule -->
<g id="edge9" class="edge">
<title>IdentityService&#45;&gt;SharedModule</title>
<path fill="none" stroke="black" d="M739,-122.11C739,-122.11 739,-140.99 739,-140.99"/>
<polygon fill="black" stroke="black" points="735.5,-140.99 739,-150.99 742.5,-140.99 735.5,-140.99"/>
</g>
<!-- LoggerService -->
<g id="node11" class="node">
<title>LoggerService</title>
<ellipse fill="#fdb462" stroke="black" cx="583" cy="-104" rx="67.76" ry="18"/>
<text text-anchor="middle" x="583" y="-99.8" font-family="Times,serif" font-size="14.00">LoggerService</text>
</g>
<!-- LoggerService&#45;&gt;SharedModule -->
<g id="edge10" class="edge">
<title>LoggerService&#45;&gt;SharedModule</title>
<path fill="none" stroke="black" d="M635.79,-115.5C635.79,-131.09 635.79,-157 635.79,-157 635.79,-157 679.51,-157 679.51,-157"/>
<polygon fill="black" stroke="black" points="679.51,-160.5 689.51,-157 679.51,-153.5 679.51,-160.5"/>
</g>
<!-- MessageService -->
<g id="node12" class="node">
<title>MessageService</title>
<ellipse fill="#fdb462" stroke="black" cx="423" cy="-104" rx="73.55" ry="18"/>
<text text-anchor="middle" x="423" y="-99.8" font-family="Times,serif" font-size="14.00">MessageService</text>
</g>
<!-- MessageService&#45;&gt;SharedModule -->
<g id="edge11" class="edge">
<title>MessageService&#45;&gt;SharedModule</title>
<path fill="none" stroke="black" d="M476.13,-116.51C476.13,-133.83 476.13,-163 476.13,-163 476.13,-163 679.56,-163 679.56,-163"/>
<polygon fill="black" stroke="black" points="679.56,-166.5 689.56,-163 679.56,-159.5 679.56,-166.5"/>
</g>
<!-- ScheduleService -->
<g id="node13" class="node">
<title>ScheduleService</title>
<ellipse fill="#fdb462" stroke="black" cx="256" cy="-104" rx="75.28" ry="18"/>
<text text-anchor="middle" x="256" y="-99.8" font-family="Times,serif" font-size="14.00">ScheduleService</text>
</g>
<!-- ScheduleService&#45;&gt;SharedModule -->
<g id="edge12" class="edge">
<title>ScheduleService&#45;&gt;SharedModule</title>
<path fill="none" stroke="black" d="M256,-122.11C256,-141.34 256,-169 256,-169 256,-169 679.58,-169 679.58,-169"/>
<polygon fill="black" stroke="black" points="679.58,-172.5 689.58,-169 679.58,-165.5 679.58,-172.5"/>
</g>
<!-- StorageService -->
<g id="node14" class="node">
<title>StorageService</title>
<ellipse fill="#fdb462" stroke="black" cx="93" cy="-104" rx="69.48" ry="18"/>
<text text-anchor="middle" x="93" y="-99.8" font-family="Times,serif" font-size="14.00">StorageService</text>
</g>
<!-- StorageService&#45;&gt;SharedModule -->
<g id="edge13" class="edge">
<title>StorageService&#45;&gt;SharedModule</title>
<path fill="none" stroke="black" d="M93,-122.28C93,-143.32 93,-175 93,-175 93,-175 679.65,-175 679.65,-175"/>
<polygon fill="black" stroke="black" points="679.65,-178.5 689.65,-175 679.65,-171.5 679.65,-178.5"/>
</g>
</g>
</svg>
