<?xml version="1.0" encoding="UTF-8" standalone="no"?>
<!DOCTYPE svg PUBLIC "-//W3C//DTD SVG 1.1//EN"
 "http://www.w3.org/Graphics/SVG/1.1/DTD/svg11.dtd">
<!-- Generated by graphviz version 2.44.1 (20200629.0846)
 -->
<!-- Title: dependencies Pages: 1 -->
<svg width="1374pt" height="284pt"
 viewBox="0.00 0.00 1374.00 284.00" xmlns="http://www.w3.org/2000/svg" xmlns:xlink="http://www.w3.org/1999/xlink">
<g id="graph0" class="graph" transform="scale(1 1) rotate(0) translate(4 280)">
<title>dependencies</title>
<polygon fill="white" stroke="transparent" points="-4,4 -4,-280 1370,-280 1370,4 -4,4"/>
<text text-anchor="start" x="662.01" y="-42.4" font-family="sans-serif" font-weight="bold" font-size="14.00">Legend</text>
<polygon fill="#ffffb3" stroke="transparent" points="449,-10 449,-30 469,-30 469,-10 449,-10"/>
<text text-anchor="start" x="472.63" y="-15.4" font-family="sans-serif" font-size="14.00"> &#160;Declarations</text>
<polygon fill="#8dd3c7" stroke="transparent" points="562,-10 562,-30 582,-30 582,-10 562,-10"/>
<text text-anchor="start" x="585.73" y="-15.4" font-family="sans-serif" font-size="14.00"> &#160;Module</text>
<polygon fill="#80b1d3" stroke="transparent" points="648,-10 648,-30 668,-30 668,-10 648,-10"/>
<text text-anchor="start" x="671.78" y="-15.4" font-family="sans-serif" font-size="14.00"> &#160;Bootstrap</text>
<polygon fill="#fdb462" stroke="transparent" points="745,-10 745,-30 765,-30 765,-10 745,-10"/>
<text text-anchor="start" x="768.67" y="-15.4" font-family="sans-serif" font-size="14.00"> &#160;Providers</text>
<polygon fill="#fb8072" stroke="transparent" points="841,-10 841,-30 861,-30 861,-10 841,-10"/>
<text text-anchor="start" x="864.73" y="-15.4" font-family="sans-serif" font-size="14.00"> &#160;Exports</text>
<g id="clust1" class="cluster">
<title>cluster_SharedModule</title>
<polygon fill="none" stroke="black" stroke-dasharray="1,5" points="8,-70 8,-268 1358,-268 1358,-70 8,-70"/>
</g>
<g id="clust7" class="cluster">
<title>cluster_SharedModule_exports</title>
<polygon fill="none" stroke="black" points="426,-208 426,-260 989,-260 989,-208 426,-208"/>
</g>
<g id="clust6" class="cluster">
<title>cluster_SharedModule_imports</title>
<polygon fill="none" stroke="black" points="1230,-78 1230,-130 1350,-130 1350,-78 1230,-78"/>
</g>
<g id="clust2" class="cluster">
<title>cluster_SharedModule_declarations</title>
<polygon fill="none" stroke="black" points="794,-78 794,-130 1222,-130 1222,-78 794,-78"/>
</g>
<g id="clust9" class="cluster">
<title>cluster_SharedModule_providers</title>
<polygon fill="none" stroke="black" points="16,-78 16,-130 786,-130 786,-78 16,-78"/>
</g>
<!-- AboutComponent -->
<g id="node1" class="node">
<title>AboutComponent</title>
<polygon fill="#ffffb3" stroke="black" points="1214.33,-122 1097.67,-122 1097.67,-86 1214.33,-86 1214.33,-122"/>
<text text-anchor="middle" x="1156" y="-99.8" font-family="Times,serif" font-size="14.00">AboutComponent</text>
</g>
<!-- SharedModule -->
<g id="node4" class="node">
<title>SharedModule</title>
<polygon fill="#8dd3c7" stroke="black" points="767.42,-187 764.42,-191 743.42,-191 740.42,-187 668.58,-187 668.58,-151 767.42,-151 767.42,-187"/>
<text text-anchor="middle" x="718" y="-164.8" font-family="Times,serif" font-size="14.00">SharedModule</text>
</g>
<!-- AboutComponent&#45;&gt;SharedModule -->
<g id="edge1" class="edge">
<title>AboutComponent&#45;&gt;SharedModule</title>
<path fill="none" stroke="black" d="M1156,-122.11C1156,-141.34 1156,-169 1156,-169 1156,-169 777.39,-169 777.39,-169"/>
<polygon fill="black" stroke="black" points="777.39,-165.5 767.39,-169 777.39,-172.5 777.39,-165.5"/>
</g>
<!-- HomeComponent -->
<g id="node2" class="node">
<title>HomeComponent</title>
<polygon fill="#ffffb3" stroke="black" points="1079.55,-122 964.45,-122 964.45,-86 1079.55,-86 1079.55,-122"/>
<text text-anchor="middle" x="1022" y="-99.8" font-family="Times,serif" font-size="14.00">HomeComponent</text>
</g>
<!-- HomeComponent&#45;&gt;SharedModule -->
<g id="edge2" class="edge">
<title>HomeComponent&#45;&gt;SharedModule</title>
<path fill="none" stroke="black" d="M972.57,-122.02C972.57,-139.37 972.57,-163 972.57,-163 972.57,-163 777.39,-163 777.39,-163"/>
<polygon fill="black" stroke="black" points="777.39,-159.5 767.39,-163 777.39,-166.5 777.39,-159.5"/>
</g>
<!-- NavigationComponent -->
<g id="node3" class="node">
<title>NavigationComponent</title>
<polygon fill="#ffffb3" stroke="black" points="945.54,-122 802.46,-122 802.46,-86 945.54,-86 945.54,-122"/>
<text text-anchor="middle" x="874" y="-99.8" font-family="Times,serif" font-size="14.00">NavigationComponent</text>
</g>
<!-- NavigationComponent&#45;&gt;SharedModule -->
<g id="edge3" class="edge">
<title>NavigationComponent&#45;&gt;SharedModule</title>
<path fill="none" stroke="black" d="M822.88,-122.24C822.88,-137.57 822.88,-157 822.88,-157 822.88,-157 777.37,-157 777.37,-157"/>
<polygon fill="black" stroke="black" points="777.37,-153.5 767.37,-157 777.37,-160.5 777.37,-153.5"/>
</g>
<!-- AboutComponent  -->
<g id="node6" class="node">
<title>AboutComponent </title>
<polygon fill="#fb8072" stroke="black" points="980.83,-252 861.17,-252 861.17,-216 980.83,-216 980.83,-252"/>
<text text-anchor="middle" x="921" y="-229.8" font-family="Times,serif" font-size="14.00">AboutComponent </text>
</g>
<!-- SharedModule&#45;&gt;AboutComponent  -->
<g id="edge5" class="edge">
<title>SharedModule&#45;&gt;AboutComponent </title>
<path fill="none" stroke="black" stroke-dasharray="5,2" d="M767.69,-181C822.62,-181 903.43,-181 903.43,-181 903.43,-181 903.43,-205.76 903.43,-205.76"/>
<polygon fill="black" stroke="black" points="899.93,-205.76 903.43,-215.76 906.93,-205.76 899.93,-205.76"/>
</g>
<!-- HomeComponent  -->
<g id="node7" class="node">
<title>HomeComponent </title>
<polygon fill="#fb8072" stroke="black" points="843.54,-252 724.46,-252 724.46,-216 843.54,-216 843.54,-252"/>
<text text-anchor="middle" x="784" y="-229.8" font-family="Times,serif" font-size="14.00">HomeComponent </text>
</g>
<!-- SharedModule&#45;&gt;HomeComponent  -->
<g id="edge6" class="edge">
<title>SharedModule&#45;&gt;HomeComponent </title>
<path fill="none" stroke="black" stroke-dasharray="5,2" d="M745.84,-187.11C745.84,-187.11 745.84,-205.99 745.84,-205.99"/>
<polygon fill="black" stroke="black" points="742.34,-205.99 745.84,-215.99 749.34,-205.99 742.34,-205.99"/>
</g>
<!-- IdentityModule  -->
<g id="node8" class="node">
<title>IdentityModule </title>
<polygon fill="#fb8072" stroke="black" points="706.1,-252 599.9,-252 599.9,-216 706.1,-216 706.1,-252"/>
<text text-anchor="middle" x="653" y="-229.8" font-family="Times,serif" font-size="14.00">IdentityModule </text>
</g>
<!-- SharedModule&#45;&gt;IdentityModule  -->
<g id="edge7" class="edge">
<title>SharedModule&#45;&gt;IdentityModule </title>
<path fill="none" stroke="black" stroke-dasharray="5,2" d="M687.54,-187.11C687.54,-187.11 687.54,-205.99 687.54,-205.99"/>
<polygon fill="black" stroke="black" points="684.04,-205.99 687.54,-215.99 691.04,-205.99 684.04,-205.99"/>
</g>
<!-- NavigationComponent  -->
<g id="node9" class="node">
<title>NavigationComponent </title>
<polygon fill="#fb8072" stroke="black" points="581.54,-252 434.46,-252 434.46,-216 581.54,-216 581.54,-252"/>
<text text-anchor="middle" x="508" y="-229.8" font-family="Times,serif" font-size="14.00">NavigationComponent </text>
</g>
<!-- SharedModule&#45;&gt;NavigationComponent  -->
<g id="edge8" class="edge">
<title>SharedModule&#45;&gt;NavigationComponent </title>
<path fill="none" stroke="black" stroke-dasharray="5,2" d="M668.62,-181C616.18,-181 540.75,-181 540.75,-181 540.75,-181 540.75,-205.76 540.75,-205.76"/>
<polygon fill="black" stroke="black" points="537.25,-205.76 540.75,-215.76 544.25,-205.76 537.25,-205.76"/>
</g>
<!-- IdentityModule -->
<g id="node5" class="node">
<title>IdentityModule</title>
<polygon fill="#8dd3c7" stroke="black" points="1341.6,-122 1338.6,-126 1317.6,-126 1314.6,-122 1238.4,-122 1238.4,-86 1341.6,-86 1341.6,-122"/>
<text text-anchor="middle" x="1290" y="-99.8" font-family="Times,serif" font-size="14.00">IdentityModule</text>
</g>
<!-- IdentityModule&#45;&gt;SharedModule -->
<g id="edge4" class="edge">
<title>IdentityModule&#45;&gt;SharedModule</title>
<path fill="none" stroke="black" d="M1290,-122.28C1290,-143.32 1290,-175 1290,-175 1290,-175 777.26,-175 777.26,-175"/>
<polygon fill="black" stroke="black" points="777.26,-171.5 767.26,-175 777.26,-178.5 777.26,-171.5"/>
</g>
<!-- ErrorService -->
<g id="node10" class="node">
<title>ErrorService</title>
<ellipse fill="#fdb462" stroke="black" cx="718" cy="-104" rx="60.23" ry="18"/>
<text text-anchor="middle" x="718" y="-99.8" font-family="Times,serif" font-size="14.00">ErrorService</text>
</g>
<!-- ErrorService&#45;&gt;SharedModule -->
<g id="edge9" class="edge">
<title>ErrorService&#45;&gt;SharedModule</title>
<path fill="none" stroke="black" d="M718,-122.11C718,-122.11 718,-140.99 718,-140.99"/>
<polygon fill="black" stroke="black" points="714.5,-140.99 718,-150.99 721.5,-140.99 714.5,-140.99"/>
</g>
<!-- IdentityService -->
<g id="node11" class="node">
<title>IdentityService</title>
<ellipse fill="#fdb462" stroke="black" cx="570" cy="-104" rx="70.06" ry="18"/>
<text text-anchor="middle" x="570" y="-99.8" font-family="Times,serif" font-size="14.00">IdentityService</text>
</g>
<!-- IdentityService&#45;&gt;SharedModule -->
<g id="edge10" class="edge">
<title>IdentityService&#45;&gt;SharedModule</title>
<path fill="none" stroke="black" d="M619.87,-116.83C619.87,-132.52 619.87,-157 619.87,-157 619.87,-157 658.65,-157 658.65,-157"/>
<polygon fill="black" stroke="black" points="658.65,-160.5 668.65,-157 658.65,-153.5 658.65,-160.5"/>
</g>
<!-- LoggerService -->
<g id="node12" class="node">
<title>LoggerService</title>
<ellipse fill="#fdb462" stroke="black" cx="414" cy="-104" rx="67.76" ry="18"/>
<text text-anchor="middle" x="414" y="-99.8" font-family="Times,serif" font-size="14.00">LoggerService</text>
</g>
<!-- LoggerService&#45;&gt;SharedModule -->
<g id="edge11" class="edge">
<title>LoggerService&#45;&gt;SharedModule</title>
<path fill="none" stroke="black" d="M458.18,-117.68C458.18,-135.11 458.18,-163 458.18,-163 458.18,-163 658.52,-163 658.52,-163"/>
<polygon fill="black" stroke="black" points="658.52,-166.5 668.52,-163 658.52,-159.5 658.52,-166.5"/>
</g>
<!-- MessageService -->
<g id="node13" class="node">
<title>MessageService</title>
<ellipse fill="#fdb462" stroke="black" cx="254" cy="-104" rx="73.55" ry="18"/>
<text text-anchor="middle" x="254" y="-99.8" font-family="Times,serif" font-size="14.00">MessageService</text>
</g>
<!-- MessageService&#45;&gt;SharedModule -->
<g id="edge12" class="edge">
<title>MessageService&#45;&gt;SharedModule</title>
<path fill="none" stroke="black" d="M254,-122.11C254,-141.34 254,-169 254,-169 254,-169 658.78,-169 658.78,-169"/>
<polygon fill="black" stroke="black" points="658.78,-172.5 668.78,-169 658.78,-165.5 658.78,-172.5"/>
</g>
<!-- StorageService -->
<g id="node14" class="node">
<title>StorageService</title>
<ellipse fill="#fdb462" stroke="black" cx="93" cy="-104" rx="69.48" ry="18"/>
<text text-anchor="middle" x="93" y="-99.8" font-family="Times,serif" font-size="14.00">StorageService</text>
</g>
<!-- StorageService&#45;&gt;SharedModule -->
<g id="edge13" class="edge">
<title>StorageService&#45;&gt;SharedModule</title>
<path fill="none" stroke="black" d="M93,-122.28C93,-143.32 93,-175 93,-175 93,-175 658.7,-175 658.7,-175"/>
<polygon fill="black" stroke="black" points="658.7,-178.5 668.7,-175 658.7,-171.5 658.7,-178.5"/>
</g>
</g>
</svg>
