<svg height="512pt" viewBox="0 -13 512.03959 512" width="512pt" xmlns="http://www.w3.org/2000/svg"><path d="m152.738281 450.21875c10.679688 20.222656 52.875 35.308594 103.28125 35.308594s92.601563-15.085938 103.28125-35.308594l-103.28125-97.101562zm0 0" fill="#59474e"/><path d="m450.226562 280.445312c11.328126-5.511718 20.761719-14.269531 27.101563-25.15625 9.429687-13.144531 17.308594-27.332031 23.480469-42.285156 28.867187-73.179687-.617188-149.714844-57.554688-207.535156-6.066406-6.402344-15.949218-7.273438-23.039062-2.03125-22.246094 16.773438-67.089844 58.878906-67.089844 126.339844h-194.207031c0-67.441406-44.847657-109.550782-67.089844-126.324219-7.089844-5.238281-16.976563-4.367187-23.042969 2.03125-56.9375 57.804687-86.421875 134.339844-57.554687 207.519531 6.171875 14.953125 14.050781 29.140625 23.480469 42.285156 6.339843 10.886719 15.773437 19.644532 27.101562 25.15625zm0 0" fill="#7f5b53"/><path d="m65.433594 195.878906c-31.164063-51.820312 14.035156-116.417968 14.035156-116.417968l-8.828125-8.828126s4.148437 2.824219 10.238281 7.589844c14.480469 11.476563 39.460938 34.605469 42.375 58.441406zm0 0" fill="#f09372"/><path d="m86.316406 71.257812c-6.363281-4.976562-10.707031-7.941406-10.707031-7.941406-4.027344-2.746094-9.519531-1.707031-12.265625 2.324219-2.742188 4.03125-1.703125 9.519531 2.328125 12.265625.058594 0 1.164063.804688 2.964844 2.109375-10.59375 17.507813-39.363281 72.855469-10.769531 120.410156 1.625 2.703125 4.570312 4.332031 7.722656 4.273438 3.152344-.054688 6.039062-1.789063 7.566406-4.546875 1.527344-2.761719 1.46875-6.125-.160156-8.828125-22.367188-37.191407-.140625-83.269531 9.613281-100.175781 12.253906 10.761718 29.722656 28.917968 31.886719 46.566406.542968 4.417968 4.292968 7.742187 8.746094 7.75.363281 0 .726562-.019532 1.085937-.0625 4.839844-.59375 8.28125-4.996094 7.691406-9.832032-3.3125-27.058593-30.023437-51.890624-45.703125-64.3125zm0 0" fill="#59474e"/><path d="m448.003906 195.878906c31.160156-51.820312-14.039062-116.4375-14.039062-116.4375l8.828125-8.828125s-4.148438 2.828125-10.238281 7.59375c-14.476563 11.476563-39.460938 34.605469-42.375 58.4375zm0 0" fill="#f09372"/><path d="m427.105469 71.257812c6.367187-4.976562 10.710937-7.941406 10.710937-7.941406 4.027344-2.746094 9.519532-1.707031 12.265625 2.324219 2.742188 4.03125 1.703125 9.519531-2.328125 12.265625-.0625 0-1.164062.804688-2.964844 2.109375 10.59375 17.507813 39.363282 72.855469 10.769532 120.410156-2.511719 4.175781-7.9375 5.527344-12.117188 3.011719-4.175781-2.511719-5.527344-7.9375-3.011718-12.113281 22.367187-37.191407.140624-83.269531-9.613282-100.175781-12.253906 10.761718-29.722656 28.917968-31.886718 46.566406-.542969 4.417968-4.292969 7.742187-8.75 7.75-.359376 0-.722657-.019532-1.085938-.0625-4.835938-.59375-8.277344-4.996094-7.6875-9.832032 3.320312-27.058593 30.03125-51.890624 45.699219-64.3125zm0 0" fill="#59474e"/><path d="m61.902344 338.265625c-.089844-.917969-.089844-1.921875-.089844-2.945313v-119.667968c-1.003906-49.78125 38.496094-90.972656 88.277344-92.054688h211.859375c49.78125 1.082032 89.28125 42.273438 88.277343 92.054688v119.667968c0 1.015626 0 2.019532-.089843 2.945313" fill="#af8066"/><path d="m229.535156 273.667969c.007813 2.492187-.257812 4.980469-.792968 7.414062-1.035157 4.777344-3.046876 9.285157-5.914063 13.242188l-12.09375 14.386719-7.679687 9.09375-39.105469-26.128907c-7.683594-12.808593-6.480469-29.066406 3.007812-40.601562 9.492188-11.53125 25.210938-15.847657 39.261719-10.777344 14.046875 5.070313 23.386719 18.433594 23.316406 33.371094zm0 0" fill="#ecf0f1"/><path d="m353.125 273.667969c-.011719 6.347656-1.753906 12.574219-5.035156 18.007812l-39.105469 26.128907-7.679687-9.09375-12.09375-14.386719c-2.867188-3.957031-4.878907-8.464844-5.914063-13.242188-.535156-2.433593-.800781-4.921875-.792969-7.414062 0-19.503907 15.808594-35.3125 35.308594-35.3125s35.3125 15.808593 35.3125 35.3125zm0 0" fill="#ecf0f1"/><path d="m211.882812 185.390625 17.652344-8.828125" fill="#59474e"/><path d="m211.882812 194.21875c-4.101562.007812-7.664062-2.808594-8.609374-6.796875-.941407-3.988281.984374-8.101563 4.652343-9.929687l17.65625-8.828126c4.359375-2.183593 9.664063-.417968 11.847657 3.945313 2.179687 4.359375.414062 9.664063-3.945313 11.847656l-17.65625 8.824219c-1.226563.617188-2.574219.9375-3.945313.9375zm0 0" fill="#59474e"/><path d="m300.15625 185.390625-17.652344-8.828125" fill="#59474e"/><path d="m300.15625 194.21875c-1.363281 0-2.710938-.316406-3.9375-.925781l-17.652344-8.828125c-2.820312-1.410156-4.675781-4.222656-4.863281-7.371094s1.316406-6.15625 3.949219-7.894531c2.632812-1.738281 5.992187-1.9375 8.8125-.527344l17.65625 8.828125c3.660156 1.832031 5.578125 5.945312 4.632812 9.925781-.941406 3.984375-4.503906 6.796875-8.597656 6.792969zm0 0" fill="#59474e"/><path d="m228.742188 281.082031c-1.035157 4.777344-3.046876 9.285157-5.914063 13.242188l-12.09375 14.386719c-1.078125.179687-2.171875.269531-3.265625.265624-11.429688.007813-20.972656-8.714843-21.992188-20.097656-1.019531-11.382812 6.816407-21.664062 18.066407-23.691406 11.246093-2.023438 22.183593 4.871094 25.199219 15.894531zm0 0" fill="#2c2f38"/><path d="m326.640625 286.910156c0 12.1875-9.878906 22.066406-22.070313 22.066406-1.09375.003907-2.1875-.085937-3.265624-.265624l-12.09375-14.386719c-2.867188-3.957031-4.878907-8.464844-5.914063-13.242188 2.933594-10.636719 13.277344-17.472656 24.214844-16.003906s19.109375 10.792969 19.128906 21.832031zm0 0" fill="#2c2f38"/><path d="m308.101562 301.367188c15.601563-6.746094 32.4375-10.164063 49.433594-10.042969 56.058594 0 101.519532 35.574219 101.519532 79.445312 0 43.875-45.460938 79.449219-101.519532 79.449219-56.054687 0-101.515625-35.59375-101.515625-79.449219" fill="#95a5a5"/><path d="m256.019531 370.769531c0 43.875-45.460937 79.449219-101.515625 79.449219-56.054687 0-101.519531-35.59375-101.519531-79.449219s45.464844-79.445312 101.519531-79.445312c16.996094-.117188 33.832032 3.308593 49.433594 10.0625" fill="#95a5a5"/><g fill="#2c3e50"><path d="m370.777344 370.769531c.59375-.019531 1.183594-.078125 1.765625-.175781.554687-.097656 1.089843-.277344 1.589843-.53125.5625-.191406 1.097657-.460938 1.589844-.792969.464844-.324219.90625-.675781 1.324219-1.058593 1.613281-1.691407 2.527344-3.929688 2.558594-6.269532-.011719-1.152344-.253907-2.292968-.707031-3.351562-.445313-1.070313-1.074219-2.054688-1.851563-2.914063l-1.324219-1.058593c-.492187-.335938-1.027344-.601563-1.589844-.796876-.5-.253906-1.035156-.433593-1.589843-.527343-1.160157-.269531-2.367188-.269531-3.53125 0-.550781.09375-1.085938.273437-1.585938.527343-.5625.195313-1.097656.460938-1.589843.796876l-1.324219 1.058593c-.777344.859375-1.40625 1.84375-1.855469 2.914063-.453125 1.058594-.691406 2.199218-.707031 3.351562.035156 2.339844.949219 4.574219 2.5625 6.269532.417969.378906.859375.734374 1.324219 1.058593.492187.335938 1.027343.601563 1.589843.792969.5.253906 1.035157.433594 1.585938.53125.585937.097656 1.175781.15625 1.765625.175781zm0 0"/><path d="m370.777344 335.460938c.59375-.019532 1.183594-.078126 1.765625-.175782.554687-.097656 1.089843-.277344 1.589843-.53125.5625-.195312 1.097657-.460937 1.589844-.792968.464844-.324219.90625-.679688 1.324219-1.0625 1.613281-1.691407 2.527344-3.929688 2.558594-6.265626-.011719-1.152343-.253907-2.292968-.707031-3.355468-.445313-1.070313-1.074219-2.054688-1.851563-2.914063l-1.324219-1.058593c-.492187-.332032-1.027344-.597657-1.589844-.792969-.5-.253907-1.035156-.433594-1.589843-.53125-1.160157-.265625-2.367188-.265625-3.53125 0-.550781.097656-1.085938.277343-1.585938.53125-.5625.191406-1.097656.460937-1.589843.792969l-1.324219 1.058593c-.777344.859375-1.40625 1.847657-1.855469 2.914063-.453125 1.0625-.691406 2.203125-.707031 3.355468.035156 2.335938.949219 4.574219 2.5625 6.265626.417969.382812.859375.734374 1.324219 1.0625.492187.332031 1.027343.601562 1.589843.792968.5.253906 1.035157.433594 1.585938.53125.585937.097656 1.175781.15625 1.765625.175782zm0 0"/><path d="m105.949219 353.117188c-.589844-.023438-1.179688-.082032-1.765625-.179688-.550782-.097656-1.085938-.273438-1.585938-.527344-.5625-.195312-1.097656-.460937-1.589844-.796875-.464843-.324219-.90625-.675781-1.324218-1.058593-1.613282-1.691407-2.527344-3.929688-2.558594-6.265626.011719-1.15625.253906-2.292968.703125-3.355468.449219-1.070313 1.074219-2.054688 1.855469-2.914063l1.324218-1.058593c.492188-.332032 1.027344-.601563 1.589844-.792969.5-.257813 1.035156-.433594 1.585938-.53125 1.164062-.265625 2.371094-.265625 3.53125 0 .554687.097656 1.089844.273437 1.589844.53125.5625.191406 1.097656.457031 1.589843.792969l1.324219 1.058593c.777344.859375 1.40625 1.84375 1.851562 2.914063.453126 1.0625.695313 2.199218.707032 3.355468-.035156 2.335938-.949219 4.574219-2.558594 6.265626-.421875.378906-.863281.734374-1.324219 1.058593-.492187.335938-1.027343.601563-1.589843.796875-.5.253906-1.035157.429688-1.589844.527344-.582032.097656-1.171875.15625-1.765625.179688zm0 0"/><path d="m141.261719 370.769531c-.59375-.019531-1.183594-.078125-1.765625-.175781-.554688-.097656-1.089844-.277344-1.589844-.53125-.5625-.191406-1.097656-.460938-1.589844-.792969-.460937-.324219-.90625-.675781-1.324218-1.058593-1.609376-1.691407-2.523438-3.929688-2.558594-6.269532.015625-1.152344.253906-2.292968.707031-3.351562.445313-1.070313 1.074219-2.054688 1.851563-2.914063l1.324218-1.058593c.492188-.335938 1.027344-.601563 1.589844-.796876.5-.253906 1.035156-.433593 1.589844-.527343 1.160156-.269531 2.367187-.269531 3.53125 0 .550781.09375 1.089844.273437 1.589844.527343.5625.195313 1.09375.460938 1.585937.796876l1.324219 1.058593c.78125.859375 1.40625 1.84375 1.855468 2.914063.453126 1.058594.691407 2.199218.707032 3.351562-.035156 2.339844-.949219 4.574219-2.5625 6.269532-.417969.378906-.859375.734374-1.324219 1.058593-.492187.335938-1.023437.601563-1.585937.792969-.503907.253906-1.039063.433594-1.589844.53125-.585938.097656-1.175782.15625-1.765625.175781zm0 0"/><path d="m141.261719 335.460938c-.59375-.019532-1.183594-.078126-1.765625-.175782-.554688-.097656-1.089844-.277344-1.589844-.53125-.5625-.195312-1.097656-.460937-1.589844-.792968-.460937-.324219-.90625-.679688-1.324218-1.0625-1.609376-1.691407-2.523438-3.929688-2.558594-6.265626.015625-1.152343.253906-2.292968.707031-3.355468.445313-1.070313 1.074219-2.054688 1.851563-2.914063l1.324218-1.058593c.492188-.332032 1.027344-.597657 1.589844-.792969.5-.253907 1.035156-.433594 1.589844-.53125 1.160156-.265625 2.367187-.265625 3.53125 0 .550781.097656 1.089844.277343 1.589844.53125.5625.191406 1.09375.460937 1.585937.792969l1.324219 1.058593c.78125.859375 1.40625 1.847657 1.855468 2.914063.453126 1.0625.691407 2.203125.707032 3.355468-.035156 2.335938-.949219 4.574219-2.5625 6.265626-.417969.382812-.859375.734374-1.324219 1.0625-.492187.332031-1.023437.601562-1.585937.792968-.503907.253906-1.039063.433594-1.589844.53125-.585938.097656-1.175782.15625-1.765625.175782zm0 0"/><path d="m406.089844 353.117188c.589844-.023438 1.179687-.082032 1.765625-.179688.550781-.097656 1.085937-.273438 1.585937-.527344.5625-.195312 1.097656-.460937 1.589844-.796875.464844-.324219.90625-.675781 1.324219-1.058593 1.613281-1.691407 2.527343-3.929688 2.5625-6.265626-.015625-1.15625-.253907-2.292968-.707031-3.355468-.449219-1.070313-1.074219-2.054688-1.855469-2.914063l-1.324219-1.058593c-.492188-.332032-1.027344-.601563-1.589844-.792969-.5-.257813-1.035156-.433594-1.585937-.53125-1.164063-.265625-2.371094-.265625-3.53125 0-.554688.097656-1.089844.273437-1.589844.53125-.5625.191406-1.097656.457031-1.589844.792969l-1.324219 1.058593c-.777343.859375-1.402343 1.84375-1.851562 2.914063-.453125 1.0625-.695312 2.199218-.707031 3.355468.035156 2.335938.949219 4.574219 2.558593 6.265626.421876.378906.863282.734374 1.324219 1.058593.492188.335938 1.027344.601563 1.589844.796875.5.253906 1.035156.429688 1.589844.527344.582031.097656 1.171875.15625 1.765625.179688zm0 0"/><path d="m317.8125 317.804688c0 19.5-27.664062 52.964843-61.792969 52.964843-34.128906 0-61.792969-33.464843-61.792969-52.964843s27.664063-26.480469 61.792969-26.480469c34.128907 0 61.792969 6.964843 61.792969 26.480469zm0 0"/></g><path d="m253.808594 309.265625c-1.21875-4.71875-11.773438-6.074219-23.574219-3.023437-11.800781 3.050781-20.378906 9.351562-19.15625 14.070312 1.21875 4.722656 11.773437 6.074219 23.574219 3.023438 11.800781-3.050782 20.378906-9.351563 19.15625-14.070313zm0 0" fill="#35495e"/><path d="m211.882812 282.496094c0 4.875-3.953124 8.828125-8.828124 8.828125s-8.828126-3.953125-8.828126-8.828125 3.953126-8.828125 8.828126-8.828125 8.828124 3.953125 8.828124 8.828125zm0 0" fill="#ecf0f1"/><path d="m308.984375 282.496094c0 4.875-3.953125 8.828125-8.828125 8.828125s-8.824219-3.953125-8.824219-8.828125 3.949219-8.828125 8.824219-8.828125 8.828125 3.953125 8.828125 8.828125zm0 0" fill="#ecf0f1"/></svg>