<svg height="512pt" viewBox="0 -9 512.21804 512" width="512pt" xmlns="http://www.w3.org/2000/svg"><path d="m427.929688 301.421875c19.773437 15.003906 31.160156 32.75 31.160156 51.726563 0 48.113281-73.179688 88.101562-169.222656 95.691406h-67.621094c-96.042969-7.589844-169.222656-47.578125-169.222656-95.691406 0-18.976563 11.386718-36.722657 31.160156-51.726563zm0 0" fill="#fdd7ad"/><path d="m178.636719 365.507812c15.007812 13.683594 44.050781 22.953126 77.417969 22.953126 33.371093 0 62.414062-9.269532 77.417968-22.953126l-77.417968-109.460937zm0 0" fill="#2c3e50"/><path d="m421.132812 308.304688c39.015626-38.222657 63.292969-85.714844 64.351563-126.320313l-157.925781-147.863281c-47.128906-10.121094-95.875-10.121094-143.007813 0l-157.921875 147.863281c1.058594 40.605469 25.332032 88.097656 64.351563 126.320313zm0 0" fill="#cbb292"/><path d="m203.089844 176.597656c0 14.625-11.855469 26.484375-26.480469 26.484375-14.628906 0-26.484375-11.859375-26.484375-26.484375s11.855469-26.480468 26.484375-26.480468c14.625 0 26.480469 11.855468 26.480469 26.480468zm0 0" fill="#2c2f38"/><path d="m361.988281 176.597656c0 14.625-11.859375 26.484375-26.484375 26.484375s-26.480468-11.859375-26.480468-26.484375 11.855468-26.480468 26.480468-26.480468 26.484375 11.855468 26.484375 26.480468zm0 0" fill="#2c2f38"/><path d="m212.269531 244.660156c-12.421875-4.675781-25.671875-6.75-38.929687-6.09375-29.664063 2.554688-56.347656 19.074219-71.855469 44.492188-7.988281 13.097656-12.515625 28.015625-13.152344 43.34375-1.636719 21.132812 10.832031 40.820312 30.632813 48.375 16.96875 7.65625 36.644531 6.332031 52.433594-3.53125 27.984374-19.773438 44.140624-56.585938 84.65625-56.585938 40.519531 0 56.675781 36.8125 84.65625 56.585938 15.792968 9.863281 35.464843 11.1875 52.4375 3.53125 19.800781-7.554688 32.265624-27.242188 30.632812-48.375-.636719-15.328125-5.164062-30.246094-13.152344-43.34375-15.511718-25.417969-42.191406-41.9375-71.859375-44.492188-13.253906-.65625-26.507812 1.417969-38.929687 6.09375" fill="#556080"/><g fill="#2c3e50"><path d="m203.089844 123.632812c-4.332032.003907-8.027344-3.136718-8.71875-7.414062-.695313-4.277344 1.820312-8.425781 5.929687-9.789062l26.484375-8.828126c2.996094-1 6.296875-.324218 8.660156 1.773438 2.359376 2.09375 3.425782 5.292969 2.792969 8.386719-.632812 3.09375-2.871093 5.613281-5.867187 6.609375l-26.480469 8.828125c-.90625.296875-1.851563.441406-2.800781.433593zm0 0"/><path d="m309.023438 123.632812c-.949219-.003906-1.890626-.15625-2.792969-.457031l-26.480469-8.828125c-2.996094-1-5.234375-3.519531-5.867188-6.613281-.632812-3.09375.433594-6.292969 2.792969-8.386719 2.363281-2.097656 5.664063-2.773437 8.660157-1.773437l26.484374 8.828125c4.15625 1.335937 6.710938 5.507812 6.011719 9.820312-.699219 4.308594-4.445312 7.457032-8.808593 7.410156zm0 0"/><path d="m2.75 139.917969c-1.621094-7.546875-2.507812-15.230469-2.648438-22.949219-1.089843-26.34375 6.703126-52.285156 22.128907-73.667969 19.023437-22.792969 46.015625-37.484375 75.484375-41.089843 24.089844-3.0625 48.488281-2.71875 72.484375 1.015624 8.847656 1.210938 15.421875 8.800782 15.359375 17.734376-.542969 26.335937-6.871094 52.234374-18.539063 75.855468-18.519531 36.304688-43.007812 69.242188-72.4375 97.4375-2.617187 2.613282-5.289062 5.167969-8.007812 7.671875-3.765625 3.886719-8.320313 6.929688-13.355469 8.921875-9.832031 2.066406-20.078125-.328125-27.972656-6.539062-22.113282-15.007813-37.390625-38.15625-42.496094-64.390625zm0 0"/><path d="m509.46875 139.917969c1.621094-7.546875 2.507812-15.230469 2.648438-22.949219 1.089843-26.34375-6.707032-52.285156-22.128907-73.667969-19.015625-22.804687-46.003906-37.507812-75.476562-41.125-24.089844-3.0625-48.488281-2.71875-72.484375 1.011719-8.84375 1.21875-15.410156 8.808594-15.351563 17.738281.542969 26.335938 6.871094 52.234375 18.539063 75.855469 18.503906 36.3125 42.972656 69.261719 72.386718 97.472656 2.617188 2.613282 5.285157 5.167969 8.007813 7.671875 3.765625 3.886719 8.320313 6.929688 13.355469 8.921875 9.832031 2.066406 20.074218-.328125 27.972656-6.539062 22.125-15.003906 37.417969-38.152344 42.53125-64.390625zm0 0"/><path d="m150.125 291.355469c-1.152344-.011719-2.292969-.253907-3.355469-.703125-1.066406-.449219-2.054687-1.078125-2.910156-1.855469-1.613281-1.691406-2.527344-3.929687-2.5625-6.265625.015625-1.15625.253906-2.296875.707031-3.355469.445313-1.070312 1.074219-2.054687 1.855469-2.914062.839844-.796875 1.832031-1.429688 2.910156-1.855469 1.609375-.703125 3.402344-.886719 5.121094-.527344.554687.09375 1.089844.273438 1.589844.527344.5625.195312 1.097656.460938 1.589843.796875.460938.324219.902344.679687 1.324219 1.058594.777344.859375 1.402344 1.84375 1.851563 2.914062.941406 2.136719.941406 4.570313 0 6.707031-.449219 1.070313-1.074219 2.054688-1.851563 2.914063l-1.324219 1.058594c-.492187.335937-1.027343.601562-1.589843.796875-.503907.25-1.039063.429687-1.589844.527344-.582031.101562-1.171875.160156-1.765625.175781zm0 0"/><path d="m123.640625 326.667969c-1.152344-.015625-2.292969-.253907-3.351563-.707031-1.070312-.449219-2.054687-1.074219-2.914062-1.851563-1.613281-1.695313-2.527344-3.933594-2.558594-6.269531.011719-1.152344.253906-2.292969.703125-3.355469.449219-1.070313 1.074219-2.054687 1.855469-2.910156.84375-.800781 1.832031-1.429688 2.914062-1.855469 1.609376-.703125 3.398438-.890625 5.117188-.53125.554688.097656 1.089844.277344 1.589844.53125.5625.191406 1.097656.460938 1.589844.792969.460937.328125.902343.679687 1.324218 1.0625.777344.855469 1.40625 1.84375 1.851563 2.910156.945312 2.136719.945312 4.574219 0 6.710937-.445313 1.066407-1.074219 2.050782-1.851563 2.914063l-1.324218 1.058594c-.492188.332031-1.027344.601562-1.589844.792969-.5.253906-1.035156.433593-1.589844.53125-.582031.101562-1.171875.160156-1.765625.175781zm0 0"/><path d="m158.953125 326.667969c-1.152344-.015625-2.292969-.253907-3.355469-.707031-1.066406-.449219-2.054687-1.074219-2.914062-1.851563-1.609375-1.695313-2.523438-3.933594-2.558594-6.269531.015625-1.152344.253906-2.292969.707031-3.355469.445313-1.070313 1.074219-2.054687 1.851563-2.910156.84375-.800781 1.832031-1.429688 2.914062-1.855469 1.609375-.703125 3.398438-.890625 5.121094-.53125.550781.097656 1.089844.277344 1.589844.53125.5625.191406 1.09375.460938 1.585937.792969.464844.328125.90625.679687 1.324219 1.0625.78125.855469 1.40625 1.84375 1.855469 2.910156.941406 2.136719.941406 4.574219 0 6.710937-.449219 1.066407-1.078125 2.050782-1.855469 2.914063l-1.324219 1.058594c-.492187.332031-1.023437.601562-1.585937.792969-.503906.253906-1.039063.433593-1.589844.53125-.585938.101562-1.175781.160156-1.765625.175781zm0 0"/><path d="m361.988281 291.355469c1.152344-.011719 2.292969-.253907 3.351563-.703125 1.070312-.449219 2.054687-1.078125 2.914062-1.855469 1.613282-1.691406 2.527344-3.929687 2.5625-6.265625-.015625-1.15625-.253906-2.296875-.707031-3.355469-.449219-1.070312-1.074219-2.054687-1.855469-2.914062-.84375-.796875-1.832031-1.429688-2.914062-1.855469-1.609375-.703125-3.398438-.886719-5.117188-.527344-.554687.09375-1.089844.273438-1.589844.527344-.5625.195312-1.097656.460938-1.589843.796875-.460938.324219-.902344.679687-1.324219 1.058594-.777344.859375-1.402344 1.84375-1.851562 2.914062-.945313 2.136719-.945313 4.570313 0 6.707031.449218 1.070313 1.074218 2.054688 1.851562 2.914063l1.324219 1.058594c.492187.335937 1.027343.601562 1.589843.796875.5.25 1.035157.429687 1.589844.527344.582032.101562 1.171875.160156 1.765625.175781zm0 0"/><path d="m388.46875 326.667969c1.15625-.015625 2.292969-.253907 3.355469-.707031 1.070312-.449219 2.054687-1.074219 2.914062-1.851563 1.613281-1.695313 2.527344-3.933594 2.558594-6.269531-.011719-1.152344-.253906-2.292969-.707031-3.355469-.445313-1.070313-1.074219-2.054687-1.851563-2.910156-.84375-.800781-1.832031-1.429688-2.914062-1.855469-1.609375-.703125-3.398438-.890625-5.121094-.53125-.550781.097656-1.085937.277344-1.585937.53125-.5625.191406-1.097657.460938-1.589844.792969-.464844.328125-.90625.679687-1.324219 1.0625-.777344.855469-1.40625 1.84375-1.855469 2.910156-.941406 2.136719-.941406 4.574219 0 6.710937.449219 1.066407 1.078125 2.050782 1.855469 2.914063l1.324219 1.058594c.492187.332031 1.027344.601562 1.589844.792969.5.253906 1.035156.433593 1.585937.53125.585937.101562 1.175781.160156 1.765625.175781zm0 0"/><path d="m353.160156 326.667969c1.152344-.015625 2.292969-.253907 3.355469-.707031 1.066406-.449219 2.050781-1.074219 2.910156-1.851563 1.613281-1.695313 2.527344-3.933594 2.5625-6.269531-.015625-1.152344-.253906-2.292969-.707031-3.355469-.449219-1.070313-1.074219-2.054687-1.855469-2.910156-.84375-.800781-1.832031-1.429688-2.910156-1.855469-1.613281-.703125-3.402344-.890625-5.121094-.53125-.554687.097656-1.089843.277344-1.589843.53125-.5625.191406-1.097657.460938-1.589844.792969-.460938.328125-.902344.679687-1.324219 1.0625-.777344.855469-1.402344 1.84375-1.851563 2.910156-.941406 2.136719-.941406 4.574219 0 6.710937.449219 1.066407 1.074219 2.050782 1.851563 2.914063l1.324219 1.058594c.492187.332031 1.027344.601562 1.589844.792969.5.253906 1.035156.433593 1.589843.53125.582031.101562 1.171875.160156 1.765625.175781zm0 0"/></g><path d="m300.195312 241.332031c-3.410156 22.289063-21.667968 39.328125-44.140624 41.199219-22.46875-1.871094-40.726563-18.910156-44.136719-41.199219 0-15.167969 19.765625-20.59375 44.136719-20.59375 24.375 0 44.140624 5.425781 44.140624 20.59375zm0 0" fill="#2c2f38"/><path d="m222.253906 457.667969h-.703125c-102.765625-8.148438-177.355469-52.097657-177.355469-104.519531 0-21.238282 11.976563-41.558594 34.648438-58.753907 2.507812-1.957031 5.875-2.410156 8.8125-1.191406s4.992188 3.925781 5.375 7.085937c.386719 3.15625-.957031 6.277344-3.515625 8.167969-12.660156 9.578125-27.667969 25.105469-27.667969 44.691407 0 42.277343 69.253906 79.636718 161.097656 86.890624 3.152344.125 6 1.921876 7.472657 4.714844 1.46875 2.789063 1.335937 6.15625-.34375 8.824219-1.683594 2.671875-4.664063 4.238281-7.820313 4.117187zm0 0" fill="#3d324c"/><path d="m289.855469 457.667969c-4.875.191406-8.980469-3.605469-9.171875-8.484375-.1875-4.875 3.609375-8.980469 8.484375-9.171875 91.84375-7.226563 161.09375-44.585938 161.09375-86.863281 0-19.585938-15.003907-35.113282-27.664063-44.691407-3.808594-2.972656-4.523437-8.453125-1.605468-12.300781 2.921874-3.847656 8.390624-4.632812 12.277343-1.761719 22.667969 17.195313 34.648438 37.515625 34.648438 58.753907 0 52.421874-74.59375 96.371093-177.355469 104.492187zm0 0" fill="#3d324c"/><path d="m291.367188 459.082031c0 19.5-15.808594 35.308594-35.3125 35.308594-19.5 0-35.308594-15.808594-35.308594-35.308594 0-19.503906 15.808594-35.3125 35.308594-35.3125 19.503906 0 35.3125 15.808594 35.3125 35.3125zm0 0" fill="#bdc3c7"/><path d="m176.609375 167.769531c0 4.875-3.953125 8.828125-8.828125 8.828125s-8.828125-3.953125-8.828125-8.828125 3.953125-8.828125 8.828125-8.828125 8.828125 3.953125 8.828125 8.828125zm0 0" fill="#ecf0f1"/><path d="m335.503906 167.769531c0 4.875-3.953125 8.828125-8.828125 8.828125s-8.828125-3.953125-8.828125-8.828125 3.953125-8.828125 8.828125-8.828125 8.828125 3.953125 8.828125 8.828125zm0 0" fill="#ecf0f1"/></svg>