<svg height="512pt" viewBox="0 0 512.21873 512" width="512pt" xmlns="http://www.w3.org/2000/svg"><path d="m349.628906 389c-6.832031 10.445312-11.105468 22.355469-12.472656 34.761719h-160.46875c-1.457031-12.671875-5.871094-24.824219-12.886719-35.476563 2.699219-1.355468 5.246094-3 7.589844-4.910156 27.984375-22.90625 44.128906-65.542969 84.664063-65.542969 40.539062 0 56.664062 42.636719 84.648437 65.542969 2.742187 2.222656 5.738281 4.109375 8.925781 5.625zm0 0" fill="#2c2f38"/><path d="m421.132812 317.125c39.015626-38.222656 63.292969-85.714844 64.351563-126.324219l-157.925781-147.859375c-47.128906-10.125-95.875-10.125-143.003906 0l-157.925782 147.859375c1.058594 40.609375 25.332032 88.101563 64.351563 126.324219zm0 0" fill="#cbb292"/><path d="m182.789062 161.582031c3.570313-1.742187 7.496094-2.648437 11.472657-2.648437 14.628906 0 26.484375 11.859375 26.484375 26.484375s-11.855469 26.480469-26.484375 26.480469c-14.625 0-26.480469-11.855469-26.480469-26.480469-.003906-3.976563.902344-7.902344 2.648438-11.476563" fill="#2c2f38"/><path d="m423.78125 339.855469c1.890625 21.816406-10.472656 42.375-30.632812 50.925781-13.738282 6.25-29.40625 6.753906-43.519532 1.394531-3.15625-1.359375-6.148437-3.074219-8.914062-5.109375-27.984375-20.816406-44.140625-59.558594-84.648438-59.558594-40.511718 0-56.664062 38.742188-84.648437 59.558594-2.367188 1.746094-4.914063 3.242188-7.59375 4.457032-14.390625 6.03125-30.648438 5.761718-44.832031-.742188-20.171876-8.542969-32.546876-29.101562-30.660157-50.925781.613281-16.050781 5.128907-31.707031 13.152344-45.621094 14.914063-26.359375 41.710937-43.824219 71.847656-46.828125 13.289063-.6875 26.566407 1.496094 38.929688 6.40625h87.5625c12.363281-4.910156 25.644531-7.09375 38.929687-6.40625 30.136719 3.003906 56.933594 20.46875 71.847656 46.828125 8.035157 13.910156 12.558594 29.570313 13.179688 45.621094zm0 0" fill="#556080"/><path d="m300.195312 250.148438c-3.410156 22.292968-21.667968 39.332031-44.140624 41.199218-22.46875-1.867187-40.726563-18.90625-44.136719-41.199218 0-15.164063 19.765625-20.59375 44.136719-20.59375 24.375 0 44.140624 5.429687 44.140624 20.59375zm0 0" fill="#2c2f38"/><g fill="#2c3e50"><path d="m2.75 139.921875c-1.621094-7.550781-2.507812-15.234375-2.648438-22.953125-1.089843-26.34375 6.703126-52.292969 22.128907-73.675781 19.023437-22.792969 46.015625-37.484375 75.484375-41.09375 24.089844-3.058594 48.492187-2.714844 72.484375 1.015625 8.847656 1.214844 15.421875 8.804687 15.359375 17.734375-.542969 26.339843-6.871094 52.238281-18.539063 75.855469-18.519531 36.308593-43.007812 69.246093-72.4375 97.441406-2.617187 2.613281-5.289062 5.167968-8.007812 7.671875-3.765625 3.886719-8.320313 6.929687-13.355469 8.921875-9.832031 2.066406-20.074219-.328125-27.972656-6.539063-22.113282-15.007812-37.386719-38.152343-42.496094-64.378906zm0 0"/><path d="m509.46875 139.921875c1.621094-7.550781 2.507812-15.234375 2.648438-22.953125 1.089843-26.34375-6.703126-52.292969-22.128907-73.675781-19.019531-22.800781-46.007812-37.503907-75.476562-41.117188-24.089844-3.0625-48.488281-2.71875-72.484375 1.015625-8.84375 1.21875-15.410156 8.804688-15.351563 17.734375.542969 26.335938 6.871094 52.234375 18.539063 75.855469 18.503906 36.308594 42.972656 69.253906 72.386718 97.464844 2.617188 2.613281 5.289063 5.167968 8.007813 7.671875 3.765625 3.886719 8.320313 6.929687 13.355469 8.921875 9.832031 2.066406 20.074218-.328125 27.972656-6.539063 22.125-15 37.414062-38.144531 42.53125-64.378906zm0 0"/><path d="m150.125 300.175781c-1.152344-.011719-2.292969-.253906-3.355469-.707031-1.066406-.449219-2.050781-1.074219-2.910156-1.851562-1.613281-1.691407-2.527344-3.929688-2.5625-6.269532.015625-1.152344.253906-2.292968.707031-3.355468.449219-1.066407 1.074219-2.054688 1.855469-2.910157.84375-.800781 1.832031-1.429687 2.910156-1.855469 1.613281-.703124 3.402344-.886718 5.121094-.527343.554687.09375 1.089844.273437 1.589844.527343.5625.195313 1.097656.460938 1.589843.796876.460938.324218.902344.679687 1.324219 1.058593.777344.859375 1.402344 1.84375 1.851563 2.910157.941406 2.140624.941406 4.574218 0 6.710937-.449219 1.070313-1.074219 2.054687-1.851563 2.914063l-1.324219 1.058593c-.492187.332031-1.027343.601563-1.589843.792969-.5.253906-1.035157.433594-1.589844.53125-.582031.101562-1.171875.160156-1.765625.175781zm0 0"/><path d="m123.644531 335.488281c-1.15625-.015625-2.296875-.253906-3.355469-.707031-1.070312-.449219-2.054687-1.078125-2.914062-1.855469-1.613281-1.691406-2.527344-3.929687-2.558594-6.265625.011719-1.15625.253906-2.292968.703125-3.355468.449219-1.070313 1.074219-2.054688 1.855469-2.914063.84375-.796875 1.832031-1.425781 2.914062-1.851563 1.609376-.707031 3.398438-.890624 5.117188-.53125.554688.097657 1.089844.273438 1.589844.53125.5625.191407 1.097656.457032 1.589844.792969.460937.328125.90625.679688 1.324218 1.058594.777344.859375 1.40625 1.84375 1.855469 2.914063.941406 2.136718.941406 4.570312 0 6.707031-.449219 1.070312-1.078125 2.054687-1.855469 2.914062l-1.324218 1.058594c-.492188.335937-1.027344.601563-1.589844.796875-.5.253906-1.035156.429688-1.589844.527344-.582031.101562-1.171875.160156-1.761719.179687zm0 0"/><path d="m158.953125 335.488281c-1.152344-.015625-2.292969-.253906-3.355469-.707031-1.066406-.449219-2.054687-1.078125-2.914062-1.855469-1.609375-1.691406-2.523438-3.929687-2.558594-6.265625.015625-1.15625.253906-2.292968.707031-3.355468.445313-1.070313 1.074219-2.054688 1.851563-2.914063.84375-.796875 1.835937-1.425781 2.914062-1.851563 1.609375-.707031 3.402344-.890624 5.121094-.53125.554688.097657 1.089844.273438 1.589844.53125.5625.191407 1.097656.457032 1.585937.792969.464844.328125.90625.679688 1.324219 1.058594.78125.859375 1.40625 1.84375 1.855469 2.914063.941406 2.136718.941406 4.570312 0 6.707031-.449219 1.070312-1.074219 2.054687-1.855469 2.914062l-1.324219 1.058594c-.488281.335937-1.023437.601563-1.585937.796875-.503906.253906-1.039063.429688-1.589844.527344-.582031.101562-1.171875.160156-1.765625.179687zm0 0"/><path d="m361.988281 300.175781c1.152344-.011719 2.292969-.253906 3.355469-.707031 1.066406-.449219 2.050781-1.074219 2.910156-1.851562 1.613282-1.691407 2.527344-3.929688 2.5625-6.269532-.015625-1.152344-.253906-2.292968-.707031-3.355468-.449219-1.066407-1.074219-2.054688-1.855469-2.910157-.84375-.800781-1.832031-1.429687-2.910156-1.855469-1.613281-.703124-3.402344-.886718-5.121094-.527343-.554687.09375-1.089844.273437-1.589844.527343-.5625.195313-1.097656.460938-1.589843.796876-.460938.324218-.902344.679687-1.324219 1.058593-.777344.859375-1.402344 1.84375-1.851562 2.910157-.941407 2.140624-.941407 4.574218 0 6.710937.449218 1.070313 1.074218 2.054687 1.851562 2.914063l1.324219 1.058593c.492187.332031 1.027343.601563 1.589843.792969.5.253906 1.035157.433594 1.589844.53125.582032.101562 1.171875.160156 1.765625.175781zm0 0"/><path d="m388.46875 335.488281c1.15625-.015625 2.292969-.253906 3.355469-.707031 1.070312-.449219 2.054687-1.078125 2.914062-1.855469 1.613281-1.691406 2.527344-3.929687 2.558594-6.265625-.011719-1.15625-.253906-2.292968-.707031-3.355468-.445313-1.070313-1.074219-2.054688-1.851563-2.914063-.84375-.796875-1.832031-1.425781-2.914062-1.851563-1.609375-.707031-3.398438-.890624-5.121094-.53125-.550781.097657-1.085937.273438-1.585937.53125-.5625.191407-1.097657.457032-1.589844.792969-.460938.328125-.90625.679688-1.324219 1.058594-.777344.859375-1.40625 1.84375-1.855469 2.914063-.941406 2.136718-.941406 4.570312 0 6.707031.449219 1.070312 1.078125 2.054687 1.855469 2.914062l1.324219 1.058594c.492187.335937 1.027344.601563 1.589844.796875.5.253906 1.035156.429688 1.585937.527344.585937.101562 1.175781.160156 1.765625.179687zm0 0"/><path d="m353.160156 335.488281c1.152344-.015625 2.292969-.253906 3.355469-.707031 1.066406-.449219 2.050781-1.078125 2.910156-1.855469 1.613281-1.691406 2.527344-3.929687 2.5625-6.265625-.015625-1.15625-.253906-2.292968-.707031-3.355468-.449219-1.070313-1.074219-2.054688-1.855469-2.914063-.839843-.796875-1.832031-1.425781-2.910156-1.851563-1.613281-.707031-3.402344-.890624-5.121094-.53125-.554687.097657-1.089843.273438-1.589843.53125-.5625.191407-1.097657.457032-1.589844.792969-.460938.328125-.902344.679688-1.324219 1.058594-.777344.859375-1.402344 1.84375-1.851563 2.914063-.941406 2.136718-.941406 4.570312 0 6.707031.449219 1.070312 1.074219 2.054687 1.851563 2.914062l1.324219 1.058594c.492187.335937 1.027344.601563 1.589844.796875.5.253906 1.035156.429688 1.589843.527344.582031.101562 1.171875.160156 1.765625.179687zm0 0"/><path d="m353.160156 432.589844c.058594 9.101562-3.066406 17.9375-8.828125 24.980468-5.3125 6.394532-13.140625 10.164063-21.449219 10.328126h-133.652343c-18.066407-1.472657-31.578125-17.226563-30.277344-35.308594-.070313-4.558594 1.53125-8.988282 4.5-12.445313 2.554687-3.257812 6.457031-5.175781 10.59375-5.210937h164.019531c9 .789062 15.714844 8.640625 15.09375 17.65625zm0 0"/><path d="m220.746094 114.796875c-3.570313 0-6.789063-2.152344-8.152344-5.449219-1.367188-3.296875-.613281-7.09375 1.910156-9.621094l8.828125-8.824218c3.464844-3.347656 8.96875-3.300782 12.375.105468s3.453125 8.910157.109375 12.375l-8.828125 8.828126c-1.65625 1.65625-3.902343 2.585937-6.242187 2.585937zm0 0"/><path d="m291.367188 114.796875c-2.339844 0-4.585938-.929687-6.242188-2.585937l-8.828125-8.828126c-3.34375-3.464843-3.296875-8.96875.109375-12.375s8.910156-3.453124 12.375-.105468l8.828125 8.824218c2.523437 2.527344 3.277344 6.324219 1.910156 9.621094-1.363281 3.296875-4.582031 5.449219-8.152343 5.449219zm0 0"/></g><path d="m300.195312 406.105469v61.792969c0 24.378906-19.761718 44.140624-44.140624 44.140624-24.375 0-44.136719-19.761718-44.136719-44.140624v-61.792969c.03125-9.738281 7.917969-17.625 17.65625-17.652344h8.828125c9.738281.027344 17.625 7.914063 17.652344 17.652344.074218-9.71875 7.9375-17.582031 17.65625-17.652344h8.828124c9.738282.027344 17.625 7.914063 17.65625 17.652344zm0 0" fill="#fb7b76"/><path d="m341.683594 173.941406c1.746094 3.574219 2.652344 7.5 2.648437 11.476563 0 14.625-11.855469 26.480469-26.484375 26.480469-14.625 0-26.480468-11.855469-26.480468-26.480469s11.855468-26.484375 26.480468-26.484375c3.980469 0 7.902344.90625 11.476563 2.648437" fill="#2c2f38"/><path d="m361.988281 203.074219c-2.34375-.003907-4.585937-.933594-6.242187-2.589844l-52.964844-52.964844c-3.347656-3.460937-3.296875-8.96875.105469-12.375 3.40625-3.402343 8.914062-3.453125 12.375-.105469l52.96875 52.964844c2.523437 2.523438 3.277343 6.320313 1.910156 9.621094-1.367187 3.296875-4.582031 5.445312-8.152344 5.449219zm0 0" fill="#59474e"/><path d="m194.261719 176.589844c0 4.875-3.949219 8.828125-8.824219 8.828125-4.878906 0-8.828125-3.953125-8.828125-8.828125s3.949219-8.828125 8.828125-8.828125c4.875 0 8.824219 3.953125 8.824219 8.828125zm0 0" fill="#ecf0f1"/><path d="m317.847656 176.589844c0 4.875-3.949218 8.828125-8.824218 8.828125s-8.828126-3.953125-8.828126-8.828125 3.953126-8.828125 8.828126-8.828125 8.824218 3.953125 8.824218 8.828125zm0 0" fill="#ecf0f1"/><path d="m150.125 203.074219c-3.570312-.003907-6.789062-2.152344-8.152344-5.449219-1.367187-3.300781-.613281-7.097656 1.910156-9.621094l52.96875-52.964844c3.460938-3.347656 8.96875-3.296874 12.371094.105469 3.40625 3.40625 3.453125 8.914063.109375 12.375l-52.964843 52.964844c-1.65625 1.65625-3.902344 2.585937-6.242188 2.589844zm0 0" fill="#59474e"/></svg>