<svg height="512pt" viewBox="0 -44 512.01059 512" width="512pt" xmlns="http://www.w3.org/2000/svg"><path d="m208.335938 40.4375c15.695312-3.1875 31.65625-4.902344 47.667968-5.121094 16.015625.21875 31.976563 1.933594 47.671875 5.121094 14.019531 2.769531 27.78125 6.726562 41.136719 11.828125 8.054688 2.972656 15.921875 6.417969 23.566406 10.328125 5.628906 2.816406 11.082032 5.972656 16.332032 9.445312l69.5625 104.339844c5.988281 33.042969 7.765624 66.707032 5.296874 100.195313-1.324218 23.746093-4.589843 43.429687-21.628906 61.4375-5.101562 5.347656-10.753906 10.140625-16.859375 14.300781l-99.046875 46.523438c-17.988281 7.46875-37.652344 9.96875-56.9375 7.238281h-18.183594c-19.285156 2.730469-38.949218.230469-56.9375-7.238281l-99.046874-46.523438c-6.105469-4.160156-11.757813-8.953125-16.859376-14.300781-17.039062-18.007813-20.304687-37.691407-21.628906-61.4375-2.46875-33.488281-.691406-67.152344 5.296875-100.195313l48.199219-105.753906 61.792969-26.480469zm0 0" fill="#af8066"/><path d="m214.851562 40.4375c13.492188-3.179688 27.292969-4.898438 41.152344-5.121094 13.863282.222656 27.660156 1.941406 41.15625 5.121094 12.1875 2.796875 24.082032 6.757812 35.511719 11.828125 7 2.996094 13.796875 6.445313 20.347656 10.328125 4.90625 2.84375 9.625 5.996094 14.125 9.445312l60.027344 104.339844c5.171875 33.132813 6.707031 66.730469 4.574219 100.195313-1.148438 23.746093-3.964844 43.429687-18.671875 61.4375-4.328125 5.273437-9.210938 10.066406-14.554688 14.300781l-85.515625 46.523438c-15.246094 7.425781-32.417968 9.957031-49.160156 7.238281h-15.6875c-16.738281 2.71875-33.910156.1875-49.160156-7.238281l-85.511719-46.523438c-5.347656-4.234375-10.226563-9.027344-14.558594-14.300781-14.707031-18.007813-17.53125-37.691407-18.667969-61.4375-2.132812-33.464844-.601562-67.0625 4.570313-100.195313l41.605469-105.753906 53.355468-26.480469zm0 0" fill="#af8066"/><path d="m237.960938 179.558594c-3.921876-8.191406-11.816407-13.757813-20.851563-14.699219-30.539063-3.550781-60.996094 7.296875-82.421875 29.351563-5.960938 5.828124-11.347656 12.21875-16.082031 19.078124-5.144531 7.570313-5.992188 17.269532-2.238281 25.621094 3.753906 8.347656 11.574218 14.152344 20.652343 15.328125 11.527344 1.582031 22.6875 5.167969 32.980469 10.59375 35.308594 17.65625 44.136719 0 52.964844-8.828125 8.234375-8.234375 39.527344-24.160156 14.996094-76.445312zm0 0" fill="#2c2f38"/><path d="m273.378906 179.558594c3.921875-8.191406 11.816406-13.757813 20.851563-14.699219 30.539062-3.550781 60.996093 7.296875 82.421875 29.351563 5.960937 5.828124 11.347656 12.21875 16.082031 19.078124 5.144531 7.574219 5.988281 17.28125 2.230469 25.628907-3.761719 8.351562-11.585938 14.152343-20.667969 15.320312-11.519531 1.582031-22.671875 5.167969-32.957031 10.59375-35.308594 17.65625-44.136719 0-52.964844-8.828125-8.234375-8.234375-39.527344-24.160156-14.996094-76.445312zm0 0" fill="#2c2f38"/><path d="m229.523438 220.695312c0 14.625-11.859376 26.480469-26.484376 26.480469s-26.480468-11.855469-26.480468-26.480469 11.855468-26.484374 26.480468-26.484374 26.484376 11.859374 26.484376 26.484374zm0 0" fill="#fff"/><path d="m335.453125 220.695312c0 14.625-11.855469 26.480469-26.480469 26.480469-14.628906 0-26.484375-11.855469-26.484375-26.480469s11.855469-26.484374 26.484375-26.484374c14.625 0 26.480469 11.859374 26.480469 26.484374zm0 0" fill="#fff"/><path d="m220.695312 141.246094c-3.570312 0-6.789062-2.152344-8.152343-5.449219-1.367188-3.296875-.613281-7.09375 1.910156-9.617187l17.65625-17.65625c3.464844-3.347657 8.96875-3.296876 12.375.105468 3.40625 3.40625 3.453125 8.914063.105469 12.375l-17.652344 17.65625c-1.65625 1.65625-3.902344 2.585938-6.242188 2.585938zm0 0" fill="#59474e"/><path d="m291.316406 141.246094c-2.339844 0-4.585937-.929688-6.242187-2.585938l-17.65625-17.65625c-3.34375-3.460937-3.296875-8.96875.109375-12.375 3.40625-3.402344 8.910156-3.453125 12.375-.105468l17.65625 17.65625c2.523437 2.523437 3.277344 6.320312 1.910156 9.617187s-4.582031 5.449219-8.152344 5.449219zm0 0" fill="#59474e"/><path d="m220.695312 220.695312c0 9.75-7.90625 17.65625-17.65625 17.65625s-17.65625-7.90625-17.65625-17.65625 7.90625-17.65625 17.65625-17.65625 17.65625 7.90625 17.65625 17.65625zm0 0" fill="#e57e25"/><path d="m203.039062 229.523438c-1.152343-.015626-2.292968-.253907-3.355468-.707032-1.066406-.449218-2.050782-1.074218-2.910156-1.855468-1.613282-1.691407-2.527344-3.929688-2.5625-6.265626.015624-1.152343.253906-2.292968.707031-3.355468.449219-1.070313 1.074219-2.054688 1.855469-2.914063.84375-.796875 1.832031-1.425781 2.910156-1.851562 1.613281-.703125 3.402344-.890625 5.121094-.53125.554687.097656 1.089843.277343 1.589843.53125.5625.191406 1.097657.460937 1.589844.792969.460937.328124.902344.679687 1.324219 1.058593.777344.859375 1.402344 1.847657 1.851562 2.914063.941406 2.136718.941406 4.574218 0 6.710937-.449218 1.066407-1.074218 2.050781-1.851562 2.910157l-1.324219 1.0625c-.492187.332031-1.027344.601562-1.589844.792968-.5.253906-1.035156.429688-1.589843.53125-.582032.101563-1.171876.160156-1.765626.175782zm0 0" fill="#2c2f38"/><path d="m326.625 220.695312c0 9.75-7.902344 17.65625-17.652344 17.65625-9.753906 0-17.65625-7.90625-17.65625-17.65625s7.902344-17.65625 17.65625-17.65625c9.75 0 17.652344 7.90625 17.652344 17.65625zm0 0" fill="#e57e25"/><path d="m308.972656 229.523438c-1.15625-.015626-2.296875-.253907-3.355468-.707032-1.070313-.449218-2.054688-1.074218-2.914063-1.855468-1.613281-1.691407-2.527344-3.929688-2.558594-6.265626.011719-1.152343.253907-2.292968.703125-3.355468.449219-1.070313 1.078125-2.054688 1.855469-2.914063.84375-.796875 1.832031-1.425781 2.914063-1.851562 1.609374-.703125 3.398437-.890625 5.121093-.53125.550781.097656 1.085938.277343 1.585938.53125.5625.191406 1.097656.460937 1.589843.792969.460938.328124.90625.679687 1.324219 1.058593.777344.859375 1.40625 1.847657 1.855469 2.914063.941406 2.136718.941406 4.574218 0 6.710937-.449219 1.066407-1.078125 2.050781-1.855469 2.910157l-1.324219 1.0625c-.492187.332031-1.027343.601562-1.589843.792968-.5.253906-1.035157.429688-1.585938.53125-.585937.101563-1.175781.160156-1.765625.175782zm0 0" fill="#2c2f38"/><path d="m203.039062 211.867188c0 4.875-3.953124 8.828124-8.828124 8.828124s-8.828126-3.953124-8.828126-8.828124 3.953126-8.828126 8.828126-8.828126 8.828124 3.953126 8.828124 8.828126zm0 0" fill="#ecf0f1"/><path d="m308.972656 211.867188c0 4.875-3.953125 8.828124-8.828125 8.828124s-8.828125-3.953124-8.828125-8.828124 3.953125-8.828126 8.828125-8.828126 8.828125 3.953126 8.828125 8.828126zm0 0" fill="#ecf0f1"/><path d="m151.398438 380.738281-60.46875-28.425781c-6.105469-4.160156-11.757813-8.953125-16.859376-14.300781-17.039062-18.007813-20.304687-37.691407-21.628906-61.4375-2.46875-33.488281-.691406-67.152344 5.296875-100.195313l48.199219-105.753906 61.792969-26.480469 40.605469-3.707031c4.945312-.972656 9.976562-1.855469 15.007812-2.5625-27.191406 11.828125-135.0625 64.265625-135.0625 151.128906 0 85.980469-13.242188 138.238282 63.117188 191.734375zm0 0" fill="#805333"/><path d="m360.746094 380.738281 60.46875-28.425781c6.105468-4.160156 11.757812-8.953125 16.859375-14.300781 17.039062-18.007813 20.304687-37.691407 21.628906-61.4375 2.46875-33.488281.6875-67.152344-5.296875-100.195313l-48.199219-105.753906-61.792969-26.480469-40.605468-3.707031c-4.945313-.972656-9.976563-1.855469-15.007813-2.5625 27.1875 11.828125 135.0625 64.265625 135.0625 151.128906 0 85.980469 13.238281 138.238282-63.117187 191.734375zm0 0" fill="#805333"/><path d="m167.199219 52.265625c-8.054688 2.972656-15.925781 6.421875-23.570313 10.328125-5.625 2.816406-11.082031 5.972656-16.328125 9.445312-5.894531-12.550781-13.277343-24.34375-21.980469-35.132812l.617188-1.589844s43.34375-8.652344 61.261719 16.949219zm0 0" fill="#59474e"/><path d="m208.335938 40.4375c-14.023438 2.769531-27.785157 6.726562-41.136719 11.828125-17.917969-25.601563-61.261719-16.949219-61.261719-16.949219l-.617188 1.589844c8.703126 10.789062 16.085938 22.582031 21.980469 35.132812 14.035157 30.101563 20.917969 72.03125-31.691406 94.191407-12.007813 5.367187-24.789063 8.796875-37.871094 10.148437-4.679687.324219-9.378906.207032-14.035156-.351562-11.59375-1.289063-22.371094-6.601563-30.457031-15.007813-19.066406-20.214843-14.210938-48.199219-6.089844-71.855469 6.386719-19.703124 16.851562-37.84375 30.71875-53.230468 14.015625-15.15625 31.902344-26.207032 51.730469-31.957032 8.273437-2.511718 16.863281-3.851562 25.511719-3.97265575 35.089843 1.10937475 68.433593 15.57031275 93.21875 40.43359375zm0 0" fill="#cb8252"/><path d="m212.253906 288.765625c-12.421875-4.675781-25.671875-6.75-38.929687-6.09375-29.664063 2.554687-56.34375 19.074219-71.855469 44.492187-8 13.09375-12.539062 28.011719-13.1875 43.34375-1.636719 21.132813 10.832031 40.816407 30.632812 48.375 16.96875 7.65625 36.644532 6.332032 52.433594-3.53125 27.984375-19.773437 44.140625-56.585937 84.65625-56.585937 40.519532 0 56.675782 36.8125 84.65625 56.585937 15.792969 9.863282 35.464844 11.1875 52.4375 3.53125 19.800782-7.558593 32.265625-27.242187 30.632813-48.375-.636719-15.328124-5.164063-30.246093-13.152344-43.34375-15.511719-25.417968-42.191406-41.9375-71.859375-44.492187-13.253906-.65625-26.507812 1.417969-38.929688 6.09375" fill="#59474e"/><path d="m322.035156 398.835938c-17.988281 7.46875-37.652344 9.96875-56.9375 7.238281h-18.183594c-19.285156 2.730469-38.949218.230469-56.9375-7.238281 18.535157-18.804688 35.21875-40.078126 66.027344-40.078126s47.492188 21.273438 66.03125 40.078126zm0 0" fill="#805333"/><g fill="#2c2f38"><path d="m150.074219 335.453125c-1.152344-.011719-2.292969-.253906-3.355469-.707031-1.066406-.449219-2.054688-1.074219-2.910156-1.851563-1.613282-1.691406-2.527344-3.929687-2.5625-6.269531.015625-1.152344.253906-2.292969.707031-3.351562.449219-1.070313 1.074219-2.058594 1.855469-2.914063.839844-.800781 1.832031-1.429687 2.910156-1.855469 1.613281-.703125 3.402344-.886718 5.121094-.527344.554687.09375 1.089844.273438 1.589844.527344.5625.195313 1.097656.460938 1.589843.796875.460938.324219.902344.679688 1.324219 1.058594.777344.859375 1.402344 1.84375 1.851562 2.914063.941407 2.136718.941407 4.570312 0 6.707031-.449218 1.070312-1.074218 2.054687-1.851562 2.914062l-1.324219 1.058594c-.492187.332031-1.027343.601563-1.589843.792969-.5.253906-1.039063.433594-1.589844.53125-.582032.101562-1.171875.160156-1.765625.175781zm0 0"/><path d="m123.589844 370.765625c-1.152344-.015625-2.292969-.253906-3.351563-.707031-1.070312-.449219-2.054687-1.078125-2.914062-1.855469-1.613281-1.691406-2.527344-3.929687-2.558594-6.265625.011719-1.15625.253906-2.292969.703125-3.355469.449219-1.070312 1.074219-2.054687 1.855469-2.914062.84375-.796875 1.832031-1.425781 2.914062-1.851563 1.609375-.707031 3.398438-.890625 5.117188-.53125.554687.097656 1.089843.273438 1.589843.53125.5625.191406 1.097657.457032 1.589844.792969.460938.328125.902344.679687 1.324219 1.058594.777344.859375 1.40625 1.84375 1.851563 2.914062.945312 2.136719.945312 4.570313 0 6.707031-.445313 1.070313-1.074219 2.054688-1.851563 2.914063l-1.324219 1.058594c-.492187.335937-1.027344.601562-1.589844.796875-.5.253906-1.035156.429687-1.589843.527344-.582031.101562-1.171875.160156-1.765625.179687zm0 0"/><path d="m158.902344 370.765625c-1.152344-.015625-2.292969-.253906-3.355469-.707031-1.066406-.449219-2.054687-1.078125-2.914063-1.855469-1.609374-1.691406-2.523437-3.929687-2.558593-6.265625.015625-1.15625.253906-2.292969.707031-3.355469.445312-1.070312 1.074219-2.054687 1.851562-2.914062.84375-.796875 1.832032-1.425781 2.914063-1.851563 1.609375-.707031 3.398437-.890625 5.121094-.53125.550781.097656 1.089843.273438 1.589843.53125.5625.191406 1.09375.457032 1.585938.792969.464844.328125.90625.679687 1.324219 1.058594.78125.859375 1.40625 1.84375 1.855469 2.914062.941406 2.136719.941406 4.570313 0 6.707031-.449219 1.070313-1.078126 2.054688-1.855469 2.914063l-1.324219 1.058594c-.492188.335937-1.023438.601562-1.585938.796875-.503906.253906-1.039062.429687-1.589843.527344-.585938.101562-1.175781.160156-1.765625.179687zm0 0"/><path d="m361.9375 335.453125c1.152344-.011719 2.292969-.253906 3.351562-.707031 1.070313-.449219 2.054688-1.074219 2.914063-1.851563 1.613281-1.691406 2.527344-3.929687 2.5625-6.269531-.015625-1.152344-.253906-2.292969-.707031-3.351562-.449219-1.070313-1.074219-2.058594-1.855469-2.914063-.84375-.800781-1.832031-1.429687-2.914063-1.855469-1.609374-.703125-3.398437-.886718-5.117187-.527344-.554687.09375-1.089844.273438-1.589844.527344-.5625.195313-1.097656.460938-1.589843.796875-.460938.324219-.902344.679688-1.324219 1.058594-.777344.859375-1.402344 1.84375-1.851563 2.914063-.945312 2.136718-.945312 4.570312 0 6.707031.449219 1.070312 1.074219 2.054687 1.851563 2.914062l1.324219 1.058594c.492187.332031 1.027343.601563 1.589843.792969.5.253906 1.035157.433594 1.589844.53125.582031.101562 1.171875.160156 1.765625.175781zm0 0"/><path d="m388.417969 370.765625c1.15625-.015625 2.292969-.253906 3.355469-.707031 1.070312-.449219 2.054687-1.078125 2.914062-1.855469 1.613281-1.691406 2.527344-3.929687 2.558594-6.265625-.011719-1.15625-.253906-2.292969-.707032-3.355469-.445312-1.070312-1.074218-2.054687-1.851562-2.914062-.84375-.796875-1.832031-1.425781-2.914062-1.851563-1.609376-.707031-3.398438-.890625-5.121094-.53125-.550782.097656-1.085938.273438-1.585938.53125-.5625.191406-1.097656.457032-1.589844.792969-.464843.328125-.90625.679687-1.324218 1.058594-.777344.859375-1.40625 1.84375-1.855469 2.914062-.941406 2.136719-.941406 4.570313 0 6.707031.449219 1.070313 1.078125 2.054688 1.855469 2.914063l1.324218 1.058594c.492188.335937 1.027344.601562 1.589844.796875.5.253906 1.035156.429687 1.585938.527344.585937.101562 1.175781.160156 1.765625.179687zm0 0"/><path d="m353.109375 370.765625c1.152344-.015625 2.292969-.253906 3.355469-.707031 1.066406-.449219 2.050781-1.078125 2.910156-1.855469 1.613281-1.691406 2.527344-3.929687 2.5625-6.265625-.015625-1.15625-.253906-2.292969-.707031-3.355469-.449219-1.070312-1.074219-2.054687-1.855469-2.914062-.84375-.796875-1.832031-1.425781-2.910156-1.851563-1.613282-.707031-3.402344-.890625-5.121094-.53125-.554688.097656-1.089844.273438-1.589844.53125-.5625.191406-1.097656.457032-1.589844.792969-.460937.328125-.902343.679687-1.324218 1.058594-.777344.859375-1.402344 1.84375-1.851563 2.914062-.941406 2.136719-.941406 4.570313 0 6.707031.449219 1.070313 1.074219 2.054688 1.851563 2.914063l1.324218 1.058594c.492188.335937 1.027344.601562 1.589844.796875.5.253906 1.035156.429687 1.589844.527344.582031.101562 1.171875.160156 1.765625.179687zm0 0"/><path d="m300.144531 285.425781c-3.410156 22.292969-21.667969 39.332031-44.140625 41.199219-22.46875-1.867188-40.726562-18.90625-44.136718-41.199219 0-15.164062 19.765624-20.59375 44.136718-20.59375 24.375 0 44.140625 5.429688 44.140625 20.59375zm0 0"/></g><path d="m344.800781 52.265625c8.054688 2.972656 15.925781 6.421875 23.570313 10.328125 5.628906 2.816406 11.082031 5.972656 16.332031 9.445312 5.894531-12.550781 13.273437-24.34375 21.980469-35.132812l-.609375-1.589844s-43.351563-8.652344-61.273438 16.949219zm0 0" fill="#59474e"/><path d="m303.675781 40.4375c14.019531 2.769531 27.78125 6.726562 41.136719 11.828125 17.910156-25.601563 61.261719-16.949219 61.261719-16.949219l.617187 1.589844c-8.707031 10.789062-16.085937 22.582031-21.980468 35.132812-14.035157 30.101563-20.921876 72.03125 31.691406 94.191407 12.003906 5.367187 24.789062 8.796875 37.871094 10.148437 4.679687.324219 9.378906.207032 14.035156-.351562 11.59375-1.289063 22.367187-6.601563 30.457031-15.007813 19.066406-20.214843 14.210937-48.199219 6.089844-71.855469-6.386719-19.703124-16.855469-37.84375-30.71875-53.230468-14.019531-15.15625-31.902344-26.207032-51.730469-31.957032-8.277344-2.515624-16.871094-3.851562-25.523438-3.97265575-35.085937 1.11328175-68.421874 15.57421875-93.207031 40.43359375zm0 0" fill="#cb8252"/><path d="m256.003906 282.488281c0-4.875-5.925781-8.828125-13.238281-8.828125-7.316406 0-13.242187 3.953125-13.242187 8.828125s5.925781 8.828125 13.242187 8.828125c7.3125 0 13.238281-3.953125 13.238281-8.828125zm0 0" fill="#464f5d"/></svg>