<svg height="512pt" viewBox="0 -29 512.02624 512" width="512pt" xmlns="http://www.w3.org/2000/svg"><path d="m106.648438 336.074219c-25.144532-30.199219-40.503907-67.328125-44.050782-106.460938l34.515625-138.0625 105.84375-66.472656c34.675781-9.886719 71.429688-9.886719 106.105469 0l88.1875 39.988281 52.171875 164.546875c-3.546875 39.132813-18.90625 76.261719-44.050781 106.460938l-149.363282-15.007813zm0 0" fill="#af8066"/><path d="m1.773438 162.726562c-.15625-1.035156-.304688-2.074218-.441407-3.117187-5.832031-45.988281 7.144531-97.191406 45.515625-129.753906 33.757813-28.636719 80.050782-33.546875 124.054688-27.613281 8.949218.113281 17.726562 2.480468 25.519531 6.886718 5.609375 4.808594 7.960937 12.40625 6.046875 19.542969-2.085938 7.015625-5.910156 13.394531-11.121094 18.539063-13.296875 13.046874-27.472656 25.167968-42.425781 36.28125-14.800781 10.894531-26.390625 25.582031-33.542969 42.511718-6.703125 19.472656-2.4375 40.863282-8.265625 60.574219-3.808593 12.488281-11.199219 23.585937-21.253906 31.914063-8.039063 7.3125-18.484375 11.421874-29.351563 11.546874-11.035156-1.019531-21.308593-6.066406-28.859374-14.179687-14.136719-14.449219-23.214844-33.089844-25.875-53.132813zm0 0" fill="#cb8252"/><path d="m510.246094 162.726562c.15625-1.035156.304687-2.074218.441406-3.117187 5.851562-46.007813-7.125-97.199219-45.5-129.765625-33.757812-28.636719-80.046875-33.542969-124.054688-27.609375-8.949218.113281-17.726562 2.480469-25.519531 6.882813-5.605469 4.808593-7.957031 12.410156-6.046875 19.546874 2.085938 7.015626 5.914063 13.390626 11.121094 18.535157 13.300781 13.046875 27.476562 25.171875 42.425781 36.28125 14.804688 10.898437 26.394531 25.585937 33.546875 42.515625 6.699219 19.472656 2.4375 40.863281 8.261719 60.574218 3.8125 12.488282 11.203125 23.582032 21.257813 31.910157 8.023437 7.3125 18.445312 11.425781 29.296874 11.566406 11.035157-1.019531 21.308594-6.066406 28.859376-14.175781 14.152343-14.449219 23.242187-33.09375 25.910156-53.144532zm0 0" fill="#cb8252"/><path d="m256.007812 229.527344c-4.875 0-8.824218-3.953125-8.824218-8.828125v-97.105469c0-4.875 3.949218-8.828125 8.824218-8.828125 4.878907 0 8.828126 3.953125 8.828126 8.828125v97.105469c0 4.875-3.949219 8.828125-8.828126 8.828125zm0 0" fill="#805333"/><path d="m220.699219 203.042969c-4.875 0-8.828125-3.953125-8.828125-8.828125 0-44.871094-27.542969-52.964844-28.714844-53.257813-4.722656-1.21875-7.5625-6.035156-6.34375-10.753906 1.21875-4.722656 6.035156-7.5625 10.757812-6.34375 1.710938.433594 42 11.183594 42 70.355469 0 2.347656-.933593 4.601562-2.601562 6.257812-1.664062 1.65625-3.921875 2.582032-6.269531 2.570313zm0 0" fill="#805333"/><path d="m291.320312 203.042969c-4.875 0-8.828124-3.953125-8.828124-8.828125 0-59.144532 40.28125-69.921875 42-70.355469 4.714843-1.171875 9.488281 1.679687 10.691406 6.386719 1.199218 4.703125-1.628906 9.496094-6.328125 10.722656-1.34375.359375-28.707031 8.492188-28.707031 53.246094 0 4.875-3.953126 8.828125-8.828126 8.828125zm0 0" fill="#805333"/><path d="m194.214844 232.792969c0 14.625-11.855469 26.480469-26.480469 26.480469s-26.484375-11.855469-26.484375-26.480469c0-14.628907 11.859375-26.484375 26.484375-26.484375s26.480469 11.855468 26.480469 26.484375zm0 0" fill="#fff"/><path d="m185.390625 232.792969c0 9.75-7.90625 17.652343-17.65625 17.652343s-17.65625-7.902343-17.65625-17.652343 7.90625-17.65625 17.65625-17.65625 17.65625 7.90625 17.65625 17.65625zm0 0" fill="#e57e25"/><path d="m167.734375 241.621094c-1.152344-.015625-2.292969-.253906-3.355469-.707032-1.070312-.449218-2.054687-1.078124-2.914062-1.855468-1.609375-1.691406-2.523438-3.929688-2.558594-6.265625.015625-1.15625.253906-2.292969.707031-3.355469.445313-1.070312 1.074219-2.054688 1.851563-2.914062.84375-.796876 1.832031-1.425782 2.914062-1.851563 1.609375-.707031 3.398438-.890625 5.121094-.53125.550781.097656 1.089844.273437 1.589844.53125.5625.191406 1.09375.457031 1.585937.792969.464844.328125.90625.679687 1.324219 1.058594.78125.859374 1.40625 1.84375 1.855469 2.914062.941406 2.136719.941406 4.570312 0 6.707031-.449219 1.070313-1.078125 2.054688-1.855469 2.914063l-1.324219 1.058594c-.492187.335937-1.023437.601562-1.585937.796874-.503906.253907-1.039063.429688-1.589844.527344-.585938.101563-1.175781.160156-1.765625.179688zm0 0" fill="#2c2f38"/><path d="m167.734375 223.964844c0 4.875-3.953125 8.828125-8.828125 8.828125s-8.828125-3.953125-8.828125-8.828125 3.953125-8.828125 8.828125-8.828125 8.828125 3.953125 8.828125 8.828125zm0 0" fill="#ecf0f1"/><path d="m370.769531 232.792969c0 14.625-11.859375 26.480469-26.484375 26.480469s-26.480468-11.855469-26.480468-26.480469c0-14.628907 11.855468-26.484375 26.480468-26.484375s26.484375 11.855468 26.484375 26.484375zm0 0" fill="#fff"/><path d="m361.941406 232.792969c0 9.75-7.90625 17.652343-17.65625 17.652343s-17.65625-7.902343-17.65625-17.652343 7.90625-17.65625 17.65625-17.65625 17.65625 7.90625 17.65625 17.65625zm0 0" fill="#e57e25"/><path d="m344.285156 241.621094c-1.152344-.015625-2.292968-.253906-3.355468-.707032-1.066407-.449218-2.050782-1.078124-2.910157-1.855468-1.613281-1.691406-2.527343-3.929688-2.5625-6.265625.015625-1.15625.253907-2.292969.707031-3.355469.449219-1.070312 1.074219-2.054688 1.855469-2.914062.84375-.796876 1.832031-1.425782 2.910157-1.851563 1.613281-.707031 3.402343-.890625 5.121093-.53125.554688.097656 1.089844.273437 1.589844.53125.5625.191406 1.097656.457031 1.589844.792969.460937.328125.902343.679687 1.324219 1.058594.777343.859374 1.402343 1.84375 1.851562 2.914062.941406 2.136719.941406 4.570312 0 6.707031-.449219 1.070313-1.074219 2.054688-1.851562 2.914063l-1.324219 1.058594c-.492188.335937-1.027344.601562-1.589844.796874-.5.253907-1.035156.429688-1.589844.527344-.582031.101563-1.171875.160156-1.765625.179688zm0 0" fill="#2c2f38"/><path d="m344.285156 223.964844c0 4.875-3.953125 8.828125-8.828125 8.828125s-8.828125-3.953125-8.828125-8.828125 3.953125-8.828125 8.828125-8.828125 8.828125 3.953125 8.828125 8.828125zm0 0" fill="#ecf0f1"/><path d="m134.71875 403.605469c11.121094 28.425781 61.175781 49.875 121.289062 49.875 60.117188 0 110.171876-21.449219 121.292969-49.875l-121.292969-91.367188zm0 0" fill="#2c2f38"/><path d="m253.273438 335.28125c-4.582032 14.863281-12.597657 28.441406-23.394532 39.632812-23.214844 24.367188-63.558594 40.960938-96.574218 28.25-2.996094-1.144531-5.84375-2.660156-8.472657-4.5-19.6875-13.417968-22.15625-42.109374-18.007812-63.558593 1.21875-5.949219 2.902343-11.792969 5.03125-17.480469 16.859375-45.109375 58.527343-75.035156 103.28125-88.71875 9.296875-2.824219 18.761719-5.066406 28.335937-6.707031 4.875-.78125 9.8125-1.078125 14.742188-.882813 3.460937.070313 6.910156.367188 10.328125.882813 9.578125 1.640625 19.042969 3.882812 28.339843 6.707031 44.753907 13.683594 86.421876 43.609375 103.28125 88.71875 2.128907 5.6875 3.8125 11.53125 5.03125 17.480469 4.148438 21.449219 1.679688 50.140625-18.007812 63.558593-2.628906 1.839844-5.476562 3.355469-8.472656 4.5-33.015625 12.710938-73.359375-3.882812-96.574219-28.25-10.796875-11.191406-18.8125-24.769531-23.394531-39.632812" fill="#59474e"/><g fill="#2c2f38"><path d="m300.148438 294.257812c-3.410157 22.289063-21.667969 39.332032-44.140626 41.199219-22.46875-1.867187-40.726562-18.910156-44.136718-41.199219 0-15.164062 19.765625-20.59375 44.136718-20.59375 24.375 0 44.140626 5.429688 44.140626 20.59375zm0 0"/><path d="m176.5625 329.894531c-1.15625-.011719-2.292969-.253906-3.355469-.707031-1.070312-.449219-2.054687-1.074219-2.914062-1.851562-1.613281-1.691407-2.527344-3.929688-2.558594-6.269532.011719-1.152344.253906-2.292968.707031-3.351562.445313-1.070313 1.074219-2.054688 1.851563-2.914063.84375-.800781 1.832031-1.429687 2.914062-1.855469 1.609375-.703124 3.398438-.886718 5.121094-.527343.550781.09375 1.085937.273437 1.585937.527343.5625.195313 1.097657.460938 1.589844.796876.464844.324218.90625.679687 1.324219 1.058593.777344.859375 1.40625 1.84375 1.855469 2.914063.941406 2.136718.941406 4.570312 0 6.707031-.449219 1.070313-1.078125 2.054687-1.855469 2.914063l-1.324219 1.058593c-.492187.335938-1.027344.601563-1.589844.792969-.5.253906-1.035156.433594-1.585937.53125-.585937.101562-1.175781.160156-1.765625.175781zm0 0"/><path d="m150.078125 365.207031c-1.152344-.015625-2.292969-.253906-3.355469-.707031-1.066406-.449219-2.050781-1.078125-2.910156-1.855469-1.613281-1.691406-2.527344-3.929687-2.5625-6.265625.015625-1.15625.253906-2.292968.707031-3.355468.449219-1.070313 1.074219-2.054688 1.855469-2.914063.84375-.796875 1.832031-1.425781 2.910156-1.851563 1.613282-.703124 3.402344-.890624 5.121094-.53125.554688.097657 1.089844.273438 1.589844.53125.5625.191407 1.097656.460938 1.589844.792969.460937.328125.902343.679688 1.324218 1.058594.777344.859375 1.402344 1.84375 1.851563 2.914063.941406 2.136718.941406 4.570312 0 6.710937-.449219 1.066406-1.074219 2.050781-1.851563 2.910156l-1.324218 1.058594c-.492188.335937-1.027344.601563-1.589844.796875-.5.253906-1.035156.429688-1.589844.527344-.582031.101562-1.171875.164062-1.765625.179687zm0 0"/><path d="m185.390625 365.207031c-1.15625-.015625-2.292969-.253906-3.355469-.707031-1.070312-.449219-2.054687-1.078125-2.914062-1.855469-1.613282-1.691406-2.527344-3.929687-2.558594-6.265625.011719-1.15625.253906-2.292968.707031-3.355468.445313-1.070313 1.074219-2.054688 1.851563-2.914063.84375-.796875 1.832031-1.425781 2.914062-1.851563 1.609375-.703124 3.398438-.890624 5.121094-.53125.550781.097657 1.085938.273438 1.585938.53125.5625.191407 1.097656.460938 1.589843.792969.460938.328125.90625.679688 1.324219 1.058594.777344.859375 1.40625 1.84375 1.855469 2.914063.941406 2.136718.941406 4.570312 0 6.710937-.449219 1.066406-1.078125 2.050781-1.855469 2.910156l-1.324219 1.058594c-.492187.335937-1.027343.601563-1.589843.796875-.5.253906-1.035157.429688-1.585938.527344-.585938.101562-1.175781.164062-1.765625.179687zm0 0"/><path d="m335.457031 329.894531c1.15625-.011719 2.292969-.253906 3.355469-.707031 1.070312-.449219 2.054688-1.074219 2.914062-1.851562 1.613282-1.691407 2.527344-3.929688 2.558594-6.269532-.011718-1.152344-.253906-2.292968-.707031-3.351562-.445313-1.070313-1.074219-2.054688-1.851563-2.914063-.84375-.800781-1.832031-1.429687-2.914062-1.855469-1.609375-.703124-3.398438-.886718-5.121094-.527343-.550781.09375-1.085937.273437-1.589844.527343-.5625.195313-1.09375.460938-1.585937.796876-.464844.324218-.90625.679687-1.324219 1.058593-.777344.859375-1.40625 1.84375-1.855468 2.914063-.941407 2.136718-.941407 4.570312 0 6.707031.449218 1.070313 1.078124 2.054687 1.855468 2.914063l1.324219 1.058593c.492187.335938 1.023437.601563 1.585937.792969.503907.253906 1.039063.433594 1.589844.53125.585938.101562 1.175782.160156 1.765625.175781zm0 0"/><path d="m361.941406 365.207031c1.152344-.015625 2.292969-.253906 3.355469-.707031 1.066406-.449219 2.050781-1.078125 2.910156-1.855469 1.613281-1.691406 2.527344-3.929687 2.5625-6.265625-.015625-1.15625-.253906-2.292968-.707031-3.355468-.449219-1.070313-1.074219-2.054688-1.855469-2.914063-.84375-.796875-1.832031-1.425781-2.910156-1.851563-1.613281-.703124-3.402344-.890624-5.121094-.53125-.554687.097657-1.089843.273438-1.589843.53125-.5625.191407-1.097657.460938-1.589844.792969-.460938.328125-.902344.679688-1.324219 1.058594-.777344.859375-1.402344 1.84375-1.851563 2.914063-.941406 2.136718-.941406 4.570312 0 6.710937.449219 1.066406 1.074219 2.050781 1.851563 2.910156l1.324219 1.058594c.492187.335937 1.027344.601563 1.589844.796875.5.253906 1.035156.429688 1.589843.527344.582031.101562 1.171875.164062 1.765625.179687zm0 0"/><path d="m326.628906 365.207031c1.15625-.015625 2.292969-.253906 3.355469-.707031 1.070313-.449219 2.054687-1.078125 2.914063-1.855469 1.613281-1.691406 2.527343-3.929687 2.558593-6.265625-.011719-1.15625-.253906-2.292968-.707031-3.355468-.445312-1.070313-1.074219-2.054688-1.851562-2.914063-.84375-.796875-1.832032-1.425781-2.914063-1.851563-1.609375-.703124-3.398437-.890624-5.121094-.53125-.550781.097657-1.085937.273438-1.585937.53125-.5625.191407-1.097656.460938-1.589844.792969-.460938.328125-.90625.679688-1.324219 1.058594-.777343.859375-1.40625 1.84375-1.855469 2.914063-.941406 2.136718-.941406 4.570312 0 6.710937.449219 1.066406 1.078126 2.050781 1.855469 2.910156l1.324219 1.058594c.492188.335937 1.027344.601563 1.589844.796875.5.253906 1.035156.429688 1.585937.527344.585938.101562 1.175781.164062 1.765625.179687zm0 0"/></g><path d="m247.183594 294.585938c0-4.875-5.929688-8.828126-13.242188-8.828126s-13.242187 3.953126-13.242187 8.828126 5.929687 8.828124 13.242187 8.828124 13.242188-3.953124 13.242188-8.828124zm0 0" fill="#464f5d"/></svg>