<svg height="512pt" viewBox="0 -16 512.0331 512" width="512pt" xmlns="http://www.w3.org/2000/svg"><path d="m106.652344 336.078125c-25.140625-30.199219-40.503906-67.328125-44.046875-106.460937l34.515625-123.675782 105.839844-80.859375c34.679687-9.886719 71.429687-9.886719 106.109374 0l105.84375 89.6875 34.515626 114.847657c-3.546876 39.132812-18.910157 76.261718-44.050782 106.460937l-149.363281-18.273437zm0 0" fill="#af8066"/><path d="m1.78125 162.730469c-.15625-1.035157-.304688-2.074219-.441406-3.117188-5.851563-46.007812 7.125-97.199219 45.5-129.765625 33.753906-28.636718 80.046875-33.542968 124.050781-27.609375 8.953125.113281 17.730469 2.480469 25.523437 6.882813 5.605469 4.808594 7.957032 12.410156 6.046876 19.546875-2.089844 7.015625-5.914063 13.390625-11.125 18.535156-13.296876 13.046875-27.472657 25.167969-42.425782 36.28125-14.800781 10.894531-26.390625 25.582031-33.542968 42.515625-6.699219 19.472656-2.4375 40.863281-8.261719 60.574219-3.8125 12.488281-11.203125 23.582031-21.257813 31.910156-8.03125 7.316406-18.472656 11.429687-29.335937 11.558594-11.03125-1.019531-21.304688-6.066407-28.855469-14.179688-14.136719-14.449219-23.214844-33.089843-25.875-53.132812zm0 0" fill="#cb8252"/><path d="m510.25 162.730469c.160156-1.035157.308594-2.074219.441406-3.117188 5.855469-46.007812-7.121094-97.199219-45.496094-129.765625-33.757812-28.636718-80.050781-33.542968-124.054687-27.609375-8.949219.113281-17.726563 2.480469-25.519531 6.882813-5.609375 4.808594-7.960938 12.410156-6.046875 19.546875 2.085937 7.015625 5.914062 13.390625 11.121093 18.535156 13.300782 13.046875 27.472657 25.167969 42.425782 36.28125 14.804687 10.894531 26.390625 25.582031 33.546875 42.515625 6.699219 19.472656 2.433593 40.863281 8.261719 60.574219 3.8125 12.488281 11.203124 23.582031 21.257812 31.910156 8.019531 7.3125 18.445312 11.425781 29.296875 11.566406 11.035156-1.019531 21.308594-6.066406 28.859375-14.179687 14.152344-14.445313 23.242188-33.09375 25.90625-53.140625zm0 0" fill="#cb8252"/><path d="m377.042969 279.050781v-.085937c13.519531-16.566406 14.316406-40.121094 1.941406-57.558594-8.96875-14.671875-15.976563-30.460938-20.832031-46.960938-7.414063-20.65625-25.246094-34.515624-47.847656-28.953124-18.890626 4.675781-28.777344 21.273437-32.835938 39.105468-3.617188 12.582032-4.582031 25.777344-2.824219 38.753906h-37.253906c1.753906-12.976562.792969-26.171874-2.824219-38.753906-4.0625-17.832031-13.949218-34.429687-32.839844-39.105468-22.597656-5.5625-40.429687 8.296874-47.84375 28.953124-4.859374 16.5-11.863281 32.289063-20.835937 46.960938-12.371094 17.4375-11.578125 40.992188 1.945313 57.558594zm0 0" fill="#2c2f38"/><path d="m203.050781 109.210938c-3.890625.003906-7.328125-2.542969-8.457031-6.265626-1.132812-3.722656.3125-7.75 3.550781-9.910156l26.480469-17.652344c4.046875-2.535156 9.375-1.398437 12.027344 2.574219 2.652344 3.96875 1.671875 9.328125-2.21875 12.097657l-26.484375 17.652343c-1.449219.976563-3.152344 1.496094-4.898438 1.503907zm0 0" fill="#59474e"/><path d="m308.980469 109.210938c-1.738281-.003907-3.441407-.519532-4.890625-1.484376l-26.480469-17.65625c-3.960937-2.738281-4.992187-8.148437-2.324219-12.152343 2.671875-4.007813 8.0625-5.136719 12.113282-2.535157l26.484374 17.652344c3.234376 2.160156 4.675782 6.183594 3.550782 9.90625-1.128906 3.722656-4.5625 6.269532-8.453125 6.269532zm0 0" fill="#59474e"/><path d="m211.878906 220.703125c0 14.625-11.855468 26.480469-26.484375 26.480469-14.625 0-26.480469-11.855469-26.480469-26.480469 0-14.628906 11.855469-26.484375 26.480469-26.484375 14.628907 0 26.484375 11.855469 26.484375 26.484375zm0 0" fill="#fff"/><path d="m203.050781 220.703125c0 9.75-7.902343 17.652344-17.65625 17.652344-9.75 0-17.652343-7.902344-17.652343-17.652344 0-9.753906 7.902343-17.65625 17.652343-17.65625 9.753907 0 17.65625 7.902344 17.65625 17.65625zm0 0" fill="#e57e25"/><path d="m185.394531 229.527344c-1.152343-.011719-2.292969-.253906-3.351562-.703125-1.070313-.449219-2.054688-1.078125-2.914063-1.855469-1.613281-1.691406-2.527344-3.929688-2.5625-6.265625.015625-1.15625.253906-2.292969.707032-3.355469.449218-1.070312 1.074218-2.054687 1.855468-2.914062.84375-.796875 1.832032-1.429688 2.914063-1.855469 1.609375-.703125 3.398437-.886719 5.117187-.527344.554688.09375 1.089844.273438 1.589844.527344.5625.195313 1.097656.460937 1.589844.796875.460937.324219.902344.679688 1.324218 1.058594.777344.859375 1.402344 1.84375 1.851563 2.914062.945313 2.136719.945313 4.570313 0 6.707032-.449219 1.070312-1.074219 2.054687-1.851563 2.914062l-1.324218 1.058594c-.492188.335937-1.027344.601562-1.589844.796875-.5.25-1.035156.429687-1.589844.527343-.582031.101563-1.171875.160157-1.765625.175782zm0 0" fill="#2c2f38"/><path d="m185.394531 211.875c0 4.875-3.949219 8.828125-8.828125 8.828125-4.875 0-8.824218-3.953125-8.824218-8.828125s3.949218-8.828125 8.824218-8.828125c4.878906 0 8.828125 3.953125 8.828125 8.828125zm0 0" fill="#ecf0f1"/><path d="m353.121094 220.703125c0 14.625-11.859375 26.480469-26.484375 26.480469s-26.480469-11.855469-26.480469-26.480469c0-14.628906 11.855469-26.484375 26.480469-26.484375s26.484375 11.855469 26.484375 26.484375zm0 0" fill="#fff"/><path d="m344.292969 220.703125c0 9.75-7.90625 17.652344-17.65625 17.652344s-17.65625-7.902344-17.65625-17.652344c0-9.753906 7.90625-17.65625 17.65625-17.65625s17.65625 7.902344 17.65625 17.65625zm0 0" fill="#e57e25"/><path d="m326.636719 229.527344c-1.152344-.011719-2.292969-.253906-3.355469-.703125-1.066406-.449219-2.050781-1.078125-2.910156-1.855469-1.613282-1.691406-2.527344-3.929688-2.5625-6.265625.015625-1.15625.253906-2.292969.707031-3.355469.449219-1.070312 1.074219-2.054687 1.855469-2.914062.84375-.796875 1.832031-1.429688 2.910156-1.855469 1.613281-.703125 3.402344-.886719 5.121094-.527344.554687.09375 1.089844.273438 1.589844.527344.5625.195313 1.097656.460937 1.589843.796875.460938.324219.902344.679688 1.324219 1.058594.777344.859375 1.402344 1.84375 1.851562 2.914062.941407 2.136719.941407 4.570313 0 6.707032-.449218 1.070312-1.074218 2.054687-1.851562 2.914062l-1.324219 1.058594c-.492187.335937-1.027343.601562-1.589843.796875-.5.25-1.035157.429687-1.589844.527343-.582032.101563-1.171875.160157-1.765625.175782zm0 0" fill="#2c2f38"/><path d="m326.636719 211.875c0 4.875-3.953125 8.828125-8.828125 8.828125s-8.828125-3.953125-8.828125-8.828125 3.953125-8.828125 8.828125-8.828125 8.828125 3.953125 8.828125 8.828125zm0 0" fill="#ecf0f1"/><path d="m134.726562 403.609375c7.945313 20.304687 35.75 37.074219 72.914063 44.933594h96.75c37.164063-7.859375 64.972656-24.628907 72.917969-44.933594l-121.292969-85.804687zm0 0" fill="#2c2f38"/><path d="m253.28125 335.285156c-4.582031 14.863282-12.597656 28.4375-23.394531 39.632813-23.214844 24.367187-63.558594 40.960937-96.574219 28.25-3-1.148438-5.84375-2.660157-8.472656-4.503907-19.6875-13.417968-22.160156-42.105468-18.007813-63.558593 1.21875-5.945313 2.902344-11.789063 5.03125-17.476563 16.859375-45.109375 58.527344-75.035156 103.28125-88.71875 9.296875-2.824218 18.761719-5.066406 28.335938-6.707031 4.875-.78125 9.8125-1.078125 14.742187-.882813 3.460938.070313 6.910156.363282 10.328125.882813 9.578125 1.640625 19.042969 3.882813 28.335938 6.707031 44.757812 13.683594 86.421875 43.609375 103.285156 88.71875 2.128906 5.6875 3.8125 11.53125 5.03125 17.476563 4.148437 21.453125 1.675781 50.140625-18.007813 63.558593-2.628906 1.84375-5.476562 3.355469-8.476562 4.503907-33.015625 12.710937-73.355469-3.882813-96.574219-28.25-10.796875-11.195313-18.808593-24.769531-23.390625-39.632813zm0 0" fill="#59474e"/><g fill="#2c2f38"><path d="m300.15625 294.261719c-3.414062 22.289062-21.667969 39.328125-44.140625 41.199219-22.472656-1.871094-40.726563-18.910157-44.136719-41.199219 0-15.164063 19.765625-20.59375 44.136719-20.59375 24.375 0 44.140625 5.429687 44.140625 20.59375zm0 0"/><path d="m176.566406 329.898438c-1.152344-.015626-2.292968-.253907-3.351562-.707032-1.070313-.449218-2.054688-1.074218-2.914063-1.851562-1.613281-1.691406-2.527343-3.933594-2.558593-6.269532.011718-1.152343.253906-2.292968.703124-3.355468.449219-1.066406 1.074219-2.054688 1.855469-2.910156.84375-.800782 1.832031-1.429688 2.914063-1.855469 1.609375-.703125 3.398437-.886719 5.117187-.527344.554688.09375 1.089844.273437 1.589844.527344.5625.195312 1.097656.460937 1.589844.796875.460937.324218.90625.679687 1.324219 1.058594.777343.859374 1.40625 1.84375 1.855468 2.910156.941406 2.140625.941406 4.574218 0 6.710937-.449218 1.070313-1.078125 2.054688-1.855468 2.914063l-1.324219 1.058594c-.492188.332031-1.027344.601562-1.589844.792968-.5.253906-1.035156.433594-1.589844.53125-.582031.101563-1.171875.160156-1.765625.175782zm0 0"/><path d="m150.085938 365.210938c-1.152344-.015626-2.292969-.253907-3.355469-.707032-1.066407-.449218-2.054688-1.078125-2.914063-1.855468-1.609375-1.691407-2.523437-3.929688-2.558594-6.265626.015626-1.15625.253907-2.292968.707032-3.355468.445312-1.070313 1.074218-2.054688 1.851562-2.914063.84375-.796875 1.832032-1.425781 2.914063-1.851562 1.609375-.707031 3.398437-.890625 5.121093-.53125.550782.097656 1.089844.273437 1.589844.53125.5625.191406 1.09375.457031 1.585938.792969.464844.324218.90625.679687 1.324218 1.058593.78125.859375 1.40625 1.84375 1.855469 2.914063.941407 2.136718.941407 4.570312 0 6.707031-.449219 1.070313-1.074219 2.054687-1.855469 2.914063l-1.324218 1.058593c-.492188.335938-1.023438.601563-1.585938.796875-.503906.253906-1.039062.429688-1.589844.527344-.582031.101562-1.175781.160156-1.765624.179688zm0 0"/><path d="m185.394531 365.210938c-1.152343-.015626-2.292969-.253907-3.351562-.707032-1.070313-.449218-2.054688-1.078125-2.914063-1.855468-1.613281-1.691407-2.527344-3.929688-2.5625-6.265626.015625-1.15625.253906-2.292968.707032-3.355468.449218-1.070313 1.074218-2.054688 1.855468-2.914063.84375-.796875 1.832032-1.425781 2.914063-1.851562 1.609375-.707031 3.398437-.890625 5.117187-.53125.554688.097656 1.089844.273437 1.589844.53125.5625.191406 1.097656.457031 1.589844.792969.460937.324218.902344.679687 1.324218 1.058593.777344.859375 1.402344 1.84375 1.851563 2.914063.945313 2.136718.945313 4.570312 0 6.707031-.449219 1.070313-1.074219 2.054687-1.851563 2.914063l-1.324218 1.058593c-.492188.335938-1.027344.601563-1.589844.796875-.5.253906-1.035156.429688-1.589844.527344-.582031.101562-1.171875.160156-1.765625.179688zm0 0"/><path d="m335.464844 329.898438c1.152344-.015626 2.292968-.253907 3.355468-.707032 1.066407-.449218 2.054688-1.074218 2.910157-1.851562 1.613281-1.691406 2.527343-3.933594 2.5625-6.269532-.015625-1.152343-.253907-2.292968-.707031-3.355468-.445313-1.066406-1.074219-2.054688-1.855469-2.910156-.839844-.800782-1.832031-1.429688-2.910157-1.855469-1.609374-.703125-3.402343-.886719-5.121093-.527344-.554688.09375-1.089844.273437-1.589844.527344-.5625.195312-1.097656.460937-1.589844.796875-.460937.324218-.902343.679687-1.324219 1.058594-.777343.859374-1.402343 1.84375-1.851562 2.910156-.941406 2.140625-.941406 4.574218 0 6.710937.449219 1.070313 1.074219 2.054688 1.851562 2.914063l1.324219 1.058594c.492188.332031 1.027344.601562 1.589844.792968.503906.253906 1.039063.433594 1.589844.53125.582031.101563 1.171875.160156 1.765625.175782zm0 0"/><path d="m361.949219 365.210938c1.152343-.015626 2.292969-.253907 3.351562-.707032 1.070313-.449218 2.054688-1.078125 2.914063-1.855468 1.613281-1.691407 2.527344-3.929688 2.558594-6.265626-.011719-1.15625-.253907-2.292968-.703126-3.355468-.449218-1.070313-1.074218-2.054688-1.855468-2.914063-.84375-.796875-1.832032-1.425781-2.914063-1.851562-1.609375-.707031-3.398437-.890625-5.117187-.53125-.554688.097656-1.089844.273437-1.589844.53125-.5625.191406-1.097656.457031-1.589844.792969-.460937.324218-.902344.679687-1.324218 1.058593-.777344.859375-1.40625 1.84375-1.851563 2.914063-.945313 2.136718-.945313 4.570312 0 6.707031.449219 1.070313 1.074219 2.054687 1.851563 2.914063l1.324218 1.058593c.492188.335938 1.027344.601563 1.589844.796875.5.253906 1.035156.429688 1.589844.527344.582031.101562 1.171875.160156 1.765625.179688zm0 0"/><path d="m326.636719 365.210938c1.152343-.015626 2.292969-.253907 3.355469-.707032 1.066406-.449218 2.054687-1.078125 2.914062-1.855468 1.609375-1.691407 2.523438-3.929688 2.558594-6.265626-.015625-1.15625-.253906-2.292968-.707032-3.355468-.445312-1.070313-1.074218-2.054688-1.851562-2.914063-.84375-.796875-1.832031-1.425781-2.914062-1.851562-1.609376-.707031-3.398438-.890625-5.121094-.53125-.550782.097656-1.089844.273437-1.589844.53125-.5625.191406-1.09375.457031-1.585938.792969-.464843.324218-.90625.679687-1.324218 1.058593-.78125.859375-1.40625 1.84375-1.855469 2.914063-.941406 2.136718-.941406 4.570312 0 6.707031.449219 1.070313 1.078125 2.054687 1.855469 2.914063l1.324218 1.058593c.492188.335938 1.023438.601563 1.585938.796875.503906.253906 1.039062.429688 1.589844.527344.585937.101562 1.175781.160156 1.765625.179688zm0 0"/></g><path d="m256.015625 291.320312c0-4.875-5.925781-8.824218-13.242187-8.824218-7.3125 0-13.238282 3.949218-13.238282 8.824218 0 4.878907 5.925782 8.828126 13.238282 8.828126 7.316406 0 13.242187-3.949219 13.242187-8.828126zm0 0" fill="#464f5d"/><path d="m308.980469 395.222656v31.78125c.035156 7.425782-1.53125 14.769532-4.589844 21.539063-1.320313 3.039062-2.949219 5.9375-4.855469 8.648437h-.085937c-9.859375 14.265625-26.09375 22.777344-43.433594 22.777344s-33.570313-8.511719-43.429687-22.777344h-.089844c-1.90625-2.710937-3.53125-5.609375-4.855469-8.648437-3.054687-6.769531-4.621094-14.113281-4.589844-21.539063v-31.78125c9.941407-5.339844 18.996094-12.1875 26.835938-20.304687 10.796875-11.195313 18.8125-24.769531 23.394531-39.632813h5.472656c4.582032 14.863282 12.59375 28.4375 23.390625 39.632813 7.84375 8.117187 16.894531 14.964843 26.835938 20.304687zm0 0" fill="#fb7b76"/><path d="m256.015625 436.800781c-4.875 0-8.828125-3.953125-8.828125-8.828125v-26.480468c0-4.878907 3.953125-8.828126 8.828125-8.828126s8.828125 3.949219 8.828125 8.828126v26.480468c0 4.875-3.953125 8.828125-8.828125 8.828125zm0 0" fill="#d75e72"/></svg>