<svg height="512pt" viewBox="-41 0 511 512" width="512pt" xmlns="http://www.w3.org/2000/svg"><path d="m303.582031 455.855469c-1.0625 31.074219-40.167969 56.144531-88.277343 56.144531-48.109376 0-87.214844-25.070312-88.277344-56.144531l88.277344-85.980469zm0 0" fill="#a5a5a4"/><path d="m383.027344 247.171875s105.933594-123.585937 0-247.171875c-57.460938 2.640625-106.582032 42.222656-121.378906 97.808594h-92.6875c-14.796876-55.585938-63.917969-95.167969-121.378907-97.808594-105.933593 123.585938 0 247.171875 0 247.171875zm0 0" fill="#2c3e50"/><path d="m365.109375 203.035156s60.203125-76.535156 0-158.898437c0 0-53.761719 0-69.738281 67.796875h-160.132813c-15.976562-67.796875-69.738281-67.796875-69.738281-67.796875-60.203125 82.363281 0 158.898437 0 158.898437zm0 0" fill="#fdd7ad"/><path d="m338.273438 400.3125c1.597656-.050781 3.1875-.199219 4.765624-.441406 65.941407-8.121094 72.738282-80.152344 62.765626-110.167969-11.917969-35.664063-23.835938-23.746094-47.667969-107.078125-18.628907-65.324219-95.691407-86.773438-128.265625-92.953125-9.621094-1.855469-19.511719-1.855469-29.132813 0-32.574219 6.179687-109.636719 27.628906-128.265625 92.953125-23.832031 83.332031-35.75 71.414062-47.667968 107.078125-9.972657 30.015625-3.175782 102.046875 62.765624 110.167969 1.578126.242187 3.167969.390625 4.765626.441406" fill="#2c2f38"/><path d="m338.890625 407.332031c6.417969-11.164062 12.121094-22.722656 17.082031-34.605469 8.15625-19.421874 23.550782-52.691406 4.597656-70.621093-9.363281-8.828125-22.175781-12.121094-31.265624-21.757813-10.175782-10.804687-16.589844-24.609375-18.28125-39.355468-1.828126-16.03125 5.046874-32.113282.308593-47.878907-5.328125-15.527343-17.097656-28-32.292969-34.214843-8.148437-3.894532-31.257812-12.871094-37.25-.882813-5.996093 11.984375-7.945312 48.816406-8.546874 70.917969-.277344 9.695312-8.238282 17.398437-17.9375 17.355468-9.6875.027344-17.632813-7.671874-17.910157-17.355468-.609375-22.066406-2.515625-58.859375-8.546875-70.917969-6.027344-12.058594-29.128906-3.011719-37.25.882813-15.207031 6.226562-26.980468 18.71875-32.292968 34.265624-4.742188 15.765626 2.136718 31.851563.308593 47.882813-1.695312 14.738281-8.109375 28.535156-18.28125 39.335937-9.09375 9.640626-21.902343 12.90625-31.269531 21.757813-18.949219 17.914063-3.527344 51.199219 4.601562 70.621094 4.949219 11.871093 10.648438 23.417969 17.054688 34.570312" fill="#bdc3c7"/><path d="m263.386719 343.394531c13.722656 3.109375 26.949219 8.089844 39.3125 14.800781 10.226562 5.519532 19.234375 13.046876 26.480469 22.132813 6.109374 7.691406 9.523437 17.179687 9.710937 27.003906-.214844 9.804688-3.605469 19.273438-9.667969 26.984375-7.25 9.050782-16.257812 16.542969-26.480468 22.027344-1.605469.898438-3.253907 1.78125-4.945313 2.648438-18.246094 9.597656-39.824219 10.570312-58.859375 2.644531-10.726562-4.039063-19.289062-12.363281-23.632812-22.96875-4.34375 10.59375-12.894532 18.90625-23.605469 22.953125-19.035157 7.921875-40.613281 6.949218-58.863281-2.648438-1.683594-.847656-3.328126-1.730468-4.941407-2.648437-10.222656-5.480469-19.230469-12.972657-26.484375-22.023438-6.066406-7.703125-9.464844-17.167969-9.691406-26.96875.175781-9.816406 3.570312-19.304687 9.664062-27.003906 7.25-9.085937 16.257813-16.613281 26.484376-22.132813 12.378906-6.714843 25.621093-11.695312 39.355468-14.800781zm0 0" fill="#bdc3c7"/><path d="m336.242188 375.023438c-7.996094-10.082032-17.957032-18.433594-29.28125-24.542969-13.074219-7.117188-27.066407-12.398438-41.585938-15.695313-3.101562-.8125-6.398438.121094-8.613281 2.4375-2.21875 2.316406-3.003907 5.652344-2.054688 8.714844.945313 3.058594 3.480469 5.367188 6.617188 6.027344 12.898437 2.917968 25.339843 7.59375 36.96875 13.894531 9.195312 4.914063 17.300781 11.632813 23.835937 19.757813 10.550782 12.53125 10.585938 30.832031.078125 43.402343-6.546875 8.089844-14.652343 14.78125-23.835937 19.679688-1.492188.832031-3.023438 1.644531-4.589844 2.425781-15.886719 8.386719-34.675781 9.28125-51.289062 2.445312-8.078126-3.007812-14.667969-9.050781-18.359376-16.84375v-13.886718c0-4.875-3.953124-8.824219-8.828124-8.824219s-8.828126 3.949219-8.828126 8.824219v13.914062c-3.714843 7.773438-10.3125 13.789063-18.394531 16.773438-16.609375 6.832031-35.398437 5.9375-51.28125-2.445313-1.566406-.785156-3.09375-1.59375-4.582031-2.429687-9.132812-4.875-17.203125-11.53125-23.726562-19.570313-4.941407-6.195312-7.726563-13.832031-7.945313-21.75.175781-7.902343 2.949219-15.527343 7.890625-21.699219 6.507812-8.105468 14.585938-14.8125 23.746094-19.71875 11.660156-6.332031 24.136718-11.023437 37.078125-13.949218 3.136719-.660156 5.667969-2.96875 6.617187-6.027344.945313-3.0625.160156-6.398438-2.054687-8.714844-2.21875-2.316406-5.515625-3.25-8.617188-2.4375-14.5625 3.300782-28.597656 8.597656-41.710937 15.742188-11.292969 6.101562-21.226563 14.441406-29.199219 24.503906-7.253906 9.21875-11.265625 20.570312-11.40625 32.300781.195313 11.746094 4.222656 23.109375 11.476563 32.351563 8 10.007812 17.9375 18.300781 29.21875 24.382812 1.722656.960938 3.53125 1.898438 5.296874 2.796875 11.472657 5.792969 24.136719 8.835938 36.988282 8.890625 10.132812.058594 20.160156-2.027344 29.429687-6.117187 7.582031-3.210938 14.398438-7.988281 20.003907-14.019531 5.605468 6.027343 12.417968 10.800781 19.996093 14.011718 21.460938 8.984375 45.804688 7.96875 66.445313-2.773437 1.765625-.882813 3.527344-1.835938 5.292968-2.808594 11.308594-6.089844 21.265626-14.402344 29.28125-24.433594 15.21875-18.824219 15.21875-45.722656 0-64.546875zm0 0" fill="#2c2f38"/><path d="m259.441406 387.53125c0 12.976562-19.773437 35.308594-44.136718 35.308594-24.363282 0-44.136719-22.332032-44.136719-35.308594.007812-1.542969.308593-3.070312.882812-4.503906 4.148438-9.53125 21.890625-13.152344 43.253907-13.152344 24.363281 0 44.136718 4.652344 44.136718 17.65625zm0 0" fill="#2c2f38"/><path d="m197.648438 291.308594c0 14.628906-11.855469 26.484375-26.480469 26.484375-14.628907 0-26.484375-11.855469-26.484375-26.484375 0-14.625 11.855468-26.480469 26.484375-26.480469 14.625 0 26.480469 11.855469 26.480469 26.480469zm0 0" fill="#fff"/><path d="m188.820312 291.308594c0 9.753906-7.902343 17.65625-17.652343 17.65625-9.753907 0-17.65625-7.902344-17.65625-17.65625 0-9.75 7.902343-17.652344 17.65625-17.652344 9.75 0 17.652343 7.902344 17.652343 17.652344zm0 0" fill="#b0d3f0"/><g fill="#2c2f38"><path d="m135.855469 406.070312c-1.152344-.015624-2.292969-.253906-3.355469-.707031-1.066406-.449219-2.050781-1.078125-2.910156-1.855469-1.613282-1.691406-2.527344-3.929687-2.5625-6.265624.015625-1.15625.253906-2.292969.707031-3.355469.449219-1.070313 1.074219-2.054688 1.855469-2.914063.84375-.796875 1.832031-1.425781 2.910156-1.851562 1.613281-.703125 3.402344-.890625 5.121094-.53125.554687.097656 1.089844.273437 1.589844.53125.5625.191406 1.097656.460937 1.589843.792968.460938.328126.902344.679688 1.324219 1.058594.777344.859375 1.402344 1.84375 1.851562 2.914063.941407 2.136719.941407 4.570312 0 6.710937-.449218 1.066406-1.074218 2.050782-1.851562 2.910156l-1.324219 1.058594c-.492187.335938-1.027343.601563-1.589843.796875-.5.253907-1.035157.429688-1.589844.527344-.582032.101563-1.171875.164063-1.765625.179687zm0 0"/><path d="m171.167969 300.136719c-1.15625-.011719-2.292969-.253907-3.355469-.703125-1.070312-.449219-2.054688-1.078125-2.914062-1.855469-1.613282-1.691406-2.527344-3.929687-2.558594-6.269531.011718-1.152344.253906-2.292969.707031-3.351563.445313-1.070312 1.074219-2.054687 1.851563-2.914062.84375-.800781 1.832031-1.429688 2.914062-1.855469 1.609375-.703125 3.398438-.886719 5.121094-.527344.550781.09375 1.085937.273438 1.585937.527344.5625.195312 1.097657.460938 1.589844.796875.464844.324219.90625.679687 1.324219 1.058594.777344.859375 1.40625 1.84375 1.855468 2.914062.941407 2.136719.941407 4.570313 0 6.707031-.449218 1.070313-1.078124 2.054688-1.855468 2.914063l-1.324219 1.058594c-.492187.335937-1.027344.601562-1.589844.796875-.5.25-1.035156.429687-1.585937.527344-.585938.101562-1.175782.160156-1.765625.175781zm0 0"/><path d="m144.683594 441.378906c-1.152344-.011718-2.292969-.253906-3.355469-.707031-1.066406-.449219-2.050781-1.074219-2.910156-1.851563-1.613281-1.691406-2.527344-3.929687-2.5625-6.269531.015625-1.152343.253906-2.292969.707031-3.355469.449219-1.066406 1.074219-2.054687 1.855469-2.910156.839843-.800781 1.832031-1.429687 2.910156-1.855468 1.613281-.703126 3.402344-.886719 5.121094-.527344.554687.09375 1.089843.273437 1.589843.527344.5625.195312 1.097657.460937 1.589844.796874.460938.324219.902344.679688 1.324219 1.058594.777344.859375 1.402344 1.84375 1.851563 2.910156.941406 2.140626.941406 4.574219 0 6.710938-.449219 1.070312-1.074219 2.054688-1.851563 2.914062l-1.324219 1.058594c-.492187.332032-1.027344.601563-1.589844.792969-.5.253906-1.035156.433594-1.589843.53125-.582031.101563-1.171875.160156-1.765625.175781zm0 0"/><path d="m294.753906 406.070312c1.152344-.015624 2.292969-.253906 3.351563-.707031 1.070312-.449219 2.054687-1.078125 2.914062-1.855469 1.613281-1.691406 2.527344-3.929687 2.5625-6.265624-.015625-1.15625-.253906-2.292969-.707031-3.355469-.449219-1.070313-1.074219-2.054688-1.855469-2.914063-.84375-.796875-1.832031-1.425781-2.914062-1.851562-1.609375-.703125-3.398438-.890625-5.117188-.53125-.554687.097656-1.089843.273437-1.589843.53125-.5625.191406-1.097657.460937-1.589844.792968-.460938.328126-.902344.679688-1.324219 1.058594-.777344.859375-1.402344 1.84375-1.851563 2.914063-.945312 2.136719-.945312 4.570312 0 6.710937.449219 1.066406 1.074219 2.050782 1.851563 2.910156l1.324219 1.058594c.492187.335938 1.027344.601563 1.589844.796875.5.253907 1.035156.429688 1.589843.527344.582031.101563 1.171875.164063 1.765625.179687zm0 0"/><path d="m285.925781 441.378906c1.152344-.011718 2.292969-.253906 3.355469-.707031 1.066406-.449219 2.050781-1.074219 2.910156-1.851563 1.613282-1.691406 2.527344-3.929687 2.5625-6.269531-.015625-1.152343-.253906-2.292969-.707031-3.355469-.449219-1.066406-1.074219-2.054687-1.855469-2.910156-.84375-.800781-1.832031-1.429687-2.910156-1.855468-1.613281-.703126-3.402344-.886719-5.121094-.527344-.554687.09375-1.089844.273437-1.589844.527344-.5625.195312-1.097656.460937-1.589843.796874-.460938.324219-.902344.679688-1.324219 1.058594-.777344.859375-1.402344 1.84375-1.851562 2.910156-.941407 2.140626-.941407 4.574219 0 6.710938.449218 1.070312 1.074218 2.054688 1.851562 2.914062l1.324219 1.058594c.492187.332032 1.027343.601563 1.589843.792969.5.253906 1.035157.433594 1.589844.53125.582032.101563 1.171875.160156 1.765625.175781zm0 0"/></g><path d="m171.167969 282.484375c0 4.875-3.953125 8.824219-8.828125 8.824219s-8.828125-3.949219-8.828125-8.824219c0-4.878906 3.953125-8.828125 8.828125-8.828125s8.828125 3.949219 8.828125 8.828125zm0 0" fill="#fff"/><path d="m285.925781 291.308594c0 14.628906-11.855469 26.484375-26.484375 26.484375-14.625 0-26.480468-11.855469-26.480468-26.484375 0-14.625 11.855468-26.480469 26.480468-26.480469 14.628906 0 26.484375 11.855469 26.484375 26.480469zm0 0" fill="#fff"/><path d="m277.097656 291.308594c0 9.753906-7.90625 17.65625-17.65625 17.65625s-17.652344-7.902344-17.652344-17.65625c0-9.75 7.902344-17.652344 17.652344-17.652344s17.65625 7.902344 17.65625 17.652344zm0 0" fill="#b0d3f0"/><path d="m259.441406 300.136719c-1.152344-.011719-2.292968-.253907-3.351562-.703125-1.070313-.449219-2.054688-1.078125-2.914063-1.855469-1.613281-1.691406-2.527343-3.929687-2.5625-6.269531.015625-1.152344.253907-2.292969.707031-3.351563.449219-1.070312 1.074219-2.054687 1.855469-2.914062.84375-.800781 1.832031-1.429688 2.914063-1.855469 1.609375-.703125 3.398437-.886719 5.117187-.527344.554688.09375 1.089844.273438 1.589844.527344.5625.195312 1.097656.460938 1.589844.796875.460937.324219.902343.679687 1.324219 1.058594.777343.859375 1.402343 1.84375 1.851562 2.914062.945312 2.136719.945312 4.570313 0 6.707031-.449219 1.070313-1.074219 2.054688-1.851562 2.914063l-1.324219 1.058594c-.492188.335937-1.027344.601562-1.589844.796875-.5.25-1.035156.429687-1.589844.527344-.582031.101562-1.171875.160156-1.765625.175781zm0 0" fill="#2c2f38"/><path d="m259.441406 282.484375c0 4.875-3.949218 8.824219-8.828125 8.824219-4.875 0-8.824219-3.949219-8.824219-8.824219 0-4.878906 3.949219-8.828125 8.824219-8.828125 4.878907 0 8.828125 3.949219 8.828125 8.828125zm0 0" fill="#fff"/><path d="m224.132812 388.414062c0-4.875-8.035156-8.828124-17.945312-8.828124-9.914062 0-17.949219 3.953124-17.949219 8.828124s8.035157 8.828126 17.949219 8.828126c9.910156 0 17.945312-3.953126 17.945312-8.828126zm0 0" fill="#464f5d"/></svg>