<svg height="512pt" viewBox="0 -1 512.09465 512" width="512pt" xmlns="http://www.w3.org/2000/svg"><path d="m450.246094 280.503906c11.300781-5.5 20.800781-14.300781 27.101562-25.203125 9.398438-13.097656 17.300782-27.296875 23.5-42.296875 28.898438-73.203125-.601562-149.703125-57.601562-207.5-6.097656-6.402344-15.898438-7.300781-23-2-22.199219 16.796875-67.097656 58.898438-67.097656 126.296875h-194.199219c0-67.398437-44.800781-109.597656-67.101563-126.296875-7.101562-5.203125-17-4.402344-23 2-57 57.898438-86.5 134.398438-57.601562 207.597656 6.203125 15 14 29.101563 23.5 42.300782 6.300781 10.898437 15.800781 19.601562 27.101562 25.199218h388.398438zm0 0" fill="#7f5b53"/><path d="m65.449219 196.003906c-31.203125-51.800781 14-116.402344 14-116.402344l-8.800781-8.800781s4.097656 2.800781 10.199218 7.601563c14.5 11.5 39.5 34.601562 42.398438 58.398437zm0 0" fill="#f09372"/><path d="m86.347656 71.300781c-6.398437-5-10.699218-7.898437-10.699218-7.898437-4-2.699219-9.5-1.699219-12.300782 2.300781-2.800781 4-1.699218 9.5 2.300782 12.300781.097656 0 1.199218.796875 3 2.097656-10.601563 17.5-39.300782 72.902344-10.699219 120.402344 1.597656 2.699219 4.597656 4.296875 7.699219 4.296875 3.199218-.097656 6-1.796875 7.597656-4.597656 1.5-2.800781 1.5-6.101563-.199219-8.800781-22.398437-37.199219-.097656-83.300782 9.601563-100.199219 12.300781 10.800781 29.699218 28.898437 31.898437 46.597656.5 4.402344 4.300781 7.703125 8.699219 7.800781.402344 0 .703125 0 1.101562-.097656 4.800782-.601562 8.300782-5 7.699219-9.800781-3.300781-27.101563-30-51.902344-45.699219-64.402344zm0 0" fill="#59474e"/><path d="m448.046875 196.003906c31.199219-51.800781-14-116.402344-14-116.402344l8.800781-8.800781s-4.101562 2.800781-10.199218 7.601563c-14.5 11.5-39.5 34.601562-42.402344 58.398437zm0 0" fill="#f09372"/><path d="m427.148438 71.300781c6.398437-5 10.699218-7.898437 10.699218-7.898437 4-2.699219 9.5-1.699219 12.300782 2.300781 2.699218 4 1.699218 9.5-2.300782 12.300781-.101562 0-1.199218.796875-3 2.097656 10.601563 17.5 39.398438 72.902344 10.800782 120.402344-1.601563 2.699219-4.601563 4.296875-7.699219 4.296875-3.203125-.097656-6-1.796875-7.601563-4.597656-1.5-2.800781-1.5-6.101563.199219-8.800781 22.402344-37.199219.101563-83.300782-9.597656-100.199219-12.300781 10.800781-29.703125 28.898437-31.902344 46.597656-.5 4.402344-4.300781 7.703125-8.699219 7.800781-.398437 0-.699218 0-1.101562-.097656-4.796875-.601562-8.296875-5-7.699219-9.800781 3.199219-27.101563 29.902344-51.902344 45.601563-64.402344zm0 0" fill="#59474e"/><path d="m61.949219 336.300781c-.101563-.898437-.101563-1.898437-.101563-2.796875v-114.800781c0-48.800781 39.5-88.300781 88.300782-88.300781h211.800781c48.796875 0 88.296875 39.5 88.296875 88.300781v114.800781c0 1 0 1.898438-.097656 2.796875zm0 0" fill="#7f5b53"/><path d="m256.046875 466.902344c-.597656 0-1-.398438-1-1v-26.5c0-.601563.402344-1 1-1 .601563 0 1 .398437 1 1v26.5c0 .601562-.398437 1-1 1zm0 0"/><path d="m152.746094 447.703125c10.703125 25.597656 52.902344 44.699219 103.300781 44.699219 50.402344 0 92.601563-19.101563 103.300781-44.699219l-103.300781-123zm0 0" fill="#59474e"/><path d="m203.046875 438.503906v18.597656c0 10.800782 3.300781 21.300782 9.402344 30.199219h.097656c9.902344 14.300781 26.101563 22.800781 43.402344 22.800781 17.296875 0 33.597656-8.5 43.398437-22.800781h.101563c6.199219-8.796875 9.5-19.398437 9.398437-30.199219v-18.597656l-53-96.101562zm0 0" fill="#ff5364"/><path d="m185.449219 213.300781c11.097656-23 33.398437-23 44.597656-11.5s11.101563 34.402344 0 57.402344c-8.300781 15-19.898437 28-33.800781 38-6.296875 4.898437-15.199219 4.898437-21.5 0-14-10-25.5-23-33.796875-38-11.101563-23-11.101563-45.902344 0-57.402344 11-11.398437 33.296875-11.398437 44.5 11.5zm0 0" fill="#ff5364"/><path d="m165.527344 209.863281c-2.1875-4.339843-9.238282-5.195312-15.746094-1.914062-6.511719 3.285156-10.011719 9.464843-7.824219 13.804687 2.191407 4.335938 9.242188 5.191406 15.75 1.910156 6.507813-3.285156 10.011719-9.464843 7.820313-13.800781zm0 0" fill="#fb7b76"/><path d="m218.523438 209.851562c-2.191407-4.339843-9.242188-5.195312-15.75-1.910156-6.507813 3.28125-10.007813 9.460938-7.820313 13.800782 2.1875 4.339843 9.238281 5.195312 15.75 1.910156 6.507813-3.28125 10.007813-9.460938 7.820313-13.800782zm0 0" fill="#fb7b76"/><path d="m326.648438 213.300781c11.097656-23 33.398437-23 44.597656-11.5 11.203125 11.5 11.101562 34.402344 0 57.402344-8.296875 15-19.898438 28-33.796875 38-6.300781 4.898437-15.203125 4.898437-21.5 0-14-10-25.5-23-33.800781-38-11.101563-23-11.101563-45.902344 0-57.402344 11.097656-11.398437 33.398437-11.398437 44.5 11.5zm0 0" fill="#ff5364"/><path d="m306.820312 209.839844c-2.191406-4.339844-9.242187-5.195313-15.75-1.910156-6.507812 3.28125-10.011718 9.460937-7.820312 13.800781 2.1875 4.339843 9.238281 5.195312 15.746094 1.910156 6.511718-3.28125 10.011718-9.460937 7.824218-13.800781zm0 0" fill="#fb7b76"/><path d="m359.722656 209.875c-2.1875-4.339844-9.238281-5.195312-15.746094-1.914062-6.507812 3.285156-10.011718 9.464843-7.820312 13.804687 2.1875 4.339844 9.238281 5.195313 15.746094 1.910156 6.507812-3.28125 10.011718-9.460937 7.820312-13.800781zm0 0" fill="#fb7b76"/><path d="m308.148438 299.402344c15.597656-6.800782 32.398437-10.199219 49.398437-10.101563 56.101563 0 101.5 35.601563 101.5 79.402344s-45.5 79.398437-101.5 79.398437-101.5-35.398437-101.5-79.300781" fill="#cb9080"/><path d="m256.046875 368.800781c0 43.902344-45.5 79.402344-101.5 79.402344s-101.5-35.5-101.5-79.402344c0-43.898437 45.5-79.398437 101.5-79.398437 17-.101563 33.800781 3.300781 49.402344 10.101562" fill="#cb9080"/><g fill="#2c3e50"><path d="m370.847656 368.800781c.601563 0 1.199219-.097656 1.800782-.199219.597656-.097656 1.097656-.300781 1.597656-.5.601562-.199218 1.101562-.5 1.601562-.800781.5-.296875.898438-.699219 1.300782-1.097656 1.597656-1.699219 2.5-3.902344 2.597656-6.300781 0-1.199219-.296875-2.300782-.699219-3.398438-.398437-1.101562-1.097656-2.101562-1.898437-2.902344l-1.300782-1.097656c-.5-.300781-1-.601562-1.601562-.800781-.5-.300781-1-.402344-1.597656-.5-1.199219-.300781-2.402344-.300781-3.5 0-.601563.097656-1.101563.300781-1.601563.5-.597656.199219-1.097656.5-1.597656.800781l-1.300781 1.097656c-.800782.902344-1.402344 1.800782-1.902344 2.902344-.5 1.097656-.699219 2.199219-.699219 3.398438 0 2.300781.902344 4.601562 2.601563 6.300781.398437.398437.898437.699219 1.300781 1.097656.5.300781 1 .601563 1.597656.800781.5.300782 1 .402344 1.601563.5.5.101563 1.097656.199219 1.699218.199219zm0 0"/><path d="m370.847656 333.503906c.601563 0 1.199219-.101562 1.800782-.203125.597656-.097656 1.097656-.296875 1.597656-.5.601562-.199219 1.101562-.5 1.601562-.796875.5-.300781.898438-.703125 1.300782-1.101562 1.597656-1.699219 2.5-3.898438 2.597656-6.300782 0-1.199218-.296875-2.300781-.699219-3.398437-.398437-1.101563-1.097656-2.101563-1.898437-2.902344l-1.300782-1.097656c-.5-.300781-1-.601563-1.601562-.800781-.5-.300782-1-.398438-1.597656-.5-1.199219-.300782-2.402344-.300782-3.5 0-.601563.101562-1.101563.300781-1.601563.5-.597656.199218-1.097656.5-1.597656.800781l-1.300781 1.097656c-.800782.902344-1.402344 1.800781-1.902344 2.902344-.5 1.097656-.699219 2.199219-.699219 3.398437 0 2.300782.902344 4.601563 2.601563 6.300782.398437.398437.898437.699218 1.300781 1.101562.5.296875 1 .597656 1.597656.796875.5.300781 1 .402344 1.601563.5.5.101563 1.097656.203125 1.699218.203125zm0 0"/><path d="m105.949219 351.203125c-.601563 0-1.203125-.101563-1.800781-.199219-.601563-.101562-1.101563-.300781-1.601563-.5-.597656-.203125-1.097656-.5-1.597656-.800781s-.902344-.699219-1.300781-1.101563c-1.601563-1.699218-2.5-3.898437-2.601563-6.300781 0-1.199219.300781-2.296875.699219-3.398437.402344-1.101563 1.101562-2.101563 1.902344-2.898438l1.300781-1.101562c.5-.300782 1-.601563 1.597656-.800782.5-.300781 1-.398437 1.601563-.5 1.199218-.300781 2.398437-.300781 3.5 0 .597656.101563 1.097656.300782 1.597656.5.601562.199219 1.101562.5 1.601562.800782l1.300782 1.101562c.800781.898438 1.398437 1.796875 1.898437 2.898438.5 1.101562.699219 2.199218.699219 3.398437 0 2.300781-.898438 4.601563-2.597656 6.300781-.402344.402344-.902344.699219-1.300782 1.101563-.5.300781-1 .597656-1.601562.800781-.5.296875-1 .398438-1.597656.5-.5.097656-1.101563.199219-1.699219.199219zm0 0"/><path d="m141.246094 368.800781c-.597656 0-1.199219-.097656-1.796875-.199219-.601563-.097656-1.101563-.300781-1.601563-.5-.601562-.199218-1.101562-.5-1.601562-.800781-.5-.296875-.898438-.699219-1.296875-1.097656-1.601563-1.699219-2.5-3.902344-2.601563-6.300781 0-1.199219.300782-2.300782.699219-3.398438.402344-1.101562 1.101563-2.101562 1.902344-2.902344l1.296875-1.097656c.5-.300781 1-.601562 1.601562-.800781.5-.300781 1-.402344 1.601563-.5 1.199219-.300781 2.398437-.300781 3.5 0 .597656.097656 1.097656.300781 1.597656.5.601563.199219 1.101563.5 1.601563.800781l1.300781 1.097656c.796875.902344 1.398437 1.800782 1.898437 2.902344.5 1.097656.699219 2.199219.699219 3.398438 0 2.300781-.898437 4.601562-2.597656 6.300781-.402344.398437-.902344.699219-1.300781 1.097656-.5.300781-1 .601563-1.601563.800781-.5.300782-1 .402344-1.597656.5-.5.101563-1.101563.199219-1.703125.199219zm0 0"/><path d="m141.246094 333.503906c-.597656 0-1.199219-.101562-1.796875-.203125-.601563-.097656-1.101563-.296875-1.601563-.5-.601562-.199219-1.101562-.5-1.601562-.796875-.5-.300781-.898438-.703125-1.296875-1.101562-1.601563-1.699219-2.5-3.898438-2.601563-6.300782 0-1.199218.300782-2.300781.699219-3.398437.402344-1.101563 1.101563-2.101563 1.902344-2.902344l1.296875-1.097656c.5-.300781 1-.601563 1.601562-.800781.5-.300782 1-.398438 1.601563-.5 1.199219-.300782 2.398437-.300782 3.5 0 .597656.101562 1.097656.300781 1.597656.5.601563.199218 1.101563.5 1.601563.800781l1.300781 1.097656c.796875.902344 1.398437 1.800781 1.898437 2.902344.5 1.097656.699219 2.199219.699219 3.398437 0 2.300782-.898437 4.601563-2.597656 6.300782-.402344.398437-.902344.699218-1.300781 1.101562-.5.296875-1 .597656-1.601563.796875-.5.300781-1 .402344-1.597656.5-.5.101563-1.101563.203125-1.703125.203125zm0 0"/><path d="m317.847656 315.800781c0 19.5-27.699218 53-61.800781 53-34.097656 0-61.800781-33.5-61.800781-53s27.703125-26.5 61.800781-26.5c34.101563 0 61.800781 7 61.800781 26.5zm0 0"/></g><path d="m253.9375 307.273438c-1.21875-4.707032-11.785156-6.042969-23.601562-2.988282-11.816407 3.054688-20.410157 9.34375-19.195313 14.050782 1.21875 4.707031 11.785156 6.042968 23.601563 2.988281 11.816406-3.054688 20.410156-9.34375 19.195312-14.050781zm0 0" fill="#35495e"/><path d="m406.148438 351.203125c.597656 0 1.199218-.101563 1.800781-.199219.597656-.101562 1.097656-.300781 1.597656-.5.601563-.203125 1.101563-.5 1.601563-.800781s.898437-.699219 1.300781-1.101563c1.597656-1.699218 2.5-3.898437 2.597656-6.300781 0-1.199219-.300781-2.296875-.699219-3.398437-.398437-1.101563-1.101562-2.101563-1.898437-2.898438l-1.300781-1.101562c-.5-.300782-1-.601563-1.601563-.800782-.5-.300781-1-.398437-1.597656-.5-1.203125-.300781-2.402344-.300781-3.5 0-.601563.101563-1.101563.300782-1.601563.5-.601562.199219-1.101562.5-1.601562.800782l-1.296875 1.101562c-.800781.898438-1.402344 1.796875-1.902344 2.898438-.5 1.101562-.699219 2.199218-.699219 3.398437 0 2.300781.898438 4.601563 2.601563 6.300781.398437.402344.898437.699219 1.296875 1.101563.5.300781 1 .597656 1.601562.800781.5.296875 1 .398438 1.601563.5.5.097656 1.097656.199219 1.699219.199219zm0 0" fill="#2c3e50"/></svg>