<svg height="512pt" viewBox="0 -13 512.08648 512" width="512pt" xmlns="http://www.w3.org/2000/svg"><path d="m204.878906 341.375h110.929688v25.601562h-110.929688zm0 0" fill="#2c2f38"/><path d="m486.476562 401.109375c14.222657-10.636719 20.371094-28.96875 15.433594-46.027344-4.9375-17.0625-19.925781-29.277343-37.628906-30.675781-17.707031-1.398438-34.425781 8.320312-41.976562 24.394531l-4.09375 18.175781c-.007813-6.25 1.359374-12.429687 4.011718-18.089843-11.261718 11.808593-26.417968 19.144531-42.667968 20.648437h-.085938c-1.496094.234375-3.007812.378906-4.523438.429688h-237.738281c-1.515625-.050782-3.023437-.195313-4.523437-.429688h-.082032c-16.25-1.503906-31.40625-8.839844-42.667968-20.648437-7.535156-16.078125-24.238282-25.804688-41.9375-24.433594-17.699219 1.375-32.699219 13.566406-37.664063 30.613281-4.960937 17.042969 1.148438 35.382813 15.34375 46.042969-16.050781 12.039063-21.546875 33.636719-13.199219 51.882813 8.347657 18.246093 28.277344 28.210937 47.882813 23.941406 19.605469-4.273438 33.585937-21.625 33.585937-41.691406h324.265626c0 20.066406 13.980468 37.417968 33.585937 41.691406 19.601563 4.269531 39.535156-5.695313 47.878906-23.941406 8.347657-18.246094 2.851563-39.84375-13.199219-51.882813zm-460.714843 0 25.515625 8.535156c-9.210938.019531-18.171875-2.976562-25.515625-8.535156zm64.171875-52.136719c2.640625 5.632813 4.007812 11.78125 4.011718 18.003906zm370.945312 43.605469c9.207032-.023437 18.171875 2.972656 25.511719 8.53125zm0 0" fill="#fdd7ad"/><path d="m460.878906 486.441406c-24.976562-.03125-46.296875-18.046875-50.492187-42.664062h-308.617188c-3.617187 21.46875-20.421875 38.304687-41.886719 41.964844-21.464843 3.65625-42.894531-6.660157-53.421874-25.71875-10.527344-19.0625-7.847657-42.695313 6.679687-58.914063-13.335937-14.820313-16.855469-36.039063-9.019531-54.371094 7.839844-18.335937 25.605468-30.453125 45.535156-31.054687 19.929688-.597656 38.398438 10.425781 47.324219 28.253906 9.796875 9.730469 22.660156 15.761719 36.40625 17.066406.265625.019532.527343.054688.792969.101563 1.074218.167969 2.160156.265625 3.25.300781h237.515624c1.011719-.042969 2.019532-.144531 3.023438-.300781.28125-.050781.566406-.085938.851562-.109375 13.71875-1.320313 26.554688-7.351563 36.328126-17.066406 8.949218-17.792969 27.402343-28.78125 47.308593-28.167969s37.652344 12.710937 45.492188 31.019531c7.84375 18.304688 4.355469 39.5-8.9375 54.328125 13.457031 15.046875 16.820312 36.59375 8.582031 55.023437-8.234375 18.429688-26.53125 30.300782-46.714844 30.308594zm-366.933594-59.730468h324.265626c4.710937 0 8.53125 3.820312 8.53125 8.53125-.003907 15.898437 10.960937 29.691406 26.449218 33.273437 15.484375 3.578125 31.394532-4.003906 38.363282-18.292969 6.96875-14.285156 3.15625-31.492187-9.199219-41.492187l-24.175781-8.054688c-3.972657-1.320312-6.402344-5.332031-5.730469-9.464843.667969-4.132813 4.238281-7.171876 8.429687-7.167969 8.65625-.007813 17.175782 2.195312 24.746094 6.398437 9.222656-9.703125 11.917969-23.90625 6.890625-36.320312-5.023437-12.410156-16.839844-20.738282-30.21875-21.292969s-25.847656 6.761719-31.882813 18.710937l-3.902343 17.304688c-.867188 3.867188-4.28125 6.628906-8.242188 6.664062-3.960937.039063-7.429687-2.652343-8.371093-6.5-9.128907 4.808594-19.082032 7.859376-29.335938 8.992188h-.113281c-1.679688.246094-3.371094.402344-5.066407.472656h-238.636718c-1.695313-.070312-3.386719-.226562-5.066406-.472656h-.113282c-10.253906-1.132812-20.207031-4.183594-29.335937-8.992188-.949219 3.847657-4.421875 6.535157-8.382813 6.488282-3.960937-.042969-7.371094-2.808594-8.230468-6.675782l-3.789063-17.066406c-6.21875-12.488281-19.410156-19.933594-33.316406-18.804687-13.902344 1.125-25.71875 10.601562-29.84375 23.925781-4.128907 13.324219.269531 27.820312 11.105469 36.605469l24.175781 8.054687c3.980469 1.3125 6.425781 5.320313 5.761719 9.460938-.667969 4.140625-4.242188 7.183594-8.433594 7.179687-8.660156.007813-17.175782-2.195312-24.746094-6.398437-10.570312 11.125-12.414062 27.9375-4.511719 41.089844 7.90625 13.152343 23.617188 19.414062 38.402344 15.304687s25.007813-17.582031 24.988281-32.929687c0-4.710938 3.820313-8.53125 8.535156-8.53125zm0 0" fill="#cbb292"/><path d="m452.855469 267.390625c-1.28125 22.957031-4.4375 41.984375-20.90625 59.394531-4.933594 5.167969-10.394531 9.800782-16.296875 13.824219l-95.746094 44.96875c-1.023438-1.023437-1.960938-2.046875-2.988281-3.070313-16.808594-17.410156-32.765625-35.667968-60.839844-35.667968s-44.03125 18.257812-60.84375 35.667968c-1.023437 1.023438-1.960937 2.046876-2.988281 3.070313l-95.742188-44.96875c-5.902344-4.023437-11.367187-8.65625-16.296875-13.824219-16.472656-17.410156-19.628906-36.4375-20.910156-59.394531-2.386719-32.371094-.664063-64.914063 5.121094-96.851563l46.59375-102.230468 59.730469-25.597656 39.253906-3.585938c15.171875-3.078125 30.601562-4.738281 46.082031-4.949219 15.480469.210938 30.90625 1.871094 46.078125 4.949219 13.554688 2.679688 26.859375 6.503906 39.765625 11.4375 7.785156 2.871094 15.394531 6.203125 22.785156 9.980469 5.441407 2.726562 10.710938 5.773437 15.785157 9.132812l67.242187 100.863281c5.789063 31.9375 7.507813 64.480469 5.121094 96.851563zm0 0" fill="#af8066"/><path d="m425.976562 267.390625c-1.023437 21.847656-3.585937 40.195313-16.128906 56.917969-.597656.769531-1.28125 1.621094-1.960937 2.476562-4.164063 5.089844-8.855469 9.722656-13.996094 13.824219l-76.972656 41.898437c-16.808594-17.410156-32.765625-35.667968-60.839844-35.667968s-44.03125 18.257812-60.84375 35.667968l-76.96875-41.898437c-5.140625-4.101563-9.832031-8.734375-13.996094-13.824219-.683593-.855468-1.367187-1.707031-1.964843-2.476562-12.542969-16.722656-15.101563-35.070313-16.125-56.917969-2.070313-32.347656-.582032-64.828125 4.4375-96.851563l40.191406-102.230468 51.625-25.597656 33.878906-3.585938c13.039062-3.078125 26.371094-4.738281 39.765625-4.949219 13.394531.210938 26.726563 1.871094 39.765625 4.949219 11.800781 2.703125 23.316406 6.53125 34.386719 11.4375 6.753906 2.898438 13.308593 6.234375 19.628906 9.980469 4.738281 2.757812 9.296875 5.804687 13.652344 9.132812l58.027343 100.863281c5.015626 32.023438 6.503907 64.503907 4.4375 96.851563zm0 0" fill="#af8066"/><path d="m238.636719 173.609375c-3.792969-7.917969-11.425781-13.296875-20.15625-14.207031-29.523438-3.429688-58.96875 7.054687-79.675781 28.375-5.765626 5.632812-10.96875 11.808594-15.550782 18.441406-4.96875 7.320312-5.789062 16.695312-2.160156 24.765625s11.1875 13.679687 19.960938 14.820313c11.144531 1.523437 21.933593 4.992187 31.882812 10.238281 34.132812 17.066406 42.667969 0 51.199219-8.53125 7.960937-7.964844 38.210937-23.359375 14.5-73.902344zm0 0" fill="#2c2f38"/><path d="m272.871094 173.609375c3.789062-7.917969 11.421875-13.296875 20.15625-14.207031 29.523437-3.429688 58.964844 7.054687 79.675781 28.375 5.761719 5.632812 10.96875 11.808594 15.546875 18.441406 4.972656 7.324219 5.789062 16.703125 2.152344 24.773438-3.632813 8.074218-11.199219 13.679687-19.980469 14.8125-11.132813 1.527343-21.914063 4.992187-31.851563 10.238281-34.136718 17.066406-42.667968 0-51.203124-8.53125-7.960938-7.964844-38.210938-23.359375-14.496094-73.902344zm0 0" fill="#2c2f38"/><path d="m230.476562 213.375c0 14.140625-11.460937 25.601562-25.597656 25.601562-14.140625 0-25.601562-11.460937-25.601562-25.601562 0-14.136719 11.460937-25.597656 25.601562-25.597656 14.136719 0 25.597656 11.460937 25.597656 25.597656zm0 0" fill="#fff"/><path d="m332.878906 213.375c0 14.140625-11.464844 25.601562-25.601562 25.601562-14.140625 0-25.601563-11.460937-25.601563-25.601562 0-14.136719 11.460938-25.597656 25.601563-25.597656 14.136718 0 25.601562 11.460937 25.601562 25.597656zm0 0" fill="#fff"/><path d="m221.945312 136.578125c-3.453124-.003906-6.5625-2.082031-7.882812-5.269531s-.589844-6.859375 1.847656-9.296875l17.066406-17.066407c3.347657-3.234374 8.671876-3.1875 11.964844.101563 3.289063 3.292969 3.335938 8.613281.101563 11.960937l-17.066407 17.070313c-1.601562 1.597656-3.769531 2.496094-6.03125 2.5zm0 0" fill="#59474e"/><path d="m290.210938 136.578125c-2.261719-.003906-4.433594-.902344-6.035157-2.5l-17.066406-17.070313c-3.234375-3.347656-3.1875-8.667968.105469-11.960937 3.292968-3.289063 8.613281-3.335937 11.960937-.101563l17.066407 17.066407c2.441406 2.4375 3.171874 6.109375 1.851562 9.296875s-4.433594 5.265625-7.882812 5.269531zm0 0" fill="#59474e"/><path d="m221.945312 213.375c0 9.425781-7.640624 17.066406-17.066406 17.066406-9.425781 0-17.070312-7.640625-17.070312-17.066406s7.644531-17.066406 17.070312-17.066406c9.425782 0 17.066406 7.640625 17.066406 17.066406zm0 0" fill="#e57e25"/><path d="m204.878906 221.910156c-1.117187-.015625-2.21875-.246094-3.246094-.683594-1.03125-.433593-1.984374-1.039062-2.8125-1.792968-1.558593-1.632813-2.445312-3.796875-2.476562-6.058594.011719-1.113281.246094-2.214844.683594-3.242188.433594-1.03125 1.039062-1.984374 1.792968-2.816406.8125-.769531 1.769532-1.378906 2.8125-1.789062 1.558594-.683594 3.289063-.859375 4.949219-.511719.535157.089844 1.054688.261719 1.539063.511719.542968.183594 1.058594.445312 1.535156.765625.445312.316406.875.660156 1.28125 1.023437.75.832032 1.355469 1.785156 1.789062 2.816406.910157 2.066407.910157 4.421876 0 6.488282-.433593 1.03125-1.039062 1.984375-1.789062 2.8125l-1.28125 1.027344c-.476562.320312-.992188.578124-1.535156.765624-.484375.246094-1.003906.417969-1.539063.511719-.5625.097657-1.132812.15625-1.703125.171875zm0 0" fill="#2c2f38"/><path d="m324.34375 213.375c0 9.425781-7.640625 17.066406-17.066406 17.066406-9.425782 0-17.066406-7.640625-17.066406-17.066406s7.640624-17.066406 17.066406-17.066406c9.425781 0 17.066406 7.640625 17.066406 17.066406zm0 0" fill="#e57e25"/><path d="m307.277344 221.910156c-1.117188-.015625-2.21875-.246094-3.242188-.683594-1.035156-.433593-1.984375-1.039062-2.816406-1.792968-1.558594-1.632813-2.441406-3.796875-2.476562-6.058594.015624-1.113281.246093-2.214844.683593-3.242188.433594-1.03125 1.039063-1.984374 1.792969-2.816406.816406-.769531 1.769531-1.378906 2.816406-1.789062 1.554688-.683594 3.285156-.859375 4.949219-.511719.535156.089844 1.050781.261719 1.535156.511719.542969.183594 1.0625.445312 1.535157.765625.449218.316406.875.660156 1.28125 1.023437.753906.832032 1.359374 1.785156 1.792968 2.816406.910156 2.066407.910156 4.421876 0 6.488282-.433594 1.03125-1.042968 1.984375-1.792968 2.8125l-1.28125 1.027344c-.472657.320312-.992188.578124-1.535157.765624-.484375.246094-1 .417969-1.535156.511719-.566406.097657-1.136719.15625-1.707031.171875zm0 0" fill="#2c2f38"/><path d="m204.878906 204.84375c0 4.710938-3.824218 8.53125-8.535156 8.53125s-8.535156-3.820312-8.535156-8.53125c0-4.714844 3.824218-8.535156 8.535156-8.535156s8.535156 3.820312 8.535156 8.535156zm0 0" fill="#ecf0f1"/><path d="m307.277344 204.84375c0 4.710938-3.820313 8.53125-8.535156 8.53125-4.710938 0-8.53125-3.820312-8.53125-8.53125 0-4.714844 3.820312-8.535156 8.53125-8.535156 4.714843 0 8.535156 3.820312 8.535156 8.535156zm0 0" fill="#ecf0f1"/><path d="m154.957031 368.085938-58.453125-27.476563c-5.902344-4.023437-11.367187-8.65625-16.296875-13.824219-16.472656-17.410156-19.628906-36.4375-20.910156-59.394531-2.386719-32.371094-.664063-64.914063 5.121094-96.851563l46.59375-102.230468 59.730469-25.597656 39.253906-3.585938c4.78125-.9375 9.644531-1.792969 14.507812-2.472656-26.28125 11.433594-130.558594 62.121094-130.558594 146.089844 0 83.113281-12.800781 133.632812 61.011719 185.34375zm0 0" fill="#805333"/><path d="m357.324219 368.085938 58.453125-27.476563c5.902344-4.023437 11.367187-8.65625 16.300781-13.824219 16.46875-17.410156 19.625-36.4375 20.90625-59.394531 2.386719-32.371094.667969-64.914063-5.121094-96.851563l-46.589843-102.230468-59.734376-25.597656-39.253906-3.585938c-4.777344-.9375-9.644531-1.792969-14.507812-2.472656 26.285156 11.433594 130.5625 62.121094 130.5625 146.089844 0 83.113281 12.796875 133.632812-61.015625 185.34375zm0 0" fill="#805333"/><path d="m170.230469 50.5625c-7.785157 2.871094-15.394531 6.203125-22.78125 9.980469-5.441407 2.726562-10.714844 5.773437-15.789063 9.132812-5.695312-12.132812-12.832031-23.535156-21.246094-33.964843l.597657-1.535157s41.898437-8.363281 59.21875 16.386719zm0 0" fill="#59474e"/><path d="m209.996094 39.125c-13.554688 2.679688-26.855469 6.503906-39.765625 11.4375-17.320313-24.75-59.21875-16.386719-59.21875-16.386719l-.597657 1.535157c8.414063 10.429687 15.550782 21.832031 21.246094 33.964843 13.570313 29.097657 20.226563 69.632813-30.632812 91.050781-11.605469 5.191407-23.964844 8.503907-36.609375 9.8125-4.523438.3125-9.066407.199219-13.566407-.339843-11.207031-1.25-21.625-6.382813-29.441406-14.507813-18.433594-19.542968-13.738281-46.59375-5.886718-69.460937 6.171874-19.046875 16.292968-36.582031 29.695312-51.457031 13.550781-14.652344 30.835938-25.332032 50.003906-30.890626 8-2.429687 16.300782-3.722656 24.664063-3.8398432 33.917969 1.0703122 66.148437 15.0507812 90.109375 39.0820312zm0 0" fill="#cb8252"/><path d="m418.210938 358.1875c1.582031 20.425781-10.46875 39.457031-29.609376 46.761719-16.40625 7.402343-35.425781 6.121093-50.691406-3.414063-6.488281-4.738281-12.519531-10.082031-18.003906-15.957031-1.023438-1.023437-1.960938-2.046875-2.988281-3.070313-16.808594-17.410156-32.765625-35.667968-60.839844-35.667968s-44.03125 18.257812-60.84375 35.667968c-1.023437 1.023438-1.960937 2.046876-2.988281 3.070313-5.484375 5.875-11.511719 11.21875-18.003906 15.957031-15.265626 9.535156-34.28125 10.816406-50.6875 3.414063-19.140626-7.304688-31.191407-26.335938-29.609376-46.761719.246094-5.933594 1.105469-11.824219 2.558594-17.578125 1.398438-5.609375 3.339844-11.070313 5.800782-16.300781 1.300781-2.75 2.753906-5.429688 4.355468-8.019532 14.992188-24.570312 40.78125-40.539062 69.460938-43.007812 12.8125-.636719 25.621094 1.367188 37.628906 5.886719h84.652344c12.007812-4.519531 24.816406-6.523438 37.632812-5.886719 28.675782 2.46875 54.46875 18.4375 69.460938 43.007812 1.597656 2.589844 3.050781 5.269532 4.351562 8.019532 2.460938 5.230468 4.40625 10.691406 5.804688 16.300781 1.453125 5.753906 2.308594 11.644531 2.558594 17.578125zm0 0" fill="#59474e"/><g fill="#2c2f38"><path d="m153.675781 324.308594c-1.113281-.011719-2.214843-.242188-3.242187-.679688-1.03125-.4375-1.984375-1.042968-2.816406-1.792968-1.558594-1.636719-2.441407-3.800782-2.472657-6.058594.011719-1.117188.246094-2.21875.683594-3.242188.429687-1.035156 1.035156-1.988281 1.789063-2.816406.816406-.773438 1.773437-1.382812 2.816406-1.792969 1.558594-.679687 3.289062-.859375 4.949218-.511719.535157.09375 1.054688.265626 1.535157.511719.546875.1875 1.0625.445313 1.539062.769531.445313.3125.871094.65625 1.277344 1.023438.753906.828125 1.359375 1.78125 1.792969 2.816406.910156 2.066406.910156 4.417969 0 6.484375-.433594 1.03125-1.039063 1.984375-1.792969 2.816407l-1.277344 1.023437c-.476562.324219-.992187.582031-1.539062.769531-.484375.242188-1 .414063-1.535157.511719-.5625.097656-1.132812.152344-1.707031.167969zm0 0"/><path d="m128.078125 358.441406c-1.117187-.011718-2.21875-.242187-3.242187-.679687-1.035157-.433594-1.988282-1.039063-2.816407-1.792969-1.558593-1.636719-2.445312-3.800781-2.476562-6.058594.015625-1.117187.246093-2.21875.683593-3.242187.433594-1.035157 1.039063-1.988281 1.792969-2.816407.8125-.773437 1.769531-1.378906 2.816407-1.792968 1.554687-.679688 3.285156-.859375 4.949218-.511719.535156.09375 1.050782.265625 1.535156.511719.542969.1875 1.058594.445312 1.535157.769531.445312.316406.875.65625 1.28125 1.023437.75.832032 1.355469 1.78125 1.792969 2.816407.910156 2.066406.910156 4.417969 0 6.484375-.4375 1.035156-1.042969 1.984375-1.792969 2.816406l-1.28125 1.023438c-.476563.324218-.992188.582031-1.535157.769531-.484374.242187-1.003906.414062-1.535156.511719-.566406.097656-1.136718.15625-1.707031.167968zm0 0"/><path d="m162.210938 358.441406c-1.117188-.011718-2.21875-.242187-3.242188-.679687-1.035156-.433594-1.984375-1.039063-2.816406-1.792969-1.558594-1.636719-2.441406-3.800781-2.476563-6.058594.015625-1.117187.246094-2.21875.683594-3.242187.433594-1.035157 1.039063-1.988281 1.792969-2.816407.816406-.773437 1.769531-1.378906 2.816406-1.792968 1.554688-.679688 3.285156-.859375 4.949219-.511719.535156.09375 1.050781.265625 1.535156.511719.542969.1875 1.058594.445312 1.535156.769531.449219.316406.875.65625 1.28125 1.023437.75.832032 1.359375 1.78125 1.792969 2.816407.910156 2.066406.910156 4.417969 0 6.484375-.4375 1.035156-1.042969 1.984375-1.792969 2.816406l-1.28125 1.023438c-.476562.324218-.992187.582031-1.535156.769531-.484375.242187-1 .414062-1.535156.511719-.566407.097656-1.136719.15625-1.707031.167968zm0 0"/><path d="m358.476562 324.308594c1.117188-.011719 2.21875-.242188 3.242188-.679688 1.035156-.4375 1.988281-1.042968 2.816406-1.792968 1.558594-1.636719 2.441406-3.800782 2.476563-6.058594-.015625-1.117188-.246094-2.21875-.683594-3.242188-.433594-1.035156-1.039063-1.988281-1.792969-2.816406-.816406-.773438-1.769531-1.382812-2.816406-1.792969-1.554688-.679687-3.285156-.859375-4.949219-.511719-.535156.09375-1.050781.265626-1.535156.511719-.542969.1875-1.058594.445313-1.535156.769531-.449219.3125-.875.65625-1.28125 1.023438-.75.828125-1.359375 1.78125-1.792969 2.816406-.910156 2.066406-.910156 4.417969 0 6.484375.4375 1.03125 1.042969 1.984375 1.792969 2.816407l1.28125 1.023437c.476562.324219.992187.582031 1.535156.769531.484375.242188 1 .414063 1.535156.511719.566407.097656 1.136719.152344 1.707031.167969zm0 0"/><path d="m384.078125 358.441406c1.113281-.011718 2.214844-.242187 3.242187-.679687 1.03125-.433594 1.984376-1.039063 2.816407-1.792969 1.558593-1.636719 2.441406-3.800781 2.472656-6.058594-.011719-1.117187-.246094-2.21875-.679687-3.242187-.433594-1.035157-1.039063-1.988281-1.792969-2.816407-.816407-.773437-1.773438-1.378906-2.816407-1.792968-1.558593-.679688-3.285156-.859375-4.949218-.511719-.535156.09375-1.054688.265625-1.535156.511719-.546876.1875-1.0625.445312-1.539063.769531-.445313.316406-.871094.65625-1.277344 1.023437-.753906.832032-1.359375 1.78125-1.792969 2.816407-.910156 2.066406-.910156 4.417969 0 6.484375.433594 1.035156 1.039063 1.984375 1.792969 2.816406l1.277344 1.023438c.476563.324218.992187.582031 1.539063.769531.484374.242187 1 .414062 1.535156.511719.5625.097656 1.132812.15625 1.707031.167968zm0 0"/><path d="m349.945312 358.441406c1.113282-.011718 2.214844-.242187 3.242188-.679687 1.03125-.433594 1.984375-1.039063 2.816406-1.792969 1.558594-1.636719 2.441406-3.800781 2.472656-6.058594-.011718-1.117187-.246093-2.21875-.683593-3.242187-.429688-1.035157-1.039063-1.988281-1.789063-2.816407-.816406-.773437-1.773437-1.378906-2.816406-1.792968-1.558594-.679688-3.289062-.859375-4.949219-.511719-.535156.09375-1.054687.265625-1.539062.511719-.542969.1875-1.058594.445312-1.535157.769531-.445312.316406-.875.65625-1.277343 1.023437-.753907.832032-1.359375 1.78125-1.792969 2.816407-.910156 2.066406-.910156 4.417969 0 6.484375.433594 1.035156 1.039062 1.984375 1.792969 2.816406l1.277343 1.023438c.476563.324218.992188.582031 1.535157.769531.484375.242187 1.003906.414062 1.539062.511719.5625.097656 1.132813.15625 1.707031.167968zm0 0"/><path d="m298.742188 275.953125c-3.296876 21.546875-20.941407 38.015625-42.664063 39.824219-21.722656-1.808594-39.371094-18.277344-42.667969-39.824219 0-14.660156 19.105469-19.910156 42.667969-19.910156 23.558594 0 42.664063 5.25 42.664063 19.910156zm0 0"/></g><path d="m341.914062 50.5625c7.785157 2.871094 15.394532 6.203125 22.785157 9.980469 5.4375 2.726562 10.710937 5.773437 15.785156 9.132812 5.699219-12.132812 12.832031-23.535156 21.25-33.964843l-.589844-1.535157s-41.90625-8.363281-59.230469 16.386719zm0 0" fill="#59474e"/><path d="m302.15625 39.125c13.554688 2.679688 26.859375 6.503906 39.765625 11.4375 17.316406-24.75 59.222656-16.386719 59.222656-16.386719l.597657 1.535157c-8.417969 10.429687-15.550782 21.832031-21.25 33.964843-13.566407 29.097657-20.222657 69.632813 30.636718 91.050781 11.605469 5.191407 23.960938 8.503907 36.605469 9.8125 4.523437.3125 9.066406.199219 13.570313-.339843 11.207031-1.25 21.621093-6.382813 29.4375-14.507813 18.433593-19.542968 13.742187-46.59375 5.890624-69.460937-6.175781-19.046875-16.292968-36.582031-29.695312-51.457031-13.550781-14.652344-30.839844-25.332032-50.007812-30.890626-8-2.429687-16.304688-3.722656-24.667969-3.8398432-33.917969 1.0742192-66.144531 15.0546872-90.105469 39.0820312zm0 0" fill="#cb8252"/><path d="m256.078125 273.109375c0-4.710937-5.730469-8.53125-12.800781-8.53125-7.070313 0-12.800782 3.820313-12.800782 8.53125 0 4.714844 5.730469 8.535156 12.800782 8.535156 7.070312 0 12.800781-3.820312 12.800781-8.535156zm0 0" fill="#464f5d"/><path d="m367.011719 409.644531v8.53125c0 28.277344-22.925781 51.199219-51.203125 51.199219h-119.464844c-28.277344 0-51.199219-22.921875-51.199219-51.199219v-8.53125h64.210938c6.515625.183594 12.828125-2.257812 17.519531-6.777343 8.039062-7.070313 18.503906-10.757813 29.203125-10.289063 10.695313-.46875 21.160156 3.21875 29.199219 10.289063 4.695312 4.519531 11.007812 6.960937 17.519531 6.777343zm0 0" fill="#805333"/></svg>