<svg height="512pt" viewBox="0 -4 512.08648 512" width="512pt" xmlns="http://www.w3.org/2000/svg"><path d="m25.761719 418.175781 25.515625 8.535157c-9.210938.019531-18.171875-2.976563-25.515625-8.535157zm0 0" fill="#fdd7ad"/><path d="m89.933594 366.039062c2.640625 5.632813 4.007812 11.78125 4.011718 18.003907zm0 0" fill="#fdd7ad"/><path d="m422.222656 365.953125c0-.085937 0-.085937.082032-.085937l-4.09375 18.175781c-.007813-6.25 1.359374-12.429688 4.011718-18.089844zm0 0" fill="#fdd7ad"/><path d="m486.390625 418.175781-25.511719-8.53125c9.207032-.023437 18.171875 2.972657 25.511719 8.53125zm0 0" fill="#fdd7ad"/><path d="m418.210938 238.976562s102.398437-119.464843 0-238.9335932c-55.546876 2.5507812-103.03125 40.8164062-117.332032 94.5507812h-89.601562c-14.304688-53.734375-61.785156-92-117.332032-94.5507812-102.402343 119.4687502 0 238.9335932 0 238.9335932zm0 0" fill="#2c3e50"/><path d="m400.886719 196.308594s58.199219-73.984375 0-153.597656c0 0-51.96875 0-67.414063 65.535156h-154.792968c-15.445313-65.535156-67.414063-65.535156-67.414063-65.535156-58.195313 79.613281 0 153.597656 0 153.597656zm0 0" fill="#fdd7ad"/><path d="m374.945312 387.011719c1.542969-.046875 3.082032-.191407 4.609376-.425781 63.742187-7.851563 70.3125-77.484376 60.671874-106.496094-11.519531-34.472656-23.039062-22.953125-46.082031-103.507813-18.003906-63.148437-92.5-83.882812-123.988281-89.855469-9.300781-1.792968-18.859375-1.792968-28.160156 0-31.488282 5.972657-105.984375 26.707032-123.988282 89.855469-23.039062 80.554688-34.558593 69.035157-46.078124 103.507813-9.644532 29.011718-3.074219 98.644531 60.671874 106.496094 1.523438.234374 3.0625.378906 4.605469.425781" fill="#2c2f38"/><path d="m375.542969 393.796875c6.203125-10.792969 11.71875-21.964844 16.511719-33.449219 7.886718-18.773437 22.769531-50.9375 4.445312-68.269531-9.050781-8.53125-21.433594-11.714844-30.222656-21.035156-9.835938-10.441407-16.035156-23.785157-17.671875-38.039063-1.769531-15.496094 4.878906-31.046875.296875-46.285156-5.148438-15.011719-16.527344-27.066406-31.214844-33.074219-7.875-3.765625-30.214844-12.441406-36.011719-.855469-5.792969 11.589844-7.679687 47.191407-8.257812 68.558594-.269531 9.371094-7.964844 16.816406-17.339844 16.777344-9.367187.023438-17.046875-7.417969-17.316406-16.777344-.585938-21.335937-2.429688-56.902344-8.257813-68.558594s-28.160156-2.910156-36.011718.855469c-14.699219 6.019531-26.078126 18.09375-31.214844 33.125-4.582032 15.242188 2.066406 30.789063.296875 46.285157-1.640625 14.246093-7.835938 27.585937-17.671875 38.023437-8.789063 9.320313-21.171875 12.476563-30.222656 21.035156-18.324219 17.316407-3.414063 49.492188 4.445312 68.265625 4.785156 11.476563 10.292969 22.636719 16.484375 33.417969" fill="#bdc3c7"/><path d="m486.476562 418.175781c14.222657-10.636719 20.371094-28.96875 15.433594-46.027343-4.9375-17.0625-19.925781-29.277344-37.628906-30.675782-17.707031-1.394531-34.425781 8.320313-41.976562 24.394532l-4.09375 18.175781c-.007813-6.25 1.359374-12.429688 4.011718-18.089844-11.261718 11.808594-26.417968 19.144531-42.667968 20.648437h-.085938c-1.496094.234376-3.007812.378907-4.523438.429688h-237.738281c-1.515625-.050781-3.023437-.195312-4.523437-.429688h-.082032c-16.25-1.503906-31.40625-8.839843-42.667968-20.648437-7.535156-16.074219-24.238282-25.804687-41.9375-24.433594-17.699219 1.375-32.699219 13.566407-37.664063 30.613281-4.960937 17.042969 1.148438 35.382813 15.34375 46.042969-16.050781 12.039063-21.546875 33.636719-13.199219 51.882813 8.347657 18.246094 28.277344 28.210937 47.882813 23.941406 19.605469-4.273438 33.585937-21.625 33.585937-41.691406h324.265626c0 20.066406 13.980468 37.417968 33.585937 41.691406 19.601563 4.269531 39.535156-5.695312 47.878906-23.941406 8.347657-18.246094 2.851563-39.84375-13.199219-51.882813zm-460.714843 0 25.515625 8.535157c-9.210938.019531-18.171875-2.976563-25.515625-8.535157zm64.171875-52.136719c2.640625 5.632813 4.007812 11.78125 4.011718 18.003907zm370.945312 43.605469c9.207032-.023437 18.171875 2.972657 25.511719 8.53125zm0 0" fill="#fdd7ad"/><path d="m460.878906 503.511719c-24.976562-.03125-46.296875-18.050781-50.492187-42.667969h-308.617188c-3.617187 21.472656-20.421875 38.304688-41.886719 41.964844-21.464843 3.65625-42.894531-6.660156-53.421874-25.71875-10.527344-19.058594-7.847657-42.695313 6.679687-58.914063-13.335937-14.820312-16.855469-36.039062-9.019531-54.371093 7.839844-18.335938 25.605468-30.453126 45.535156-31.054688 19.929688-.597656 38.398438 10.425781 47.324219 28.253906 9.796875 9.730469 22.660156 15.761719 36.40625 17.066406.265625.019532.527343.054688.792969.101563 1.074218.167969 2.160156.265625 3.25.300781h237.515624c1.011719-.042968 2.019532-.144531 3.023438-.300781.28125-.050781.566406-.085937.851562-.109375 13.71875-1.320312 26.554688-7.351562 36.328126-17.066406 8.949218-17.792969 27.402343-28.78125 47.308593-28.167969s37.652344 12.710937 45.492188 31.019531c7.84375 18.304688 4.355469 39.5-8.9375 54.328125 13.457031 15.046875 16.820312 36.59375 8.582031 55.023438-8.234375 18.429687-26.53125 30.300781-46.714844 30.3125zm-366.933594-59.734375h324.265626c4.710937 0 8.53125 3.820312 8.53125 8.53125-.003907 15.898437 10.960937 29.691406 26.449218 33.273437 15.484375 3.578125 31.394532-4.003906 38.363282-18.289062 6.96875-14.289063 3.15625-31.492188-9.199219-41.496094l-24.175781-8.054687c-3.972657-1.320313-6.402344-5.332032-5.730469-9.464844.667969-4.132813 4.238281-7.171875 8.429687-7.167969 8.65625-.007813 17.175782 2.195313 24.746094 6.402344 9.222656-9.707031 11.917969-23.910157 6.890625-36.324219-5.023437-12.410156-16.839844-20.734375-30.21875-21.292969-13.378906-.554687-25.847656 6.761719-31.882813 18.710938l-3.902343 17.304687c-.867188 3.867188-4.28125 6.628906-8.242188 6.667969-3.960937.035156-7.429687-2.65625-8.371093-6.503906-9.128907 4.808593-19.082032 7.859375-29.335938 8.992187h-.113281c-1.679688.246094-3.371094.40625-5.066407.472656h-238.636718c-1.695313-.070312-3.386719-.226562-5.066406-.472656h-.113282c-10.253906-1.132812-20.207031-4.183594-29.335937-8.992187-.949219 3.847656-4.421875 6.535156-8.382813 6.488281-3.960937-.042969-7.371094-2.808594-8.230468-6.675781l-3.789063-17.066407c-6.21875-12.488281-19.410156-19.933593-33.316406-18.804687-13.902344 1.125-25.71875 10.601563-29.84375 23.925781-4.128907 13.324219.269531 27.820313 11.105469 36.605469l24.175781 8.054687c3.980469 1.3125 6.425781 5.320313 5.761719 9.460938-.667969 4.140625-4.242188 7.183594-8.433594 7.179688-8.660156.007812-17.175782-2.195313-24.746094-6.398438-10.570312 11.125-12.414062 27.9375-4.511719 41.089844 7.90625 13.152344 23.617188 19.414062 38.402344 15.304687s25.007813-17.582031 24.988281-32.929687c0-4.710938 3.820313-8.53125 8.535156-8.53125zm0 0" fill="#cbb292"/><path d="m341.410156 440.703125c-1.023437 30.039063-38.828125 54.273437-85.332031 54.273437-46.507813 0-84.308594-24.234374-85.335937-54.273437l85.335937-83.113281zm0 0" fill="#a5a5a4"/><path d="m302.558594 331.988281c13.261718 3.007813 26.046875 7.824219 38 14.3125 9.886718 5.335938 18.59375 12.609375 25.597656 21.394531 5.90625 7.433594 9.207031 16.605469 9.386719 26.101563-.207031 9.476563-3.484375 18.632813-9.34375 26.085937-7.011719 8.75-15.71875 15.992188-25.597657 21.292969-1.554687.867188-3.148437 1.722657-4.78125 2.558594-17.640624 9.277344-38.496093 10.21875-56.898437 2.558594-10.367187-3.90625-18.644531-11.949219-22.84375-22.203125-4.199219 10.242187-12.464844 18.277344-22.820313 22.1875-18.402343 7.65625-39.257812 6.71875-56.898437-2.558594-1.628906-.820312-3.21875-1.675781-4.78125-2.5625-9.878906-5.300781-18.585937-12.542969-25.597656-21.289062-5.863281-7.445313-9.152344-16.59375-9.371094-26.070313.171875-9.488281 3.453125-18.660156 9.34375-26.101563 7.007813-8.785156 15.714844-16.058593 25.601563-21.394531 11.964843-6.492187 24.765624-11.308593 38.042968-14.3125zm0 0" fill="#bdc3c7"/><path d="m372.984375 362.566406c-7.730469-9.746094-17.359375-17.816406-28.304687-23.722656-12.640626-6.882812-26.167969-11.988281-40.203126-15.175781-2.996093-.78125-6.183593.117187-8.324218 2.355469-2.144532 2.238281-2.902344 5.464843-1.988282 8.425781.917969 2.957031 3.363282 5.1875 6.398438 5.828125 12.46875 2.820312 24.496094 7.339844 35.738281 13.429687 8.886719 4.75 16.722657 11.246094 23.039063 19.097657 10.203125 12.113281 10.234375 29.804687.074218 41.957031-6.328124 7.820312-14.160156 14.289062-23.039062 19.023437-1.445312.808594-2.921875 1.589844-4.4375 2.34375-15.355469 8.105469-33.519531 8.972656-49.578125 2.367188-7.8125-2.910156-14.179687-8.75-17.75-16.285156v-13.421876c0-4.710937-3.820313-8.53125-8.53125-8.53125-4.714844 0-8.535156 3.820313-8.535156 8.53125v13.449219c-3.589844 7.515625-9.96875 13.332031-17.78125 16.214844-16.058594 6.605469-34.21875 5.738281-49.570313-2.363281-1.515625-.757813-2.992187-1.539063-4.429687-2.347656-8.832031-4.714844-16.628907-11.148438-22.9375-18.917969-4.773438-5.992188-7.46875-13.371094-7.679688-21.027344.171875-7.640625 2.851563-15.011719 7.628907-20.976563 6.289062-7.832031 14.097656-14.316406 22.953124-19.0625 11.273438-6.117187 23.332032-10.652343 35.839844-13.480468 3.03125-.640625 5.480469-2.871094 6.398438-5.828125.914062-2.960938.15625-6.1875-1.988282-8.425781-2.140624-2.238282-5.328124-3.136719-8.324218-2.355469-14.078125 3.191406-27.648438 8.3125-40.320313 15.21875-10.917969 5.898437-20.523437 13.957031-28.230469 23.6875-7.011718 8.910156-10.886718 19.886719-11.023437 31.222656.1875 11.355469 4.082031 22.339844 11.09375 31.273437 7.734375 9.675782 17.339844 17.691407 28.242187 23.570313 1.664063.929687 3.414063 1.835937 5.121094 2.703125 11.089844 5.601562 23.332032 8.542969 35.753906 8.59375 9.796876.058594 19.492188-1.957031 28.453126-5.914062 7.328124-3.101563 13.917968-7.71875 19.335937-13.550782 5.417969 5.828125 12.003906 10.441406 19.328125 13.542969 20.746094 8.6875 44.277344 7.707031 64.230469-2.679687 1.707031-.851563 3.414062-1.773438 5.117187-2.710938 10.929688-5.890625 20.558594-13.921875 28.308594-23.621094 14.707031-18.199218 14.707031-44.199218 0-62.394531zm0 0" fill="#2c2f38"/><path d="m298.742188 374.65625c0 12.542969-19.113282 34.132812-42.664063 34.132812-23.554687 0-42.667969-21.589843-42.667969-34.132812.011719-1.492188.300782-2.96875.855469-4.351562 4.007813-9.214844 21.160156-12.714844 41.8125-12.714844 23.550781 0 42.664063 4.496094 42.664063 17.066406zm0 0" fill="#2c2f38"/><path d="m239.011719 281.644531c0 14.136719-11.460938 25.597657-25.601563 25.597657-14.136718 0-25.601562-11.460938-25.601562-25.597657 0-14.140625 11.464844-25.601562 25.601562-25.601562 14.140625 0 25.601563 11.460937 25.601563 25.601562zm0 0" fill="#fff"/><path d="m230.476562 281.644531c0 9.425781-7.640624 17.066407-17.066406 17.066407-9.425781 0-17.066406-7.640626-17.066406-17.066407s7.640625-17.066406 17.066406-17.066406c9.425782 0 17.066406 7.640625 17.066406 17.066406zm0 0" fill="#b0d3f0"/><g fill="#2c2f38"><path d="m179.277344 392.578125c-1.117188-.015625-2.21875-.246094-3.242188-.683594-1.035156-.433593-1.984375-1.039062-2.816406-1.792969-1.558594-1.636718-2.441406-3.800781-2.476562-6.058593.015624-1.113281.246093-2.214844.683593-3.242188.433594-1.035156 1.039063-1.988281 1.792969-2.816406.816406-.773437 1.769531-1.378906 2.816406-1.792969 1.554688-.679687 3.285156-.859375 4.949219-.511718.535156.09375 1.050781.265624 1.535156.511718.542969.1875 1.0625.445313 1.535157.769532.449218.316406.875.65625 1.28125 1.023437.753906.832031 1.359374 1.78125 1.792968 2.816406.910156 2.066407.910156 4.417969 0 6.484375-.433594 1.035156-1.042968 1.984375-1.792968 2.816406l-1.28125 1.023438c-.472657.324219-.992188.582031-1.535157.769531-.484375.242188-1 .417969-1.535156.511719-.566406.097656-1.136719.15625-1.707031.171875zm0 0"/><path d="m213.410156 290.175781c-1.113281-.011719-2.214844-.246093-3.242187-.683593-1.035157-.433594-1.984375-1.039063-2.816407-1.789063-1.558593-1.636719-2.441406-3.800781-2.472656-6.058594.011719-1.117187.242188-2.21875.679688-3.242187.433594-1.035156 1.039062-1.988282 1.792968-2.816406.816407-.773438 1.773438-1.382813 2.816407-1.792969 1.554687-.679688 3.285156-.859375 4.949219-.511719.535156.09375 1.050781.265625 1.535156.511719.542968.1875 1.0625.445312 1.535156.769531.449219.3125.875.65625 1.28125 1.023438.753906.828124 1.359375 1.78125 1.792969 2.816406.910156 2.0625.910156 4.417968 0 6.484375-.433594 1.03125-1.039063 1.984375-1.792969 2.816406l-1.28125 1.023437c-.472656.324219-.992188.582032-1.535156.765626-.484375.246093-1 .417968-1.535156.515624-.5625.097657-1.132813.152344-1.707032.167969zm0 0"/><path d="m187.808594 426.710938c-1.113282-.015626-2.214844-.246094-3.242188-.683594-1.03125-.433594-1.984375-1.039063-2.816406-1.792969-1.558594-1.636719-2.441406-3.796875-2.472656-6.058594.011718-1.113281.246094-2.214843.683594-3.242187.429687-1.035156 1.039062-1.984375 1.789062-2.816406.816406-.769532 1.773438-1.378907 2.816406-1.792969 1.558594-.679688 3.289063-.859375 4.949219-.511719.535156.09375 1.054687.265625 1.539063.511719.542968.1875 1.058593.445312 1.535156.769531.445312.316406.875.65625 1.277344 1.023438.753906.832031 1.359374 1.785156 1.792968 2.816406.910156 2.066406.910156 4.417968 0 6.484375-.433594 1.035156-1.039062 1.988281-1.792968 2.816406l-1.277344 1.023437c-.476563.324219-.992188.582032-1.535156.769532-.484376.246094-1.003907.417968-1.539063.511718-.5625.097657-1.132813.15625-1.707031.171876zm0 0"/><path d="m332.878906 392.578125c1.113282-.015625 2.214844-.246094 3.242188-.683594 1.03125-.433593 1.984375-1.039062 2.816406-1.792969 1.558594-1.636718 2.441406-3.800781 2.472656-6.058593-.011718-1.113281-.246094-2.214844-.683594-3.242188-.429687-1.035156-1.039062-1.988281-1.789062-2.816406-.816406-.773437-1.773438-1.378906-2.816406-1.792969-1.558594-.679687-3.289063-.859375-4.949219-.511718-.535156.09375-1.054687.265624-1.539063.511718-.542968.1875-1.058593.445313-1.535156.769532-.445312.316406-.875.65625-1.277344 1.023437-.753906.832031-1.359374 1.78125-1.792968 2.816406-.910156 2.066407-.910156 4.417969 0 6.484375.433594 1.035156 1.039062 1.984375 1.792968 2.816406l1.277344 1.023438c.476563.324219.992188.582031 1.535156.769531.484376.242188 1.003907.417969 1.539063.511719.5625.097656 1.132813.15625 1.707031.171875zm0 0"/><path d="m324.34375 426.710938c1.113281-.015626 2.21875-.246094 3.242188-.683594 1.035156-.433594 1.984374-1.039063 2.816406-1.792969 1.558594-1.636719 2.441406-3.796875 2.476562-6.058594-.015625-1.113281-.246094-2.214843-.683594-3.242187-.433593-1.035156-1.039062-1.984375-1.792968-2.816406-.816406-.769532-1.769532-1.378907-2.816406-1.792969-1.554688-.679688-3.285157-.859375-4.949219-.511719-.535157.09375-1.050781.265625-1.535157.511719-.542968.1875-1.0625.445312-1.535156.769531-.449218.316406-.875.65625-1.28125 1.023438-.753906.832031-1.359375 1.785156-1.792968 2.816406-.910157 2.066406-.910157 4.417968 0 6.484375.433593 1.035156 1.042968 1.988281 1.792968 2.816406l1.28125 1.023437c.472656.324219.992188.582032 1.535156.769532.484376.246094 1 .417968 1.535157.511718.5625.097657 1.136719.15625 1.707031.171876zm0 0"/></g><path d="m213.410156 273.109375c0 4.714844-3.820312 8.535156-8.53125 8.535156-4.714844 0-8.535156-3.820312-8.535156-8.535156 0-4.710937 3.820312-8.53125 8.535156-8.53125 4.710938 0 8.53125 3.820313 8.53125 8.53125zm0 0" fill="#fff"/><path d="m324.34375 281.644531c0 14.136719-11.460938 25.597657-25.601562 25.597657-14.136719 0-25.597657-11.460938-25.597657-25.597657 0-14.140625 11.460938-25.601562 25.597657-25.601562 14.140624 0 25.601562 11.460937 25.601562 25.601562zm0 0" fill="#fff"/><path d="m315.808594 281.644531c0 9.425781-7.640625 17.066407-17.066406 17.066407-9.425782 0-17.066407-7.640626-17.066407-17.066407s7.640625-17.066406 17.066407-17.066406c9.425781 0 17.066406 7.640625 17.066406 17.066406zm0 0" fill="#b0d3f0"/><path d="m298.742188 290.175781c-1.113282-.011719-2.214844-.246093-3.242188-.683593-1.03125-.433594-1.984375-1.039063-2.816406-1.789063-1.558594-1.636719-2.441406-3.800781-2.472656-6.058594.011718-1.117187.246093-2.21875.683593-3.242187.429688-1.035156 1.039063-1.988282 1.789063-2.816406.816406-.773438 1.773437-1.382813 2.816406-1.792969 1.558594-.679688 3.289062-.859375 4.949219-.511719.535156.09375 1.054687.265625 1.539062.511719.542969.1875 1.058594.445312 1.535157.769531.445312.3125.875.65625 1.277343 1.023438.753907.828124 1.359375 1.78125 1.792969 2.816406.910156 2.0625.910156 4.417968 0 6.484375-.433594 1.03125-1.039062 1.984375-1.792969 2.816406l-1.277343 1.023437c-.476563.324219-.992188.582032-1.535157.765626-.484375.246093-1.003906.417968-1.539062.515624-.5625.097657-1.132813.152344-1.707031.167969zm0 0" fill="#2c2f38"/><path d="m298.742188 273.109375c0 4.714844-3.820313 8.535156-8.53125 8.535156-4.714844 0-8.535157-3.820312-8.535157-8.535156 0-4.710937 3.820313-8.53125 8.535157-8.53125 4.710937 0 8.53125 3.820313 8.53125 8.53125zm0 0" fill="#fff"/><path d="m264.609375 375.511719c0-4.714844-7.765625-8.535157-17.347656-8.535157s-17.347657 3.820313-17.347657 8.535157c0 4.710937 7.765626 8.53125 17.347657 8.53125s17.347656-3.820313 17.347656-8.53125zm0 0" fill="#464f5d"/></svg>