<svg height="512pt" viewBox="0 -13 512 512" width="512pt" xmlns="http://www.w3.org/2000/svg"><path d="m406.070312 344.277344c35.308594 26.480468 26.480469 70.621094 26.480469 70.621094 44.140625-52.96875 35.3125-88.277344 35.3125-88.277344 17.652344 17.65625 17.652344 61.792968 17.652344 61.792968 15.949219-26.804687 25.042969-57.121093 26.484375-88.277343 0-105.929688-105.929688-123.585938-105.929688-123.585938 26.480469-26.480469 70.621094 0 70.621094 0-17.65625-61.792969-70.621094-52.964843-70.621094-52.964843-8.828124-26.484376 52.964844-44.136719 52.964844-44.136719-31.492187-15.347657-68.898437-11.949219-97.105468 8.828125-17.652344-26.484375 52.96875-70.621094 52.96875-70.621094-79.449219-8.828125-114.761719 44.136719-114.761719 44.136719-4.5-22.242188 2.085937-45.285157 17.65625-61.792969 0 0-52.964844 8.828125-61.792969 52.964844-8.828125-44.136719-61.792969-52.964844-61.792969-52.964844 15.570313 16.507812 22.15625 39.550781 17.65625 61.792969 0 0-35.3125-52.964844-114.761719-44.136719 0 0 70.621094 44.136719 52.96875 70.621094-28.207031-20.777344-65.613281-24.175782-97.105468-8.828125 0 0 61.792968 17.652343 52.964844 44.136719 0 0-52.964844-8.828126-70.621094 52.964843 0 0 44.140625-26.480469 70.621094 0 0 0-105.929688 17.65625-105.929688 123.585938 1.441406 31.15625 10.535156 61.472656 26.484375 88.277343 0 0 0-44.136718 17.652344-61.792968 0 0-8.828125 35.308594 35.3125 88.277344 0 0-8.828125-44.140626 26.480469-70.621094" fill="#af8066"/><path d="m203.035156 220.691406c0 14.625-11.855468 26.480469-26.484375 26.480469-14.625 0-26.480469-11.855469-26.480469-26.480469 0-14.628906 11.855469-26.484375 26.480469-26.484375 14.628907 0 26.484375 11.855469 26.484375 26.484375zm0 0" fill="#fff"/><path d="m361.929688 220.691406c0 14.625-11.855469 26.480469-26.480469 26.480469-14.628907 0-26.484375-11.855469-26.484375-26.480469 0-14.628906 11.855468-26.484375 26.484375-26.484375 14.625 0 26.480469 11.855469 26.480469 26.484375zm0 0" fill="#fff"/><path d="m209.882812 174.210938c-2.609374.007812-5.085937-1.144532-6.769531-3.140626-15.632812-18.589843-31.195312-10.382812-31.371093-10.300781-4.277344 2.339844-9.640626.773438-11.984376-3.5-2.34375-4.277343-.777343-9.640625 3.5-11.984375 9.761719-5.359375 33.492188-9.214844 53.371094 14.414063 2.210938 2.628906 2.699219 6.296875 1.25 9.410156-1.449218 3.113281-4.570312 5.101563-8.003906 5.101563zm0 0" fill="#59474e"/><path d="m301.902344 174.210938c-3.433594 0-6.554688-1.988282-8.003906-5.101563-1.445313-3.113281-.960938-6.78125 1.25-9.410156 19.882812-23.640625 43.609374-19.78125 53.375-14.414063 4.285156 2.320313 5.882812 7.675782 3.558593 11.964844-2.320312 4.289062-7.675781 5.882812-11.964843 3.5625-1.703126-.882812-16.425782-7.617188-31.441407 10.257812-1.683593 1.996094-4.160156 3.148438-6.773437 3.140626zm0 0" fill="#59474e"/><path d="m300.136719 282.484375c14.019531-1.890625 28.246093-1.570313 42.160156.953125 19.265625 2.722656 36.867187 12.390625 49.496094 27.1875 8.492187 11.035156 13.339843 24.441406 13.871093 38.355469.632813 15.765625-5.984374 28.636719-11.113281 43.105469-3.839843 10.117187-5.914062 20.820312-6.136719 31.636718 0 20.839844 9.8125 40.464844 26.484376 52.96875 0 0-61.796876 0-70.621094-44.140625 0 0-44.140625 8.828125-26.484375 52.964844 0 0-35.308594 8.828125-61.792969-35.308594-26.484375 44.136719-61.792969 35.308594-61.792969 35.308594 17.65625-44.136719-26.484375-52.964844-26.484375-52.964844-8.824218 44.140625-70.621094 44.140625-70.621094 44.140625 16.671876-12.503906 26.484376-32.128906 26.484376-52.96875-.222657-10.816406-2.296876-21.519531-6.136719-31.636718-5.136719-14.46875-11.746094-27.367188-11.113281-43.105469.53125-13.914063 5.378906-27.320313 13.871093-38.355469 12.628907-14.796875 30.230469-24.464844 49.496094-27.1875 13.914063-2.523438 28.140625-2.84375 42.160156-.953125zm0 0" fill="#cbb292"/><g fill="#2c2f38"><path d="m227.167969 372.199219c-5.71875-.011719-11.425781-.546875-17.046875-1.609375-4.777344-.964844-7.867188-5.625-6.902344-10.40625.96875-4.78125 5.628906-7.871094 10.410156-6.902344 7.265625 1.4375 24.460938 2.648438 31.019532-2.730469 1.839843-1.535156 2.785156-3.890625 2.523437-6.273437v-26.484375c0-4.875 3.953125-8.828125 8.828125-8.828125s8.828125 3.953125 8.828125 8.828125v26.484375c.230469 7.679687-3.105469 15.039062-9.03125 19.929687-8.390625 5.765625-18.464844 8.574219-28.628906 7.992188zm0 0"/><path d="m284.832031 372.199219c-10.15625.59375-20.222656-2.199219-28.621093-7.945313-5.941407-4.902344-9.28125-12.277344-9.039063-19.976562v-26.484375c0-4.875 3.953125-8.828125 8.828125-8.828125s8.828125 3.953125 8.828125 8.828125v26.484375c-.25 2.390625.71875 4.746094 2.578125 6.273437 6.601562 5.421875 23.746094 4.167969 31 2.71875 4.773438-.941406 9.410156 2.15625 10.367188 6.925781.957031 4.773438-2.128907 9.417969-6.894532 10.386719-5.621094 1.0625-11.328125 1.605469-17.046875 1.617188zm0 0"/><path d="m300.136719 282.484375c0 12.976563-19.773438 35.308594-44.136719 35.308594s-44.136719-22.332031-44.136719-35.308594c.007813-1.542969.308594-3.070313.882813-4.503906 4.148437-9.535157 21.890625-13.152344 43.253906-13.152344 24.363281 0 44.136719 4.679687 44.136719 17.65625zm0 0"/></g><path d="m256 282.484375c0-4.878906-7.90625-8.828125-17.65625-8.828125s-17.652344 3.949219-17.652344 8.828125c0 4.875 7.902344 8.824219 17.652344 8.824219s17.65625-3.949219 17.65625-8.824219zm0 0" fill="#35495e"/><path d="m194.207031 220.691406c0 9.75-7.90625 17.652344-17.65625 17.652344s-17.652343-7.902344-17.652343-17.652344c0-9.753906 7.902343-17.65625 17.652343-17.65625s17.65625 7.902344 17.65625 17.65625zm0 0" fill="#35495e"/><path d="m185.378906 220.691406c0 4.875-3.953125 8.824219-8.828125 8.824219s-8.828125-3.949219-8.828125-8.824219c0-4.878906 3.953125-8.828125 8.828125-8.828125s8.828125 3.949219 8.828125 8.828125zm0 0" fill="#2c2f38"/><path d="m176.550781 211.863281c0 4.875-3.953125 8.828125-8.828125 8.828125s-8.824218-3.953125-8.824218-8.828125 3.949218-8.828125 8.824218-8.828125 8.828125 3.953125 8.828125 8.828125zm0 0" fill="#fff"/><path d="m353.101562 220.691406c0 9.75-7.902343 17.652344-17.652343 17.652344s-17.65625-7.902344-17.65625-17.652344c0-9.753906 7.90625-17.65625 17.65625-17.65625s17.652343 7.902344 17.652343 17.65625zm0 0" fill="#35495e"/><path d="m344.277344 220.691406c0 4.875-3.953125 8.824219-8.828125 8.824219s-8.828125-3.949219-8.828125-8.824219c0-4.878906 3.953125-8.828125 8.828125-8.828125s8.828125 3.949219 8.828125 8.828125zm0 0" fill="#2c2f38"/><path d="m335.449219 211.863281c0 4.875-3.953125 8.828125-8.828125 8.828125s-8.828125-3.953125-8.828125-8.828125 3.953125-8.828125 8.828125-8.828125 8.828125 3.953125 8.828125 8.828125zm0 0" fill="#fff"/></svg>