<svg height="503pt" viewBox="0 0 503.96415 503" width="503pt" xmlns="http://www.w3.org/2000/svg"><path d="m365.863281 477.511719c4.820313.054687 9.59375.972656 14.09375 2.714843 18.1875 7.246094 37.886719 9.890626 57.34375 7.699219 19.054688-3.847656 35.894531-14.878906 47.035157-30.808593 16.226562-21.867188 25.078124-54.84375 15.964843-81.484376-6.421875-18.832031-21.171875-32.371093-32.105469-48.335937-2.074218-2.933594-3.984374-5.976563-5.730468-9.113281-7.6875-14.550782-13.351563-30.082032-16.832032-46.167969-12.886718-56.113281-20.382812-113.328125-22.390624-170.867187l-6.074219-31.242188-43.390625-8.675781s-22.5625-47.019531-106.21875-59.609375c-10.121094-1.519532-20.414063-1.519532-30.539063 0-83.664062 12.589844-106.226562 59.609375-106.226562 59.609375l-43.386719 8.675781-6.769531 32.195312v.085938c-2.023438 57.191406-9.492188 114.058594-22.304688 169.828125-3.480469 16.085937-9.144531 31.617187-16.835937 46.167969-1.820313 3.125-3.644532 6.160156-5.726563 9.113281-11.019531 15.964844-25.773437 29.503906-32.109375 48.335937-9.109375 26.640626-.257812 59.617188 15.96875 81.484376 11.121094 15.910156 27.929688 26.9375 46.949219 30.808593 19.484375 2.195313 39.210937-.449219 57.429687-7.699219 4.496094-1.742187 9.269532-2.660156 14.09375-2.714843zm0 0" fill="#547580"/><path d="m330.386719 486.882812c-24.335938 11.71875-51.097657 17.519532-78.101563 16.921876-27.003906.597656-53.765625-5.203126-78.101562-16.921876 4.410156-5.4375 6.753906-12.257812 6.613281-19.257812v-.625c0-85.066406 31.996094-154.109375 71.488281-154.109375 39.492188 0 71.488282 69.042969 71.488282 154.109375v.625c-.136719 7 2.203124 13.820312 6.613281 19.257812zm0 0" fill="#35495e"/><path d="m209.417969 232.792969c-63.269531 21.320312-105.550781 81.027343-104.65625 147.785156-.199219 40.023437 14.851562 78.625 42.085937 107.953125 14.058594 15.011719 36.015625 2.691406 36.015625-19.785156v-.609375c0-82.4375 31.066407-149.347657 69.421875-149.347657 38.355469 0 69.425782 66.910157 69.425782 149.347657v.609375c0 22.476562 21.953124 34.796875 36.011718 19.785156 27.234375-29.328125 42.285156-67.929688 42.089844-107.953125.890625-66.757813-41.390625-126.464844-104.65625-147.785156zm0 0" fill="#95a5a5"/><path d="m295.675781 228.714844c-3.5 21.734375-21.441406 38.234375-43.390625 39.917968-21.949218-1.683593-39.886718-18.183593-43.390625-39.917968.011719-1.734375.304688-3.449219.871094-5.085938 4.078125-10.789062 21.519531-14.875 42.519531-14.875 23.953125 0 43.390625 5.285156 43.390625 19.960938zm0 0" fill="#2c2f38"/><path d="m200.21875 165.363281c0 14.378907-11.65625 26.035157-26.035156 26.035157s-26.035156-11.65625-26.035156-26.035157c0-14.378906 11.65625-26.03125 26.035156-26.03125s26.035156 11.652344 26.035156 26.03125zm0 0" fill="#d1d4d1"/><path d="m356.421875 165.363281c0 14.378907-11.65625 26.035157-26.035156 26.035157-14.378907 0-26.03125-11.65625-26.03125-26.035157 0-14.378906 11.652343-26.03125 26.03125-26.03125 14.378906 0 26.035156 11.652344 26.035156 26.03125zm0 0" fill="#d1d4d1"/><g fill="#2c3e50"><path d="m295.675781 312.890625c-1.132812-.015625-2.253906-.25-3.296875-.695313-1.050781-.441406-2.019531-1.058593-2.863281-1.820312-1.585937-1.664062-2.484375-3.867188-2.519531-6.164062.015625-1.132813.25-2.253907.695312-3.296876.441406-1.050781 1.058594-2.019531 1.824219-2.863281.828125-.785156 1.800781-1.402343 2.863281-1.824219 1.582032-.691406 3.339844-.871093 5.03125-.519531.542969.09375 1.070313.269531 1.5625.519531.554688.191407 1.078125.453126 1.5625.78125.453125.320313.890625.667969 1.300782 1.042969.765624.84375 1.382812 1.8125 1.824218 2.863281.925782 2.101563.925782 4.496094 0 6.59375-.441406 1.050782-1.058594 2.019532-1.824218 2.867188l-1.300782 1.039062c-.484375.328126-1.007812.589844-1.5625.78125-.492187.25-1.019531.425782-1.5625.519532-.574218.101562-1.152344.160156-1.734375.175781zm0 0"/><path d="m313.03125 286.855469c-1.132812-.011719-2.253906-.25-3.296875-.695313-1.050781-.441406-2.019531-1.054687-2.863281-1.820312-1.585938-1.664063-2.484375-3.863282-2.515625-6.160156.011719-1.136719.246093-2.257813.691406-3.300782.441406-1.050781 1.058594-2.019531 1.824219-2.863281.828125-.785156 1.800781-1.402344 2.863281-1.820313 1.582031-.691406 3.339844-.875 5.03125-.523437.546875.097656 1.070313.273437 1.5625.523437.554687.1875 1.078125.453126 1.5625.78125.453125.320313.890625.667969 1.300781 1.039063.765625.84375 1.382813 1.8125 1.824219 2.863281.925781 2.101563.925781 4.496094 0 6.597656-.441406 1.050782-1.058594 2.019532-1.824219 2.863282l-1.300781 1.039062c-.484375.332032-1.007813.59375-1.5625.78125-.492187.25-1.019531.425782-1.5625.523438-.570313.097656-1.152344.15625-1.734375.171875zm0 0"/><path d="m330.386719 321.566406c-1.132813-.011718-2.253907-.25-3.296875-.691406-1.050782-.441406-2.019532-1.058594-2.863282-1.824219-1.585937-1.664062-2.484374-3.863281-2.515624-6.160156.011718-1.136719.25-2.253906.691406-3.296875.441406-1.054688 1.058594-2.023438 1.824218-2.867188.828126-.785156 1.800782-1.402343 2.863282-1.820312 1.582031-.691406 3.34375-.875 5.035156-.519531.542969.09375 1.070312.269531 1.558594.519531.554687.191406 1.078125.453125 1.5625.78125.457031.320312.890625.667969 1.304687 1.039062.761719.847657 1.378907 1.816407 1.820313 2.867188.925781 2.097656.925781 4.492188 0 6.59375-.441406 1.050781-1.058594 2.019531-1.820313 2.863281l-1.304687 1.042969c-.484375.328125-1.007813.589844-1.5625.78125-.492188.246094-1.015625.421875-1.558594.519531-.574219.097657-1.15625.15625-1.738281.171875zm0 0"/><path d="m208.894531 312.890625c1.136719-.015625 2.253907-.25 3.300781-.695313 1.050782-.441406 2.015626-1.058593 2.863282-1.820312 1.582031-1.664062 2.484375-3.867188 2.515625-6.164062-.015625-1.132813-.25-2.253907-.695313-3.296876-.4375-1.050781-1.054687-2.019531-1.820312-2.863281-.832032-.785156-1.800782-1.402343-2.863282-1.824219-1.585937-.691406-3.34375-.871093-5.035156-.519531-.542968.09375-1.070312.269531-1.5625.519531-.550781.191407-1.078125.453126-1.5625.78125-.453125.320313-.886718.667969-1.300781 1.042969-.765625.84375-1.378906 1.8125-1.820313 2.863281-.929687 2.101563-.929687 4.496094 0 6.59375.441407 1.050782 1.054688 2.019532 1.820313 2.867188l1.300781 1.039062c.484375.328126 1.011719.589844 1.5625.78125.492188.25 1.019532.425782 1.5625.519532.574219.101562 1.152344.160156 1.734375.175781zm0 0"/><path d="m191.539062 286.855469c1.136719-.011719 2.253907-.25 3.296876-.695313 1.050781-.441406 2.019531-1.054687 2.867187-1.820312 1.582031-1.664063 2.480469-3.863282 2.515625-6.160156-.015625-1.136719-.25-2.257813-.695312-3.300782-.441407-1.050781-1.054688-2.019531-1.820313-2.863281-.832031-.785156-1.804687-1.402344-2.867187-1.820313-1.582032-.691406-3.339844-.875-5.03125-.523437-.542969.097656-1.070313.273437-1.5625.523437-.554688.1875-1.078126.453126-1.5625.78125-.453126.320313-.886719.667969-1.300782 1.039063-.765625.84375-1.382812 1.8125-1.824218 2.863281-.925782 2.101563-.925782 4.496094 0 6.597656.441406 1.050782 1.058593 2.019532 1.824218 2.863282l1.300782 1.039062c.484374.332032 1.007812.59375 1.5625.78125.492187.25 1.019531.425782 1.5625.523438.574218.097656 1.152343.15625 1.734374.171875zm0 0"/><path d="m174.183594 321.566406c1.132812-.011718 2.253906-.25 3.296875-.691406 1.050781-.441406 2.019531-1.058594 2.863281-1.824219 1.585938-1.664062 2.484375-3.863281 2.519531-6.160156-.015625-1.136719-.25-2.253906-.695312-3.296875-.441407-1.054688-1.054688-2.023438-1.824219-2.867188-.828125-.785156-1.800781-1.402343-2.863281-1.820312-1.582031-.691406-3.339844-.875-5.03125-.519531-.542969.09375-1.070313.269531-1.5625.519531-.554688.191406-1.078125.453125-1.5625.78125-.453125.320312-.890625.667969-1.300781 1.039062-.765626.847657-1.382813 1.816407-1.824219 2.867188-.925781 2.097656-.925781 4.492188 0 6.59375.441406 1.050781 1.058593 2.019531 1.824219 2.863281l1.300781 1.042969c.484375.328125 1.007812.589844 1.5625.78125.492187.246094 1.019531.421875 1.5625.519531.574219.097657 1.152343.15625 1.734375.171875zm0 0"/></g><path d="m416.570312 78.765625c.566407 17.132813 10.703126 32.492187 26.230469 39.746094 5.382813 3.039062 13.886719 5.847656 18.582031.242187 4.464844-6.214844 7.164063-13.527344 7.808594-21.15625 4.300782-24.175781-6.125-48.605468-26.554687-62.230468-25.015625-15.039063-57-11.484376-78.101563 8.679687h-224.464844c-21.101562-20.164063-53.085937-23.71875-78.101562-8.679687-20.429688 13.625-30.851562 38.054687-26.554688 62.230468.644532 7.628906 3.34375 14.941406 7.8125 21.15625 4.683594 5.617188 13.199219 2.796875 18.578126-.242187 15.527343-7.253907 25.664062-22.613281 26.234374-39.746094zm0 0" fill="#547580"/><path d="m226.25 113.296875h-8.675781c-4.792969 0-8.679688-3.886719-8.679688-8.679687 0-4.792969 3.886719-8.675782 8.679688-8.675782h8.675781c9.585938 0 17.359375-7.769531 17.359375-17.355468v-17.355469c0-4.792969 3.882813-8.679688 8.675781-8.679688 4.792969 0 8.679688 3.886719 8.679688 8.679688v17.355469c0 19.167968-15.542969 34.710937-34.714844 34.710937zm0 0" fill="#35495e"/><path d="m286.996094 113.296875h-8.675782c-19.171874 0-34.710937-15.542969-34.710937-34.710937v-17.355469c0-4.792969 3.882813-8.679688 8.675781-8.679688 4.792969 0 8.679688 3.886719 8.679688 8.679688v17.355469c0 9.585937 7.769531 17.355468 17.355468 17.355468h8.675782c4.792968 0 8.679687 3.882813 8.679687 8.675782 0 4.792968-3.886719 8.679687-8.679687 8.679687zm0 0" fill="#35495e"/><path d="m234.929688 408.347656c-4.792969 0-8.679688-3.886718-8.679688-8.679687v-26.03125c0-4.792969 3.886719-8.679688 8.679688-8.679688 4.792968 0 8.679687 3.886719 8.679687 8.679688v26.03125c0 4.792969-3.886719 8.679687-8.679687 8.679687zm0 0" fill="#2c3e50"/><path d="m269.640625 408.347656c-4.792969 0-8.675781-3.886718-8.675781-8.679687v-26.03125c0-4.792969 3.882812-8.679688 8.675781-8.679688s8.679687 3.886719 8.679687 8.679688v26.03125c0 4.792969-3.886718 8.679687-8.679687 8.679687zm0 0" fill="#2c3e50"/><path d="m200.21875 165.363281c0 14.378907-11.65625 26.035157-26.035156 26.035157s-26.035156-11.65625-26.035156-26.035157c0-14.378906 11.65625-26.03125 26.035156-26.03125s26.035156 11.652344 26.035156 26.03125zm0 0" fill="#fff"/><path d="m191.539062 165.363281c0 9.585938-7.769531 17.355469-17.355468 17.355469-9.585938 0-17.355469-7.769531-17.355469-17.355469 0-9.585937 7.769531-17.355469 17.355469-17.355469 9.585937 0 17.355468 7.769532 17.355468 17.355469zm0 0" fill="#b0d3f0"/><path d="m174.183594 174.042969c-1.132813-.015625-2.253906-.25-3.296875-.695313-1.050781-.441406-2.019531-1.058594-2.863281-1.820312-1.585938-1.664063-2.484376-3.867188-2.515626-6.164063.011719-1.132812.246094-2.253906.691407-3.296875.441406-1.050781 1.058593-2.019531 1.824219-2.863281.828124-.785156 1.800781-1.402344 2.863281-1.824219 1.582031-.691406 3.34375-.871094 5.03125-.519531.546875.09375 1.070312.269531 1.5625.519531.554687.191406 1.078125.453125 1.5625.78125.457031.320313.890625.671875 1.300781 1.042969.765625.84375 1.382812 1.8125 1.824219 2.863281.925781 2.101563.925781 4.496094 0 6.59375-.441407 1.050782-1.058594 2.019532-1.824219 2.867188l-1.300781 1.039062c-.484375.328125-1.007813.59375-1.5625.78125-.492188.25-1.015625.425782-1.5625.519532-.570313.101562-1.152344.160156-1.734375.175781zm0 0" fill="#2c2f38"/><path d="m174.183594 156.6875c0 4.792969-3.882813 8.675781-8.675782 8.675781-4.792968 0-8.679687-3.882812-8.679687-8.675781s3.886719-8.679688 8.679687-8.679688c4.792969 0 8.675782 3.886719 8.675782 8.679688zm0 0" fill="#fff"/><path d="m356.421875 165.363281c0 14.378907-11.65625 26.035157-26.035156 26.035157-14.378907 0-26.03125-11.65625-26.03125-26.035157 0-14.378906 11.652343-26.03125 26.03125-26.03125 14.378906 0 26.035156 11.652344 26.035156 26.03125zm0 0" fill="#fff"/><path d="m347.742188 165.363281c0 9.585938-7.769532 17.355469-17.355469 17.355469-9.585938 0-17.355469-7.769531-17.355469-17.355469 0-9.585937 7.769531-17.355469 17.355469-17.355469 9.585937 0 17.355469 7.769532 17.355469 17.355469zm0 0" fill="#b0d3f0"/><path d="m330.386719 174.042969c-1.132813-.015625-2.253907-.25-3.296875-.695313-1.050782-.441406-2.019532-1.058594-2.863282-1.820312-1.585937-1.664063-2.484374-3.867188-2.515624-6.164063.011718-1.132812.25-2.253906.691406-3.296875.441406-1.050781 1.058594-2.019531 1.824218-2.863281.828126-.785156 1.800782-1.402344 2.863282-1.824219 1.582031-.691406 3.34375-.871094 5.035156-.519531.542969.09375 1.070312.269531 1.558594.519531.554687.191406 1.078125.453125 1.5625.78125.457031.320313.890625.671875 1.304687 1.042969.761719.84375 1.378907 1.8125 1.820313 2.863281.925781 2.101563.925781 4.496094 0 6.59375-.441406 1.050782-1.058594 2.019532-1.820313 2.867188l-1.304687 1.039062c-.484375.328125-1.007813.59375-1.5625.78125-.492188.25-1.015625.425782-1.558594.519532-.574219.101562-1.15625.160156-1.738281.175781zm0 0" fill="#2c2f38"/><path d="m330.386719 156.6875c0 4.792969-3.882813 8.675781-8.675781 8.675781-4.792969 0-8.679688-3.882812-8.679688-8.675781s3.886719-8.679688 8.679688-8.679688c4.792968 0 8.675781 3.886719 8.675781 8.679688zm0 0" fill="#fff"/><path d="m217.574219 148.007812h-86.78125c-4.792969 0-8.675781-3.882812-8.675781-8.675781s3.882812-8.679687 8.675781-8.679687h86.78125c4.792969 0 8.675781 3.886718 8.675781 8.679687s-3.882812 8.675781-8.675781 8.675781zm0 0" fill="#35495e"/><path d="m373.777344 148.007812h-86.78125c-4.792969 0-8.675782-3.882812-8.675782-8.675781s3.882813-8.679687 8.675782-8.679687h86.78125c4.792968 0 8.679687 3.886718 8.679687 8.679687s-3.886719 8.675781-8.679687 8.675781zm0 0" fill="#35495e"/><path d="m252.285156 226.109375c0-4.792969-5.828125-8.675781-13.015625-8.675781-7.191406 0-13.019531 3.882812-13.019531 8.675781s5.828125 8.679687 13.019531 8.679687c7.1875 0 13.015625-3.886718 13.015625-8.679687zm0 0" fill="#464f5d"/></svg>