<svg height="511pt" viewBox="-33 0 511 511.99883" width="511pt" xmlns="http://www.w3.org/2000/svg"><path d="m444.703125 489.488281c-.019531 7.714844-5.492187 14.335938-13.0625 15.804688-32.398437 6.882812-115.820313 19.332031-137.007813-28.957031-10.542968-23.394532-16.878906-48.464844-18.710937-74.0625h-22.863281c-11.335938-1.382813-21.96875-6.222657-30.457032-13.859376-8.488281 7.636719-19.121093 12.476563-30.457031 13.859376h-22.863281c-1.8125 25.597656-8.148438 50.675781-18.710938 74.0625-21.1875 48.289062-104.609374 35.839843-137.007812 28.957031-7.570312-1.46875-13.042969-8.089844-13.0625-15.804688.160156-6.910156 4.59375-12.996093 11.121094-15.269531 64.441406-24.277344 66.472656-64.796875 59.144531-123.144531-.351563-2.382813-.617187-4.855469-.96875-7.417969-2.382813-17.386719-5.296875-36.457031-7.503906-57.023438-14.742188-137.09375 50.757812-183.613281 72.5625-195.179687h175.492187c21.804688 11.566406 87.304688 58.085937 72.5625 195.179687-2.207031 20.566407-5.121094 39.636719-7.503906 57.023438-.351562 2.5625-.617188 5.035156-.96875 7.417969-7.328125 58.347656-5.296875 98.867187 59.144531 123.144531 6.527344 2.273438 10.960938 8.359375 11.121094 15.269531zm0 0" fill="#805333"/><path d="m275.921875 402.273438h-.089844l-2.03125.265624c-6.898437.75-13.867187.660157-20.742187-.265624-11.335938-1.382813-21.96875-6.222657-30.457032-13.859376-8.488281 7.636719-19.121093 12.476563-30.457031 13.859376-6.878906.925781-13.84375 1.015624-20.742187.265624l-2.03125-.265624h-.089844c-39.28125-5.5625-56.761719-46.964844-52.789062-83.332032 2.683593-18.414062 10.277343-35.765625 21.980468-50.230468 9.535156-13.242188 19.953125-34.339844 14.125-50.847657-4.089844-8.402343-8.90625-16.4375-14.386718-24.007812-5.453126-7.875-9.734376-16.5-12.714844-25.601563-2.515625-14.050781-1.144532-28.519531 3.972656-41.84375 2.859375-8.277344 4.464844-16.933594 4.769531-25.6875.085938-2.824218.265625-5.914062.617188-9.269531 3.265625-33.542969 18.800781-91.453125 87.746093-91.453125 68.945313 0 84.480469 57.910156 87.746094 91.453125.265625 3.355469.53125 6.445313.617188 9.269531.46875 8.980469 2.007812 17.871094 4.589844 26.484375 3.613281 13.402344 3.976562 27.472657 1.0625 41.046875-1.894532 8.972656-5.140626 17.601563-9.625 25.601563-5.480469 7.570312-10.296876 15.605469-14.386719 24.007812-5.828125 16.507813 4.589843 37.605469 14.121093 50.847657 11.707032 14.464843 19.300782 31.816406 21.984376 50.230468 3.96875 36.367188-13.507813 77.769532-52.789063 83.332032zm0 0" fill="#cb8252"/><path d="m222.601562 397.242188c-4.875 0-8.828124-3.953126-8.828124-8.828126v-35.3125c0-4.875 3.953124-8.824218 8.828124-8.824218s8.828126 3.949218 8.828126 8.824218v35.3125c0 4.875-3.953126 8.828126-8.828126 8.828126zm0 0" fill="#805333"/><path d="m275.566406 123.585938h-105.929687c-4.875 0-8.828125-3.953126-8.828125-8.828126s3.953125-8.828124 8.828125-8.828124h105.929687c4.875 0 8.828125 3.953124 8.828125 8.828124s-3.953125 8.828126-8.828125 8.828126zm0 0" fill="#804537"/><path d="m240.257812 88.277344h-35.3125c-4.875 0-8.828124-3.953125-8.828124-8.828125s3.953124-8.828125 8.828124-8.828125h35.3125c4.875 0 8.828126 3.953125 8.828126 8.828125s-3.953126 8.828125-8.828126 8.828125zm0 0" fill="#804537"/><path d="m275.566406 300.136719c0 19.5-23.710937 52.964843-52.964844 52.964843-29.253906 0-52.964843-33.464843-52.964843-52.964843s23.710937-26.480469 52.964843-26.480469c29.253907 0 52.964844 6.980469 52.964844 26.480469zm0 0" fill="#2c2f38"/><path d="m213.773438 176.550781c0 14.628907-11.855469 26.484375-26.480469 26.484375-14.628907 0-26.484375-11.855468-26.484375-26.484375 0-14.625 11.855468-26.480469 26.484375-26.480469 14.625 0 26.480469 11.855469 26.480469 26.480469zm0 0" fill="#fff"/><path d="m204.945312 176.550781c0 9.75-7.902343 17.65625-17.652343 17.65625-9.753907 0-17.65625-7.90625-17.65625-17.65625s7.902343-17.652343 17.65625-17.652343c9.75 0 17.652343 7.902343 17.652343 17.652343zm0 0" fill="#805333"/><path d="m187.292969 185.378906c-1.15625-.011718-2.296875-.253906-3.355469-.707031-1.070312-.449219-2.054688-1.074219-2.914062-1.851563-1.613282-1.691406-2.527344-3.929687-2.558594-6.269531.011718-1.152343.253906-2.292969.703125-3.355469.449219-1.066406 1.078125-2.054687 1.855469-2.910156.84375-.800781 1.832031-1.429687 2.914062-1.855468 1.609375-.703126 3.398438-.886719 5.121094-.527344.550781.09375 1.085937.273437 1.585937.527344.5625.195312 1.097657.460937 1.589844.796874.460937.324219.90625.679688 1.324219 1.058594.777344.859375 1.40625 1.84375 1.855468 2.910156.941407 2.140626.941407 4.574219 0 6.710938-.449218 1.070312-1.078124 2.054688-1.855468 2.914062l-1.324219 1.058594c-.492187.332032-1.027344.601563-1.589844.792969-.5.253906-1.035156.433594-1.585937.53125-.585938.101563-1.175782.160156-1.765625.175781zm0 0" fill="#2c2f38"/><path d="m187.292969 167.722656c0 4.875-3.953125 8.828125-8.828125 8.828125s-8.828125-3.953125-8.828125-8.828125 3.953125-8.824218 8.828125-8.824218 8.828125 3.949218 8.828125 8.824218zm0 0" fill="#ecf0f1"/><path d="m284.394531 176.550781c0 14.628907-11.855469 26.484375-26.484375 26.484375-14.625 0-26.480468-11.855468-26.480468-26.484375 0-14.625 11.855468-26.480469 26.480468-26.480469 14.628906 0 26.484375 11.855469 26.484375 26.480469zm0 0" fill="#fff"/><path d="m275.566406 176.550781c0 9.75-7.902344 17.65625-17.65625 17.65625-9.75 0-17.652344-7.90625-17.652344-17.65625s7.902344-17.652343 17.652344-17.652343c9.753906 0 17.65625 7.902343 17.65625 17.652343zm0 0" fill="#805333"/><path d="m257.910156 185.378906c-1.152344-.011718-2.292968-.253906-3.351562-.707031-1.070313-.449219-2.054688-1.074219-2.914063-1.851563-1.613281-1.691406-2.527343-3.929687-2.558593-6.269531.011718-1.152343.253906-2.292969.703124-3.355469.449219-1.066406 1.074219-2.054687 1.855469-2.910156.84375-.800781 1.832031-1.429687 2.914063-1.855468 1.609375-.703126 3.398437-.886719 5.117187-.527344.554688.09375 1.089844.273437 1.589844.527344.5625.195312 1.097656.460937 1.589844.796874.460937.324219.902343.679688 1.324219 1.058594.777343.859375 1.40625 1.84375 1.855468 2.910156.941406 2.140626.941406 4.574219 0 6.710938-.449218 1.070312-1.078125 2.054688-1.855468 2.914062l-1.324219 1.058594c-.492188.332032-1.027344.601563-1.589844.792969-.5.253906-1.035156.433594-1.589844.53125-.582031.101563-1.171875.160156-1.765625.175781zm0 0" fill="#2c2f38"/><path d="m257.910156 167.722656c0 4.875-3.949218 8.828125-8.824218 8.828125-4.878907 0-8.828126-3.953125-8.828126-8.828125s3.949219-8.824218 8.828126-8.824218c4.875 0 8.824218 3.949218 8.824218 8.824218zm0 0" fill="#ecf0f1"/><path d="m160.808594 167.722656c-4.535156.007813-8.335938-3.425781-8.792969-7.9375-.453125-4.515625 2.582031-8.636718 7.027344-9.539062l44.136719-8.828125c3.09375-.628907 6.285156.433593 8.375 2.796875 2.09375 2.359375 2.765624 5.660156 1.765624 8.652344-1 2.992187-3.519531 5.222656-6.609374 5.851562l-44.136719 8.828125c-.582031.117187-1.171875.175781-1.765625.175781zm0 0" fill="#805333"/><path d="m284.394531 167.722656c-.59375 0-1.183593-.058594-1.765625-.175781l-44.136718-8.828125c-4.777344-.972656-7.863282-5.636719-6.886719-10.414062.976562-4.777344 5.640625-7.863282 10.417969-6.886719l44.136718 8.828125c4.445313.902344 7.480469 5.023437 7.027344 9.539062-.457031 4.511719-4.257812 7.945313-8.792969 7.9375zm0 0" fill="#805333"/><path d="m213.773438 291.308594c0-4.875-5.929688-8.824219-13.242188-8.824219s-13.238281 3.949219-13.238281 8.824219c0 4.878906 5.925781 8.828125 13.238281 8.828125s13.242188-3.949219 13.242188-8.828125zm0 0" fill="#464f5d"/></svg>