<svg height="512pt" viewBox="0 0 512.01667 512" width="512pt" xmlns="http://www.w3.org/2000/svg"><path d="m66.214844 370.503906c-12.445313-.863281-23.230469-8.949218-27.542969-20.65625-7.414063-18.804687-12.710937-38.3125-20.566406-57.027344-7.503907-17.65625-18.449219-34.78125-18.0976565-54.644531 1.3749995-26.769531 12.9335935-52.003906 32.3085935-70.53125 21.980469-21.449219 50.40625-33.898437 75.828125-50.582031 25.425781-16.683594 32.046875-71.589844 94.367188-80.507812l-14.386719 3.089843c6.878906-9.691406 15.148438-18.320312 24.539062-25.601562 25.867188-18.714844 60.824219-18.714844 86.6875 0 9.394532 7.28125 17.664063 15.910156 24.539063 25.601562v.089844l-14.386719-3.179687c46.785156 6.710937 62.144532 39.195312 77.683594 62.144531 4.332031 7.132812 9.996094 13.367187 16.683594 18.363281 25.421875 16.683594 53.847656 29.132812 75.828125 50.582031 19.375 18.527344 30.933593 43.761719 32.308593 70.53125.355469 19.863281-10.59375 36.988281-18.097656 54.644531-7.855468 18.714844-13.152344 38.222657-20.566406 57.027344-4.3125 11.707032-15.09375 19.792969-27.542969 20.65625zm0 0" fill="#2c3e50"/><path d="m328.675781 123.59375c14.523438.007812 28.113281 7.144531 36.363281 19.09375 20.039063 28.929688 52.539063 87.800781 44.25 156.3125-.582031 4.808594 14.019532 20.019531 17.066407 25.148438 28.636719 48.269531 38.566406 113.8125-10.710938 155.65625-45.203125 38.382812-126.59375 49.207031-159.636719-5.402344-33.042968 54.609375-114.429687 43.804687-159.636718 5.402344-49.277344-41.851563-39.34375-107.386719-10.734375-155.65625 3.042969-5.128907 17.65625-20.304688 17.0625-25.148438-8.289063-68.503906 24.214843-127.382812 44.253906-156.3125 8.253906-11.957031 21.855469-19.097656 36.386719-19.09375zm0 0" fill="#35495e"/><g fill="#2c2f38"><path d="m308.972656 350.171875c0 17.328125-23.710937 47.078125-52.964844 47.078125-29.253906 0-52.964843-29.75-52.964843-47.078125s23.710937-23.542969 52.964843-23.542969c29.253907 0 52.964844 6.179688 52.964844 23.542969zm0 0"/><path d="m256.007812 441.386719c-4.875 0-8.828124-3.949219-8.828124-8.828125v-35.308594c0-4.875 3.953124-8.828125 8.828124-8.828125s8.828126 3.953125 8.828126 8.828125v35.308594c0 4.878906-3.953126 8.828125-8.828126 8.828125zm0 0"/><path d="m97.113281 414.90625c-1.15625-.015625-2.292969-.253906-3.355469-.707031-1.070312-.449219-2.054687-1.074219-2.914062-1.855469-1.613281-1.691406-2.527344-3.929688-2.558594-6.265625.011719-1.152344.253906-2.292969.707032-3.355469.445312-1.070312 1.074218-2.054687 1.851562-2.914062.84375-.796875 1.832031-1.425782 2.914062-1.851563 1.609376-.703125 3.398438-.890625 5.121094-.53125.550782.097657 1.085938.273438 1.585938.53125.5625.191407 1.097656.460938 1.589844.792969.460937.328125.90625.679688 1.324218 1.058594.777344.859375 1.40625 1.847656 1.855469 2.914062.941406 2.136719.941406 4.574219 0 6.710938-.449219 1.066406-1.078125 2.050781-1.855469 2.910156l-1.324218 1.0625c-.492188.332031-1.027344.601562-1.589844.792969-.5.253906-1.035156.429687-1.585938.53125-.585937.101562-1.175781.160156-1.765625.175781zm0 0"/><path d="m114.765625 379.59375c-1.152344-.011719-2.292969-.253906-3.351563-.703125-1.070312-.449219-2.054687-1.078125-2.914062-1.855469-1.613281-1.691406-2.527344-3.929687-2.5625-6.269531.015625-1.152344.253906-2.292969.707031-3.351563.449219-1.070312 1.074219-2.054687 1.855469-2.914062.84375-.800781 1.832031-1.429688 2.914062-1.855469 1.609376-.703125 3.398438-.886719 5.117188-.527343.554688.09375 1.089844.273437 1.589844.527343.5625.195313 1.097656.460938 1.589844.796875.460937.324219.902343.679688 1.324218 1.058594.777344.859375 1.402344 1.84375 1.851563 2.914062.945312 2.136719.945312 4.570313 0 6.707032-.449219 1.070312-1.074219 2.054687-1.851563 2.914062l-1.324218 1.058594c-.492188.335938-1.027344.601562-1.589844.796875-.5.25-1.035156.429687-1.589844.527344-.582031.101562-1.171875.160156-1.765625.175781zm0 0"/><path d="m123.59375 450.214844c-1.152344-.011719-2.292969-.253906-3.355469-.707032-1.066406-.449218-2.050781-1.074218-2.910156-1.851562-1.613281-1.691406-2.527344-3.929688-2.5625-6.269531.015625-1.152344.253906-2.292969.707031-3.351563.449219-1.070312 1.074219-2.054687 1.855469-2.914062.84375-.800782 1.832031-1.429688 2.910156-1.855469 1.613281-.703125 3.402344-.886719 5.121094-.527344.554687.09375 1.089844.273438 1.589844.527344.5625.195313 1.097656.460937 1.589843.796875.460938.324219.902344.679688 1.324219 1.058594.777344.859375 1.402344 1.84375 1.851563 2.914062.941406 2.136719.941406 4.570313 0 6.707032-.449219 1.070312-1.074219 2.054687-1.851563 2.914062l-1.324219 1.058594c-.492187.335937-1.027343.601562-1.589843.792968-.5.253907-1.035157.433594-1.589844.53125-.582031.101563-1.171875.160157-1.765625.175782zm0 0"/><path d="m132.421875 414.90625c-1.152344-.015625-2.292969-.253906-3.355469-.707031-1.066406-.449219-2.050781-1.074219-2.910156-1.855469-1.613281-1.691406-2.527344-3.929688-2.5625-6.265625.015625-1.152344.253906-2.292969.707031-3.355469.449219-1.070312 1.074219-2.054687 1.855469-2.914062.839844-.796875 1.832031-1.425782 2.910156-1.851563 1.613282-.703125 3.402344-.890625 5.121094-.53125.554688.097657 1.089844.273438 1.589844.53125.5625.191407 1.097656.460938 1.589844.792969.460937.328125.902343.679688 1.324218 1.058594.777344.859375 1.402344 1.847656 1.851563 2.914062.941406 2.136719.941406 4.574219 0 6.710938-.449219 1.066406-1.074219 2.050781-1.851563 2.910156l-1.324218 1.0625c-.492188.332031-1.027344.601562-1.589844.792969-.5.253906-1.035156.429687-1.589844.53125-.582031.101562-1.171875.160156-1.765625.175781zm0 0"/><path d="m414.90625 414.90625c1.152344-.015625 2.292969-.253906 3.351562-.707031 1.070313-.449219 2.054688-1.074219 2.914063-1.855469 1.613281-1.691406 2.527344-3.929688 2.5625-6.265625-.015625-1.152344-.253906-2.292969-.707031-3.355469-.449219-1.070312-1.074219-2.054687-1.855469-2.914062-.84375-.796875-1.832031-1.425782-2.914063-1.851563-1.609374-.703125-3.398437-.890625-5.117187-.53125-.554687.097657-1.089844.273438-1.589844.53125-.5625.191407-1.097656.460938-1.589843.792969-.460938.328125-.902344.679688-1.324219 1.058594-.777344.859375-1.40625 1.847656-1.851563 2.914062-.945312 2.136719-.945312 4.574219 0 6.710938.449219 1.066406 1.074219 2.050781 1.851563 2.910156l1.324219 1.0625c.492187.332031 1.027343.601562 1.589843.792969.5.253906 1.035157.429687 1.589844.53125.582031.101562 1.171875.160156 1.765625.175781zm0 0"/><path d="m397.25 379.59375c1.152344-.011719 2.292969-.253906 3.355469-.703125 1.066406-.449219 2.050781-1.078125 2.910156-1.855469 1.613281-1.691406 2.527344-3.929687 2.5625-6.269531-.015625-1.152344-.253906-2.292969-.707031-3.351563-.449219-1.070312-1.074219-2.054687-1.855469-2.914062-.839844-.800781-1.832031-1.429688-2.910156-1.855469-1.613281-.703125-3.402344-.886719-5.121094-.527343-.554687.09375-1.089844.273437-1.589844.527343-.5625.195313-1.097656.460938-1.589843.796875-.460938.324219-.902344.679688-1.324219 1.058594-.777344.859375-1.402344 1.84375-1.851563 2.914062-.941406 2.136719-.941406 4.570313 0 6.707032.449219 1.070312 1.074219 2.054687 1.851563 2.914062l1.324219 1.058594c.492187.335938 1.027343.601562 1.589843.796875.5.25 1.035157.429687 1.589844.527344.582031.101562 1.171875.160156 1.765625.175781zm0 0"/><path d="m388.421875 450.214844c1.152344-.011719 2.292969-.253906 3.355469-.707032 1.066406-.449218 2.054687-1.074218 2.914062-1.851562 1.609375-1.691406 2.523438-3.929688 2.558594-6.269531-.015625-1.152344-.253906-2.292969-.707031-3.351563-.445313-1.070312-1.074219-2.054687-1.851563-2.914062-.84375-.800782-1.835937-1.429688-2.914062-1.855469-1.609375-.703125-3.402344-.886719-5.121094-.527344-.554688.09375-1.089844.273438-1.589844.527344-.5625.195313-1.09375.460937-1.585937.796875-.464844.324219-.90625.679688-1.324219 1.058594-.78125.859375-1.40625 1.84375-1.855469 2.914062-.941406 2.136719-.941406 4.570313 0 6.707032.449219 1.070312 1.074219 2.054687 1.855469 2.914062l1.324219 1.058594c.492187.335937 1.023437.601562 1.585937.792968.503906.253907 1.039063.433594 1.589844.53125.582031.101563 1.175781.160157 1.765625.175782zm0 0"/><path d="m379.59375 414.90625c1.15625-.015625 2.292969-.253906 3.355469-.707031 1.070312-.449219 2.054687-1.074219 2.914062-1.855469 1.609375-1.691406 2.527344-3.929688 2.558594-6.265625-.015625-1.152344-.253906-2.292969-.707031-3.355469-.445313-1.070312-1.074219-2.054687-1.851563-2.914062-.84375-.796875-1.832031-1.425782-2.914062-1.851563-1.609375-.703125-3.398438-.890625-5.121094-.53125-.550781.097657-1.089844.273438-1.589844.53125-.5625.191407-1.09375.460938-1.585937.792969-.464844.328125-.90625.679688-1.324219 1.058594-.777344.859375-1.40625 1.847656-1.855469 2.914062-.941406 2.136719-.941406 4.574219 0 6.710938.449219 1.066406 1.078125 2.050781 1.855469 2.910156l1.324219 1.0625c.492187.332031 1.023437.601562 1.585937.792969.503907.253906 1.039063.429687 1.589844.53125.585937.101562 1.175781.160156 1.765625.175781zm0 0"/></g><path d="m264.835938 348.699219c0-7.3125-9.878907-13.242188-22.070313-13.242188-12.1875 0-22.066406 5.929688-22.066406 13.242188s9.878906 13.242187 22.066406 13.242187c12.191406 0 22.070313-5.929687 22.070313-13.242187zm0 0" fill="#547580"/><path d="m203.042969 141.25c-3.570313 0-6.789063-2.152344-8.152344-5.449219-1.367187-3.296875-.613281-7.09375 1.910156-9.621093l26.484375-26.480469c3.464844-3.347657 8.96875-3.296875 12.375.105469 3.402344 3.40625 3.453125 8.914062.105469 12.375l-26.480469 26.484374c-1.65625 1.65625-3.902344 2.585938-6.242187 2.585938zm0 0" fill="#2c2f38"/><path d="m308.972656 141.25c-2.339844 0-4.585937-.929688-6.238281-2.585938l-26.484375-26.484374c-3.34375-3.460938-3.296875-8.96875.109375-12.375 3.402344-3.402344 8.910156-3.453126 12.371094-.105469l26.484375 26.480469c2.523437 2.527343 3.277344 6.324218 1.914062 9.621093-1.367187 3.296875-4.585937 5.449219-8.15625 5.449219zm0 0" fill="#2c2f38"/><path d="m189.800781 220.355469c10.222657-20.90625 30.667969-20.90625 40.890625-10.453125s10.222656 31.347656 0 52.25c-7.621094 13.714844-18.21875 25.542968-31.011718 34.621094-5.816407 4.496093-13.9375 4.496093-19.757813 0-12.789063-9.066407-23.386719-20.886719-31.011719-34.585938-10.21875-20.902344-10.21875-41.796875 0-52.25 10.222656-10.453125 30.667969-10.476562 40.890625 10.417969zm0 0" fill="#ff5364" fill-rule="evenodd"/><path d="m171.617188 217.167969c2.011718 3.964843-1.210938 9.605469-7.195313 12.605469s-12.464844 2.214843-14.484375-1.765626c-2.023438-3.980468 1.207031-9.605468 7.191406-12.605468 5.988282-3 12.476563-2.191406 14.488282 1.765625zm0 0" fill="#fb7b76" fill-rule="evenodd"/><path d="m220.167969 217.167969c2.011719 3.964843-1.210938 9.605469-7.195313 12.605469s-12.464844 2.214843-14.484375-1.765626c-2.023437-3.980468 1.207031-9.605468 7.195313-12.605468 5.984375-3 12.472656-2.191406 14.484375 1.765625zm0 0" fill="#fb7b76" fill-rule="evenodd"/><path d="m322.214844 220.355469c10.222656-20.90625 30.667968-20.90625 40.890625-10.453125 10.222656 10.453125 10.222656 31.347656 0 52.25-7.621094 13.714844-18.21875 25.542968-31.011719 34.621094-5.820312 4.496093-13.9375 4.496093-19.757812 0-12.789063-9.066407-23.386719-20.886719-31.011719-34.585938-10.222657-20.902344-10.222657-41.796875 0-52.25 10.222656-10.453125 30.667969-10.476562 40.890625 10.417969zm0 0" fill="#ff5364" fill-rule="evenodd"/><path d="m304.03125 217.167969c2.011719 3.964843-1.210938 9.605469-7.195312 12.605469-5.984376 3-12.464844 2.214843-14.484376-1.765626-2.023437-3.980468 1.207032-9.605468 7.191407-12.605468 5.988281-3 12.476562-2.191406 14.488281 1.765625zm0 0" fill="#fb7b76" fill-rule="evenodd"/><path d="m352.582031 217.167969c2.011719 3.964843-1.210937 9.605469-7.195312 12.605469s-12.464844 2.214843-14.484375-1.765626c-2.023438-3.980468 1.207031-9.605468 7.195312-12.605468 5.984375-3 12.472656-2.191406 14.484375 1.765625zm0 0" fill="#fb7b76" fill-rule="evenodd"/></svg>