<svg height="512pt" viewBox="0 0 512.01133 512" width="512pt" xmlns="http://www.w3.org/2000/svg"><path d="m397.246094 379.59375v61.085938c-.019532 6.34375-3.417969 12.195312-8.914063 15.359374-32.726562 17.324219-68.929687 27.070313-105.933593 28.511719h-52.789063c-37-1.441406-73.203125-11.1875-105.929687-28.511719-5.496094-3.164062-8.894532-9.015624-8.914063-15.359374v-61.085938zm0 0" fill="#805333"/><path d="m229.609375 493.378906c-38.539063-1.503906-76.25-11.644531-110.34375-29.679687-8.21875-4.757813-13.292969-13.523438-13.328125-23.019531 0-4.875 3.953125-8.828126 8.828125-8.828126s8.828125 3.953126 8.828125 8.828126c.03125 3.191406 1.75 6.132812 4.519531 7.722656 31.558594 16.632812 66.449219 25.984375 102.097657 27.367187h52.1875c35.457031-1.4375 70.144531-10.789062 101.519531-27.367187 2.765625-1.59375 4.480469-4.53125 4.5-7.722656 0-4.875 3.953125-8.828126 8.828125-8.828126s8.828125 3.953126 8.828125 8.828126c-.054688 9.46875-5.121094 18.199218-13.3125 22.949218-33.90625 17.980469-71.414063 28.125-109.761719 29.6875zm0 0" fill="#b19046"/><path d="m282.488281 485.523438c0 14.625-11.855469 26.480468-26.484375 26.480468-14.625 0-26.480468-11.855468-26.480468-26.480468s11.855468-26.484376 26.480468-26.484376c14.628906 0 26.484375 11.859376 26.484375 26.484376zm0 0" fill="#f0c419"/><path d="m441.386719 353.109375s-17.214844 94.894531-119.96875 37.339844h-130.824219c-102.753906 57.554687-119.96875-37.339844-119.96875-37.339844l61.53125-304.992187h.085938c30.632812-23.394532 74.769531-48.11328175 123.761718-48.11328175 48.996094 0 92.867188 24.62890575 123.5 47.84765575zm0 0" fill="#af8066"/><path d="m.09375 168.710938c-1.300781-29.707032 10.980469-58.390626 33.378906-77.949219 22.457032-19.535157 52.691406-41.207031 80.507813-45.839844 52.964843-8.828125 17.652343 97.101563 0 150.066406-13.242188 39.726563-26.484375 89.378907-24.832031 130.347657.71875 11.332031-5.90625 21.84375-16.4375 26.082031-10.53125 4.234375-22.59375 1.238281-29.917969-7.4375-19.835938-24.035157-38.507813-73.949219-42.699219-175.269531zm0 0" fill="#cb8252"/><path d="m511.917969 168.199219c1.300781-29.707031-10.980469-58.390625-33.378907-77.949219-22.457031-19.535156-52.691406-41.207031-80.507812-45.839844-52.964844-8.828125-17.652344 97.101563 0 150.066406 13.242188 39.726563 26.484375 89.378907 24.832031 130.347657-.722656 11.332031 5.90625 21.84375 16.4375 26.082031 10.53125 4.234375 22.59375 1.238281 29.917969-7.4375 19.835938-24.046875 38.503906-73.957031 42.699219-175.269531zm0 0" fill="#cb8252"/><path d="m237.960938 198.484375c-3.921876-8.191406-11.816407-13.757813-20.851563-14.695313-30.539063-3.550781-60.996094 7.292969-82.421875 29.351563-5.957031 5.8125-11.34375 12.183594-16.082031 19.03125-5.128907 7.570313-5.964844 17.253906-2.214844 25.59375 3.75 8.335937 11.554687 14.136719 20.621094 15.320313 11.523437 1.582031 22.6875 5.164062 32.976562 10.59375 35.3125 17.65625 44.140625 0 52.96875-8.828126 8.242188-8.15625 39.535157-24.070312 15.003907-76.367187zm0 0" fill="#7f5b53"/><path d="m274.050781 198.484375c3.917969-8.191406 11.816407-13.757813 20.847657-14.695313 30.542968-3.550781 61 7.292969 82.425781 29.351563 5.957031 5.8125 11.34375 12.183594 16.082031 19.03125 5.125 7.570313 5.964844 17.253906 2.214844 25.59375-3.75 8.335937-11.554688 14.136719-20.621094 15.320313-11.527344 1.582031-22.6875 5.164062-32.976562 10.59375-35.3125 17.65625-44.140626 0-52.96875-8.828126-8.242188-8.15625-39.539063-24.070312-15.003907-76.367187zm0 0" fill="#7f5b53"/><path d="m189.445312 388.15625c9.621094 20.742188 35.753907 35.574219 66.558594 35.574219 30.808594 0 56.941406-14.832031 66.5625-35.574219l-66.5625-79.183594zm0 0" fill="#7f5b53"/><path d="m194.210938 132.417969c-3.097657 0-5.96875-1.628907-7.5625-4.285157s-1.679688-5.953124-.222657-8.691406c.671875-1.277344 16.90625-31.160156 43.097657-31.160156 4.875 0 8.828124 3.953125 8.828124 8.828125s-3.953124 8.828125-8.828124 8.828125c-12.925782 0-24.257813 15.757812-27.535157 21.828125-1.535156 2.867187-4.523437 4.652344-7.777343 4.652344zm0 0" fill="#2c3e50"/><path d="m317.796875 132.417969c-3.253906.003906-6.246094-1.785157-7.785156-4.652344-3.265625-6.070313-14.601563-21.828125-27.523438-21.828125-4.875 0-8.828125-3.953125-8.828125-8.828125s3.953125-8.828125 8.828125-8.828125c26.191407 0 42.425781 29.882812 43.105469 31.152344 1.460938 2.738281 1.378906 6.042968-.21875 8.703125-1.597656 2.660156-4.472656 4.285156-7.578125 4.28125zm0 0" fill="#2c3e50"/><path d="m211.867188 229.523438c0 14.625-11.855469 26.480468-26.480469 26.480468-14.628907 0-26.484375-11.855468-26.484375-26.480468s11.855468-26.484376 26.484375-26.484376c14.625 0 26.480469 11.859376 26.480469 26.484376zm0 0" fill="#fff"/><path d="m203.039062 229.523438c0 9.75-7.902343 17.65625-17.652343 17.65625-9.753907 0-17.65625-7.90625-17.65625-17.65625s7.902343-17.65625 17.65625-17.65625c9.75 0 17.652343 7.90625 17.652343 17.65625zm0 0" fill="#e4c05c"/><path d="m194.210938 229.523438c0 4.875-3.949219 8.828124-8.824219 8.828124-4.878907 0-8.828125-3.953124-8.828125-8.828124s3.949218-8.828126 8.828125-8.828126c4.875 0 8.824219 3.953126 8.824219 8.828126zm0 0" fill="#2c2f38"/><path d="m185.386719 220.695312c0 4.875-3.953125 8.828126-8.828125 8.828126s-8.828125-3.953126-8.828125-8.828126 3.953125-8.828124 8.828125-8.828124 8.828125 3.953124 8.828125 8.828124zm0 0" fill="#fff"/><path d="m353.109375 229.523438c0 14.625-11.855469 26.480468-26.484375 26.480468-14.625 0-26.480469-11.855468-26.480469-26.480468s11.855469-26.484376 26.480469-26.484376c14.628906 0 26.484375 11.859376 26.484375 26.484376zm0 0" fill="#fff"/><path d="m344.28125 229.523438c0 9.75-7.902344 17.65625-17.65625 17.65625-9.75 0-17.652344-7.90625-17.652344-17.65625s7.902344-17.65625 17.652344-17.65625c9.753906 0 17.65625 7.90625 17.65625 17.65625zm0 0" fill="#e4c05c"/><path d="m335.453125 229.523438c0 4.875-3.953125 8.828124-8.828125 8.828124s-8.828125-3.953124-8.828125-8.828124 3.953125-8.828126 8.828125-8.828126 8.828125 3.953126 8.828125 8.828126zm0 0" fill="#2c2f38"/><path d="m326.625 220.695312c0 4.875-3.949219 8.828126-8.828125 8.828126-4.875 0-8.824219-3.953126-8.824219-8.828126s3.949219-8.828124 8.824219-8.828124c4.878906 0 8.828125 3.953124 8.828125 8.828124zm0 0" fill="#fff"/><path d="m133.65625 339.074219v-.089844c-.429688-1.949219-.726562-3.925781-.882812-5.914063v-.175781c-.472657-4.164062-.472657-8.371093 0-12.535156v-.175781c.15625-1.992188.453124-3.96875.882812-5.914063v-.089843c8.472656-42.8125 60.027344-75.828126 122.347656-75.828126 62.324219 0 113.878906 33.015626 122.351563 75.828126v.089843c.429687 1.945313.726562 3.921875.882812 5.914063v.175781c.472657 4.164063.472657 8.371094 0 12.535156v.175781c-.15625 1.988282-.453125 3.964844-.882812 5.914063v.089844l-1.5-30.808594c.53125 1.941406 1.058593 3.882813 1.5 5.914063v.089843c0 .085938.089843.261719.089843.351563.351563 1.855468.617188 3.707031.792969 5.5625v.351562c.472657 4.046875.472657 8.136719 0 12.183594v.351562c-.175781 1.855469-.441406 3.707032-.792969 5.5625 0 .085938-.089843.265626-.089843.351563v.089844c-6.320313 31.128906-35.210938 52.394531-66.8125 49.179687-31.597657-3.214844-55.613281-29.863281-55.539063-61.628906.078125 31.765625-23.9375 58.414062-55.539062 61.628906-31.597656 3.214844-60.488282-18.050781-66.808594-49.179687v-.089844c0-.085937-.089844-.265625-.089844-.351563-.351562-1.765624-.617187-3.707031-.792968-5.5625v-.351562c-.472657-4.046875-.472657-8.136719 0-12.183594v-.351562c.175781-1.855469.441406-3.796875.792968-5.5625 0-.089844.089844-.265625.089844-.351563v-.089843c.441406-2.03125.96875-3.972657 1.5-5.914063zm0 0" fill="#59474e"/><path d="m300.144531 291.316406c0 12.976563-19.773437 35.308594-44.140625 35.308594-24.363281 0-44.136718-22.332031-44.136718-35.308594.011718-1.542968.3125-3.070312.882812-4.503906 4.148438-9.53125 21.894531-13.152344 43.253906-13.152344 24.367188 0 44.140625 4.679688 44.140625 17.65625zm0 0" fill="#2c3e50"/><g fill="#2c2f38"><path d="m167.730469 326.625c-1.152344-.011719-2.292969-.253906-3.355469-.703125-1.070312-.449219-2.054688-1.078125-2.914062-1.855469-1.609376-1.691406-2.523438-3.929687-2.558594-6.269531.015625-1.152344.253906-2.292969.707031-3.351563.445313-1.070312 1.074219-2.054687 1.851563-2.914062.84375-.796875 1.832031-1.429688 2.914062-1.855469 1.609375-.703125 3.398438-.886719 5.121094-.527343.550781.09375 1.089844.273437 1.589844.527343.5625.195313 1.09375.460938 1.585937.796875.464844.324219.90625.679688 1.324219 1.058594.78125.859375 1.40625 1.84375 1.855468 2.914062.941407 2.136719.941407 4.570313 0 6.707032-.449218 1.070312-1.078124 2.054687-1.855468 2.914062l-1.324219 1.058594c-.492187.335938-1.023437.601562-1.585937.796875-.503907.25-1.039063.429687-1.589844.527344-.585938.101562-1.175782.160156-1.765625.175781zm0 0"/><path d="m185.386719 353.109375c-1.15625-.015625-2.296875-.253906-3.355469-.707031-1.070312-.449219-2.054688-1.074219-2.914062-1.851563-1.613282-1.695312-2.527344-3.933593-2.558594-6.269531.011718-1.152344.253906-2.292969.703125-3.355469.449219-1.066406 1.078125-2.054687 1.855469-2.910156.84375-.800781 1.832031-1.429687 2.914062-1.855469 1.609375-.703125 3.398438-.890625 5.121094-.53125.550781.097656 1.085937.277344 1.585937.53125.5625.191406 1.097657.460938 1.589844.792969.460937.328125.90625.679687 1.324219 1.0625.777344.859375 1.40625 1.84375 1.855468 2.910156.941407 2.136719.941407 4.574219 0 6.710938-.449218 1.066406-1.078124 2.054687-1.855468 2.914062l-1.324219 1.058594c-.492187.332031-1.027344.601563-1.589844.792969-.5.253906-1.035156.433594-1.585937.53125-.585938.101562-1.175782.160156-1.765625.175781zm0 0"/><path d="m344.28125 326.625c1.152344-.011719 2.292969-.253906 3.355469-.703125 1.066406-.449219 2.054687-1.078125 2.914062-1.855469 1.609375-1.691406 2.523438-3.929687 2.558594-6.269531-.015625-1.152344-.253906-2.292969-.707031-3.351563-.445313-1.070312-1.074219-2.054687-1.851563-2.914062-.84375-.796875-1.835937-1.429688-2.914062-1.855469-1.609375-.703125-3.402344-.886719-5.121094-.527343-.554687.09375-1.089844.273437-1.589844.527343-.5625.195313-1.09375.460938-1.585937.796875-.464844.324219-.90625.679688-1.324219 1.058594-.78125.859375-1.40625 1.84375-1.855469 2.914062-.941406 2.136719-.941406 4.570313 0 6.707032.449219 1.070312 1.074219 2.054687 1.855469 2.914062l1.324219 1.058594c.492187.335938 1.023437.601562 1.585937.796875.503907.25 1.039063.429687 1.589844.527344.582031.101562 1.175781.160156 1.765625.175781zm0 0"/><path d="m326.625 353.109375c1.15625-.015625 2.292969-.253906 3.355469-.707031 1.070312-.449219 2.054687-1.074219 2.914062-1.851563 1.613281-1.695312 2.527344-3.933593 2.558594-6.269531-.011719-1.152344-.253906-2.292969-.707031-3.355469-.445313-1.066406-1.074219-2.054687-1.851563-2.910156-.84375-.800781-1.832031-1.429687-2.914062-1.855469-1.609375-.703125-3.398438-.890625-5.121094-.53125-.550781.097656-1.085937.277344-1.585937.53125-.5625.191406-1.097657.460938-1.589844.792969-.460938.328125-.90625.679687-1.324219 1.0625-.777344.859375-1.40625 1.84375-1.855469 2.910156-.941406 2.136719-.941406 4.574219 0 6.710938.449219 1.066406 1.078125 2.054687 1.855469 2.914062l1.324219 1.058594c.492187.332031 1.027344.601563 1.589844.792969.5.253906 1.035156.433594 1.585937.53125.585937.101562 1.175781.160156 1.765625.175781zm0 0"/></g><path d="m264.832031 291.316406c0-4.875-7.902343-8.828125-17.652343-8.828125-9.753907 0-17.65625 3.953125-17.65625 8.828125s7.902343 8.828125 17.65625 8.828125c9.75 0 17.652343-3.953125 17.652343-8.828125zm0 0" fill="#35495e"/></svg>