<svg height="512pt" viewBox="-6 0 511 512" width="512pt" xmlns="http://www.w3.org/2000/svg"><path d="m382.421875 414.898438s-35.578125 64.085937-106.816406 77.0625h-51.199219c-71.238281-12.976563-106.8125-77.0625-106.8125-77.0625l132.414062-194.207032zm0 0" fill="#7f5b53"/><path d="m275.605469 500.789062h-51.199219c-.53125 0-1.0625-.046874-1.589844-.140624-74.484375-13.578126-111.402344-78.691407-112.9375-81.46875-2.371094-4.261719-.835937-9.636719 3.425782-12.007813 4.257812-2.367187 9.632812-.835937 12.003906 3.425781.335937.601563 34.320312 60.167969 99.902344 72.535156h49.582031c65.847656-12.410156 99.566406-71.917968 99.902343-72.519531 1.496094-2.824219 4.402344-4.621093 7.597657-4.695312 3.195312-.074219 6.183593 1.585937 7.808593 4.335937 1.625 2.753906 1.632813 6.171875.027344 8.933594-1.539062 2.761719-38.453125 67.890625-112.941406 81.46875-.523438.089844-1.050781.136719-1.582031.132812zm0 0" fill="#804537"/><path d="m276.488281 485.515625c0 14.628906-11.855469 26.484375-26.480469 26.484375s-26.484374-11.855469-26.484374-26.484375c0-14.625 11.859374-26.480469 26.484374-26.480469s26.480469 11.855469 26.480469 26.480469zm0 0" fill="#f0c419"/><path d="m320.628906 388.414062c70.621094-8.828124 123.585938 123.585938 123.585938 123.585938 44.136718-105.929688-26.484375-176.550781-26.484375-176.550781 61.792969 0 79.449219 44.136719 79.449219 44.136719 17.65625-97.101563-70.621094-150.070313-70.621094-150.070313 26.484375-8.824219 61.792968 17.65625 61.792968 17.65625-8.828124-52.964844-62.941406-79.449219-62.941406-79.449219 3.667969-4.699218 6.753906-9.824218 9.183594-15.269531 19.648438-41.710937 39.882812-92.257813 17.378906-137.253906-2.601562-5.199219-7.5625-8.820313-13.3125-9.707031-7.128906.109374-14.050781 2.417968-19.816406 6.609374-26.835938 13.992188-53.699219 26.960938-80.5625 40.863282 0 0-17.652344-52.964844-88.273438-52.964844-70.621093 0-88.277343 52.964844-88.277343 52.964844-26.863281-13.902344-53.722657-26.871094-80.558594-40.84375-5.769531-4.195313-12.691406-6.503906-19.820313-6.613282-5.746093.890626-10.707031 4.507813-13.3125 9.710938-22.5 44.976562-2.265624 95.515625 17.382813 137.234375 2.429687 5.445313 5.511719 10.570313 9.179687 15.269531 0 0-54.113281 26.484375-62.9375 79.449219 0 0 35.308594-26.480469 61.792969-17.65625 0 0-88.277343 52.96875-70.621093 150.070313 0 0 17.652343-44.136719 79.445312-44.136719 0 0-70.617188 70.621093-26.480469 176.550781 0 0 52.964844-132.414062 123.585938-123.585938zm0 0" fill="#59474e"/><path d="m195.613281 120.53125c-7.070312-5.703125-16.59375-7.324219-25.152343-4.28125-29.074219 9.964844-51.871094 32.871094-61.695313 61.996094-2.867187 7.828125-4.976563 15.914062-6.292969 24.144531-1.363281 9.039063 2.054688 18.136719 9.027344 24.042969 6.976562 5.90625 16.515625 7.777344 25.203125 4.945312 11.09375-3.527344 22.71875-5.089844 34.351563-4.605468 39.464843.722656 39.828124-19.015626 43.996093-30.785157 3.847657-10.980469 25.246094-38.855469-19.4375-75.457031zm0 0" fill="#2c3e50"/><path d="m306.601562 120.53125c7.066407-5.703125 16.589844-7.324219 25.148438-4.28125 29.09375 9.953125 51.90625 32.863281 61.742188 61.996094 2.867187 7.828125 4.976562 15.914062 6.292968 24.144531 1.363282 9.039063-2.054687 18.136719-9.03125 24.042969-6.976562 5.90625-16.511718 7.777344-25.203125 4.945312-11.09375-3.527344-22.71875-5.089844-34.347656-4.605468-39.46875.722656-39.828125-19.015626-43.996094-30.785157-3.882812-10.980469-25.265625-38.855469 19.394531-75.457031zm0 0" fill="#2c3e50"/><path d="m183.445312 388.148438c9.625 20.746093 35.753907 35.574218 66.5625 35.574218 30.808594 0 56.9375-14.828125 66.558594-35.574218l-66.558594-79.183594zm0 0" fill="#cb8252"/><path d="m99.9375 132.414062c-15.394531-19.820312-21.851562-45.144531-17.832031-69.914062l-8.648438-9.535156s17.652344 26.484375 61.792969 35.3125zm0 0" fill="#fdd7ad"/><path d="m135.25 97.101562c-.59375.003907-1.1875-.058593-1.765625-.175781-47.183594-9.4375-66.605469-37.859375-67.410156-39.070312-2.6875-4.046875-1.597657-9.507813 2.4375-12.214844 4.035156-2.707031 9.5-1.640625 12.226562 2.382813.722657 1.058593 16.683594 23.683593 56.203125 31.59375 4.453125.878906 7.511719 4.992187 7.074219 9.511718-.4375 4.515625-4.230469 7.964844-8.765625 7.972656zm0 0" fill="#7f5b53"/><path d="m99.9375 141.242188c-2.777344 0-5.394531-1.308594-7.0625-3.53125-16.949219-21.824219-23.992188-49.75-19.417969-77.003907.984375-4.773437 5.65625-7.847656 10.433594-6.859375 4.773437.988282 7.84375 5.660156 6.859375 10.433594-3.472656 22.289062 2.40625 45.023438 16.25 62.835938 2.007812 2.675781 2.328125 6.253906.832031 9.246093-1.492187 2.988281-4.550781 4.878907-7.894531 4.878907zm0 0" fill="#7f5b53"/><path d="m400.074219 132.414062c15.394531-19.820312 21.855469-45.144531 17.832031-69.914062l8.652344-9.535156s-17.65625 26.484375-61.792969 35.3125zm0 0" fill="#fdd7ad"/><path d="m364.765625 97.101562c-4.535156.007813-8.335937-3.425781-8.792969-7.9375-.453125-4.511718 2.582032-8.636718 7.027344-9.539062 39.617188-7.945312 55.550781-30.632812 56.207031-31.59375 2.722657-4.023438 8.1875-5.089844 12.222657-2.382812 4.039062 2.707031 5.125 8.167968 2.4375 12.214843-.800782 1.210938-20.222657 29.636719-67.40625 39.074219-.558594.109375-1.125.164062-1.695313.164062zm0 0" fill="#7f5b53"/><path d="m400.074219 141.242188c-3.34375 0-6.398438-1.890626-7.894531-4.878907-1.496094-2.992187-1.171876-6.570312.835937-9.246093 13.835937-17.8125 19.714844-40.546876 16.242187-62.835938-.640624-3.089844.417969-6.285156 2.777344-8.382812 2.355469-2.101563 5.652344-2.78125 8.648438-1.789063s5.238281 3.507813 5.875 6.597656c4.574218 27.253907-2.46875 55.179688-19.421875 77.003907-1.664063 2.222656-4.28125 3.53125-7.0625 3.53125zm0 0" fill="#7f5b53"/><path d="m127.65625 339.066406v-.085937c-.429688-1.949219-.722656-3.925781-.882812-5.914063v-.179687c-.46875-4.164063-.46875-8.367188 0-12.535157v-.175781c.160156-1.988281.453124-3.964843.882812-5.914062v-.089844c7.679688-38.664063 50.496094-69.382813 104.695312-74.855469v-168.695312c.03125-9.738282 7.917969-17.625 17.65625-17.65625 9.71875.074218 17.582032 7.933594 17.65625 17.65625v168.695312c54.199219 5.472656 97.011719 36.191406 104.691407 74.855469v.089844c.433593 1.949219.726562 3.925781.882812 5.914062v.175781c.472657 4.167969.472657 8.371094 0 12.535157v.179687c-.15625 1.988282-.449219 3.964844-.882812 5.914063v.085937l-1.5-30.808594c.53125 1.945313 1.058593 3.886719 1.5 5.914063v.089844c0 .089843.089843.265625.089843.351562.351563 1.855469.617188 3.710938.792969 5.5625v.355469c.472657 4.046875.472657 8.132812 0 12.179688v.355468c-.175781 1.851563-.441406 3.707032-.792969 5.558594 0 .089844-.089843.265625-.089843.355469v.085937c-6.320313 31.128906-35.210938 52.394532-66.808594 49.179688-31.601563-3.214844-55.617187-29.863282-55.539063-61.625.078126 31.761718-23.9375 58.410156-55.539062 61.625s-60.492188-18.050782-66.8125-49.179688v-.085937c0-.089844-.085938-.265625-.085938-.355469-.355468-1.765625-.621093-3.707031-.796874-5.558594v-.355468c-.46875-4.046876-.46875-8.132813 0-12.179688v-.355469c.175781-1.851562.441406-3.796875.796874-5.5625 0-.085937.085938-.261719.085938-.351562v-.089844c.441406-2.027344.972656-3.96875 1.5-5.914063zm0 0" fill="#cbb292"/><g fill="#2c3e50"><path d="m294.144531 291.308594c0 12.976562-19.773437 35.3125-44.136719 35.3125-24.363281 0-44.140624-22.335938-44.140624-35.3125.011718-1.539063.3125-3.066406.882812-4.5 4.152344-9.535156 21.894531-13.152344 43.257812-13.152344 24.363282 0 44.136719 4.675781 44.136719 17.652344zm0 0"/><path d="m170.558594 317.792969c-1.152344-.015625-2.292969-.253907-3.355469-.707031-1.066406-.449219-2.050781-1.074219-2.910156-1.851563-1.613281-1.695313-2.527344-3.933594-2.5625-6.269531.015625-1.152344.253906-2.292969.707031-3.355469.449219-1.066406 1.074219-2.054687 1.855469-2.910156.839843-.800781 1.832031-1.429688 2.910156-1.855469 1.613281-.703125 3.402344-.886719 5.121094-.527344.554687.09375 1.089843.273438 1.589843.527344.5625.195312 1.097657.460938 1.589844.792969.460938.328125.902344.683593 1.324219 1.0625.777344.859375 1.402344 1.84375 1.851563 2.910156.941406 2.140625.941406 4.574219 0 6.710937-.449219 1.066407-1.074219 2.054688-1.851563 2.914063l-1.324219 1.058594c-.492187.332031-1.027344.601562-1.589844.792969-.5.253906-1.039062.433593-1.589843.53125-.582031.101562-1.171875.160156-1.765625.175781zm0 0"/><path d="m197.042969 353.101562c-1.15625-.011718-2.292969-.253906-3.355469-.703124-1.070312-.449219-2.054688-1.078126-2.914062-1.855469-1.613282-1.691407-2.527344-3.929688-2.558594-6.265625.011718-1.15625.253906-2.292969.707031-3.355469.445313-1.070313 1.074219-2.054687 1.851563-2.914063.84375-.796874 1.832031-1.425781 2.914062-1.851562 1.609375-.707031 3.398438-.890625 5.121094-.53125.550781.097656 1.085937.273438 1.585937.53125.5625.191406 1.097657.457031 1.589844.792969.460937.324219.90625.679687 1.324219 1.058593.777344.859376 1.40625 1.84375 1.855468 2.914063.941407 2.136719.941407 4.570313 0 6.707031-.449218 1.070313-1.078124 2.054688-1.855468 2.914063l-1.324219 1.058593c-.492187.335938-1.027344.601563-1.589844.796876-.5.25-1.035156.429687-1.585937.527343-.585938.101563-1.175782.160157-1.765625.175781zm0 0"/><path d="m161.730469 353.101562c-1.152344-.011718-2.292969-.253906-3.355469-.703124-1.066406-.449219-2.050781-1.078126-2.910156-1.855469-1.613282-1.691407-2.527344-3.929688-2.5625-6.265625.015625-1.15625.253906-2.292969.707031-3.355469.449219-1.070313 1.074219-2.054687 1.855469-2.914063.84375-.796874 1.832031-1.425781 2.910156-1.851562 1.613281-.707031 3.402344-.890625 5.121094-.53125.554687.097656 1.089844.273438 1.589844.53125.5625.191406 1.097656.457031 1.589843.792969.460938.324219.902344.679687 1.324219 1.058593.777344.859376 1.402344 1.84375 1.851562 2.914063.941407 2.136719.941407 4.570313 0 6.707031-.449218 1.070313-1.074218 2.054688-1.851562 2.914063l-1.324219 1.058593c-.492187.335938-1.027343.601563-1.589843.796876-.5.25-1.035157.429687-1.589844.527343-.582032.101563-1.171875.160157-1.765625.175781zm0 0"/><path d="m329.457031 317.792969c1.152344-.015625 2.292969-.253907 3.351563-.707031 1.070312-.449219 2.054687-1.074219 2.914062-1.851563 1.613282-1.695313 2.527344-3.933594 2.558594-6.269531-.011719-1.152344-.253906-2.292969-.703125-3.355469-.449219-1.066406-1.074219-2.054687-1.855469-2.910156-.84375-.800781-1.832031-1.429688-2.914062-1.855469-1.609375-.703125-3.398438-.886719-5.117188-.527344-.554687.09375-1.089844.273438-1.589844.527344-.5625.195312-1.097656.460938-1.589843.792969-.460938.328125-.902344.683593-1.324219 1.0625-.777344.859375-1.40625 1.84375-1.855469 2.910156-.941406 2.140625-.941406 4.574219 0 6.710937.449219 1.066407 1.078125 2.054688 1.855469 2.914063l1.324219 1.058594c.492187.332031 1.027343.601562 1.589843.792969.5.253906 1.035157.433593 1.589844.53125.582032.101562 1.171875.160156 1.765625.175781zm0 0"/><path d="m302.972656 353.101562c1.152344-.011718 2.292969-.253906 3.355469-.703124 1.066406-.449219 2.050781-1.078126 2.910156-1.855469 1.613281-1.691407 2.527344-3.929688 2.5625-6.265625-.015625-1.15625-.253906-2.292969-.707031-3.355469-.449219-1.070313-1.074219-2.054687-1.855469-2.914063-.839843-.796874-1.832031-1.425781-2.910156-1.851562-1.613281-.707031-3.402344-.890625-5.121094-.53125-.554687.097656-1.089843.273438-1.589843.53125-.5625.191406-1.097657.457031-1.589844.792969-.460938.324219-.902344.679687-1.324219 1.058593-.777344.859376-1.402344 1.84375-1.851563 2.914063-.941406 2.136719-.941406 4.570313 0 6.707031.449219 1.070313 1.074219 2.054688 1.851563 2.914063l1.324219 1.058593c.492187.335938 1.027344.601563 1.589844.796876.5.25 1.039062.429687 1.589843.527343.582031.101563 1.171875.160157 1.765625.175781zm0 0"/><path d="m338.28125 353.101562c1.15625-.011718 2.292969-.253906 3.355469-.703124 1.070312-.449219 2.054687-1.078126 2.914062-1.855469 1.613281-1.691407 2.527344-3.929688 2.558594-6.265625-.011719-1.15625-.253906-2.292969-.707031-3.355469-.445313-1.070313-1.074219-2.054687-1.851563-2.914063-.84375-.796874-1.832031-1.425781-2.914062-1.851562-1.609375-.707031-3.398438-.890625-5.121094-.53125-.550781.097656-1.085937.273438-1.585937.53125-.5625.191406-1.097657.457031-1.589844.792969-.460938.324219-.90625.679687-1.324219 1.058593-.777344.859376-1.40625 1.84375-1.855469 2.914063-.941406 2.136719-.941406 4.570313 0 6.707031.449219 1.070313 1.078125 2.054688 1.855469 2.914063l1.324219 1.058593c.492187.335938 1.027344.601563 1.589844.796876.5.25 1.035156.429687 1.585937.527343.585937.101563 1.175781.160157 1.765625.175781zm0 0"/></g><path d="m197.042969 176.550781c0 14.628907-11.859375 26.484375-26.484375 26.484375s-26.484375-11.855468-26.484375-26.484375c0-14.625 11.859375-26.480469 26.484375-26.480469s26.484375 11.855469 26.484375 26.480469zm0 0" fill="#fff"/><path d="m188.214844 176.550781c0 9.75-7.90625 17.65625-17.65625 17.65625s-17.65625-7.90625-17.65625-17.65625 7.90625-17.652343 17.65625-17.652343 17.65625 7.902343 17.65625 17.652343zm0 0" fill="#805333"/><path d="m170.558594 185.378906c-1.152344-.011718-2.292969-.253906-3.355469-.707031-1.066406-.449219-2.050781-1.074219-2.910156-1.851563-1.613281-1.691406-2.527344-3.929687-2.5625-6.269531.015625-1.152343.253906-2.292969.707031-3.355469.449219-1.066406 1.074219-2.054687 1.855469-2.910156.839843-.800781 1.832031-1.429687 2.910156-1.855468 1.613281-.703126 3.402344-.886719 5.121094-.527344.554687.09375 1.089843.273437 1.589843.527344.5625.195312 1.097657.460937 1.589844.796874.460938.324219.902344.679688 1.324219 1.058594.777344.859375 1.402344 1.84375 1.851563 2.910156.941406 2.140626.941406 4.574219 0 6.710938-.449219 1.070312-1.074219 2.054688-1.851563 2.914062l-1.324219 1.058594c-.492187.332032-1.027344.601563-1.589844.792969-.5.253906-1.039062.433594-1.589843.53125-.582031.101563-1.171875.160156-1.765625.175781zm0 0" fill="#2c2f38"/><path d="m170.558594 167.722656c0 4.875-3.953125 8.828125-8.828125 8.828125s-8.828125-3.953125-8.828125-8.828125 3.953125-8.824218 8.828125-8.824218 8.828125 3.949218 8.828125 8.824218zm0 0" fill="#ecf0f1"/><path d="m355.9375 176.550781c0 14.628907-11.855469 26.484375-26.480469 26.484375-14.628906 0-26.484375-11.855468-26.484375-26.484375 0-14.625 11.855469-26.480469 26.484375-26.480469 14.625 0 26.480469 11.855469 26.480469 26.480469zm0 0" fill="#fff"/><path d="m347.109375 176.550781c0 9.75-7.902344 17.65625-17.652344 17.65625-9.753906 0-17.65625-7.90625-17.65625-17.65625s7.902344-17.652343 17.65625-17.652343c9.75 0 17.652344 7.902343 17.652344 17.652343zm0 0" fill="#805333"/><path d="m329.457031 185.378906c-1.15625-.011718-2.296875-.253906-3.355469-.707031-1.070312-.449219-2.054687-1.074219-2.914062-1.851563-1.613281-1.691406-2.527344-3.929687-2.558594-6.269531.011719-1.152343.253906-2.292969.703125-3.355469.449219-1.066406 1.078125-2.054687 1.855469-2.910156.84375-.800781 1.832031-1.429687 2.914062-1.855468 1.609376-.703126 3.398438-.886719 5.121094-.527344.550782.09375 1.085938.273437 1.585938.527344.5625.195312 1.097656.460937 1.589844.796874.460937.324219.90625.679688 1.324218 1.058594.777344.859375 1.40625 1.84375 1.855469 2.910156.941406 2.140626.941406 4.574219 0 6.710938-.449219 1.070312-1.078125 2.054688-1.855469 2.914062l-1.324218 1.058594c-.492188.332032-1.027344.601563-1.589844.792969-.5.253906-1.035156.433594-1.585938.53125-.585937.101563-1.175781.160156-1.765625.175781zm0 0" fill="#2c2f38"/><path d="m329.457031 167.722656c0 4.875-3.953125 8.828125-8.828125 8.828125s-8.828125-3.953125-8.828125-8.828125 3.953125-8.824218 8.828125-8.824218 8.828125 3.949218 8.828125 8.824218zm0 0" fill="#ecf0f1"/></svg>