<svg height="511pt" viewBox="0 -17 511.77573 511" width="511pt" xmlns="http://www.w3.org/2000/svg"><path d="m457.433594 282.9375c83.859375-44.710938 37.269531-125.199219 37.269531-178.863281.773437-27.257813 6.207031-54.183594 16.066406-79.609375 2.117188-6.089844.839844-12.851563-3.355469-17.746094-4.199218-4.898438-10.683593-7.195312-17.027343-6.035156-36.007813 5.4375-92.382813 17.355468-116.808594 40.785156-22.050781 20.972656-40.886719 45.078125-55.902344 71.546875h-123.585937c-15.019532-26.453125-33.859375-50.546875-55.90625-71.503906-24.410156-23.425781-80.808594-35.308594-116.808594-40.792969-6.335938-1.15625-12.808594 1.140625-17.003906 6.027344-4.195313 4.886718-5.480469 11.632812-3.378906 17.71875 9.859374 25.425781 15.292968 52.351562 16.066406 79.609375 0 53.664062-46.582032 134.179687 37.269531 178.863281zm0 0" fill="#804537"/><path d="m443.546875 249.226562c31.488281-18.601562 30.464844-42.65625 20.496094-94.085937-3.789063-16.777344-6.003907-33.875-6.609375-51.066406.289062-21.195313 3.324218-42.261719 9.039062-62.675781-37.457031 7.945312-58.695312 17.882812-66.523437 25.394531-18.914063 18.136719-35.25 38.777343-48.554688 61.355469h-191.035156c-13.304687-22.578126-29.640625-43.21875-48.554687-61.355469-7.828126-7.511719-29.066407-17.441407-66.523438-25.394531 5.714844 20.414062 8.75 41.480468 9.039062 62.675781-.605468 17.191406-2.820312 34.289062-6.609374 51.066406-9.96875 51.421875-10.992188 75.484375 20.496093 94.085937zm0 0" fill="#cb9080"/><path d="m114.726562 436.273438c-5.207031-2.207032-10.0625-4.503907-14.386718-6.796876-20.835938-10.4375-37.785156-27.265624-48.375-48.023437-15.625-32.75-5.121094-73.179687 4.765625-106.195313 10.515625-34.722656 25.976562-67.753906 45.902343-98.074218 32.929688-50.316406 89.601563-87.921875 153.25-70.796875 63.644532-17.125 120.320313 20.480469 153.246094 70.796875 19.929688 30.320312 35.386719 63.351562 45.902344 98.074218 9.886719 33.015626 20.390625 73.445313 4.765625 106.195313-10.585937 20.757813-27.539063 37.585937-48.375 48.023437-4.324219 2.292969-9.179687 4.589844-14.386719 6.796876l-96.925781 29.75c-13.351563 7.921874-28.71875 11.785156-44.226563 11.121093-15.511718.664063-30.878906-3.199219-44.226562-11.121093zm0 0" fill="#cb8252"/><path d="m292.691406 340.582031c17.039063-.707031 32.664063 9.800781 46.167969 19.246094 18.773437 13.628906 35.101563 30.34375 48.289063 49.433594 8.640624 9.707031 11.707031 23.167969 8.121093 35.664062-7.679687 20.125-35.664062 28.6875-55.703125 31.601563-15.464844 3.128906-31.453125-1.945313-42.285156-13.417969-6.265625-7.414063-9.445312-16.683594-15.445312-24.277344l-.265626-.261719c-6.375-7.589843-15.777343-11.972656-25.6875-11.972656-9.914062 0-19.316406 4.382813-25.691406 11.972656l-.261718.261719c-6.003907 7.59375-9.183594 16.863281-15.449219 24.277344-10.832031 11.472656-26.820313 16.546875-42.285157 13.417969-20.039062-2.914063-48.023437-11.476563-55.703124-31.601563-3.585938-12.496093-.519532-25.957031 8.121093-35.664062 13.1875-19.089844 29.515625-35.804688 48.289063-49.433594 13.507812-9.445313 29.128906-19.953125 46.167968-19.246094" fill="#fdd7ad"/><path d="m300.019531 321.1875c-3.421875 22.285156-21.671875 39.316406-44.136719 41.199219-22.46875-1.882813-40.71875-18.914063-44.140624-41.199219.003906-1.800781.304687-3.589844.882812-5.296875 4.148438-11.078125 21.894531-15.296875 43.257812-15.296875 24.363282 0 44.136719 5.457031 44.136719 20.59375zm0 0" fill="#2c2f38"/><g fill="#7f5b53"><path d="m149.949219 441.835938c-.589844-.015626-1.179688-.078126-1.765625-.175782-.550782-.101562-1.085938-.277344-1.585938-.53125-.566406-.191406-1.105468-.460937-1.601562-.792968l-1.3125-1.0625c-3.414063-3.480469-3.414063-9.054688 0-12.535157l1.3125-1.058593c.496094-.332032 1.035156-.601563 1.601562-.792969.5-.257813 1.035156-.433594 1.585938-.53125 1.722656-.359375 3.511718-.171875 5.121094.53125 1.050781.429687 2.011718 1.058593 2.824218 1.851562 2.535156 2.515625 3.304688 6.308594 1.953125 9.613281-1.351562 3.304688-4.5625 5.46875-8.132812 5.484376zm0 0"/><path d="m176.433594 415.351562c-.59375-.015624-1.183594-.074218-1.765625-.175781-.554688-.097656-1.089844-.277343-1.589844-.53125-.566406-.191406-1.101563-.457031-1.597656-.792969l-1.316407-1.058593c-3.414062-3.480469-3.414062-9.054688 0-12.535157l1.316407-1.058593c.496093-.335938 1.03125-.601563 1.597656-.796875.5-.253906 1.035156-.433594 1.589844-.527344 1.71875-.359375 3.507812-.175781 5.121093.527344 1.050782.429687 2.011719 1.058594 2.824219 1.855468 2.535157 2.511719 3.304688 6.308594 1.953125 9.609376-1.351562 3.304687-4.5625 5.46875-8.132812 5.484374zm0 0"/><path d="m185.261719 450.664062c-.59375-.019531-1.183594-.078124-1.765625-.179687-.554688-.097656-1.089844-.273437-1.589844-.527344-.566406-.195312-1.101562-.460937-1.597656-.796875l-1.316406-1.058594c-3.414063-3.480468-3.414063-9.054687 0-12.535156l1.316406-1.058594c.496094-.335937 1.03125-.601562 1.597656-.792968.5-.257813 1.035156-.433594 1.589844-.53125 1.71875-.359375 3.507812-.175782 5.117187.53125 1.054688.429687 2.011719 1.058594 2.828125 1.851562 2.535156 2.515625 3.304688 6.308594 1.953125 9.613282-1.355469 3.304687-4.5625 5.46875-8.132812 5.484374zm0 0"/><path d="m361.8125 441.835938c.59375-.015626 1.183594-.078126 1.765625-.175782.550781-.101562 1.085937-.277344 1.589844-.53125.5625-.191406 1.101562-.460937 1.597656-.792968l1.3125-1.0625c3.414063-3.480469 3.414063-9.054688 0-12.535157l-1.3125-1.058593c-.496094-.332032-1.035156-.601563-1.597656-.792969-.5-.257813-1.035157-.433594-1.589844-.53125-1.71875-.359375-3.511719-.171875-5.121094.53125-1.050781.429687-2.011719 1.058593-2.824219 1.851562-2.535156 2.515625-3.304687 6.308594-1.953124 9.613281 1.351562 3.304688 4.5625 5.46875 8.132812 5.484376zm0 0"/><path d="m335.328125 415.351562c.59375-.015624 1.183594-.074218 1.765625-.175781.554688-.097656 1.089844-.277343 1.589844-.53125.566406-.191406 1.101562-.457031 1.597656-.792969l1.316406-1.058593c3.414063-3.480469 3.414063-9.054688 0-12.535157l-1.316406-1.058593c-.496094-.335938-1.03125-.601563-1.597656-.796875-.5-.253906-1.035156-.433594-1.589844-.527344-1.71875-.359375-3.507812-.175781-5.117188.527344-1.054687.429687-2.011718 1.058594-2.828124 1.855468-2.53125 2.511719-3.304688 6.308594-1.953126 9.609376 1.355469 3.304687 4.5625 5.46875 8.132813 5.484374zm0 0"/><path d="m326.503906 450.664062c.589844-.019531 1.179688-.078124 1.761719-.179687.554687-.097656 1.089844-.273437 1.589844-.527344.566406-.195312 1.105469-.460937 1.597656-.796875l1.316406-1.058594c3.414063-3.480468 3.414063-9.054687 0-12.535156l-1.316406-1.058594c-.492187-.335937-1.03125-.601562-1.597656-.792968-.5-.257813-1.035157-.433594-1.589844-.53125-1.71875-.359375-3.507813-.175782-5.117187.53125-1.054688.429687-2.011719 1.058594-2.824219 1.851562-2.535157 2.515625-3.308594 6.308594-1.953125 9.613282 1.351562 3.304687 4.5625 5.46875 8.132812 5.484374zm0 0"/></g><path d="m255.882812 397.695312c-4.875 0-8.828124-3.949218-8.828124-8.824218v-26.484375c0-4.875 3.953124-8.828125 8.828124-8.828125s8.824219 3.953125 8.824219 8.828125v26.484375c0 4.875-3.949219 8.824218-8.824219 8.824218zm0 0" fill="#2c2f38"/><path d="m144.292969 335.902344c-10.378907.015625-20.300781-4.257813-27.417969-11.808594-3.167969-3.640625-2.828125-9.144531.761719-12.363281 3.585937-3.222657 9.09375-2.96875 12.371093.566406 2.128907 2.296875 13.65625 12.835937 32.300782-1.128906 2.523437-1.890625 5.863281-2.292969 8.765625-1.054688 2.898437 1.238281 4.917969 3.929688 5.296875 7.0625.375 3.128907-.945313 6.226563-3.46875 8.117188-8.109375 6.589843-18.164063 10.320312-28.609375 10.609375zm0 0" fill="#804537"/><path d="m367.472656 335.902344c-10.441406-.28125-20.496094-4.007813-28.601562-10.589844-2.523438-1.894531-3.847656-4.988281-3.46875-8.121094.375-3.128906 2.394531-5.820312 5.296875-7.0625 2.898437-1.238281 6.242187-.835937 8.761719 1.058594 19.785156 14.8125 31.738281 1.765625 32.25 1.191406 2.074218-2.433594 5.300781-3.554687 8.4375-2.929687 3.136718.625 5.691406 2.894531 6.675781 5.9375s.25 6.378906-1.925781 8.722656c-7.125 7.546875-17.050782 11.816406-27.425782 11.792969zm0 0" fill="#804537"/><path d="m194.089844 185.835938c-3.894532.003906-7.328125-2.539063-8.460938-6.265626-1.128906-3.722656.3125-7.75 3.550782-9.90625l26.484374-17.65625c2.621094-1.816406 6.023438-2.074218 8.890626-.675781 2.867187 1.398438 4.757812 4.234375 4.945312 7.417969.183594 3.1875-1.363281 6.222656-4.046875 7.945312l-26.484375 17.65625c-1.445312.964844-3.144531 1.480469-4.878906 1.484376zm0 0" fill="#2c2f38"/><path d="m317.675781 185.835938c-1.742187-.003907-3.445312-.519532-4.890625-1.484376l-26.484375-17.65625c-3.960937-2.738281-4.992187-8.144531-2.320312-12.152343 2.667969-4.007813 8.058593-5.136719 12.109375-2.535157l26.484375 17.65625c3.234375 2.15625 4.679687 6.179688 3.550781 9.902344s-4.558594 6.269532-8.449219 6.269532zm0 0" fill="#2c2f38"/><path d="m194.089844 269.695312c0 17.066407-13.835938 30.898438-30.898438 30.898438s-30.894531-13.832031-30.894531-30.898438c0-17.0625 13.832031-30.894531 30.894531-30.894531s30.898438 13.832031 30.898438 30.894531zm0 0" fill="#fff"/><path d="m183.785156 269.695312c0 11.375-9.21875 20.597657-20.59375 20.597657s-20.59375-9.222657-20.59375-20.597657c0-11.371093 9.21875-20.59375 20.59375-20.59375s20.59375 9.222657 20.59375 20.59375zm0 0" fill="#e4c05c"/><path d="m173.492188 269.695312c0 5.691407-4.609376 10.304688-10.300782 10.304688-5.6875 0-10.300781-4.613281-10.300781-10.304688 0-5.6875 4.613281-10.300781 10.300781-10.300781 5.691406 0 10.300782 4.613281 10.300782 10.300781zm0 0" fill="#2c2f38"/><path d="m163.191406 259.394531c0 5.691407-4.613281 10.300781-10.300781 10.300781-5.691406 0-10.300781-4.609374-10.300781-10.300781 0-5.6875 4.609375-10.300781 10.300781-10.300781 5.6875 0 10.300781 4.613281 10.300781 10.300781zm0 0" fill="#fff"/><path d="m379.46875 269.695312c0 17.066407-13.835938 30.898438-30.898438 30.898438s-30.894531-13.832031-30.894531-30.898438c0-17.0625 13.832031-30.894531 30.894531-30.894531s30.898438 13.832031 30.898438 30.894531zm0 0" fill="#fff"/><path d="m369.164062 269.695312c0 11.375-9.21875 20.597657-20.59375 20.597657s-20.59375-9.222657-20.59375-20.597657c0-11.371093 9.21875-20.59375 20.59375-20.59375s20.59375 9.222657 20.59375 20.59375zm0 0" fill="#e4c05c"/><path d="m358.871094 269.695312c0 5.691407-4.609375 10.304688-10.300782 10.304688-5.6875 0-10.300781-4.613281-10.300781-10.304688 0-5.6875 4.613281-10.300781 10.300781-10.300781 5.691407 0 10.300782 4.613281 10.300782 10.300781zm0 0" fill="#2c2f38"/><path d="m348.570312 259.394531c0 5.691407-4.613281 10.300781-10.300781 10.300781-5.691406 0-10.300781-4.609374-10.300781-10.300781 0-5.6875 4.609375-10.300781 10.300781-10.300781 5.6875 0 10.300781 4.613281 10.300781 10.300781zm0 0" fill="#fff"/><path d="m264.707031 318.25c0-4.875-7.902343-8.828125-17.652343-8.828125s-17.65625 3.953125-17.65625 8.828125 7.90625 8.828125 17.65625 8.828125 17.652343-3.953125 17.652343-8.828125zm0 0" fill="#35495e"/></svg>