<svg height="511pt" viewBox="0 -4 511.77573 511" width="511pt" xmlns="http://www.w3.org/2000/svg"><path d="m457.433594 282.9375c83.859375-44.710938 37.269531-125.199219 37.269531-178.863281.773437-27.257813 6.207031-54.183594 16.066406-79.609375 2.117188-6.089844.839844-12.851563-3.355469-17.746094-4.199218-4.898438-10.683593-7.195312-17.027343-6.035156-36.007813 5.429687-92.382813 17.347656-116.808594 40.785156-22.050781 20.96875-40.886719 45.074219-55.902344 71.539062h-123.585937c-15.019532-26.453124-33.859375-50.546874-55.90625-71.503906-24.410156-23.429687-80.808594-35.308594-116.808594-40.792968-6.335938-1.15625-12.808594 1.136718-17.003906 6.023437-4.195313 4.890625-5.480469 11.636719-3.378906 17.722656 9.859374 25.425781 15.292968 52.351563 16.066406 79.609375 0 53.660156-46.582032 134.179688 37.269531 178.863282zm0 0" fill="#804537"/><path d="m443.546875 249.21875c31.488281-18.601562 30.464844-42.65625 20.496094-94.085938-3.789063-16.78125-6.003907-33.875-6.609375-51.066406.289062-21.195312 3.324218-42.265625 9.039062-62.675781-37.457031 7.941406-58.695312 17.882813-66.523437 25.394531-18.914063 18.132813-35.25 38.777344-48.554688 61.351563h-191.035156c-13.304687-22.574219-29.640625-43.21875-48.554687-61.351563-7.828126-7.511718-29.066407-17.441406-66.523438-25.394531 5.714844 20.410156 8.75 41.480469 9.039062 62.675781-.605468 17.191406-2.820312 34.285156-6.609374 51.066406-9.96875 51.421876-10.992188 75.484376 20.503906 94.085938zm0 0" fill="#cb9080"/><path d="m114.726562 436.265625c-5.207031-2.207031-10.0625-4.503906-14.386718-6.796875-20.835938-10.4375-37.785156-27.265625-48.375-48.023438-15.625-32.75-5.121094-73.179687 4.765625-106.195312 10.515625-34.726562 25.976562-67.757812 45.902343-98.074219 32.929688-50.316406 89.601563-87.921875 153.25-70.796875 63.644532-17.125 120.320313 20.480469 153.246094 70.796875 19.929688 30.316407 35.386719 63.347657 45.902344 98.074219 9.886719 33.015625 20.390625 73.445312 4.765625 106.195312-10.585937 20.757813-27.539063 37.585938-48.375 48.023438-4.324219 2.292969-9.179687 4.589844-14.386719 6.796875l-96.925781 29.746094c-13.351563 7.925781-28.71875 11.796875-44.226563 11.132812-15.511718.664063-30.878906-3.199219-44.226562-11.121093zm0 0" fill="#cb8252"/><path d="m292.691406 340.574219c17.039063-.707031 32.664063 9.796875 46.167969 19.242187 18.773437 13.632813 35.101563 30.347656 48.289063 49.4375 8.640624 9.707032 11.707031 23.167969 8.121093 35.660156-7.679687 20.128907-35.664062 28.691407-55.703125 31.605469-15.464844 3.128907-31.453125-1.945312-42.285156-13.417969-6.265625-7.417968-9.445312-16.683593-15.445312-24.277343l-.265626-.265625c-6.375-7.589844-15.777343-11.972656-25.6875-11.972656-9.914062 0-19.316406 4.382812-25.691406 11.972656l-.261718.265625c-6.003907 7.59375-9.183594 16.859375-15.449219 24.277343-10.832031 11.472657-26.820313 16.546876-42.285157 13.417969-20.039062-2.914062-48.023437-11.476562-55.703124-31.605469-3.585938-12.492187-.519532-25.953124 8.121093-35.660156 13.1875-19.089844 29.515625-35.804687 48.289063-49.4375 13.507812-9.445312 29.128906-19.949218 46.167968-19.242187" fill="#fdd7ad"/><path d="m300.019531 321.1875c-3.421875 22.285156-21.671875 39.316406-44.136719 41.199219-22.46875-1.882813-40.71875-18.914063-44.140624-41.199219.003906-1.800781.304687-3.589844.882812-5.296875 4.148438-11.085937 21.894531-15.296875 43.257812-15.296875 24.363282 0 44.136719 5.445312 44.136719 20.59375zm0 0" fill="#2c2f38"/><path d="m149.949219 441.835938c-.589844-.015626-1.179688-.078126-1.765625-.175782-.550782-.101562-1.085938-.277344-1.585938-.53125-.566406-.191406-1.105468-.460937-1.601562-.792968l-1.3125-1.0625c-3.414063-3.480469-3.414063-9.054688 0-12.535157l1.3125-1.058593c.496094-.332032 1.035156-.601563 1.601562-.792969.5-.257813 1.035156-.433594 1.585938-.53125 1.722656-.359375 3.511718-.171875 5.121094.53125 1.050781.429687 2.011718 1.058593 2.824218 1.851562 2.535156 2.515625 3.304688 6.308594 1.953125 9.613281-1.351562 3.304688-4.5625 5.46875-8.132812 5.484376zm0 0" fill="#7f5b53"/><path d="m361.8125 441.835938c-.59375-.015626-1.183594-.078126-1.765625-.175782-.554687-.101562-1.089844-.277344-1.589844-.53125-.566406-.191406-1.101562-.460937-1.597656-.792968l-1.316406-1.0625c-3.414063-3.480469-3.414063-9.054688 0-12.535157l1.316406-1.058593c.496094-.332032 1.03125-.601563 1.597656-.792969.5-.257813 1.035157-.433594 1.589844-.53125 1.71875-.359375 3.507813-.171875 5.121094.53125 1.050781.429687 2.011719 1.058593 2.824219 1.851562 2.535156 2.515625 3.304687 6.308594 1.953124 9.613281-1.351562 3.304688-4.5625 5.46875-8.132812 5.484376zm0 0" fill="#7f5b53"/><g fill="#2c2f38"><path d="m255.882812 441.835938c-4.875 0-8.828124-3.953126-8.828124-8.828126v-70.621093c0-4.875 3.953124-8.828125 8.828124-8.828125s8.824219 3.953125 8.824219 8.828125v70.621093c0 4.875-3.949219 8.828126-8.824219 8.828126zm0 0"/><path d="m194.089844 185.835938c-3.894532.003906-7.328125-2.539063-8.460938-6.265626-1.128906-3.722656.3125-7.75 3.550782-9.90625l26.484374-17.65625c2.621094-1.816406 6.023438-2.074218 8.890626-.675781 2.867187 1.398438 4.757812 4.234375 4.945312 7.417969.183594 3.1875-1.363281 6.222656-4.046875 7.945312l-26.484375 17.65625c-1.445312.964844-3.144531 1.480469-4.878906 1.484376zm0 0"/><path d="m317.675781 185.835938c-1.742187-.003907-3.445312-.519532-4.890625-1.484376l-26.484375-17.65625c-3.960937-2.738281-4.992187-8.144531-2.320312-12.152343 2.667969-4.007813 8.058593-5.136719 12.109375-2.535157l26.484375 17.65625c3.234375 2.15625 4.679687 6.179688 3.550781 9.902344s-4.558594 6.269532-8.449219 6.269532zm0 0"/></g><path d="m264.707031 318.238281c0-4.875-7.902343-8.824219-17.652343-8.824219s-17.65625 3.949219-17.65625 8.824219 7.90625 8.828125 17.65625 8.828125 17.652343-3.953125 17.652343-8.828125zm0 0" fill="#35495e"/><path d="m185.261719 278.523438c-4.875 0-8.828125-3.953126-8.828125-8.828126 0-12.1875-9.882813-22.066406-22.070313-22.066406s-22.066406 9.878906-22.066406 22.066406c0 4.875-3.953125 8.828126-8.828125 8.828126s-8.828125-3.953126-8.828125-8.828126c0-21.9375 17.785156-39.722656 39.722656-39.722656 21.941407 0 39.726563 17.785156 39.726563 39.722656 0 4.875-3.953125 8.828126-8.828125 8.828126zm0 0" fill="#59474e"/><path d="m388.296875 278.523438c-4.878906 0-8.828125-3.953126-8.828125-8.828126 0-12.1875-9.882812-22.066406-22.070312-22.066406s-22.070313 9.878906-22.070313 22.066406c0 4.875-3.949219 8.828126-8.824219 8.828126-4.878906 0-8.828125-3.953126-8.828125-8.828126 0-21.9375 17.785157-39.722656 39.722657-39.722656s39.722656 17.785156 39.722656 39.722656c0 4.875-3.949219 8.828126-8.824219 8.828126zm0 0" fill="#59474e"/><path d="m211.742188 427.886719v31.601562c.007812 4.738281.753906 9.441407 2.207031 13.949219 6.035156 18.03125 22.917969 30.183594 41.933593 30.183594 19.011719 0 35.894532-12.152344 41.929688-30.183594 1.453125-4.507812 2.199219-9.210938 2.207031-13.949219v-31.601562" fill="#ff5364"/><path d="m255.882812 459.488281c-4.875 0-8.828124-3.949219-8.828124-8.824219v-17.65625c0-4.875 3.953124-8.828124 8.828124-8.828124s8.824219 3.953124 8.824219 8.828124v17.65625c0 4.875-3.949219 8.824219-8.824219 8.824219zm0 0" fill="#c03a2b"/><path d="m326.503906 397.421875c-2.316406-.066406-4.558594.804687-6.21875 2.417969-1.664062 1.609375-2.605468 3.824218-2.609375 6.136718-.707031 5.058594-13.242187 18.203126-61.792969 18.203126-48.304687 0-60.957031-13.011719-61.792968-18.132813-.085938-3.152344-1.847656-6.023437-4.621094-7.523437-2.773438-1.503907-6.140625-1.414063-8.828125.238281-2.6875 1.648437-4.292969 4.609375-4.207031 7.761719 0 3.613281 2.222656 35.3125 79.449218 35.3125 77.222657 0 79.445313-31.699219 79.445313-35.3125.027344-4.929688-3.898437-8.976563-8.824219-9.101563zm0 0" fill="#2c2f38"/></svg>