<svg height="512pt" viewBox="0 0 512 512.00499" width="512pt" xmlns="http://www.w3.org/2000/svg"><path d="m368.136719 41.3125c-9.359375-9.710938-44.933594-41.3125-112.199219-41.3125s-102.84375 31.601562-112.199219 41.3125l-73.179687 214.6875s61.792968 35.308594 70.621094 105.929688c8.828124 70.621093-26.484376 126.597656 17.652343 144.253906 44.140625 17.652344 97.105469-8.828125 97.105469-26.484375 0 17.65625 52.964844 44.136719 97.101562 26.484375 44.140626-17.65625 8.828126-73.632813 17.65625-144.253906 8.828126-70.621094 70.621094-105.929688 70.621094-105.929688zm0 0" fill="#d1d4d1"/><path d="m353.039062 506.171875c-44.136718 17.65625-97.101562-8.824219-97.101562-26.480469 0 17.65625-52.964844 44.136719-97.105469 26.480469-32.308593-12.976563-21.980469-46.429687-17.742187-91.273437h.089844c6.292968-24.667969 27.898437-42.371094 53.316406-43.699219 3.179687 17.566406 29.484375 43.699219 61.441406 43.699219s58.261719-26.132813 61.441406-43.699219c25.210938 1.359375 46.691406 18.777343 53.226563 43.167969h.089843c4.324219 45.109374 14.832032 78.828124-17.65625 91.804687zm0 0" fill="#a5a5a4"/><path d="m247.109375 202.355469c0 47.578125-59.375 61.519531-92.972656 49.628906-20.851563-7.378906-25.289063-26.660156-23.1875-48.492187.492187-12.480469 5.007812-24.46875 12.878906-34.171876 11.667969-12.449218 28.027344-19.433593 45.089844-19.25 32.132812 0 58.191406 23.410157 58.191406 52.285157zm0 0" fill="#35495e"/><path d="m317.730469 367.820312c0 17.300782-27.683594 47.078126-61.792969 47.078126s-61.792969-29.777344-61.792969-47.078126c.019531-2.0625.4375-4.101562 1.234375-6.003906 5.828125-12.710937 30.648438-17.539062 60.558594-17.539062 34.109375 0 61.792969 6.238281 61.792969 23.542968zm0 0" fill="#2c3e50"/><path d="m150.722656 125.703125c-3.9375.007813-7.402344-2.59375-8.496094-6.378906-1.089843-3.78125.453126-7.832031 3.789063-9.925781 11.664063-7.75 25.296875-12.015626 39.300781-12.296876 4.875 0 8.828125 3.953126 8.828125 8.828126s-3.953125 8.828124-8.828125 8.828124c-10.675781.308594-21.046875 3.636719-29.90625 9.597657-1.40625.878906-3.03125 1.347656-4.6875 1.347656zm0 0" fill="#2c2f38"/><path d="m361.152344 125.703125c-1.660156.003906-3.285156-.464844-4.6875-1.347656-8.859375-5.960938-19.230469-9.289063-29.90625-9.597657-4.875 0-8.828125-3.953124-8.828125-8.828124s3.953125-8.828126 8.828125-8.828126c14.003906.285157 27.636718 4.554688 39.300781 12.308594 3.332031 2.09375 4.878906 6.140625 3.789063 9.921875-1.09375 3.785157-4.558594 6.386719-8.496094 6.382813zm0 0" fill="#2c2f38"/><path d="m255.9375 450.207031c-4.875 0-8.828125-3.953125-8.828125-8.828125v-26.480468c0-4.878907 3.953125-8.828126 8.828125-8.828126s8.828125 3.949219 8.828125 8.828126v26.480468c0 4.875-3.953125 8.828125-8.828125 8.828125zm0 0" fill="#2c3e50"/><g fill="#35495e"><path d="m176.488281 441.378906c-1.152343-.011718-2.292969-.253906-3.355469-.707031-1.066406-.449219-2.050781-1.074219-2.910156-1.851563-1.613281-1.691406-2.527344-3.929687-2.5625-6.269531.015625-1.152343.253906-2.292969.707032-3.355469.449218-1.066406 1.074218-2.054687 1.855468-2.910156.84375-.800781 1.832032-1.429687 2.910156-1.855468 1.613282-.703126 3.402344-.886719 5.121094-.527344.554688.09375 1.089844.273437 1.589844.527344.5625.195312 1.097656.460937 1.589844.796874.460937.324219.902344.679688 1.324218 1.058594.777344.859375 1.402344 1.84375 1.851563 2.910156.941406 2.140626.941406 4.574219 0 6.710938-.449219 1.070312-1.074219 2.054688-1.851563 2.914062l-1.324218 1.058594c-.492188.332032-1.027344.601563-1.589844.792969-.5.253906-1.035156.433594-1.589844.53125-.582031.101563-1.171875.160156-1.765625.175781zm0 0"/><path d="m202.972656 467.863281c-1.15625-.015625-2.292968-.253906-3.355468-.707031-1.070313-.449219-2.054688-1.074219-2.914063-1.855469-1.613281-1.691406-2.527344-3.929687-2.558594-6.265625.011719-1.152344.253907-2.292968.707031-3.355468.445313-1.070313 1.074219-2.054688 1.851563-2.914063.84375-.796875 1.832031-1.425781 2.914063-1.851563 1.609374-.703124 3.398437-.890624 5.121093-.53125.550781.097657 1.085938.273438 1.585938.53125.5625.191407 1.097656.460938 1.589843.792969.464844.328125.90625.679688 1.324219 1.058594.777344.859375 1.40625 1.84375 1.855469 2.914063.941406 2.136718.941406 4.570312 0 6.710937-.449219 1.066406-1.078125 2.050781-1.855469 2.910156l-1.324219 1.0625c-.492187.332031-1.027343.597657-1.589843.792969-.5.253906-1.035157.429688-1.585938.527344-.585937.101562-1.175781.164062-1.765625.179687zm0 0"/><path d="m176.488281 476.691406c-1.152343-.015625-2.292969-.253906-3.355469-.707031-1.066406-.449219-2.050781-1.078125-2.910156-1.855469-1.613281-1.691406-2.527344-3.929687-2.5625-6.265625.015625-1.15625.253906-2.292969.707032-3.355469.449218-1.070312 1.074218-2.054687 1.855468-2.914062.84375-.796875 1.832032-1.425781 2.910156-1.851562 1.613282-.707032 3.402344-.890626 5.121094-.53125.554688.097656 1.089844.273437 1.589844.53125.5625.191406 1.097656.457031 1.589844.792968.460937.328125.902344.679688 1.324218 1.058594.777344.859375 1.402344 1.84375 1.851563 2.914062.941406 2.136719.941406 4.570313 0 6.707032-.449219 1.070312-1.074219 2.054687-1.851563 2.914062l-1.324218 1.058594c-.492188.335938-1.027344.601562-1.589844.796875-.5.253906-1.035156.429687-1.589844.527344-.582031.101562-1.171875.160156-1.765625.179687zm0 0"/><path d="m335.386719 441.378906c1.152343-.011718 2.292969-.253906 3.351562-.707031 1.070313-.449219 2.054688-1.074219 2.914063-1.851563 1.613281-1.691406 2.527344-3.929687 2.5625-6.269531-.015625-1.152343-.253906-2.292969-.707032-3.355469-.449218-1.066406-1.074218-2.054687-1.855468-2.910156-.84375-.800781-1.832032-1.429687-2.914063-1.855468-1.609375-.703126-3.398437-.886719-5.117187-.527344-.554688.09375-1.089844.273437-1.589844.527344-.5625.195312-1.097656.460937-1.589844.796874-.460937.324219-.902344.679688-1.324218 1.058594-.777344.859375-1.40625 1.84375-1.851563 2.910156-.945313 2.140626-.945313 4.574219 0 6.710938.449219 1.070312 1.074219 2.054688 1.851563 2.914062l1.324218 1.058594c.492188.332032 1.027344.601563 1.589844.792969.5.253906 1.035156.433594 1.589844.53125.582031.101563 1.171875.160156 1.765625.175781zm0 0"/><path d="m308.902344 467.863281c1.152344-.015625 2.292968-.253906 3.355468-.707031 1.066407-.449219 2.054688-1.074219 2.914063-1.855469 1.609375-1.691406 2.523437-3.929687 2.558594-6.265625-.015625-1.152344-.253907-2.292968-.707031-3.355468-.445313-1.070313-1.074219-2.054688-1.851563-2.914063-.84375-.796875-1.835937-1.425781-2.914063-1.851563-1.609374-.703124-3.402343-.890624-5.121093-.53125-.554688.097657-1.089844.273438-1.589844.53125-.5625.191407-1.09375.460938-1.585937.792969-.464844.328125-.90625.679688-1.324219 1.058594-.78125.859375-1.40625 1.84375-1.855469 2.914063-.941406 2.136718-.941406 4.570312 0 6.710937.449219 1.066406 1.074219 2.050781 1.855469 2.910156l1.324219 1.0625c.492187.332031 1.023437.597657 1.585937.792969.503906.253906 1.039063.429688 1.589844.527344.582031.101562 1.175781.164062 1.765625.179687zm0 0"/><path d="m335.386719 476.691406c1.152343-.015625 2.292969-.253906 3.351562-.707031 1.070313-.449219 2.054688-1.078125 2.914063-1.855469 1.613281-1.691406 2.527344-3.929687 2.5625-6.265625-.015625-1.15625-.253906-2.292969-.707032-3.355469-.449218-1.070312-1.074218-2.054687-1.855468-2.914062-.84375-.796875-1.832032-1.425781-2.914063-1.851562-1.609375-.707032-3.398437-.890626-5.117187-.53125-.554688.097656-1.089844.273437-1.589844.53125-.5625.191406-1.097656.457031-1.589844.792968-.460937.328125-.902344.679688-1.324218 1.058594-.777344.859375-1.40625 1.84375-1.851563 2.914062-.945313 2.136719-.945313 4.570313 0 6.707032.449219 1.070312 1.074219 2.054687 1.851563 2.914062l1.324218 1.058594c.492188.335938 1.027344.601562 1.589844.796875.5.253906 1.035156.429687 1.589844.527344.582031.101562 1.171875.160156 1.765625.179687zm0 0"/><path d="m.0625 132.546875c-.226562 7.085937.195312 14.175781 1.261719 21.183594 4.414062 35.867187 10.1875 71.089843 11.261719 107.285156.101562 3.335937.160156 6.671875.175781 10.007813.160156 7.203124 4.621093 13.609374 11.316406 16.261718 6.699219 2.648438 14.335937 1.027344 19.378906-4.113281 50.363281-51.101563 131.707031-149.40625 106.476563-230.207031 0 0-8.957032-35.308594-44.789063-8.828125-13.949219 10.3125-28.117187 21.25-42.460937 31.390625-14.917969 10.542968-30.683594 19.679687-45.984375 29.625-9.769531 5.785156-16.007813 16.058594-16.636719 27.394531zm0 0"/><path d="m511.8125 132.546875c.226562 7.085937-.199219 14.175781-1.261719 21.183594-4.414062 35.867187-10.1875 71.089843-11.261719 107.285156-.101562 3.335937-.160156 6.671875-.179687 10.007813-.171875 7.195312-4.636719 13.589843-11.332031 16.230468-6.695313 2.644532-14.320313 1.019532-19.359375-4.117187-50.363281-51.066407-131.707031-149.371094-106.480469-230.171875 0 0 8.960938-35.308594 44.792969-8.828125 13.945312 10.3125 28.117187 21.25 42.460937 31.390625 14.917969 10.542968 30.683594 19.679687 45.980469 29.625 9.769531 5.785156 16.011719 16.058594 16.640625 27.394531zm0 0"/><path d="m255.9375 366.34375c0-7.3125-9.882812-13.242188-22.070312-13.242188s-22.066407 5.929688-22.066407 13.242188 9.878907 13.242188 22.066407 13.242188 22.070312-5.929688 22.070312-13.242188zm0 0"/></g><path d="m220.625 207.449219c0 17.0625-13.832031 30.894531-30.894531 30.894531s-30.898438-13.832031-30.898438-30.894531c0-17.066407 13.835938-30.898438 30.898438-30.898438s30.894531 13.832031 30.894531 30.898438zm0 0" fill="#fff"/><path d="m210.324219 207.449219c0 11.375-9.21875 20.59375-20.59375 20.59375s-20.59375-9.21875-20.59375-20.59375 9.21875-20.59375 20.59375-20.59375 20.59375 9.21875 20.59375 20.59375zm0 0" fill="#b0d3f0"/><path d="m189.730469 217.75c-1.347657-.015625-2.679688-.292969-3.917969-.820312-1.25-.523438-2.398438-1.253907-3.402344-2.164063-1.878906-1.972656-2.941406-4.582031-2.980468-7.308594.011718-1.347656.292968-2.679687.820312-3.917969.523438-1.25 1.257812-2.398437 2.171875-3.398437.980469-.9375 2.136719-1.671875 3.398437-2.171875 1.878907-.820312 3.96875-1.03125 5.976563-.609375.644531.109375 1.269531.3125 1.851563.609375.65625.222656 1.28125.535156 1.855468.925781.539063.378907 1.054688.792969 1.542969 1.234375.910156 1.003906 1.640625 2.152344 2.164063 3.398438 1.097656 2.496094 1.097656 5.335937 0 7.832031-.523438 1.246094-1.253907 2.394531-2.164063 3.398437l-1.542969 1.234376c-.574218.390624-1.199218.703124-1.855468.929687-.582032.292969-1.207032.5-1.851563.617187-.683594.121094-1.375.191407-2.066406.210938zm0 0" fill="#2c2f38"/><path d="m189.730469 197.144531c0 5.691407-4.613281 10.304688-10.300781 10.304688-5.691407 0-10.304688-4.613281-10.304688-10.304688 0-5.6875 4.613281-10.300781 10.304688-10.300781 5.6875 0 10.300781 4.613281 10.300781 10.300781zm0 0" fill="#fff"/><path d="m353.039062 207.449219c0 17.0625-13.832031 30.894531-30.894531 30.894531s-30.898437-13.832031-30.898437-30.894531c0-17.066407 13.835937-30.898438 30.898437-30.898438s30.894531 13.832031 30.894531 30.898438zm0 0" fill="#fff"/><path d="m342.738281 207.449219c0 11.375-9.21875 20.59375-20.59375 20.59375s-20.59375-9.21875-20.59375-20.59375 9.21875-20.59375 20.59375-20.59375 20.59375 9.21875 20.59375 20.59375zm0 0" fill="#b0d3f0"/><path d="m322.144531 217.75c-1.347656-.015625-2.679687-.292969-3.921875-.820312-1.246094-.523438-2.394531-1.253907-3.398437-2.164063-1.878907-1.972656-2.941407-4.582031-2.980469-7.308594.011719-1.347656.292969-2.679687.820312-3.917969.523438-1.25 1.257813-2.398437 2.171876-3.398437.980468-.9375 2.136718-1.671875 3.398437-2.171875 1.878906-.820312 3.96875-1.03125 5.976563-.609375.644531.109375 1.269531.3125 1.851562.609375.65625.222656 1.28125.535156 1.855469.925781.539062.378907 1.054687.792969 1.542969 1.234375.910156 1.003906 1.640624 2.152344 2.164062 3.398438 1.097656 2.496094 1.097656 5.335937 0 7.832031-.523438 1.246094-1.253906 2.394531-2.164062 3.398437l-1.542969 1.234376c-.574219.390624-1.199219.703124-1.855469.929687-.582031.292969-1.207031.5-1.851562.617187-.683594.121094-1.375.191407-2.066407.210938zm0 0" fill="#2c2f38"/><path d="m322.144531 197.144531c0 5.691407-4.613281 10.304688-10.300781 10.304688-5.691406 0-10.304688-4.613281-10.304688-10.304688 0-5.6875 4.613282-10.300781 10.304688-10.300781 5.6875 0 10.300781 4.613281 10.300781 10.300781zm0 0" fill="#fff"/><path d="m319.621094 296.054688c-7.867188-12.328126-19.246094-19.132813-25.410156-15.195313-6.164063 3.933594-4.78125 17.117187 3.089843 29.445313 7.867188 12.328124 19.242188 19.132812 25.410157 15.199218 6.164062-3.933594 4.78125-17.117187-3.089844-29.449218zm0 0" fill="#35495e"/><path d="m196.683594 277.519531c-9.050782-5.773437-24.539063 2.316407-34.59375 18.070313-10.058594 15.757812-10.875 33.210937-1.824219 38.988281 9.046875 5.777344 24.535156-2.3125 34.59375-18.070313 10.054687-15.753906 10.875-33.210937 1.824219-38.988281zm0 0" fill="#35495e"/><path d="m301.96875 119.5c-7.867188-12.328125-19.242188-19.132812-25.40625-15.195312-6.167969 3.933593-4.785156 17.117187 3.085938 29.445312 7.867187 12.328125 19.246093 19.132812 25.410156 15.199219 6.164062-3.933594 4.78125-17.117188-3.089844-29.449219zm0 0" fill="#35495e"/><path d="m251.480469 18.984375c-6.164063-3.9375-16.421875 1.121094-22.914063 11.289063-6.492187 10.171874-6.757812 21.609374-.59375 25.542968 6.164063 3.933594 16.421875-1.121094 22.914063-11.292968 6.492187-10.171876 6.757812-21.605469.59375-25.539063zm0 0" fill="#35495e"/></svg>