<svg height="512pt" viewBox="-39 0 512 512.39872" width="512pt" xmlns="http://www.w3.org/2000/svg"><path d="m40.292969 247.324219c-62.242188-70.019531-35.308594-208.613281-28.078125-240.515625.898437-4.042969 4.519531-6.8906252 8.660156-6.808594 2.992188.046875 6.832031.222656 11.324219.679688 29.925781 3.089843 88.804687 18.804687 121.289062 92.957031" fill="#2c3e50"/><path d="m393.398438 247.324219c62.242187-70.019531 35.308593-208.613281 28.078124-240.515625-.898437-4.042969-4.519531-6.8906252-8.660156-6.808594-2.992187.046875-6.832031.222656-11.324218.679688-29.835938 3.089843-88.539063 18.714843-121.203126 92.601562" fill="#2c3e50"/><path d="m119.390625 126.03125v.0625c-14.703125 18.640625-28.378906 38.070312-40.960937 58.203125-13.378907 20.546875-25.550782 41.859375-36.457032 63.820313l-1.679687-.792969c-62.242188-70.019531-35.308594-208.613281-28.078125-240.515625.898437-4.042969 4.519531-6.8906252 8.660156-6.808594 2.992188.046875 6.832031.222656 11.324219.679688 8.007812 6.621093 81.804687 68.503906 87.191406 125.351562zm0 0" fill="#fdd7ad"/><path d="m393.398438 247.324219-.882813.441406c-10.917969-21.808594-23.027344-43-36.28125-63.46875-12.835937-20.5-26.800781-40.265625-41.835937-59.207031 6.179687-56.585938 79.183593-117.761719 87.128906-124.382813 4.492187-.457031 8.34375-.6328122 11.324218-.6796872 4.128907-.0664063 7.738282 2.7773442 8.636719 6.8085942 7.21875 31.875 34.152344 170.46875-28.089843 240.488281zm0 0" fill="#fdd7ad"/><path d="m287.464844 495.734375c5.5625-2.207031 11.125-4.769531 16.507812-7.503906 30.828125-15.878907 57.9375-38.113281 79.539063-65.238281 22.597656-28.425782 41.3125-60.113282 35.222656-97.542969-8.210937-50.496094-35.488281-98.515625-62.5-141.152344-12.464844-19.898437-25.992187-39.113281-40.519531-57.558594-7.578125-11.128906-16.769532-21.066406-27.277344-29.484375-26.484375-17.652344-70.621094 8.828125-70.621094 8.828125h-.972656s-44.136719-26.480469-70.617188-8.828125c-10.558593 8.394532-19.785156 18.332032-27.367187 29.484375-14.5 18.445313-27.996094 37.660157-40.429687 57.558594-27.101563 42.636719-54.289063 90.65625-62.5 141.152344-6.089844 37.429687 12.535156 69.117187 35.222656 97.542969 21.566406 27.121093 48.648437 49.359374 79.449218 65.238281 5.117188 2.648437 10.328126 5.03125 15.625 7.148437zm0 0" fill="#35495e"/><path d="m216.84375 450.359375c12.976562 51.921875 45.023438 60.910156 61.113281 62.011719 2.457031.191406 4.882813-.65625 6.6875-2.332032 1.804688-1.675781 2.828125-4.03125 2.820313-6.496093v-106.148438c.433594-31.683593-16.503906-61.058593-44.136719-76.5625-16.308594-9.824219-36.710937-9.824219-53.019531 0-27.609375 15.515625-44.523438 44.890625-44.082032 76.5625v106.148438c-.007812 2.464843 1.015626 4.820312 2.820313 6.496093 1.804687 1.675782 4.230469 2.523438 6.683594 2.332032 16.09375-1.101563 48.136719-10.089844 61.113281-62.011719zm0 0" fill="#fdd7ad"/><path d="m252.15625 376.796875c0 10.816406-15.820312 29.425781-35.3125 29.425781-19.488281 0-35.308594-18.609375-35.308594-29.425781.007813-1.28125.246094-2.550781.707032-3.75 3.320312-7.945313 17.511718-10.964844 34.601562-10.964844 19.492188 0 35.3125 3.902344 35.3125 14.714844zm0 0" fill="#2c3e50"/><path d="m216.84375 176.703125c-4.875 0-8.824219-3.953125-8.824219-8.828125v-26.480469c0-4.875 3.949219-8.828125 8.824219-8.828125 4.878906 0 8.828125 3.953125 8.828125 8.828125v26.480469c0 4.875-3.949219 8.828125-8.828125 8.828125zm0 0" fill="#2c3e50"/><path d="m93.257812 256.152344c-3.011718-.003906-5.8125-1.546875-7.433593-4.089844-1.617188-2.539062-1.824219-5.730469-.554688-8.464844.929688-2.011718 23.5-49.238281 69.78125-49.238281 4.878907 0 8.828125 3.953125 8.828125 8.828125s-3.949218 8.828125-8.828125 8.828125c-34.945312 0-53.617187 38.671875-53.800781 39.058594-1.457031 3.097656-4.570312 5.078125-7.992188 5.078125zm0 0" fill="#2c2f38"/><path d="m340.433594 256.152344c-3.425782.003906-6.542969-1.976563-8-5.078125-.175782-.386719-18.847656-39.058594-53.796875-39.058594-4.875 0-8.824219-3.953125-8.824219-8.828125s3.949219-8.828125 8.824219-8.828125c46.285156 0 68.855469 47.226563 69.792969 49.230469 1.277343 2.734375 1.066406 5.929687-.550782 8.476562-1.621094 2.542969-4.429687 4.085938-7.445312 4.085938zm0 0" fill="#2c2f38"/><path d="m216.84375 375.324219c0-4.875-5.265625-8.828125-11.765625-8.828125s-11.765625 3.953125-11.765625 8.828125 5.265625 8.828125 11.765625 8.828125 11.765625-3.953125 11.765625-8.828125zm0 0" fill="#35495e"/><path d="m172.707031 264.980469c0 14.625-11.855469 26.480469-26.480469 26.480469-14.628906 0-26.484374-11.855469-26.484374-26.480469 0-14.628907 11.855468-26.484375 26.484374-26.484375 14.625 0 26.480469 11.855468 26.480469 26.484375zm0 0" fill="#fff"/><path d="m163.878906 264.980469c0 9.75-7.902344 17.652343-17.652344 17.652343-9.753906 0-17.65625-7.902343-17.65625-17.652343s7.902344-17.65625 17.65625-17.65625c9.75 0 17.652344 7.90625 17.652344 17.65625zm0 0" fill="#b0d3f0"/><path d="m146.226562 273.808594c-1.15625-.015625-2.292968-.253906-3.355468-.707032-1.070313-.449218-2.054688-1.078124-2.914063-1.855468-1.613281-1.691406-2.527343-3.929688-2.558593-6.265625.011718-1.15625.253906-2.292969.703124-3.355469.449219-1.070312 1.078126-2.054688 1.855469-2.914062.84375-.796876 1.832031-1.425782 2.914063-1.851563 1.609375-.703125 3.398437-.890625 5.121094-.53125.550781.097656 1.085937.273437 1.585937.53125.5625.191406 1.097656.457031 1.589844.792969.460937.328125.90625.679687 1.324219 1.058594.777343.859374 1.40625 1.84375 1.855468 2.914062.941406 2.136719.941406 4.570312 0 6.707031-.449218 1.070313-1.078125 2.054688-1.855468 2.914063l-1.324219 1.058594c-.492188.335937-1.027344.601562-1.589844.796874-.5.253907-1.035156.429688-1.585937.527344-.585938.101563-1.175782.160156-1.765626.179688zm0 0" fill="#2c2f38"/><path d="m146.226562 256.152344c0 4.875-3.953124 8.828125-8.828124 8.828125s-8.828126-3.953125-8.828126-8.828125 3.953126-8.828125 8.828126-8.828125 8.828124 3.953125 8.828124 8.828125zm0 0" fill="#fff"/><path d="m313.949219 264.980469c0 14.625-11.855469 26.480469-26.484375 26.480469-14.625 0-26.480469-11.855469-26.480469-26.480469 0-14.628907 11.855469-26.484375 26.480469-26.484375 14.628906 0 26.484375 11.855468 26.484375 26.484375zm0 0" fill="#fff"/><path d="m305.121094 264.980469c0 9.75-7.902344 17.652343-17.65625 17.652343-9.75 0-17.652344-7.902343-17.652344-17.652343s7.902344-17.65625 17.652344-17.65625c9.753906 0 17.65625 7.90625 17.65625 17.65625zm0 0" fill="#b0d3f0"/><path d="m287.464844 273.808594c-1.152344-.015625-2.292969-.253906-3.351563-.707032-1.070312-.449218-2.054687-1.078124-2.914062-1.855468-1.613281-1.691406-2.527344-3.929688-2.5625-6.265625.015625-1.15625.253906-2.292969.707031-3.355469.449219-1.070312 1.074219-2.054688 1.855469-2.914062.84375-.796876 1.832031-1.425782 2.914062-1.851563 1.609375-.703125 3.398438-.890625 5.117188-.53125.554687.097656 1.089843.273437 1.589843.53125.5625.191406 1.097657.457031 1.589844.792969.460938.328125.902344.679687 1.324219 1.058594.777344.859374 1.40625 1.84375 1.851563 2.914062.945312 2.136719.945312 4.570312 0 6.707031-.449219 1.070313-1.074219 2.054688-1.851563 2.914063l-1.324219 1.058594c-.492187.335937-1.027344.601562-1.589844.796874-.5.253907-1.035156.429688-1.589843.527344-.582031.101563-1.171875.160156-1.765625.179688zm0 0" fill="#2c2f38"/><path d="m287.464844 256.152344c0 4.875-3.949219 8.828125-8.828125 8.828125-4.875 0-8.824219-3.953125-8.824219-8.828125s3.949219-8.828125 8.824219-8.828125c4.878906 0 8.828125 3.953125 8.828125 8.828125zm0 0" fill="#fff"/></svg>