<svg height="512pt" viewBox="0 0 512 512.00081" width="512pt" xmlns="http://www.w3.org/2000/svg"><path d="m423.660156 406.070312s4.265625 93.914063-158.789062 105.613282c-5.945313.421875-11.914063.421875-17.859375 0-163.0625-11.699219-158.800781-105.613282-158.800781-105.613282v-26.484374l167.726562-105.929688 167.722656 105.929688zm0 0" fill="#7f5b53"/><path d="m141.355469 407.921875c2.382812 23.480469 52.789062 42.285156 114.582031 42.285156s112.199219-18.804687 114.582031-42.285156l-114.582031-90.128906zm0 0" fill="#59474e"/><path d="m467.242188 274.34375s35.867187 114.070312-78.890626 131.726562c-114.761718 17.652344-132.414062-79.449218-132.414062-79.449218s-17.65625 97.101562-132.414062 79.449218c-114.757813-17.65625-78.894532-131.726562-78.894532-131.726562l96.546875-247.859375s26.484375-26.484375 114.761719-26.484375c88.273438 0 114.757812 26.484375 114.757812 26.484375zm0 0" fill="#af8066"/><path d="m.0585938 123.71875c-.2265628 7.085938.2070312 14.179688 1.3007812 21.1875 4.527344 35.863281 10.457031 71.085938 11.5625 107.28125.101563 3.335938.160156 6.671875.175781 10.007812.367188 7.300782 5 13.695313 11.820313 16.3125 6.820312 2.621094 14.546875.976563 19.703125-4.199218 51.722656-51.066406 135.257812-149.371094 109.347656-230.171875 0 0-9.199219-35.308594-45.992188-8.828125-14.328124 10.3125-28.875 21.25-43.597656 31.394531-15.324218 10.53125-31.515625 19.664063-47.230468 29.625-9.953126 5.65625-16.382813 15.960937-17.0898442 27.390625zm0 0" fill="#cb8252"/><path d="m511.8125 123.71875c.230469 7.085938-.203125 14.179688-1.296875 21.1875-4.527344 35.863281-10.460937 71.085938-11.566406 107.28125-.097657 3.335938-.15625 6.671875-.175781 10.007812-.367188 7.300782-5 13.695313-11.820313 16.3125-6.820313 2.621094-14.542969.976563-19.703125-4.199218-51.71875-51.066406-135.253906-149.371094-109.347656-230.171875 0 0 9.199218-35.308594 45.992187-8.828125 14.320313 10.3125 28.875 21.25 43.609375 31.394531 15.316406 10.539063 31.503906 19.675781 47.21875 29.625 9.957032 5.65625 16.382813 15.960937 17.089844 27.390625zm0 0" fill="#cb8252"/><g fill="#2c2f38"><path d="m167.660156 291.308594c-1.152344-.011719-2.292968-.253906-3.355468-.703125-1.066407-.449219-2.050782-1.078125-2.910157-1.855469-1.613281-1.691406-2.527343-3.929688-2.5625-6.265625.015625-1.15625.253907-2.292969.707031-3.355469.449219-1.070312 1.074219-2.054687 1.855469-2.914062.839844-.796875 1.832031-1.425782 2.910157-1.851563 1.613281-.707031 3.402343-.890625 5.121093-.53125.554688.09375 1.089844.273438 1.589844.53125.5625.191407 1.097656.457031 1.589844.792969.460937.324219.902343.679688 1.324219 1.058594.777343.859375 1.402343 1.84375 1.851562 2.914062.941406 2.136719.941406 4.570313 0 6.707032-.449219 1.070312-1.074219 2.054687-1.851562 2.914062l-1.324219 1.058594c-.492188.335937-1.027344.601562-1.589844.796875-.5.25-1.035156.429687-1.589844.527343-.582031.101563-1.171875.160157-1.765625.175782zm0 0"/><path d="m202.972656 308.964844c-1.15625-.011719-2.296875-.253906-3.355468-.707032-1.070313-.449218-2.054688-1.074218-2.914063-1.851562-1.613281-1.691406-2.527344-3.929688-2.558594-6.269531.011719-1.152344.253907-2.292969.703125-3.351563.449219-1.070312 1.078125-2.054687 1.855469-2.914062.84375-.800782 1.832031-1.429688 2.914063-1.855469 1.609374-.703125 3.398437-.886719 5.117187-.527344.554687.09375 1.089844.273438 1.589844.527344.5625.195313 1.097656.460937 1.589843.796875.460938.324219.90625.679688 1.324219 1.058594.777344.859375 1.40625 1.84375 1.855469 2.914062.941406 2.136719.941406 4.570313 0 6.707032-.449219 1.070312-1.078125 2.054687-1.855469 2.914062l-1.324219 1.058594c-.492187.335937-1.027343.601562-1.589843.792968-.5.253907-1.035157.433594-1.589844.53125-.582031.101563-1.171875.160157-1.761719.175782zm0 0"/><path d="m158.832031 335.449219c-1.152343-.015625-2.292969-.253907-3.355469-.707031-1.066406-.449219-2.050781-1.074219-2.910156-1.855469-1.613281-1.691407-2.527344-3.929688-2.5625-6.265625.015625-1.152344.253906-2.292969.707032-3.355469.449218-1.070313 1.074218-2.054687 1.855468-2.914063.84375-.796874 1.832032-1.425781 2.910156-1.851562 1.613282-.703125 3.402344-.890625 5.121094-.53125.554688.097656 1.089844.277344 1.589844.53125.5625.191406 1.097656.460938 1.589844.792969.460937.328125.902344.679687 1.324218 1.058593.777344.859376 1.402344 1.847657 1.851563 2.914063.941406 2.136719.941406 4.574219 0 6.710937-.449219 1.066407-1.074219 2.050782-1.851563 2.910157l-1.324218 1.0625c-.492188.332031-1.027344.601562-1.589844.792969-.5.253906-1.035156.429687-1.589844.53125-.582031.101562-1.171875.160156-1.765625.175781zm0 0"/><path d="m344.210938 291.308594c1.15625-.011719 2.292968-.253906 3.355468-.703125 1.070313-.449219 2.054688-1.078125 2.914063-1.855469 1.613281-1.691406 2.527343-3.929688 2.558593-6.265625-.011718-1.15625-.253906-2.292969-.707031-3.355469-.445312-1.070312-1.074219-2.054687-1.851562-2.914062-.84375-.796875-1.832031-1.425782-2.914063-1.851563-1.609375-.707031-3.398437-.890625-5.121094-.53125-.550781.09375-1.085937.273438-1.585937.53125-.5625.191407-1.097656.457031-1.589844.792969-.464843.324219-.90625.679688-1.324219 1.058594-.777343.859375-1.40625 1.84375-1.855468 2.914062-.941406 2.136719-.941406 4.570313 0 6.707032.449218 1.070312 1.078125 2.054687 1.855468 2.914062l1.324219 1.058594c.492188.335937 1.027344.601562 1.589844.796875.5.25 1.035156.429687 1.585937.527343.585938.101563 1.175782.160157 1.765626.175782zm0 0"/><path d="m308.902344 308.964844c1.152344-.011719 2.292968-.253906 3.355468-.707032 1.066407-.449218 2.050782-1.074218 2.910157-1.851562 1.613281-1.691406 2.527343-3.929688 2.5625-6.269531-.015625-1.152344-.253907-2.292969-.707031-3.351563-.449219-1.070312-1.074219-2.054687-1.855469-2.914062-.84375-.800782-1.832031-1.429688-2.910157-1.855469-1.613281-.703125-3.402343-.886719-5.121093-.527344-.554688.09375-1.089844.273438-1.589844.527344-.5625.195313-1.097656.460937-1.589844.796875-.460937.324219-.902343.679688-1.324219 1.058594-.777343.859375-1.402343 1.84375-1.851562 2.914062-.941406 2.136719-.941406 4.570313 0 6.707032.449219 1.070312 1.074219 2.054687 1.851562 2.914062l1.324219 1.058594c.492188.335937 1.027344.601562 1.589844.792968.5.253907 1.035156.433594 1.589844.53125.582031.101563 1.171875.160157 1.765625.175782zm0 0"/><path d="m353.039062 335.449219c1.152344-.015625 2.292969-.253907 3.355469-.707031 1.070313-.449219 2.054688-1.074219 2.914063-1.855469 1.609375-1.691407 2.523437-3.929688 2.558594-6.265625-.015626-1.152344-.253907-2.292969-.707032-3.355469-.445312-1.070313-1.074218-2.054687-1.851562-2.914063-.84375-.796874-1.832032-1.425781-2.914063-1.851562-1.609375-.703125-3.398437-.890625-5.121093-.53125-.550782.097656-1.089844.277344-1.589844.53125-.5625.191406-1.09375.460938-1.585938.792969-.464844.328125-.90625.679687-1.324218 1.058593-.78125.859376-1.40625 1.847657-1.855469 2.914063-.941407 2.136719-.941407 4.574219 0 6.710937.449219 1.066407 1.078125 2.050782 1.855469 2.910157l1.324218 1.0625c.492188.332031 1.023438.601562 1.585938.792969.503906.253906 1.039062.429687 1.589844.53125.585937.101562 1.175781.160156 1.765624.175781zm0 0"/></g><path d="m202.972656 123.585938c-4.878906 0-8.828125-3.953126-8.828125-8.828126 0-41.1875 31.1875-52.082031 32.519531-52.503906 4.597657-1.496094 9.539063.980469 11.089844 5.558594 1.554688 4.578125-.863281 9.550781-5.421875 11.160156-1 .351563-20.535156 7.765625-20.535156 35.785156 0 4.875-3.949219 8.828126-8.824219 8.828126zm0 0" fill="#2c3e50"/><path d="m308.902344 123.585938c-4.875 0-8.828125-3.953126-8.828125-8.828126 0-28.609374-20.242188-35.699218-20.445313-35.769531-2.996094-.996093-5.230468-3.519531-5.863281-6.613281-.636719-3.09375.429687-6.289062 2.792969-8.382812 2.363281-2.097657 5.664062-2.773438 8.660156-1.773438 1.324219.457031 32.511719 11.351562 32.511719 52.539062 0 4.875-3.953125 8.828126-8.828125 8.828126zm0 0" fill="#2c3e50"/><path d="m211.796875 216.277344c0 17.0625-13.832031 30.894531-30.894531 30.894531s-30.898438-13.832031-30.898438-30.894531c0-17.066406 13.835938-30.898438 30.898438-30.898438s30.894531 13.832032 30.894531 30.898438zm0 0" fill="#fff"/><path d="m201.496094 216.277344c0 11.371094-9.21875 20.59375-20.59375 20.59375s-20.59375-9.222656-20.59375-20.59375c0-11.375 9.21875-20.597656 20.59375-20.597656s20.59375 9.222656 20.59375 20.597656zm0 0" fill="#e4c05c"/><path d="m191.203125 216.277344c0 5.6875-4.613281 10.300781-10.300781 10.300781-5.691406 0-10.300782-4.613281-10.300782-10.300781 0-5.691406 4.609376-10.304688 10.300782-10.304688 5.6875 0 10.300781 4.613282 10.300781 10.304688zm0 0" fill="#2c2f38"/><path d="m180.902344 205.972656c0 5.691406-4.613282 10.304688-10.300782 10.304688-5.691406 0-10.304687-4.613282-10.304687-10.304688 0-5.6875 4.613281-10.300781 10.304687-10.300781 5.6875 0 10.300782 4.613281 10.300782 10.300781zm0 0" fill="#fff"/><path d="m361.867188 216.277344c0 17.0625-13.832032 30.894531-30.894532 30.894531-17.066406 0-30.898437-13.832031-30.898437-30.894531 0-17.066406 13.832031-30.898438 30.898437-30.898438 17.0625 0 30.894532 13.832032 30.894532 30.898438zm0 0" fill="#fff"/><path d="m351.566406 216.277344c0 11.371094-9.222656 20.59375-20.59375 20.59375-11.375 0-20.597656-9.222656-20.597656-20.59375 0-11.375 9.222656-20.597656 20.597656-20.597656 11.371094 0 20.59375 9.222656 20.59375 20.597656zm0 0" fill="#e4c05c"/><path d="m341.273438 216.277344c0 5.6875-4.613282 10.300781-10.300782 10.300781-5.691406 0-10.304687-4.613281-10.304687-10.300781 0-5.691406 4.613281-10.304688 10.304687-10.304688 5.6875 0 10.300782 4.613282 10.300782 10.304688zm0 0" fill="#2c2f38"/><path d="m330.972656 205.972656c0 5.691406-4.613281 10.304688-10.304687 10.304688-5.6875 0-10.300781-4.613282-10.300781-10.304688 0-5.6875 4.613281-10.300781 10.300781-10.300781 5.691406 0 10.304687 4.613281 10.304687 10.300781zm0 0" fill="#fff"/><path d="m114.695312 282.484375c-3.253906-.003906-6.246093-1.796875-7.777343-4.667969-1.535157-2.871094-1.363281-6.351562.441406-9.058594.386719-.585937 40.078125-58.441406 116.382813-29.855468 3.019531 1.054687 5.234374 3.660156 5.785156 6.8125.550781 3.152344-.644532 6.355468-3.128906 8.371094-2.484376 2.015624-5.863282 2.535156-8.835938 1.347656-63.320312-23.761719-95.171875 22.636718-95.480469 23.113281-1.644531 2.46875-4.417969 3.949219-7.386719 3.9375zm0 0" fill="#59474e"/><path d="m397.175781 282.484375c-2.941406 0-5.691406-1.460937-7.332031-3.902344-1.308594-1.933593-32.601562-46.789062-95.5-23.136719-2.96875 1.183594-6.351562.667969-8.832031-1.351562-2.484375-2.015625-3.683594-5.21875-3.128907-8.371094.550782-3.152344 2.761719-5.757812 5.78125-6.8125 76.28125-28.609375 115.996094 29.261719 116.382813 29.855469 1.808594 2.710937 1.972656 6.199219.429687 9.066406-1.542968 2.871094-4.539062 4.660157-7.800781 4.652344zm0 0" fill="#59474e"/><path d="m291.246094 256.054688c0 12.929687-15.820313 35.253906-35.308594 35.253906-19.492188 0-35.3125-22.324219-35.3125-35.253906.011719-1.539063.25-3.070313.707031-4.539063 3.320313-9.542969 17.515625-13.171875 34.605469-13.171875 19.488281 0 35.308594 4.6875 35.308594 17.710938zm0 0" fill="#2c3e50"/></svg>