<svg height="512pt" viewBox="-61 0 512 512.18849" width="512pt" xmlns="http://www.w3.org/2000/svg"><path d="m346.683594 273.65625c4.320312.046875 8.503906-1.53125 11.722656-4.414062 7.445312-6.726563 14.03125-14.34375 19.605469-22.6875 12.1875-19.902344 15.636719-43.945313 9.535156-66.472657-4.769531-19.597656-16.773437-34.691406-27.984375-51.199219-27.101562-39.902343-14.035156-87.746093 2.648438-128.882812-6.042969 12.941406-12.976563 25.445312-20.746094 37.429688-6.523438 11.082031-14.25 21.414062-23.039063 30.808593-10.035156 8.253907-21.371093 14.785157-33.546875 19.332031-22.753906 10.808594-37.226562 33.777344-37.164062 58.96875l-104.695313.441407c.070313-25.328125-14.421875-48.441407-37.25-59.410157-12.183593-4.527343-23.523437-11.058593-33.546875-19.332031-8.839844-9.347656-16.570312-19.6875-23.039062-30.808593-7.769532-11.984376-14.699219-24.488282-20.746094-37.429688 16.597656 41.136719 29.75 88.980469 2.648438 128.882812-11.210938 16.507813-23.214844 31.601563-28.070313 51.199219-6.070313 22.539063-2.589844 46.582031 9.621094 66.472657 5.574219 8.34375 12.160156 15.960937 19.605469 22.6875 3.21875 2.882812 7.402343 4.460937 11.726562 4.414062zm0 0" fill="#804537"/><path d="m310.746094 394.152344c31.601562-35.132813 57.378906-85.363282 35.484375-146.449219-35.839844-100.019531-112.375-107.257813-139.914063-106.375-6.796875.179687-13.507812.179687-20.304687 0-27.542969-.882813-104.078125 6.355469-139.917969 106.375-21.890625 61.085937 3.882812 111.316406 35.488281 146.449219zm0 0" fill="#2c3e50"/><path d="m311.097656 379.675781c.109375 17.992188-1.425781 35.957031-4.589844 53.671875-4.058593 22.242188-10.59375 47.753906-27.542968 64.085938-1.085938 1.097656-2.234375 2.128906-3.441406 3.089844-12.585938 9.347656-28.363282 13.316406-43.875 11.035156-9.1875-1.15625-18.203126-3.441406-26.835938-6.796875-2.910156-.972657-5.824219-2.207031-8.648438-3.441407-2.824218 1.234376-5.738281 2.46875-8.652343 3.441407-8.632813 3.355469-17.644531 5.640625-26.835938 6.796875-15.507812 2.28125-31.289062-1.6875-43.871093-11.035156-1.210938-.960938-2.359376-1.992188-3.445313-3.089844-16.949219-16.332032-23.480469-41.84375-27.539063-64.085938-3.164062-17.714844-4.703124-35.679687-4.59375-53.671875-.023437-4.699219 1.828126-9.210937 5.140626-12.542969 3.3125-3.328124 7.820312-5.203124 12.515624-5.203124h194.558594c4.699219 0 9.203125 1.875 12.515625 5.203124 3.316407 3.332032 5.164063 7.84375 5.140625 12.542969zm0 0" fill="#35495e"/><g fill="#2c2f38"><path d="m240.300781 417.898438c-.1875 4.46875-1.363281 8.839843-3.441406 12.800781-7.480469 16.078125-23.019531 26.902343-40.695313 28.335937-16.328124-1.183594-30.949218-10.550781-38.84375-24.894531-3.105468-4.878906-4.929687-10.46875-5.292968-16.242187.011718-1.800782.308594-3.589844.878906-5.296876 4.152344-11.121093 21.894531-15.359374 43.257812-15.359374 24.363282 0 44.136719 5.472656 44.136719 20.65625zm0 0"/><path d="m178.507812 406.070312c-4.875 0-8.828124-3.953124-8.828124-8.828124v-73.136719c-1.375 1.152343-2.851563 2.179687-4.414063 3.070312-11.078125 5.613281-24.28125 5.050781-34.839844-1.480469-11.628906-5.800781-24.984375 7.0625-25.125 7.175782-3.464843 3.34375-8.96875 3.296875-12.375-.109375-3.40625-3.402344-3.453125-8.910157-.105469-12.375.882813-.882813 22.4375-22.003907 45.496094-10.476563 5.363282 3.644532 12.191406 4.375 18.203125 1.941406 9.425781-5.375 12.753907-23.90625 13.179688-29.96875.300781-4.765624 4.335937-8.429687 9.109375-8.265624 4.773437.160156 8.550781 4.089843 8.527344 8.867187v114.757813c0 4.875-3.953126 8.828124-8.828126 8.828124zm0 0"/><path d="m213.820312 406.070312c-4.878906 0-8.828124-3.953124-8.828124-8.828124v-114.757813c-.175782-4.878906 3.636718-8.96875 8.511718-9.144531 4.875-.171875 8.96875 3.640625 9.140625 8.515625.460938 6.082031 3.851563 24.671875 13.242188 30.015625 6.007812 2.421875 12.828125 1.691406 18.1875-1.953125 23.054687-11.5625 44.605469 9.570312 45.496093 10.488281 3.351563 3.457031 3.308594 8.964844-.089843 12.375-3.402344 3.410156-8.90625 3.464844-12.375.125-.371094-.363281-13.59375-12.976562-25.140625-7.1875-10.5625 6.539062-23.765625 7.101562-34.84375 1.484375-1.558594-.890625-3.035156-1.917969-4.414063-3.070313v73.109376c0 2.351562-.9375 4.605468-2.605469 6.261718-1.667968 1.660156-3.929687 2.582032-6.28125 2.566406zm0 0"/><path d="m169.679688 238.34375c-3.796876 0-7.167969-2.433594-8.367188-6.035156-1.390625-4.949219-4.804688-9.082032-9.398438-11.382813-4.597656-2.296875-9.953124-2.550781-14.746093-.695312-4.632813 1.542969-9.636719-.960938-11.179688-5.59375-1.542969-4.628907.960938-9.636719 5.59375-11.179688 5.949219-1.8125 12.222657-2.316406 18.386719-1.472656 13.445312 1.917969 24.476562 11.625 28.089844 24.71875.90625 2.695313.460937 5.660156-1.203125 7.96875-1.660157 2.308594-4.332031 3.675781-7.175781 3.671875zm0 0"/><path d="m222.644531 238.34375c-2.835937 0-5.496093-1.367188-7.15625-3.667969-1.65625-2.300781-2.105469-5.257812-1.210937-7.949219 3.613281-13.09375 14.644531-22.800781 28.089844-24.714843 6.164062-.847657 12.4375-.347657 18.386718 1.472656 2.996094.988281 5.238282 3.5 5.878906 6.589844.644532 3.089843-.414062 6.285156-2.765624 8.386719-2.355469 2.101562-5.652344 2.785156-8.648438 1.796874-4.789062-1.96875-10.195312-1.777343-14.832031.53125-4.636719 2.308594-8.050781 6.507813-9.363281 11.519532-1.199219 3.605468-4.574219 6.039062-8.378907 6.035156zm0 0"/></g><path d="m204.992188 459.035156v44.136719c-.015626.535156-.074219 1.066406-.179688 1.589844-2.910156-.972657-5.824219-2.207031-8.648438-3.441407-2.824218 1.234376-5.738281 2.46875-8.652343 3.441407-.101563-.523438-.160157-1.054688-.175781-1.589844v-44.136719c0-4.875 3.953124-8.828125 8.828124-8.828125s8.828126 3.953125 8.828126 8.828125zm0 0" fill="#2c3e50"/><path d="m143.019531 146.980469c-31.933593 9.683593-59.21875 30.722656-76.710937 59.144531-16.859375-24.71875-.882813-49.433594 15.097656-74.0625 17.652344-27.277344-9.183594-63.824219-9.183594-63.824219 10.023438 8.273438 21.363282 14.804688 33.546875 19.332031 22.828125 10.96875 37.320313 34.082032 37.25 59.410157zm0 0" fill="#2c2f38"/><path d="m325.132812 204.800781c-17.765624-28.277343-45.324218-49.019531-77.417968-58.261719-.066406-25.191406 14.410156-48.164062 37.164062-58.96875 12.175782-4.546874 23.511719-11.078124 33.546875-19.332031 0 0-26.835937 36.546875-9.179687 63.824219 15.710937 24.1875 31.425781 48.460938 15.886718 72.738281zm0 0" fill="#2c2f38"/><path d="m152.027344 264.828125c0 14.625-11.859375 26.480469-26.484375 26.480469s-26.484375-11.855469-26.484375-26.480469 11.859375-26.484375 26.484375-26.484375 26.484375 11.859375 26.484375 26.484375zm0 0" fill="#fff"/><path d="m143.199219 264.828125c0 9.75-7.90625 17.65625-17.65625 17.65625s-17.65625-7.90625-17.65625-17.65625 7.90625-17.65625 17.65625-17.65625 17.65625 7.90625 17.65625 17.65625zm0 0" fill="#804537"/><path d="m125.542969 273.65625c-1.152344-.015625-2.292969-.253906-3.355469-.707031-1.066406-.449219-2.054688-1.074219-2.914062-1.855469-1.609376-1.691406-2.523438-3.929688-2.558594-6.265625.015625-1.152344.253906-2.292969.707031-3.355469.445313-1.070312 1.074219-2.054687 1.851563-2.914062.84375-.796875 1.835937-1.425782 2.914062-1.851563 1.609375-.703125 3.398438-.890625 5.121094-.53125.554687.097657 1.089844.273438 1.589844.53125.5625.191407 1.09375.460938 1.585937.792969.464844.328125.90625.679688 1.324219 1.058594.78125.859375 1.40625 1.84375 1.855468 2.914062.941407 2.136719.941407 4.574219 0 6.710938-.449218 1.066406-1.074218 2.050781-1.855468 2.910156l-1.324219 1.0625c-.492187.332031-1.023437.597656-1.585937.792969-.503907.253906-1.039063.429687-1.589844.53125-.582032.101562-1.175782.160156-1.765625.175781zm0 0" fill="#2c2f38"/><path d="m125.542969 256c0 4.875-3.953125 8.828125-8.828125 8.828125s-8.828125-3.953125-8.828125-8.828125 3.953125-8.828125 8.828125-8.828125 8.828125 3.953125 8.828125 8.828125zm0 0" fill="#fff"/><path d="m293.265625 264.828125c0 14.625-11.855469 26.480469-26.480469 26.480469-14.628906 0-26.484375-11.855469-26.484375-26.480469s11.855469-26.484375 26.484375-26.484375c14.625 0 26.480469 11.859375 26.480469 26.484375zm0 0" fill="#fff"/><path d="m284.4375 264.828125c0 9.75-7.902344 17.65625-17.652344 17.65625s-17.65625-7.90625-17.65625-17.65625 7.90625-17.65625 17.65625-17.65625 17.652344 7.90625 17.652344 17.65625zm0 0" fill="#804537"/><path d="m266.785156 273.65625c-1.15625-.015625-2.292968-.253906-3.355468-.707031-1.070313-.449219-2.054688-1.074219-2.914063-1.855469-1.613281-1.691406-2.527344-3.929688-2.558594-6.265625.011719-1.152344.253907-2.292969.707031-3.355469.445313-1.070312 1.074219-2.054687 1.851563-2.914062.84375-.796875 1.832031-1.425782 2.914063-1.851563 1.609374-.703125 3.398437-.890625 5.121093-.53125.550781.097657 1.085938.273438 1.585938.53125.5625.191407 1.097656.460938 1.589843.792969.464844.328125.90625.679688 1.324219 1.058594.777344.859375 1.40625 1.84375 1.855469 2.914062.941406 2.136719.941406 4.574219 0 6.710938-.449219 1.066406-1.078125 2.050781-1.855469 2.910156l-1.324219 1.0625c-.492187.332031-1.027343.597656-1.589843.792969-.5.253906-1.035157.429687-1.585938.53125-.585937.101562-1.175781.160156-1.765625.175781zm0 0" fill="#2c2f38"/><path d="m266.785156 256c0 4.875-3.953125 8.828125-8.828125 8.828125s-8.828125-3.953125-8.828125-8.828125 3.953125-8.828125 8.828125-8.828125 8.828125 3.953125 8.828125 8.828125zm0 0" fill="#fff"/></svg>