<svg height="512pt" viewBox="0 0 512.43044 512" width="512pt" xmlns="http://www.w3.org/2000/svg"><path d="m344.484375 83.289062c31.484375 13.902344 60.234375 33.300782 84.910156 57.292969 3.636719-27.515625 12.917969-38.019531 21.019531-42.046875-2.328124-9.066406-5.308593-17.953125-8.925781-26.589844-10.4375-15.503906-29.359375-22.964843-47.570312-18.757812-19.09375 4.917969-36.300781 15.394531-49.433594 30.101562zm0 0" fill="#2c2f38"/><path d="m159.105469 86.386719c-29.664063 15.945312-56.066407 37.324219-77.835938 63.023437-3.378906-30.261718-11.84375-41.828125-19.269531-46.25 2.117188-9.910156 4.851562-19.675781 8.183594-29.246094 7.898437-16.25 26.027344-24.828124 43.601562-20.628906 18.296875 4.085938 33.261719 18.820313 45.320313 33.101563zm0 0" fill="#2c2f38"/><path d="m361.34375 86.113281c9.394531-12.261719 22.390625-21.273437 37.164062-25.773437 14.1875-3.410156 28.882813 3.195312 35.753907 16.066406 4.589843 9.179688 4.234375 20.035156 9.621093 28.953125 7.285157 11.503906 17.449219 20.90625 29.484376 27.277344 7.765624 4.414062 19.949218 8.386719 26.746093.351562 6.371094-8.9375 10.214844-19.425781 11.125-30.367187 5.671875-34.652344-9.1875-69.460938-38.136719-89.332032-72.914062-47.496093-149.363281 49.167969-154.746093 56.230469h-124.292969c-5.386719-7.0625-81.832031-103.726562-154.75-56.230469-28.914062 19.898438-43.765625 54.6875-38.132812 89.332032.898437 10.957031 4.777343 21.457031 11.210937 30.367187 6.707031 8.035157 18.890625 4.0625 26.660156-.351562 12.042969-6.390625 22.230469-15.789063 29.570313-27.277344 5.296875-8.917969 4.945312-19.773437 9.535156-28.953125 6.894531-12.84375 21.570312-19.4375 35.75-16.066406 14.777344 4.5 27.773438 13.511718 37.164062 25.773437zm0 0" fill="#35495e"/><path d="m459.59375 349.355469c16.171875 24.296875 18.058594 55.402343 4.945312 81.476562-14.652343 31.957031-44.316406 51.199219-72.652343 49.609375h-.085938c-7.082031-.257812-14.039062-1.90625-20.480469-4.851562-24.71875-11.390625-31.25-36.636719-36.015624-61.265625-5.121094-26.042969-6.886719-52.523438-12.976563-78.386719-6.003906-25.335938-15.980469-62.765625-39.550781-80.066406h-53.140625c-23.570313 17.300781-33.542969 54.730468-39.546875 80.066406-6.089844 25.863281-7.855469 52.34375-12.976563 78.386719-4.769531 24.628906-11.300781 49.875-36.015625 61.265625-6.441406 2.945312-13.402344 4.59375-20.480468 4.851562h-.089844c-28.335938 1.589844-57.996094-17.652344-72.652344-49.609375-13.109375-26.074219-11.222656-57.179687 4.945312-81.476562-11.410156-25.402344-17.308593-52.929688-17.300781-80.773438 0-114.582031 98.777344-207.449219 220.6875-207.449219 121.910157 0 220.691407 92.867188 220.691407 207.449219.003906 27.84375-5.894532 55.371094-17.304688 80.773438zm0 0" fill="#547580"/><path d="m324.515625 344.851562 19.003906-51.816406c2.792969-7.671875-1.089843-16.164062-8.71875-19.070312-6.300781-2.445313-13.453125-.164063-17.179687 5.472656l-8.449219 12.449219h-105.929687l-8.457032-12.449219c-3.726562-5.636719-10.878906-7.917969-17.179687-5.472656-7.628907 2.90625-11.511719 11.398437-8.71875 19.070312l19.003906 51.816406zm0 0" fill="#ecf0f1"/><path d="m391.800781 480.441406c-20.570312 15.714844-92.777343 63.207032-135.59375-4.410156-42.8125 67.617188-115.023437 20.125-135.589843 4.410156 7.078124-.257812 14.039062-1.90625 20.480468-4.851562 24.714844-11.390625 31.246094-36.636719 36.015625-61.265625 5.121094-26.042969 6.886719-52.523438 12.976563-78.386719 6.003906-25.335938 15.976562-62.765625 39.546875-80.066406h53.140625c23.570312 17.300781 33.546875 54.730468 39.550781 80.066406 6.089844 25.863281 7.855469 52.34375 12.976563 78.386719 4.765624 24.628906 11.296874 49.875 36.015624 61.265625 6.441407 2.945312 13.398438 4.59375 20.480469 4.851562zm0 0" fill="#35495e"/><path d="m309.171875 217.089844c0 17.328125-23.710937 47.078125-52.964844 47.078125-29.253906 0-52.964843-29.75-52.964843-47.078125s23.710937-23.542969 52.964843-23.542969c29.253907 0 52.964844 6.179687 52.964844 23.542969zm0 0" fill="#2c2f38"/><path d="m212.070312 158.234375c.015626 1.597656-.101562 3.191406-.355468 4.769531-.421875.074219-.835938.195313-1.234375.351563-4.386719 1.492187-8.640625 3.351562-12.710938 5.5625-6.539062 3.421875-12.59375 7.695312-18.007812 12.710937-2.535157 2.164063-4.925781 4.496094-7.152344 6.972656-1.234375 1.324219-2.46875 2.738282-3.617187 4.0625-5.9375-1.316406-11.417969-4.175781-15.890626-8.296874-7.445312-6.644532-11.6875-16.15625-11.652343-26.132813-.03125-6.3125 1.679687-12.511719 4.941406-17.917969 5.597656-9.539062 15.347656-15.894531 26.332031-17.160156 10.988282-1.265625 21.929688 2.703125 29.546875 10.714844 3.132813 3.257812 5.59375 7.09375 7.242188 11.300781 1.71875 4.140625 2.585937 8.582031 2.558593 13.0625zm0 0" fill="#fff"/><path d="m200.328125 158.234375c-.007813 3.714844-.886719 7.371094-2.558594 10.683594-6.539062 3.421875-12.59375 7.695312-18.007812 12.710937-.972657.089844-1.941407.175782-3.003907.175782-13.003906-.023438-23.542968-10.5625-23.566406-23.570313-.015625-2.363281.34375-4.71875 1.058594-6.972656 1.542969-4.910157 4.640625-9.1875 8.828125-12.179688 6.566406-4.730469 15.113281-5.734375 22.597656-2.648437 5.746094 2.378906 10.339844 6.90625 12.800781 12.621094 1.246094 2.898437 1.878907 6.027343 1.851563 9.179687zm0 0" fill="#b0d3f0"/><path d="m176.757812 170.003906c-1.539062-.019531-3.058593-.339844-4.472656-.945312-1.421875-.597656-2.734375-1.433594-3.875-2.472656-2.152344-2.253907-3.371094-5.234376-3.417968-8.351563.015624-1.535156.335937-3.058594.9375-4.472656.597656-1.425781 1.4375-2.734375 2.480468-3.875 1.121094-1.070313 2.433594-1.910157 3.875-2.480469 2.144532-.9375 4.53125-1.179688 6.824219-.699219.734375.125 1.449219.359375 2.117187.699219.75.257812 1.460938.613281 2.117188 1.058594.617188.433594 1.207031.90625 1.765625 1.410156 1.039063 1.144531 1.875 2.453125 2.472656 3.875 1.257813 2.851562 1.257813 6.101562 0 8.953125-.597656 1.425781-1.433593 2.738281-2.472656 3.882813l-1.765625 1.414062c-.65625.445312-1.367188.800781-2.117188 1.058594-.667968.335937-1.382812.574218-2.117187.707031-.777344.136719-1.5625.214844-2.351563.238281zm0 0" fill="#2c2f38"/><path d="m176.757812 146.46875c0 6.5-5.265624 11.765625-11.765624 11.765625s-11.765626-5.265625-11.765626-11.765625 5.265626-11.765625 11.765626-11.765625 11.765624 5.265625 11.765624 11.765625zm0 0" fill="#fff"/><path d="m370.964844 158.234375c.03125 9.957031-4.171875 19.457031-11.5625 26.132813-4.515625 4.15625-10.0625 7.019531-16.066406 8.296874-1.148438-1.414062-2.296876-2.648437-3.441407-3.972656-2.25-2.484375-4.636719-4.84375-7.152343-7.0625h-.085938c-5.378906-4.996094-11.40625-9.242187-17.921875-12.621094h-.089844c-4.03125-2.234374-8.253906-4.09375-12.621093-5.5625-.441407-.175781-.882813-.265624-1.324219-.441406-.253907-1.578125-.371094-3.171875-.355469-4.769531-.027344-4.480469.84375-8.921875 2.5625-13.0625 1.582031-4.191406 4.019531-8.007813 7.148438-11.210937 7.628906-8.070313 18.609374-12.070313 29.640624-10.804688 11.03125 1.269531 20.820313 7.660156 26.414063 17.25 3.195313 5.394531 4.875 11.558594 4.855469 17.828125zm0 0" fill="#fff"/><path d="m359.226562 158.234375c-.03125 13.007813-10.566406 23.542969-23.570312 23.570313-.972656 0-1.941406-.085938-2.914062-.175782h-.085938c-5.378906-4.996094-11.40625-9.242187-17.921875-12.621094h-.089844c-1.660156-3.347656-2.539062-7.035156-2.558593-10.773437-.011719-2.363281.34375-4.71875 1.058593-6.972656.226563-.71875.492188-1.425781.796875-2.117188v-.089843c2.425782-5.707032 6.988282-10.238282 12.710938-12.621094.65625-.289063 1.335937-.527344 2.03125-.707032 2.253906-.714843 4.605468-1.074218 6.972656-1.058593 4.996094-.019531 9.863281 1.589843 13.859375 4.589843 6.109375 4.390626 9.722656 11.457032 9.710937 18.976563zm0 0" fill="#b0d3f0"/><path d="m335.65625 170.003906c-1.539062-.019531-3.058594-.339844-4.476562-.945312-1.421876-.597656-2.730469-1.433594-3.875-2.472656-2.148438-2.253907-3.371094-5.234376-3.414063-8.351563.015625-1.535156.332031-3.058594.933594-4.472656.601562-1.425781 1.441406-2.734375 2.480469-3.875 1.121093-1.070313 2.4375-1.910157 3.875-2.480469 2.148437-.9375 4.53125-1.179688 6.824218-.699219.738282.125 1.453125.359375 2.117188.699219.75.257812 1.464844.613281 2.121094 1.058594.617187.433594 1.203124.90625 1.765624 1.410156 1.035157 1.144531 1.871094 2.453125 2.472657 3.875 1.257812 2.851562 1.257812 6.101562 0 8.953125-.601563 1.425781-1.4375 2.738281-2.472657 3.882813l-1.765624 1.414062c-.65625.445312-1.371094.800781-2.121094 1.058594-.667969.335937-1.378906.574218-2.117188.707031-.777344.136719-1.558594.214844-2.347656.238281zm0 0" fill="#2c2f38"/><path d="m335.65625 146.46875c0 6.5-5.269531 11.765625-11.765625 11.765625-6.5 0-11.769531-5.265625-11.769531-11.765625s5.269531-11.765625 11.769531-11.765625c6.496094 0 11.765625 5.265625 11.765625 11.765625zm0 0" fill="#fff"/><g fill="#35495e"><path d="m438.675781 304.246094c-7.199219 5.539062-16.375 7.839844-25.335937 6.355468-9.648438-2.128906-17.914063-8.300781-22.6875-16.949218-4.246094-8.167969-7.648438-16.742188-10.152344-25.601563-7.414062-22.246093-17.566406-52.171875-37.164062-75.386719-1.148438-1.414062-2.296876-2.648437-3.441407-3.972656-2.25-2.484375-4.636719-4.84375-7.152343-7.0625h-.085938c-5.378906-4.996094-11.40625-9.242187-17.921875-12.621094h-.089844c-4.03125-2.234374-8.253906-4.09375-12.621093-5.5625-.441407-.175781-.882813-.265624-1.324219-.441406-14.121094-4.539062-29.023438-6.132812-43.785157-4.679687h-1.414062c-14.761719-1.5-29.671875.09375-43.785156 4.679687-.421875.074219-.835938.195313-1.234375.351563-4.386719 1.492187-8.640625 3.351562-12.710938 5.5625-6.539062 3.421875-12.59375 7.695312-18.007812 12.710937-2.535157 2.164063-4.925781 4.496094-7.152344 6.972656-1.234375 1.324219-2.46875 2.738282-3.617187 4.0625-19.511719 23.304688-29.484376 53.140626-36.898438 75.300782-2.492188 8.886718-5.894531 17.496094-10.152344 25.6875-4.777344 8.648437-13.042968 14.820312-22.6875 16.949218-8.953125 1.300782-18.058594-.984374-25.335937-6.355468-3.628907-3.027344-4.234375-8.371094-1.375-12.128906 2.863281-3.757813 8.175781-4.601563 12.054687-1.910157 3.390625 2.386719 7.535156 3.457031 11.652344 3.003907 4.636719-1.378907 8.5-4.601563 10.683594-8.917969 3.453125-7.027344 6.261718-14.355469 8.386718-21.890625 8.011719-27.992188 20.792969-54.390625 37.78125-78.035156 2.03125-2.648438 4.238282-5.210938 6.53125-7.679688.363282-.40625.746094-.789062 1.148438-1.148438 2.648438-2.914062 5.472656-5.648437 8.386719-8.296874 5.730469-4.976563 11.972656-9.328126 18.625-12.976563 3.445312-1.964844 7.011719-3.707031 10.683593-5.210937 2.027344-.882813 4.148438-1.675782 6.265626-2.382813 1.589843-.53125 3.179687-1.058594 4.769531-1.5 15.160156-4.328125 30.984375-5.855469 46.695312-4.503906 15.710938-1.433594 31.550781.09375 46.699219 4.503906 1.589844.441406 3.265625 1.058594 4.855469 1.589844 1.5625.496093 3.097656 1.085937 4.589843 1.765625l1.589844.527344v.089843c3.667969 1.472657 7.234375 3.183594 10.679688 5.121094 1.550781.796875 3.054687 1.679687 4.503906 2.648437 4.964844 3.070313 9.6875 6.523438 14.121094 10.328126 2.976562 2.574218 5.804687 5.316406 8.476562 8.207031.453125.367187.867188.78125 1.234375 1.238281 2.296875 2.46875 4.414063 5.03125 6.445313 7.679688 17.023437 23.625 29.808594 50.027343 37.78125 78.035156 2.1875 7.527344 5.023437 14.851562 8.476562 21.890625 1.640625 4.246093 5.207032 7.457031 9.601563 8.640625 4.390625 1.1875 9.089843.207031 12.640625-2.636719 3.863281-2.617187 9.09375-1.78125 11.941406 1.910156 2.851562 3.691407 2.339844 8.964844-1.167969 12.039063zm0 0"/><path d="m370.964844 140.582031c-36.707032-1.738281-73.15625-7.128906-108.796875-16.085937-3.902344-.859375-7.945313-.859375-11.847657 0-35.703124 8.785156-72.15625 14.171875-108.871093 16.085937-4.875 0-8.828125-3.953125-8.828125-8.828125s3.953125-8.828125 8.828125-8.828125c35.414062-1.816406 70.566406-7.054687 104.96875-15.652343 6.4375-1.429688 13.113281-1.429688 19.554687 0 34.410156 8.59375 69.570313 13.835937 104.992188 15.652343 4.875 0 8.828125 3.953125 8.828125 8.828125s-3.953125 8.828125-8.828125 8.828125zm0 0"/><path d="m256.207031 211.203125c0-4.875-7.902343-8.828125-17.65625-8.828125-9.75 0-17.652343 3.953125-17.652343 8.828125s7.902343 8.828125 17.652343 8.828125c9.753907 0 17.65625-3.953125 17.65625-8.828125zm0 0"/></g></svg>