<svg height="506pt" viewBox="-1 0 506 506.97546" width="506pt" xmlns="http://www.w3.org/2000/svg"><path d="m400.230469 390.507812s-111.398438 54.777344-140.582031 95.5625c-1.601563 2.238282-4.1875 3.566407-6.941407 3.566407-2.753906 0-5.339843-1.328125-6.941406-3.566407-29.183594-40.785156-140.585937-95.5625-140.585937-95.5625l147.527343-242.980468zm0 0" fill="#7f8c8d"/><path d="m252.707031 498.296875c-5.546875-.003906-10.75-2.675781-13.988281-7.175781-27.597656-38.566406-136.246094-92.289063-137.363281-92.855469-2.785157-1.367187-4.625-4.117187-4.832031-7.210937-.203126-3.09375 1.257812-6.0625 3.832031-7.789063 2.578125-1.726563 5.878906-1.945313 8.660156-.574219 4.625 2.28125 113.683594 56.222656 143.820313 98.292969 29.871093-42.078125 138.945312-96.011719 143.570312-98.292969 2.78125-1.371094 6.082031-1.152344 8.660156.574219 2.574219 1.726563 4.035156 4.695313 3.832032 7.789063-.207032 3.09375-2.046876 5.84375-4.832032 7.210937-1.09375.539063-109.773437 54.28125-137.371094 92.855469-3.238281 4.503906-8.441406 7.175781-13.988281 7.175781zm0 0" fill="#805333"/><path d="m278.742188 480.941406c0 14.378906-11.65625 26.035156-26.035157 26.035156-14.378906 0-26.035156-11.65625-26.035156-26.035156s11.65625-26.035156 26.035156-26.035156c14.378907 0 26.035157 11.65625 26.035157 26.035156zm0 0" fill="#f0c419"/><path d="m364.964844 355.796875c34.710937 60.746094 130.167968 60.746094 138.847656-60.746094 8.675781-121.492187-86.78125-190.914062-86.78125-190.914062l.382812.257812c.046876-.09375.105469-.179687.171876-.257812 0 0-73.847657-104.136719-164.878907-104.136719s-164.882812 104.136719-164.882812 104.136719-95.457031 69.421875-86.777344 190.914062c8.675781 121.492188 104.132813 121.492188 138.847656 60.746094zm0 0" fill="#d1d4d1"/><g fill="#e6e7e8"><path d="m133.90625 303.042969c-.625 1.902343-1.117188 3.84375-1.476562 5.816406"/><path d="m372.984375 308.847656c-.359375-1.96875-.851563-3.910156-1.476563-5.8125"/><path d="m373.851562 314.75c-.140624-1.632812-.371093-3.253906-.695312-4.859375"/><path d="m373.851562 327.417969c-.140624 1.632812-.371093 3.253906-.695312 4.863281"/></g><path d="m187.273438 381.570312c9.460937 20.394532 35.148437 34.972657 65.433593 34.972657 30.285157 0 55.972657-14.578125 65.429688-34.972657l-65.429688-77.839843zm0 0" fill="#bdc3c7"/><path d="m252.707031 182.238281c-63.097656 0-130.171875-19.769531-130.171875-56.40625 0-4.792969 3.886719-8.679687 8.679688-8.679687 4.792968 0 8.679687 3.886718 8.679687 8.679687 0 18.429688 48.246094 39.050781 112.8125 39.050781 64.5625 0 112.8125-20.621093 112.8125-39.050781 0-4.792969 3.886719-8.679687 8.679688-8.679687s8.675781 3.886718 8.675781 8.679687c0 36.628907-67.070312 56.40625-130.167969 56.40625zm0 0" fill="#bdc3c7"/><path d="m148.386719 303.730469c-4.625.003906-8.441407-3.617188-8.675781-8.238281-1.933594-24.238282-10.253907-47.535157-24.117188-67.511719-2.875-3.835938-2.097656-9.273438 1.738281-12.152344 3.832031-2.875 9.273438-2.097656 12.148438 1.738281 15.96875 22.726563 25.5 49.351563 27.585937 77.050782.246094 4.785156-3.433594 8.863281-8.21875 9.113281zm0 0" fill="#7f8c8d"/><path d="m357.023438 303.730469h-.449219c-4.785157-.25-8.464844-4.328125-8.21875-9.113281 2.082031-27.703126 11.609375-54.328126 27.578125-77.0625 1.859375-2.476563 4.902344-3.777344 7.980468-3.40625 3.078126.371093 5.722657 2.355468 6.941407 5.207031 1.21875 2.851562.824219 6.132812-1.035157 8.613281-13.832031 20.007812-22.15625 43.296875-24.144531 67.535156-.238281 4.605469-4.039062 8.21875-8.652343 8.226563zm0 0" fill="#7f8c8d"/><path d="m209.316406 225.628906c0 14.375-11.65625 26.03125-26.035156 26.03125-14.375 0-26.03125-11.65625-26.03125-26.03125 0-14.378906 11.65625-26.035156 26.03125-26.035156 14.378906 0 26.035156 11.65625 26.035156 26.035156zm0 0" fill="#fff"/><path d="m200.640625 225.628906c0 9.582032-7.773437 17.355469-17.359375 17.355469-9.582031 0-17.355469-7.773437-17.355469-17.355469 0-9.585937 7.773438-17.359375 17.355469-17.359375 9.585938 0 17.359375 7.773438 17.359375 17.359375zm0 0" fill="#b0d3f0"/><path d="m183.28125 234.304688c-1.132812-.011719-2.253906-.25-3.296875-.695313-1.050781-.441406-2.019531-1.054687-2.863281-1.820313-1.585938-1.664062-2.484375-3.863281-2.515625-6.160156.011719-1.136718.25-2.257812.695312-3.300781.4375-1.050781 1.054688-2.019531 1.820313-2.863281.828125-.785156 1.800781-1.402344 2.863281-1.820313 1.582031-.691406 3.34375-.875 5.035156-.523437.542969.097656 1.070313.273437 1.5625.523437.550781.1875 1.078125.453125 1.558594.78125.457031.320313.890625.667969 1.304687 1.039063.765626.84375 1.378907 1.8125 1.820313 2.863281.925781 2.101563.925781 4.496094 0 6.597656-.441406 1.050781-1.058594 2.019531-1.820313 2.863281l-1.304687 1.039063c-.480469.332031-1.007813.59375-1.558594.78125-.492187.25-1.019531.425781-1.5625.523437-.574219.097657-1.15625.15625-1.738281.171876zm0 0" fill="#2c2f38"/><path d="m183.28125 216.949219c0 4.792969-3.882812 8.679687-8.675781 8.679687s-8.679688-3.886718-8.679688-8.679687 3.886719-8.679688 8.679688-8.679688 8.675781 3.886719 8.675781 8.679688zm0 0" fill="#fff"/><path d="m348.164062 225.628906c0 14.375-11.65625 26.03125-26.035156 26.03125-14.375 0-26.03125-11.65625-26.03125-26.03125 0-14.378906 11.65625-26.035156 26.03125-26.035156 14.378906 0 26.035156 11.65625 26.035156 26.035156zm0 0" fill="#fff"/><path d="m339.484375 225.628906c0 9.582032-7.769531 17.355469-17.355469 17.355469-9.585937 0-17.355468-7.773437-17.355468-17.355469 0-9.585937 7.769531-17.359375 17.355468-17.359375 9.585938 0 17.355469 7.773438 17.355469 17.359375zm0 0" fill="#b0d3f0"/><path d="m322.128906 234.304688c-1.132812-.011719-2.253906-.25-3.296875-.695313-1.050781-.441406-2.019531-1.054687-2.863281-1.820313-1.585938-1.664062-2.484375-3.863281-2.515625-6.160156.011719-1.136718.25-2.257812.695313-3.300781.4375-1.050781 1.054687-2.019531 1.820312-2.863281.828125-.785156 1.800781-1.402344 2.863281-1.820313 1.582031-.691406 3.34375-.875 5.035157-.523437.542968.097656 1.070312.273437 1.5625.523437.550781.1875 1.078124.453125 1.558593.78125.457031.320313.890625.667969 1.304688 1.039063.761719.84375 1.378906 1.8125 1.820312 2.863281.925781 2.101563.925781 4.496094 0 6.597656-.441406 1.050781-1.058593 2.019531-1.820312 2.863281l-1.304688 1.039063c-.480469.332031-1.007812.59375-1.558593.78125-.496094.25-1.019532.425781-1.5625.523437-.574219.097657-1.15625.15625-1.738282.171876zm0 0" fill="#2c2f38"/><path d="m322.128906 216.949219c0 4.792969-3.882812 8.679687-8.675781 8.679687s-8.679687-3.886718-8.679687-8.679687 3.886718-8.679688 8.679687-8.679688 8.675781 3.886719 8.675781 8.679688zm0 0" fill="#fff"/><path d="m374.199219 321.085938c.015625 2.058593-.101563 4.117187-.347657 6.160156v.171875c-.148437 1.632812-.378906 3.253906-.695312 4.863281-.015625.324219-.074219.644531-.171875.953125v.085937c-6.214844 30.601563-34.617187 51.507813-65.679687 48.347657-31.066407-3.160157-54.675782-29.359375-54.597657-60.582031.074219 31.222656-23.53125 57.421874-54.597656 60.582031-31.066406 3.160156-59.464844-17.746094-65.679687-48.347657v-.085937c-.421876-1.917969-.710938-3.859375-.867188-5.816406v-.171875c-.464844-4.09375-.464844-8.226563 0-12.324219v-.171875c.15625-1.957031.445312-3.898438.867188-5.8125v-.089844c.433593-1.996094.953124-3.902344 1.476562-5.8125 11.628906-39.226562 60.398438-68.730468 118.800781-68.730468 58.402344 0 107.171875 29.503906 118.800781 68.730468.519532 1.910156 1.042969 3.816406 1.476563 5.8125v.089844c.097656.308594.15625.628906.171875.953125.316406 1.605469.546875 3.226563.695312 4.859375v.171875c.246094 2.046875.363282 4.105469.347657 6.164063zm0 0" fill="#e6e7e8"/><path d="m296.097656 286.371094c0 12.757812-19.441406 34.714844-43.390625 34.714844-23.953125 0-43.390625-21.957032-43.390625-34.714844.011719-1.515625.304688-3.015625.867188-4.425782 4.078125-9.371093 21.523437-12.929687 42.523437-12.929687 23.949219 0 43.390625 4.601563 43.390625 17.355469zm0 0" fill="#2c2f38"/><path d="m261.382812 286.371094c0-4.789063-7.769531-8.675782-17.355468-8.675782-9.585938 0-17.355469 3.886719-17.355469 8.675782 0 4.792968 7.769531 8.679687 17.355469 8.679687 9.585937 0 17.355468-3.886719 17.355468-8.679687zm0 0" fill="#2c3e50"/><path d="m269.65625 21.519531 40.066406-16.746093c5.078125-1.769532 10.710938-.851563 14.964844 2.441406 4.253906 3.289062 6.558594 8.511718 6.121094 13.871094v36.621093c.4375 5.363281-1.867188 10.582031-6.121094 13.875s-9.886719 4.210938-14.964844 2.441407l-40.066406-16.75h-33.898438l-40.066406 16.75c-5.078125 1.769531-10.710937.851562-14.964844-2.441407-4.257812-3.292969-6.558593-8.511719-6.121093-13.875v-36.621093c-.4375-5.359376 1.863281-10.582032 6.121093-13.871094 4.253907-3.292969 9.886719-4.210938 14.964844-2.441406l40.066406 16.746093zm0 0" fill="#df4d60"/><path d="m278.742188 39.398438c0 14.378906-11.65625 26.035156-26.035157 26.035156-14.378906 0-26.035156-11.65625-26.035156-26.035156 0-14.378907 11.65625-26.035157 26.035156-26.035157 14.378907 0 26.035157 11.65625 26.035157 26.035157zm0 0" fill="#fb7b76"/></svg>