<svg height="512pt" viewBox="-4 0 512 512.01086" width="512pt" xmlns="http://www.w3.org/2000/svg"><path d="m192.375 451.367188c5.554688 34.597656 29.941406 60.632812 59.273438 60.632812 29.328124 0 53.714843-26.035156 59.269531-60.746094" fill="#7f8c8d"/><path d="m408.285156 231.875c43.910156 13.796875 81.226563 58.75 91.984375 117.238281 14.320313 77.757813-23.691406 149.957031-84.957031 161.238281-40.613281 7.460938-81.3125-13.710937-108.300781-51.546874l-110.730469.085937c-26.988281 37.921875-67.601562 59.097656-108.300781 51.632813-61.265625-11.367188-99.277344-83.566407-84.957031-161.320313 10.761718-58.492187 48.164062-103.441406 92.074218-117.242187zm0 0" fill="#95a5a5"/><path d="m442.5625 147.527344c0-81.476563-85.476562-147.527344-190.914062-147.527344-105.441407 0-190.917969 66.050781-190.917969 147.527344 0 81.472656 85.476562 147.523437 190.917969 147.523437 105.4375 0 190.914062-66.050781 190.914062-147.523437zm0 0" fill="#bdc3c7"/><path d="m251.648438 265.71875c-12.871094 0-25.71875-.960938-38.445313-2.871094-23.316406-3.449218-45.96875-10.441406-67.175781-20.730468-2.789063-1.367188-4.640625-4.117188-4.851563-7.21875-.214843-3.097657 1.242188-6.074219 3.820313-7.808594s5.886718-1.960938 8.675781-.59375c19.613281 9.515625 40.566406 15.980468 62.136719 19.167968 23.726562 3.558594 47.855468 3.558594 71.582031 0 21.597656-3.183593 42.585937-9.644531 62.230469-19.167968 2.792968-1.445313 6.148437-1.269532 8.773437.464844 2.621094 1.734374 4.101563 4.75 3.867188 7.886718-.230469 3.136719-2.144531 5.898438-4.996094 7.222656-21.230469 10.3125-43.914063 17.3125-67.261719 20.75-12.695312 1.929688-25.515625 2.898438-38.355468 2.898438zm0 0" fill="#d1d4d1"/><path d="m353.4375 272.316406c7.355469 19.765625 11.085938 40.695313 11.023438 61.785156 0 53.542969-23.171876 100.230469-57.449219 124.703126-32.796875 24.613281-77.894531 24.648437-110.730469.085937-34.277344-24.558594-57.449219-71.246094-57.449219-124.789063-.0625-21.089843 3.667969-42.019531 11.023438-61.785156" fill="#bdc3c7"/><path d="m251.648438 485.964844c-4.792969 0-8.679688-3.882813-8.679688-8.675782v-34.710937c0-4.792969 3.886719-8.679687 8.679688-8.679687 4.789062 0 8.675781 3.886718 8.675781 8.679687v34.710937c0 4.792969-3.886719 8.675782-8.675781 8.675782zm0 0" fill="#7f8c8d"/><path d="m112.800781 112.8125c-3.199219 0-6.140625-1.765625-7.648437-4.585938-1.507813-2.824218-1.339844-6.246093.433594-8.90625 1.503906-2.257812 37.429687-55.304687 92.578124-64.496093 3.058594-.507813 6.15625.652343 8.125 3.046875 1.96875 2.394531 2.511719 5.660156 1.425782 8.5625-1.089844 2.902344-3.644532 5.003906-6.703125 5.511718-47.808594 7.96875-80.652344 56.511719-80.984375 56.996094-1.609375 2.421875-4.324219 3.875-7.226563 3.871094zm0 0" fill="#d1d4d1"/><path d="m60.730469 468.609375c-2.300781 0-4.507813-.914063-6.132813-2.542969-19.03125-18.984375-28.03125-63.304687-28.40625-65.144531-.617187-3.039063.429688-6.175781 2.75-8.234375 2.320313-2.054688 5.5625-2.714844 8.503906-1.734375 2.941407.984375 5.136719 3.460937 5.757813 6.496094 2.28125 11.371093 10.984375 43.632812 23.664063 56.3125 2.503906 2.480469 3.265624 6.226562 1.917968 9.484375-1.347656 3.257812-4.527344 5.378906-8.054687 5.363281zm0 0" fill="#bdc3c7"/><path d="m382.605469 156.949219 44.023437 44.554687c5.285156 5.324219 12.851563 7.714844 20.238282 6.398438 7.386718-1.320313 13.65625-6.179688 16.773437-13.003906l20.175781-43.804688c3.160156-6.808594 2.777344-14.730469-1.019531-21.203125-3.800781-6.46875-10.535156-10.664063-18.019531-11.21875l-62.480469-4.488281-45.039063-20.746094-43.996093-44.554688c-5.289063-5.324218-12.851563-7.714843-20.238281-6.398437-7.386719 1.316406-13.65625 6.179687-16.773438 13.003906l-20.175781 43.804688c-3.160157 6.800781-2.78125 14.71875 1.007812 21.1875 3.792969 6.46875 10.519531 10.667969 17.996094 11.234375l62.480469 4.484375zm0 0" fill="#ff5364"/><g fill="#3d324c"><path d="m182.222656 303.730469c-2.300781-.003907-4.507812-.917969-6.136718-2.542969l-8.675782-8.679688c-3.289062-3.40625-3.242187-8.816406.105469-12.164062s8.757813-3.394531 12.164063-.105469l8.679687 8.675781c2.480469 2.484376 3.222656 6.214844 1.878906 9.457032-1.34375 3.242187-4.507812 5.355468-8.015625 5.359375zm0 0"/><path d="m208.257812 295.050781c-4.792968 0-8.679687-3.886719-8.679687-8.679687v-8.675782c0-4.792968 3.886719-8.679687 8.679687-8.679687 4.792969 0 8.675782 3.886719 8.675782 8.679687v8.675782c0 4.792968-3.882813 8.679687-8.675782 8.679687zm0 0"/><path d="m321.070312 303.730469c-3.507812-.003907-6.671874-2.117188-8.015624-5.359375-1.34375-3.242188-.601563-6.972656 1.878906-9.457032l8.679687-8.675781c3.40625-3.289062 8.816407-3.242187 12.164063.105469s3.394531 8.757812.105468 12.164062l-8.675781 8.679688c-1.628906 1.625-3.835937 2.539062-6.136719 2.542969zm0 0"/><path d="m295.035156 295.050781c-4.792968 0-8.675781-3.886719-8.675781-8.679687v-8.675782c0-4.792968 3.882813-8.679687 8.675781-8.679687 4.792969 0 8.679688 3.886719 8.679688 8.679687v8.675782c0 4.792968-3.886719 8.679687-8.679688 8.679687zm0 0"/></g><path d="m295.035156 407.863281c0 12.757813-19.4375 34.714844-43.386718 34.714844-23.953126 0-43.390626-21.957031-43.390626-34.714844.007813-1.515625.304688-3.015625.867188-4.425781 4.078125-9.371094 21.519531-12.929688 42.523438-12.929688 23.949218 0 43.386718 4.601563 43.386718 17.355469zm0 0" fill="#2c2f38"/><path d="m251.648438 407.863281c0-4.792969-7.773438-8.675781-17.359376-8.675781-9.582031 0-17.355468 3.882812-17.355468 8.675781s7.773437 8.679688 17.355468 8.679688c9.585938 0 17.359376-3.886719 17.359376-8.679688zm0 0" fill="#35495e"/><path d="m234.289062 329.761719c0 14.378906-11.652343 26.035156-26.03125 26.035156-14.378906 0-26.035156-11.65625-26.035156-26.035156 0-14.378907 11.65625-26.03125 26.035156-26.03125 14.378907 0 26.03125 11.652343 26.03125 26.03125zm0 0" fill="#fff"/><path d="m225.613281 329.761719c0 9.585937-7.769531 17.355469-17.355469 17.355469-9.585937 0-17.355468-7.769532-17.355468-17.355469 0-9.585938 7.769531-17.355469 17.355468-17.355469 9.585938 0 17.355469 7.769531 17.355469 17.355469zm0 0" fill="#b0d3f0"/><path d="m208.257812 338.441406c-1.136718-.015625-2.253906-.25-3.296874-.695312-1.050782-.441406-2.019532-1.058594-2.867188-1.820313-1.582031-1.664062-2.480469-3.867187-2.515625-6.164062.015625-1.132813.25-2.253907.695313-3.296875.441406-1.050782 1.054687-2.019532 1.820312-2.863282.832031-.785156 1.804688-1.402343 2.867188-1.824218 1.582031-.691406 3.339843-.871094 5.03125-.519532.542968.09375 1.070312.269532 1.5625.519532.554687.191406 1.078124.453125 1.5625.78125.453124.320312.886718.667968 1.300781 1.042968.765625.84375 1.382812 1.8125 1.824219 2.863282.925781 2.101562.925781 4.496094 0 6.59375-.441407 1.050781-1.058594 2.019531-1.824219 2.867187l-1.300781 1.039063c-.484376.328125-1.007813.589844-1.5625.78125-.492188.25-1.019532.425781-1.5625.519531-.574219.101563-1.152344.160156-1.734376.175781zm0 0" fill="#2c2f38"/><path d="m208.257812 321.085938c0 4.792968-3.886718 8.675781-8.679687 8.675781s-8.675781-3.882813-8.675781-8.675781c0-4.792969 3.882812-8.679688 8.675781-8.679688s8.679687 3.886719 8.679687 8.679688zm0 0" fill="#fff"/><path d="m321.070312 329.761719c0 14.378906-11.65625 26.035156-26.035156 26.035156-14.375 0-26.03125-11.65625-26.03125-26.035156 0-14.378907 11.65625-26.03125 26.03125-26.03125 14.378906 0 26.035156 11.652343 26.035156 26.03125zm0 0" fill="#fff"/><path d="m312.390625 329.761719c0 9.585937-7.769531 17.355469-17.355469 17.355469-9.585937 0-17.355468-7.769532-17.355468-17.355469 0-9.585938 7.769531-17.355469 17.355468-17.355469 9.585938 0 17.355469 7.769531 17.355469 17.355469zm0 0" fill="#b0d3f0"/><path d="m295.035156 338.441406c-1.132812-.015625-2.253906-.25-3.296875-.695312-1.050781-.441406-2.019531-1.058594-2.863281-1.820313-1.585938-1.664062-2.484375-3.867187-2.515625-6.164062.011719-1.132813.25-2.253907.695313-3.296875.4375-1.050782 1.054687-2.019532 1.820312-2.863282.828125-.785156 1.800781-1.402343 2.863281-1.824218 1.582031-.691406 3.34375-.871094 5.035157-.519532.542968.09375 1.070312.269532 1.5625.519532.550781.191406 1.078124.453125 1.558593.78125.457031.320312.890625.667968 1.304688 1.042968.761719.84375 1.378906 1.8125 1.820312 2.863282.925781 2.101562.925781 4.496094 0 6.59375-.441406 1.050781-1.058593 2.019531-1.820312 2.867187l-1.304688 1.039063c-.480469.328125-1.007812.589844-1.558593.78125-.496094.25-1.019532.425781-1.5625.519531-.574219.101563-1.15625.160156-1.738282.175781zm0 0" fill="#2c2f38"/><path d="m295.035156 321.085938c0 4.792968-3.882812 8.675781-8.675781 8.675781s-8.679687-3.882813-8.679687-8.675781c0-4.792969 3.886718-8.679688 8.679687-8.679688s8.675781 3.886719 8.675781 8.679688zm0 0" fill="#fff"/><path d="m384.277344 94.058594c17.199218 7.921875 24.722656 28.289062 16.800781 45.488281s-28.285156 24.71875-45.484375 16.796875c-17.199219-7.917969-24.722656-28.285156-16.800781-45.484375s28.285156-24.71875 45.484375-16.800781zm0 0" fill="#fb7b76"/></svg>