<svg height="512pt" viewBox="0 -13 512.03072 512" width="512pt" xmlns="http://www.w3.org/2000/svg"><path d="m68.070312 351.617188c-67.902343-28.363282-69.488281-62.058594-67.671874-73.699219.519531-2.5625 2.175781-4.746094 4.503906-5.933594 38.496094-22.289063 6.082031-132.191406 31.65625-183.691406 13.644531-30.03125 47.53125-45.175781 79.003906-35.3125 0 0 26.308594-52.964844 140.449219-52.964844s140.445312 52.964844 140.445312 52.964844c31.472657-9.863281 65.363281 5.28125 79.007813 35.3125 25.601562 51.5-6.839844 161.402343 31.664062 183.683593 2.328125 1.1875 3.984375 3.371094 4.503906 5.929688 1.816407 11.6875.226563 45.339844-67.671874 73.703125l-114.859376 98.964844c-12.003906 20.570312-40.253906 34.957031-73.089843 34.957031-32.839844 0-61.085938-14.386719-73.09375-34.957031zm0 0" fill="#b19046"/><path d="m438.273438 290.644531c-.996094-2.617187-1.644532-5.359375-1.921876-8.144531 19.136719-37.546875 13.617188-94.640625 6.335938-133.667969-2.410156-12.90625-9.625-24.414062-20.1875-32.203125-10.988281-7.425781-17.285156-20.0625-16.597656-33.308594.117187-1.277343.175781-2.5625.175781-3.855468 0-43.882813-67.183594-79.449219-150.066406-79.449219-82.882813 0-150.070313 35.566406-150.070313 79.449219 0 1.289062.0625 2.570312.1875 3.847656.6875 13.25-5.613281 25.890625-16.605468 33.316406-10.566407 7.789063-17.785157 19.296875-20.199219 32.203125-7.289063 39.027344-12.816407 96.121094 6.332031 133.667969-.28125 2.785156-.929688 5.527344-1.925781 8.144531-1.546875 7.195313-2.789063 14.460938-3.761719 21.753907-6.117188 46.015624-1.101562 99.863281 44.09375 125.6875 22.078125 12.160156 47.65625 16.398437 72.476562 12.003906 26.941407-4.574219 47.316407-20.71875 69.472657-35.179688 22.148437 14.453125 42.523437 30.605469 69.464843 35.171875 24.820313 4.390625 50.394532.15625 72.472657-12.007812 45.207031-25.8125 50.210937-79.660157 44.085937-125.667969-.972656-7.300781-2.207031-14.566406-3.761718-21.761719zm0 0" fill="#f3d55b"/><path d="m300.148438 373.714844c-3.421876 22.28125-21.671876 39.316406-44.136719 41.195312-22.46875-1.878906-40.714844-18.914062-44.140625-41.195312.007812-1.804688.304687-3.59375.882812-5.296875 4.152344-11.078125 21.894532-15.300781 43.257813-15.300781 24.363281 0 44.136719 5.457031 44.136719 20.597656zm0 0" fill="#2c2f38"/><path d="m123.597656 256.015625c-4.875 0-8.828125-3.953125-8.828125-8.828125-.277343-9.445312 3.355469-18.589844 10.039063-25.273438 6.683594-6.679687 15.824218-10.3125 25.269531-10.035156 4.878906 0 8.828125 3.949219 8.828125 8.824219 0 4.878906-3.949219 8.828125-8.828125 8.828125-4.769531-.304688-9.4375 1.457031-12.820313 4.835938-3.378906 3.378906-5.140624 8.050781-4.832031 12.820312 0 4.875-3.953125 8.828125-8.828125 8.828125zm0 0" fill="#b19046"/><path d="m388.425781 256.015625c-4.855469 0-8.800781-3.921875-8.828125-8.773437.320313-4.78125-1.4375-9.464844-4.816406-12.855469-3.382812-3.390625-8.058594-5.160157-12.839844-4.855469-4.875 0-8.828125-3.949219-8.828125-8.828125 0-4.875 3.953125-8.824219 8.828125-8.824219 9.449219-.277344 18.589844 3.355469 25.273438 10.035156 6.683594 6.683594 10.3125 15.828126 10.039062 25.273438 0 2.339844-.929687 4.585938-2.585937 6.242188s-3.902344 2.585937-6.242188 2.585937zm0 0" fill="#b19046"/><path d="m264.839844 370.773438c0-4.875-7.90625-8.828126-17.65625-8.828126s-17.65625 3.953126-17.65625 8.828126 7.90625 8.828124 17.65625 8.828124 17.65625-3.953124 17.65625-8.828124zm0 0" fill="#35495e"/><path d="m203.046875 282.5c0 14.625-11.859375 26.480469-26.484375 26.480469s-26.484375-11.855469-26.484375-26.480469c0-14.628906 11.859375-26.484375 26.484375-26.484375s26.484375 11.855469 26.484375 26.484375zm0 0" fill="#fff"/><path d="m194.21875 282.5c0 9.75-7.90625 17.652344-17.65625 17.652344s-17.65625-7.902344-17.65625-17.652344c0-9.753906 7.90625-17.65625 17.65625-17.65625s17.65625 7.902344 17.65625 17.65625zm0 0" fill="#804537"/><path d="m176.5625 291.324219c-1.152344-.011719-2.292969-.253907-3.355469-.703125-1.066406-.449219-2.050781-1.078125-2.910156-1.855469-1.613281-1.691406-2.527344-3.929687-2.5625-6.265625.015625-1.15625.253906-2.296875.707031-3.355469.449219-1.070312 1.074219-2.054687 1.855469-2.914062.839844-.796875 1.832031-1.429688 2.910156-1.855469 1.613281-.703125 3.402344-.886719 5.121094-.527344.554687.09375 1.089844.273438 1.589844.527344.5625.195312 1.097656.460938 1.589843.796875.460938.324219.902344.679687 1.324219 1.058594.777344.859375 1.402344 1.84375 1.851563 2.914062.941406 2.136719.941406 4.570313 0 6.707031-.449219 1.070313-1.074219 2.054688-1.851563 2.914063l-1.324219 1.058594c-.492187.335937-1.027343.601562-1.589843.796875-.5.25-1.039063.429687-1.589844.527344-.582031.101562-1.171875.160156-1.765625.175781zm0 0" fill="#2c2f38"/><path d="m176.5625 273.671875c0 4.875-3.953125 8.828125-8.828125 8.828125s-8.828125-3.953125-8.828125-8.828125 3.953125-8.828125 8.828125-8.828125 8.828125 3.953125 8.828125 8.828125zm0 0" fill="#fff"/><path d="m361.941406 282.5c0 14.625-11.855468 26.480469-26.480468 26.480469-14.628907 0-26.484376-11.855469-26.484376-26.480469 0-14.628906 11.855469-26.484375 26.484376-26.484375 14.625 0 26.480468 11.855469 26.480468 26.484375zm0 0" fill="#fff"/><path d="m353.113281 282.5c0 9.75-7.902343 17.652344-17.652343 17.652344-9.753907 0-17.65625-7.902344-17.65625-17.652344 0-9.753906 7.902343-17.65625 17.65625-17.65625 9.75 0 17.652343 7.902344 17.652343 17.65625zm0 0" fill="#804537"/><path d="m335.460938 291.324219c-1.15625-.011719-2.296876-.253907-3.355469-.703125-1.070313-.449219-2.054688-1.078125-2.914063-1.855469-1.613281-1.691406-2.527344-3.929687-2.558594-6.265625.011719-1.15625.253907-2.296875.703126-3.355469.449218-1.070312 1.078124-2.054687 1.855468-2.914062.84375-.796875 1.832032-1.429688 2.914063-1.855469 1.609375-.703125 3.398437-.886719 5.121093-.527344.550782.09375 1.085938.273438 1.585938.527344.5625.195312 1.097656.460938 1.589844.796875.460937.324219.90625.679687 1.324218 1.058594.777344.859375 1.40625 1.84375 1.855469 2.914062.941407 2.136719.941407 4.570313 0 6.707031-.449219 1.070313-1.078125 2.054688-1.855469 2.914063l-1.324218 1.058594c-.492188.335937-1.027344.601562-1.589844.796875-.5.25-1.035156.429687-1.585938.527344-.585937.101562-1.175781.160156-1.765624.175781zm0 0" fill="#2c2f38"/><path d="m335.460938 273.671875c0 4.875-3.953126 8.828125-8.828126 8.828125s-8.828124-3.953125-8.828124-8.828125 3.953124-8.828125 8.828124-8.828125 8.828126 3.953125 8.828126 8.828125zm0 0" fill="#fff"/></svg>