<svg height="511pt" viewBox="0 0 511.99867 511" width="511pt" xmlns="http://www.w3.org/2000/svg"><path d="m300.167969 433.050781v35.3125c-.007813 4.734375-.753907 9.4375-2.207031 13.945313-6.035157 18.03125-22.917969 30.183594-41.933594 30.183594-19.011719 0-35.894532-12.152344-41.929688-30.183594-1.453125-4.507813-2.199218-9.210938-2.207031-13.945313v-35.3125l44.136719-35.308593zm0 0" fill="#ff5364"/><path d="m256.027344 468.363281c-4.875 0-8.824219-3.953125-8.824219-8.828125v-44.140625c0-4.875 3.949219-8.828125 8.824219-8.828125 4.878906 0 8.828125 3.953125 8.828125 8.828125v44.140625c0 4.875-3.949219 8.828125-8.828125 8.828125zm0 0" fill="#cc4b4c"/><path d="m443.96875 352.101562-114.847656 98.957032c-1.234375-.085938-2.382813-.351563-3.617188-.527344-26.925781-4.503906-47.316406-20.65625-69.476562-35.136719-22.15625 14.480469-42.546875 30.632813-69.472656 35.136719-1.234376.175781-2.382813.441406-3.617188.527344l-114.847656-98.957032c-67.882813-28.335937-69.472656-62.058593-67.707032-73.710937.539063-2.542969 2.191407-4.714844 4.5-5.914063 38.578126-22.332031 6.09375-132.238281 31.691407-183.703124 13.382812-29.824219 46.84375-45.0625 78.125-35.574219l.882812.265625c3.128907-5.4375 7.125-10.328125 11.828125-14.476563.175782-.175781.441406-.355469.617188-.53125 15.625-14.566406 48.730468-34.78125 112.640625-37.515625 5.03125-.265625 10.152343-.441406 15.359375-.441406 5.210937 0 10.328125.175781 15.363281.441406 48.109375 2.03125 78.742187 14.035156 97.632813 26.039063 5.332031 3.375 10.355468 7.214843 15.003906 11.476562.179687.175781.441406.355469.621094.53125 4.703124 4.148438 8.699218 9.039063 11.828124 14.476563l.882813-.265625c31.28125-9.488281 64.742187 5.75 78.125 35.574219 25.597656 51.464843-6.886719 161.371093 31.601563 183.703124 2.332031 1.171876 3.996093 3.355469 4.5 5.914063 1.855468 11.652344.265624 45.375-67.617188 73.710937zm0 0" fill="#b19046"/><path d="m442.027344 312.90625c1.800781 12.984375 2.449218 26.097656 1.941406 39.195312-1.675781 34.429688-13.242188 67.796876-45.992188 86.421876-20.9375 11.667968-45.148437 16.078124-68.855468 12.535156-1.234375-.085938-2.382813-.351563-3.617188-.527344-26.925781-4.503906-47.316406-20.65625-69.476562-35.136719-22.15625 14.480469-42.546875 30.632813-69.472656 35.136719-1.234376.175781-2.382813.441406-3.617188.527344-23.707031 3.542968-47.917969-.867188-68.855469-12.535156-32.75-18.625-44.316406-51.992188-45.992187-86.421876-.511719-13.097656.140625-26.210937 1.941406-39.195312.972656-7.324219 2.207031-14.5625 3.707031-21.804688 1.019531-2.601562 1.675781-5.335937 1.941407-8.121093-19.152344-37.515625-13.59375-94.628907-6.355469-133.648438 2.417969-12.910156 9.640625-24.425781 20.214843-32.21875 10.980469-7.421875 17.277344-20.046875 16.597657-33.28125-.089844-1.324219-.175781-2.558593-.175781-3.882812.148437-9.59375 3.195312-18.917969 8.738281-26.75 3.597656-5.273438 7.871093-10.050781 12.710937-14.210938.175782-.175781.441406-.355469.617188-.53125 23.835937-20.566406 64.972656-34.957031 112.640625-37.515625 5.03125-.265625 10.152343-.441406 15.359375-.441406 5.210937 0 10.328125.175781 15.363281.441406 47.667969 2.558594 88.804687 16.949219 112.636719 37.515625.179687.175781.441406.355469.621094.53125 4.839843 4.160157 9.113281 8.9375 12.710937 14.210938 5.542969 7.832031 8.589844 17.15625 8.738281 26.75 0 1.324219-.089844 2.558593-.175781 3.882812-.679687 13.234375 5.617187 25.859375 16.59375 33.28125 10.578125 7.792969 17.800781 19.308594 20.21875 32.21875 7.238281 39.019531 12.796875 96.132813-6.359375 133.648438.269531 2.785156.921875 5.519531 1.945312 8.121093 1.5 7.242188 2.734376 14.480469 3.707032 21.804688zm0 0" fill="#f3d55b"/><path d="m300.167969 374.199219c-3.421875 22.28125-21.671875 39.316406-44.140625 41.195312-22.464844-1.878906-40.714844-18.914062-44.136719-41.195312.003906-1.804688.304687-3.59375.882813-5.296875 4.148437-11.078125 21.894531-15.300782 43.253906-15.300782 24.367187 0 44.140625 5.457032 44.140625 20.597657zm0 0" fill="#2c2f38"/><path d="m264.855469 371.257812c0-4.875-7.902344-8.828124-17.652344-8.828124-9.753906 0-17.65625 3.953124-17.65625 8.828124s7.902344 8.828126 17.65625 8.828126c9.75 0 17.652344-3.953126 17.652344-8.828126zm0 0" fill="#35495e"/><path d="m123.613281 163.808594c-4.875 0-8.824219-3.949219-8.824219-8.828125-.277343-9.445313 3.355469-18.589844 10.035157-25.269531 6.683593-6.683594 15.828125-10.316407 25.273437-10.039063 4.875 0 8.828125 3.953125 8.828125 8.828125s-3.953125 8.828125-8.828125 8.828125c-4.769531-.308594-9.441406 1.453125-12.820312 4.832031s-5.140625 8.050782-4.835938 12.820313c0 4.878906-3.949218 8.828125-8.828125 8.828125zm0 0" fill="#b19046"/><path d="m388.441406 163.808594c-4.851562 0-8.796875-3.917969-8.828125-8.773438.320313-4.777344-1.4375-9.460937-4.816406-12.851562-3.382813-3.390625-8.058594-5.160156-12.835937-4.855469-4.875 0-8.828126-3.953125-8.828126-8.828125s3.953126-8.828125 8.828126-8.828125c9.445312-.277344 18.589843 3.355469 25.273437 10.039063 6.679687 6.679687 10.3125 15.824218 10.035156 25.269531 0 4.878906-3.953125 8.828125-8.828125 8.828125zm0 0" fill="#b19046"/><g fill-rule="evenodd"><path d="m176.582031 213.597656c11.148438-22.800781 33.445313-22.800781 44.605469-11.398437 11.15625 11.40625 11.148438 34.199219 0 57-8.3125 14.960937-19.871094 27.863281-33.828125 37.765625-6.351563 4.890625-15.199219 4.890625-21.546875 0-13.957031-9.902344-25.515625-22.804688-33.828125-37.765625-11.148437-22.800781-11.148437-45.601563 0-57 11.148437-11.394531 33.445313-11.402344 44.597656 11.398437zm0 0" fill="#ff5364"/><path d="m156.746094 210.128906c2.195312 4.324219-1.316406 10.476563-7.847656 13.753906-6.535157 3.273438-13.605469 2.417969-15.800782-1.90625-2.199218-4.328124 1.3125-10.480468 7.847656-13.753906 6.53125-3.277344 13.566407-2.421875 15.800782 1.90625zm0 0" fill="#fb7b76"/><path d="m209.710938 210.128906c2.199218 4.324219-1.316407 10.476563-7.847657 13.753906-6.53125 3.273438-13.605469 2.417969-15.800781-1.90625-2.199219-4.328124 1.3125-10.480468 7.847656-13.753906 6.53125-3.277344 13.566406-2.421875 15.800782 1.90625zm0 0" fill="#fb7b76"/><path d="m335.476562 213.597656c11.148438-22.800781 33.449219-22.800781 44.605469-11.398437 11.160157 11.40625 11.148438 34.199219 0 57-8.3125 14.960937-19.871093 27.863281-33.828125 37.765625-6.347656 4.890625-15.195312 4.890625-21.546875 0-13.957031-9.902344-25.515625-22.804688-33.828125-37.765625-11.148437-22.800781-11.148437-45.601563 0-57 11.152344-11.394531 33.449219-11.402344 44.597656 11.398437zm0 0" fill="#ff5364"/><path d="m315.640625 210.128906c2.199219 4.324219-1.3125 10.476563-7.847656 13.753906-6.53125 3.273438-13.601563 2.417969-15.800781-1.90625-2.199219-4.328124 1.316406-10.480468 7.847656-13.753906 6.53125-3.277344 13.570312-2.421875 15.800781 1.90625zm0 0" fill="#fb7b76"/><path d="m368.605469 210.128906c2.199219 4.324219-1.3125 10.476563-7.847657 13.753906-6.53125 3.273438-13.601562 2.417969-15.800781-1.90625-2.195312-4.328124 1.316407-10.480468 7.847657-13.753906 6.535156-3.277344 13.570312-2.421875 15.800781 1.90625zm0 0" fill="#fb7b76"/></g></svg>