<svg height="512pt" viewBox="0 0 511 512" width="512pt" xmlns="http://www.w3.org/2000/svg"><path d="m434.726562 291.308594c134.53125-176.550782 53.671876-291.308594 53.671876-291.308594s-113.082032 18.097656-160.75 162.339844h-142.300782c-47.671875-144.242188-160.75-162.339844-160.75-162.339844s-80.863281 114.757812 53.671875 291.308594zm0 0" fill="#7f5b53"/><path d="m416.097656 257.148438c73.625-102.84375 63.824219-168.695313 52.261719-204.183594-29.308594 12.976562-82.804687 53.847656-111.226563 131.003906h-201.269531c-28.425781-77.15625-81.921875-118.027344-111.230469-131.003906-11.5625 35.488281-21.359374 101.339844 52.261719 204.183594zm0 0" fill="#c2615f"/><path d="m450.703125 366.34375c0 80.445312-86.953125 145.65625-194.207031 145.65625s-194.207032-65.210938-194.207032-145.65625 86.953126-225.101562 194.207032-225.101562 194.207031 144.65625 194.207031 225.101562zm0 0" fill="#af8066"/><path d="m423.957031 440.144531c-33.722656 42.988281-96.132812 71.855469-167.460937 71.855469s-133.738282-28.867188-167.457032-71.855469c13.769532-78.214843 123.320313-78.214843 123.320313-78.214843h.175781c-.320312 6.324218 2.445313 12.410156 7.414063 16.332031 11.179687 8.09375 23.496093 14.488281 36.546875 18.980469h.089844c13.050781-4.492188 25.367187-10.886719 36.546874-18.980469 4.984376-3.90625 7.753907-10.003907 7.414063-16.332031h.085937s109.550782 0 123.324219 78.214843zm0 0" fill="#d1d4d1"/><path d="m185.875 220.691406c-3.058594-.003906-5.898438-1.585937-7.503906-4.191406-1.609375-2.601562-1.753906-5.847656-.386719-8.582031 6.460937-13.246094 19.652344-21.894531 34.375-22.539063 4.875-.023437 8.847656 3.910156 8.871094 8.785156.023437 4.875-3.90625 8.847657-8.785157 8.871094-8.058593.609375-15.179687 5.480469-18.667968 12.773438-1.496094 2.992187-4.554688 4.882812-7.902344 4.882812zm0 0" fill="#59474e"/><path d="m327.117188 220.691406c-3.363282.015625-6.441407-1.875-7.945313-4.882812-3.410156-7.300782-10.5-12.183594-18.539063-12.773438-4.875 0-8.824218-3.953125-8.824218-8.828125s3.949218-8.828125 8.824218-8.828125c14.726563.644532 27.921876 9.289063 34.386719 22.539063 1.367188 2.734375 1.21875 5.984375-.390625 8.585937-1.609375 2.605469-4.453125 4.1875-7.511718 4.1875zm0 0" fill="#59474e"/><g fill="#2c3e50"><path d="m206.355469 469.523438c-12.203125-1.054688-23.941407-5.160157-34.144531-11.9375-4.082032-2.664063-5.234376-8.132813-2.570313-12.214844 2.664063-4.085938 8.136719-5.234375 12.21875-2.570313 7.390625 4.800781 21.265625 10.894531 27.585937 8.640625 1.121094-.386718 2.402344-1.179687 3.355469-4.03125 5.171875-15.957031 18.464844-27.941406 34.867188-31.4375v-18.730468c0-4.875 3.953125-8.828126 8.828125-8.828126s8.828125 3.953126 8.828125 8.828126v26.480468c0 4.875-3.953125 8.828125-8.828125 8.828125-12.359375.542969-23.089844 8.6875-26.941406 20.445313-2.046876 7.058594-7.378907 12.691406-14.308594 15.128906-2.867188.960938-5.871094 1.429688-8.890625 1.398438zm0 0"/><path d="m306.636719 469.523438c-3.019531.03125-6.023438-.4375-8.890625-1.398438-6.929688-2.4375-12.257813-8.070312-14.308594-15.128906-3.84375-11.761719-14.578125-19.90625-26.941406-20.445313-4.875 0-8.828125-3.953125-8.828125-8.828125v-26.480468c0-4.875 3.953125-8.828126 8.828125-8.828126s8.828125 3.953126 8.828125 8.828126v18.730468c16.40625 3.5 29.699219 15.488282 34.867187 31.445313.957032 2.851562 2.234375 3.644531 3.355469 4.035156 6.320313 2.230469 20.199219-3.851563 27.585937-8.644531 4.085938-2.664063 9.554688-1.511719 12.21875 2.570312 2.664063 4.082032 1.515626 9.550782-2.570312 12.214844-10.203125 6.773438-21.941406 10.875-34.144531 11.929688zm0 0"/><path d="m256.59375 344.328125c15.078125 0 27.367188-1.191406 37.773438 7.308594 9.585937 7.8125 7.371093 18.925781-1.199219 26.632812-11.1875 8.097657-23.511719 14.492188-36.574219 18.972657h-.097656c-13.0625-4.480469-25.386719-10.875-36.570313-18.972657-8.574219-7.707031-10.789062-18.820312-1.203125-26.632812 10.417969-8.492188 22.695313-7.308594 37.773438-7.308594"/></g><path d="m265.324219 361.929688c0-4.875-7.90625-8.828126-17.65625-8.828126s-17.652344 3.953126-17.652344 8.828126 7.902344 8.828124 17.652344 8.828124 17.65625-3.953124 17.65625-8.828124zm0 0" fill="#35495e"/><path d="m212.359375 282.484375c0 19.5-15.808594 35.308594-35.3125 35.308594-19.5 0-35.308594-15.808594-35.308594-35.308594 0-19.503906 15.808594-35.3125 35.308594-35.3125 19.503906 0 35.3125 15.808594 35.3125 35.3125zm0 0" fill="#d1d4d1"/><path d="m200.589844 282.484375c0 13-10.539063 23.542969-23.542969 23.542969-13 0-23.542969-10.542969-23.542969-23.542969 0-13.003906 10.542969-23.542969 23.542969-23.542969 13.003906 0 23.542969 10.539063 23.542969 23.542969zm0 0" fill="#e4c05c"/><path d="m188.816406 282.484375c0 6.496094-5.269531 11.765625-11.769531 11.765625-6.496094 0-11.765625-5.269531-11.765625-11.765625 0-6.5 5.269531-11.769531 11.765625-11.769531 6.5 0 11.769531 5.269531 11.769531 11.769531zm0 0" fill="#2c2f38"/><path d="m177.046875 270.714844c0 6.5-5.265625 11.769531-11.765625 11.769531s-11.765625-5.269531-11.765625-11.769531 5.265625-11.765625 11.765625-11.765625 11.765625 5.265625 11.765625 11.765625zm0 0" fill="#fff"/><path d="m371.253906 282.484375c0 19.5-15.808594 35.308594-35.308594 35.308594s-35.3125-15.808594-35.3125-35.308594c0-19.503906 15.8125-35.3125 35.3125-35.3125s35.308594 15.808594 35.308594 35.3125zm0 0" fill="#d1d4d1"/><path d="m359.488281 282.484375c0 13-10.539062 23.542969-23.542969 23.542969-13.003906 0-23.542968-10.542969-23.542968-23.542969 0-13.003906 10.539062-23.542969 23.542968-23.542969 13.003907 0 23.542969 10.539063 23.542969 23.542969zm0 0" fill="#e4c05c"/><path d="m347.710938 282.484375c0 6.496094-5.265626 11.765625-11.765626 11.765625s-11.765624-5.269531-11.765624-11.765625c0-6.5 5.265624-11.769531 11.765624-11.769531s11.765626 5.269531 11.765626 11.769531zm0 0" fill="#2c2f38"/><path d="m335.945312 270.714844c0 6.5-5.269531 11.769531-11.765624 11.769531-6.5 0-11.769532-5.269531-11.769532-11.769531s5.269532-11.765625 11.769532-11.765625c6.496093 0 11.765624 5.265625 11.765624 11.765625zm0 0" fill="#fff"/><path d="m212.359375 317.792969h-70.621094c-4.875 0-8.828125-3.953125-8.828125-8.828125s3.953125-8.828125 8.828125-8.828125h70.621094c4.875 0 8.828125 3.953125 8.828125 8.828125s-3.953125 8.828125-8.828125 8.828125zm0 0" fill="#59474e"/><path d="m371.253906 317.792969h-70.621094c-4.875 0-8.824218-3.953125-8.824218-8.828125s3.949218-8.828125 8.824218-8.828125h70.621094c4.875 0 8.828125 3.953125 8.828125 8.828125s-3.953125 8.828125-8.828125 8.828125zm0 0" fill="#59474e"/></svg>