<svg height="512pt" viewBox="-21 0 512 512.03036" width="512pt" xmlns="http://www.w3.org/2000/svg"><path d="m234.882812 384.015625c0-7.3125-11.855468-13.242187-26.480468-13.242187s-26.484375 5.929687-26.484375 13.242187 11.859375 13.242187 26.484375 13.242187 26.480468-5.929687 26.480468-13.242187zm0 0" fill="#35495e"/><path d="m234.882812 470.984375s1.980469 58.933594 79.449219 35.550781c88.277344-26.660156 79.449219-213.265625 79.449219-239.925781-.839844-10.75 5.589844-20.742187 15.722656-24.433594 8.757813-3.117187 16.578125-8.414062 22.722656-15.386719 67.46875-81.480468 27.417969-181.300781 6.8125-217.8125-2.5-4.429687-6.785156-7.5625-11.761718-8.601562-4.980469-1.042969-10.164063.113281-14.226563 3.171875-54.640625 39.953125-98.71875 120.875-98.71875 120.875-21.210937-21.214844-49.496093-33.867187-79.449219-35.546875-29.949218 1.679688-58.234374 14.332031-79.445312 35.546875 0 0-44.078125-80.921875-98.71875-120.875-4.066406-3.054687-9.25-4.210937-14.226562-3.167969-4.976563 1.039063-9.265626 4.175782-11.761719 8.605469-20.605469 36.503906-60.671875 136.316406 6.8125 217.792969 6.144531 6.976562 13.964843 12.273437 22.722656 15.386718 10.136719 3.695313 16.566406 13.691407 15.722656 24.445313 0 26.660156-8.828125 213.265625 79.449219 239.925781 77.460938 23.390625 79.445312-35.550781 79.445312-35.550781zm0 0" fill="#e57e25"/><path d="m376.125 432.566406c-11.5625 35.222656-30.628906 64.53125-61.792969 73.976563-77.417969 23.394531-79.449219-35.574219-79.449219-35.574219s-2.027343 58.96875-79.445312 35.574219c-31.164062-9.445313-50.230469-38.753907-61.792969-73.976563 8.828125-52.964844 61.792969-44.136718 61.792969-44.136718l.617188.089843c1.414062-7.445312 5.152343-14.242187 10.679687-19.421875 18.804687-18.449218 40.871094-15.890625 68.0625-15.890625h.175781c27.1875 0 49.257813-2.558593 68.0625 15.890625 5.527344 5.179688 9.265625 11.976563 10.679688 19.421875l.617187-.089843s52.964844-8.828126 61.792969 44.136718zm0 0" fill="#f9eab0"/><path d="m120.125 229.453125c-1.398438.003906-2.777344-.332031-4.015625-.980469-4.28125-2.1875-6-7.410156-3.859375-11.714844 9.066406-14.976562 25.714844-23.664062 43.1875-22.535156 4.875 0 8.828125 3.953125 8.828125 8.828125s-3.953125 8.828125-8.828125 8.828125c-10.820312-1-21.332031 3.933594-27.472656 12.894532-1.558594 2.878906-4.566406 4.671874-7.839844 4.679687zm0 0" fill="#59474e"/><path d="m349.644531 229.53125c-3.308593.007812-6.339843-1.835938-7.859375-4.773438-6.148437-8.941406-16.644531-13.867187-27.453125-12.878906-4.875 0-8.828125-3.953125-8.828125-8.828125s3.953125-8.828125 8.828125-8.828125c17.480469-1.136718 34.140625 7.550782 43.210938 22.535156 1.367187 2.738282 1.222656 5.988282-.386719 8.589844-1.609375 2.605469-4.453125 4.1875-7.511719 4.183594zm0 0" fill="#59474e"/><path d="m287.320312 358.414062c-2.046874-12.164062-10.1875-52.964843-30.894531-81.554687-5-6.898437-13.003906-10.984375-21.523437-10.984375-8.519532 0-16.523438 4.085938-21.523438 10.984375-20.726562 28.554687-28.863281 69.390625-30.894531 81.554687" fill="#e6e7e8"/><path d="m105.738281 168.535156c-10.152343 28.601563-40.078125 45.285156-64.441406 60.644532l-.707031.792968c-1.066406-.992187-2.070313-2.054687-3-3.175781-67.53125-81.480469-27.457032-181.320313-6.886719-217.863281 2.253906-3.984375 6.003906-6.90625 10.414063-8.125 19.777343 32.222656 37.34375 65.238281 54.292968 98.957031 11.03125 21.71875 18.890625 44.757813 10.328125 68.769531zm0 0" fill="#f09372"/><path d="m432.179688 226.796875c-.929688 1.121094-1.933594 2.183594-3 3.175781l-.707032-.792968c-24.363281-15.359376-54.289062-32.042969-64.441406-60.644532-8.5625-24.011718-.707031-47.050781 10.328125-68.769531 16.949219-33.71875 34.515625-66.734375 54.289063-98.957031 4.414062 1.21875 8.164062 4.140625 10.417968 8.125 20.570313 36.542968 60.644532 136.382812-6.886718 217.863281zm0 0" fill="#f09372"/><path d="m234.964844 353.242188c27.171875 0 49.300781-2.578126 68.078125 15.828124 17.265625 16.933594 13.242187 41.003907-2.164063 57.707032-16.691406 18.042968-42.785156 28.980468-65.90625 41.101562h-.160156c-23.125-12.121094-49.210938-23.058594-65.90625-41.101562-15.449219-16.695313-19.417969-40.773438-2.160156-57.707032 18.773437-18.40625 40.90625-15.828124 68.078125-15.828124" fill="#2c2f38"/><path d="m190.746094 256.015625c0 14.625-11.855469 26.484375-26.480469 26.484375-14.628906 0-26.484375-11.859375-26.484375-26.484375s11.855469-26.484375 26.484375-26.484375c14.625 0 26.480469 11.859375 26.480469 26.484375zm0 0" fill="#fff"/><path d="m181.917969 256.015625c0 9.75-7.902344 17.65625-17.652344 17.65625-9.753906 0-17.65625-7.90625-17.65625-17.65625s7.902344-17.65625 17.65625-17.65625c9.75 0 17.652344 7.90625 17.652344 17.65625zm0 0" fill="#e4c05c"/><path d="m173.089844 256.015625c0 4.875-3.949219 8.828125-8.824219 8.828125-4.878906 0-8.828125-3.953125-8.828125-8.828125s3.949219-8.828125 8.828125-8.828125c4.875 0 8.824219 3.953125 8.824219 8.828125zm0 0" fill="#2c2f38"/><path d="m164.265625 247.1875c0 4.875-3.953125 8.828125-8.828125 8.828125s-8.828125-3.953125-8.828125-8.828125 3.953125-8.828125 8.828125-8.828125 8.828125 3.953125 8.828125 8.828125zm0 0" fill="#fff"/><path d="m331.988281 256.015625c0 14.625-11.855469 26.484375-26.484375 26.484375-14.625 0-26.480468-11.859375-26.480468-26.484375s11.855468-26.484375 26.480468-26.484375c14.628906 0 26.484375 11.859375 26.484375 26.484375zm0 0" fill="#fff"/><path d="m323.160156 256.015625c0 9.75-7.902344 17.65625-17.65625 17.65625-9.75 0-17.652344-7.90625-17.652344-17.65625s7.902344-17.65625 17.652344-17.65625c9.753906 0 17.65625 7.90625 17.65625 17.65625zm0 0" fill="#e4c05c"/><path d="m314.332031 256.015625c0 4.875-3.953125 8.828125-8.828125 8.828125s-8.828125-3.953125-8.828125-8.828125 3.953125-8.828125 8.828125-8.828125 8.828125 3.953125 8.828125 8.828125zm0 0" fill="#2c2f38"/><path d="m305.503906 247.1875c0 4.875-3.949218 8.828125-8.828125 8.828125-4.875 0-8.824219-3.953125-8.824219-8.828125s3.949219-8.828125 8.824219-8.828125c4.878907 0 8.828125 3.953125 8.828125 8.828125zm0 0" fill="#fff"/></svg>