<svg height="511pt" viewBox="0 -13 511.99735 511" width="511pt" xmlns="http://www.w3.org/2000/svg"><path d="m149.1875 39.550781c4.519531-12.570312-9.5625-24.238281-25.167969-20.777343-42.046875 9.320312-101.261719 27.53125-120.53125 58.632812-20.605469 33.226562 54.605469 129.023438 107.394531 189.578125 12.304688 14.125 39.804688 5.828125 37.472657-11.332031-8.878907-65.226563-17.65625-164.300782.832031-216.101563zm0 0" fill="#804537"/><path d="m362.8125 39.550781c-4.519531-12.570312 9.5625-24.238281 25.167969-20.777343 42.046875 9.328124 101.253906 27.53125 120.53125 58.632812 20.597656 33.234375-54.605469 129.03125-107.394531 189.578125-12.304688 14.125-39.804688 5.828125-37.472657-11.332031 8.878907-65.226563 17.652344-164.300782-.832031-216.101563zm0 0" fill="#804537"/><path d="m326.621094 450.707031s-8.828125 35.308594-70.621094 35.308594-70.621094-35.308594-70.621094-35.308594l70.621094-88.277343zm0 0" fill="#59474e"/><path d="m370.492188 385.027344c75.476562-36.722656 51.023437-112.550782 42.992187-132.414063l-51.554687-216.804687s-35.308594-35.308594-105.929688-35.308594-105.929688 35.308594-105.929688 35.308594l-51.554687 216.804687c-8.03125 19.863281-32.484375 95.78125 43.078125 132.414063zm0 0" fill="#cb8252"/><path d="m256 417.875c6.179688 18.273438 29.042969 28.335938 48.417969 31.734375 17.347656 3.039063 39.726562.132813 50.890625-13.371094 31.464844-38.011719 9.339844-92.320312-17.292969-127.117187-10.449219-13.65625-25.050781-24.972656-33.171875-40-6.214844-11.742188-10.71875-24.316406-13.367188-37.339844-6.117187-28.707031-4.042968-57.996094-8.632812-86.820312-8.949219-56.1875-26.84375-56.1875-26.84375-56.1875s-17.894531 0-26.84375 56.199218c-4.589844 28.8125-2.515625 58.101563-8.632812 86.816406-2.648438 13.023438-7.152344 25.597657-13.367188 37.34375-8.121094 15.003907-22.722656 26.339844-33.171875 39.996094-26.632813 34.789063-48.757813 89.105469-17.292969 127.117188 11.175782 13.507812 33.542969 16.410156 50.890625 13.375 19.375-3.410156 42.238281-13.472656 48.417969-31.746094zm0 0" fill="#d1d4d1"/><path d="m256 309.515625c12.074219 0 21.910156-1.191406 30.253906 7.3125 6.992188 7.652344 6.566406 19.5-.964844 26.632813-8.648437 7.894531-18.546874 14.304687-29.289062 18.96875-10.742188-4.664063-20.640625-11.074219-29.289062-18.96875-7.53125-7.132813-7.957032-18.980469-.964844-26.632813 8.34375-8.492187 18.1875-7.3125 30.253906-7.3125" fill="#2c3e50"/><path d="m256 443.113281c-4.875 0-8.828125-3.953125-8.828125-8.828125v-88.273437c0-4.875 3.953125-8.828125 8.828125-8.828125s8.828125 3.953125 8.828125 8.828125v88.273437c0 4.875-3.953125 8.828125-8.828125 8.828125zm0 0" fill="#2c3e50"/><path d="m176.550781 194.492188c-1.457031.003906-2.890625-.363282-4.164062-1.074219-4.128907-2.203125-5.761719-7.28125-3.691407-11.476563 1.113282-2.214844 12.191407-21.65625 57.792969-22.429687h.152344c4.875-.042969 8.859375 3.875 8.902344 8.75.039062 4.875-3.878907 8.863281-8.753907 8.902343-34.425781.582032-42.371093 12.90625-42.476562 13.03125-1.675781 2.671876-4.605469 4.296876-7.761719 4.296876zm0 0" fill="#804537"/><path d="m335.449219 194.707031c-3.34375.003907-6.402344-1.878906-7.902344-4.867187 0 0-8.164063-12.128906-42.308594-12.699219-2.34375-.042969-4.574219-1.007813-6.199219-2.691406-1.628906-1.683594-2.519531-3.945313-2.480468-6.289063-.035156-2.363281.910156-4.636718 2.613281-6.28125 1.699219-1.644531 4.003906-2.511718 6.363281-2.394531 45.605469.777344 56.683594 20.214844 57.796875 22.429687 1.375 2.734376 1.234375 5.988282-.375 8.59375-1.605469 2.609376-4.445312 4.195313-7.507812 4.199219zm0 0" fill="#804537"/><path d="m229.515625 243.257812c0 17.0625-13.832031 30.894532-30.894531 30.894532s-30.898438-13.832032-30.898438-30.894532 13.835938-30.898437 30.898438-30.898437 30.894531 13.835937 30.894531 30.898437zm0 0" fill="#d1d4d1"/><path d="m219.214844 243.257812c0 11.375-9.21875 20.59375-20.59375 20.59375s-20.59375-9.21875-20.59375-20.59375 9.21875-20.59375 20.59375-20.59375 20.59375 9.21875 20.59375 20.59375zm0 0" fill="#e4c05c"/><path d="m208.921875 243.257812c0 5.6875-4.613281 10.300782-10.300781 10.300782-5.691406 0-10.300782-4.613282-10.300782-10.300782 0-5.691406 4.609376-10.300781 10.300782-10.300781 5.6875 0 10.300781 4.609375 10.300781 10.300781zm0 0" fill="#2c2f38"/><path d="m198.621094 232.957031c0 5.6875-4.613282 10.300781-10.300782 10.300781-5.691406 0-10.304687-4.613281-10.304687-10.300781 0-5.691406 4.613281-10.304687 10.304687-10.304687 5.6875 0 10.300782 4.613281 10.300782 10.304687zm0 0" fill="#fff"/><path d="m344.277344 243.257812c0 17.0625-13.835938 30.894532-30.898438 30.894532s-30.894531-13.832032-30.894531-30.894532 13.832031-30.898437 30.894531-30.898437 30.898438 13.835937 30.898438 30.898437zm0 0" fill="#d1d4d1"/><path d="m333.972656 243.257812c0 11.375-9.21875 20.59375-20.59375 20.59375s-20.59375-9.21875-20.59375-20.59375 9.21875-20.59375 20.59375-20.59375 20.59375 9.21875 20.59375 20.59375zm0 0" fill="#e4c05c"/><path d="m323.679688 243.257812c0 5.6875-4.609376 10.300782-10.300782 10.300782-5.6875 0-10.300781-4.613282-10.300781-10.300782 0-5.691406 4.613281-10.300781 10.300781-10.300781 5.691406 0 10.300782 4.609375 10.300782 10.300781zm0 0" fill="#2c2f38"/><path d="m313.378906 232.957031c0 5.6875-4.613281 10.300781-10.300781 10.300781-5.691406 0-10.300781-4.613281-10.300781-10.300781 0-5.691406 4.609375-10.304687 10.300781-10.304687 5.6875 0 10.300781 4.613281 10.300781 10.304687zm0 0" fill="#fff"/></svg>