<svg height="512pt" viewBox="-4 0 512 512.01086" width="512pt" xmlns="http://www.w3.org/2000/svg"><path d="m192.375 451.367188c5.554688 34.597656 29.941406 60.632812 59.273438 60.632812 29.328124 0 53.714843-26.035156 59.269531-60.746094" fill="#7f8c8d"/><path d="m408.285156 231.875c43.910156 13.796875 81.226563 58.75 91.984375 117.238281 14.320313 77.757813-23.691406 149.957031-84.957031 161.238281-40.613281 7.460938-81.3125-13.710937-108.300781-51.546874l-110.730469.085937c-26.988281 37.921875-67.601562 59.097656-108.300781 51.632813-61.265625-11.367188-99.277344-83.566407-84.957031-161.320313 10.761718-58.492187 48.164062-103.441406 92.074218-117.242187zm0 0" fill="#95a5a5"/><path d="m442.5625 147.527344c0-81.476563-85.476562-147.527344-190.914062-147.527344-105.441407 0-190.917969 66.050781-190.917969 147.527344 0 81.472656 85.476562 147.523437 190.917969 147.523437 105.4375 0 190.914062-66.050781 190.914062-147.523437zm0 0" fill="#bdc3c7"/><path d="m251.648438 265.71875c-12.871094 0-25.71875-.960938-38.445313-2.871094-23.316406-3.449218-45.96875-10.441406-67.175781-20.730468-2.789063-1.367188-4.640625-4.117188-4.851563-7.21875-.214843-3.097657 1.242188-6.074219 3.820313-7.808594s5.886718-1.960938 8.675781-.59375c19.613281 9.515625 40.566406 15.980468 62.136719 19.167968 23.726562 3.558594 47.855468 3.558594 71.582031 0 21.597656-3.183593 42.585937-9.644531 62.230469-19.167968 2.792968-1.445313 6.148437-1.269532 8.773437.464844 2.621094 1.734374 4.101563 4.75 3.867188 7.886718-.230469 3.136719-2.144531 5.898438-4.996094 7.222656-21.230469 10.3125-43.914063 17.3125-67.261719 20.75-12.695312 1.929688-25.515625 2.898438-38.355468 2.898438zm0 0" fill="#d1d4d1"/><path d="m353.4375 272.316406c7.355469 19.765625 11.085938 40.695313 11.023438 61.785156 0 53.542969-23.171876 100.230469-57.449219 124.703126-32.796875 24.613281-77.894531 24.648437-110.730469.085937-34.277344-24.558594-57.449219-71.246094-57.449219-124.789063-.0625-21.089843 3.667969-42.019531 11.023438-61.785156" fill="#bdc3c7"/><path d="m251.648438 485.964844c-4.792969 0-8.679688-3.882813-8.679688-8.675782v-34.710937c0-4.792969 3.886719-8.679687 8.679688-8.679687 4.789062 0 8.675781 3.886718 8.675781 8.679687v34.710937c0 4.792969-3.886719 8.675782-8.675781 8.675782zm0 0" fill="#7f8c8d"/><path d="m112.800781 112.8125c-3.199219 0-6.140625-1.765625-7.648437-4.585938-1.507813-2.824218-1.339844-6.246093.433594-8.90625 1.503906-2.257812 37.429687-55.304687 92.578124-64.496093 3.058594-.507813 6.15625.652343 8.125 3.046875 1.96875 2.394531 2.511719 5.660156 1.425782 8.5625-1.089844 2.902344-3.644532 5.003906-6.703125 5.511718-47.808594 7.96875-80.652344 56.511719-80.984375 56.996094-1.609375 2.421875-4.324219 3.875-7.226563 3.871094zm0 0" fill="#d1d4d1"/><path d="m60.730469 468.609375c-2.300781 0-4.507813-.914063-6.132813-2.542969-19.03125-18.984375-28.03125-63.304687-28.40625-65.144531-.617187-3.039063.429688-6.175781 2.75-8.234375 2.320313-2.054688 5.5625-2.714844 8.503906-1.734375 2.941407.984375 5.136719 3.460937 5.757813 6.496094 2.28125 11.371093 10.984375 43.632812 23.664063 56.3125 2.503906 2.480469 3.265624 6.226562 1.917968 9.484375-1.347656 3.257812-4.527344 5.378906-8.054687 5.363281zm0 0" fill="#bdc3c7"/><path d="m295.035156 407.863281c0 12.757813-19.4375 34.714844-43.386718 34.714844-23.953126 0-43.390626-21.957031-43.390626-34.714844.007813-1.515625.304688-3.015625.867188-4.425781 4.078125-9.371094 21.519531-12.929688 42.523438-12.929688 23.949218 0 43.386718 4.601563 43.386718 17.355469zm0 0" fill="#2c2f38"/><path d="m251.648438 407.863281c0-4.792969-7.773438-8.675781-17.359376-8.675781-9.582031 0-17.355468 3.882812-17.355468 8.675781s7.773437 8.679688 17.355468 8.679688c9.585938 0 17.359376-3.886719 17.359376-8.679688zm0 0" fill="#35495e"/><path d="m161.605469 330.484375-22.832031 11.800781c-2.898438 1.507813-6.394532 1.265625-9.054688-.632812-2.65625-1.898438-4.027344-5.128906-3.539062-8.359375l4.339843-24.992188c.480469-2.773437-.457031-5.605469-2.5-7.546875l-18.472656-17.695312c-2.359375-2.265625-3.207031-5.6875-2.183594-8.792969 1.027344-3.105469 3.746094-5.34375 6.988281-5.761719l25.53125-3.644531c2.8125-.394531 5.25-2.136719 6.535157-4.667969l11.421875-22.734375c1.496094-2.921875 4.5-4.757812 7.78125-4.757812s6.289062 1.835937 7.785156 4.757812l11.421875 22.734375c1.28125 2.53125 3.722656 4.273438 6.53125 4.667969l25.574219 3.636719c3.246094.414062 5.964844 2.65625 6.988281 5.761718 1.027344 3.105469.179687 6.523438-2.179687 8.792969l-18.476563 17.691407c-2.039063 1.945312-2.976563 4.773437-2.496094 7.550781l4.335938 24.992187c.488281 3.230469-.878907 6.460938-3.535157 8.359375-2.660156 1.898438-6.160156 2.140625-9.054687.632813l-22.832031-11.804688c-2.535156-1.304687-5.546875-1.300781-8.078125.011719zm0 0" fill="#b49aca"/><path d="m333.644531 330.484375-22.832031 11.800781c-2.894531 1.507813-6.394531 1.265625-9.054688-.632812-2.65625-1.898438-4.023437-5.128906-3.535156-8.359375l4.335938-24.992188c.480468-2.773437-.457032-5.605469-2.496094-7.546875l-18.476562-17.695312c-2.359376-2.265625-3.207032-5.6875-2.179688-8.792969 1.023438-3.105469 3.742188-5.34375 6.988281-5.761719l25.53125-3.644531c2.808594-.394531 5.25-2.136719 6.53125-4.667969l11.421875-22.734375c1.496094-2.921875 4.503906-4.757812 7.785156-4.757812s6.285157 1.835937 7.78125 4.757812l11.421876 22.734375c1.285156 2.53125 3.722656 4.273438 6.535156 4.667969l25.53125 3.644531c3.242187.417969 5.960937 2.65625 6.988281 5.761719 1.023437 3.105469.175781 6.527344-2.183594 8.792969l-18.472656 17.695312c-2.042969 1.941406-2.980469 4.773438-2.5 7.546875l4.339844 24.992188c.484375 3.230469-.882813 6.460937-3.539063 8.359375-2.660156 1.898437-6.15625 2.140625-9.054687.632812l-22.832031-11.800781c-2.523438-1.292969-5.511719-1.292969-8.035157 0zm0 0" fill="#b49aca"/><g fill="#3d324c"><path d="m196.578125 351.960938c-2.800781-.003907-5.558594-.679688-8.046875-1.96875l-22.796875-11.792969-4.105469-7.714844 3.984375 7.714844-22.832031 11.792969c-5.886719 3.070312-13.007812 2.511718-18.34375-1.433594-5.28125-3.832032-7.910156-10.339844-6.777344-16.765625l4.335938-24.992188-18.414063-17.496093c-4.765625-4.507813-6.511719-11.355469-4.484375-17.597657 2.019532-6.3125 7.488282-10.902343 14.058594-11.800781l25.519531-3.65625 11.4375-22.691406c2.960938-5.863282 8.972657-9.558594 15.539063-9.558594s12.578125 3.695312 15.539062 9.558594l11.445313 22.738281 25.539062 3.609375c6.566407.898438 12.035157 5.488281 14.058594 11.800781 2.023437 6.238281.28125 13.085938-4.476563 17.597657l-18.476562 17.695312 4.417969 24.785156c1.132812 6.425782-1.5 12.933594-6.777344 16.765625-2.996094 2.21875-6.621094 3.414063-10.34375 3.410157zm-30.902344-110.617188-11.464843 22.734375c-2.566407 5.078125-7.453126 8.578125-13.085938 9.363281l-25.503906 3.65625 18.429687 17.355469c4.152344 3.945313 6.046875 9.710937 5.042969 15.351563l-4.339844 24.992187 22.894532-12.011719c5.03125-2.59375 11.003906-2.59375 16.035156 0l22.839844 11.792969-4.339844-24.773437c-.984375-5.632813.917968-11.386719 5.0625-15.328126l18.464844-17.648437-25.566407-3.351563c-5.601562-.804687-10.457031-4.289062-13.015625-9.335937zm0 0"/><path d="m368.617188 351.960938c-2.800782-.003907-5.558594-.679688-8.042969-1.96875l-22.832031-11.792969h-.113282l-22.832031 11.792969c-5.886719 3.070312-13.007813 2.511718-18.347656-1.433594-5.277344-3.832032-7.90625-10.339844-6.777344-16.765625l4.339844-24.992188-18.394531-17.476562c-4.765626-4.519531-6.507813-11.371094-4.480469-17.617188 2.023437-6.308593 7.492187-10.898437 14.058593-11.792969l25.523438-3.652343 11.417969-22.695313c2.96875-5.855468 8.972656-9.546875 15.539062-9.546875 6.566407 0 12.570313 3.691407 15.539063 9.546875l11.410156 22.738282 25.53125 3.609374c6.570312.894532 12.039062 5.484376 14.058594 11.800782 2.03125 6.238281.289062 13.085937-4.46875 17.601562l-18.484375 17.703125 4.417969 24.773438c1.136718 6.417969-1.488282 12.925781-6.761719 16.757812-2.984375 2.207031-6.589844 3.402344-10.300781 3.410157zm-30.902344-110.617188-11.4375 22.734375c-2.5625 5.074219-7.449219 8.574219-13.078125 9.363281l-25.503907 3.65625 18.433594 17.355469c4.128906 3.941406 6.023438 9.6875 5.046875 15.316406l-4.335937 24.992188 22.890625-12.011719c5.035156-2.597656 11.011719-2.597656 16.046875 0l22.832031 11.792969-4.339844-24.773438c-.976562-5.625.910157-11.363281 5.03125-15.308593l18.484375-17.703126-25.5625-3.339843c-5.609375-.8125-10.46875-4.304688-13.019531-9.363281zm0 0"/><path d="m217.308594 277.199219c-.390625 0-.785156-.027344-1.171875-.078125-2.28125-.308594-4.347657-1.507813-5.742188-3.339844s-2.003906-4.140625-1.695312-6.421875c3.097656-21.316406 21.410156-37.101563 42.949219-37.027344 11.429687-.015625 22.414062 4.449219 30.597656 12.433594 6.722656 6.605469 11.070312 15.25 12.367187 24.585937.449219 4.636719-2.84375 8.804688-7.460937 9.433594-4.617188.632813-8.910156-2.492187-9.722656-7.082031-.78125-5.535156-3.363282-10.65625-7.351563-14.570313-4.941406-4.785156-11.550781-7.457031-18.429687-7.445312-12.871094-.113281-23.859376 9.269531-25.765626 21.996094-.582031 4.296875-4.242187 7.503906-8.574218 7.515625zm0 0"/></g></svg>