<svg id="Layer_1" enable-background="new 0 0 512 512" height="512" viewBox="0 0 512 512" width="512" xmlns="http://www.w3.org/2000/svg"><path d="m512 192c0 32.25-1.04 46.72-27.2 81.6-28.33 37.773-21.117 103.1-63.5 103.1-22.571 0-34.13-17.297-38.59-39.33-16.951 23.316-14.055 37.206-15.15 44.91-1.119 30.18-52.742 81.72-111.56 81.72-58.777 0-110.44-51.521-111.56-81.72-1.121-7.887 1.835-21.419-15.16-44.84-4.37 21.49-14.22 34.29-29.4 38.08-15.23 3.81-28.44-1.68-37.21-15.46-13.425-21.143-15.473-59.798-35.47-86.46-26.16-34.88-27.2-49.35-27.2-81.6 0-17.17 27.27-58.13 44.47-79.91 23.07-29.24 57.68-64.09 91.53-64.09 10.27 0 20.62 7.03 34.59 20.19 19.841-8.847 63.361-20.19 85.41-20.19 21.997 0 65.52 11.322 85.41 20.19 13.97-13.16 24.32-20.19 34.59-20.19 33.85 0 68.46 34.85 91.53 64.09 17.2 21.78 44.47 62.74 44.47 79.91z" fill="#efd66c"/><path d="m416 224c0 19.871-3.638 49.697-3.97 76.17-.09 7.536-4.718 11.138-8.5 14.92-1.767 1.842-31.427 25.674-35.15 55.03-.53 4.109-.276 5.659-.48 8.93 0 .591-.34 3.25-.34 3.28-6.387 44.879-77.229 51.57-111.56 25.63-36.219 27.366-112 18.213-112-31.96 0-21.867-16.708-44.426-32.78-58.46-6.358-5.595-11.159-9.811-11.25-17.37-.33-26.296-3.97-56.435-3.97-76.17 0-40.605 30.968-107.983 35.2-113.6 26.257-35.009 24.366-32.607 25.49-33.71 14.098-14.121 77.932-28.69 99.31-28.69 21.068 0 85.173 14.53 99.31 28.69 1.126 1.105-.839-1.395 25.49 33.71 3.544 4.704 35.2 71.807 35.2 113.6z" fill="#ffec8f"/><path d="m240 344h32v80h-32z" fill="#efd66c"/><path d="m206 168s-54 8-62 48 30 80 30 80 48-32 48-64 16-56-16-64z" fill="#ffe773"/><path d="m306 168s54 8 62 48-30 80-30 80-48-32-48-64-16-56 16-64z" fill="#ffe773"/><circle cx="180" cy="212" fill="#a07765" r="20"/><circle cx="332" cy="212" fill="#a07765" r="20"/><path d="m248 128s16-16 16 0-8 40-8 40-8-32-8-40z" fill="#ffe773"/><path d="m312 320c0 17.946-25.044 56-56 56-31.554 0-56-38.741-56-56 0-42.953 112-42.941 112 0z" fill="#999"/></svg>