<svg id="Layer_1" enable-background="new 0 0 512.32 512.32" height="512" viewBox="0 0 512.32 512.32" width="512" xmlns="http://www.w3.org/2000/svg"><path d="m485.12 238.56c7.869 10.486.421 25.6-12.8 25.6-11.03 0-19.18-6.11-25.04-13.32 9.22 96.202-43.652 88.17-46.78 157.58.285 58.156 2.173 103.74-56.18 103.74-13.098 0-19.37-13.461-27.7-28.44-6.29 6.7-15.15 12.44-28.3 12.44-17.36 0-25.78-3.7-32.16-7.32-6.38 3.62-14.8 7.32-32.16 7.32-13.15 0-22.01-5.74-28.3-12.44-9.073 16.315-15.096 28.44-27.7 28.44-9.57 0-38.68 0-49.93-29.26-4.83-12.55-5.82-28.68-6.02-49.66-.05-.892-.267-17.344-.23-24.82-3.144-69.767-56.038-60.984-46.78-157.58-5.86 7.21-14.01 13.32-25.04 13.32-13.134 0-20.725-15.04-12.8-25.6 16.006-21.335-27.2-79.433-27.2-142.4 0-68.546 67.98-96 136-96 21.52 0 36.54 6.73 46.87 14.96 34.698-14.249 61.782 1.04 73.45 1.04 10.913 0 38.544-15.237 73.13-1.04 10.33-8.23 25.35-14.96 46.87-14.96 68.003 0 136 27.444 136 96 0 62.945-43.187 121.09-27.2 142.4z" fill="#a07765"/><path d="m448.32 272.16c0 69.423-38.851 73.093-46.49 122.45-1.21 7.8-7.92 13.55-15.81 13.55h-1.9c-8.57 0-15.62-6.75-15.99-15.31-2.85-66.55-23.52-107.5-61.43-121.71-22.91-8.59-39.59-17.1-50.54-25.91-10.95 8.81-27.63 17.32-50.54 25.91-37.92 14.21-58.58 55.16-61.43 121.7-.37 8.57-7.42 15.32-15.99 15.32h-1.9c-7.89 0-14.61-5.75-15.81-13.55-7.606-49.138-46.49-53.309-46.49-122.45 0-27.524 6.349-60.22 13.75-80.55 9.355-28.69 25.69-61.571 30.94-66.76l57.87-57.88c6.04-6.03 6.6-15.46 1.32-21.93-3.335-4.002-4.439-8.672-3.67-13.15 1.172-6.928 5.754-10.603 12.63-14.04 37.484-18.742 67.248-1.69 79.48-1.69 11.945 0 45.119-18.769 84.25 4.69 8.383 5.03 10.361 16.396 4.07 23.95-5.801 7.112-4.636 16.424 1.12 22.17 63.175 63.186 58.787 58.548 60.13 60.71 22.776 36.716 42.43 94.049 42.43 144.48z" fill="#c79a83"/><path d="m330.5 463.98c-5.99 7.271-14.727 32.18-42.18 32.18-17.35 0-25.78-3.7-32.16-7.31-6.37 3.61-14.81 7.31-32.16 7.31-27.396 0-36.131-24.787-42.18-32.18-4.22-5.17-4.79-12.43-1.43-18.19 20.09-34.43 44.79-69.63 75.61-69.63 33.296 0 59.065 40.727 75.93 69.63 3.36 5.76 2.79 13.02-1.43 18.19z" fill="#aaa"/><path d="m400.39 424.66c-.456 42.929.895 87.5-56.07 87.5-13.045 0-18.946-12.693-29.62-31.87-9.548-17.159-39.38-72.13-58.7-72.13-18.931 0-49.122 55.491-58.38 72.13-10.958 19.684-16.768 31.87-29.62 31.87-9.57 0-38.68 0-49.93-29.26-6.188-16.079-5.938-39.064-6.14-58.24-.637-45.952 2.435-97.916 27.35-137.86 13.012-20.895 30.763-35.577 50.08-43.6 5.664-2.452 40.645-14.662 50.64-26.64-.29-12.262 12.63-20.111 23.48-14.71 5.73 2.86 8.98 8.7 8.84 14.71 2.47 2.96 12.24 12.1 45.62 24.62 29.59 11.096 50.119 32.402 63.24 60.74 20.29 43.75 19.57 96.74 19.21 122.74z" fill="#999"/><path d="m165.55 257.23c-15.311 11.95-26.546 27.58-34.56 45.02-17.05-33.56-28.09-102.13 13.01-134.09 0 0 44.2-31.21 56 16 6.29 25.17-22.06 40.45-34.45 73.07z" fill="#a07765"/><path d="m381.18 301.92c-7.95-17.17-19.15-32.91-34.87-45.04-12.45-32.38-40.58-47.64-34.31-72.72 11.8-47.21 56-16 56-16 40.97 31.86 30.13 100.08 13.18 133.76z" fill="#a07765"/><path d="m336 408.16c-32 0-24-32-80-32s-48 32-80 32c-27.58 0-60.94-29.27-42.8-101.8-.75-1.3-1.49-2.67-2.21-4.11 11.889-25.875 30.522-46.751 56.78-58.35 6.84-3.097 42.131-15.237 52.23-27.34-.14-5.93 3.03-11.69 8.61-14.58 9.093-2.48 7.067-1.559 7.32-1.81.428-.086 7.017 1.689 7.46 1.81 5.58 2.89 8.75 8.65 8.61 14.58 2.47 2.96 12.24 12.1 45.62 24.62 28.085 10.519 49.425 30.211 63.56 60.74-.78 1.56-1.58 3.04-2.38 4.44 18.14 72.53-15.22 101.8-42.8 101.8z" fill="#aaa"/><g fill="#a07765"><path d="m256 128.16c0 40 0-8-40 0s-56 8-24-8c0 0 64-32 64 8z"/><path d="m296 128.16c-40-8-40 40-40 0s64-8 64-8c32 16 16 16-24 8z"/><path d="m279.7 85.55c-23.7-5.32-23.7 26.63-23.7 0 0-26.62 37.92-5.32 37.92-5.32 18.95 10.65 9.47 10.65-14.22 5.32z"/><path d="m256 85.55c0 26.63 0-5.32-23.7 0-23.69 5.33-33.17 5.33-14.22-5.32 0 0 37.92-21.3 37.92 5.32z"/></g><path d="m320 300.16c0 12.36-9.08 24.49-30.35 40.56-12.57 9.5-24.95 16.88-25.47 17.19-5.04 3-11.32 3-16.36 0-.52-.31-12.9-7.69-25.47-17.19-21.27-16.07-30.35-28.2-30.35-40.56 0-13.21 8.02-25.46 22-33.62 38.745-22.599 106-6.761 106 33.62z" fill="#818182"/><circle cx="148" cy="212.16" fill="#818182" r="20"/><circle cx="364.32" cy="212.16" fill="#818182" r="20"/></svg>