<svg id="Layer_1" enable-background="new 0 0 512 512" height="512" viewBox="0 0 512 512" width="512" xmlns="http://www.w3.org/2000/svg"><path d="m512 215.933c0 56.57-21.159 181.321-75.88 167.52-37.719-9.425-65.538-37.319-67.935-67.33-.334 4.096-.058 4.769-.365 11.78-2.646 50.24-22.083 120.03-71.82 120.03-10.651 0-23.738.159-33.4-2.62-11.981-3.438-1.204-3.442-13.2 0-9.67 2.782-22.579 2.62-33.4 2.62-42.022 0-61.063-49.214-68.61-90.72-3.924-22.983-3.152-35.895-3.575-41.09-2.397 30.011-30.216 57.905-67.935 67.33-54.782 13.817-75.88-111.203-75.88-167.52 0-71.46 45.62-104 88-104 19.873 0 43.191-54.493 95.98-40.69 35.239-9.527 108.42-9.63 144.04 0 52.794-13.809 76.052 40.69 95.98 40.69 42.38 0 88 32.54 88 104z" fill="#818182"/><path d="m407.97 194.203c-1.121 51.078-39.97 91.681-39.97 125.73 0 50.48-20.164 128-72 128-12.605 0-28.916.443-40-5.18-11.001 5.581-26.994 5.18-40 5.18-49.23 0-69.283-69.387-71.73-118.29-.41-8.049-.186-9.693-.32-11.63-1.413-33.614-38.822-73.771-39.92-123.81-.34-2.18-.23-4.44.37-6.64 6.04-22.16 17.9-40.42 35.28-54.33l30.43-53.24c1.95-3.42 5.1-5.99 8.83-7.24 34.86-11.547 119.031-11.623 154.12 0 3.73 1.25 6.88 3.82 8.83 7.24l30.43 53.24c17.38 13.91 29.24 32.17 35.28 54.33.6 2.2.71 4.46.37 6.64z" fill="#999"/><path d="m367.92 325.203c0 2.981-.673 13.666-1.89 22.63-5.618 43.658-25.661 100.1-70.03 100.1-13.001 0-28.988.387-40-5.2v-42.8c63.977 0 48.016-112 80-112 16.2 0 26.05 18.22 31.92 37.27z" fill="#a07765"/><path d="m304 167.933c-16 0-32 24-16 32s32-32 16-32z" fill="#c79a83"/><path d="m256 399.933v42.8c-10.956 5.558-26.275 5.2-40 5.2-30.2 0-48.742-26.012-59.07-54.27-7.876-21.005-12.85-51.353-12.85-68.46 5.87-19.05 15.72-37.27 31.92-37.27 31.937 0 16.064 112 80 112z" fill="#a07765"/><path d="m272 391.933v55.17c-3.34-.39-6.48-.95-9.4-1.79-12.073-3.413-1.127-3.413-13.2 0-2.92.84-6.06 1.4-9.4 1.79v-55.17z" fill="#999"/><circle cx="176" cy="199.933" fill="#a07765" r="24"/><circle cx="336" cy="199.933" fill="#a07765" r="24"/><path d="m208 167.933c16 0 32 24 16 32s-32-32-16-32z" fill="#c79a83"/><g fill="#818182"><path d="m299.31 332.623c-12.17-12.17-30.75-5.95-43.3.7-12.55-6.65-31.14-12.88-43.32-.7-18.41 18.393-10.653 83.31 43.31 83.31 53.762 0 61.826-64.811 43.31-83.31z"/><path d="m276.222 155.131c-15.167-6.033-20.222-36.198-20.222-36.198s-5.055 30.165-20.222 36.198 20.222 18.099 20.222 54.297c0-36.198 35.388-48.264 20.222-54.297z"/></g></svg>