<svg id="Layer_1" enable-background="new 0 0 512 512" height="512" viewBox="0 0 512 512" width="512" xmlns="http://www.w3.org/2000/svg"><path d="m512 40.001c0 18.1 0 51.78-9.69 71.16-17.51 35.019-54.898 96.84-94.31 96.84-.99 0-1.96-.01-2.91-.02 10.797 23.655 34.91 78.005 34.91 104.02 0 37.664-58.78 146.412-87.12 165.31-25.17 16.78-84.28 32.03-92.64 34.12-1.34.447-4.174.738-6.06.46-2.524 0-69.32-17.421-95.06-34.58-28.475-18.988-87.12-127.81-87.12-165.31 0-26.014 24.11-80.358 34.91-104.02-.95.01-1.92.02-2.91.02-39.428 0-76.825-61.87-94.31-96.84-9.69-19.38-9.69-53.06-9.69-71.16 0-19.66 17.95-40 48-40 55.372 0 131.515 63.986 156.17 72.17 25.739-10.675 77.515-10.843 103.66 0 24.394-8.097 100.957-72.17 156.17-72.17 30.05 0 48 20.34 48 40z" fill="#ffaa64"/><path d="m417.62 380.711c-11.777 24.644-42.437 81.728-64.74 96.6-26.931 17.954-92.614 34.105-92.72 34.14-2.984.897-7.4.48-8.4-.02-8.36-2.09-67.47-17.34-92.64-34.12-22.276-14.855-52.908-71.839-64.74-96.6 12.26-35.75 39.5-108.71 57.62-108.71 24 0 24 32 40 32s48-56 64-56 48 56 64 56 16-32 40-32c18.12 0 45.36 72.96 57.62 108.71z" fill="#ece2e2"/><path d="m299.072 168.001c7.761-1.94 16 16 24 16s24 4.686 24 16c0 16-48 40-56 32s-24-56 8-64z" fill="#f2f2f2"/><path d="m212.928 168.001c-7.761-1.94-16 16-24 16s-24 4.686-24 16c0 16 48 40 56 32s24-56-8-64z" fill="#f2f2f2"/><path d="m110.23 96.001c-8-16-32-64-80-64-24 0-11.943 56.114 16 112 16 32 48 55 72 40s0-72-8-88z" fill="#ffec8f"/><path d="m401.77 96.001c8-16 32-64 80-64 24 0 11.943 56.114-16 112-16 32-48 55-72 40s0-72 8-88z" fill="#ffec8f"/><g fill="#999"><circle cx="204" cy="220.001" r="20"/><path d="m216 320.001c0 16.748 19.065 32 40 32s40-15.252 40-32c0-3.952-1.36-17.212-18.862-21.933-10.365-2.796-31.902-2.798-42.275 0-17.503 4.721-18.863 17.981-18.863 21.933z"/><circle cx="308" cy="220.001" r="20"/><path d="m330.021 312.146c-8.762-1.117-16.759 5.083-17.893 13.833-1.705 13.164-10.148 42.021-24.128 42.021-14.574 0-20.594-3.483-21.456-4.035-5.924-5.216-15.02-5.321-21.088 0-.862.552-6.882 4.035-21.456 4.035-13.978 0-22.42-28.847-24.127-42.014-1.11-8.755-9.104-14.958-17.862-13.862-8.768 1.099-14.985 9.097-13.887 17.865.083.661 2.104 16.361 8.754 32.204 13.809 32.896 35.451 37.807 47.122 37.807 14.776 0 25.083-2.626 32-5.564 6.917 2.938 17.224 5.564 32 5.564 11.671 0 33.313-4.912 47.122-37.807 6.65-15.843 8.671-31.543 8.754-32.204 1.097-8.755-5.104-16.728-13.855-17.843z"/></g></svg>