<svg id="Layer_1" enable-background="new 0 0 512.254 512.254" height="512" viewBox="0 0 512.254 512.254" width="512" xmlns="http://www.w3.org/2000/svg"><path d="m454.454 191.16c-16.095 32.191-53.021 69.682-46.62 101.7 1.978 9.889-5.603 19.14-15.69 19.14h-272c-10.084 0-17.668-9.249-15.69-19.14 6.4-32.012-30.513-69.486-46.62-101.7-17.366-34.733-40.009-191.16 30.71-191.16 49.415.511 100.61 99.273 121.83 144h91.54c22.064-46.505 72.954-144 122.23-144 69.313 0 48.388 155.004 30.31 191.16z" fill="#e0b7a3"/><path d="m343.734 208c15.43 38.57-80.68 10.21-87.59 8.12-6.91 2.09-103.02 30.45-87.6-8.12 15.29-38.2-80.16-193.1-88.8-207 51.992-12.195 107.748 94.77 130.63 143h91.54c23.038-48.559 78.424-155.136 130.63-143-8.64 13.9-104.09 168.8-88.81 207z" fill="#a07765"/><path d="m431.004 421.94c-.98 2.43-10.27 24.39-36.62 46.35-82.983 69.176-258.648 57.497-310.36-40.57-3.07-3.14-5.27-8.22-4.61-16.42 1.693-21.431 20.409-105.641 25.11-126.77 17.76-79.93 57.33-118.21 87.39-136.25 28.07-16.85 53.44-19.7 61.56-20.18 10.573-1.255 40.08 4.615 66.01 20.18 30.06 18.04 69.63 56.32 87.39 136.25 25.868 116.431 26.945 130.342 24.13 137.41z" fill="#ffbd7b"/><path d="m420.214 346.18c-29.46-17.69-82.99-38.49-100.07 29.82-24 96-64-24-64-24s-40 120-64 24c-17.28-69.11-71.86-47.01-101.09-29.2 3.66-17.56 8.15-38.36 13.47-62.27 17.76-79.93 57.33-118.21 87.39-136.25 25.525-15.322 55.353-21.444 66.01-20.18 8.12.48 33.49 3.33 61.56 20.18 30.06 18.04 69.63 56.32 87.39 136.25 5.25 23.63 9.7 44.22 13.34 61.65z" fill="#f2a661"/><path d="m224.144 296c24-40-1.567-43.581 0-64 1.722-22.439 12.942-32.377-8-24-40 16-64 64-64 88s24-16 40-8 16 32 16 32 1.16.734 16-24z" fill="#999"/><path d="m290.471 296c-24-40 1.567-43.581 0-64-1.722-22.439-12.942-32.377 8-24 40 16 64 64 64 88s-24-16-40-8-16 32-16 32-1.159.734-16-24z" fill="#999"/><path d="m296.144 472h-80c-49.104 0-67.412-52.353-55.52-99.88 9.48-37.92 45.4-98.41 92.38-107.81 2.07-.41 4.21-.41 6.28 0 46.98 9.4 82.9 69.89 92.38 107.81 11.902 47.564-6.409 99.88-55.52 99.88z" fill="#a07765"/><path d="m312.144 392c0 25.898-29.043 40-56 40-27.628 0-56-14.633-56-40 0-22.18 11.74-31.7 21.59-35.78 10.18-4.22 21.95-4.22 34.41-4.22s24.23 0 34.41 4.22c9.85 4.08 21.59 13.6 21.59 35.78z" fill="#999"/><g fill="#f2a661"><circle cx="320.144" cy="264" r="16"/><circle cx="192.144" cy="264" r="16"/></g></svg>