<svg id="Layer_1" enable-background="new 0 0 512.081 512.081" height="512" viewBox="0 0 512.081 512.081" width="512" xmlns="http://www.w3.org/2000/svg"><path d="m512.041 96.041c0 16.3-2.11 36.13-17.38 70.5-22.5 50.63-49.03 79.15-64.79 92.88 19.001 100.576-50.716 212.62-173.83 212.62-122.8 0-192.876-111.804-173.83-212.62-21.974-19.143-45.73-49.982-64.79-92.88-21.246-47.82-30.761-100.091 17.32-120.7 8.69-3.73 18.61-5.8 29.3-5.8 44.719 0 103.999 65.393 132.49 100.05 21.27-4.05 41.88-4.05 59.51-4.05s38.24 0 59.51 4.05c28.492-34.657 87.771-100.05 132.49-100.05 36.49 0 64 24.07 64 56z" fill="#818182"/><path d="m136.041 160.041c0 64-32 96-80 64-4.63-3.09-9.27-7.02-13.82-11.64-8.33-12.72-16.82-27.9-24.8-45.86-21.246-47.82-30.761-100.091 17.32-120.7 28 15.89 101.3 62.43 101.3 114.2z" fill="#ffa4b8"/><path d="m376.041 160.041c0 64 32 96 80 64 4.63-3.09 9.27-7.02 13.82-11.64 8.33-12.72 16.82-27.9 24.8-45.86 21.245-47.819 30.761-100.091-17.32-120.7-28 15.89-101.3 62.43-101.3 114.2z" fill="#ffa4b8"/><path d="m430.941 318.541c-11.945 82.629-76.264 153.5-174.9 153.5-96.602 0-162.673-68.922-174.9-153.5-10.065-69.618 21.329-144.578 87.05-170.39 29.265-11.502 58.448-12.11 87.85-12.11 30.255 0 58.881.724 87.85 12.11 65.263 25.632 97.209 100.119 87.05 170.39z" fill="#999"/><path d="m304.041 232.041c0 72-40 88-48 80-8 8-48-8-48-80 0-56.48 7.38-83.43 16.37-95.31 15.507-.955 47.736-.956 63.26 0 8.99 11.88 16.37 38.83 16.37 95.31z" fill="#f2f2f2"/><circle cx="152.041" cy="304.041" fill="#b2b2b2" r="32"/><circle cx="360.041" cy="304.041" fill="#b2b2b2" r="32"/><path d="m327.201 454.351c-6.09 3.05-11.56 4.11-16.24 4.11-24.267 0-33.602-25.387-41.3-46.68-2.003-5.531-8.589-24.712-13.62-27.73-5.031 3.019-11.616 22.193-13.62 27.73-6.75 18.67-13.74 37.97-30.3 44.59-5.89 2.35-15.39 3.9-27.24-2.02-42.283-21.131-36.457-82.877-15.15-125.47 20.42-40.84 53.92-40.84 86.31-40.84 35.122 0 66.455 1.13 86.31 40.84 21.328 42.637 27.102 104.354-15.15 125.47z" fill="#f2f2f2"/><path d="m256.041 352.041c-35.725 0-49.243-41.235-33.556-56.856 8.467-8.432 19.624-7.081 37.703-7.155 12.85-.054 22.13-.093 29.409 7.155 15.737 15.67 2.115 56.856-33.556 56.856zm0-32h.01z" fill="#818182"/><g fill="#a07765"><circle cx="148.041" cy="300.041" r="20"/><circle cx="364.041" cy="300.041" r="20"/></g></svg>