<svg id="Layer_1" enable-background="new 0 0 511.998 511.998" height="512" viewBox="0 0 511.998 511.998" width="512" xmlns="http://www.w3.org/2000/svg"><path d="m503.156 406.31c-27.19 13.59-58.63 12.62-81.33 7.26-6.612 32.143-27.974 58.917-63.89 73.29-12.206 4.878-24.808-6.281-21.39-19.01-18.92 15.46-45.95 34.05-75.48 43.32-3.052 1.018-6.246 1.108-9.45.21-27.444-8.452-54.124-25.506-76.17-43.53 3.423 12.747-9.201 23.881-21.39 19.01-35.909-14.37-57.277-41.141-63.89-73.29-26.089 6.156-56.489 5.153-81.33-7.26-15.041-7.532-9.661-30.31 7.16-30.31.06 0 7.55-.84 23.27-20.43-9.22-.15-19.11-1.32-28.33-4.39-13.492-4.505-14.818-23.131-2.1-29.49 10.47-5.23 22.77-16.33 34.09-28.3-15.341-.771-22.043-18.313-10.43-29.57 1.61-1.56 3.72-3.2 6.62-5.13 1.15-.78 12-9.37 39.3-71.27 9.98-22.63 18.67-44.51 23.22-56.23-21.42-28.59-13.54-61.55-13.16-63.07 1.864-7.734 31.212-68.12 79.52-68.12 33.362 0 50.59 25.235 63.45 54.54 19.198-4.782 21.89-8.097 29.27-5.81 1.147.313 9.759 3.315 19.83 5.8.19-.4.36-.8.53-1.18 7.76-17.32 23.9-53.35 62.92-53.35 49.98 0 77.56 63.01 78.71 65.7 3.28 7.753 6.842 39.874-12.35 65.49 4.56 11.74 13.28 33.7 23.28 56.35 27.26 61.79 38.09 70.37 39.24 71.15 2.9 1.93 5.01 3.57 6.62 5.13 11.558 11.204 4.969 28.794-10.43 29.57 11.32 11.97 23.62 23.07 34.09 28.3 12.721 6.361 11.388 24.987-2.1 29.49-9.22 3.07-19.11 4.24-28.33 4.39 15.72 19.59 23.21 20.43 23.28 20.43 16.822 0 22.188 22.779 7.15 30.31z" fill="#ece2e2"/><path d="m255.996 48.01v279.99c-54.92 0-151.72 60.5-194.56 89.21-17.09.38-35.67-2.44-52.6-10.9-15.041-7.532-9.661-30.31 7.16-30.31.06 0 7.55-.84 23.27-20.43-9.22-.15-19.11-1.32-28.33-4.39-13.492-4.505-14.818-23.131-2.1-29.49 10.47-5.23 22.77-16.33 34.09-28.3-15.341-.771-22.043-18.313-10.43-29.57 1.61-1.56 3.72-3.2 6.62-5.13 1.15-.78 12-9.37 39.3-71.27 9.98-22.63 18.67-44.51 23.22-56.23-21.42-28.59-13.54-61.55-13.16-63.07 1.864-7.734 31.212-68.12 79.52-68.12 33.362 0 50.59 25.235 63.45 54.54 17.962-4.474 19.402-6.53 24.55-6.53z" fill="#a2d0ff"/><path d="m255.236 48.03c-4.375.156-7.803 2.528-23.79 6.51-12.867-29.321-29.942-54.54-63.45-54.54-49.98 0-77.56 63.01-78.71 65.7-3.28 7.753-6.842 39.874 12.35 65.49-11.395 29.351-27.437 67.807-41.88 95.62-18.288 35.251-20.925 30.871-27.26 37.01-11.558 11.204-4.969 28.796 10.43 29.57-11.32 11.97-23.62 23.07-34.09 28.3-12.721 6.361-11.388 24.987 2.1 29.49 9.22 3.07 19.11 4.24 28.33 4.39-15.72 19.59-23.21 20.43-23.27 20.43-16.825 0-22.198 22.78-7.16 30.31 25.094 12.54 53.55 9.898 75.687-4.165 48.369-30.728 124.948-74.145 171.473-74.145 0-301.498.508-280.021-.76-279.97z" fill="#f2a661"/><path d="m496.002 376c-.06 0-7.55-.84-23.27-20.43 9.22-.15 19.11-1.32 28.33-4.39 13.492-4.505 14.818-23.131 2.1-29.49-10.47-5.23-22.77-16.33-34.09-28.3 15.341-.771 22.043-18.313 10.43-29.57-1.61-1.56-3.72-3.2-6.62-5.13-16.126-10.939-55.356-109.047-62.52-127.5 21.42-28.59 13.54-61.55 13.16-63.07-1.864-7.734-31.212-68.12-79.52-68.12-33.362 0-50.59 25.235-63.45 54.54-17.546-4.371-19.422-6.53-24.54-6.53-.1 0-.01-3.072-.01 279.99 46.525 0 123.104 43.417 171.473 74.145 22.078 14.025 50.533 16.734 75.687 4.165 15.041-7.532 9.661-30.31-7.16-30.31z" fill="#f2a661"/><path d="m327.996 320c0 28.403-36.654 80-72 80s-72-51.597-72-80 36.654 0 72 0 72-28.403 72 0z" fill="#ece2e2"/><path d="m255.986 48.01c.1 0 .01-1.66.01 135.99-24 0-40-72-56-56s-24 64-48 88c-16.78 16.78-64.83 14.01-92.24 10.81 14.444-27.814 30.486-66.271 41.88-95.62-21.42-28.59-13.54-61.55-13.16-63.07 1.864-7.734 31.212-68.12 79.52-68.12 33.362 0 50.59 25.235 63.45 54.54 17.774-4.427 19.444-6.53 24.54-6.53z" fill="#a07765"/><path d="m452.246 226.81c-27.41 3.2-75.46 5.97-92.24-10.81-24-24-32-72-48-88s-32 56-56 56v-135.99c5.131 0 7.269 2.225 24.55 6.53 12.867-29.321 29.942-54.54 63.45-54.54 49.98 0 77.56 63.01 78.71 65.7 3.318 7.843 6.807 39.921-12.35 65.49 11.395 29.351 27.437 67.807 41.88 95.62z" fill="#a07765"/><g fill="#999"><circle cx="199.996" cy="200" r="16"/><path d="m297.883 257.214c-8.167 3.376-12.049 12.733-8.673 20.899 4.113 9.948 14.786 39.74 14.786 57.887 0 6.914-.003 26.167-32 30.925v-26.627c9.562-4.644 16-12.896 16-20.298 0-11.046-14.327-16-32-16-42.626 0-36.948 26.125-16 36.298v26.627c-31.997-4.759-32-24.011-32-30.925 0-18.075 10.675-47.919 14.789-57.894 3.372-8.165-.512-17.518-8.676-20.893-8.165-3.376-17.523.507-20.899 8.673-1.762 4.262-17.214 42.437-17.214 70.113 0 35.471 24.12 64 80 64 55.871 0 80-28.521 80-64 0-27.676-15.452-65.851-17.214-70.113-3.376-8.165-12.733-12.05-20.899-8.672z"/><circle cx="311.996" cy="200" r="16"/></g></svg>