<svg id="Layer_1" enable-background="new 0 0 512 512" height="512" viewBox="0 0 512 512" width="512" xmlns="http://www.w3.org/2000/svg"><path d="m512 168.009c0 58.964-2.69 77.114-18.5 80.85-4.04.906-7.812.403-11.21-1.2-5.267 19.655-14.496 38.822-29.52 52.67 1.75 11.3 3.23 26.06 3.23 43.68 0 75.032-80.335 102.119-103.12 117.31-12.292 8.194-29.786-3.28-23.43-20.11-24.392 23.201-61.323 49.802-95.19 54.64-10.841 1.592-20.124-8.133-17.95-18.98 1.96-9.81-17.15-23.94-34.03-36.41.25.7.5 1.38.76 2.08 3.784 10.422-3.966 21.47-15.04 21.47-6.195 0-7.48-2.296-17.93-7.97-35.943-19.382-94.07-47.493-94.07-112.03 0-17.62 1.48-32.38 3.23-43.68-15.055-13.877-24.264-33.054-29.52-52.67-3.01 1.42-6.38 1.97-9.76 1.48-9.763-1.42-14.436-9.322-16.49-18.98-3.206-15.244-3.46-46.581-3.46-62.15 0-65.823 76.273-97.407 141.03-109.26l-4.72-23.6c-3.33-16.652 18.314-26.306 28.49-12.73 6.407 9.168 24.665 30.973 34.76 35.72 17.15-13.515 38.992-4.471 56.44 8.81 17.446-13.28 39.289-22.325 56.44-8.81 10.377-5.052 28.195-26.324 34.76-35.72 10.189-13.593 31.817-3.906 28.49 12.73l-4.72 23.6c64.712 11.845 141.03 43.414 141.03 109.26z" fill="#8bc4ff"/><path d="m385.83 366.349c-4.211 28.13-86.901 120.262-151.57 129.5-10.841 1.592-20.124-8.133-17.95-18.98 1.96-9.81-17.17-23.95-34.05-36.43-24.35-17.99-51.81-38.28-54.11-68.35-.853-1.725-1.603-3.221-1.98-5.74-3.58-24.17.4-43.13 14.04-62.45 10.626-15.079 35.355-40.165 53.38-45.51 18.954-5.617 28.087 5.62 38.41 5.62 5.45 0 7.54-1.14 8.07-1.51.76-8.13 7.6-14.49 15.93-14.49s15.17 6.36 15.93 14.49c.53.37 2.62 1.51 8.07 1.51 10.3 0 19.57-11.219 38.41-5.62 10.42 3.09 21.8 11.21 36.9 26.31 24.901 24.901 35.578 47.515 30.52 81.65z" fill="#a07765"/><path d="m380.44 318.829c-26.455 36.645-85.407 92.338-135.68 99.52-10.841 1.592-20.124-8.133-17.95-18.98 1.96-9.81-17.17-23.95-34.05-36.43-21.75-16.07-45.98-33.97-52.55-59.04 10.626-15.079 35.355-40.165 53.38-45.51 18.954-5.617 28.087 5.62 38.41 5.62 5.45 0 7.54-1.14 8.07-1.51.76-8.13 7.6-14.49 15.93-14.49s15.17 6.36 15.93 14.49c.53.37 2.62 1.51 8.07 1.51 10.3 0 19.57-11.219 38.41-5.62 10.42 3.09 21.8 11.21 36.9 26.31 11.75 11.75 19.99 22.76 25.13 34.13z" fill="#c79a83"/><path d="m256 336.009c-30.297 0-53.095-30.099-47.04-62.4 6.66 1.82 12.56 6.4 23.04 6.4 24 0 24-16 24-16s0 16 24 16c10.48 0 16.38-4.58 23.04-6.4 6.058 32.314-16.754 62.4-47.04 62.4z" fill="#ea8692"/><path d="m512 168.009c0 59.067-2.851 77.161-18.5 80.85-3.86.91-7.77.42-11.21-1.2-4.76 17.74-13.5 37.91-29.52 52.66 11.02 71.339-1.483 109.788-85.01 152.61.262 0-9.414 4.751-14.88 8.39-12.809 8.538-29.185-4.278-23.92-18.78 32.87-90.38 35.2-103.74 3.73-135.22-4.935-4.935-16.679-16.252-23.38-18.25-1.89-.556-2.583.179-9.1 2.76-16.614 6.711-33.441 4.692-44.21-1.59-10.723 6.255-27.546 8.322-44.21 1.59-6.307-2.497-7.203-3.323-9.1-2.76-6.709 2-18.471 13.341-23.38 18.25-31.47 31.48-29.14 44.84 3.73 135.22 5.254 14.47-11.087 27.335-23.92 18.78-22.487-14.971-103.12-42.164-103.12-117.31 0-17.78 1.52-32.62 3.23-43.69-16.02-14.75-24.76-34.92-29.52-52.66-3.44 1.62-7.35 2.11-11.21 1.2-13.15-3.1-15.1-17.72-16.15-25.57-1.56-11.63-2.35-30.23-2.35-55.28 0-75.64 99.87-101.73 141.03-109.26l-4.72-23.6c-3.364-16.819 18.731-26.428 28.71-12.44 5.796 8.694 24.09 30.15 34.54 35.43 17.128-13.511 38.869-4.565 56.44 8.81 17.615-13.409 39.404-22.339 56.52-8.74 7.46-3.64 23.13-19.64 34.46-35.5 9.981-13.959 32.079-4.406 28.71 12.44l-4.72 23.6c41.16 7.53 141.03 33.62 141.03 109.26z" fill="#a07765"/><path d="m512 168.009c0 59.067-2.851 77.161-18.5 80.85-3.86.91-7.77.42-11.21-1.2-4.76 17.74-13.5 37.91-29.52 52.66 11.02 71.339-1.483 109.788-85.01 152.61 43.85-96.29 45.59-112.01.88-147.49-20.58-16.31-30.35-20.33-34.34-21.27-5.667-1.295-18.418 8.09-43.05 8.09-14.85 0-26.44-2.64-35.25-6.72-8.81 4.08-20.4 6.72-35.25 6.72-24.616 0-37.406-9.395-43.05-8.09-3.99.94-13.76 4.96-34.34 21.27-44.71 35.48-42.97 51.2.88 147.49-83.06-42.583-96.105-80.782-85.01-152.61-16.02-14.75-24.76-34.92-29.52-52.66-3.44 1.62-7.35 2.11-11.21 1.2-13.15-3.1-15.1-17.72-16.15-25.57-1.56-11.63-2.35-30.23-2.35-55.28 0-75.64 99.87-101.73 141.03-109.26l-4.72-23.6c-3.364-16.819 18.731-26.428 28.71-12.44 5.796 8.694 24.09 30.15 34.54 35.43 17.128-13.511 38.869-4.565 56.44 8.81 17.615-13.409 39.404-22.339 56.52-8.74 7.46-3.64 23.13-19.64 34.46-35.5 9.981-13.959 32.079-4.406 28.71 12.44l-4.72 23.6c41.16 7.53 141.03 33.62 141.03 109.26z" fill="#c79a83"/><g fill="#a07765"><path d="m432 312.009c-8.837 0-16-7.164-16-16 0-71.652-5.301-149.686-68.598-168.675-8.464-2.539-13.267-11.459-10.728-19.923 2.54-8.463 11.461-13.265 19.923-10.728 40.196 12.059 67.388 42.69 80.818 91.043 10.585 38.102 10.585 80.336 10.585 108.283 0 8.836-7.163 16-16 16z"/><path d="m80 312.009c-8.836 0-16-7.164-16-16 0-27.947 0-70.181 10.583-108.282 13.432-48.353 40.623-78.984 80.819-91.043 8.464-2.54 17.385 2.264 19.923 10.728 2.539 8.464-2.264 17.384-10.728 19.923-63.296 18.988-68.597 97.022-68.597 168.674 0 8.836-7.164 16-16 16z"/><path d="m355.313 284.696c-15.101-15.101-26.481-23.214-36.901-26.307-18.96-5.625-28.112 5.621-38.412 5.621-5.451 0-7.544-1.142-8.07-1.506-1.273-13.849-18.744-19.684-28.025-8.948-2.25 2.601-3.535 5.819-3.835 8.948-.526.364-2.619 1.506-8.07 1.506-10.321 0-19.531-11.222-38.412-5.621-10.42 3.093-21.801 11.207-36.901 26.307-48.299 48.298-34.914 83.008-3.723 168.781 3.021 8.307 12.202 12.589 20.504 9.569 8.305-3.02 12.589-12.2 9.569-20.504-32.865-90.38-35.196-103.746-3.723-135.219 14.004-14.003 20.659-17.449 23.38-18.257 3.91-1.163 12.39 6.943 29.306 6.943 10.109 0 17.999-2.271 24-5.774 6.001 3.503 13.891 5.774 24 5.774 16.843 0 25.438-8.09 29.307-6.943 2.721.808 9.376 4.253 23.38 18.257 31.473 31.473 29.142 44.839-3.724 135.219-3.02 8.304 1.265 17.485 9.569 20.504 8.322 3.026 17.49-1.281 20.505-9.569 31.055-85.402 44.647-120.412-3.724-168.781z"/><path d="m170.058 137.154c-31.549 12.62-52.401 38.257-57.58 58.975-2.143 8.573 3.069 17.259 11.642 19.403 8.623 2.156 17.272-3.121 19.403-11.642-.146.566.397-1.651 2.069-5.116 12.753-26.238 54.701-46.533 72.291-30.677 1.889 1.814.664.929.805.787 4.901 7.352 14.837 9.339 22.188 4.438 7.353-4.902 9.34-14.836 4.438-22.188.346-.231-23.427-34.714-75.256-13.98z"/><circle cx="328" cy="192.009" r="16"/><path d="m364.694 149.446c-7.122-5.05-14.777-9.102-22.752-12.292-51.463-20.586-74.308 12.559-75.255 13.98-4.902 7.352-2.915 17.286 4.438 22.188 7.351 4.901 17.286 2.914 22.188-4.438-.897 1.548.473-1.716 6.185-4.254 16.696-7.419 53.967 6.717 67.084 34.51 1.631 3.428 2.119 5.618 1.895 4.749 1.818 7.27 8.341 12.123 15.51 12.124 10.437 0 18.053-9.811 15.535-19.884-.331-1.326-7.072-27.005-34.828-46.683z"/><circle cx="184" cy="192.009" r="16"/></g><path d="m280 232.009c0 6.627-10.745 24-24 24s-24-17.373-24-24 10.745-8 24-8 24 1.373 24 8z" fill="#999"/></svg>