<svg id="Layer_1" enable-background="new 0 0 512 512" height="512" viewBox="0 0 512 512" width="512" xmlns="http://www.w3.org/2000/svg"><path d="m496.56 348.055c-1.497 28.327-31.251 35.993-52.93 23.7-14.147 45.295-62.62 116.92-109.8 116.92-13.052 0-25.248-5.309-33.85-16.09-7.97 6.54-18.98 12.24-34.02 14.49-3.357 1.254-5.891 1.101-9.96.93-4.204.177-6.693.29-9.96-.93-15.04-2.25-26.05-7.95-34.02-14.49-8.573 10.73-20.728 16.09-33.85 16.09-47.205 0-95.648-71.636-109.8-116.92-21.528 12.208-51.424 4.808-52.93-23.7-1.092-20.609 13.278-52.028 3.25-67.07-18.17-27.25-18.69-89.83-18.69-96.88 0-67.746 68.671-135.574 114.1-130.17 29.475-29.418 100.424-32.466 141.9-29.86 41.501-2.608 112.431.448 141.9 29.86 45.537-5.416 114.1 62.595 114.1 130.17 0 7.05-.52 69.63-18.69 96.87-10.014 15.036 4.344 46.45 3.25 67.08z" fill="#ffdfba"/><g fill="#ffebd2"><path d="m208 112.103c-36.831 0-87.548 67.958-95.782 117.37-1.625 9.745 5.888 18.633 15.802 18.633 7.68 0 14.458-5.546 15.763-13.372 2.24-13.437 8.574-28.978 17.68-43.977 7.16 15.613 30.538 10.404 30.538-6.654 0-8.258-6.257-15.051-14.287-15.906 15.08-17.744 26.964-24.017 30.287-24.094 4.475 0 7.937 14.584 8 24.045.024 8.815 7.179 15.955 16 15.955 8.837 0 16-7.164 16-16-.001-27.325-12.554-56-40.001-56z"/><path d="m447.78 354.735c-8.319 49.947-63.227 133.94-113.95 133.94-13.017 0-25.192-5.264-33.83-16.11-7.97 6.54-18.98 12.26-34.04 14.51-3.357 1.254-5.891 1.101-9.96.93-4.204.177-6.693.29-9.96-.93-15.06-2.25-26.07-7.97-34.04-14.51-8.662 10.876-20.854 16.11-33.83 16.11-50.754 0-105.643-84.065-113.95-133.94-4.63-27.76-3.84-78.61 1.91-123.66 4.98-39.05 15.57-89.83 37.87-117.09 0-44.738-1.02-45.527 2.94-51.15 24.336-38.34 105.133-41.521 149.06-38.76 43.82-2.754 124.704.388 149.06 38.76 4.015 5.7 2.94 6.628 2.94 51.15 39.454 48.229 48.715 187.18 39.78 240.75z"/><path d="m304 112.103c-27.455 0-40 28.688-40 56 0 8.836 7.163 16.025 16 16.025s16-7.138 16-15.975c.062-9.46 3.525-24.051 7.993-24.051 3.33.077 15.214 6.35 30.294 24.094-8.031.855-14.287 7.648-14.287 15.906 0 17.051 23.376 22.271 30.538 6.654 9.106 14.999 15.44 30.54 17.68 43.977 1.305 7.826 8.083 13.373 15.763 13.372 9.924 0 17.424-8.901 15.802-18.633-8.396-50.373-59.56-117.369-95.783-117.369z"/></g><path d="m319.13 438.255c.65 3 .42 6.12-.66 8.99-6.97 18.52-26.82 38.94-61.65 40.73-.72.027-.921.027-1.64 0-34.83-1.79-54.68-22.21-61.65-40.73-1.08-2.87-1.31-5.99-.66-8.99 5.613-26.135-.87-66.915-.87-86.15 0-63.95 128-63.85 128 0 0 19.209-6.48 60.028-.87 86.15z" fill="#999"/><path d="m391.41 444.995c-7.9 18.01-23.49 31.72-46.36 40.79-2.28 1.56-4.99 2.56-7.94 2.76-4.054.293-8.234.054-12.24-.75-55.56-11.104-36.87-102.106-36.87-135.69 0-2.69 0-8.3-12.53-12.64-11.873-4.111-25.715-4.579-38.94 0-12.53 4.34-12.53 9.95-12.53 12.64 0 33.232 18.87 124.543-36.86 135.69-3.96.79-8.08 1.04-12.25.75-2.95-.2-5.66-1.2-7.94-2.76-22.87-9.07-38.46-22.78-46.36-40.79-21.392-48.774 20.13-111.68 32.03-153.29 8.59-30.08 22.02-53.19 39.9-68.69 35.409-30.685 91.502-30.727 126.96 0 17.88 15.5 31.31 38.61 39.9 68.69 11.916 41.668 53.421 104.517 32.03 153.29z" fill="#818182"/><path d="m312 248.105c0 32.09-37.792 42.589-42.86 49.11-6.724 9.918-21.649 8.789-27.13-1.35-11.517-7.072-42.01-19.044-42.01-47.76 0-26.386 27.342-42.394 52.71-47.66 1.375-.29 2.819-.392 4.21-.3 5.135.239 18.482 4.767 26.24 8.65 25.09 12.55 28.84 30.01 28.84 39.31z" fill="#999"/><path d="m240 144.055s16 40-16 48c-39.574 9.894-88 80-104 56s22.059-89.373 56-112c24-16 56-24 64 8z" fill="#999"/><path d="m276.233 144.055s-16 40 16 48c39.574 9.894 88 80 104 56s-22.059-89.373-56-112c-24-16-56-24-64 8z" fill="#999"/><path d="m208 112.103c-36.831 0-87.548 67.958-95.782 117.37-1.625 9.745 5.888 18.633 15.802 18.633 7.68 0 14.458-5.546 15.763-13.372 2.24-13.437 8.574-28.977 17.68-43.976 7.158 15.611 30.538 10.415 30.538-6.652 0-8.262-6.255-15.052-14.289-15.906 15.081-17.746 26.966-24.019 30.289-24.096 4.475 0 7.937 14.584 8 24.045.024 8.815 7.179 15.955 16 15.955 8.837 0 16-7.164 16-16-.001-27.326-12.554-56.001-40.001-56.001z" fill="#818182"/><path d="m304 112.103c-27.455 0-40 28.688-40 56 0 8.836 7.163 16.025 16 16.025s16-7.138 16-15.975c.062-9.46 3.525-24.051 7.993-24.051 3.33.077 15.215 6.35 30.296 24.096-8.034.854-14.289 7.644-14.289 15.906 0 17.023 23.367 22.29 30.538 6.652 9.106 14.999 15.44 30.54 17.68 43.976 1.453 8.716 9.697 14.606 18.412 13.152 8.717-1.453 14.605-9.696 13.152-18.413-8.395-50.372-59.559-117.368-95.782-117.368z" fill="#818182"/></svg>