<svg id="Layer_1" enable-background="new 0 0 512.027 512.027" height="512" viewBox="0 0 512.027 512.027" width="512" xmlns="http://www.w3.org/2000/svg"><path d="m512.014 368.027c0 47.88 0 89.28-24.31 102.04-4.914 6.212-11.846 52.728-61.63 32.82-18.91-7.57-26.1-4.11-36.97 1.11-7.44 3.58-16.71 8.03-29.09 8.03-35.632 0-72-24.86-72-64 0-21.087 8.294-42.927 13.6-62.38-29.949 8.358-61.256 8.357-91.2 0 5.346 19.6 13.6 41.308 13.6 62.38 0 39.174-36.518 64-72 64-12.38 0-21.65-4.45-29.09-8.03-10.87-5.229-18.06-8.68-36.97-1.11-49.695 19.872-56.574-26.429-61.63-32.82-24.31-12.76-24.31-54.16-24.31-102.04 0-38.433 12.96-76.977 41.82-104.27 12.39-11.77 22.18-21.07 22.18-71.73 0-23.6 5.78-45.1 13.51-63.29 12.346-29.067 32.742-54.303 39.45-60.27 17.979-59.033 85.942-80.726 139.03-61.67 53.304-19.133 121.119 2.795 139.05 61.67 6.142 5.467 26.611 30.045 39.45 60.27 7.73 18.19 13.51 39.69 13.51 63.29 0 50.66 9.79 59.96 22.18 71.73 29.079 27.499 41.82 66.342 41.82 104.27z" fill="#aaa"/><path d="m440.004 177.217c-1.12 45.05-11.91 83.22-32.05 113.44-12.301 18.453-27.954 64.701-37 82.82-15.03 30.06-51.27 42.26-79.24 47.2 2.91-12.193 6.915-24.084 9.9-35.03-29.949 8.358-61.256 8.357-91.2 0 2.983 10.937 7.018 22.956 9.9 35.03-27.97-4.93-64.21-17.13-79.23-47.18-9.266-18.558-24.673-64.357-37.01-82.84-20.14-30.22-30.93-68.38-32.05-113.43-.444-17.775 3.256-34.581 5.5-48.49 12.346-29.067 32.742-54.303 39.45-60.27 17.979-59.033 85.942-80.726 139.03-61.67 53.304-19.133 121.119 2.795 139.05 61.67 6.142 5.467 26.611 30.045 39.45 60.27 1.587 9.84 5.955 30.271 5.5 48.48z" fill="#999"/><path d="m408.014 176.427c-.97 38.91-9.95 71.37-26.69 96.48-14.872 22.308-30.432 69.116-39 86.28-13.47 26.94-66.87 32.84-86.31 32.84s-72.84-5.9-86.31-32.84c-8.425-16.879-24.267-64.18-39-86.28-16.74-25.11-25.72-57.57-26.69-96.48-.564-22.731 8-46.009 8-72.4 0-74.63 55.78-102.66 103.55-103.99 17.12-.46 32.11 3.77 40.44 6.76 8.33-2.99 23.32-7.24 40.46-6.76 47.77 1.33 103.55 29.36 103.55 103.99 0 26.253 8.56 49.808 8 72.4z" fill="#aaa"/><path d="m344.014 88.027c-16-16-48-8-40 16s24-16 40 0 16 0 0-16z" fill="#ffbd7b"/><path d="m317.114 292.317c-34.605 47.571-87.58 47.592-122.2 0 7.78.7 15.17-.32 21.1-4.27 24-16 40-40 40-72 0 32 16 56 40 72 5.93 3.95 13.32 4.971 21.1 4.27z" fill="#ea8692"/><path d="m272.014 136.027c-16-24 40-36.775 40-88 0-40-56-40-56-40s-56 0-56 40c0 51.225 56 64 40 88s-104 64-104 128c0 40 48 40 72 40s48-33 48-33 24 33 48 33 72 0 72-40c0-64-88-104-104-128z" fill="#f2f2f2"/><g fill="#818182"><path d="m304.014 180.027c0 19.93-21.41 44-48 44s-48-24.07-48-44c0-20.19 21.08-36 48-36s48 15.81 48 36z"/><circle cx="180.014" cy="140.027" r="20"/><circle cx="332.014" cy="140.027" r="20"/></g><path d="m168.014 88.027c16-16 48-8 40 16s-24-16-40 0-16 0 0-16z" fill="#ffbd7b"/></svg>