<svg id="Layer_1" enable-background="new 0 0 512 512" height="512" viewBox="0 0 512 512" width="512" xmlns="http://www.w3.org/2000/svg"><path d="m512 223.871c0 31.393-50.45 73.354-77.8 108.03-8.15 10.31-10.09 15.06-10.55 16.62 2.732 12.781-10.204 23.253-22.11 17.97-9.873 22.24-29.513 64.896-52.48 72.56-18.658 6.222-85.93 23.984-91.9 24.78-2.052.114-3.9-.116-5.17-.47-20.774-5.196-68.543-17.497-89.05-24.31-22.807-7.61-42.288-49.602-52.48-72.56-12.08 5.303-24.811-5.333-22.11-17.97-.46-1.56-2.4-6.31-10.55-16.62-27.34-34.663-77.8-76.645-77.8-108.03 0-38.556 24.824-54.082 42.69-80.88 14.141-21.211 8.316-33.367 43.71-59.92 30.18-22.63 51.7-16.95 64.77-8.63 46.304-35.052 163.273-35.115 209.66 0 13.07-8.32 34.6-14 64.77 8.63 35.454 26.598 29.487 38.586 43.71 59.92 17.858 26.787 42.69 42.32 42.69 80.88z" fill="#818182"/><path d="m332.56 279.871c-69.6 0-76.56 64-76.56 64s-6.96-64-76.56-64c-50.39 0-42.4 104.88-5.07 162.74 7.968 2.365 75.849 21.26 81.71 21.26 5.515 0 72.481-18.568 81.55-21.26 37.33-57.86 45.32-162.74-5.07-162.74z" fill="#c79a83"/><path d="m296 239.871c-16 0-32 0-32-16s16-40 16-56-24-40-24-40-24 24-24 40 16 40 16 56-16 16-32 16-48 36.26-48 80c0 40 24 72 88 72s88-32 88-72c0-43.74-32-80-48-80z" fill="#f2f2f2"/><path d="m167.78 98.501-8 48c-.84 5.05-4.05 9.39-8.62 11.68-1.16.58-2.91 1.45-3.4 8.56-.65 9.35 1.53 23.55 4.02 38.5 8.86 53.135-16.604 138.074-36.47 157.94-11.183 11.218-30.295.943-26.96-14.66-.46-1.56-2.4-6.31-10.55-16.62-27.34-34.663-77.8-76.645-77.8-108.03 0-38.556 24.786-54.024 42.69-80.88 14.141-21.211 8.316-33.367 43.71-59.92 43.1-32.33 68.55-6.88 76.91 1.49 3.66 3.65 5.32 8.84 4.47 13.94z" fill="#999"/><path d="m512 223.871c0 31.393-50.45 73.354-77.8 108.03-8.15 10.31-10.09 15.06-10.55 16.62 3.326 15.56-15.755 25.901-26.96 14.66-19.915-19.874-45.297-105.001-36.47-157.94 2.49-14.95 4.67-29.15 4.02-38.5-.49-7.11-2.24-7.98-3.4-8.56-4.57-2.29-7.78-6.63-8.62-11.68l-8-48c-.85-5.1.81-10.29 4.47-13.94 8.36-8.37 33.81-33.81 76.91-1.49 35.454 26.598 29.487 38.586 43.71 59.92 17.886 26.829 42.69 42.32 42.69 80.88z" fill="#999"/><circle cx="192" cy="207.871" fill="#a07765" r="16"/><circle cx="320" cy="207.871" fill="#a07765" r="16"/><path d="m339.146 304.142c-8.668-1.732-17.086 3.846-18.819 12.511-.058.272-5.96 27.219-24.327 27.219-13.9 0-20.882-3.542-24-5.914v-31.715c11.616-8.064 19.199-23.172 8-34.371-4.686-4.687-16-8-24 0-8-8-19.314-4.687-24 0-11.199 11.199-3.616 26.307 8 34.371v31.715c-3.118 2.372-10.099 5.914-24 5.914-18.249 0-24.193-26.6-24.325-27.21-1.766-8.624-10.175-14.209-18.813-12.479-8.665 1.733-14.285 10.162-12.552 18.827.261 1.302 2.752 13.065 9.97 25.095 10.744 17.906 26.981 27.768 45.72 27.768 18.846 0 31.6-4.78 40-10.166 8.4 5.385 21.154 10.166 40 10.166 18.739 0 34.976-9.861 45.72-27.768 7.218-12.029 9.709-23.793 9.97-25.095 1.732-8.666-3.878-17.136-12.544-18.868z" fill="#818182"/><g fill="#c79a83"><path d="m216 159.871s16 8 16 24-16 16-16 0 0-16 0-24z"/><path d="m296 159.871s-16 8-16 24 16 16 16 0 0-16 0-24z"/></g></svg>