<svg id="Layer_1" enable-background="new 0 0 512 512" height="512" viewBox="0 0 512 512" width="512" xmlns="http://www.w3.org/2000/svg"><path d="m512 196.62c0 49.41-16.4 96.4-47.42 135.88-23.42 29.81-47 44.98-47.99 45.61-20.175 12.859-42.897-26.356-50.17-49.32-4.997 6.941-12.663 17.138-15.24 24.89-8.326 24.942-6.73 68.606-32.02 81.25-18.632 9.188-46.368-2.905-63.16-14.9-16.64 11.886-44.627 24.169-63.16 14.9-25.285-12.642-23.712-56.363-32.02-81.25-2.583-7.77-10.111-17.765-15.24-24.89-7.248 22.884-29.973 62.193-50.17 49.32-.99-.63-24.57-15.8-47.99-45.61-31.02-39.48-47.42-86.47-47.42-135.88 0-66.05 49.686-81.293 99.84-102.17 34.523-14.34 68.471-29.75 88.99-13.88 18.07-5.26 48.401-5.113 67.17-3.98 18.707-1.126 49.065-1.29 67.17 3.98 21.385-16.539 58.259 1.115 88.99 13.88 46.209 19.153 99.84 34.339 99.84 102.17z" fill="#ffebd2"/><path d="m197.72 108.85c-26.45 44.083-24.889 42.375-27.9 44.42-2.23 2.15-24.46 25.59-17.89 97.9 3.61 39.63-1.37 72.58-14.79 97.93-10.55 19.93-22.6 27.85-24.91 29.24-5.154 3.097-11.663 3.057-16.82-.23-.99-.63-24.57-15.8-47.99-45.61-31.02-39.48-47.42-86.47-47.42-135.88 0-27.7 9.25-49.25 28.28-65.87 15.832-13.83 35.518-21.557 53.74-28.979 44.583-17.908 77.884-35.251 100.85-24.79 11.93 5.443 21.535 20.701 14.85 31.869z" fill="#fff3e4"/><path d="m512 196.62c0 49.41-16.4 96.4-47.42 135.88-23.42 29.81-47 44.98-47.99 45.61-5.152 3.284-11.661 3.33-16.82.23-2.31-1.39-14.36-9.31-24.91-29.24-13.42-25.35-18.4-58.3-14.79-97.93 6.57-72.31-15.66-95.75-17.89-97.9-3.008-2.044-1.515-.446-27.9-44.42-6.682-11.165 2.914-26.423 14.85-31.87 22.396-10.201 54.127 5.759 101.61 25.1 17.53 7.06 37.4 15.06 52.98 28.67 19.03 16.62 28.28 38.17 28.28 65.87z" fill="#fff3e4"/><path d="m317.01 435.88c-18.396 7.403-44.887-4.334-61.01-15.85-16.158 11.541-42.665 23.246-61.02 15.86 26.009-72.304 5.02-53.173 5.02-115.86 0-48 56-72 56-72s56 24 56 72c0 62.66-20.975 43.537 5.01 115.85z" fill="#ffdfba"/><g fill="#999"><path d="m312 316.62c0 24.43-11.66 43.72-32.84 54.31l-16 8c-4.5 2.257-9.863 2.214-14.21.04-30.624-15.312-6.314-3.145-16.11-8.04-21.18-10.59-32.84-29.88-32.84-54.31 0-8.64 4.27-23.97 32.86-29.69 29.981-6.012 79.14-1.144 79.14 29.69z"/><circle cx="320" cy="204.615" r="16"/><circle cx="192" cy="204.615" r="16"/></g></svg>