<svg id="Layer_1" enable-background="new 0 0 511.987 511.987" height="512" viewBox="0 0 511.987 511.987" width="512" xmlns="http://www.w3.org/2000/svg"><path d="m455.166 205.06c-8.639 25.895-23.18 33.299-23.18 50.94 0 1.85-.33 3.61-.9 5.26 8.383 89.784-49.203 159.22-54.77 191.38.95 7.95.45 13.58-2.02 18.52-10.081 20.162-24.076 29.255-49.41 24.2-39.054 22.144-98.656 22.195-137.8 0-25.43 5.063-39.371-4.121-49.41-24.2-2.47-4.94-2.97-10.57-2.02-18.52-5.546-32.038-63.141-101.724-54.77-191.38-.57-1.65-.9-3.41-.9-5.26 0-17.34-14.68-25.462-23.18-50.94-10.246-30.75 15.427-80.404 24-106.12 2.36-7.08 10.9-31.94 21.72-54.79 14.85-31.36 26.87-44.15 41.46-44.15 37.19 0 56.31 50.29 62.08 75.58 10.95.2 31.17-1.36 47.94-3.46 1.31-.16 2.65-.16 3.96 0 16.77 2.1 37.02 3.65 47.94 3.46 5.77-25.3 24.89-75.58 62.08-75.58 14.59 0 26.61 12.79 41.46 44.15 14.137 29.855 17.861 45.836 28.7 73.25 11.16 28.31 25.06 63.53 17.02 87.66z" fill="#999"/><path d="m376.326 452.63c.75 6.08.86 12.76-2.03 18.53-10.118 20.252-23.563 29.19-49.34 24.19-38.966 22.124-98.782 22.239-137.93 0-29.65 5.79-41.3-8.08-49.35-24.2-2.89-5.77-2.78-12.44-2.03-18.52-5.16-29.201-55.66-93.86-55.66-172.63 0-84.08 56.49-165.74 58.89-169.18 1.884-2.655-.233-.635 43.11-35.31 5.813-4.652 14.048-4.665 19.82-.14 9.03.86 32.91-.84 52.2-3.25 1.31-.16 2.65-.16 3.96 0 19.3 2.41 43.17 4.1 52.2 3.25 5.679-4.452 13.931-4.574 19.82.14 43.415 34.732 41.231 32.662 43.11 35.31 2.4 3.44 58.89 85.1 58.89 169.18 0 78.886-50.479 143.313-55.66 172.63z" fill="#aaa"/><g fill="#999"><path d="m198.022 192c24 0 48 8 45 34-3.781 32.767-53 14-77 62-14.751 29.503-48.199-7.404-32-56 8-24 31.015-40 64-40z"/><path d="m313.951 192c-24 0-48 8-45 34 3.781 32.767 53 14 77 62 14.751 29.503 48.199-7.404 32-56-8-24-31.016-40-64-40z"/><path d="m374.296 471.16c-16.357 32.713-41.823 29.463-76.25 15.7-17.6-7.04-31.7-25.51-42.06-55-10.36 29.49-24.46 47.96-42.06 55-34.53 13.804-59.933 16.935-76.25-15.7-9.355-18.73 14.31-68.96 14.31-111.16 0-45.439 18.955-104 64-104h80c45.042 0 64 58.557 64 104 0 42.256 23.688 92.385 14.31 111.16z"/></g><path d="m288.866 349.31c-37.562 25.041-28.182 25.052-65.76 0-27.31-18.21-34.72-41.88-21.43-68.47 16.538-33.075 92.04-33.161 108.62 0 13.29 26.59 5.88 50.26-21.43 68.47z" fill="#818182"/><circle cx="175.986" cy="232" fill="#a07765" r="16"/><circle cx="335.986" cy="232" fill="#a07765" r="16"/></svg>