<svg id="Layer_1" enable-background="new 0 0 512.46 512.46" height="512" viewBox="0 0 512.46 512.46" width="512" xmlns="http://www.w3.org/2000/svg"><path d="m424.226 440.46c0 41.72-23.55 72-56 72-38.36 0-62.47-19.41-69.69-55.25-26.61 9.667-58.017 9.675-84.62-.01-7.22 35.85-31.33 55.26-69.69 55.26-32.45 0-56-30.28-56-72 0-24.971-42.868-54.044-22.31-95.16 14.63-29.26 30.31-114.75 30.31-152.84 0-33.54 18.83-51.84 34.11-59.66-.41-31.35 4.94-56.93 16-76.28 23.957-41.918 69.27-59.427 109.89-56.13 5.42-.44 21.22-1.12 39.88 3.55 30.5 7.62 54.71 25.81 70.01 52.58 11.06 19.35 16.41 44.93 16 76.28 15.28 7.82 34.11 26.12 34.11 59.66 0 38.09 15.68 123.58 30.31 152.84 20.578 41.156-22.31 70.161-22.31 95.16z" fill="#999"/><path d="m359.746 260.34c-6.981 27.904 8.69 76.658.17 119.26-6.333 31.669-1.836 59.248-21.33 69.94-7.812 4.275-16.674 3.703-25.04.86-33.796 18.716-80.667 18.788-114.63 0-8.365 2.842-17.237 3.415-25.05-.86-19.506-10.698-14.987-38.224-21.33-69.94-4.532-22.503-2.284-46.223-.14-68.71 3.799-39.78 2.266-43.287-2.28-60.49-15.31-58.069-33.868-141.248-3.78-193.88 15.652-27.31 40.063-45.104 70.01-52.58 18.66-4.67 34.46-3.99 39.88-3.55 5.42-.44 21.22-1.12 39.88 3.55 30.5 7.62 54.71 25.81 70.01 52.58 14.24 24.91 19.02 60.15 14.22 104.74-4.314 40.176-14.762 75.936-20.59 99.08z" fill="#f2f2f2"/><path d="m321.266 445.66c-36.584 25.064-93.477 25.077-130.08 0-10.029-6.894-9.01-22.05 1.89-27.51 22.792-11.407 47.15-74.078 47.15-97.69 0-8.84 7.16-16 16-16s16 7.16 16 16c0 23.799 24.438 86.322 47.15 97.69 10.883 5.452 11.937 20.604 1.89 27.51z" fill="#ece2e2"/><path d="m359.746 260.34c-6.981 27.904 8.69 76.658.17 119.26-6.333 31.669-1.836 59.248-21.33 69.94-10.678 5.843-22.737 2.605-33.52-2.77-22.693-11.347-39.035-40.643-48.84-64.05-9.802 23.4-26.144 52.702-48.84 64.05-10.768 5.368-22.833 8.617-33.52 2.77-19.506-10.698-14.987-38.224-21.33-69.94-8.566-42.828 7.194-91.187.17-119.26-4.659-18.499-16.122-57.473-20.59-99.08-4.8-44.59-.02-79.83 14.22-104.74 23.957-41.918 69.27-59.427 109.89-56.13 5.42-.44 21.22-1.12 39.88 3.55 30.5 7.62 54.71 25.81 70.01 52.58 14.24 24.91 19.02 60.15 14.22 104.74-4.314 40.176-14.762 75.936-20.59 99.08z" fill="#f2f2f2"/><path d="m216.226 208.46c-25.34 21.12-64 104-64 152 0 4.03-.4 7.58-1.12 10.32-5.05-39.82 8.089-84.503 1.6-110.44-16.047-63.724-41.164-155.668-.34-213.28 27.6-8.77 71.14-16.04 87.86 17.4 8 16 24 104-24 144z" fill="#a07765"/><path d="m296.226 208.46c25.34 21.12 64 104 64 152 0 4.03.4 7.58 1.12 10.32 5.05-39.82-8.089-84.503-1.6-110.44 16.047-63.724 41.164-155.668.34-213.28-27.6-8.77-71.14-16.04-87.86 17.4-8 16-24 104 24 144z" fill="#a07765"/><circle cx="204.226" cy="140.46" fill="#818182" r="20"/><circle cx="308.226" cy="140.46" fill="#818182" r="20"/><path d="m207.816 88.46s40 8 32 24c-15.237 30.474-60.628-24-32-24z" fill="#f2a661"/><path d="m304.636 88.46s-40 8-32 24c15.237 30.474 60.628-24 32-24z" fill="#f2a661"/><path d="m296.226 276.46c0 10.29-12.87 52-40 52-27.14 0-40-41.71-40-52 0-37.355 80-37.312 80 0z" fill="#818182"/></svg>