<svg id="Layer_1" enable-background="new 0 0 512.014 512.014" height="512" viewBox="0 0 512.014 512.014" width="512" xmlns="http://www.w3.org/2000/svg"><path d="m492.192 274.738c-12.092 26.885-15.405 35.226-8.96 60.47 1.86 7.35 4.19 16.5-2.24 24.75-6.86 8.82-18.65 8.82-24.98 8.82-14.25 0-27.09-7.87-37.94-19.48-.88 3.1-1.93 6.24-3.2 9.43-15.255 38.14-17.017 87.444-67.49 97.69-3.511 1.003-10.777 1.431-17.4.14-24.17-.79-41.58-3.479-54.85-5.53-19.095-2.97-19.168-2.966-38.24 0-13.27 2.05-30.68 4.74-54.85 5.53-6.649 1.291-14.012.829-17.4-.14-50.394-10.23-52.067-59.131-67.49-97.69-1.27-3.19-2.32-6.33-3.2-9.43-10.85 11.61-23.69 19.48-37.94 19.48-6.33 0-18.12 0-24.98-8.82-6.43-8.25-4.1-17.4-2.24-24.75 6.462-25.309 3.132-33.585-8.96-60.47-37.994-84.535-22.003-116.976 53.21-180.01 7.96-6.68 14.84-12.44 19.66-17.26 24.12-24.12 69.28-22.86 87.49-21.2 24.405-4.701 52.524-.255 75.82 7.52 23.296-7.775 51.415-12.222 75.82-7.52 18.22-1.66 63.37-2.92 87.49 21.2 4.82 4.82 11.7 10.58 19.66 17.26 74.988 62.846 91.3 95.262 53.21 180.01z" fill="#f2a661"/><path d="m423.392 229.178c-14.903 52.174 9.418 84.686-8.52 129.55-9.803 24.509-13.487 49.916-26.15 69.63-14.96 23.282-40.626 31.731-58.74 28.2-24.17-.79-41.58-3.479-54.85-5.53-19.095-2.97-19.168-2.966-38.24 0-13.27 2.05-30.68 4.74-54.85 5.53-6.649 1.291-14.012.829-17.4-.14-38.483-7.812-48.579-38.132-58.29-70.23-12.79-42.304-19.428-41.324-14.38-91.85 1.95-19.45 3.97-39.57-3.34-65.16-18.114-63.358 10.012-93.266 42.07-141.27 26.482-39.731 80.004-39.24 125.31-24.12 45.271-15.108 98.816-15.63 125.31 24.12 31.796 47.613 60.251 77.676 42.07 141.27z" fill="#ffaa64"/><path d="m403.212 394.598c-9.704 31.208-21.957 55.314-55.83 62.19-3.552.99-10.795 1.421-17.4.14-39.625-1.295-61.851-7.78-73.97-7.78 0-2.645-30.928 6.004-73.97 7.41 36.492-7.117 58.786-60.17 73.97-71.21 17.374 12.633 44.143 80.494 91.14 71.12 33.8-6.76 46.193-30.674 55.92-61.77.05-.04.09-.069.14-.1z" fill="#aaa"/><path d="m403.072 394.698c-9.858 31.514-22.33 55.052-55.92 61.77-47.026 9.38-73.733-58.463-91.14-71.12-15.033 10.931-37.54 64.105-73.97 71.21-1.199 0-10.511 3.07-27.07-2.78-27.423-9.616-37.81-32.578-46.16-59.55 12.26 8.54 31.73 18.48 51.2 13.61 32-8-8-24 8-64s48-32 48-64 40-48 40-48v.37s40 16 40 48 32 24 48 64-24 56 8 64c19.4 4.85 38.79-4.999 51.06-13.51z" fill="#999"/><path d="m289.912 335.089c-7.4 3.7-13.6 7.42-17.9 10.17v23.52c0 8.84-7.16 16-16 16s-16-7.16-16-16v-23.52c-4.29-2.75-10.5-6.46-17.9-10.17-25.151-12.554-28.406-49.374-12.16-65.62 16.975-16.975 75.142-16.977 92.12 0 15.987 15.987 13.309 52.907-12.16 65.62z" fill="#818182"/><g fill="#a07765"><circle cx="172.012" cy="204.782" r="20"/><circle cx="340.012" cy="204.782" r="20"/></g></svg>