<svg id="Layer_1" enable-background="new 0 0 512 512" height="512" viewBox="0 0 512 512" width="512" xmlns="http://www.w3.org/2000/svg"><path d="m512 187.351c0 20.96-9.46 28.58-17.4 31.28-12.1 4.12-26.07-1.46-45.09-18.49.37 7.84-.14 15.65-1.96 22.97-1.165 21.446 96.44 98.9-4.24 199.55-14.787 14.798-34.795 31.743-55.11 26.32-6.44-1.73-11.56-5.24-15.81-10.09-17.94 13.6-52.22 28.46-116.39 28.46s-98.45-14.86-116.39-28.46c-4.25 4.85-9.37 8.36-15.81 10.09-20.297 5.418-40.273-11.483-55.11-26.32-100.598-100.567-3.082-178.286-4.24-199.55-1.82-7.32-2.33-15.13-1.96-22.97-19.02 17.03-32.99 22.61-45.09 18.49-7.94-2.7-17.4-10.32-17.4-31.28 0-52.863 18.97-106.853 63.77-133.72 27.863-16.727 54.209-9.251 70.74 15.44 41.494-20.944 89.754-19.57 121.49-4.07 31.782-15.523 80.044-16.85 121.49 4.07 16.53-24.691 42.876-32.167 70.74-15.44 44.802 26.869 63.77 80.861 63.77 133.72z" fill="#e0b7a3"/><path d="m512 187.351c0 20.96-9.46 28.58-17.4 31.28-12.1 4.12-26.07-1.46-45.09-18.49.37 7.84-.14 15.65-1.96 22.97-.372 6.856 24.452 42.955 23.94 45-.16 2.64 3.42 8.86 7.5 15.17 22.581 53.381 4.653 99.059-35.68 139.38-13.09 13.1-29.82 27.36-47.16 27.36-8.642 0-17.058-3.482-23.76-11.13-17.94 13.6-52.22 28.46-116.39 28.46s-98.45-14.86-116.39-28.46c-6.689 7.633-15.128 11.13-23.76 11.13-17.34 0-34.06-14.26-47.16-27.36-40.493-40.481-58.193-86.19-35.69-139.34 4.08-6.32 7.67-12.57 7.51-15.21-.51-2.038 24.312-38.171 23.94-45-1.82-7.32-2.33-15.13-1.96-22.97-19.02 17.03-32.99 22.61-45.09 18.49-7.94-2.7-17.4-10.32-17.4-31.28 0-24.44 4.07-47.99 11.8-68.54 35.129-33.684 79.639-41.766 107.52-4.74 45.99-20.634 100.317-19.856 136.68-4.07 36.132-15.686 90.389-16.699 136.68 4.07 28.194-37.442 72.832-28.521 107.52 4.74 7.73 20.55 11.8 44.1 11.8 68.54z" fill="#c79a83"/><g fill="#a07765"><path d="m256 127.991c0 40 0-8-40 0s-56 8-24-8c0 0 64-32 64 8z"/><path d="m296 127.991c-40-8-40 40-40 0s64-8 64-8c32 16 16 16-24 8z"/><path d="m143.622 159.991c16-8 88-8 80 24s-40-16-88 8-8-24 8-32z"/><path d="m368.378 159.991c-16-8-88-8-80 24s40-16 88 8 8-24-8-32z"/><path d="m488.59 320.621c-2.971-35.91-24.855-65.12-28.65-72.71-3.38 43.99-7.71 132.16-43.94 120.08-48-16-49.6-91.2-88-120-32-24-72-16-72-16s-40-8-72 16c-38.4 28.8-40 104-88 120-36.23 12.08-40.56-76.09-43.94-120.08-12.099 24.199-67.391 90.754 16.63 174.75 13.1 13.1 29.82 27.36 47.16 27.36 8.642 0 17.058-3.482 23.76-11.13 17.94 13.6 52.22 28.46 116.39 28.46s98.45-14.86 116.39-28.46c6.689 7.633 15.128 11.13 23.76 11.13 17.34 0 34.06-14.26 47.16-27.36 32.93-32.92 48.16-67.25 45.28-102.04z"/></g><path d="m172.495 327.043c-5.171 0-10.244-2.501-13.327-7.126-14.702-22.052-7.554-52.989-6.69-56.444 2.142-8.573 10.829-13.787 19.401-11.644 8.573 2.142 13.786 10.829 11.644 19.402-1.257 5.198-3.57 22.174 2.271 30.936 7.152 10.727-.724 24.876-13.299 24.876z" fill="#ece2e2"/><path d="m339.505 327.043c-12.599 0-20.44-14.165-13.298-24.877 6.04-9.06 3.327-26.706 2.271-30.936-2.143-8.573 3.07-17.26 11.644-19.402 8.574-2.143 17.26 3.071 19.401 11.644.863 3.455 8.012 34.393-6.69 56.444-3.084 4.625-8.158 7.127-13.328 7.127z" fill="#ece2e2"/><path d="m389.89 419.371c-5.76 11.26-32.45 47.98-133.89 47.98s-128.13-36.72-133.89-47.98c-2.04-3.99-2.32-8.65-.76-12.85 15.859-42.907 23.64-155.17 134.65-155.17 111.12 0 118.963 112.73 134.65 155.17 1.56 4.2 1.28 8.86-.76 12.85z" fill="#a07765"/><path d="m382.49 378.811c-27.796 30.841-84.977 37.54-126.49 37.54-41.427 0-98.621-6.619-126.49-37.54 7.048-26.416 14.575-53.213 29.52-76.43 21.77-33.86 54.39-51.03 96.97-51.03s75.2 17.17 96.98 51.04c14.962 23.251 22.539 50.292 29.51 76.42z" fill="#e0b7a3"/><path d="m382.49 378.811c-27.796 30.841-84.977 37.54-126.49 37.54-41.427 0-98.621-6.619-126.49-37.54 1.55-5.81 3.19-11.97 5.03-18.32 27.084-42.937 69.668-61.14 121.46-61.14 51.781 0 94.373 18.198 121.46 61.14 1.84 6.35 3.48 12.51 5.03 18.32z" fill="#c79a83"/><circle cx="172" cy="191.351" fill="#999" r="20"/><circle cx="340" cy="191.351" fill="#999" r="20"/><path d="m256 251.351c-53.159 0-30.716-40 0-40 30.723 0 53.15 40 0 40z" fill="#999"/></svg>