<svg id="Layer_1" enable-background="new 0 0 512.011 512.011" height="512" viewBox="0 0 512.011 512.011" width="512" xmlns="http://www.w3.org/2000/svg"><path d="m476.696 227.31c-2.94-2.93-5.86-5.43-8.69-7.54 17.396 51.129 30.19 118.925 1.57 164.71-4.384 7.011-13.306 9.453-20.6 5.9-12.953 53.221-40.622 115.451-95.2 121.52-11.363 1.345-20.681-9.724-16.95-20.96 2.76-8.27 4.69-15.82 5.81-22.69-16.99 16.71-39.72 33.13-67.66 40.44-12.271 4.43-25.755 4.399-37.94 0-27.94-7.31-50.67-23.73-67.66-40.44 1.12 6.87 3.05 14.42 5.81 22.69 3.737 11.254-5.602 22.303-16.95 20.96-54.569-6.068-82.242-68.28-95.2-121.52-7.373 3.591-16.272 1.023-20.6-5.9-28.643-45.822-15.794-113.674 1.57-164.71-2.83 2.11-5.75 4.61-8.69 7.54-11.782 11.804-31.598-.21-26.57-16.13 10.5-33.23 26.22-61.49 46.78-84.13-4.52-98.62 10.2-114.14 15.1-119.32 4.73-4.98 10.9-7.73 17.38-7.73 25.518 0 70.27 46.405 87.09 65.58 10.06-1.39 18.9-1.91 25.89-2.03-.65-3.72-2.32-7.13-6.04-8.37-15.959-5.328-13.86-28.64 2.8-31.02 27.5-3.93 51.48 4.46 69.14 23.79 8.5-5.23 18.32-7.95 29.12-7.95 10.954 0 19.846 11.107 14.12 23.54 7.12.08 16.29.59 26.79 2.04 16.82-19.175 61.572-65.58 87.09-65.58 39.954 0 32.48 85.885 32.48 127.05 20.56 22.64 36.28 50.9 46.78 84.13 5.026 15.915-14.786 27.937-26.57 16.13z" fill="#f2f2f2"/><path d="m312.006 404.05v51.95c0 37.612-36.263 64.219-71.96 53.68-.1-.034-3.017-1-3.05-1-21.55-7.8-36.99-28.47-36.99-52.68v-51.95c0-8.84 7.16-16 16-16 4.877 0 12.154 3.559 22.45 3.92.26-.6.5-1.36.7-2.17-1.84-.5-3.62-1.09-5.34-1.75h44.38c-1.72.67-3.5 1.25-5.34 1.75.21.83.45 1.58.7 2.17 7.107-.249 13.537-2.159 20.4-3.92h2.05c8.84 0 16 7.16 16 16z" fill="#ea8692"/><path d="m136.006 336c0-40-8.498-144 56-144 56 0 48 72 48 96 0 26.249-40-24-104 48z" fill="#ece2e2"/><path d="m376.031 336c0-40 8.498-144-56-144-56 0-48 72-48 96 0 26.249 40-24 104 48z" fill="#ece2e2"/><path d="m456.486 126.99c-.16.01-.32.01-.48.01-48 0-80 1-72-39 5.43-27.15 39.89-58 61.47-75.01 6.12 10.02 14.58 36.02 11.01 114z" fill="#ffa4b8"/><path d="m55.13 128.49c.16.01.32.01.48.01 48 0 80 1 72-39-5.43-27.15-39.89-58-61.47-75.01-6.12 10.02-14.58 36.02-11.01 114z" fill="#ffa4b8"/><circle cx="180.006" cy="252" fill="#999" r="20"/><circle cx="332.006" cy="252" fill="#999" r="20"/><g fill="#ece2e2"><path d="m256.005 279.393c-17.686-4.567-78.933-16.814-108.799 23.008-18.973 25.297-23.884 56.834-18.723 77.48l.015-.004c1.736 6.959 8.01 12.123 15.507 12.123 10.206 0 18.08-9.558 15.507-19.877.238-.061-6.201-24.532 13.292-50.523 20.466-27.287 77.763-10.531 78.44-10.324 3.241 1.018 6.71.915 9.545-.008.573-.179 57.792-17.164 78.415 10.332 20.273 27.031 12.533 53.596 13.277 50.52l.015.004c-2.566 10.299 5.284 19.876 15.51 19.876 7.497 0 13.771-5.164 15.507-12.123 1.145.295 9.099-40.402-18.708-77.477-29.866-39.822-91.114-27.574-108.8-23.007z"/><path d="m244.298 149.757c-.811-.971-20.167-23.784-50.056-23.018-22.522.577-43.731 13.921-63.036 39.661-25.019 33.357-38.225 57.454-42.819 78.129-5.409 24.344 1.277 42.563 9.309 58.626 3.944 7.891 13.548 11.114 21.466 7.155 7.903-3.951 11.107-13.563 7.155-21.466-11.642-23.284-16.397-40.729 30.489-103.245 8.971-11.961 22.848-26.331 38.013-26.864 15.079-.484 26 12.808 24.896 11.508l.003-.002c9.537 11.431 28.289 4.721 28.289-10.241-.001-7.034-3.951-10.041-3.709-10.243z"/><path d="m423.625 244.529c-4.595-20.675-17.801-44.771-42.819-78.129-58.337-77.785-113.828-17.257-113.089-16.641-8.591 10.298-1.353 26.241 12.289 26.241 8.226 0 12.192-5.84 12.292-5.757-2.486 2.926 8.951-12.012 24.896-11.508 15.165.533 29.042 14.903 38.013 26.864 46.887 62.517 42.131 79.961 30.489 103.245-5.355 10.709 2.539 23.159 14.298 23.159 5.869-.001 11.521-3.242 14.323-8.849 8.031-16.061 14.717-34.281 9.308-58.625z"/><path d="m345.381 394.688c-29.85-19.902-50.918-3.431-71.323-2.715-.802-1.89-1.513-5.415-1.553-8.083.002.174 2.601.11-32.999.11.009-.964.036 4.23-1.552 7.973-20.466-.719-41.448-17.204-71.323 2.715-36.26 24.176-36.028 65.201-22.304 106.372 2.794 8.383 11.856 12.913 20.238 10.119 8.383-2.794 12.914-11.855 10.119-20.238-11.752-35.257-8.671-57.381 9.697-69.628 16.703-11.139 26.901 2.688 55.124 2.688 6.547 0 12.024-1.849 16.5-4.94 4.476 3.091 9.953 4.94 16.5 4.94 28.08 0 38.438-13.815 55.124-2.688 18.368 12.247 21.449 34.371 9.697 69.628-2.795 8.383 1.736 17.444 10.119 20.238 8.382 2.794 17.444-1.736 20.238-10.119 13.726-41.172 13.957-82.197-22.302-106.372z"/></g><path d="m304.006 356c0 20.19-21.08 36-48 36s-48-15.81-48-36c0-19.81 10.35-28.44 19.03-32.19 8.83-3.81 18.61-3.81 28.97-3.81s20.14 0 28.97 3.81c8.68 3.75 19.03 12.38 19.03 32.19z" fill="#999"/></svg>