<svg id="Layer_1" enable-background="new 0 0 512 512" height="512" viewBox="0 0 512 512" width="512" xmlns="http://www.w3.org/2000/svg"><path d="m495.52 311.721c9.693 38.688-29.588 58.887-66.46 26.26-.93 15.524-1.045 30.252-3.83 45.44 8.378 43.758-12.217 71.06-46.97 76.02-11.016 1.571-22.391 1.518-32.96-1.51-15.04-2.504-18.416-6.33-33.3-6.33-19.834 0-35.077 16-56 16-20.912 0-36.168-16-56-16-14.929 0-18.146 3.808-33.3 6.33-10.669 3.051-22.06 3.064-32.96 1.51-34.795-4.966-55.336-32.322-46.97-76.02-2.784-15.182-2.894-29.824-3.83-45.44-36.929 32.678-76.135 12.357-66.46-26.26 6.57-26.314-16.48-82.931-16.48-116.12 0-20.79 8.36-49.72 48.01-69.89 8.841-11.174 13.54-63.995 52.11-73.63 23.19-5.8 42.54 3.39 55.56 13.22 20.42-12.71 43.97-18.3 63.54-20.61 13.33-1.57 26.72 2.62 36.78 11.48 10.06-8.87 23.46-13.05 36.78-11.48 19.57 2.31 43.12 7.9 63.54 20.61 13.02-9.84 32.37-19.02 55.56-13.22 38.507 9.619 43.311 62.509 52.11 73.63 39.65 20.17 48.01 49.1 48.01 69.89 0 33.716-23.123 89.513-16.48 116.12z" fill="#f2a661"/><path d="m438.86 289.541c-13.711 34.277-7.805 62.293-13.63 93.99 7.54 38.819-8.033 70.353-46.97 75.91-13.944 2-24.594 1.628-47.18-4.9-20.551-5.936-30.071-2.391-46.22 4.86-24.393 10.96-33.235 11.001-57.72 0-16.498-7.408-25.893-10.731-46.22-4.86-22.559 6.52-33.206 6.904-47.19 4.9-39.112-5.585-54.456-37.318-46.96-75.91-5.84-31.778.105-59.651-13.63-93.99-20.353-50.894 21.912-142.514 48.97-189.88 22.04-38.57 64.97-51.18 97.11-54.97 13.32-1.58 26.72 2.61 36.78 11.48 10.06-8.87 23.46-13.06 36.78-11.48 32.14 3.79 75.07 16.4 97.11 54.97 27.059 47.367 69.322 138.987 48.97 189.88z" fill="#ffbd7b"/><path d="m183.352 263.981s-24-32-56-24-16-48 32-64 40 0 32 16 24 16 16 40c-3.577 10.733-40 48-24 32z" fill="#999"/><path d="m328.648 263.981s24-32 56-24 16-48-32-64-40 0-32 16-24 16-16 40c3.577 10.733 40 48 24 32z" fill="#999"/><path d="m364.18 445.941c-1.92 8.16-9.83 13.46-18.1 12.13-6.28-1.01-10.91-2.35-15-3.53-20.551-5.936-30.071-2.391-46.22 4.86-24.393 10.96-33.235 11.001-57.72 0-16.498-7.408-25.893-10.731-46.22-4.86-4.09 1.18-8.72 2.52-15 3.53-8.28 1.33-16.18-3.97-18.1-12.13-1.93-8.16 2.78-16.43 10.78-18.94 19.818-6.214 22.286-36.918 35.09-62.56 19.07-38.14 56.83-47.96 58.43-48.36 2.55-.64 5.21-.64 7.76 0 1.6.4 39.36 10.22 58.43 48.36 12.745 25.524 15.288 56.351 35.09 62.56 8 2.51 12.71 10.78 10.78 18.94z" fill="#818182"/><path d="m423.77 423.771c-8.605 25.828-32.024 36.69-59.25 36.69-18.3 0-33.16-5.93-44.3-17.7-28.856-30.496-17.049-75.645-64.25-94.3-46.705 18.265-35.621 64.108-64.19 94.3-13.81 14.6-33.34 20.21-58.04 16.68-22.77-3.25-38.93-15.92-45.51-35.67-10.23-30.69 5.28-72.31 20.46-87.48 17.125-17.126 35.28-24.409 61-75.85 28.42-56.84 60.52-56.84 86.31-56.84s57.89 0 86.31 56.84c25.716 51.432 43.834 58.684 61 75.85 15.18 15.17 30.69 56.79 20.46 87.48z" fill="#999"/><path d="m312 243.601c0 22.11-25.09 56-56 56s-56-33.89-56-56c0-25.898 29.044-40 56-40 27.628 0 56 14.633 56 40z" fill="#818182"/><circle cx="160" cy="203.601" fill="#a07765" r="16"/><circle cx="352" cy="203.601" fill="#a07765" r="16"/><path d="m256 195.6c8.836 0 16-7.163 16-16v-40c0-8.837-7.164-16-16-16s-16 7.163-16 16v40c0 8.837 7.164 16 16 16z" fill="#f2a661"/></svg>