<svg id="Layer_1" enable-background="new 0 0 511.956 511.956" height="512" viewBox="0 0 511.956 511.956" width="512" xmlns="http://www.w3.org/2000/svg"><path d="m498.239 172.938c-5.957 9.219-8.654 11.554-9.26 38.32-.17 7.76-.34 15.1-1.94 21.39-4.638 18.127-22.134 24.583-36.82 14.72 4.62 6.49 10.44 10.91 18.37 13.28 8.684 2.601 13.432 11.867 10.59 20.39-15.62 46.85-62.76 72.89-76.9 79.8-3.929 38.879-20.141 87.203-35.75 121.85-2.67 5.78-8.42 9.29-14.53 9.29-9.591 0-17.079-8.417-15.88-17.98 1.03-8.32 2.26-24.59 1.78-41.57-2.51 2.78-4.8 5.07-6.59 6.86-9.736 9.755-26.467 3.385-27.27-10.37-14.678 17.299-36.91 31.06-48.08 31.06-7.822 0-29.769-9.526-48.04-31.06-.803 13.758-17.537 20.122-27.27 10.37-1.79-1.79-4.09-4.08-6.59-6.86-.48 16.98.75 33.26 1.78 41.57 1.186 9.569-6.297 17.98-15.89 17.98-6.1 0-11.85-3.51-14.52-9.29-15.219-33.118-31.853-83.29-35.75-121.85-14.15-6.91-61.28-32.95-76.9-79.8-2.843-8.528 1.913-17.797 10.59-20.39 7.93-2.37 13.75-6.79 18.37-13.28-14.722 9.887-32.196 3.391-36.82-14.72-1.6-6.29-1.77-13.63-1.95-21.39-.581-26.728-3.306-29.12-9.25-38.32-6.78-10.48-14.47-22.36-13.66-34.05.83-12.13 7.51-29.75 34.61-44.88 28.187-15.739 45.562-68.441 89.17-57.55 25.84 6.46 42.71 21.58 53.32 32.95 35.349-9.19 52.324-5.238 60.18-22.93 2.42-5.46 2.62-10.45 2.62-10.5 0-8.84 7.16-16 16-16s16 7.16 16 16c.262 0-.027 4.969 3.04 11.32 8.085 16.759 24.542 12.943 59.8 22.11 10.61-11.37 27.47-26.49 53.32-32.95 43.87-10.979 60.567 41.578 89.17 57.55 27.1 15.13 33.78 32.75 34.61 44.88.8 11.69-6.88 23.57-13.66 34.05z" fill="#999"/><path d="m479.179 281.038c-17.44 52.31-74.19 78.69-80.41 81.44l-4.6 2.29c-10.924 5.43-23.747-2.92-23.1-15.18.61-11.53-.21-21.36-2.46-29.22-10.01-35.05-72.6-47.6-91.55-50.61-5.398-.857-9.842-4.396-11.96-8.97-5.495-1.079-12.767-1.083-18.28 0-2.14 4.623-6.592 8.128-11.96 8.98-18.94 3.01-81.5 15.54-91.52 50.61-2.24 7.84-3.06 17.67-2.45 29.23.482 9.164-6.82 16.85-15.98 16.85-4.598 0-7.249-1.729-11.75-3.99-6.34-2.81-62.96-29.19-80.38-81.43-2.843-8.528 1.913-17.797 10.59-20.39 36.415-10.893 29.98-71.212 53.88-126.97 23.36-54.51 73.09-63.7 105.99-69.79 15.552-2.883 28.016-3.708 34.1-17.41 2.42-5.46 2.62-10.45 2.62-10.5 0-8.84 7.16-16 16-16 9.672 0 16.194 7.679 16.04 15.9.04.75.37 5.97 3 11.42 3.31 6.84 8.83 11.14 16.88 13.16 30.695 7.691 95.17 8.675 122.83 73.22 23.776 55.467 17.576 116.111 53.88 126.97 8.702 2.601 13.426 11.884 10.59 20.39z" fill="#aaa"/><path d="m329.339 386.128c-8.78 21.7-29.31 60.04-68.28 73.03-3.392 1.123-6.949 1.063-10.16 0-38.98-12.99-59.51-51.33-68.27-73.04-1.42-3.5-1.55-7.39-.37-10.97 11.12-33.94 36.28-76 70.56-82.86 2.07-.41 4.25-.41 6.32 0 34.28 6.86 59.44 48.92 70.56 82.86 1.18 3.58 1.05 7.47-.36 10.98z" fill="#aaa"/><path d="m366.529 482.688c-2.67 5.78-8.42 9.29-14.53 9.29-9.633 0-17.062-8.453-15.88-17.98 1.03-8.32 2.27-24.59 1.78-41.57-2.5 2.78-4.8 5.07-6.59 6.86-11.416 11.438-30.764.502-26.83-15.19 6.008-24.07-20.309-89.208-48.5-99.54-27.623 10.123-54.678 74.793-48.5 99.54 3.931 15.679-15.402 26.64-26.83 15.19-1.79-1.79-4.09-4.08-6.59-6.86-.48 16.98.75 33.26 1.78 41.57.97 7.83-3.91 15.2-11.49 17.36s-15.61-1.51-18.92-8.67c-19.927-43.367-46.608-123.045-32.85-171.11 13.12-45.93 69.43-64.41 107.7-71.74 13.105-15.92 58.201-15.964 71.35-.01 38.29 7.33 94.64 25.82 107.75 71.76 13.687 47.903-12.638 127.106-32.85 171.1z" fill="#999"/><path d="m367.959 223.978c8 0 52.284 12.284 24-16-16-16-56-24-56-24s64-8 16-16-96 40-96 40-48-48-96-40 16 16 16 16-40 8-56 24c-28.284 28.284 16 16 24 16s-48 40-40 48 112-32 152-32 144 40 152 32-48-48-40-48z" fill="#999"/><circle cx="179.959" cy="223.978" fill="#a07765" r="20"/><circle cx="331.997" cy="223.978" fill="#a07765" r="20"/><path d="m255.959 291.978c-21.88 0-40-26.301-40-40 0-14.804 15.327-24 40-24s40 9.196 40 24c0 13.454-17.809 40-40 40zm12.839-30.116h.01z" fill="#818182"/></svg>