<svg id="Layer_1" enable-background="new 0 0 512 512" height="512" viewBox="0 0 512 512" width="512" xmlns="http://www.w3.org/2000/svg"><path d="m512 204.98c0 66.603-56 157.954-56 184 0 8.83-7.16 16-16 16-14.32 0-27.09-5.8-37.07-16.29-20.657 36.322-54.521 63.356-96.77 74.74-18.007 4.844-36.974 6.477-50.16 5.59-13.06.879-31.909-.68-50.16-5.59-42.331-11.406-76.156-38.494-96.77-74.74-9.98 10.49-22.75 16.29-37.07 16.29-8.84 0-16-7.17-16-16 0-26.184-56-117.134-56-184 0-47.855 36.767-78.787 81.77-92.75 8.223-30.285 43.01-58.941 74.35-66.78 31.24-7.8 84.19 3.4 99.88 7.07 15.7-3.67 68.65-14.87 99.88-7.07 31.453 7.868 66.176 36.675 74.35 66.78 44.965 13.951 81.77 44.868 81.77 92.75z" fill="#f2f2f2"/><path d="m416.34 359.11c-19.914 55.659-60.467 90.938-110.18 104.32-17.685 4.757-36.038 6.457-50.16 5.6-5.67.36-25.62 1.01-50.16-5.6-37.82-10.181-69.34-32.86-91.15-65.57-37.196-55.869-41.773-152.267-34.69-217.781v-55.1c0-34.894 41.183-70.8 76.12-79.521 31.23-7.81 84.17 3.39 99.88 7.06 15.7-3.67 68.65-14.87 99.88-7.06 35.353 8.825 76.12 44.934 76.12 79.522v55.1c5.733 53.025 3.206 126.228-15.66 179.03z" fill="#ece2e2"/><path d="m256 468.977c-26.467 0-48-21.533-48-48v-34.56c0-8.837 7.164-16 16-16s55.164 0 64 0 16 7.163 16 16v34.56c0 26.467-21.533 48-48 48z" fill="#ea8692"/><path d="m433.34 195.66v.01c-2.02 28.69-6.85 60.271-17 88.681-19.914 55.659-60.467 90.938-110.18 104.319-17.685 4.757-36.038 6.458-50.16 5.601-45.737 2.899-105.118-16.89-141.31-71.17-23.834-35.799-33.016-84.639-36.03-127.431 0-1.033.804-10.635 1.34-15.59v-55.1c0-34.894 41.183-70.8 76.12-79.521 31.23-7.81 84.17 3.39 99.88 7.06 15.7-3.67 68.65-14.87 99.88-7.06 35.353 8.824 76.12 44.933 76.12 79.521 0 73.858-.435 44.718 1.34 70.68z" fill="#f9f9f9"/><path d="m371.31 376.289c-30.881 30.882-87.739 32.471-115.31 17.57-26.574 14.362-83.693 14.047-115.31-17.57-3.36-3.359-5.05-8.03-4.62-12.76 2.47-27.13 11.12-47.54 22.01-62.83-2.92 7.98-5.04 16.99-6.02 27.16-.38 3.85 1.09 7.66 4 10.399 26.846 25.25 76.294 26.328 99.94 14.32 23.101 11.731 72.506 11.473 99.94-14.32 2.91-2.739 4.38-6.55 4-10.399-.98-10.17-3.1-19.18-6.02-27.16 10.89 15.29 19.54 35.7 22.01 62.83.43 4.73-1.26 9.401-4.62 12.76z" fill="#f2f2f2"/><circle cx="180" cy="235.99" fill="#818182" r="20"/><circle cx="332" cy="235.99" fill="#818182" r="20"/><path d="m160 167.99c16-16 72-16 72 8s-32 0-56 8-32 0-16-16z" fill="#ece2e2"/><path d="m352 167.99c-16-16-72-16-72 8s32 0 56 8 32 0 16-16z" fill="#ece2e2"/><path d="m256 364.977c-21.542 0-40-19.791-40-35.992 0-37.264 80-37.39 80 0 0 16.201-18.458 35.992-40 35.992zm10.386-29.836h.01z" fill="#818182"/></svg>