<svg id="Layer_1" enable-background="new 0 0 512 512" height="512" viewBox="0 0 512 512" width="512" xmlns="http://www.w3.org/2000/svg"><path d="m381.999 451.49c-9.52 5.35-20.4 9-32.59 10.91-14.98 24.14-42.78 49.6-93.4 49.6s-78.42-25.46-93.4-49.6c-12.19-1.91-23.07-5.561-32.59-10.91-82.249 12.056-132.067-65.955-104.72-129.79 25.448-59.347 6.763-92.42 31.53-166.76 14.33-43.01 33.22-57.971 49.22-61.73 19.175-31.405 57.049-45.872 93.16-51.13-5.62-14.04-6.15-23.93-1.78-31.64 3.76-6.64 10.53-10.44 18.58-10.44 18.56 0 32.64 13.5 41.91 26.55 7.51-6.09 17.45-10.55 30.09-10.55 14.753 0 24.699 10.795 22.86 25.81 36.841 5.016 75.632 19.521 95.09 51.39 16.01 3.75 34.89 18.72 49.23 61.74 24.74 74.261 6.103 107.462 31.53 166.76 27.181 63.448-21.961 141.92-104.72 129.79z" fill="#f2f2f2"/><path d="m408.349 427.87c-17.29 23.97-44.31 36.13-80.34 36.13-37.21 0-59.54-9.83-72-18.49-12.46 8.66-34.79 18.49-72 18.49-69.392 0-102.903-45.921-100.25-117.5 1.22-32.87 9.55-60.99 13.07-71.56 14.092-42.255-17.116-91.7-.34-158.82 11.402-45.638 55.81-67.21 102.72-74.04-5.62-14.04-6.15-23.93-1.78-31.64 3.76-6.64 10.53-10.44 18.58-10.44 18.56 0 32.64 13.5 41.91 26.55 15.086-12.233 41.511-16.192 50.58.8 2.45 4.58 2.97 9.56 2.37 14.46 47.147 6.42 93.037 27.789 104.66 74.31 16.796 67.201-14.459 116.484-.34 158.82 15.547 46.683 21.981 112.937-6.84 152.93z" fill="#ece2e2"/><path d="m428.299 348.1c-18.059 37.369-53.954 51.9-95.45 51.9-39.71 0-63.54-9.83-76.84-18.49-13.3 8.66-37.13 18.49-76.84 18.49-41.499 0-77.392-14.533-95.45-51.9 0-17.613 4.719-47.964 13.11-73.159 14.092-42.255-17.116-91.7-.34-158.82 11.402-45.638 55.81-67.21 102.72-74.04-5.62-14.04-6.15-23.93-1.78-31.64 3.76-6.641 10.53-10.441 18.58-10.441 18.56 0 32.64 13.5 41.91 26.55 7.51-6.09 17.45-10.55 30.09-10.55 14.753 0 24.699 10.795 22.86 25.81 47.147 6.42 93.037 27.789 104.66 74.31 16.796 67.201-14.459 116.484-.34 158.82 8.515 25.569 13.11 55.922 13.11 73.16z" fill="#f9f9f9"/><path d="m256.009 440c-8.836 0-16-7.163-16-16v-40c0-8.837 7.164-16 16-16s16 7.163 16 16v40c0 8.837-7.164 16-16 16z" fill="#999"/><path d="m224.009 144c24 0 48 96-8 120-37.494 16.069-80-8-80-40 0-16.991 33.224-7.773 56-24 21.44-15.275 20.363-56 32-56z" fill="#f2f2f2"/><path d="m288.009 144c-24 0-48 96 8 120 37.494 16.069 80-8 80-40 0-16.991-33.224-7.773-56-24-21.44-15.275-20.363-56-32-56z" fill="#f2f2f2"/><circle cx="204.009" cy="228" fill="#999" r="20"/><circle cx="308.009" cy="228" fill="#999" r="20"/><path d="m140.695 232.175c-6.249-6.248-6.249-16.379 0-22.627 5.146-5.147 12.93-6.054 19.004-2.722.178-.482.309-1.124.309-1.965 0-11.117 11.078-18.837 21.491-15.028 2.566.529 8.331-.422 10.536-1.896.44-7.614 6.184-13.823 13.679-14.91 1.255-3.757 2.271-10.546 2.294-16.198.037-8.738 7.106-15.949 16.034-15.949 8.823.019 15.966 7.159 15.966 15.982 0 16.775-4.122 38.23-19.251 45.695-6.115 11.885-19.526 18.023-32.716 19.194-9.555 18.87-33.335 24.436-47.346 10.424zm41.149-42.211c.002.001.005.002.008.003-.002-.001-.005-.002-.008-.003z" fill="#ece2e2"/><path d="m323.976 221.751c-13.23-1.175-26.615-7.335-32.715-19.194-15.118-7.455-19.252-28.939-19.252-45.695 0-8.837 7.164-16 16-16 8.827 0 15.985 7.149 16 15.973.025 5.65 1.04 12.437 2.294 16.192 7.488 1.086 13.239 7.29 13.679 14.91 2.205 1.475 7.972 2.425 10.536 1.896 10.42-3.812 21.491 3.919 21.491 15.028 0 .841.131 1.482.309 1.965 6.076-3.331 13.857-2.425 19.004 2.722 6.249 6.248 6.249 16.379 0 22.627-14.035 14.038-37.811 8.407-47.346-10.424zm6.197-31.787c-.003.001-.005.002-.008.003.003-.001.006-.002.008-.003zm-26.164-33.103h.01z" fill="#ece2e2"/><path d="m256.009 400c-21.542 0-40-19.795-40-36 0-37.27 80-37.396 80 0 0 16.205-18.458 36-40 36zm10.384-29.848h.01zm-10.384-2.152h.01zm8.304-6.201s0 0 0 0z" fill="#818182"/></svg>