<svg id="Layer_1" enable-background="new 0 0 512 512" height="512" viewBox="0 0 512 512" width="512" xmlns="http://www.w3.org/2000/svg"><path d="m512 335.564c0 44.489-1.94 73.899-11.88 92.529-12.88 24.141-36.51 27.471-60.12 27.471-27.11 0-47.74-12.761-61.66-28.931-2.13 2.94-4.48 5.69-7.03 8.24-22.869 22.869-82.939 33.516-113.65 36.601-3.473 1.715-89.839-9.47-116.97-36.601-2.55-2.55-4.9-5.3-7.03-8.24-13.93 16.17-34.55 28.931-61.66 28.931-23.61 0-47.24-3.33-60.12-27.471-9.94-18.63-11.88-48.04-11.88-92.529 0-64.603 30.665-130.503 62.7-185.971 1.2-11.239 8.22-22.78 22.13-36.64 12.3-12.24 30.68-26.99 57.87-46.41 38.33-27.377 80.215-31.771 113.3-20.19 17.13-5.96 62.61-16.02 113.3 20.19 27.19 19.42 45.57 34.17 57.87 46.41 13.93 13.87 20.95 25.43 22.13 36.65 32.168 54.37 62.7 122.539 62.7 185.961z" fill="#a07765"/><path d="m446.35 166.644c-7.182 16.26-21.263 137.573-15.17 155.859 3.93 11.811 3.87 32.69-40.75 78.12-3.67 13.72-10.09 25.22-19.12 34.25-12.33 12.33-34.87 21.92-68.91 29.33-17.587 3.82-42.099 7.36-46.4 7.36-4.904 0-87.456-8.836-115.31-36.69-9.03-9.03-15.45-20.53-19.12-34.25-44.62-45.43-44.68-66.31-40.75-78.12 6.105-18.322-8.046-139.691-15.17-155.859-9.629-19.533 3.83-38.397 19.18-53.69 12.3-12.24 30.68-26.99 57.87-46.41 37.819-27.015 79.932-31.8 113.3-20.2 33.129-11.55 75.306-6.94 113.3 20.2 27.19 19.42 45.57 34.17 57.87 46.41 15.356 15.299 28.83 34.172 19.18 53.69z" fill="#ece2e2"/><path d="m446.35 166.644c-6.536 14.798-20.23 125.356-15.68 153.59-6.4 7.34-14.48 15.569-24.62 24.819-4.09 13.721-11.26 25.221-21.34 34.25-13.76 12.33-38.92 21.921-76.92 29.33-26.36 5.13-49.06 7.2-50.02 7.28-5.754.486-99.305-8.675-130.48-36.61-10.08-9.029-17.25-20.529-21.34-34.25-10.14-9.25-18.22-17.479-24.62-24.819 4.562-28.308-9.213-138.912-15.68-153.59-9.629-19.533 3.83-38.397 19.18-53.69 12.3-12.24 30.68-26.99 57.87-46.41 37.819-27.015 79.932-31.8 113.3-20.2 33.129-11.55 75.306-6.94 113.3 20.2 27.19 19.42 45.57 34.17 57.87 46.41 15.356 15.299 28.83 34.172 19.18 53.69z" fill="#f2f2f2"/><g fill="#999"><path d="m256 471.564c-8.837 0-16-7.163-16-16v-104c0-8.837 7.163-16 16-16s16 7.163 16 16v104c0 8.837-7.163 16-16 16z"/><path d="m256 471.564c-8.837 0-16-7.163-16-16v-104c0-8.837 7.163-16 16-16s16 7.163 16 16v104c0 8.837-7.163 16-16 16z"/><path d="m256 471.564c-8.837 0-16-7.163-16-16v-104c0-8.837 7.163-16 16-16s16 7.163 16 16v104c0 8.837-7.163 16-16 16z"/><path d="m256 471.564c-8.837 0-16-7.163-16-16v-104c0-8.837 7.163-16 16-16s16 7.163 16 16v104c0 8.837-7.163 16-16 16z"/></g><path d="m446.35 166.644c-7.099 16.073-21.312 137.434-15.17 155.859 8.773 26.341-24.261 61.679-44.03 81.42-11.307 11.126-30.175.703-26.88-14.75 4.82-22.52-.5-53.529-14.98-87.31-8.29-19.351-26.56-31.66-54.33-36.59-5.48-.971-10.05-4.721-12.09-9.9-.16-.41-.39-.95-.66-1.62-24.99-60.67-16.47-105.54-4.92-132.49 7.96-18.58-2.78-39.33-13.2-53.47-6.947-9.426-1.73-22.91 9.77-25.18 19.27-3.82 57.82-5.8 99.44 23.93 27.19 19.42 45.57 34.17 57.87 46.41 15.356 15.3 28.83 34.173 19.18 53.691z" fill="#c79a83"/><path d="m251.91 67.793c-10.42 14.14-21.16 34.89-13.2 53.47 11.55 26.95 20.07 71.82-4.92 132.49-.27.67-.5 1.21-.66 1.62-2.04 5.18-6.61 8.93-12.09 9.9-27.77 4.93-46.04 17.239-54.33 36.59-14.48 33.78-19.8 64.79-14.98 87.31 3.456 16.209-16.943 25.969-27.39 14.23-47.39-47.37-47.53-68.851-43.52-80.9 6.1-18.299-8.018-139.627-15.17-155.859-9.629-19.533 3.83-38.397 19.18-53.69 12.3-12.24 30.68-26.99 57.87-46.41 41.62-29.73 80.17-27.75 99.44-23.93 11.487 2.267 16.725 15.742 9.77 25.179z" fill="#c79a83"/><circle cx="188" cy="203.564" fill="#999" r="20"/><circle cx="324" cy="203.564" fill="#999" r="20"/><path d="m320 151.993s56 0 56 24-56-8-72 0 0-24 16-24z" fill="#a07765"/><path d="m192 151.993s-56 0-56 24 56-8 72 0 0-24-16-24z" fill="#a07765"/><path d="m256 367.564c-21.278 0-40-17.81-40-32 0-14.804 15.327-24 40-24s40 9.196 40 24c0 14.147-18.671 32-40 32zm12.839-22.116h.01z" fill="#818182"/></svg>