<svg id="Layer_1" enable-background="new 0 0 512.016 512.016" height="512" viewBox="0 0 512.016 512.016" width="512" xmlns="http://www.w3.org/2000/svg"><path d="m512.008 168c0 24.105-1.861 67.074-19.84 82.91-8.49 14.98-14.97 32.85-13.72 38.21 3.58 7.5.81 16.53-6.41 20.72-7.309 4.235-16.651 2.065-21.34-4.96-3.56-5.33-6.65-6.2-9.47-6.1 19.35 83.54 6.78 85.283 6.78 125.22 0 14.309-17.44 21.437-27.46 11.15 1.34 5.98 2.45 12.22 3.32 18.74 1.687 12.698-11.55 22.155-23.02 16.42l-13.86-6.93c-5.77 15.9-18.19 36.23-44.8 47.38-9.802 4.109-22.17-2.18-22.17-15.81-15.282 2.1-39.647-.141-48.09 2.65 0 .97-.686 3.914-1.77 5.85-6.13 12.253-25.277 11.143-29.46-2.8-.223-.766-.61-2.536-.61-3.05-4.84-1.6-16.69-1.6-24.08-1.6-26.791 0-24-2.171-24 0 0 11.419-11.668 19.167-22.18 14.76-26.61-11.15-39.03-31.48-44.8-47.38l-13.86 6.93c-11.46 5.73-24.709-3.706-23.02-16.42.87-6.52 1.98-12.76 3.32-18.74-10.021 10.288-27.46 3.158-27.46-11.15 0-39.873-12.399-42.237 6.78-125.22-2.81-.1-5.9.77-9.45 6.07-.01.01-.01.02-.02.03-4.689 7.026-14.031 9.194-21.34 4.96-7.22-4.19-9.99-13.22-6.41-20.72 1.26-5.39-5.21-23.25-13.71-38.2-18.007-15.815-19.85-58.945-19.85-82.92 0-35.787 25.813-57.787 32.5-83.95 5.118-20.124 2.896-46.22 6.91-62.15 4.98-19.77 18.86-21.9 24.59-21.9 33.028 0 37.381 2.856 91.88 16.48 54.765 13.679 64.897 83.638 61.26 139.67 13.955-.133 27.787 1.263 38.86 3.48 6.59-1.32 20.93-3.65 38.86-3.48-3.636-56.027 6.462-125.982 61.26-139.67 54.312-13.578 58.835-16.48 91.88-16.48 5.73 0 19.61 2.13 24.59 21.9 4.076 16.178 1.714 41.721 6.91 62.15 6.683 26.144 32.5 48.169 32.5 83.95z" fill="#a07765"/><path d="m256.008 160c0 124.45-160.78 148.42-188.08 151.59.87-4.04 1.82-8.31 2.86-12.81-2.81-.1-5.9.77-9.45 6.07-4.89-14.33-13.44-46.11 2.67-56.85 48-32 24-56-8-32 8-32 32-48 56-40 8-24-32-32-48-16 0-24 40-32 72-24 0-24-40-24-56-16 16-16 48-24 72-16 0-24-56-24-56-24s40-16 88 0c11.86 3.95 22.25 10.84 31.18 18.96 2.775 18.314 3.155 38.781 1.96 57.19 17.81-.17 38.461 2.732 38.86 3.85z" fill="#c79a83"/><path d="m255.652 160c0 124.45 160.78 148.42 188.08 151.59-.87-4.04-1.82-8.31-2.86-12.81 2.81-.1 5.9.77 9.45 6.07 4.89-14.33 13.44-46.11-2.67-56.85-48-32-24-56 8-32-8-32-32-48-56-40-8-24 32-32 48-16 0-24-40-32-72-24 0-24 40-24 56-16-16-16-48-24-72-16 0-24 56-24 56-24s-40-16-88 0c-11.86 3.95-22.25 10.84-31.18 18.96-2.775 18.314-3.155 38.781-1.96 57.19-17.81-.17-38.461 2.732-38.86 3.85z" fill="#c79a83"/><path d="m448.008 424c0 14.309-17.44 21.437-27.46 11.15 1.34 5.98 2.45 12.22 3.32 18.74 1.687 12.698-11.55 22.155-23.02 16.42l-13.86-6.93c-5.77 15.9-18.19 36.23-44.8 47.38-9.802 4.109-22.17-2.18-22.17-15.81-15.282 2.1-39.647-.141-48.09 2.65 0 2.755-1.817 7.213-5.47 10.5-6.989 6.169-18.118 4.554-22.96-2.15-1.985-2.317-3.41-6.413-3.41-8.35-4.84-1.6-16.69-1.6-24.08-1.6-26.791 0-24-2.171-24 0 0 11.419-11.668 19.167-22.18 14.76-26.61-11.15-39.03-31.48-44.8-47.38l-13.86 6.93c-11.46 5.73-24.709-3.706-23.02-16.42.87-6.52 1.98-12.76 3.32-18.74-10.021 10.288-27.46 3.158-27.46-11.15 0-45.542-16.224-41.249 16.54-164.12 18.66-69.99 67.08-93.33 104.41-100.59 31.96-6.21 60.84-1.7 71.05.34 10.21-2.04 39.09-6.55 71.05-.34 37.33 7.26 85.75 30.6 104.41 100.59 32.766 122.881 16.54 118.55 16.54 164.12z" fill="#e0b7a3"/><path d="m368.008 320c8-8 16-8 32-8 0-4.619-15.507-3.904-32-16-3.742-2.745 32-8 24-24-16 16-42.333-8-40-8 8 0 16-16 8-24 0 3.096-7.187 8.587-16 13.23-8-5.23-8-13.23-8-21.23-2.713 1.13-9.809 24-16 24-8 0-8-16 0-32-24 8-40 32-48 40 0-8 0-24 8-32-24 0-24 32-24 32s0-32-24-32c8 8 8 24 8 32-8-8-24-32-48-40 8 16 8 32 0 32-6.191 0-13.287-22.87-16-24 0 8 0 16-8 21.23-8.812-4.643-16-10.134-16-13.23-8 8 0 24 8 24 2.333 0-24 24-40 8-8 16 27.742 21.255 24 24-16.493 12.096-32 11.381-32 16 16 0 24 0 32 8-16 0-40 24-40 40 24-24 88-24 112-16s40 0 40 0 16 8 40 0 88-8 112 16c0-16-24-40-40-40z" fill="#c79a83"/><path d="m216.008 360s16-8-8-24-8-16 8-16-8-24-8-32 24 16 32 24 8-16 16-24 0 24 8 32 8-8 32-8 8 8 0 24 16 32 16 32-80 8-96-8z" fill="#a07765"/><circle cx="176.008" cy="296" fill="#999" r="24"/><circle cx="336.008" cy="296" fill="#999" r="24"/><path d="m400.848 470.31-13.86-6.93c-5.77 15.9-18.19 36.23-44.8 47.38-10.49 4.397-22.18-3.321-22.18-14.76 0-13.309 2.719-31.745-2-36.72-1.98-2.08-7.08-3.28-14-3.28-24.06 0-38.92-7.15-48-15.09-24.522 21.443-54.999 11.015-62 18.37-4.718 4.973-2 23.419-2 36.72 0 11.415-11.651 19.172-22.18 14.76-26.61-11.15-39.03-31.48-44.8-47.38l-13.86 6.93c-11.46 5.73-24.709-3.706-23.02-16.42 5.91-44.31 22.74-76.18 50.04-94.72 33.05-22.44 70.14-17.03 79.52-15.17h76.6c9.38-1.86 46.47-7.27 79.52 15.17 27.3 18.54 44.13 50.41 50.04 94.72 1.687 12.698-11.55 22.155-23.02 16.42z" fill="#c79a83"/><path d="m303.628 383.47c-12.029 54.141-83.219 54.106-95.24 0-2.6-11.71-4.36-26.38 5.18-36.03 9.66-9.77 22.73-7.02 32.28-5.01 9.839 2.07 10.475 2.071 20.32 0 9.55-2.01 22.62-4.76 32.28 5.01 9.54 9.65 7.78 24.32 5.18 36.03z" fill="#818182"/></svg>