<svg id="Layer_1" enable-background="new 0 0 512.407 512.407" height="512" viewBox="0 0 512.407 512.407" width="512" xmlns="http://www.w3.org/2000/svg"><path d="m512.205 376.203c0 11.77-1.91 42.07-19.61 69.13-12.79 19.56-37.82 42.87-84.39 42.87-60.628 0-86.899-26.919-93.66-76.1-13.92 8.28-32.71 12.1-58.34 12.1s-44.42-3.82-58.34-12.1c-6.778 49.307-33.116 76.1-93.66 76.1-46.57 0-71.6-23.31-84.39-42.87-17.7-27.06-19.61-57.36-19.61-69.13 0-32.4 0-86.63 44.69-131.31 32.66-32.67 48.24-77.47 51.34-87.18 1.102-95.342 64.237-133.51 159.97-133.51 95.713 0 158.868 38.164 159.97 133.49 3.13 9.74 18.85 54.71 51.34 87.2 44.69 44.68 44.69 98.91 44.69 131.31z" fill="#f9f9f9"/><path d="m492.595 445.333c-12.79 19.56-37.82 42.87-84.39 42.87-60.628 0-86.899-26.919-93.66-76.1-13.92 8.28-32.71 12.1-58.34 12.1s-44.42-3.82-58.34-12.1c-6.778 49.307-33.116 76.1-93.66 76.1-46.57 0-71.6-23.31-84.39-42.87-20.039-30.636-21.9-66.472-18.39-103.47 7.379 55.421 43.624 94.34 102.78 94.34 60.628 0 86.899-26.919 93.66-76.1 13.92 8.28 32.71 12.1 58.34 12.1s44.42-3.82 58.34-12.1c6.778 49.307 33.116 76.1 93.66 76.1 58.864 0 95.376-38.731 102.78-94.34 3.564 37.562 1.462 73.121-18.39 103.47z" fill="#ece2e2"/><path d="m416.205 160.203c0 108.323-57.227 121.727-64.16 170.26-4.12 28.86-8.41 52.27-22.63 69.07-14.43 17.06-37.01 24.67-73.21 24.67s-58.78-7.61-73.21-24.67c-14.22-16.8-18.51-40.21-22.63-69.07-6.918-48.43-64.16-62.074-64.16-170.26 0-96.532 62.702-136 160-136 97.309 0 160 39.477 160 136z" fill="#f2f2f2"/><path d="m304.205 336.203c0 63.842-96 63.892-96 0 0-7.51 3.46-32 48-32s48 24.49 48 32z" fill="#a07765"/><path d="m416.075 152.603c-38.87-40.181-104.181-48.4-159.87-48.4-55.672 0-120.994 8.214-159.87 48.4 3.313-91.676 65.917-128.4 159.87-128.4 93.955 0 156.557 36.726 159.87 128.4z" fill="#f9f9f9"/><g fill="#999"><circle cx="200.205" cy="240.203" r="16"/><circle cx="312.205" cy="240.203" r="16"/></g></svg>