<svg height="453pt" viewBox="0 -1 453.68615 453" width="453pt" xmlns="http://www.w3.org/2000/svg"><path d="m147.363281 68.148438c-30.308593-55.136719-110.128906-69.464844-120.789062-63.601563-8.722657 4.796875-41.339844 80.925781-11.03125 136.066406 30.3125 55.136719 72.136719 61.320313 108.535156 41.308594 36.402344-20.011719 53.597656-58.636719 23.285156-113.773437zm0 0" fill="#87796f"/><path d="m149.992188 66.703125c-30.335938-55.1875-111.851563-71.941406-124.863282-64.789063-10.296875 5.664063-43.0625 84.019532-12.210937 140.140626 14.691406 26.726562 32.761719 43.632812 53.707031 50.25 6.425781 2.03125 13.0625 3.039062 19.816406 3.039062 12.804688 0 26.039063-3.625 39.085938-10.796875 19.921875-10.949219 33.101562-26.710937 38.109375-45.570313 5.640625-21.230468 1.050781-45.546874-13.644531-72.273437zm-27.359376 112.585937c-40.210937 22.109376-78.289062 7.484376-104.457031-40.125-29.46875-53.601562 2.773438-128.023437 9.84375-131.992187 1.195313-.65625 3.460938-1 6.578125-1 21.722656 0 84.542969 16.859375 110.136719 63.421875 26.171875 47.605469 18.117187 87.589844-22.101563 109.695312zm0 0" fill="#3a312a"/><path d="m115.871094 79.113281c-17.058594-31.03125-61.984375-39.09375-67.984375-35.796875-4.910157 2.699219-23.265625 45.550782-6.207031 76.585938 17.058593 31.03125 40.597656 34.511718 61.085937 23.25 20.488281-11.265625 30.167969-33.007813 13.105469-64.039063zm0 0" fill="#f16c7a"/><path d="m118.503906 77.667969c-9.652344-17.558594-26.910156-27.160157-39.683594-32.125-13.316406-5.171875-27.839843-7.351563-32.378906-4.859375-6.167968 3.394531-25.515625 47.683594-7.390625 80.660156 8.4375 15.347656 18.859375 25.070312 30.984375 28.902344 3.75 1.183594 7.617188 1.769531 11.550782 1.769531 7.425781 0 15.085937-2.09375 22.625-6.238281 24.878906-13.671875 30.21875-39.136719 14.292968-68.109375zm-17.183594 62.851562c-10.0625 5.53125-20.257812 6.917969-29.476562 4.003907-10.601562-3.347657-19.867188-12.117188-27.535156-26.070313-16.085938-29.261719 1.046875-69.414063 5.007812-72.5.457032-.214844 1.351563-.332031 2.605469-.332031 10.558594 0 46.625 8.203125 61.320313 34.9375 14.328124 26.066406 9.984374 47.917968-11.921876 59.960937zm0 0" fill="#3a312a"/><path d="m427.109375 4.546875c-5.429687-2.984375-28.796875-.714844-54.421875 9.492187l-23.371094 11.484376c-16.925781 10.101562-32.777344 24.035156-42.996094 42.628906-30.308593 55.132812-13.117187 93.761718 23.285157 113.769531 36.398437 20.011719 78.226562 13.828125 108.53125-41.308594 30.3125-55.140625-2.304688-131.273437-11.027344-136.066406zm0 0" fill="#87796f"/><path d="m428.554688 1.917969c-6.8125-3.742188-31.332032-.886719-56.980469 9.335937-1.539063.613282-2.289063 2.355469-1.679688 3.898438.617188 1.539062 2.371094 2.285156 3.898438 1.675781 26.042969-10.378906 47.921875-11.820313 51.871093-9.652344 7.070313 3.964844 39.308594 78.386719 9.847657 131.992188-13.925781 25.328125-30.832031 41.28125-50.257813 47.417969-17 5.371093-35.75 2.851562-54.207031-7.296876-18.449219-10.144531-30.621094-24.613281-35.199219-41.851562-5.230468-19.6875-.820312-42.511719 13.101563-67.84375 8.949219-16.277344 23.046875-30.242188 41.90625-41.496094 1.421875-.847656 1.886719-2.691406 1.039062-4.113281-.851562-1.425781-2.695312-1.886719-4.113281-1.039063-19.789062 11.8125-34.621094 26.53125-44.089844 43.757813-14.691406 26.730469-19.285156 51.042969-13.644531 72.273437 5.007813 18.863282 18.1875 34.621094 38.113281 45.570313 13.042969 7.171875 26.277344 10.796875 39.082032 10.796875 6.757812 0 13.394531-1.007812 19.820312-3.039062 20.945312-6.617188 39.015625-23.523438 53.707031-50.25 30.847657-56.117188-1.914062-134.476563-12.214843-140.136719zm0 0" fill="#3a312a"/><path d="m405.796875 43.316406c-6.003906-3.296875-50.925781 4.765625-67.984375 35.796875-17.058594 31.035157-7.382812 52.773438 13.105469 64.039063 20.488281 11.261718 44.027343 7.78125 61.089843-23.25 17.054688-31.035156-1.300781-73.886719-6.210937-76.585938zm0 0" fill="#f16c7a"/><path d="m407.242188 40.6875c-7.789063-4.285156-54.253907 4.585938-72.058594 36.980469-15.925782 28.972656-10.585938 54.433593 14.289062 68.109375 7.542969 4.144531 15.199219 6.242187 22.625 6.242187 3.9375 0 7.804688-.589843 11.554688-1.773437 12.121094-3.828125 22.542968-13.550782 30.980468-28.902344 18.128907-32.976562-1.222656-77.265625-7.390624-80.65625zm2.132812 77.765625c-7.667969 13.953125-16.929688 22.722656-27.53125 26.070313-9.21875 2.914062-19.417969 1.527343-29.480469-4.003907-21.90625-12.042969-26.25-33.898437-11.921875-59.960937 14.742188-26.820313 50.996094-34.988282 61.335938-34.988282 1.191406 0 2.039062.109376 2.472656.308594 4.078125 3.160156 21.210938 43.3125 5.125 72.574219zm0 0" fill="#3a312a"/><path d="m414.742188 282.425781c-.339844-.378906-.699219-.757812-1.039063-1.179687.378906-5.417969.558594-10.820313.558594-16.359375 0-22.359375-3.257813-43.898438-9.359375-64.058594-18.820313-62.601563-64.5-111.980469-122.242188-131.863281-17.976562-6.199219-37.097656-9.558594-56.957031-9.558594-19.160156 0-37.640625 3.101562-55.0625 8.921875-58.578125 19.457031-105.097656 69.199219-124.136719 132.519531-6.082031 20.179688-9.363281 41.679688-9.363281 64.039063 0 6 .242187 11.917969.722656 17.78125.039063.296875.039063.578125.058594.859375-15.820313 17.960937-24.820313 38.417968-24.820313 60.160156 0 6.839844.878907 13.339844 2.601563 19.480469 10.867187 39.226562 55.09375 64.867187 115.710937 77.3125l25.445313 4.320312c21.933594 3.007813 45.464844 4.527344 69.984375 4.527344 106.679688 0 195.117188-28.339844 211.136719-86.160156 1.722656-6.140625 2.601562-12.640625 2.601562-19.480469 0-22.222656-9.378906-43.0625-25.839843-61.261719zm0 0" fill="#8ac6dd"/><path d="m416.976562 280.425781-.199218-.21875c.324218-5.019531.484375-10.046875.484375-15.320312 0-22.277344-3.195313-44.121094-9.488281-64.921875-19.128907-63.625-65.535157-113.660156-124.132813-133.832032-18.710937-6.453124-38.207031-9.722656-57.9375-9.722656-19.144531 0-37.992187 3.050782-56.007813 9.074219-59.5625 19.785156-106.691406 70.066406-126.066406 134.5-6.292968 20.894531-9.488281 42.730469-9.488281 64.902344 0 5.855469.230469 11.730469.703125 17.609375-16.191406 18.753906-24.742188 39.886718-24.742188 61.191406 0 7.042969.914063 13.871094 2.710938 20.28125 10.613281 38.308594 51.417969 65.785156 118 79.453125 1.628906.339844 3.210938-.710937 3.542969-2.332031.332031-1.625-.714844-3.210938-2.335938-3.542969-63.316406-13-103.59375-39.699219-113.425781-75.1875-1.652344-5.894531-2.492188-12.175781-2.492188-18.667969 0-20.472656 8.097657-40.042968 24.074219-58.175781.53125-.605469.796875-1.398437.742188-2.203125l-.015625-.214844c-.011719-.265625-.027344-.539062-.046875-.671875-.472657-5.753906-.710938-11.652343-.710938-17.535156 0-21.585937 3.105469-42.839844 9.234375-63.175781 18.8125-62.566406 64.5-111.367188 122.214844-130.539063 17.410156-5.816406 35.613281-8.765625 54.109375-8.765625 19.066406 0 37.902344 3.164063 55.984375 9.398438 56.78125 19.546875 101.769531 68.105468 120.347656 129.890625 6.125 20.246093 9.230469 41.503906 9.230469 63.191406 0 5.570313-.183594 10.851563-.554687 16.148437-.050782.757813.183593 1.507813.660156 2.097657.285156.355469.582031.683593.878906 1.003906l.273438.300781c16.394531 18.132813 25.0625 38.621094 25.0625 59.25 0 6.492188-.835938 12.773438-2.488282 18.679688-7.320312 26.414062-31.441406 48.117187-69.753906 62.757812-36.292969 13.867188-84.183594 21.199219-138.5 21.199219-24.410156 0-47.816406-1.511719-69.578125-4.496094-1.632813-.21875-3.15625.921875-3.378906 2.5625-.226563 1.644531.921875 3.15625 2.566406 3.382813 22.027344 3.015625 45.710937 4.550781 70.390625 4.550781 118.6875 0 198.699219-33.035156 214.027344-88.355469 1.800781-6.421875 2.710937-13.25 2.710937-20.289062 0-22.136719-9.203125-44.015625-26.605469-63.257813zm0 0" fill="#3a312a"/><path d="m193.84375 234.328125c0 17.121094-13.878906 31-31 31s-31-13.878906-31-31 13.878906-31 31-31 31 13.878906 31 31zm0 0" fill="#fce8cb"/><path d="m162.84375 200.328125c-18.75 0-34 15.25-34 34 0 18.746094 15.25 34 34 34 18.746094 0 34-15.253906 34-34 0-18.75-15.253906-34-34-34zm0 62c-15.441406 0-28-12.5625-28-28 0-15.441406 12.558594-28 28-28 15.4375 0 28 12.558594 28 28 0 15.4375-12.5625 28-28 28zm0 0" fill="#3a312a"/><path d="m226.980469 256.105469c-26.257813-.097657-47.597657 12.582031-47.660157 28.320312-.078124 14.621094 18.140626 37.660157 41.722657 40.980469 1.839843.28125 3.71875.441406 5.617187.441406 2.023438 0 4.023438-.140625 5.980469-.421875 23.460937-3.339843 41.679687-26.039062 41.742187-40.578125.078126-15.761718-21.140624-28.621094-47.402343-28.742187zm0 0" fill="#fce8cb"/><path d="m262.113281 262.046875c-9.40625-5.703125-21.878906-8.878906-35.121093-8.941406-.105469 0-.210938 0-.320313 0-13.117187 0-25.492187 3.0625-34.878906 8.640625-9.941407 5.910156-15.4375 13.957031-15.472657 22.664062-.042968 8.167969 4.742188 18.1875 12.796876 26.792969 8.859374 9.460937 20.046874 15.558594 31.472656 17.167969 2.070312.3125 4.113281.472656 6.070312.472656 2.160156 0 4.3125-.152344 6.402344-.449219 11.402344-1.625 22.550781-7.660156 31.398438-16.996093 8.054687-8.503907 12.882812-18.425782 12.917968-26.539063.046875-8.714844-5.375-16.820313-15.265625-22.8125zm-29.894531 60.410156c-3.410156.488281-6.914062.5625-10.757812-.019531-22.433594-3.160156-39.207032-25.226562-39.140626-38 .027344-6.515625 4.476563-12.742188 12.539063-17.53125 8.472656-5.035156 19.757813-7.800781 31.808594-7.800781.097656 0 .199219.003906.300781.003906 12.164062.054687 23.542969 2.921875 32.035156 8.070313 8.015625 4.855468 12.410156 11.125 12.375 17.65625-.046875 12.613281-16.890625 34.449218-39.160156 37.621093zm0 0" fill="#3a312a"/><path d="m321.84375 234.328125c0 17.121094-13.878906 31-31 31s-31-13.878906-31-31 13.878906-31 31-31 31 13.878906 31 31zm0 0" fill="#fce8cb"/><g fill="#3a312a"><path d="m290.84375 200.328125c-18.75 0-34 15.25-34 34 0 18.746094 15.25 34 34 34 18.746094 0 34-15.253906 34-34 0-18.75-15.253906-34-34-34zm0 62c-15.441406 0-28-12.5625-28-28 0-15.441406 12.558594-28 28-28 15.4375 0 28 12.558594 28 28 0 15.4375-12.5625 28-28 28zm0 0"/><path d="m226.921875 268.753906c-16.738281-.074218-30.34375 8.007813-30.386719 18.050782-.046875 10.042968 13.453125 26.328124 30.191406 26.402343 16.738282.070313 30.382813-16.09375 30.425782-26.136719.042968-10.042968-13.492188-18.246093-30.230469-18.316406zm0 0"/><path d="m222.5625 322.820312c-1.425781-.839843-3.269531-.363281-4.105469 1.066407-6.210937 10.558593-17.179687 17.613281-29.40625 18.882812-1.261719.15625-2.617187.238281-4.03125.238281-21.40625 0-38.820312-17.414062-38.820312-38.820312 0-1.660156-1.339844-3-3-3-1.65625 0-3 1.339844-3 3 0 24.714844 20.105469 44.820312 44.820312 44.820312 1.664063 0 3.269531-.09375 4.710938-.277343 14.050781-1.457031 26.722656-9.609375 33.894531-21.804688.84375-1.425781.367188-3.265625-1.0625-4.105469zm0 0"/><path d="m310.480469 301.1875c-1.65625 0-3 1.339844-3 3 0 21.40625-17.414063 38.820312-38.820313 38.820312-1.414062 0-2.769531-.082031-4.089844-.246093-12.152343-1.257813-23.121093-8.308594-29.34375-18.859375-.839843-1.429688-2.683593-1.898438-4.109374-1.058594-1.425782.839844-1.902344 2.679688-1.058594 4.105469 7.183594 12.183593 19.855468 20.324219 33.832031 21.773437 1.503906.1875 3.109375.285156 4.769531.285156 24.714844 0 44.820313-20.105468 44.820313-44.820312 0-1.65625-1.34375-3-3-3zm0 0"/><path d="m181.050781 229.515625c-1.550781-.578125-3.28125.207031-3.859375 1.757813-1.316406 3.515624-6.234375 8.75-14.375 8.75-6.957031 0-11.558594-2.855469-14.472656-8.984376-.714844-1.5-2.503906-2.132812-4-1.421874-1.496094.714843-2.132812 2.503906-1.417969 4 3.917969 8.230468 10.609375 12.40625 19.890625 12.40625 10.484375 0 17.710938-6.554688 19.992188-12.644532.582031-1.550781-.203125-3.28125-1.757813-3.863281zm0 0"/><path d="m309.050781 229.515625c-1.546875-.578125-3.28125.207031-3.863281 1.757813-1.3125 3.515624-6.226562 8.75-14.371094 8.75-6.957031 0-11.554687-2.855469-14.472656-8.984376-.714844-1.496093-2.503906-2.132812-4-1.421874-1.496094.714843-2.132812 2.503906-1.417969 4 3.917969 8.230468 10.609375 12.40625 19.890625 12.40625 10.484375 0 17.714844-6.554688 19.992188-12.644532.582031-1.550781-.203125-3.28125-1.757813-3.863281zm0 0"/></g><path d="m412.523438 284.445312c0-.019531-.019532-.019531-.019532-.019531l-.261718-.300781c-.300782-.320312-.582032-.636719-.878907-1-.480469-.578125-.703125-1.339844-.660156-2.097656.378906-5.28125.558594-10.582032.558594-16.140625 0-21.679688-3.101563-42.941407-9.238281-63.199219-18.5625-61.78125-63.5625-110.339844-120.339844-129.882812-18.082032-6.238282-36.921875-9.398438-55.980469-9.398438-5.042969 0-10.042969.21875-15.019531.660156 13.9375 1.21875 27.679687 4.140625 41 8.738282 56.777344 19.542968 101.777344 68.101562 120.339844 129.882812 6.136718 20.257812 9.238281 41.519531 9.238281 63.199219 0 5.558593-.179688 10.859375-.558594 16.140625-.042969.757812.179687 1.519531.660156 2.097656.296875.363281.578125.679688.878907 1l.261718.300781s.019532 0 .019532.019531c16.398437 18.121094 25.058593 38.621094 25.058593 59.242188 0 6.5-.839843 12.777344-2.5 18.679688-7.320312 26.417968-31.421875 48.121093-69.738281 62.757812-32.902344 12.5625-75.300781 19.761719-123.402344 21 4.902344.140625 9.878906.203125 14.902344.203125 54.316406 0 102.199219-7.339844 138.5-21.203125 38.316406-14.636719 62.417969-36.339844 69.738281-62.757812 1.660157-5.902344 2.5-12.179688 2.5-18.679688 0-20.621094-8.660156-41.121094-25.058593-59.242188zm0 0" fill="#6ca8bf"/></svg>