<svg height="455pt" viewBox="0 -2 455.00297 455" width="455pt" xmlns="http://www.w3.org/2000/svg"><path d="m377.664062 3.003906c-10.628906-.074218-66.007812 44.085938-66.394531 99.042969s28.867188 77.75 65.148438 77.75c27.5625 0 42.84375-21.871094 43.230469-76.824219.386718-54.957031-33.292969-99.910156-41.984376-99.96875zm0 0" fill="#87796f"/><path d="m377.683594 0h-.039063c-13.117187 0-68.988281 46.871094-69.378906 102.023438-.191406 27.550781 6.792969 48.65625 20.765625 62.726562 11.722656 11.804688 28.109375 18.042969 47.382812 18.042969 31.160157 0 45.847657-25.359375 46.234376-79.800781.398437-56.472657-33.769532-102.9101568-44.964844-102.992188zm-1.265625 176.792969c-17.644531 0-32.558594-5.625-43.128907-16.269531-12.804687-12.894532-19.207031-32.5625-19.023437-58.457032.375-52.820312 53.875-96.066406 63.332031-96.066406h.019532c6.597656.621094 39.414062 42.335938 39.03125 96.949219-.464844 66.191406-23.183594 73.84375-40.230469 73.84375zm0 0" fill="#3a312a"/><path d="m373.839844 103.3125c.242187-34.5625-14.011719-62.835938-19.480469-62.871094-6.683594-.046875-41.511719 27.726563-41.753906 62.289063-.246094 34.5625 18.152343 48.734375 40.972656 48.898437 22.816406.160156 20.015625-13.753906 20.261719-48.316406zm0 0" fill="#f16c7a"/><path d="m376.835938 103.332031c.148437-20.84375-4.8125-37.417969-7.78125-45.445312-2.273438-6.132813-8.246094-20.402344-14.675782-20.445313h-.027344c-8.738281 0-44.496093 29.1875-44.75 65.265625-.230468 32.316407 16.203126 51.722657 43.953126 51.917969.132812.003906.265624.003906.394531.003906 7.796875 0 13.085937-1.648437 16.628906-5.171875 6.324219-6.296875 6.296875-17.351562 6.246094-35.664062-.003907-3.25-.011719-6.734375.011719-10.460938zm-6.007813 10.476563c.042969 16.175781.074219 26.863281-4.480469 31.398437-2.390625 2.378907-6.40625 3.46875-12.75 3.421875-24.347656-.171875-38.199218-16.894531-37.992187-45.878906.230469-32.726562 33.347656-58.40625 38.558593-59.289062 3.875 2.050781 16.910157 26.585937 16.671876 59.832031-.023438 3.742187-.015626 7.246093-.007813 10.515625zm0 0" fill="#3a312a"/><path d="m377.621094 99.082031c-5.539063-3.699219-11.300782-6.957031-17.28125-9.738281-16.117188-7.582031-33.640625-11.742188-52-11.742188-67.898438 0-124.800782 56.863282-139.777344 133.300782-.042969.242187-.101562.441406-.140625.679687-1.28125 6.621094-4.5 12.542969-9.039063 17.121094-4.542968 4.621094-10.441406 7.898437-17.0625 9.21875l-73.9375 14.960937c-2.84375.582032-5.421874 1.839844-7.5625 3.601563-3.980468 3.21875-6.460937 8.140625-6.460937 13.558594l7.222656 24.058593 7.019531 23.382813 1.757813 5.878906c2.640625 12.640625 10.5 15.480469 18.640625 17.140625l36.910156 5.972656 25.46875 4.117188 31.203125 5.050781c7.898438 1.578125 14.859375 6.058594 19.71875 12.480469 26.28125 34.679688 64.039063 56.417969 106.039063 56.417969 23.28125 0 59.839844.21875 90.121094.460937 29.019531.21875 52.699218-23.121094 52.921874-52.140625l.117188-15.78125c.261719-32.738281.5-70.660156.5-106 0-65.480469-30.039062-122.480469-74.378906-152zm0 0" fill="#fce8cb"/><path d="m379.285156 96.585938c-5.703125-3.808594-11.652344-7.164063-17.667968-9.957032-16.96875-7.980468-34.894532-12.027344-53.277344-12.027344-68.371094 0-127.0625 55.8125-142.722656 135.722657-.003907.027343-.046876.226562-.050782.253906-.039062.164063-.074218.332031-.089844.433594-1.144531 5.917969-3.988281 11.304687-8.234374 15.585937-4.230469 4.304688-9.589844 7.203125-15.511719 8.382813l-73.949219 14.960937c-3.246094.664063-6.308594 2.125-8.84375 4.207032-4.8125 3.894531-7.574219 9.683593-7.574219 15.894531 0 .289062.042969.582031.125.859375l15.960938 53.199218c2.941406 13.835938 11.804687 17.472657 21.070312 19.363282l36.910157 5.96875c1.644531.261718 3.175781-.847656 3.441406-2.480469.265625-1.636719-.847656-3.175781-2.480469-3.441406l-36.789063-5.949219c-7.269531-1.484375-13.988281-3.734375-16.300781-14.816406-.019531-.082032-.039062-.164063-.0625-.246094l-15.871093-52.878906c.121093-4.226563 2.054687-8.148438 5.363281-10.824219 1.796875-1.480469 3.960937-2.507813 6.25-2.976563l73.929687-14.957031c7.101563-1.417969 13.539063-4.894531 18.605469-10.050781 5.074219-5.121094 8.484375-11.578125 9.851563-18.664062.003906-.027344.046874-.222657.050781-.246094.039062-.164063.074219-.332032.089843-.425782 15.101563-77.058593 71.371094-130.878906 136.835938-130.878906 17.492188 0 34.558594 3.855469 50.738281 11.460938 5.75 2.671875 11.425781 5.875 16.882813 9.515625 45.050781 29.996093 73.039062 87.285156 73.039062 149.503906 0 29.316406-.160156 62.988281-.5 105.976563l-.117187 15.78125c-.101563 13.234374-5.347657 25.636718-14.769531 34.917968-9.421876 9.289063-21.839844 14.375-35.128907 14.242188-36.457031-.285156-70.15625-.457032-90.144531-.457032-39.269531 0-77.046875-20.132812-103.648438-55.230468-5.351562-7.074219-12.996093-11.90625-21.628906-13.632813l-31.207031-5.046875c-1.640625-.25-3.175781.847656-3.441406 2.484375-.261719 1.632813.847656 3.175781 2.484375 3.441407l31.09375 5.027343c7.085937 1.417969 13.449218 5.449219 17.914062 11.347657 27.746094 36.613281 67.265625 57.609374 108.429688 57.609374 19.972656 0 53.65625.171876 90.097656.460938h.433594c14.675781 0 28.496094-5.660156 38.957031-15.96875 10.5625-10.40625 16.441406-24.3125 16.554687-39.148438l.121094-15.78125c.339844-43.003906.5-76.691406.5-106.023437-.003906-64.199219-29.015625-123.398437-75.71875-154.492187zm0 0" fill="#3a312a"/><path d="m377.617188 99.085938c-5.53125-3.699219-11.296876-6.957032-17.277344-9.75-16.117188-7.582032-33.644532-11.722657-52.003906-11.722657-67.890626 0-124.785157 56.859375-139.78125 133.289063-.039063.234375-.089844.445312-.125.675781 27.113281 80.328125 118.632812 140.730469 229.753906 146.796875 6.101562.339844 12.273437.515625 18.5.515625 11.816406 0 23.429687-.601563 34.820312-1.796875.246094-32.753906.496094-70.667969.496094-106.015625 0-65.476563-30.050781-122.476563-74.382812-151.992187zm0 0" fill="#87796f"/><path d="m379.285156 96.589844c-5.648437-3.777344-11.597656-7.132813-17.667968-9.96875-16.945313-7.96875-34.871094-12.007813-53.277344-12.007813-68.355469 0-127.050782 55.808594-142.75 135.828125l-.039063.210938c-.035156.152344-.0625.304687-.085937.464844-.078125.476562-.035156.960937.121094 1.421874 28 82.957032 121.410156 142.769532 232.429687 148.832032 6.234375.34375 12.515625.519531 18.671875.519531 11.820312 0 23.640625-.609375 35.128906-1.816406 1.519532-.160157 2.675782-1.433594 2.6875-2.957031.246094-32.398438.5-70.332032.5-106.042969-.003906-64.195313-29.015625-123.394531-75.71875-154.484375zm69.238282 257.785156c-16.335938 1.570312-33.199219 1.941406-50.179688 1.003906-108.261719-5.914062-199.292969-63.75-226.824219-144.023437 15.15625-76.984375 71.402344-130.742188 136.816407-130.742188 17.519531 0 34.585937 3.847657 50.734374 11.441407 5.800782 2.707031 11.480469 5.914062 16.882813 9.527343 45.054687 29.996094 73.046875 87.28125 73.046875 149.496094 0 34.703125-.238281 71.511719-.476562 103.296875zm0 0" fill="#3a312a"/><path d="m60.820312 256.484375c-3.980468 3.21875-6.460937 8.140625-6.460937 13.558594l7.222656 24.058593c10.957031-3.839843 18.917969-14.65625 18.957031-21.898437.042969-7.441406-8.296874-13.78125-19.71875-15.71875zm0 0" fill="#3a312a"/><path d="m124.140625 276.484375c-1.65625 0-3 1.339844-3 3 0 18.921875-15.40625 34.320313-34.339844 34.320313-1.15625 0-2.332031-.066407-3.609375-.207032-5.332031-.554687-10.496094-2.371094-14.9375-5.253906-.488281-.3125-1.074218-.480469-1.652344-.480469-1.660156 0-2.992187 1.34375-2.992187 3 0 1.09375.59375 2.050781 1.472656 2.578125 5.210938 3.359375 11.253907 5.476563 17.476563 6.125 1.480468.160156 2.867187.238282 4.242187.238282 22.246094 0 40.339844-18.085938 40.339844-40.320313 0-1.660156-1.34375-3-3-3zm0 0" fill="#3a312a"/><path d="m289.597656 218.050781c-19.40625 0-35.132812 9.832031-35.132812 21.957031 0 12.128907 15.726562 21.960938 35.132812 21.960938s35.136719-9.832031 35.136719-21.960938c0-12.125-15.730469-21.957031-35.136719-21.957031zm0 0" fill="#f5978a"/><g fill="#3a312a"><path d="m236.894531 181.042969c-8.492187 0-15.375 6.882812-15.375 15.371093 0 8.492188 6.882813 15.375 15.375 15.375 8.488281 0 15.371094-6.882812 15.371094-15.375 0-8.488281-6.882813-15.371093-15.371094-15.371093zm0 0"/><path d="m63.675781 353.429688c-1.382812-.910157-3.242187-.523438-4.152343.859374l-59.027344 89.722657c-.914063 1.382812-.527344 3.242187.855468 4.152343.507813.335938 1.082032.496094 1.648438.496094.976562 0 1.929688-.476562 2.507812-1.351562l59.027344-89.722656c.910156-1.382813.527344-3.246094-.859375-4.15625zm0 0"/><path d="m88 357.90625c-1.65625 0-3 1.339844-3 3v86.996094c0 1.660156 1.34375 3 3 3 1.660156 0 3-1.339844 3-3v-86.996094c0-1.65625-1.339844-3-3-3zm0 0"/><path d="m54.261719 332.597656c-.5-1.578125-2.1875-2.449218-3.765625-1.949218l-48.402344 15.347656c-1.578125.5-2.453125 2.183594-1.949219 3.765625.40625 1.277343 1.585938 2.09375 2.855469 2.09375.300781 0 .605469-.046875.910156-.140625l48.402344-15.347656c1.578125-.5 2.449219-2.1875 1.949219-3.769532zm0 0"/></g><path d="m124.089844 75.609375c-1.945313 23.125-26.050782 26.777344-26.050782 26.777344 20.695313.972656 25.851563 28.117187 25.851563 28.117187.441406-19.355468 26.640625-28.40625 26.640625-28.40625-19.625-1.171875-26.441406-26.488281-26.441406-26.488281zm0 0" fill="#d7e057"/><path d="m150.714844 99.105469c-17.210938-1.027344-23.664063-24.046875-23.726563-24.28125-.382812-1.40625-1.722656-2.335938-3.167969-2.203125-1.449218.128906-2.59375 1.28125-2.71875 2.730468-1.71875 20.433594-22.625 23.929688-23.507812 24.066407-1.523438.230469-2.625 1.582031-2.542969 3.125.078125 1.539062 1.3125 2.765625 2.851563 2.839843 18.054687.851563 23 25.4375 23.046875 25.683594.273437 1.421875 1.519531 2.433594 2.945312 2.433594.082031 0 .167969 0 .25-.007812 1.527344-.128907 2.714844-1.386719 2.75-2.917969.386719-17.015625 24.378907-25.554688 24.625-25.640625 1.347657-.46875 2.183594-1.824219 1.988281-3.242188-.199218-1.417968-1.367187-2.5-2.792968-2.585937zm-27.132813 20.691406c-2.714843-6.261719-7.417969-13.816406-15.175781-17.753906 5.863281-2.808594 12.820312-7.824219 16.40625-16.546875 3.101562 6.144531 8.398438 13.761718 16.667969 17.445312-6.015625 3.28125-13.84375 8.8125-17.898438 16.855469zm0 0" fill="#3a312a"/><path d="m80.691406 109.566406c-1.375 16.359375-18.421875 18.941406-18.421875 18.941406 14.636719.691407 18.285157 19.890626 18.285157 19.890626.308593-13.691407 18.84375-20.089844 18.84375-20.089844-13.882813-.832032-18.707032-18.742188-18.707032-18.742188zm0 0" fill="#d7e057"/><path d="m99.578125 125.3125c-11.53125-.691406-15.945313-16.371094-15.988281-16.527344-.382813-1.40625-1.699219-2.339844-3.164063-2.207031-1.453125.132813-2.597656 1.289063-2.722656 2.738281-1.15625 13.742188-15.289063 16.132813-15.882813 16.226563-1.523437.230469-2.625 1.582031-2.546874 3.121093.078124 1.542969 1.3125 2.769532 2.855468 2.84375 12.070313.566407 15.445313 17.289063 15.476563 17.449219.273437 1.425781 1.519531 2.441407 2.945312 2.441407.082031 0 .167969-.003907.25-.011719 1.53125-.125 2.714844-1.386719 2.753907-2.921875.257812-11.417969 16.664062-17.265625 16.824218-17.324219 1.351563-.46875 2.1875-1.824219 1.992188-3.242187-.195313-1.417969-1.367188-2.5-2.792969-2.585938zm-19.171875 13.589844c-1.847656-3.769532-4.679688-7.894532-8.894531-10.558594 3.710937-2.082031 7.394531-5.257812 9.742187-9.832031 2.113282 3.746093 5.308594 7.90625 9.882813 10.445312-3.699219 2.203125-7.976563 5.480469-10.730469 9.945313zm0 0" fill="#3a312a"/><path d="m80.691406 56.253906c-1.375 16.359375-18.421875 18.941406-18.421875 18.941406 14.636719.6875 18.285157 19.886719 18.285157 19.886719.308593-13.6875 18.84375-20.089843 18.84375-20.089843-13.882813-.832032-18.707032-18.738282-18.707032-18.738282zm0 0" fill="#d7e057"/><path d="m99.578125 71.996094c-11.535156-.6875-15.945313-16.371094-15.988281-16.527344-.382813-1.40625-1.699219-2.328125-3.164063-2.207031-1.453125.132812-2.597656 1.289062-2.722656 2.738281-1.15625 13.742188-15.289063 16.132812-15.882813 16.226562-1.523437.230469-2.625 1.582032-2.546874 3.121094.078124 1.542969 1.3125 2.769532 2.855468 2.84375 12.070313.566406 15.445313 17.289063 15.476563 17.453125.273437 1.425781 1.519531 2.4375 2.945312 2.4375.082031 0 .167969 0 .25-.007812 1.53125-.125 2.714844-1.390625 2.753907-2.921875.257812-11.417969 16.664062-17.269532 16.824218-17.324219 1.351563-.46875 2.1875-1.828125 1.992188-3.246094-.195313-1.417969-1.367188-2.5-2.792969-2.585937zm-19.171875 13.589844c-1.847656-3.769532-4.679688-7.890626-8.894531-10.558594 3.710937-2.082032 7.394531-5.257813 9.742187-9.832032 2.113282 3.746094 5.308594 7.90625 9.882813 10.449219-3.699219 2.199219-7.976563 5.476563-10.730469 9.941407zm0 0" fill="#3a312a"/><path d="m421.460938 361.84375-.078126 11.019531c-.183593 22.640625-14.621093 41.820313-34.761718 49.039063 3.917968.042968 7.878906.0625 11.859375.101562h.378906c27.140625 0 49.320313-21.980468 49.523437-49.160156l.097657-12.460938c-8.878907.839844-17.941407 1.339844-27.019531 1.460938zm0 0" fill="#decaad"/><path d="m375.960938 101.582031c-5.421876-3.617187-11.078126-6.820312-16.878907-9.519531-16.160156-7.597656-33.222656-11.460938-50.742187-11.460938-1.019532 0-2.039063.023438-3.058594.042969 8.660156 2 17.039062 4.9375 25.058594 8.699219 5.980468 2.78125 11.742187 6.039062 17.28125 9.738281 44.339844 29.519531 74.378906 86.519531 74.378906 152 0 34.902344-.238281 72.300781-.480469 104.761719 9.121094-.121094 18.140625-.601562 27-1.460938.242188-31.800781.480469-68.597656.480469-103.300781 0-62.21875-28-119.5-73.039062-149.5zm0 0" fill="#695b51"/></svg>