<svg height="476pt" viewBox="0 -11 476 476" width="476pt" xmlns="http://www.w3.org/2000/svg"><path d="m458 314.59375h-440c-.199219 0-.378906 0-.578125-.019531l17.1875 34.539062 11.90625 23.921875 13.507813 27.140625c7.4375 14.957031 22.71875 24.417969 39.4375 24.417969h277.082031c16.71875 0 32-9.460938 39.4375-24.417969l42.601562-85.601562c-.203125.019531-.382812.019531-.582031.019531zm0 0" fill="#f16c7a"/><path d="m461.046875 312.867188c-.625-.902344-1.695313-1.390626-2.773437-1.277344-.097657.011718-.183594.003906-.277344.003906h-439.996094c-.089844 0-.175781.003906-.273438-.003906-1.074218-.113282-2.152343.378906-2.773437 1.277344-.625.898437-.710937 2.066406-.21875 3.042968l17.191406 34.539063c.734375 1.484375 2.542969 2.089843 4.019531 1.347656 1.484376-.738281 2.089844-2.539063 1.351563-4.019531l-15.023437-30.183594h431.453124l-40.429687 81.246094c-6.984375 14.035156-21.066406 22.753906-36.757813 22.753906h-277.078124c-15.691407 0-29.773438-8.71875-36.757813-22.753906l-13.503906-27.144532c-.738281-1.484374-2.542969-2.085937-4.023438-1.347656-1.484375.738282-2.085937 2.539063-1.351562 4.023438l13.507812 27.140625c8.003907 16.085937 24.144531 26.082031 42.125 26.082031h277.082031c17.984376 0 34.125-9.992188 42.125-26.082031l42.601563-85.601563c.488281-.976562.40625-2.144531-.21875-3.042968zm0 0" fill="#3a312a"/><path d="m112.292969 424.59375h85.410156v26h-85.410156zm0 0" fill="#87796f"/><path d="m197.703125 421.59375h-85.410156c-1.65625 0-3 1.34375-3 3v26c0 1.660156 1.34375 3 3 3h85.410156c1.65625 0 3-1.339844 3-3v-26c0-1.65625-1.339844-3-3-3zm-3 26h-79.410156v-20h79.410156zm0 0" fill="#3a312a"/><path d="m278.296875 424.59375h85.410156v26h-85.410156zm0 0" fill="#87796f"/><path d="m363.703125 421.59375h-85.410156c-1.65625 0-3 1.34375-3 3v26c0 1.660156 1.34375 3 3 3h85.410156c1.65625 0 3-1.339844 3-3v-26c0-1.65625-1.339844-3-3-3zm-3 26h-79.410156v-20h79.410156zm0 0" fill="#3a312a"/><path d="m458 284.59375h-440c-8.285156 0-15 6.714844-15 15s6.714844 15 15 15h440c8.285156 0 15-6.714844 15-15s-6.714844-15-15-15zm0 0" fill="#f16c7a"/><path d="m458 281.59375h-128.15625c-1.65625 0-3 1.34375-3 3 0 1.660156 1.34375 3 3 3h128.15625c6.617188 0 12 5.382812 12 12s-5.382812 12-12 12h-440c-6.617188 0-12-5.382812-12-12s5.382812-12 12-12h286.152344c1.65625 0 3-1.339844 3-3 0-1.65625-1.34375-3-3-3h-286.152344c-9.925781 0-18 8.078125-18 18 0 9.925781 8.074219 18 18 18h440c9.925781 0 18-8.074219 18-18 0-9.921875-8.074219-18-18-18zm0 0" fill="#3a312a"/><path d="m423.71875 317.59375-40.417969 81.238281c-6.980469 14.042969-21.082031 22.761719-36.761719 22.761719h30c15.679688 0 29.78125-8.71875 36.761719-22.761719l40.417969-81.238281zm0 0" fill="#d34e5c"/><path d="m458 287.59375h-30c6.621094 0 12 5.378906 12 12s-5.378906 12-12 12h30c6.621094 0 12-5.378906 12-12s-5.378906-12-12-12zm0 0" fill="#d34e5c"/><path d="m369 237.59375c0 10.492188-8.507812 19-19 19s-19-8.507812-19-19 8.507812-19 19-19 19 8.507812 19 19zm0 0" fill="#8ac6dd"/><path d="m350 215.59375c-12.128906 0-22 9.871094-22 22s9.871094 22 22 22 22-9.871094 22-22-9.871094-22-22-22zm0 38c-8.820312 0-16-7.179688-16-16s7.179688-16 16-16 16 7.179688 16 16c0 8.824219-7.179688 16-16 16zm0 0" fill="#3a312a"/><path d="m105.636719 44.691406c-19.214844-34.957031-69.824219-44.039062-76.582031-40.324218-5.53125 3.039062-26.210938 51.308593-6.996094 86.265624 19.21875 34.960938 45.734375 38.878907 68.8125 26.191407s33.980468-37.175781 14.765625-72.132813zm0 0" fill="#87796f"/><path d="m108.265625 43.246094c-19.964844-36.308594-71.957031-46.292969-80.65625-41.507813-6.898437 3.792969-28.492187 53.382813-8.175781 90.339844 12.378906 22.519531 29.296875 34.335937 47.796875 34.335937 8.140625 0 16.585937-2.289062 25.085937-6.960937 12.902344-7.089844 21.445313-17.316406 24.699219-29.574219 3.648437-13.742187.703125-29.429687-8.75-46.632812zm2.949219 45.09375c-2.824219 10.632812-10.359375 19.570312-21.789063 25.855468-24.882812 13.683594-48.480469 4.566407-64.738281-25.003906-18.179688-33.074218 1.34375-78.917968 5.804688-82.191406.503906-.261719 1.539062-.398438 3.007812-.398438 11.992188 0 52.90625 9.347657 69.503906 39.539063 8.691406 15.800781 11.449219 30 8.210938 42.199219zm0 0" fill="#3a312a"/><path d="m85.671875 51.644531c-10.816406-19.675781-39.300781-24.789062-43.105469-22.695312-3.113281 1.710937-14.753906 28.875-3.9375 48.554687 10.816406 19.675782 25.742188 21.878906 38.730469 14.738282 12.992187-7.136719 19.125-20.921876 8.3125-40.597657zm0 0" fill="#f16c7a"/><path d="m88.296875 50.199219c-6.277344-11.421875-17.453125-17.648438-25.722656-20.859375-7.652344-2.976563-17.777344-5.042969-21.453125-3.019532-4.964844 2.730469-16.445313 32.027344-5.117188 52.628907 5.488282 9.988281 12.308594 16.324219 20.273438 18.839843 2.488281.785157 5.050781 1.175782 7.660156 1.175782 4.886719 0 9.921875-1.375 14.867188-4.09375 16.375-8.996094 19.921874-25.699219 9.492187-44.671875zm-12.382813 39.417969c-6.113281 3.359374-12.277343 4.207031-17.828124 2.453124-6.445313-2.035156-12.105469-7.421874-16.824219-16.011718-9.527344-17.324219-.214844-41.0625 2.835937-44.476563 4.617188-1.085937 29.519532 4.367188 38.945313 21.511719 8.871093 16.144531 6.34375 29.117188-7.128907 36.523438zm0 0" fill="#3a312a"/><path d="m282.996094 4.367188c-6.761719-3.714844-57.367188 5.367187-76.582032 40.324218-19.214843 34.957032-8.316406 59.445313 14.761719 72.132813s49.597657 8.765625 68.8125-26.191407c19.21875-34.957031-1.460937-83.226562-6.992187-86.265624zm0 0" fill="#87796f"/><path d="m284.441406 1.738281c-8.714844-4.785156-60.699218 5.203125-80.65625 41.507813-17.824218 32.429687-11.863281 60.917968 15.949219 76.207031 8.4375 4.636719 17.003906 6.980469 25.304687 6.980469 4.390626 0 8.710938-.65625 12.898438-1.980469 13.554688-4.28125 25.222656-15.175781 34.679688-32.378906 20.320312-36.953125-1.277344-86.542969-8.175782-90.335938zm2.917969 87.449219c-8.6875 15.804688-19.195313 25.746094-31.230469 29.546875-10.492187 3.3125-22.074218 1.742187-33.503906-4.539063-24.886719-13.679687-29.835938-38.488281-13.582031-68.058593 18.632812-33.894531 67.902343-41.515625 72.4375-39.183594 4.535156 3.320313 24.0625 49.160156 5.878906 82.234375zm0 0" fill="#3a312a"/><path d="m269.484375 28.949219c-3.804687-2.09375-32.289063 3.019531-43.105469 22.695312s-4.679687 33.457031 8.3125 40.597657c12.988282 7.140624 27.914063 4.9375 38.730469-14.738282 10.8125-19.675781-.824219-46.84375-3.9375-48.554687zm0 0" fill="#f16c7a"/><path d="m270.929688 26.320312c-3.675782-2.023437-13.800782.046876-21.453126 3.019532-8.269531 3.210937-19.445312 9.4375-25.722656 20.859375-5.488281 9.988281-7.1875 19.144531-5.042968 27.214843 1.925781 7.253907 6.953124 13.292969 14.535156 17.460938 5.03125 2.761719 10.023437 4.117188 14.828125 4.117188 10.847656 0 20.75-6.894532 27.976562-20.042969 11.320313-20.597657-.15625-49.898438-5.121093-52.628907zm-.140626 49.738282c-8.878906 16.148437-21.1875 20.960937-34.65625 13.558594-6.109374-3.359376-10.128906-8.113282-11.625-13.742188-1.734374-6.527344-.21875-14.195312 4.503907-22.785156 8.703125-15.832032 30.605469-21.691406 37.441406-21.691406.621094 0 1.117187.050781 1.46875.144531 3.011719 3.273437 12.425781 27.128906 2.867187 44.515625zm0 0" fill="#3a312a"/><path d="m285.964844 167.578125c-1.347656-21.472656-7.742188-42.699219-18.039063-61.804687-12.445312-23.128907-30.566406-43.089844-52.226562-56.410157-7.742188-4.761719-15.933594-8.664062-24.496094-11.585937-1.800781-.613282-3.617187-1.183594-5.457031-1.695313-9.542969-2.71875-19.492188-4.1875-29.726563-4.1875-12.199219 0-24.007812 2.082031-35.183593 5.882813-8.542969 2.921875-16.757813 6.824218-24.480469 11.585937-21.675781 13.320313-39.800781 33.28125-52.242188 56.410157-11.648437 21.636718-18.328125 46.03125-18.328125 70.386718 0 71.941406 59.085938 116.21875 131.007813 116.21875 71.9375 0 129.453125-44.277344 129.453125-116.21875.007812-2.859375-.074219-5.71875-.28125-8.582031zm0 0" fill="#fce8cb"/><path d="m288.960938 167.390625c-1.34375-21.414063-7.707032-43.210937-18.394532-63.039063-13.023437-24.214843-31.453125-44.113281-53.292968-57.546874-8.015626-4.925782-16.460938-8.917969-25.101563-11.867188-1.984375-.675781-3.820313-1.25-5.601563-1.742188-21.957031-6.25-44.992187-5.640624-66.707031 1.742188-8.683593 2.972656-17.125 6.964844-25.074219 11.867188-21.847656 13.425781-40.285156 33.328124-53.316406 57.546874-12.226562 22.710938-18.6875 47.542969-18.6875 71.808594 0 35.292969 13.695313 65.507813 39.601563 87.378906 24.316406 20.53125 57.847656 31.839844 94.410156 31.839844 77.988281 0 132.457031-49.023437 132.457031-119.21875 0-3.148437-.097656-6.027344-.292968-8.769531zm-132.164063 121.988281c-35.148437 0-67.304687-10.804687-90.539063-30.421875-24.515624-20.695312-37.472656-49.324219-37.472656-82.792969 0-23.277343 6.210938-47.125 17.972656-68.964843 12.527344-23.292969 30.222657-42.40625 51.175782-55.28125 7.578125-4.671875 15.609375-8.472657 23.867187-11.296875 11.171875-3.800782 22.683594-5.726563 34.21875-5.726563 9.691407 0 19.417969 1.371094 28.925781 4.082031 1.6875.46875 3.417969 1.003907 5.289063 1.644532 8.21875 2.804687 16.257813 6.605468 23.894531 11.300781 20.9375 12.878906 38.628906 31.992187 51.152344 55.28125 10.28125 19.070313 16.398438 40.015625 17.691406 60.597656.1875 2.621094.28125 5.359375.28125 8.363281 0 66.65625-52 113.214844-126.457031 113.214844zm0 0" fill="#3a312a"/><path d="m267.925781 105.773438c-12.445312-23.128907-30.566406-43.089844-52.226562-56.410157-7.742188-4.761719-15.933594-8.664062-24.496094-11.585937-1.800781-.613282-3.617187-1.183594-5.457031-1.695313-18.183594 15.179688-29.746094 38-29.746094 63.542969 0 45.703125 37.042969 82.746094 82.746094 82.746094 17.550781 0 33.839844-5.457032 47.21875-14.792969-1.347656-21.472656-7.742188-42.699219-18.039063-61.804687zm0 0" fill="#87796f"/><path d="m270.566406 104.351562c-13.027344-24.214843-31.457031-44.113281-53.296875-57.546874-8.011719-4.925782-16.457031-8.917969-25.101562-11.867188-1.980469-.675781-3.820313-1.25-5.621094-1.746094-.957031-.265625-1.96875-.046875-2.722656.585938-19.589844 16.355468-30.824219 40.355468-30.824219 65.847656 0 47.28125 38.464844 85.746094 85.746094 85.746094 17.636718 0 34.558594-5.300782 48.9375-15.332032.859375-.597656 1.34375-1.601562 1.277344-2.648437-1.34375-21.414063-7.707032-43.210937-18.394532-63.039063zm-31.820312 75.019532c-43.96875 0-79.746094-35.773438-79.746094-79.746094 0-23.179688 9.988281-45.035156 27.464844-60.21875 1.210937.363281 2.457031.757812 3.769531 1.207031 8.21875 2.808594 16.257813 6.609375 23.894531 11.300781 20.9375 12.878907 38.628906 31.996094 51.152344 55.28125 10 18.546876 16.058594 38.867188 17.570312 58.875-13.054687 8.707032-28.269531 13.300782-44.105468 13.300782zm0 0" fill="#3a312a"/><path d="m156.074219 171.878906c-10.609375-.046875-19.234375 5.078125-19.265625 11.445313-.027344 6.367187 8.53125 16.691406 19.144531 16.738281 10.609375.046875 19.261719-10.203125 19.289063-16.570312.027343-6.367188-8.554688-11.566407-19.167969-11.613282zm0 0" fill="#3a312a"/><path d="m156.023438 194.339844c0 13.710937-10.386719 24.96875-23.722657 26.359375.25 16.515625 10.777344 29.789062 23.722657 29.789062 12.945312 0 23.472656-13.273437 23.722656-29.789062-13.335938-1.390625-23.722656-12.652344-23.722656-26.359375zm0 0" fill="#f16c7a"/><g fill="#3a312a"><path d="m180.058594 217.714844c-11.992188-1.25-21.035156-11.296875-21.035156-23.375 0-1.65625-1.34375-3-3-3s-3 1.34375-3 3c0 12.078125-9.042969 22.125-21.035157 23.375-1.542969.160156-2.710937 1.472656-2.6875 3.027344.273438 18.363281 12.011719 32.746093 26.722657 32.746093 14.703124 0 26.445312-14.382812 26.71875-32.746093.03125-1.554688-1.136719-2.867188-2.683594-3.027344zm-24.03125 29.773437c-10.542969 0-19.394532-10.65625-20.589844-24.234375 9.152344-1.847656 16.652344-7.851562 20.589844-15.894531 3.9375 8.042969 11.433594 14.046875 20.589844 15.894531-1.203126 13.578125-10.054688 24.234375-20.589844 24.234375zm0 0"/><path d="m156.027344 191.339844c-1.65625 0-3 1.34375-3 3 0 12.078125-9.046875 22.125-21.078125 23.378906-.757813.089844-1.578125.136719-2.4375.136719-12.964844 0-23.515625-10.550781-23.515625-23.515625 0-1.65625-1.34375-3-3-3s-3 1.34375-3 3c0 16.273437 13.238281 29.515625 29.515625 29.515625 1.097656 0 2.152343-.0625 3.101562-.171875 15.058594-1.570313 26.414063-14.183594 26.414063-29.34375 0-1.65625-1.34375-3-3-3zm0 0"/><path d="m209.054688 191.339844c-1.65625 0-3 1.34375-3 3 0 12.964844-10.546876 23.515625-23.515626 23.515625-.863281 0-1.683593-.046875-2.480468-.140625-11.992188-1.25-21.035156-11.296875-21.035156-23.375 0-1.65625-1.34375-3-3-3s-3 1.34375-3 3c0 15.164062 11.355468 27.777344 26.371093 29.339844.988281.117187 2.046875.175781 3.144531.175781 16.273438 0 29.515626-13.242188 29.515626-29.515625 0-1.65625-1.34375-3-3-3zm0 0"/><path d="m115.472656 138.96875c-6.027344 0-10.917968 4.890625-10.917968 10.917969 0 6.03125 4.890624 10.917969 10.917968 10.917969 6.03125 0 10.917969-4.886719 10.917969-10.917969 0-6.027344-4.886719-10.917969-10.917969-10.917969zm0 0"/><path d="m196.574219 138.96875c-6.027344 0-10.917969 4.890625-10.917969 10.917969 0 6.03125 4.890625 10.917969 10.917969 10.917969 6.03125 0 10.917969-4.886719 10.917969-10.917969 0-6.027344-4.886719-10.917969-10.917969-10.917969zm0 0"/><path d="m269.882812 187.988281h-45.09375c-1.65625 0-3 1.339844-3 3 0 1.65625 1.34375 3 3 3h45.09375c1.65625 0 3-1.34375 3-3s-1.34375-3-3-3zm0 0"/><path d="m262.648438 218.875-38.367188-19.035156c-1.484375-.738282-3.285156-.132813-4.019531 1.351562-.738281 1.484375-.132813 3.285156 1.351562 4.019532l38.367188 19.039062c.429687.210938.882812.3125 1.332031.3125 1.101562 0 2.164062-.609375 2.691406-1.667969.734375-1.484375.128906-3.28125-1.355468-4.019531zm0 0"/><path d="m264.003906 159.082031c-.738281-1.484375-2.535156-2.09375-4.023437-1.355469l-38.367188 19.039063c-1.484375.738281-2.089843 2.539063-1.351562 4.019531.523437 1.058594 1.585937 1.667969 2.6875 1.667969.449219 0 .902343-.097656 1.332031-.3125l38.367188-19.039063c1.484374-.734374 2.089843-2.539062 1.355468-4.019531zm0 0"/><path d="m269.882812 187.988281h-45.09375c-1.65625 0-3 1.339844-3 3 0 1.65625 1.34375 3 3 3h45.09375c1.65625 0 3-1.34375 3-3s-1.34375-3-3-3zm0 0"/><path d="m262.648438 218.875-38.367188-19.035156c-1.484375-.738282-3.285156-.132813-4.019531 1.351562-.738281 1.484375-.132813 3.285156 1.351562 4.019532l38.367188 19.039062c.429687.210938.882812.3125 1.332031.3125 1.101562 0 2.164062-.609375 2.691406-1.667969.734375-1.484375.128906-3.28125-1.355468-4.019531zm0 0"/><path d="m264.003906 159.082031c-.738281-1.484375-2.535156-2.09375-4.023437-1.355469l-38.367188 19.039063c-1.484375.738281-2.089843 2.539063-1.351562 4.019531.523437 1.058594 1.585937 1.667969 2.6875 1.667969.449219 0 .902343-.097656 1.332031-.3125l38.367188-19.039063c1.484374-.734374 2.089843-2.539062 1.355468-4.019531zm0 0"/><path d="m88.042969 187.988281h-45.09375c-1.65625 0-3 1.339844-3 3 0 1.65625 1.34375 3 3 3h45.09375c1.65625 0 3-1.34375 3-3s-1.34375-3-3-3zm0 0"/><path d="m92.570312 201.191406c-.734374-1.484375-2.535156-2.09375-4.023437-1.351562l-38.367187 19.035156c-1.484376.738281-2.089844 2.535156-1.355469 4.019531.527343 1.058594 1.585937 1.667969 2.691406 1.667969.449219 0 .902344-.097656 1.332031-.3125l38.367188-19.039062c1.488281-.734376 2.089844-2.535157 1.355468-4.019532zm0 0"/><path d="m91.214844 176.765625-38.367188-19.039063c-1.484375-.738281-3.285156-.128906-4.023437 1.351563-.734375 1.484375-.128907 3.285156 1.355469 4.023437l38.367187 19.035157c.429687.214843.882813.316406 1.332031.316406 1.105469 0 2.167969-.613281 2.691406-1.667969.734376-1.484375.132813-3.285156-1.355468-4.019531zm0 0"/></g><path d="m433.933594 22.097656c-1.8125 23.136719-25.890625 26.929688-25.890625 26.929688 20.695312.851562 26.015625 27.964844 26.015625 27.964844.328125-19.355469 26.472656-28.558594 26.472656-28.558594-19.632812-1.058594-26.597656-26.335938-26.597656-26.335938zm0 0" fill="#d7e057"/><path d="m460.695312 45.4375c-17.214843-.929688-23.808593-23.910156-23.875-24.144531-.386718-1.402344-1.714843-2.320313-3.179687-2.183594-1.449219.140625-2.585937 1.296875-2.699219 2.75-1.601562 20.441406-22.488281 24.0625-23.371094 24.203125-1.523437.238281-2.617187 1.59375-2.527343 3.136719.089843 1.539062 1.332031 2.757812 2.871093 2.824219 18.0625.742187 23.148438 25.300781 23.199219 25.546874.28125 1.414063 1.523438 2.417969 2.941407 2.417969.089843 0 .179687-.003906.269531-.011719 1.527343-.136718 2.707031-1.402343 2.730469-2.9375.289062-17.019531 24.234374-25.695312 24.472656-25.78125 1.351562-.476562 2.175781-1.839843 1.96875-3.253906-.199219-1.414062-1.375-2.488281-2.800782-2.566406zm-27.011718 20.851562c-2.75-6.246093-7.5-13.769531-15.28125-17.664062 5.847656-2.84375 12.777344-7.902344 16.308594-16.644531 3.136718 6.125 8.480468 13.710937 16.769531 17.347656-5.996094 3.316406-13.789063 8.890625-17.796875 16.960937zm0 0" fill="#3a312a"/><path d="m390.734375 56.3125c-1.28125 16.367188-18.3125 19.050781-18.3125 19.050781 14.640625.601563 18.398437 19.777344 18.398437 19.777344.234376-13.6875 18.726563-20.199219 18.726563-20.199219-13.886719-.75-18.8125-18.628906-18.8125-18.628906zm0 0" fill="#d7e057"/><path d="m409.710938 71.945312c-11.539063-.625-16.039063-16.277343-16.085938-16.433593-.390625-1.402344-1.746094-2.320313-3.175781-2.1875-1.453125.140625-2.59375 1.300781-2.707031 2.753906-1.074219 13.746094-15.195313 16.222656-15.789063 16.320313-1.523437.238281-2.617187 1.59375-2.527344 3.136718.089844 1.539063 1.332031 2.757813 2.871094 2.824219 12.074219.496094 15.550781 17.195313 15.582031 17.359375.277344 1.417969 1.523438 2.425781 2.941406 2.425781.089844 0 .179688-.003906.269532-.011719 1.527344-.136718 2.707031-1.40625 2.734375-2.9375.191406-11.421874 16.558593-17.367187 16.71875-17.421874 1.351562-.476563 2.175781-1.839844 1.972656-3.257813-.199219-1.417969-1.375-2.496094-2.804687-2.570313zm-19.089844 13.699219c-1.867188-3.757812-4.726563-7.863281-8.957032-10.503906 3.703126-2.105469 7.367188-5.300781 9.683594-9.890625 2.136719 3.734375 5.355469 7.875 9.945313 10.386719-3.6875 2.226562-7.945313 5.527343-10.671875 10.007812zm0 0" fill="#3a312a"/><path d="m390.421875 2.996094c-1.28125 16.367187-18.3125 19.050781-18.3125 19.050781 14.640625.601563 18.402344 19.777344 18.402344 19.777344.230469-13.6875 18.726562-20.199219 18.726562-20.199219-13.890625-.75-18.816406-18.628906-18.816406-18.628906zm0 0" fill="#d7e057"/><path d="m409.398438 18.628906c-11.507813-.617187-16.019532-16.191406-16.085938-16.429687-.386719-1.40625-1.738281-2.316407-3.175781-2.1875002-1.453125.1367192-2.59375 1.3007812-2.707031 2.7539062-1.074219 13.746094-15.199219 16.222656-15.789063 16.316406-1.523437.242188-2.617187 1.597657-2.527344 3.136719.085938 1.542969 1.328125 2.761719 2.871094 2.824219 12.070313.5 15.546875 17.199219 15.578125 17.359375.28125 1.417968 1.523438 2.421875 2.945312 2.421875.085938 0 .175782-.003907.265626-.011719 1.527343-.132812 2.707031-1.402344 2.734374-2.9375.195313-11.417969 16.558594-17.363281 16.722657-17.421875 1.347656-.476563 2.175781-1.835937 1.972656-3.253906-.199219-1.414063-1.375-2.492188-2.804687-2.570313zm-19.089844 13.703125c-1.871094-3.757812-4.726563-7.863281-8.957032-10.503906 3.699219-2.105469 7.363282-5.304687 9.683594-9.890625 2.136719 3.738281 5.355469 7.878906 9.941406 10.386719-3.683593 2.222656-7.941406 5.527343-10.667968 10.007812zm0 0" fill="#3a312a"/><path d="m131 292.59375c0 17.671875-14.328125 32-32 32s-32-14.328125-32-32 14.328125-32 32-32 32 14.328125 32 32zm0 0" fill="#fce8cb"/><path d="m99 257.59375c-19.296875 0-35 15.703125-35 35s15.703125 35 35 35 35-15.703125 35-35-15.703125-35-35-35zm0 64c-15.988281 0-29-13.011719-29-29s13.011719-29 29-29 29 13.011719 29 29c0 15.992188-13.011719 29-29 29zm0 0" fill="#3a312a"/><path d="m245 292.59375c0 17.671875-14.328125 32-32 32s-32-14.328125-32-32 14.328125-32 32-32 32 14.328125 32 32zm0 0" fill="#fce8cb"/><path d="m213 257.59375c-19.296875 0-35 15.703125-35 35s15.703125 35 35 35 35-15.703125 35-35-15.703125-35-35-35zm0 64c-15.988281 0-29-13.011719-29-29s13.011719-29 29-29 29 13.011719 29 29c0 15.992188-13.011719 29-29 29zm0 0" fill="#3a312a"/><path d="m461 235.59375c0 17.121094-13.878906 31-31 31s-31-13.878906-31-31 13.878906-31 31-31 31 13.878906 31 31zm0 0" fill="#8ac6dd"/><path d="m430 201.59375c-18.746094 0-34 15.253906-34 34 0 18.75 15.253906 34 34 34s34-15.25 34-34c0-18.746094-15.253906-34-34-34zm0 62c-15.441406 0-28-12.558594-28-28s12.558594-28 28-28 28 12.558594 28 28-12.558594 28-28 28zm0 0" fill="#3a312a"/><path d="m231 39.59375c0 17.121094-13.878906 31-31 31s-31-13.878906-31-31 13.878906-31 31-31 31 13.878906 31 31zm0 0" fill="#8ac6dd"/><path d="m200 5.59375c-18.746094 0-34 15.253906-34 34 0 18.75 15.253906 34 34 34s34-15.25 34-34c0-18.746094-15.253906-34-34-34zm0 62c-15.441406 0-28-12.558594-28-28s12.558594-28 28-28 28 12.558594 28 28-12.558594 28-28 28zm0 0" fill="#3a312a"/><path d="m370 158.59375c0 17.121094-13.878906 31-31 31s-31-13.878906-31-31 13.878906-31 31-31 31 13.878906 31 31zm0 0" fill="#8ac6dd"/><path d="m339 124.59375c-18.746094 0-34 15.253906-34 34 0 18.75 15.253906 34 34 34s34-15.25 34-34c0-18.746094-15.253906-34-34-34zm0 62c-15.441406 0-28-12.558594-28-28s12.558594-28 28-28 28 12.558594 28 28-12.558594 28-28 28zm0 0" fill="#3a312a"/><path d="m128.035156 55.15625c0 17.121094-13.878906 31-31 31s-31-13.878906-31-31 13.878906-31 31-31 31 13.878906 31 31zm0 0" fill="#8ac6dd"/><path d="m97.035156 21.15625c-18.75 0-34 15.253906-34 34 0 18.75 15.25 34 34 34 18.746094 0 34-15.25 34-34 0-18.746094-15.253906-34-34-34zm0 62c-15.441406 0-28-12.558594-28-28 0-15.4375 12.558594-28 28-28 15.4375 0 28 12.5625 28 28 0 15.441406-12.5625 28-28 28zm0 0" fill="#3a312a"/></svg>