<svg height="452pt" viewBox="-15 0 452 452" width="452pt" xmlns="http://www.w3.org/2000/svg"><path d="m76.226562 329.933594c-1.945312 23.128906-26.046874 26.78125-26.046874 26.78125 20.691406.972656 25.847656 28.117187 25.847656 28.117187.441406-19.355469 26.644531-28.402343 26.644531-28.402343-19.628906-1.175782-26.445313-26.496094-26.445313-26.496094zm0 0" fill="#d7e057"/><path d="m102.851562 353.433594c-17.210937-1.03125-23.664062-24.050782-23.726562-24.285156-.382812-1.402344-1.707031-2.3125-3.167969-2.203126-1.449219.132813-2.597656 1.285157-2.71875 2.734376-1.71875 20.429687-22.625 23.929687-23.507812 24.066406-1.527344.230468-2.625 1.578125-2.546875 3.121094.082031 1.539062 1.3125 2.769531 2.855468 2.84375 18.054688.847656 22.996094 25.433593 23.042969 25.683593.277344 1.421875 1.519531 2.433594 2.945313 2.433594.085937 0 .167968-.003906.253906-.011719 1.527344-.125 2.714844-1.382812 2.75-2.917968.386719-17.019532 24.378906-25.554688 24.625-25.636719 1.351562-.472657 2.183594-1.828125 1.988281-3.246094-.199219-1.414063-1.367187-2.496094-2.792969-2.582031zm-27.132812 20.691406c-2.714844-6.261719-7.417969-13.816406-15.171875-17.753906 5.859375-2.808594 12.816406-7.824219 16.402344-16.542969 3.101562 6.140625 8.398437 13.761719 16.667969 17.445313-6.015626 3.277343-13.847657 8.808593-17.898438 16.851562zm0 0" fill="#3a312a"/><path d="m32.828125 363.894531c-1.375 16.359375-18.421875 18.945313-18.421875 18.945313 14.636719.6875 18.285156 19.886718 18.285156 19.886718.3125-13.6875 18.84375-20.089843 18.84375-20.089843-13.882812-.832031-18.707031-18.742188-18.707031-18.742188zm0 0" fill="#d7e057"/><path d="m51.714844 379.640625c-11.535156-.691406-15.945313-16.371094-15.988282-16.53125-.378906-1.402344-1.722656-2.320313-3.164062-2.203125-1.449219.128906-2.597656 1.285156-2.71875 2.734375-1.160156 13.742187-15.296875 16.136719-15.886719 16.230469-1.523437.230468-2.625 1.578125-2.546875 3.121094.082032 1.539062 1.316406 2.769531 2.859375 2.84375 12.070313.566406 15.445313 17.285156 15.476563 17.449218.273437 1.425782 1.519531 2.441406 2.945312 2.441406.082032 0 .167969-.003906.25-.011718 1.53125-.125 2.714844-1.386719 2.753906-2.921875.257813-11.417969 16.660157-17.265625 16.824219-17.324219 1.351563-.464844 2.183594-1.824219 1.992188-3.242188-.199219-1.417968-1.371094-2.5-2.796875-2.585937zm-19.171875 13.589844c-1.847657-3.769531-4.679688-7.894531-8.894531-10.558594 3.714843-2.082031 7.394531-5.261719 9.742187-9.835937 2.117187 3.75 5.308594 7.90625 9.882813 10.449218-3.699219 2.199219-7.976563 5.480469-10.730469 9.945313zm0 0" fill="#3a312a"/><path d="m32.828125 310.578125c-1.375 16.359375-18.421875 18.945313-18.421875 18.945313 14.636719.6875 18.285156 19.886718 18.285156 19.886718.3125-13.691406 18.84375-20.089844 18.84375-20.089844-13.882812-.832031-18.707031-18.742187-18.707031-18.742187zm0 0" fill="#d7e057"/><path d="m51.714844 326.324219c-11.535156-.691407-15.945313-16.371094-15.988282-16.527344-.378906-1.40625-1.722656-2.320313-3.164062-2.203125-1.449219.128906-2.597656 1.28125-2.71875 2.734375-1.160156 13.742187-15.296875 16.132813-15.886719 16.226563-1.523437.230468-2.625 1.582031-2.546875 3.125.082032 1.539062 1.316406 2.765624 2.859375 2.839843 12.070313.570313 15.445313 17.289063 15.476563 17.453125.273437 1.421875 1.519531 2.4375 2.945312 2.4375.082032 0 .167969 0 .25-.007812 1.53125-.125 2.714844-1.386719 2.753906-2.921875.257813-11.417969 16.660157-17.269531 16.824219-17.324219 1.351563-.46875 2.183594-1.828125 1.992188-3.246094-.199219-1.417968-1.371094-2.5-2.796875-2.585937zm-19.171875 13.589843c-1.847657-3.769531-4.679688-7.890624-8.894531-10.558593 3.714843-2.082031 7.394531-5.257813 9.742187-9.832031 2.117187 3.746093 5.308594 7.910156 9.882813 10.445312-3.699219 2.203125-7.976563 5.480469-10.730469 9.945312zm0 0" fill="#3a312a"/><path d="m404.300781 91.878906c-14.761719-14.679687-37.179687-17.378906-63.539062-17.820312l-2.742188 23.980468c22.101563.242188 40.339844 1.902344 49.339844 10.859376 5.320313 5.300781 7.921875 13.820312 7.921875 26.0625 0 45.980468-36.082031 120.640624-76.261719 128.320312-1.378906 8.839844-4.359375 17.097656-8.621093 24.5.621093.097656 1.261718.160156 1.921874.160156 28.058594 0 55.558594-20.121094 77.441407-56.660156 18.199219-30.402344 29.519531-67.300781 29.519531-96.320312 0-18.941407-4.902344-33.039063-14.980469-43.082032zm0 0" fill="#f16c7a"/><path d="m406.414062 89.753906c-14.933593-14.855468-37.027343-18.21875-65.601562-18.695312h-.050781c-1.523438 0-2.804688 1.140625-2.980469 2.660156l-2.742188 23.980469c-.09375.84375.171876 1.6875.730469 2.324219.5625.636718 1.367188 1.003906 2.214844 1.015624 22.59375.246094 39.277344 2.035157 47.257813 9.984376 4.734374 4.71875 7.039062 12.546874 7.039062 23.933593 0 22.253907-8.695312 51.785157-22.6875 77.070313-15.15625 27.382812-33.796875 44.988281-51.136719 48.304687-1.246093.238281-2.210937 1.230469-2.402343 2.484375-1.292969 8.304688-4.074219 16.199219-8.253907 23.464844-.492187.855469-.535156 1.894531-.109375 2.785156.421875.890625 1.257813 1.519532 2.230469 1.671875.832031.136719 1.613281.199219 2.394531.199219 29.15625 0 57.574219-20.640625 80.019532-58.121094 18.46875-30.851562 29.945312-68.351562 29.945312-97.859375 0-19.785156-5.1875-34.570312-15.867188-45.203125zm-19.226562 139.984375c-20.519531 34.265625-45.921875 53.710938-71.839844 55.121094 2.957032-6.042969 5.0625-12.433594 6.285156-19.078125 18.480469-4.554688 37.761719-22.933594 53.210938-50.84375 14.457031-26.121094 23.4375-56.765625 23.4375-79.976562 0-13.0625-2.878906-22.28125-8.804688-28.183594-8.980468-8.941406-25.714843-11.261719-48.101562-11.6875l2.054688-17.972656c25.800781.613281 45.699218 3.90625 58.753906 16.890624 9.484375 9.449219 14.097656 22.84375 14.097656 40.953126 0 28.484374-11.148438 64.800781-29.09375 94.777343zm0 0" fill="#3a312a"/><path d="m103.261719 263.28125c-40.183594-7.679688-76.261719-82.339844-76.261719-128.320312 0-12.242188 2.601562-20.761719 7.921875-26.0625 9-8.957032 27.238281-10.617188 49.339844-10.859376l-2.742188-23.980468c-26.378906.441406-48.78125 3.140625-63.539062 17.820312-10.082031 10.042969-14.980469 24.140625-14.980469 43.082032 0 29.019531 11.320312 65.917968 29.519531 96.320312 21.878907 36.539062 49.378907 56.660156 77.441407 56.660156.660156 0 1.300781-.0625 1.917968-.160156-4.257812-7.402344-7.238281-15.660156-8.617187-24.5zm0 0" fill="#f16c7a"/><path d="m114.480469 286.285156c-4.183594-7.265625-6.957031-15.160156-8.257813-23.46875-.195312-1.25-1.15625-2.246094-2.402344-2.480468-17.339843-3.316407-35.976562-20.925782-51.132812-48.304688-13.996094-25.285156-22.6875-54.816406-22.6875-77.070312 0-11.386719 2.300781-19.21875 7.039062-23.933594 7.984376-7.949219 24.664063-9.742188 47.253907-9.988282.847656-.007812 1.65625-.378906 2.21875-1.011718.558593-.636719.824219-1.484375.726562-2.328125l-2.734375-23.980469c-.175781-1.515625-1.460937-2.660156-2.980468-2.660156-.015626 0-.035157 0-.050782 0-28.578125.480468-50.671875 3.839844-65.609375 18.695312-10.671875 10.632813-15.863281 25.417969-15.863281 45.207032 0 29.507812 11.472656 67.007812 29.949219 97.859374 22.441406 37.480469 50.855469 58.121094 80.011719 58.121094.78125 0 1.566406-.0625 2.394531-.199218.972656-.152344 1.808593-.78125 2.234375-1.667969.421875-.894531.382812-1.9375-.109375-2.789063zm-79.386719-56.546875c-17.945312-29.972656-29.09375-66.292969-29.09375-94.777343 0-18.109376 4.613281-31.507813 14.097656-40.953126 13.054688-12.988281 32.953125-16.28125 58.753906-16.894531l2.050782 17.976563c-22.382813.421875-39.117188 2.746094-48.101563 11.683594-5.921875 5.902343-8.800781 15.121093-8.800781 28.183593 0 23.207031 8.980469 53.855469 23.4375 79.976563 15.449219 27.910156 34.722656 46.289062 53.207031 50.84375 1.222657 6.648437 3.332031 13.039062 6.289063 19.078125-25.921875-1.40625-51.324219-20.851563-71.839844-55.117188zm0 0" fill="#3a312a"/><path d="m80.140625 62 12.90625 112.730469 3.039063 26.527343 6.753906 58.980469c4.15625 36.328125 34.910156 63.761719 71.480468 63.761719h73.640626c36.566406 0 67.320312-27.433594 71.480468-63.765625l22.699219-198.234375zm0 0" fill="#8ac6dd"/><path d="m344.378906 60.003906c-.570312-.640625-1.382812-1.003906-2.238281-1.003906h-262c-.855469 0-1.671875.367188-2.238281 1.003906-.570313.636719-.839844 1.488282-.742188 2.335938l12.90625 112.730468c.191406 1.648438 1.660156 2.835938 3.324219 2.640626 1.644531-.1875 2.828125-1.675782 2.636719-3.320313l-12.523438-109.390625h255.273438l-22.316406 194.894531c-3.988282 34.835938-33.4375 61.105469-68.5 61.105469h-73.640626c-35.058593 0-64.511718-26.269531-68.5-61.105469l-6.753906-58.980469c-.1875-1.644531-1.648437-2.835937-3.320312-2.640624-1.644532.1875-2.828125 1.675781-2.636719 3.324218l6.753906 58.980469c4.335938 37.867187 36.347657 66.421875 74.457031 66.421875h73.640626c38.113281 0 70.128906-28.554688 74.460937-66.421875l22.699219-198.234375c.097656-.851562-.171875-1.703125-.742188-2.339844zm0 0" fill="#3a312a"/><path d="m190.140625 324h42v50h-42zm0 0" fill="#d7e057"/><path d="m232.140625 321h-42c-1.65625 0-3 1.34375-3 3v50c0 1.65625 1.34375 3 3 3h42c1.65625 0 3-1.34375 3-3v-50c0-1.65625-1.34375-3-3-3zm-3 50h-36v-44h36zm0 0" fill="#3a312a"/><path d="m271.761719 411.578125h-121.242188c-8.492187 0-15.378906 6.886719-15.378906 15.382813v22.039062h152v-22.039062c0-8.496094-6.886719-15.382813-15.378906-15.382813zm0 0" fill="#d7e057"/><path d="m271.761719 408.578125h-121.242188c-10.132812 0-18.378906 8.246094-18.378906 18.382813v22.039062c0 1.65625 1.34375 3 3 3h152c1.65625 0 3-1.34375 3-3v-22.039062c0-10.136719-8.246094-18.382813-18.378906-18.382813zm12.378906 37.421875h-146v-19.039062c0-6.828126 5.554687-12.382813 12.378906-12.382813h121.238281c6.828126 0 12.378907 5.554687 12.378907 12.382813v19.039062zm0 0" fill="#3a312a"/><path d="m245.261719 374h-68.242188c-8.492187 0-15.378906 6.886719-15.378906 15.378906v22.199219h99v-22.199219c0-8.492187-6.886719-15.378906-15.378906-15.378906zm0 0" fill="#d7e057"/><path d="m245.261719 371h-68.242188c-10.132812 0-18.378906 8.246094-18.378906 18.378906v22.199219c0 1.660156 1.34375 3 3 3h99c1.65625 0 3-1.339844 3-3v-22.199219c0-10.132812-8.246094-18.378906-18.378906-18.378906zm12.378906 37.578125h-93v-19.199219c0-6.824218 5.554687-12.378906 12.378906-12.378906h68.238281c6.828126 0 12.378907 5.554688 12.378907 12.378906v19.199219zm0 0" fill="#3a312a"/><path d="m349.382812 3h-276.488281c-10.082031 0-18.253906 8.171875-18.253906 18.257812v22.488282c0 10.082031 8.171875 18.257812 18.253906 18.257812h276.492188c10.082031 0 18.253906-8.175781 18.253906-18.257812v-22.488282c0-10.085937-8.171875-18.257812-18.257813-18.257812zm0 0" fill="#8ac6dd"/><path d="m349.382812 0h-190.5c-1.65625 0-3 1.34375-3 3s1.34375 3 3 3h190.5c8.414063 0 15.257813 6.84375 15.257813 15.253906v22.488282c0 8.414062-6.84375 15.257812-15.257813 15.257812h-276.488281c-8.410156 0-15.253906-6.84375-15.253906-15.257812v-22.488282c0-8.410156 6.84375-15.253906 15.253906-15.253906h60.503907c1.65625 0 3-1.34375 3-3s-1.34375-3-3-3h-60.503907c-11.71875 0-21.253906 9.535156-21.253906 21.253906v22.488282c0 11.722656 9.535156 21.257812 21.253906 21.257812h276.488281c11.722657 0 21.257813-9.535156 21.257813-21.257812v-22.488282c0-11.71875-9.535156-21.253906-21.257813-21.253906zm0 0" fill="#3a312a"/><path d="m308.78125 65-22.320312 194.898438c-3.980469 34.839843-33.441407 61.101562-68.5 61.101562h30c35.058593 0 64.519531-26.261719 68.5-61.101562l22.320312-194.898438zm0 0" fill="#6ca8bf"/><path d="m271.761719 414.578125h-30c6.816406 0 12.378906 5.5625 12.378906 12.382813v19.039062h30v-19.039062c0-6.820313-5.5625-12.382813-12.378906-12.382813zm0 0" fill="#b9c239"/><path d="m245.261719 377h-30c6.816406 0 12.378906 5.558594 12.378906 12.378906v19.199219h30v-19.199219c0-6.820312-5.5625-12.378906-12.378906-12.378906zm0 0" fill="#b9c239"/><path d="m349.378906 6h-30c8.421875 0 15.261719 6.839844 15.261719 15.261719v22.476562c0 8.421875-6.839844 15.261719-15.261719 15.261719h30c8.421875 0 15.261719-6.839844 15.261719-15.261719v-22.476562c0-8.421875-6.839844-15.261719-15.261719-15.261719zm0 0" fill="#6ca8bf"/><path d="m282.140625 170c0 39.210938-31.789063 71-71 71s-71-31.789062-71-71 31.789063-71 71-71 71 31.789062 71 71zm0 0" fill="#d7e057"/><path d="m211.140625 96c-40.804687 0-74 33.195312-74 74s33.195313 74 74 74 74-33.195312 74-74-33.195313-74-74-74zm0 142c-37.496094 0-68-30.503906-68-68s30.503906-68 68-68 68 30.503906 68 68-30.503906 68-68 68zm0 0" fill="#3a312a"/><path d="m261.375 161.796875c3.457031-3.367187 1.550781-9.238281-3.230469-9.933594l-25.839843-3.753906c-1.898438-.277344-3.535157-1.46875-4.382813-3.1875l-11.558594-23.414063c-2.136719-4.332031-8.308593-4.332031-10.445312 0l-11.554688 23.414063c-.847656 1.71875-2.488281 2.910156-4.386719 3.1875l-25.84375 3.753906c-4.777343.695313-6.683593 6.566407-3.226562 9.933594l18.699219 18.230469c1.371093 1.335937 2 3.265625 1.675781 5.15625l-4.414062 25.734375c-.816407 4.757812 4.175781 8.386719 8.449218 6.140625l23.113282-12.152344c1.699218-.890625 3.722656-.890625 5.421874 0l23.113282 12.152344c4.273437 2.246094 9.265625-1.382813 8.449218-6.140625l-4.410156-25.734375c-.324218-1.890625.300782-3.820313 1.675782-5.15625zm0 0" fill="#fce8cb"/><path d="m263.46875 163.949219c2.421875-2.363281 3.277344-5.828125 2.230469-9.046875s-3.773438-5.519532-7.125-6.007813l-25.839844-3.753906c-.921875-.132813-1.714844-.710937-2.125-1.542969l-11.558594-23.417968c-1.496093-3.035157-4.527343-4.917969-7.910156-4.917969s-6.417969 1.882812-7.914063 4.917969l-11.554687 23.414062c-.410156.835938-1.207031 1.414062-2.128906 1.546875l-25.839844 3.753906c-3.347656.488281-6.078125 2.789063-7.125 6.007813-1.042969 3.21875-.191406 6.683594 2.234375 9.046875l18.699219 18.226562c.664062.648438.96875 1.582031.808593 2.5l-4.414062 25.734375c-.570312 3.335938.777344 6.644532 3.515625 8.632813 1.546875 1.121093 3.355469 1.695312 5.175781 1.695312 1.402344 0 2.8125-.339843 4.117188-1.023437l23.109375-12.152344c.824219-.433594 1.8125-.429688 2.632812 0l23.113281 12.152344c2.992188 1.574218 6.554688 1.320312 9.292969-.671875 2.738281-1.988281 4.082031-5.296875 3.511719-8.628907l-4.414062-25.734374c-.160157-.917969.144531-1.855469.808593-2.503907zm-25.425781 21.738281 4.414062 25.738281c.1875 1.082031-.234375 2.117188-1.121093 2.761719-.890626.648438-2 .722656-2.972657.214844l-23.117187-12.152344c-2.570313-1.351562-5.636719-1.351562-8.210938 0l-23.113281 12.152344c-.972656.507812-2.085937.433594-2.976563-.214844-.886718-.648438-1.308593-1.679688-1.125-2.761719l4.414063-25.738281c.492187-2.863281-.457031-5.785156-2.535156-7.8125l-18.703125-18.226562c-.785156-.765626-1.050782-1.847657-.710938-2.894532.339844-1.042968 1.191406-1.765625 2.28125-1.921875l25.839844-3.757812c2.875-.414063 5.359375-2.21875 6.644531-4.824219l11.554688-23.417969c.488281-.984375 1.433593-1.574219 2.535156-1.574219 1.097656 0 2.046875.589844 2.535156 1.574219v.003907l11.554688 23.414062c1.289062 2.605469 3.773437 4.40625 6.644531 4.824219l25.839844 3.757812c1.085937.15625 1.941406.878907 2.28125 1.921875.339844 1.046875.070312 2.128906-.714844 2.894532l-18.699219 18.230468c-2.078125 2.027344-3.027343 4.945313-2.539062 7.808594zm0 0" fill="#3a312a"/></svg>