<svg height="450pt" viewBox="-74 0 450 450.994" width="450pt" xmlns="http://www.w3.org/2000/svg"><path d="m75.597656 24.898438c.0625.097656.101563.199218.101563.300781.140625.339843.28125.699219.378906 1.058593.28125.898438.460937 1.839844.5625 2.800782.058594.519531.078125 1.039062.078125 1.558594 0 1.460937.039062 2.921874.101562 4.359374.078126 1.863282.21875 3.679688.417969 5.5.0625.660157.140625 1.300782.21875 1.941407.042969.378906.101563.761719.160157 1.140625.183593 1.417968.421874 2.820312.683593 4.199218h189.296875c1.042969-5.558593 1.582032-11.300781 1.582032-17.140624 0-2.019532.398437-3.960938 1.121093-5.71875zm0 0" fill="#f16c7a"/><path d="m272.789062 23.226562c-.554687-.832031-1.488281-1.328124-2.488281-1.328124h-194.703125c-1.082031 0-2.082031.585937-2.613281 1.53125-.449219.792968-.503906 1.742187-.175781 2.574218.03125.113282.070312.222656.117187.335938.09375.230468.195313.472656.289063.808594.207031.667968.355468 1.414062.445312 2.253906.042969.40625.058594.808594.058594 1.214844 0 1.5.042969 3.003906.105469 4.488281.082031 1.929687.226562 3.792969.425781 5.640625.066406.695312.148438 1.371094.226562 1.984375.042969.414062.105469.824219.167969 1.203125.164063 1.285156.386719 2.675781.707031 4.375.265626 1.417968 1.503907 2.449218 2.949219 2.449218h189.296875c1.445313 0 2.683594-1.03125 2.953125-2.449218 1.082031-5.785156 1.628907-11.738282 1.628907-17.691406 0-1.589844.300781-3.132813.894531-4.585938.378906-.921875.273437-1.976562-.285157-2.804688zm-6.609374 7.390626c0 4.75-.371094 9.492187-1.105469 14.140624h-184.253907c-.085937-.550781-.167968-1.121093-.246093-1.714843-.050781-.3125-.097657-.628907-.140625-.996094-.074219-.605469-.152344-1.210937-.210938-1.894531-.199218-1.773438-.328125-3.507813-.40625-5.296875-.058594-1.398438-.097656-2.816407-.097656-4.234375 0-.636719-.027344-1.273438-.097656-1.871094-.03125-.289062-.066406-.570312-.109375-.851562h186.867187c-.132812.894531-.199218 1.804687-.199218 2.71875zm0 0" fill="#3a312a"/><path d="m65.320312 237.96875c-1.949218 23.128906-26.050781 26.78125-26.050781 26.78125 20.695313.972656 25.851563 28.117188 25.851563 28.117188.441406-19.351563 26.640625-28.402344 26.640625-28.402344-19.625-1.175782-26.441407-26.496094-26.441407-26.496094zm0 0" fill="#d7e057"/><path d="m91.941406 261.46875c-17.207031-1.03125-23.664062-24.046875-23.726562-24.28125-.382813-1.40625-1.71875-2.332031-3.164063-2.203125-1.453125.132813-2.597656 1.285156-2.71875 2.734375-1.722656 20.429688-22.628906 23.925781-23.511719 24.066406-1.527343.230469-2.625 1.578125-2.546874 3.121094.082031 1.539062 1.316406 2.769531 2.859374 2.839844 18.054688.851562 22.996094 25.4375 23.042969 25.6875.273438 1.421875 1.515625 2.433594 2.941407 2.433594.085937 0 .167968-.003907.253906-.011719 1.53125-.128907 2.714844-1.386719 2.75-2.917969.390625-17.015625 24.382812-25.554688 24.625-25.636719 1.351562-.472656 2.183594-1.828125 1.988281-3.246093-.199219-1.417969-1.363281-2.5-2.792969-2.585938zm-27.128906 20.691406c-2.714844-6.261718-7.417969-13.8125-15.175781-17.753906 5.863281-2.804688 12.816406-7.824219 16.402343-16.542969 3.105469 6.140625 8.398438 13.757813 16.667969 17.445313-6.011719 3.277344-13.84375 8.808594-17.894531 16.851562zm0 0" fill="#3a312a"/><path d="m21.921875 271.929688c-1.378906 16.359374-18.421875 18.941406-18.421875 18.941406 14.636719.691406 18.28125 19.890625 18.28125 19.890625.3125-13.691407 18.84375-20.089844 18.84375-20.089844-13.882812-.832031-18.703125-18.742187-18.703125-18.742187zm0 0" fill="#d7e057"/><path d="m40.804688 287.675781c-11.535157-.691406-15.945313-16.375-15.988282-16.53125-.378906-1.40625-1.707031-2.328125-3.164062-2.203125-1.453125.128906-2.597656 1.285156-2.71875 2.734375-1.160156 13.742188-15.292969 16.132813-15.882813 16.226563-1.527343.230468-2.628906 1.582031-2.550781 3.125.082031 1.539062 1.316406 2.765625 2.855469 2.839844 12.070312.570312 15.449219 17.289062 15.476562 17.449218.269531 1.425782 1.519531 2.441406 2.945313 2.441406.082031 0 .164062-.003906.25-.011718 1.53125-.125 2.714844-1.382813 2.75-2.921875.261718-11.417969 16.664062-17.265625 16.828125-17.320313 1.351562-.46875 2.1875-1.824218 1.992187-3.242187-.195312-1.417969-1.363281-2.5-2.792968-2.585938zm-19.167969 13.589844c-1.851563-3.773437-4.683594-7.894531-8.894531-10.5625 3.710937-2.082031 7.394531-5.257813 9.742187-9.832031 2.113281 3.75 5.308594 7.910156 9.878906 10.449218-3.695312 2.203126-7.972656 5.480469-10.726562 9.945313zm0 0" fill="#3a312a"/><path d="m21.921875 218.617188c-1.378906 16.355468-18.421875 18.9375-18.421875 18.9375 14.636719.6875 18.28125 19.890624 18.28125 19.890624.3125-13.6875 18.84375-20.089843 18.84375-20.089843-13.882812-.832031-18.703125-18.738281-18.703125-18.738281zm0 0" fill="#d7e057"/><path d="m40.804688 234.359375c-11.53125-.6875-15.945313-16.371094-15.988282-16.527344-.378906-1.402343-1.707031-2.328125-3.164062-2.203125-1.453125.128906-2.597656 1.285156-2.71875 2.734375-1.160156 13.742188-15.292969 16.132813-15.882813 16.226563-1.527343.230468-2.628906 1.582031-2.550781 3.121094.082031 1.542968 1.316406 2.769531 2.855469 2.84375 12.070312.566406 15.449219 17.289062 15.476562 17.453124.269531 1.425782 1.519531 2.4375 2.945313 2.4375.082031 0 .164062 0 .25-.007812 1.53125-.128906 2.714844-1.386719 2.75-2.921875.261718-11.417969 16.664062-17.269531 16.828125-17.324219 1.351562-.46875 2.1875-1.828125 1.992187-3.246094-.195312-1.417968-1.363281-2.5-2.792968-2.585937zm-19.167969 13.589844c-1.851563-3.769531-4.683594-7.894531-8.894531-10.558594 3.707031-2.082031 7.394531-5.257813 9.738281-9.832031 2.113281 3.746094 5.308593 7.90625 9.882812 10.445312-3.695312 2.203125-7.972656 5.480469-10.726562 9.945313zm0 0" fill="#3a312a"/><path d="m172.9375 155.996094c-4.839844 0-9.617188-.277344-14.339844-.796875v34.898437c4.082032-2.28125 8.78125-3.578125 13.800782-3.578125 5.460937 0 10.558593 1.539063 14.902343 4.199219v-35.519531c-4.722656.519531-9.5.796875-14.363281.796875zm0 0" fill="#d7e057"/><path d="m189.300781 152.964844c-.632812-.570313-1.484375-.835938-2.328125-.75-9.414062 1.039062-18.605468 1.042968-28.046875 0-.839843-.085938-1.695312.179687-2.328125.75-.632812.570312-1 1.382812-1 2.234375v34.898437c0 1.0625.566406 2.046875 1.484375 2.589844.917969.535156 2.050781.546875 2.980469.03125 7.828125-4.371094 17.976562-4.15625 25.671875.558594.480469.292968 1.023437.441406 1.566406.441406.503907 0 1.011719-.125 1.464844-.382812.949219-.53125 1.535156-1.53125 1.535156-2.617188v-35.519531c0-.851563-.367187-1.664063-1-2.234375zm-5 32.882812c-3.765625-1.535156-7.800781-2.328125-11.902343-2.328125-3.695313 0-7.359376.652344-10.800782 1.914063v-26.925782c7.648438.652344 15.074219.652344 22.703125 0zm0 0" fill="#3a312a"/><path d="m284.421875 15.378906c-8.414063 0-15.238281 6.824219-15.238281 15.238282 0 52.332031-43.171875 94.90625-96.238282 94.90625-53.0625 0-96.238281-42.574219-96.238281-94.90625 0-8.414063-6.820312-15.238282-15.234375-15.238282-8.417968 0-15.238281 6.824219-15.238281 15.238282 0 69.136718 56.84375 125.382812 126.710937 125.382812 69.871094 0 126.714844-56.246094 126.714844-125.382812 0-8.414063-6.820312-15.238282-15.238281-15.238282zm0 0" fill="#87796f"/><path d="m284.421875 12.378906c-10.054687 0-18.238281 8.183594-18.238281 18.238282 0 50.679687-41.824219 91.90625-93.238282 91.90625-51.410156 0-93.238281-41.226563-93.238281-91.90625 0-10.054688-8.179687-18.238282-18.234375-18.238282-10.058594 0-18.238281 8.183594-18.238281 18.238282 0 70.789062 58.1875 128.378906 129.710937 128.378906 71.523438 0 129.714844-57.589844 129.714844-128.378906 0-10.054688-8.179687-18.238282-18.238281-18.238282zm-111.476563 140.621094c-68.214843 0-123.710937-54.898438-123.710937-122.378906 0-6.75 5.492187-12.238282 12.238281-12.238282 6.75 0 12.238282 5.488282 12.238282 12.238282 0 53.984375 44.519531 97.90625 99.238281 97.90625s99.238281-43.921875 99.238281-97.90625c0-6.75 5.488281-12.238282 12.238281-12.238282 6.746094 0 12.238281 5.488282 12.238281 12.238282-.003906 67.480468-55.5 122.378906-123.71875 122.378906zm0 0" fill="#3a312a"/><path d="m172.402344 186.515625c-15.722656 0-28.46875 12.746094-28.46875 28.464844v204.546875c0 15.71875 12.746094 28.464844 28.46875 28.464844s28.46875-12.746094 28.46875-28.464844v-204.546875c0-15.71875-12.746094-28.464844-28.46875-28.464844zm0 0" fill="#8ac6dd"/><path d="m172.402344 183.515625c-17.351563 0-31.46875 14.113281-31.46875 31.464844v13.195312c0 1.660157 1.34375 3 3 3 1.660156 0 3-1.339843 3-3v-13.195312c0-14.039063 11.425781-25.464844 25.46875-25.464844 14.042968 0 25.46875 11.421875 25.46875 25.464844v204.546875c0 14.042968-11.425782 25.464844-25.46875 25.464844-14.042969 0-25.46875-11.421876-25.46875-25.464844v-162.042969c0-1.660156-1.339844-3-3-3-1.65625 0-3 1.339844-3 3v162.042969c0 17.351562 14.117187 31.464844 31.46875 31.464844 17.351562 0 31.46875-14.117188 31.46875-31.464844v-204.546875c0-17.351563-14.117188-31.464844-31.46875-31.464844zm0 0" fill="#3a312a"/><path d="m143.933594 268.800781h56.9375v98.664063h-56.9375zm0 0" fill="#d7e057"/><path d="m200.871094 265.800781h-56.9375c-1.65625 0-3 1.34375-3 3v98.664063c0 1.65625 1.34375 3 3 3h56.9375c1.65625 0 3-1.34375 3-3v-98.664063c0-1.65625-1.34375-3-3-3zm-3 98.664063h-50.9375v-92.664063h50.9375zm0 0" fill="#3a312a"/><path d="m111.996094 3c-4.207032 0-7.617188 3.410156-7.617188 7.617188v51.429687c0 4.207031 3.410156 7.617187 7.617188 7.617187 4.207031 0 7.621094-3.410156 7.621094-7.617187v-51.425781c-.003907-4.210938-3.414063-7.621094-7.621094-7.621094zm0 0" fill="#fce8cb"/><path d="m111.996094 0c-5.851563 0-10.617188 4.765625-10.617188 10.617188v51.429687c0 5.855469 4.765625 10.617187 10.617188 10.617187 5.855468 0 10.621094-4.761718 10.621094-10.617187v-51.429687c-.003907-5.851563-4.765626-10.617188-10.621094-10.617188zm4.617187 62.046875c0 2.546875-2.070312 4.617187-4.617187 4.617187s-4.621094-2.070312-4.621094-4.617187v-51.429687c0-2.546876 2.074219-4.617188 4.621094-4.617188 2.542968 0 4.617187 2.070312 4.617187 4.617188zm0 0" fill="#3a312a"/><path d="m142.472656 3c-4.210937 0-7.621094 3.410156-7.621094 7.617188v51.429687c0 4.207031 3.414063 7.617187 7.621094 7.617187 4.203125 0 7.617188-3.410156 7.617188-7.617187v-51.425781c0-4.210938-3.410156-7.621094-7.617188-7.621094zm0 0" fill="#fce8cb"/><path d="m142.472656 0c-5.855468 0-10.621094 4.765625-10.621094 10.617188v51.429687c0 5.855469 4.765626 10.617187 10.621094 10.617187 5.855469 0 10.617188-4.761718 10.617188-10.617187v-51.429687c0-5.851563-4.761719-10.617188-10.617188-10.617188zm4.617188 62.046875c0 2.546875-2.070313 4.617187-4.617188 4.617187-2.550781 0-4.621094-2.070312-4.621094-4.617187v-51.429687c0-2.546876 2.074219-4.617188 4.621094-4.617188 2.542969 0 4.617188 2.070312 4.617188 4.617188zm0 0" fill="#3a312a"/><path d="m172.945312 3c-4.207031 0-7.617187 3.410156-7.617187 7.617188v51.429687c0 4.207031 3.410156 7.617187 7.617187 7.617187 4.210938 0 7.621094-3.410156 7.621094-7.617187v-51.425781c0-4.210938-3.410156-7.621094-7.621094-7.621094zm0 0" fill="#fce8cb"/><path d="m172.945312 0c-5.855468 0-10.617187 4.765625-10.617187 10.617188v51.429687c0 5.855469 4.761719 10.617187 10.617187 10.617187 5.859376 0 10.621094-4.761718 10.621094-10.617187v-51.429687c0-5.851563-4.761718-10.617188-10.621094-10.617188zm4.621094 62.046875c0 2.546875-2.070312 4.617187-4.621094 4.617187-2.542968 0-4.617187-2.070312-4.617187-4.617187v-51.429687c0-2.546876 2.070313-4.617188 4.617187-4.617188 2.546876 0 4.621094 2.070312 4.621094 4.617188zm0 0" fill="#3a312a"/><path d="m203.421875 3c-4.207031 0-7.617187 3.410156-7.617187 7.617188v51.429687c0 4.207031 3.414062 7.617187 7.617187 7.617187 4.207031 0 7.617187-3.410156 7.617187-7.617187v-51.425781c0-4.210938-3.40625-7.621094-7.617187-7.621094zm0 0" fill="#fce8cb"/><path d="m203.421875 0c-5.855469 0-10.617187 4.765625-10.617187 10.617188v51.429687c0 5.855469 4.761718 10.617187 10.617187 10.617187s10.617187-4.761718 10.617187-10.617187v-51.429687c0-5.851563-4.761718-10.617188-10.617187-10.617188zm4.617187 62.046875c0 2.546875-2.070312 4.617187-4.617187 4.617187s-4.617187-2.070312-4.617187-4.617187v-51.429687c0-2.546876 2.070312-4.617188 4.617187-4.617188s4.617187 2.070312 4.617187 4.617188zm0 0" fill="#3a312a"/><path d="m233.898438 3c-4.207032 0-7.621094 3.410156-7.621094 7.617188v51.429687c0 4.207031 3.414062 7.617187 7.621094 7.617187 4.207031 0 7.617187-3.410156 7.617187-7.617187v-51.425781c0-4.210938-3.410156-7.621094-7.617187-7.621094zm0 0" fill="#fce8cb"/><path d="m233.898438 0c-5.855469 0-10.621094 4.765625-10.621094 10.617188v51.429687c0 5.855469 4.765625 10.617187 10.621094 10.617187 5.855468 0 10.617187-4.761718 10.617187-10.617187v-51.429687c0-5.851563-4.761719-10.617188-10.617187-10.617188zm4.617187 62.046875c0 2.546875-2.070313 4.617187-4.617187 4.617187-2.546876 0-4.621094-2.070312-4.621094-4.617187v-51.429687c0-2.546876 2.074218-4.617188 4.621094-4.617188 2.546874 0 4.617187 2.070312 4.617187 4.617188zm0 0" fill="#3a312a"/><path d="m167.867188 370.460938v49.058593c0 8.441407-4.121094 15.941407-10.460938 20.582031 4.199219 3.078126 9.402344 4.898438 15 4.898438 14.039062 0 25.460938-11.421875 25.460938-25.480469v-49.058593zm0 0" fill="#6ca8bf"/><path d="m172.40625 189.519531c-5.597656 0-10.800781 1.820313-15 4.902344 6.339844 4.636719 10.460938 12.117187 10.460938 20.558594v50.820312h30v-50.820312c0-14.039063-11.421876-25.460938-25.460938-25.460938zm0 0" fill="#6ca8bf"/><path d="m167.867188 271.800781h30v92.660157h-30zm0 0" fill="#b9c239"/></svg>