<svg height="476pt" viewBox="0 -11 476 475" width="476pt" xmlns="http://www.w3.org/2000/svg"><path d="m105.800781 45.191406c-19.144531-34.828125-69.558593-43.875-76.292969-40.171875-5.511718 3.027344-26.109374 51.113281-6.964843 85.9375 19.144531 34.828125 45.558593 38.730469 68.550781 26.09375 22.992188-12.640625 33.851562-37.035156 14.707031-71.859375zm0 0" fill="#87796f"/><path d="m108.429688 43.746094c-19.886719-36.175782-71.699219-46.125-80.367188-41.355469-6.871094 3.777344-28.390625 53.191406-8.148438 90.011719 9.421876 17.140625 21.050782 27.996094 34.558594 32.261718 4.167969 1.316407 8.472656 1.972657 12.851563 1.972657 8.273437 0 16.808593-2.335938 25.214843-6.957031 12.855469-7.066407 21.363282-17.257813 24.609376-29.46875 3.636718-13.691407.703124-29.328126-8.71875-46.464844zm2.917968 44.921875c-2.8125 10.59375-10.316406 19.496093-21.699218 25.753906-11.382813 6.257813-22.921876 7.820313-33.371094 4.523437-11.988282-3.789062-22.453125-13.691406-31.105469-29.429687-18.101563-32.925781 1.335937-78.601563 5.777344-81.867187.5-.253907 1.523437-.394532 2.980469-.394532 11.933593 0 52.71875 9.324219 69.242187 39.382813 8.652344 15.738281 11.402344 29.882812 8.175781 42.03125zm0 0" fill="#3a312a"/><path d="m85.910156 52.117188c-10.773437-19.601563-39.148437-24.695313-42.941406-22.609376-3.101562 1.703126-14.695312 28.769532-3.917969 48.371094 10.773438 19.601563 25.644531 21.800782 38.582031 14.683594 12.9375-7.113281 19.050782-20.84375 8.277344-40.445312zm0 0" fill="#f16c7a"/><path d="m88.539062 50.671875c-6.257812-11.382813-17.394531-17.585937-25.632812-20.789063-7.628906-2.964843-17.714844-5.023437-21.382812-3.003906-3.28125 1.800782-6.976563 11.328125-8.65625 19.496094-1.808594 8.792969-2.660157 21.648438 3.550781 32.949219 5.46875 9.953125 12.269531 16.265625 20.203125 18.777343 2.480468.78125 5.035156 1.171876 7.636718 1.171876 4.871094 0 9.886719-1.371094 14.816407-4.082032 7.554687-4.152344 12.566406-10.167968 14.484375-17.398437 2.140625-8.042969.453125-17.167969-5.019532-27.121094zm-.773437 25.578125c-1.492187 5.609375-5.492187 10.335938-11.578125 13.683594s-12.226562 4.1875-17.753906 2.445312c-6.417969-2.027344-12.054688-7.394531-16.753906-15.945312-9.472657-17.234375-.226563-40.859375 2.8125-44.289063 3.949218-.78125 29.082031 3.761719 38.789062 21.417969 4.703125 8.554688 6.210938 16.1875 4.484375 22.6875zm0 0" fill="#3a312a"/><path d="m282.492188 5.019531c-6.734376-3.703125-57.148438 5.347657-76.292969 40.171875-19.144531 34.824219-8.285157 59.21875 14.707031 71.859375 22.992188 12.636719 49.40625 8.734375 68.550781-26.09375 19.144531-34.824219-1.453125-82.910156-6.964843-85.9375zm0 0" fill="#87796f"/><path d="m283.9375 2.390625c-8.679688-4.773437-60.480469 5.179687-80.367188 41.355469-9.421874 17.136718-12.355468 32.773437-8.71875 46.464844 3.246094 12.210937 11.753907 22.402343 24.609376 29.46875 8.40625 4.621093 16.941406 6.957031 25.210937 6.957031 4.378906 0 8.683594-.65625 12.855469-1.972657 13.511718-4.265624 25.136718-15.121093 34.558594-32.261718 20.242187-36.824219-1.277344-86.234375-8.148438-90.011719zm2.890625 87.125c-8.652344 15.738281-19.117187 25.640625-31.109375 29.429687-10.445312 3.296876-21.988281 1.734376-33.367188-4.523437-11.386718-6.257813-18.890624-15.160156-21.703124-25.753906-3.226563-12.148438-.472657-26.292969 8.175781-42.03125 16.554687-30.113281 57.457031-39.417969 69.25-39.417969 1.417969 0 2.414062.136719 2.898437.382812 4.515625 3.3125 23.957032 48.988282 5.855469 81.914063zm0 0" fill="#3a312a"/><path d="m269.03125 29.503906c-3.792969-2.082031-32.167969 3.011719-42.941406 22.613282-10.777344 19.597656-4.664063 33.332031 8.277344 40.445312 12.941406 7.113281 27.808593 4.914062 38.585937-14.683594 10.773437-19.601562-.820313-46.667968-3.921875-48.375zm0 0" fill="#f16c7a"/><path d="m279.132812 46.375c-1.683593-8.167969-5.378906-17.695312-8.660156-19.496094-3.667968-2.015625-13.75.039063-21.378906 3.003906-8.238281 3.203126-19.375 9.40625-25.632812 20.789063-5.46875 9.953125-7.160157 19.078125-5.023438 27.121094 1.917969 7.230469 6.929688 13.246093 14.484375 17.398437 4.929687 2.710938 9.945313 4.082032 14.816406 4.082032 2.601563 0 5.15625-.390626 7.636719-1.171876 7.933594-2.507812 14.734375-8.824218 20.203125-18.777343 6.214844-11.300781 5.363281-24.15625 3.554687-32.949219zm-8.8125 30.058594c-4.703124 8.550781-10.339843 13.917968-16.753906 15.945312-5.527344 1.746094-11.671875.902344-17.753906-2.445312-6.085938-3.34375-10.089844-8.074219-11.578125-13.679688-1.726563-6.503906-.21875-14.136718 4.484375-22.691406 9.070312-16.5 31.625-21.546875 37.640625-21.546875.476563 0 .851563.03125 1.109375.089844 3 3.277343 12.363281 27.027343 2.851562 44.328125zm0 0" fill="#3a312a"/><path d="m274.679688 180.527344c-.21875-.238282-.441407-.480469-.660157-.738282.242188-3.421874.359375-6.839843.359375-10.339843 0-14.121094-2.058594-27.722657-5.917968-40.460938-11.882813-39.539062-40.742188-70.71875-77.199219-83.28125-11.363281-3.917969-23.441407-6.039062-35.980469-6.039062-12.101562 0-23.78125 1.960937-34.78125 5.640625-37 12.277344-66.378906 43.699218-78.398438 83.699218-3.839843 12.738282-5.921874 26.320313-5.921874 40.441407 0 3.796875.160156 7.539062.460937 11.238281.019531.179688.019531.359375.039063.539062-10 11.339844-15.679688 24.261719-15.679688 38 0 4.320313.558594 8.421876 1.640625 12.300782 10.121094 36.519531 65.980469 54.421875 133.359375 54.421875s123.238281-17.902344 133.359375-54.421875c1.082031-3.878906 1.640625-7.980469 1.640625-12.300782 0-14.039062-5.921875-27.199218-16.320312-38.699218zm0 0" fill="#fce8cb"/><path d="m277.097656 178.730469c.191406-3.09375.285156-6.144531.285156-9.28125 0-14.175781-2.035156-28.082031-6.046874-41.324219-12.175782-40.515625-41.742188-72.386719-79.097657-85.253906-11.929687-4.117188-24.363281-6.203125-36.957031-6.203125-12.214844 0-24.238281 1.949219-35.726562 5.792969-37.960938 12.597656-67.992188 44.628906-80.324219 85.679687-4.011719 13.316406-6.046875 27.210937-6.046875 41.304687 0 3.535157.136718 7.152344.414062 10.761719-10.210937 11.953125-15.597656 25.421875-15.597656 39.019531 0 4.527344.589844 8.933594 1.746094 13.101563 9.824218 35.453125 60.761718 56.621094 136.253906 56.621094s126.429688-21.167969 136.25-56.617188c1.160156-4.171875 1.75-8.582031 1.75-13.101562 0-14.167969-5.828125-28.148438-16.902344-40.5zm9.371094 51.996093c-8.925781 32.210938-58.917969 52.222657-130.46875 52.222657s-121.542969-20.011719-130.46875-52.226563c-1.015625-3.644531-1.53125-7.511718-1.53125-11.496094 0-12.664062 5.023438-24.78125 14.929688-36.015624.558593-.632813.816406-1.574219.726562-2.414063-.007812-.148437-.019531-.296875-.027344-.351563-.296875-3.683593-.449218-7.386718-.449218-10.996093 0-13.507813 1.949218-26.824219 5.792968-39.578125 11.777344-39.183594 40.367188-69.730469 76.480469-81.71875 10.878906-3.636719 22.261719-5.484375 33.828125-5.484375 11.925781 0 23.703125 1.976562 35.003906 5.878906 35.53125 12.242187 63.683594 42.636719 75.308594 81.3125 3.839844 12.683594 5.789062 26.003906 5.789062 39.589844 0 3.425781-.113281 6.742187-.351562 10.128906-.054688.785156.195312 1.554687.703125 2.152344.234375.273437.464844.53125.722656.8125 10.3125 11.40625 15.546875 23.746093 15.546875 36.6875-.003906 3.976562-.519531 7.84375-1.535156 11.496093zm0 0" fill="#3a312a"/><path d="m120.5 45.308594c-37 12.277344-66.378906 43.699218-78.398438 83.699218-3.839843 12.738282-5.921874 26.320313-5.921874 40.441407 0 3.796875.160156 7.539062.460937 11.238281.019531.179688.019531.359375.039063.539062-10 11.339844-15.679688 24.261719-15.679688 38 0 4.320313.558594 8.421876 1.640625 12.300782 8.621094 3.71875 17.820313 5.71875 27.359375 5.71875 49.300781 0 89.238281-53.277344 89.238281-119 0-27.476563-6.976562-52.796875-18.738281-72.9375zm0 0" fill="#87796f"/><path d="m123.089844 43.796875c-.714844-1.226563-2.1875-1.777344-3.535156-1.335937-37.960938 12.601562-67.992188 44.632812-80.328126 85.683593-4.011718 13.3125-6.046874 27.210938-6.046874 41.304688 0 3.535156.136718 7.152343.414062 10.761719-10.207031 11.949218-15.59375 25.417968-15.59375 39.015624 0 4.527344.589844 8.933594 1.75 13.105469.242188.871094.867188 1.589844 1.703125 1.949219 9.171875 3.957031 18.777344 5.964844 28.546875 5.964844 50.863281 0 92.238281-54.726563 92.238281-122 0-27.25-6.621093-52.996094-19.148437-74.449219zm-73.089844 190.453125c-8.472656 0-16.820312-1.652344-24.828125-4.914062-.777344-3.234376-1.171875-6.625-1.171875-10.105469 0-12.664063 5.023438-24.78125 14.929688-36.015625.558593-.632813.816406-1.578125.726562-2.414063-.007812-.152343-.019531-.300781-.027344-.351562-.296875-3.6875-.449218-7.386719-.449218-11 0-13.503907 1.949218-26.820313 5.792968-39.574219 11.523438-38.34375 39.140625-68.414062 74.15625-80.917969 11.203125 20.105469 17.113282 44.003907 17.113282 69.292969-.003907 63.960938-38.691407 116-86.242188 116zm0 0" fill="#3a312a"/><path d="m274.679688 180.527344c-.21875-.238282-.441407-.480469-.660157-.738282.242188-3.421874.359375-6.839843.359375-10.339843 0-14.121094-2.058594-27.722657-5.917968-40.460938-11.882813-39.539062-40.742188-70.71875-77.199219-83.28125-11.601563 20.082031-18.5 45.242188-18.5 72.539063 0 65.722656 39.9375 119 89.238281 119 9.539062 0 18.738281-2 27.359375-5.71875 1.082031-3.878906 1.640625-7.980469 1.640625-12.300782 0-14.039062-5.921875-27.199218-16.320312-38.699218zm0 0" fill="#87796f"/><path d="m277.097656 178.730469c.191406-3.09375.285156-6.144531.285156-9.28125 0-14.175781-2.035156-28.082031-6.046874-41.324219-12.175782-40.515625-41.742188-72.386719-79.097657-85.253906-1.351562-.46875-2.855469.09375-3.574219 1.335937-12.367187 21.40625-18.902343 47.007813-18.902343 74.039063 0 67.273437 41.378906 122 92.242187 122 9.769532 0 19.375-2.007813 28.546875-5.964844.832031-.359375 1.457031-1.074219 1.703125-1.949219 1.15625-4.171875 1.75-8.582031 1.75-13.101562-.003906-14.167969-5.832031-28.148438-16.90625-40.5zm9.730469 50.605469c-8.007813 3.261718-16.355469 4.910156-24.828125 4.910156-47.550781 0-86.238281-52.035156-86.238281-116 0-25.0625 5.828125-48.8125 16.871093-68.863282 34.421876 12.75 61.59375 42.65625 72.957032 80.476563 3.84375 12.683594 5.792968 26.003906 5.792968 39.589844 0 3.425781-.117187 6.738281-.355468 10.128906-.054688.78125.199218 1.554687.703125 2.152344.234375.273437.464843.53125.722656.808593 10.316406 11.40625 15.546875 23.75 15.546875 36.6875 0 3.480469-.394531 6.875-1.171875 10.109376zm0 0" fill="#3a312a"/><path d="m156.050781 171.894531c-10.574219-.042969-19.167969 5.058594-19.195312 11.402344-.027344 6.34375 8.5 16.628906 19.070312 16.675781 10.570313.046875 19.1875-10.164062 19.214844-16.507812.03125-6.34375-8.519531-11.523438-19.089844-11.570313zm0 0" fill="#3a312a"/><path d="m156 194.273438c0 13.65625-10.347656 24.875-23.632812 26.257812.246093 16.453125 10.734374 29.675781 23.632812 29.675781 12.894531 0 23.382812-13.222656 23.632812-29.675781-13.285156-1.382812-23.632812-12.601562-23.632812-26.257812zm0 0" fill="#f16c7a"/><g fill="#3a312a"><path d="m179.945312 217.546875c-11.941406-1.242187-20.945312-11.246094-20.945312-23.273437 0-1.660157-1.34375-3-3-3s-3 1.339843-3 3c0 12.023437-9.003906 22.03125-20.945312 23.273437-1.542969.160156-2.710938 1.476563-2.6875 3.027344.273437 18.300781 11.972656 32.632812 26.628906 32.632812 14.660156 0 26.359375-14.332031 26.632812-32.632812.027344-1.550781-1.140625-2.867188-2.683594-3.027344zm-23.945312 29.664063c-10.492188 0-19.300781-10.605469-20.5-24.128907 9.109375-1.839843 16.574219-7.808593 20.5-15.8125 3.925781 8 11.386719 13.972657 20.496094 15.8125-1.195313 13.523438-10.003906 24.128907-20.496094 24.128907zm0 0"/><path d="m156 191.273438c-1.65625 0-3 1.339843-3 3 0 12.023437-9.003906 22.03125-20.988281 23.277343-.75.089844-1.566407.136719-2.425781.136719-12.910157 0-23.414063-10.503906-23.414063-23.414062 0-1.660157-1.34375-3-3-3-1.660156 0-3 1.339843-3 3 0 16.21875 13.195313 29.414062 29.414063 29.414062 1.09375 0 2.148437-.0625 3.09375-.171875 15.003906-1.5625 26.320312-14.132813 26.320312-29.242187 0-1.65625-1.34375-3-3-3zm0 0"/><path d="m208.828125 191.273438c-1.65625 0-3 1.339843-3 3 0 12.910156-10.503906 23.414062-23.414063 23.414062-.855468 0-1.671874-.046875-2.46875-.140625-11.941406-1.246094-20.945312-11.25-20.945312-23.277344 0-1.65625-1.34375-3-3-3s-3 1.34375-3 3c0 15.109375 11.316406 27.679688 26.277344 29.238281.988281.117188 2.042968.179688 3.136718.179688 16.21875 0 29.414063-13.199219 29.414063-29.414062 0-1.65625-1.34375-3-3-3zm0 0"/></g><path d="m103.171875 180.832031c0-8.578125-11.132813-15.535156-24.863281-15.535156-13.726563 0-24.859375 6.957031-24.859375 15.535156 0 8.582031 11.132812 15.539063 24.859375 15.539063 13.730468 0 24.863281-6.957032 24.863281-15.539063zm0 0" fill="#f5978a"/><path d="m233.691406 165.296875c-13.730468 0-24.863281 6.953125-24.863281 15.535156s11.132813 15.539063 24.863281 15.539063c13.730469 0 24.859375-6.957032 24.859375-15.539063 0-8.578125-11.128906-15.535156-24.859375-15.535156zm0 0" fill="#f5978a"/><path d="m115.601562 139.113281c-6.003906 0-10.875 4.867188-10.875 10.875 0 6.003907 4.871094 10.875 10.875 10.875 6.007813 0 10.875-4.871093 10.875-10.875 0-6.007812-4.867187-10.875-10.875-10.875zm0 0" fill="#3a312a"/><path d="m196.398438 139.113281c-6.007813 0-10.875 4.867188-10.875 10.875 0 6.003907 4.867187 10.875 10.875 10.875 6.007812 0 10.875-4.871093 10.875-10.875.003906-6.007812-4.867188-10.875-10.875-10.875zm0 0" fill="#3a312a"/><path d="m461 236.246094c0 17.121094-13.878906 31-31 31s-31-13.878906-31-31c0-17.117188 13.878906-31 31-31s31 13.882812 31 31zm0 0" fill="#8ac6dd"/><path d="m430 202.25c-18.746094 0-34 15.25-34 34 0 18.746094 15.253906 34 34 34s34-15.253906 34-34c0-18.75-15.253906-34-34-34zm0 62c-15.441406 0-28-12.558594-28-28s12.558594-28 28-28 28 12.558594 28 28-12.558594 28-28 28zm0 0" fill="#3a312a"/><path d="m458 315.246094h-440c-.199219 0-.378906 0-.578125-.019532l17.1875 34.542969 11.90625 23.917969 13.507813 27.140625c7.4375 14.960937 22.71875 24.421875 39.4375 24.421875h277.082031c16.71875 0 32-9.460938 39.4375-24.421875l42.601562-85.597656c-.203125.015625-.382812.015625-.582031.015625zm0 0" fill="#f16c7a"/><path d="m461.046875 313.519531c-.621094-.898437-1.699219-1.390625-2.773437-1.277343-.097657.011718-.183594.007812-.277344.003906h-439.996094c-.09375 0-.179688.003906-.273438-.003906-1.089843-.109376-2.152343.378906-2.773437 1.277343-.621094.898438-.707031 2.066407-.21875 3.042969l17.191406 34.542969c.738281 1.480469 2.539063 2.085937 4.023438 1.347656s2.085937-2.539063 1.347656-4.023437l-15.019531-30.183594h431.449218l-40.429687 81.246094c-6.984375 14.035156-21.066406 22.753906-36.757813 22.753906h-277.078124c-15.691407 0-29.773438-8.71875-36.757813-22.753906l-13.503906-27.140626c-.742188-1.484374-2.542969-2.089843-4.023438-1.351562-1.484375.738281-2.085937 2.542969-1.347656 4.023438l13.507813 27.140624c8 16.085938 24.140624 26.082032 42.125 26.082032h277.078124c17.984376 0 34.125-9.996094 42.128907-26.082032l42.601562-85.601562c.484375-.976562.402344-2.144531-.222656-3.042969zm0 0" fill="#3a312a"/><path d="m112.292969 425.246094h85.410156v26h-85.410156zm0 0" fill="#87796f"/><path d="m197.703125 422.25h-85.410156c-1.65625 0-3 1.339844-3 3v26c0 1.65625 1.34375 3 3 3h85.410156c1.660156 0 3-1.34375 3-3v-26c0-1.660156-1.339844-3-3-3zm-3 26h-79.410156v-20h79.410156zm0 0" fill="#3a312a"/><path d="m278.292969 425.246094h85.410156v26h-85.410156zm0 0" fill="#87796f"/><path d="m363.703125 422.25h-85.410156c-1.65625 0-3 1.339844-3 3v26c0 1.65625 1.34375 3 3 3h85.410156c1.65625 0 3-1.34375 3-3v-26c0-1.660156-1.339844-3-3-3zm-3 26h-79.410156v-20h79.410156zm0 0" fill="#3a312a"/><path d="m458 285.246094h-440c-8.285156 0-15 6.71875-15 15 0 8.285156 6.714844 15 15 15h440c8.285156 0 15-6.714844 15-15 0-8.28125-6.714844-15-15-15zm0 0" fill="#f16c7a"/><path d="m458 282.25h-128.15625c-1.65625 0-3 1.339844-3 3 0 1.65625 1.34375 3 3 3h128.15625c6.617188 0 12 5.382812 12 12s-5.382812 12-12 12h-440c-6.617188 0-12-5.382812-12-12s5.382812-12 12-12h286.152344c1.65625 0 3-1.34375 3-3 0-1.660156-1.34375-3-3-3h-286.152344c-9.925781 0-18 8.074219-18 18 0 9.921875 8.074219 18 18 18h440c9.925781 0 18-8.078125 18-18 0-9.925781-8.074219-18-18-18zm0 0" fill="#3a312a"/><path d="m231 40.246094c0 17.121094-13.878906 31-31 31s-31-13.878906-31-31c0-17.117188 13.878906-31 31-31s31 13.882812 31 31zm0 0" fill="#8ac6dd"/><path d="m200 6.25c-18.746094 0-34 15.25-34 34 0 18.746094 15.253906 34 34 34s34-15.253906 34-34c0-18.75-15.253906-34-34-34zm0 62c-15.441406 0-28-12.558594-28-28s12.558594-28 28-28 28 12.558594 28 28-12.558594 28-28 28zm0 0" fill="#3a312a"/><path d="m370 159.246094c0 17.121094-13.878906 31-31 31s-31-13.878906-31-31c0-17.117188 13.878906-31 31-31s31 13.882812 31 31zm0 0" fill="#8ac6dd"/><path d="m339 125.25c-18.746094 0-34 15.25-34 34 0 18.746094 15.253906 34 34 34s34-15.253906 34-34c0-18.75-15.253906-34-34-34zm0 62c-15.441406 0-28-12.558594-28-28s12.558594-28 28-28 28 12.558594 28 28-12.558594 28-28 28zm0 0" fill="#3a312a"/><path d="m369 238.246094c0 10.496094-8.507812 19-19 19s-19-8.503906-19-19c0-10.492188 8.507812-19 19-19s19 8.507812 19 19zm0 0" fill="#8ac6dd"/><path d="m350 216.25c-12.128906 0-22 9.871094-22 22s9.871094 22 22 22 22-9.871094 22-22c0-12.132812-9.871094-22-22-22zm0 38c-8.820312 0-16-7.179688-16-16s7.179688-16 16-16 16 7.179688 16 16-7.179688 16-16 16zm0 0" fill="#3a312a"/><path d="m131 76.246094c0 17.121094-13.878906 31-31 31s-31-13.878906-31-31c0-17.117188 13.878906-31 31-31s31 13.882812 31 31zm0 0" fill="#8ac6dd"/><path d="m100 42.25c-18.746094 0-34 15.25-34 34 0 18.746094 15.253906 34 34 34s34-15.253906 34-34c0-18.75-15.253906-34-34-34zm0 62c-15.441406 0-28-12.558594-28-28s12.558594-28 28-28 28 12.558594 28 28-12.558594 28-28 28zm0 0" fill="#3a312a"/><path d="m434.089844 22.855469c-1.949219 23.125-26.050782 26.777343-26.050782 26.777343 20.695313.976563 25.851563 28.117188 25.851563 28.117188.441406-19.351562 26.640625-28.402344 26.640625-28.402344-19.625-1.175781-26.441406-26.492187-26.441406-26.492187zm0 0" fill="#d7e057"/><path d="m460.710938 46.351562c-17.207032-1.03125-23.664063-24.050781-23.726563-24.28125-.378906-1.40625-1.699219-2.328124-3.167969-2.203124-1.449218.128906-2.59375 1.28125-2.714844 2.734374-1.71875 20.429688-22.628906 23.925782-23.507812 24.0625-1.527344.230469-2.628906 1.578126-2.546875 3.121094.078125 1.539063 1.3125 2.769532 2.855469 2.84375 18.054687.847656 22.996094 25.433594 23.042968 25.683594.273438 1.421875 1.519532 2.433594 2.945313 2.433594.082031 0 .167969-.003906.25-.011719 1.53125-.125 2.714844-1.382813 2.75-2.917969.390625-17.015625 24.382813-25.550781 24.628906-25.636718 1.351563-.46875 2.183594-1.828126 1.988281-3.246094-.203124-1.414063-1.367187-2.496094-2.796874-2.582032zm-27.132813 20.691407c-2.710937-6.261719-7.417969-13.816407-15.171875-17.753907 5.863281-2.808593 12.816406-7.824218 16.402344-16.546874 3.101562 6.144531 8.402344 13.761718 16.667968 17.445312-6.011718 3.28125-13.84375 8.8125-17.898437 16.855469zm0 0" fill="#3a312a"/><path d="m390.691406 56.8125c-1.378906 16.359375-18.421875 18.941406-18.421875 18.941406 14.632813.691406 18.28125 19.890625 18.28125 19.890625.3125-13.691406 18.84375-20.089843 18.84375-20.089843-13.878906-.832032-18.703125-18.742188-18.703125-18.742188zm0 0" fill="#d7e057"/><path d="m409.574219 72.558594c-11.53125-.691406-15.945313-16.371094-15.988281-16.527344-.378907-1.40625-1.714844-2.320312-3.160157-2.203125-1.453125.128906-2.601562 1.285156-2.722656 2.734375-1.15625 13.742188-15.292969 16.136719-15.882813 16.230469-1.527343.230469-2.625 1.578125-2.546874 3.121093.082031 1.539063 1.316406 2.769532 2.855468 2.839844 12.070313.570313 15.449219 17.289063 15.480469 17.453125.269531 1.425781 1.515625 2.441407 2.945313 2.441407.082031 0 .164062-.003907.25-.011719 1.53125-.125 2.714843-1.386719 2.75-2.921875.261718-11.417969 16.664062-17.265625 16.824218-17.324219 1.351563-.46875 2.1875-1.824219 1.992188-3.242187-.195313-1.421876-1.367188-2.503907-2.796875-2.589844zm-19.167969 13.589844c-1.847656-3.773438-4.679688-7.894532-8.894531-10.5625 3.710937-2.082032 7.394531-5.257813 9.742187-9.832032 2.113282 3.746094 5.308594 7.910156 9.882813 10.449219-3.699219 2.203125-7.980469 5.480469-10.730469 9.945313zm0 0" fill="#3a312a"/><path d="m390.691406 3.5c-1.378906 16.359375-18.421875 18.941406-18.421875 18.941406 14.632813.6875 18.28125 19.886719 18.28125 19.886719.3125-13.691406 18.84375-20.089844 18.84375-20.089844-13.878906-.832031-18.703125-18.738281-18.703125-18.738281zm0 0" fill="#d7e057"/><path d="m409.574219 19.242188c-11.53125-.6875-15.945313-16.371094-15.988281-16.527344-.378907-1.40625-1.714844-2.332032-3.160157-2.203125-1.453125.128906-2.601562 1.285156-2.722656 2.734375-1.15625 13.742187-15.292969 16.136718-15.882813 16.230468-1.527343.230469-2.625 1.578126-2.546874 3.121094.082031 1.539063 1.316406 2.765625 2.855468 2.839844 12.070313.566406 15.449219 17.289062 15.480469 17.453125.269531 1.425781 1.515625 2.4375 2.945313 2.4375.082031 0 .164062 0 .25-.007813 1.53125-.125 2.714843-1.386718 2.75-2.921874.261718-11.417969 16.664062-17.269532 16.824218-17.324219 1.351563-.46875 2.1875-1.828125 1.992188-3.246094-.195313-1.417969-1.367188-2.5-2.796875-2.585937zm-19.167969 13.589843c-1.847656-3.769531-4.679688-7.894531-8.894531-10.558593 3.710937-2.082032 7.394531-5.261719 9.742187-9.832032 2.113282 3.746094 5.308594 7.90625 9.882813 10.445313-3.699219 2.203125-7.980469 5.480469-10.730469 9.945312zm0 0" fill="#3a312a"/><path d="m131 293.246094c0 17.675781-14.328125 32-32 32s-32-14.324219-32-32c0-17.671875 14.328125-32 32-32s32 14.328125 32 32zm0 0" fill="#87796f"/><path d="m99 258.25c-19.296875 0-35 15.703125-35 35s15.703125 35 35 35 35-15.703125 35-35c0-19.300781-15.703125-35-35-35zm0 64c-15.988281 0-29-13.011719-29-29s13.011719-29 29-29 29 13.011719 29 29-13.011719 29-29 29zm0 0" fill="#3a312a"/><path d="m245 293.246094c0 17.675781-14.328125 32-32 32s-32-14.324219-32-32c0-17.671875 14.328125-32 32-32s32 14.328125 32 32zm0 0" fill="#87796f"/><path d="m213 258.25c-19.296875 0-35 15.703125-35 35s15.703125 35 35 35 35-15.703125 35-35c0-19.300781-15.703125-35-35-35zm0 64c-15.988281 0-29-13.011719-29-29s13.011719-29 29-29 29 13.011719 29 29-13.011719 29-29 29zm0 0" fill="#3a312a"/><path d="m423.71875 318.246094-40.417969 81.242187c-6.980469 14.039063-21.082031 22.757813-36.761719 22.757813h30c15.679688 0 29.78125-8.71875 36.761719-22.757813l40.417969-81.242187zm0 0" fill="#d34e5c"/><path d="m458 288.246094h-30c6.621094 0 12 5.382812 12 12 0 6.621094-5.378906 12-12 12h30c6.621094 0 12-5.378906 12-12 0-6.617188-5.378906-12-12-12zm0 0" fill="#d34e5c"/></svg>