<svg height="455pt" viewBox="0 -2 455.26148 455" width="455pt" xmlns="http://www.w3.org/2000/svg"><path d="m147.875 234.457031c-30.417969-55.332031-110.515625-69.707031-121.214844-63.828125-8.753906 4.8125-41.484375 81.214844-11.070312 136.546875 30.417968 55.328125 72.386718 61.53125 108.917968 41.453125 36.527344-20.082031 53.78125-58.84375 23.367188-114.171875zm0 0" fill="#87796f"/><path d="m150.503906 233.011719c-30.441406-55.371094-112.226562-72.179688-125.289062-65.011719-10.335938 5.683594-43.207032 84.308594-12.253906 140.617188 14.746093 26.820312 32.875 43.785156 53.890624 50.421874 6.449219 2.039063 13.109376 3.050782 19.886719 3.050782 12.847657 0 26.125-3.640625 39.210938-10.835938 19.992187-10.988281 33.214843-26.800781 38.242187-45.726562 5.660156-21.296875 1.054688-45.695313-13.6875-72.515625zm-27.441406 112.988281c-18.519531 10.179688-37.328125 12.714844-54.402344 7.320312-19.496094-6.160156-36.46875-22.171874-50.441406-47.589843-29.589844-53.832031 2.785156-128.496094 9.882812-132.472657 1.199219-.65625 3.476563-1.003906 6.605469-1.003906 21.800781 0 84.851563 16.921875 110.535157 63.648438 26.265624 47.78125 18.179687 87.910156-22.179688 110.097656zm0 0" fill="#3a312a"/><path d="m116.269531 245.460938c-17.117187-31.140626-62.199219-39.234376-68.222656-35.925782-4.925781 2.710938-23.347656 45.710938-6.230469 76.855469 17.121094 31.140625 40.742188 34.632813 61.300782 23.328125 20.5625-11.296875 30.273437-33.117188 13.152343-64.257812zm0 0" fill="#f16c7a"/><path d="m118.902344 244.015625c-17.867188-32.5-64.488282-41.398437-72.300782-37.105469-6.1875 3.402344-25.597656 47.839844-7.414062 80.925782 8.46875 15.402343 18.925781 25.15625 31.085938 29 3.761718 1.1875 7.644531 1.777343 11.589843 1.777343 7.449219 0 15.136719-2.101562 22.703125-6.261719 11.574219-6.359374 19.234375-15.539062 22.160156-26.546874 3.273438-12.328126.640626-26.386719-7.824218-41.789063zm2.023437 40.246094c-2.492187 9.382812-9.152343 17.277343-19.253906 22.832031s-20.332031 6.941406-29.589844 4.019531c-10.640625-3.363281-19.9375-12.167969-27.636719-26.167969-16.152343-29.386718 1.050782-69.671874 5.03125-72.769531.457032-.21875 1.359376-.335937 2.625-.335937 10.609376 0 46.785157 8.226562 61.539063 35.066406 7.699219 14.003906 10.152344 26.570312 7.285156 37.355469zm0 0" fill="#3a312a"/><path d="m428.601562 170.628906c-10.699218-5.878906-90.796874 8.496094-121.210937 63.828125-30.417969 55.328125-13.164063 94.089844 23.363281 114.171875 36.527344 20.078125 78.5 13.875 108.917969-41.453125 30.414063-55.332031-2.316406-131.734375-11.070313-136.546875zm0 0" fill="#87796f"/><path d="m430.046875 168c-13.0625-7.175781-94.847656 9.632812-125.289063 65.011719-14.742187 26.820312-19.347656 51.21875-13.691406 72.519531 5.027344 18.921875 18.253906 34.734375 38.242188 45.726562 13.089844 7.195313 26.363281 10.832032 39.214844 10.832032 6.777343 0 13.4375-1.011719 19.882812-3.046875 21.015625-6.636719 39.148438-23.601563 53.894531-50.421875 30.953125-56.316406-1.917969-134.9375-12.253906-140.621094zm6.996094 137.730469c-13.972657 25.417969-30.945313 41.429687-50.441407 47.589843-17.070312 5.390626-35.878906 2.859376-54.402343-7.320312-40.363281-22.1875-48.445313-62.316406-22.183594-110.097656 29.375-53.433594 107.597656-67.886719 117.140625-62.644532 7.101562 3.976563 39.480469 78.632813 9.886719 132.472657zm0 0" fill="#3a312a"/><path d="m407.214844 209.535156c-6.023438-3.308594-51.105469 4.785156-68.222656 35.925782-17.121094 31.140624-7.410157 52.957031 13.152343 64.257812 20.558594 11.304688 44.179688 7.8125 61.300781-23.328125 17.117188-31.144531-1.304687-74.144531-6.230468-76.855469zm0 0" fill="#f16c7a"/><path d="m408.660156 206.90625c-7.808594-4.292969-54.433594 4.605469-72.300781 37.109375-15.976563 29.070313-10.621094 54.613281 14.335937 68.332031 7.5625 4.160156 15.25 6.261719 22.699219 6.261719 3.949219 0 7.828125-.589844 11.589844-1.777344 12.164063-3.839843 22.621094-13.597656 31.085937-29 18.191407-33.082031-1.222656-77.519531-7.410156-80.925781zm2.15625 78.039062c-7.699218 14-16.996094 22.804688-27.636718 26.164063-9.261719 2.925781-19.492188 1.535156-29.59375-4.019531-21.988282-12.085938-26.347657-34.023438-11.96875-60.183594 14.804687-26.929688 51.164062-35.121094 61.554687-35.121094 1.207031 0 2.0625.113282 2.496094.3125 4.09375 3.171875 21.300781 43.460938 5.148437 72.847656zm0 0" fill="#3a312a"/><path d="m415.152344 448.3125c.378906-5.441406.558594-10.882812.558594-16.441406 0-22.421875-3.261719-44.039063-9.398438-64.28125-18.882812-62.820313-64.742188-112.359375-122.660156-132.320313-18.042969-6.21875-37.242188-9.578125-57.160156-9.578125-19.222657 0-37.78125 3.097656-55.261719 8.960938-58.78125 19.5-105.460938 69.417968-124.558594 132.976562-6.101563 20.242188-9.421875 41.820313-9.421875 64.242188 0 5.859375.242188 11.621094.699219 17.320312h377.980469c-.257813-.28125-.519532-.582031-.777344-.878906zm0 0" fill="#fce8cb"/><path d="m418.226562 447.261719c.328126-5.039063.484376-10.085938.484376-15.390625 0-22.386719-3.207032-44.308594-9.527344-65.140625-19.183594-63.824219-65.746094-114.027344-124.554688-134.292969-18.753906-6.46875-38.3125-9.746094-58.136718-9.746094-19.257813 0-38.167969 3.066406-56.207032 9.113282-59.765625 19.828124-107.050781 70.28125-126.488281 134.960937-6.335937 21.019531-9.546875 42.925781-9.546875 65.105469 0 5.816406.238281 11.722656.710938 17.5625.125 1.558594 1.425781 2.757812 2.988281 2.757812h175.699219c1.65625 0 3-1.34375 3-3 0-1.660156-1.34375-3-3-3h-172.910157c-.324219-4.777344-.488281-9.582031-.488281-14.320312 0-21.59375 3.128906-42.914063 9.292969-63.375 18.875-62.816406 64.71875-111.785156 122.640625-131 17.429687-5.84375 35.703125-8.804688 54.308594-8.804688 19.15625 0 38.058593 3.167969 56.179687 9.414063 56.992187 19.640625 102.140625 68.371093 120.765625 130.355469 6.152344 20.28125 9.273438 41.613281 9.273438 63.410156 0 4.929687-.140626 9.636718-.429688 14.320312h-173.339844c-1.65625 0-3 1.339844-3 3 0 1.65625 1.34375 3 3 3h176.988282c1.195312 0 2.273437-.707031 2.75-1.800781.457031-1.046875.28125-2.261719-.453126-3.128906zm0 0" fill="#3a312a"/><path d="m171.230469 234.652344c-58.78125 19.5-105.460938 69.417968-124.558594 132.976562-6.101563 20.242188-9.421875 41.820313-9.421875 64.242188 0 5.859375.242188 11.621094.699219 17.320312h142.261719c13.199218-28.722656 20.800781-62.5 20.800781-98.660156 0-43.660156-11.101563-83.878906-29.78125-115.878906zm0 0" fill="#87796f"/><path d="m173.820312 233.140625c-.714843-1.226563-2.1875-1.78125-3.535156-1.335937-59.765625 19.828124-107.050781 70.28125-126.488281 134.960937-6.335937 21.019531-9.546875 42.925781-9.546875 65.105469 0 5.816406.238281 11.722656.710938 17.5625.125 1.558594 1.425781 2.757812 2.988281 2.757812h142.261719c1.171874 0 2.234374-.683594 2.722656-1.75 13.789062-29.996094 21.074218-64.542968 21.074218-99.910156.003907-42.964844-10.4375-83.5625-30.1875-117.390625zm4.457032 213.050781h-137.539063c-.324219-4.777344-.488281-9.582031-.488281-14.320312 0-21.59375 3.128906-42.914063 9.292969-63.375 18.625-61.976563 63.5-110.472656 120.316406-130.210938 18.421875 32.488282 28.148437 71.234375 28.148437 112.246094.003907 33.820312-6.816406 66.851562-19.730468 95.660156zm0 0" fill="#3a312a"/><path d="m415.152344 448.3125c.378906-5.441406.558594-10.882812.558594-16.441406 0-22.421875-3.261719-44.039063-9.398438-64.28125-18.882812-62.820313-64.742188-112.359375-122.660156-132.320313-18.421875 31.921875-29.402344 71.882813-29.402344 115.261719 0 36.160156 7.601562 69.9375 20.800781 98.660156h140.878907c-.257813-.28125-.519532-.582031-.777344-.878906zm0 0" fill="#87796f"/><g fill="#3a312a"><path d="m418.226562 447.261719c.328126-5.039063.484376-10.085938.484376-15.390625 0-22.386719-3.207032-44.308594-9.527344-65.140625-19.183594-63.824219-65.746094-114.027344-124.554688-134.292969-1.363281-.472656-2.859375.089844-3.578125 1.335938-19.496093 33.785156-29.800781 74.160156-29.800781 116.757812 0 35.367188 7.289062 69.914062 21.074219 99.910156.492187 1.066406 1.554687 1.75 2.726562 1.75h140.878907c1.195312 0 2.273437-.707031 2.75-1.800781.457031-1.046875.28125-2.261719-.453126-3.128906zm-5.945312-1.070313h-135.296875c-12.914063-28.808594-19.734375-61.839844-19.734375-95.660156 0-40.640625 9.59375-79.167969 27.769531-111.597656 55.882813 20.15625 100.046875 68.394531 118.417969 129.527344 6.152344 20.28125 9.273438 41.613281 9.273438 63.410156 0 4.929687-.140626 9.636718-.429688 14.320312zm0 0"/><path d="m163.445312 383.679688c-9.542968 0-17.28125 7.738281-17.28125 17.28125 0 9.546874 7.738282 17.28125 17.28125 17.28125 9.542969 0 17.28125-7.734376 17.28125-17.28125 0-9.542969-7.738281-17.28125-17.28125-17.28125zm0 0"/><path d="m308.941406 398.847656c-1.164062-9.472656-9.785156-16.207031-19.253906-15.042968-9.472656 1.160156-16.210938 9.78125-15.046875 19.253906s9.785156 16.207031 19.257813 15.046875c9.472656-1.164063 16.207031-9.785157 15.042968-19.257813zm0 0"/></g><path d="m423.515625 23.734375c-1.945313 23.125-26.046875 26.777344-26.046875 26.777344 20.691406.972656 25.847656 28.117187 25.847656 28.117187.441406-19.355468 26.644532-28.402344 26.644532-28.402344-19.625-1.175781-26.445313-26.492187-26.445313-26.492187zm0 0" fill="#d7e057"/><path d="m450.140625 47.230469c-17.210937-1.027344-23.664063-24.046875-23.726563-24.28125-.382812-1.402344-1.699218-2.320313-3.167968-2.203125-1.449219.132812-2.59375 1.285156-2.71875 2.734375-1.71875 20.429687-22.625 23.925781-23.507813 24.0625-1.523437.230469-2.625 1.582031-2.542969 3.121093.078126 1.539063 1.3125 2.769532 2.851563 2.84375 18.058594.847657 23 25.433594 23.046875 25.683594.273438 1.421875 1.519531 2.433594 2.945312 2.433594.082032 0 .167969-.003906.25-.011719 1.527344-.125 2.714844-1.382812 2.75-2.917969.390626-17.015624 24.382813-25.550781 24.625-25.636718 1.351563-.46875 2.1875-1.828125 1.988282-3.246094-.199219-1.414062-1.367188-2.496094-2.792969-2.582031zm-27.132813 20.691406c-2.710937-6.261719-7.417968-13.816406-15.171874-17.753906 5.859374-2.808594 12.816406-7.824219 16.402343-16.546875 3.101563 6.144531 8.402344 13.761718 16.667969 17.445312-6.015625 3.28125-13.84375 8.8125-17.898438 16.855469zm0 0" fill="#3a312a"/><path d="m380.117188 57.691406c-1.375 16.359375-18.421876 18.941406-18.421876 18.941406 14.636719.691407 18.285157 19.890626 18.285157 19.890626.3125-13.691407 18.84375-20.09375 18.84375-20.09375-13.882813-.828126-18.707031-18.738282-18.707031-18.738282zm0 0" fill="#d7e057"/><path d="m399 73.4375c-11.476562-.6875-15.902344-16.226562-15.984375-16.527344-.378906-1.40625-1.714844-2.332031-3.164063-2.207031-1.453124.128906-2.601562 1.285156-2.722656 2.734375-1.15625 13.742188-15.292968 16.136719-15.882812 16.230469-1.527344.230469-2.628906 1.578125-2.546875 3.121093.078125 1.539063 1.3125 2.769532 2.855469 2.839844 12.070312.570313 15.445312 17.289063 15.476562 17.453125.273438 1.425781 1.519531 2.441407 2.945312 2.441407.085938 0 .167969-.003907.25-.011719 1.53125-.125 2.714844-1.386719 2.753907-2.921875.257812-11.417969 16.660156-17.265625 16.824219-17.324219 1.351562-.46875 2.1875-1.824219 1.992187-3.242187-.195313-1.417969-1.367187-2.5-2.796875-2.585938zm-19.164062 13.589844c-1.847657-3.769532-4.679688-7.894532-8.894532-10.558594 3.710938-2.082031 7.394532-5.261719 9.742188-9.835938 2.113281 3.75 5.308594 7.910157 9.882812 10.449219-3.703125 2.203125-7.980468 5.480469-10.730468 9.945313zm0 0" fill="#3a312a"/><path d="m380.117188 4.378906c-1.375 16.359375-18.421876 18.941406-18.421876 18.941406 14.636719.6875 18.285157 19.886719 18.285157 19.886719.3125-13.6875 18.84375-20.089843 18.84375-20.089843-13.882813-.832032-18.707031-18.738282-18.707031-18.738282zm0 0" fill="#d7e057"/><path d="m399.003906 20.121094c-11.53125-.6875-15.945312-16.371094-15.988281-16.527344-.378906-1.40625-1.707031-2.328125-3.164063-2.203125-1.453124.128906-2.597656 1.28125-2.71875 2.734375-1.160156 13.742188-15.296874 16.132812-15.886718 16.226562-1.523438.230469-2.625 1.582032-2.546875 3.121094.082031 1.539063 1.316406 2.769532 2.859375 2.84375 12.070312.566406 15.445312 17.285156 15.476562 17.449219.269532 1.425781 1.519532 2.441406 2.945313 2.441406.082031 0 .164062-.003906.25-.011719 1.527343-.125 2.714843-1.386718 2.75-2.921874.261719-11.417969 16.664062-17.265626 16.824219-17.320313 1.351562-.46875 2.1875-1.828125 1.992187-3.246094s-1.367187-2.5-2.792969-2.585937zm-19.167968 13.589844c-1.847657-3.769532-4.679688-7.890626-8.894532-10.558594 3.710938-2.082032 7.394532-5.257813 9.742188-9.832032 2.113281 3.75 5.308594 7.910157 9.882812 10.449219-3.703125 2.199219-7.980468 5.480469-10.730468 9.941407zm0 0" fill="#3a312a"/><path d="m321.582031 156.558594-17.867187-19.792969-28.664063-31.753906c-.480469 3.679687-2 6.878906-4.558593 9.199219-2.5625 2.320312-5.882813 3.5-9.601563 3.621093l80.941406 89.660157c.5-3.679688 2-6.882813 4.558594-9.179688 2.582031-2.320312 5.902344-3.5 9.621094-3.621094zm0 0" fill="#d7e057"/><path d="m358.238281 192.679688-34.425781-38.136719c-1.113281-1.226563-3.007812-1.328125-4.238281-.214844-1.230469 1.109375-1.328125 3.007813-.21875 4.238281l30.824219 34.140625c-2.171876.742188-4.128907 1.875-5.792969 3.371094-1.65625 1.488281-2.980469 3.3125-3.9375 5.40625l-73.722657-81.667969c2.171876-.742187 4.121094-1.878906 5.78125-3.382812 1.660157-1.5 2.984376-3.328125 3.933594-5.40625l25.050782 27.746094c1.105468 1.230468 3.003906 1.328124 4.238281.21875 1.230469-1.113282 1.324219-3.007813.214843-4.238282l-28.667968-31.753906c-.785156-.867188-2.007813-1.199219-3.121094-.851562-1.117188.347656-1.929688 1.3125-2.078125 2.472656-.398437 3.042968-1.644531 5.589844-3.597656 7.367187-1.976563 1.785157-4.558594 2.742188-7.683594 2.84375-1.167969.035157-2.207031.75-2.664063 1.824219-.460937 1.074219-.25 2.316406.53125 3.183594l80.941407 89.660156c.578125.640625 1.390625.992188 2.226562.992188.296875 0 .59375-.046876.886719-.136719 1.113281-.34375 1.929688-1.304688 2.085938-2.460938.421874-3.117187 1.628906-5.59375 3.589843-7.355469 1.992188-1.789062 4.585938-2.75 7.710938-2.851562 1.167969-.035156 2.207031-.75 2.664062-1.824219.460938-1.074219.25-2.316406-.53125-3.183593zm0 0" fill="#3a312a"/><path d="m264.097656 76.582031c-11.917968-13.203125-28.382812-17.765625-36.773437-10.191406-8.394531 7.570313-5.53125 24.417969 6.386719 37.621094 11.921874 13.203125 28.382812 17.769531 36.777343 10.195312 8.390625-7.574219 5.527344-24.417969-6.390625-37.625zm0 0" fill="#d7e057"/><path d="m277.867188 97.003906c-1.300782-7.660156-5.398438-15.628906-11.542969-22.429687-6.140625-6.804688-13.648438-11.695313-21.136719-13.769531-7.96875-2.207032-15.027344-1.015626-19.875 3.359374-9.765625 8.820313-7.058594 27.207032 6.171875 41.859376 6.140625 6.804687 13.648437 11.695312 21.132813 13.769531 2.617187.726562 5.132812 1.085937 7.507812 1.085937 4.859375 0 9.113281-1.503906 12.371094-4.445312 4.847656-4.375 6.753906-11.273438 5.371094-19.429688zm-9.390626 14.976563c-3.265624 2.949219-8.328124 3.671875-14.253906 2.03125-6.402344-1.773438-12.898437-6.039063-18.285156-12.007813-10.609375-11.753906-13.632812-27.042968-6.605469-33.386718 2.125-1.917969 5-2.890626 8.378907-2.890626 1.824218 0 3.796874.285157 5.875.859376 6.40625 1.773437 12.898437 6.039062 18.289062 12.007812 5.386719 5.96875 8.964844 12.863281 10.078125 19.417969 1.027344 6.058593-.207031 11.019531-3.476563 13.96875zm0 0" fill="#3a312a"/><path d="m383.179688 208.480469c-11.921876-13.203125-28.386719-17.769531-36.777344-10.195313-8.390625 7.578125-5.53125 24.421875 6.390625 37.625 11.921875 13.207032 28.386719 17.769532 36.777343 10.195313 8.390626-7.574219 5.53125-24.421875-6.390624-37.625zm0 0" fill="#d7e057"/><path d="m385.398438 206.484375c-13.230469-14.652344-31.242188-19.226563-41.011719-10.410156-9.769531 8.820312-7.058594 27.207031 6.171875 41.863281 8.679687 9.613281 19.421875 14.890625 28.542968 14.890625 4.777344 0 9.113282-1.453125 12.472657-4.484375 9.765625-8.816406 7.054687-27.199219-6.175781-41.859375zm2.152343 37.410156c-7.027343 6.34375-21.933593 1.773438-32.539062-9.976562-10.609375-11.753907-13.632813-27.042969-6.605469-33.390625 2.15625-1.945313 5.050781-2.863282 8.335938-2.863282 7.429687 0 16.847656 4.695313 24.203124 12.84375 10.609376 11.75 13.632813 27.039063 6.605469 33.386719zm0 0" fill="#3a312a"/><path d="m39.800781 26.65625h-35.472656v124.535156h35.472656c8.53125 0 15.453125-6.917968 15.453125-15.453125v-93.632812c-.003906-8.53125-6.921875-15.449219-15.453125-15.449219zm0 0" fill="#f16c7a"/><path d="m39.796875 23.65625h-35.46875c-1.660156 0-3 1.339844-3 3v124.535156c0 1.660156 1.339844 3 3 3h35.472656c10.171875 0 18.453125-8.277344 18.453125-18.453125v-93.628906c-.003906-10.175781-8.28125-18.453125-18.457031-18.453125zm12.453125 112.082031c0 6.867188-5.585938 12.453125-12.453125 12.453125h-32.46875v-118.535156h32.472656c6.863281 0 12.453125 5.585938 12.453125 12.453125v93.628906zm0 0" fill="#3a312a"/><path d="m29.789062 40.828125c-6.4375 0-11.65625 5.214844-11.65625 11.65625 0 6.4375 5.214844 11.65625 11.65625 11.65625 6.4375 0 11.65625-5.21875 11.65625-11.65625 0-6.441406-5.21875-11.65625-11.65625-11.65625zm0 0" fill="#87796f"/><path d="m29.789062 37.828125c-8.082031 0-14.65625 6.574219-14.65625 14.65625s6.574219 14.65625 14.65625 14.65625c8.082032 0 14.65625-6.574219 14.65625-14.65625s-6.574218-14.65625-14.65625-14.65625zm0 23.3125c-4.773437 0-8.65625-3.882813-8.65625-8.65625 0-4.777344 3.882813-8.660156 8.65625-8.660156 4.773438 0 8.65625 3.882812 8.65625 8.660156 0 4.773437-3.882812 8.65625-8.65625 8.65625zm0 0" fill="#3a312a"/><path d="m345.152344 41.324219c-1.585938-3.132813-4.253906-5.917969-8.757813-6.671875l-141.175781-30.632813c-11.679688-1.953125-23.667969-.675781-34.671875 3.675781l-44.539063 19.394532-25.023437 10.925781-35.738281 15.570313v66.855468l6.730468-3.191406c5.917969-2.804688 12.53125-3.871094 19.007813-3.09375l16.980469 2.046875c3.390625.410156 6.789062.652344 10.183594.765625l124.167968 9.464844c12.375.941406 23.175782-8.324219 24.117188-20.699219.945312-12.378906-8.324219-23.175781-20.699219-24.117187l-18.921875-1.441407 39.035156-18.46875 73.121094 2.804688c3.402344.117187 6.671875-.65625 9.53125-2.164063 7.445312-3.945312 10.464844-13.5 6.652344-21.023437zm0 0" fill="#fce8cb"/><path d="m347.832031 39.96875c-2.332031-4.605469-6.117187-7.464844-10.800781-8.25l-141.3125-30.65625c-12.210938-2.042969-24.75-.714844-36.371094 3.878906l-44.535156 19.398438c-1.519531.664062-2.214844 2.429687-1.554688 3.949218.660157 1.519532 2.425782 2.214844 3.949219 1.550782l44.445313-19.355469c10.503906-4.15625 21.9375-5.367187 32.933594-3.535156l141.3125 30.660156c2.953124.496094 5.105468 2.152344 6.582031 5.070313 3.066406 6.054687.601562 13.84375-5.375 17.011718-2.445313 1.289063-5.253907 1.921875-8.019531 1.820313l-73.121094-2.804688c-.492188-.007812-.960938.082031-1.398438.289063l-39.039062 18.464844c-1.226563.582031-1.914063 1.917968-1.664063 3.257812.246094 1.339844 1.367188 2.34375 2.722657 2.445312l18.921874 1.441407c5.183594.398437 9.90625 2.789062 13.296876 6.734375 3.386718 3.945312 5.035156 8.976562 4.636718 14.164062-.394531 5.1875-2.785156 9.910156-6.730468 13.296875-3.949219 3.386719-8.984376 5.027344-14.164063 4.640625l-124.296875-9.472656c-3.4375-.117188-6.777344-.367188-9.921875-.742188l-16.984375-2.050781c-7.085938-.851562-14.222656.316407-20.652344 3.359375l-2.441406 1.160156v-60.144531l33.933594-14.78125c1.519531-.664062 2.214844-2.429687 1.554687-3.949219-.664062-1.519531-2.429687-2.214843-3.949219-1.550781l-35.738281 15.566407c-1.09375.476562-1.800781 1.558593-1.800781 2.75v66.855468c0 1.027344.527344 1.984375 1.394531 2.535156.871094.550782 1.957031.617188 2.886719.175782l6.730469-3.191406c5.402343-2.5625 11.40625-3.539063 17.367187-2.828126l16.980469 2.050782c3.316406.398437 6.828125.660156 10.3125.773437l124.167969 9.464844c.65625.050781 1.308594.074219 1.957031.074219 13.171875 0 24.363281-10.1875 25.378906-23.539063.515625-6.78125-1.640625-13.363281-6.070312-18.527343-4.433594-5.164063-10.609375-8.289063-17.394531-8.808594l-7.628907-.582032 28.136719-13.304687 72.398438 2.773437c3.863281.136719 7.667968-.734374 11.042968-2.511718 8.949219-4.742188 12.507813-15.972656 7.921875-25.027344zm0 0" fill="#3a312a"/><path d="m228.929688 228.710938c8.441406 1.601562 16.703124 3.78125 24.722656 6.558593 7.457031 2.5625 14.699218 5.621094 21.71875 9.140625 1.238281-2.5 2.539062-4.960937 3.878906-7.398437-16.277344-5.261719-33.199219-8.0625-50.320312-8.300781zm0 0" fill="#decaad"/><path d="m403.429688 368.46875c-18.359376-61.136719-62.519532-109.378906-118.417969-129.539062-1.519531 2.699218-2.960938 5.441406-4.359375 8.242187 45 24.378906 79.820312 67.71875 95.660156 120.417969 6.136719 20.242187 9.398438 41.859375 9.398438 64.28125 0 4.839844-.140626 9.578125-.441407 14.320312h27.023438c.277343-4.679687.417969-9.378906.417969-14.320312 0-21.800782-3.121094-43.140625-9.28125-63.402344zm0 0" fill="#695b51"/></svg>