<svg height="455pt" viewBox="0 -1 455.25881 455" width="455pt" xmlns="http://www.w3.org/2000/svg"><path d="m147.871094 68.148438c-30.414063-55.332032-110.515625-69.707032-121.214844-63.824219-8.753906 4.8125-41.484375 81.214843-11.066406 136.542969 30.414062 55.332031 72.386718 61.535156 108.914062 41.457031 36.527344-20.082031 53.78125-58.84375 23.367188-114.175781zm0 0" fill="#87796f"/><path d="m150.5 66.703125c-30.4375-55.371094-112.226562-72.179687-125.285156-65.007813-10.335938 5.679688-43.207032 84.304688-12.253906 140.617188 14.746093 26.820312 32.875 43.785156 53.890624 50.417969 6.453126 2.039062 13.105469 3.050781 19.886719 3.050781 12.847657 0 26.125-3.640625 39.210938-10.832031 19.992187-10.992188 33.214843-26.800781 38.242187-45.726563 5.65625-21.296875 1.050782-45.699218-13.691406-72.519531zm7.894531 70.980469c-4.597656 17.304687-16.816406 31.828125-35.335937 42.007812-40.363282 22.1875-78.574219 7.511719-104.839844-40.269531-29.59375-53.832031 2.785156-128.496094 9.882812-132.46875 1.199219-.660156 3.472657-1.007813 6.601563-1.007813 21.800781 0 84.851563 16.921876 110.539063 63.648438 13.976562 25.421875 18.398437 48.332031 13.152343 68.089844zm0 0" fill="#3a312a"/><path d="m116.269531 79.15625c-17.121093-31.144531-62.203125-39.234375-68.222656-35.925781-4.929687 2.707031-23.351563 45.710937-6.230469 76.855469 17.117188 31.140624 40.742188 34.632812 61.300782 23.332031 20.558593-11.304688 30.273437-33.121094 13.152343-64.261719zm0 0" fill="#f16c7a"/><path d="m118.898438 77.710938c-17.867188-32.503907-64.488282-41.402344-72.296876-37.109376-6.1875 3.40625-25.601562 47.839844-7.414062 80.929688 8.464844 15.398438 18.921875 25.15625 31.085938 28.996094 3.761718 1.1875 7.640624 1.78125 11.589843 1.78125 7.449219-.003906 15.136719-2.105469 22.699219-6.261719 11.574219-6.363281 19.238281-15.542969 22.160156-26.546875 3.273438-12.332031.640625-26.390625-7.824218-41.789062zm2.023437 40.242187c-2.492187 9.382813-9.148437 17.277344-19.25 22.832031-10.097656 5.554688-20.332031 6.941406-29.59375 4.019532-10.640625-3.363282-19.9375-12.167969-27.636719-26.167969-16.152344-29.386719 1.054688-69.675781 5.03125-72.773438.457032-.214843 1.359375-.332031 2.625-.332031 10.613282 0 46.789063 8.222656 61.542969 35.066406 7.695313 14.003906 10.148437 26.574219 7.28125 37.355469zm0 0" fill="#3a312a"/><path d="m428.601562 4.324219c-10.699218-5.882813-90.796874 8.496093-121.214843 63.824219-30.414063 55.332031-13.160157 94.09375 23.367187 114.175781 36.527344 20.078125 78.5 13.875 108.914063-41.457031 30.417969-55.332032-2.3125-131.730469-11.066407-136.542969zm0 0" fill="#87796f"/><path d="m430.046875 1.695312c-13.066406-7.179687-94.851563 9.636719-125.292969 65.007813-14.742187 26.820313-19.347656 51.21875-13.691406 72.519531 5.027344 18.925782 18.25 34.738282 38.242188 45.726563 13.089843 7.195312 26.363281 10.832031 39.214843 10.832031 6.777344 0 13.4375-1.011719 19.882813-3.046875 21.019531-6.636719 39.148437-23.601563 53.894531-50.421875 30.957031-56.3125-1.914063-134.9375-12.25-140.617188zm6.996094 137.726563c-26.269531 47.78125-64.484375 62.457031-104.84375 40.269531-18.519531-10.179687-30.738281-24.707031-35.335938-42.007812-5.246093-19.757813-.820312-42.667969 13.152344-68.085938 29.371094-53.429687 107.59375-67.894531 117.140625-62.644531 7.097656 3.972656 39.476562 78.636719 9.886719 132.46875zm0 0" fill="#3a312a"/><path d="m407.214844 43.230469c-6.023438-3.308594-51.109375 4.78125-68.226563 35.925781-17.121093 31.140625-7.40625 52.957031 13.152344 64.257812 20.558594 11.300782 44.183594 7.808594 61.300781-23.332031 17.121094-31.140625-1.300781-74.140625-6.226562-76.851562zm0 0" fill="#f16c7a"/><path d="m408.65625 40.601562c-7.808594-4.296874-54.429688 4.605469-72.296875 37.105469-8.464844 15.402344-11.097656 29.460938-7.824219 41.789063 2.925782 11.003906 10.585938 20.183594 22.160156 26.546875 7.5625 4.160156 15.25 6.261719 22.699219 6.261719 3.949219 0 7.828125-.589844 11.589844-1.78125 12.164063-3.839844 22.621094-13.59375 31.085937-28.996094 18.1875-33.085938-1.222656-77.523438-7.414062-80.925782zm2.15625 78.035157c-7.699219 14.003906-16.996094 22.808593-27.636719 26.167969-9.257812 2.925781-19.488281 1.535156-29.589843-4.019532-10.101563-5.550781-16.757813-13.445312-19.253907-22.828125-2.863281-10.785156-.414062-23.351562 7.285157-37.355469 14.800781-26.925781 51.160156-35.117187 61.554687-35.117187 1.203125 0 2.058594.109375 2.492187.3125 4.097657 3.167969 21.304688 43.453125 5.148438 72.839844zm0 0" fill="#3a312a"/><path d="m416.1875 283.179688c-.339844-.378907-.699219-.757813-1.039062-1.179688.378906-5.441406.5625-10.859375.5625-16.417969 0-22.441406-3.261719-44.0625-9.402344-64.300781-10.417969-34.660156-29.039063-65.28125-53.378906-89.101562-4.800782-4.71875-9.839844-9.160157-15.082032-13.320313-16.277344-12.9375-34.539062-23.117187-54.199218-29.878906-18.039063-6.238281-37.238282-9.601563-57.160157-9.601563-19.21875 0-37.777343 3.101563-55.257812 8.960938-19.921875 6.621094-38.441407 16.699218-54.960938 29.621094-5.261719 4.121093-10.300781 8.519531-15.140625 13.179687-24.859375 23.980469-43.878906 54.980469-54.460937 90.179687-6.097657 20.238282-9.417969 41.820313-9.417969 64.261719 0 6.019531.257812 11.976563.738281 17.839844.039063.296875.039063.578125.0625.859375-15.882812 18.019531-24.902343 38.558594-24.902343 60.378906 0 6.859375.878906 13.378906 2.601562 19.539063 15.429688 55.679687 97.785156 84.097656 199.019531 86.304687h25.722657c101.234374-2.207031 183.585937-30.625 199.015624-86.304687 1.722657-6.160157 2.601563-12.679688 2.601563-19.539063 0-22.300781-9.398437-43.21875-25.921875-61.480468zm0 0" fill="#fce8cb"/><path d="m418.425781 281.179688-.199219-.21875c.324219-5.039063.484376-10.085938.484376-15.378907 0-22.402343-3.207032-44.328125-9.53125-65.164062-10.414063-34.648438-29.144532-65.902344-54.148438-90.375-4.800781-4.71875-9.953125-9.273438-15.316406-13.53125-16.808594-13.359375-35.34375-23.578125-55.085938-30.367188-18.734375-6.480469-38.296875-9.765625-58.140625-9.765625-19.257812 0-38.171875 3.070313-56.207031 9.117188-20.042969 6.660156-38.835938 16.789062-55.863281 30.105468-5.246094 4.109376-10.417969 8.609376-15.371094 13.378907-25.570313 24.667969-44.679687 56.300781-55.25 91.476562-6.335937 21.019531-9.546875 42.929688-9.546875 65.125 0 5.746094.238281 11.640625.71875 17.667969-16.242188 18.804688-24.820312 40.015625-24.820312 61.410156 0 7.058594.910156 13.902344 2.707031 20.339844 14.6875 52.984375 90.140625 86.066406 201.84375 88.503906 1.707031.015625 3.03125-1.28125 3.066406-2.9375.035156-1.652344-1.277344-3.027344-2.933594-3.0625-108.914062-2.375-182.257812-33.816406-196.195312-84.113281-1.652344-5.917969-2.492188-12.21875-2.492188-18.730469 0-20.566406 8.125-40.214844 24.152344-58.398437.53125-.601563.796875-1.390625.742187-2.191407l-.011718-.210937c-.011719-.269531-.027344-.546875-.050782-.683594-.484374-5.910156-.730468-11.832031-.730468-17.59375 0-21.609375 3.128906-42.9375 9.292968-63.398437 10.277344-34.191406 28.835938-64.929688 53.667969-88.882813 4.804688-4.625 9.820313-8.992187 14.90625-12.976562 16.484375-12.890625 34.667969-22.695313 54.066407-29.136719 17.425781-5.84375 35.699218-8.804688 54.308593-8.804688 19.175781 0 38.078125 3.171876 56.183594 9.433594 19.097656 6.570313 37.035156 16.460938 53.308594 29.394532 5.199219 4.128906 10.191406 8.539062 14.847656 13.117187 24.289063 23.769531 42.480469 54.136719 52.605469 87.828125 6.152344 20.273438 9.273437 41.617188 9.273437 63.425781 0 5.589844-.179687 10.890625-.550781 16.210938-.054688.757812.183594 1.507812.660156 2.097656.289063.355469.585938.6875.875 1.007813l.269532.296874c16.449218 18.179688 25.144531 38.746094 25.144531 59.46875 0 6.511719-.835938 12.8125-2.492188 18.738282-13.9375 50.289062-87.28125 81.730468-196.191406 84.105468-1.65625.035157-2.972656 1.410157-2.933594 3.066407.035157 1.632812 1.371094 2.933593 2.996094 2.933593.023437 0 .042969 0 .066406-.003906 111.707031-2.433594 187.160157-35.515625 201.84375-88.496094 1.796875-6.445312 2.707031-13.289062 2.707031-20.34375.007813-22.238281-9.222656-44.191406-26.675781-63.484374zm0 0" fill="#3a312a"/><path d="m171.226562 68.335938c-58.785156 19.511718-105.464843 69.433593-124.5625 132.984374-6.097656 20.242188-9.40625 41.816407-9.40625 64.253907 0 6.035156.253907 11.976562.730469 17.855469.03125.285156.03125.574218.066407.859374-15.890626 18.015626-24.914063 38.542969-24.914063 60.375 0 6.863282.890625 13.375 2.605469 19.539063 13.695312 5.910156 28.3125 9.089844 43.472656 9.089844 74.753906 0 135.957031-77.105469 141.386719-174.90625l.0625-26.578125c-1.890625-38.851563-12.542969-74.53125-29.441407-103.472656zm0 0" fill="#87796f"/><path d="m200.769531 195.394531c-1.636719-.0625-3.066406 1.171875-3.160156 2.828125-5.359375 96.488282-66.148437 172.070313-138.394531 172.070313-13.992188 0-27.757813-2.78125-40.953125-8.277344-1.410157-5.539063-2.125-11.367187-2.125-17.351563 0-20.5625 8.128906-40.210937 24.164062-58.390624.558594-.636719.824219-1.476563.730469-2.320313l-.019531-.261719c-.007813-.199218-.023438-.398437-.035157-.5-.480468-5.902344-.722656-11.828125-.722656-17.617187 0-21.632813 3.125-42.960938 9.28125-63.386719 18.621094-61.96875 63.496094-110.46875 120.320313-130.214844 16.429687 28.988282 26.039062 63.5 27.816406 99.984375.082031 1.65625 1.460937 2.949219 3.140625 2.851563 1.65625-.082032 2.933594-1.488282 2.851562-3.140625-1.863281-38.339844-12.1875-74.59375-29.847656-104.839844-.714844-1.226563-2.1875-1.78125-3.535156-1.335937-59.769531 19.835937-107.054688 70.292968-126.488281 134.964843-6.328125 20.988281-9.535157 42.894531-9.535157 65.117188 0 5.789062.234376 11.707031.707032 17.691406-16.246094 18.800781-24.824219 40.007813-24.824219 61.402344 0 7.027343.914063 13.871093 2.710937 20.34375.246094.871093.871094 1.589843 1.703126 1.949219 14.351562 6.195312 29.375 9.335937 44.660156 9.335937 36.953125 0 72.125-18.429687 99.027344-51.898437 26.578124-33.058594 42.6875-77.75 45.355468-125.839844.09375-1.660156-1.171875-3.070313-2.828125-3.164063zm0 0" fill="#3a312a"/><path d="m416.1875 283.175781c-.347656-.382812-.699219-.761719-1.046875-1.175781.382813-5.433594.574219-10.867188.574219-16.425781 0-22.4375-3.277344-44.042969-9.40625-64.285157-18.878906-62.824218-64.730469-112.363281-122.65625-132.316406-18.429688 31.902344-29.394532 71.878906-29.394532 115.25 0 104.417969 63.457032 189.070313 141.785157 189.070313 15.15625 0 29.773437-3.179688 43.46875-9.089844 1.71875-6.164063 2.605469-12.675781 2.605469-19.539063 0-22.308593-9.402344-43.21875-25.929688-61.488281zm0 0" fill="#87796f"/><path d="m418.367188 281.113281c-.046876-.054687-.097657-.109375-.148438-.164062.332031-5.121094.496094-10.167969.496094-15.378907 0-22.351562-3.210938-44.273437-9.535156-65.144531-19.175782-63.828125-65.738282-114.03125-124.550782-134.292969-1.355468-.46875-2.855468.09375-3.574218 1.335938-19.492188 33.742188-29.796876 74.117188-29.796876 116.753906 0 105.90625 64.953126 192.066406 144.789063 192.066406 15.28125 0 30.304687-3.140624 44.65625-9.335937.832031-.359375 1.457031-1.074219 1.703125-1.949219 1.800781-6.472656 2.714844-13.316406 2.714844-20.34375-.003906-22.222656-9.238282-44.179687-26.753906-63.546875zm18.625 80.902344c-13.191407 5.492187-26.960938 8.277344-40.949219 8.277344-76.527344 0-138.785157-83.46875-138.785157-186.070313 0-40.675781 9.589844-79.199218 27.757813-111.589844 55.886719 20.152344 100.050781 68.386719 118.417969 129.527344 6.15625 20.3125 9.277344 41.648438 9.277344 63.414063 0 5.496093-.183594 10.800781-.5625 16.214843-.058594.785157.195312 1.554688.703124 2.152344.363282.425782.722657.824219 1.113282 1.246094 16.691406 18.453125 25.152344 38.464844 25.152344 59.476562 0 5.980469-.714844 11.8125-2.125 17.351563zm0 0" fill="#3a312a"/><path d="m227.710938 269.457031c-16.800782-.074219-30.453126 8.039063-30.496094 18.117188-.046875 10.082031 13.5 26.421875 30.296875 26.492187 16.800781.074219 30.488281-16.144531 30.535156-26.226562.042969-10.078125-13.539063-18.308594-30.335937-18.382813zm0 0" fill="#3a312a"/><path d="m227.628906 305.011719c0 21.699219-16.441406 39.523437-37.546875 41.71875.394531 26.144531 17.058594 47.152343 37.546875 47.152343 20.488282 0 37.152344-21.007812 37.546875-47.152343-21.105469-2.195313-37.546875-20.019531-37.546875-41.71875zm0 0" fill="#f16c7a"/><g fill="#3a312a"><path d="m265.488281 343.75c-19.875-2.070312-34.859375-18.722656-34.859375-38.738281 0-1.65625-1.34375-3-3-3s-3 1.34375-3 3c0 20.015625-14.984375 36.667969-34.859375 38.738281-1.542969.160156-2.710937 1.472656-2.6875 3.027344.421875 28.097656 18.234375 50.105468 40.546875 50.105468s40.121094-22.007812 40.546875-50.105468c.023438-1.554688-1.140625-2.867188-2.6875-3.027344zm-37.859375 47.132812c-18 0-33.042968-18.40625-34.449218-41.542968 15.984374-2.664063 28.867187-13.585938 34.449218-28.089844 5.585938 14.503906 18.46875 25.425781 34.449219 28.089844-1.40625 23.136718-16.449219 41.542968-34.449219 41.542968zm0 0"/><path d="m227.628906 302.011719c-1.65625 0-3 1.34375-3 3 0 20.015625-14.984375 36.667969-34.902344 38.742187-1.261718.152344-2.632812.226563-4.066406.226563-21.484375 0-38.964844-17.480469-38.964844-38.96875 0-1.65625-1.34375-3-3-3-1.660156 0-3 1.34375-3 3 0 24.792969 20.171876 44.96875 44.964844 44.96875 1.671875 0 3.273438-.089844 4.730469-.265625 22.941406-2.386719 40.238281-21.605469 40.238281-44.703125 0-1.65625-1.34375-3-3-3zm0 0"/><path d="m311.566406 302.011719c-1.660156 0-3 1.34375-3 3 0 21.488281-17.480468 38.96875-38.96875 38.96875-1.433594 0-2.800781-.074219-4.109375-.230469-19.875-2.070312-34.859375-18.722656-34.859375-38.738281 0-1.65625-1.34375-3-3-3s-3 1.34375-3 3c0 23.097656 17.296875 42.316406 40.195313 44.699219 1.5.179687 3.105469.269531 4.773437.269531 24.792969 0 44.96875-20.175781 44.96875-44.96875 0-1.65625-1.34375-3-3-3zm0 0"/></g><path d="m143.695312 283.664062c0-13.636718-17.683593-24.6875-39.5-24.6875-21.816406 0-39.5 11.050782-39.5 24.6875 0 13.632813 17.683594 24.683594 39.5 24.683594 21.816407 0 39.5-11.050781 39.5-24.683594zm0 0" fill="#f5978a"/><path d="m351.0625 258.972656c-21.8125 0-39.496094 11.054688-39.496094 24.6875 0 13.632813 17.683594 24.6875 39.496094 24.6875 21.816406 0 39.5-11.054687 39.5-24.6875 0-13.632812-17.683594-24.6875-39.5-24.6875zm0 0" fill="#f5978a"/><path d="m163.441406 217.375c-9.542968 0-17.28125 7.734375-17.28125 17.28125 0 9.542969 7.738282 17.28125 17.28125 17.28125 9.546875 0 17.28125-7.738281 17.28125-17.28125.003906-9.546875-7.734375-17.28125-17.28125-17.28125zm0 0" fill="#3a312a"/><path d="m308.96875 232.535156c-1.167969-9.472656-9.792969-16.203125-19.261719-15.039062-9.472656 1.167968-16.207031 9.789062-15.039062 19.261718 1.164062 9.472657 9.789062 16.207032 19.261719 15.039063 9.472656-1.164063 16.203124-9.789063 15.039062-19.261719zm0 0" fill="#3a312a"/><path d="m237.949219 71.785156c0-36.828125-4.621094-66.683594-10.320313-66.683594-5.699218 0-10.320312 29.855469-10.320312 66.683594 0 36.832032 4.621094 66.6875 10.320312 66.6875 5.699219 0 10.320313-29.855468 10.320313-66.6875zm0 0" fill="#f16c7a"/><path d="m227.628906 2.101562c-12.679687 0-13.320312 58.046876-13.320312 69.683594 0 11.636719.640625 69.6875 13.320312 69.6875 12.679688 0 13.320313-58.046875 13.320313-69.6875 0-11.636718-.640625-69.683594-13.320313-69.683594zm0 132.863282c-3.183594-4.65625-7.320312-28.058594-7.320312-63.175782 0-35.117187 4.136718-58.519531 7.320312-63.179687 3.183594 4.65625 7.320313 28.058594 7.320313 63.179687 0 35.117188-4.136719 58.515626-7.320313 63.175782zm0 0" fill="#3a312a"/><path d="m261.929688 21.621094c-5.742188-1.417969-17.292969 25.371094-25.800782 59.832031-8.511718 34.460937-10.753906 63.546875-5.011718 64.964844 5.738281 1.417969 17.292968-25.371094 25.800781-59.832031 8.507812-34.460938 10.753906-63.546876 5.011719-64.964844zm0 0" fill="#f16c7a"/><path d="m263.953125 19.21875c-1.375-.800781-2.996094-.882812-4.5625-.226562-8.589844 3.589843-19.042969 33.835937-25.386719 58.648437-.671875 2.628906-16.328125 64.46875-4.878906 71.160156.761719.445313 1.59375.667969 2.453125.667969.695313 0 1.410156-.144531 2.109375-.441406 8.589844-3.589844 19.042969-33.835938 25.386719-58.648438.671875-2.625 16.328125-64.464844 4.878906-71.160156zm-10.695313 69.675781c-8.789062 34.386719-17.792968 51.570313-21.328124 54.277344-2.121094-4.527344-1.351563-27.90625 7.886718-64.042969 8.789063-34.382812 17.792969-51.570312 21.328125-54.273437 2.125 4.523437 1.351563 27.902343-7.886719 64.039062zm0 0" fill="#3a312a"/><path d="m219.101562 81.449219c-8.507812-34.460938-20.058593-61.25-25.800781-59.832031-5.742187 1.417968-3.496093 30.503906 5.011719 64.964843 8.507812 34.464844 20.0625 61.25 25.800781 59.832031 5.742188-1.414062 3.5-30.503906-5.011719-64.964843zm0 0" fill="#f16c7a"/><path d="m221.253906 77.640625c-6.339844-24.808594-16.792968-55.058594-25.382812-58.644531-1.570313-.65625-3.191406-.578125-4.5625.226562-11.453125 6.691406 4.207031 68.53125 4.878906 71.160156 6.339844 24.8125 16.796875 55.0625 25.382812 58.648438.703126.296875 1.414063.441406 2.109376.441406.863281 0 1.699218-.222656 2.457031-.667968 11.445312-6.691407-4.210938-68.53125-4.882813-71.164063zm2.128906 65.570313c-3.5-2.574219-12.550781-19.753907-21.382812-54.316407-9.328125-36.480469-10.023438-59.960937-7.941406-64.082031 3.5 2.574219 12.546875 19.753906 21.382812 54.316406 9.328125 36.484375 10.023438 59.964844 7.941406 64.082032zm0 0" fill="#3a312a"/><path d="m337.847656 98.859375c-21.320312 16.5625-60.457031 29.242187-110.21875 29.242187-50.660156 0-90.320312-13.140624-111.359375-30.140624-5.261719 4.121093-10.300781 8.519531-15.140625 13.179687 25.761719 22.339844 72.300782 36.960937 126.5 36.960937 53.378906 0 99.320313-14.179687 125.300782-35.921874-4.800782-4.71875-9.839844-9.160157-15.082032-13.320313zm0 0" fill="#d7e057"/><path d="m355.03125 110.042969c-4.796875-4.71875-9.953125-9.273438-15.316406-13.53125-1.082032-.859375-2.613282-.867188-3.707032-.019531-23.0625 17.914062-63.578124 28.609374-108.378906 28.609374-45.707031 0-86.632812-11.019531-109.472656-29.472656-1.089844-.878906-2.636719-.890625-3.738281-.027344-5.246094 4.109376-10.417969 8.609376-15.367188 13.378907-.609375.582031-.941406 1.398437-.917969 2.238281.019532.84375.394532 1.636719 1.03125 2.191406 27.214844 23.601563 75.238282 37.691406 128.464844 37.691406 52.265625 0 99.824219-13.691406 127.226563-36.621093.648437-.542969 1.039062-1.335938 1.070312-2.179688.035157-.847656-.289062-1.667969-.894531-2.257812zm-127.402344 35.058593c-50.183594 0-95.421875-12.703124-121.988281-34.101562 3.46875-3.230469 7.03125-6.316406 10.636719-9.21875 24.183594 18.390625 65.539062 29.320312 111.351562 29.320312 44.894532 0 85.8125-10.597656 110.160156-28.4375 3.667969 2.980469 7.21875 6.101563 10.609376 9.3125-26.722657 20.789063-71.507813 33.125-120.769532 33.125zm0 0" fill="#3a312a"/><path d="m264.289062 66.621094c-.378906 2.058594-.78125 4.039062-1.179687 5.9375 4.160156 1.683594 8.238281 3.542968 12.238281 5.542968 1.261719-2.5 2.5625-4.960937 3.902344-7.382812-4.941406-1.597656-9.921875-2.976562-14.960938-4.097656zm0 0" fill="#decaad"/><path d="m285.007812 72.640625c-1.519531 2.699219-2.957031 5.441406-4.359374 8.21875 9.5625 5.179687 18.660156 11.199219 27.199218 18 3.441406 2.742187 6.800782 5.582031 10.042969 8.5625 5.5-2.621094 10.5-5.5 14.957031-8.640625-14.558594-11.082031-30.636718-19.941406-47.839844-26.140625zm0 0" fill="#695b51"/><path d="m413.96875 285.179688c-.359375-.398438-.738281-.800782-1.121094-1.238282-.5-.601562-.757812-1.382812-.699218-2.160156.378906-5.402344.5625-10.699219.5625-16.199219 0-21.78125-3.121094-43.101562-9.28125-63.421875-10-33.300781-27.679688-62.761718-50.699219-85.960937-4.863281 3.839843-10.300781 7.402343-16.242188 10.660156 17.722657 21.222656 31.421875 46.519531 39.820313 74.421875 6.140625 20.238281 9.402344 41.859375 9.402344 64.300781 0 2.058594-.023438 4.078125-.082032 6.097657 3.140625 3.539062 4.941406 7.640624 4.941406 11.980468 0 1.359375-.179687 2.699219-.519531 4 14.117188 17.179688 22.058594 36.5 22.058594 57 0 6.859375-.878906 13.378906-2.601563 19.539063-.519531 1.839843-1.097656 3.660156-1.738281 5.441406 9.960938-1.121094 19.738281-3.679687 29.21875-7.621094 1.421875-5.539062 2.121094-11.378906 2.121094-17.359375 0-21-8.460937-41.019531-25.140625-59.480468zm0 0" fill="#695b51"/><path d="m337.789062 102.660156c-4.519531 3.320313-9.621093 6.378906-15.21875 9.179688.117188.101562.238282.21875.359376.339844 3.300781 3.242187 6.5 6.582031 9.578124 10.0625 5.820313-3.140626 11.140626-6.5625 15.902344-10.261719-3.402344-3.21875-6.941406-6.339844-10.621094-9.320313zm0 0" fill="#b9c239"/><path d="m405.070312 375.921875c-18.320312 38.078125-71.0625 61.4375-139.019531 70.457031 38.699219-2.679687 72.976563-9.457031 100.558594-20 35.519531-13.558594 58.859375-33.199218 68-57-9.601563 3.519532-19.5 5.722656-29.539063 6.542969zm0 0" fill="#decaad"/></svg>