<svg height="476pt" viewBox="0 -11 476 476" width="476pt" xmlns="http://www.w3.org/2000/svg"><path d="m458 314.746094h-440c-.199219 0-.378906 0-.578125-.019532l17.1875 34.539063 11.90625 23.921875 13.507813 27.136719c7.4375 14.960937 22.71875 24.421875 39.4375 24.421875h277.082031c16.71875 0 32-9.460938 39.4375-24.421875l42.601562-85.597657c-.203125.019532-.382812.019532-.582031.019532zm0 0" fill="#d7e057"/><path d="m461.046875 313.019531c-.625-.902343-1.695313-1.390625-2.773437-1.277343-.097657.011718-.183594.003906-.277344.003906h-439.996094c-.089844 0-.175781.003906-.273438-.003906-1.074218-.117188-2.152343.378906-2.773437 1.277343-.625.894531-.710937 2.0625-.21875 3.042969l17.191406 34.542969c.734375 1.480469 2.542969 2.085937 4.019531 1.347656 1.484376-.738281 2.089844-2.542969 1.351563-4.023437l-15.023437-30.183594h431.453124l-40.429687 81.246094c-6.984375 14.035156-21.066406 22.753906-36.757813 22.753906h-277.078124c-15.691407 0-29.773438-8.71875-36.757813-22.753906l-13.503906-27.144532c-.738281-1.480468-2.542969-2.085937-4.023438-1.347656-1.484375.738281-2.085937 2.542969-1.351562 4.023438l13.507812 27.140624c8.003907 16.085938 24.144531 26.082032 42.125 26.082032h277.082031c17.984376 0 34.125-9.996094 42.125-26.082032l42.601563-85.601562c.488281-.980469.40625-2.144531-.21875-3.042969zm0 0" fill="#3a312a"/><path d="m112.292969 424.746094h85.410156v26h-85.410156zm0 0" fill="#87796f"/><path d="m197.703125 421.746094h-85.410156c-1.65625 0-3 1.34375-3 3v26c0 1.660156 1.34375 3 3 3h85.410156c1.65625 0 3-1.339844 3-3v-26c0-1.65625-1.339844-3-3-3zm-3 26h-79.410156v-20h79.410156zm0 0" fill="#3a312a"/><path d="m278.296875 424.746094h85.410156v26h-85.410156zm0 0" fill="#87796f"/><path d="m363.703125 421.746094h-85.410156c-1.65625 0-3 1.34375-3 3v26c0 1.660156 1.34375 3 3 3h85.410156c1.65625 0 3-1.339844 3-3v-26c0-1.65625-1.339844-3-3-3zm-3 26h-79.410156v-20h79.410156zm0 0" fill="#3a312a"/><path d="m458 284.746094h-440c-8.285156 0-15 6.714844-15 15s6.714844 15 15 15h440c8.285156 0 15-6.714844 15-15s-6.714844-15-15-15zm0 0" fill="#d7e057"/><path d="m458 281.746094h-440c-9.925781 0-18 8.078125-18 18 0 9.925781 8.074219 18 18 18h440c9.925781 0 18-8.074219 18-18 0-9.921875-8.074219-18-18-18zm0 30h-440c-6.617188 0-12-5.378906-12-12 0-6.617188 5.382812-12 12-12h440c6.617188 0 12 5.382812 12 12 0 6.621094-5.382812 12-12 12zm0 0" fill="#3a312a"/><path d="m458 287.746094h-30c6.621094 0 12 5.378906 12 12s-5.378906 12-12 12h30c6.621094 0 12-5.378906 12-12s-5.378906-12-12-12zm0 0" fill="#b9c239"/><path d="m105.800781 44.691406c-19.144531-34.828125-69.558593-43.875-76.292969-40.171875-5.511718 3.027344-26.109374 51.113281-6.964843 85.9375s45.558593 38.730469 68.550781 26.09375c22.992188-12.640625 33.851562-37.039062 14.707031-71.859375zm0 0" fill="#87796f"/><path d="m108.429688 43.242188c-19.886719-36.171876-71.6875-46.121094-80.367188-41.355469-6.871094 3.777343-28.390625 53.191406-8.148438 90.015625 12.332032 22.4375 29.195313 34.210937 47.628907 34.210937 8.109375 0 16.527343-2.28125 24.996093-6.9375 27.714844-15.230469 33.652344-43.621093 15.890626-75.933593zm-18.78125 70.675781c-24.785157 13.625-48.285157 4.546875-64.476563-24.90625-18.101563-32.925781 1.339844-78.601563 5.777344-81.863281.5-.257813 1.523437-.398438 2.980469-.398438 11.929687 0 52.714843 9.324219 69.242187 39.382812 16.191406 29.453126 11.261719 54.160157-13.523437 67.785157zm0 0" fill="#3a312a"/><path d="m85.910156 51.617188c-10.773437-19.605469-39.148437-24.695313-42.941406-22.613282-3.097656 1.707032-14.695312 28.773438-3.917969 48.375 10.773438 19.597656 25.644531 21.796875 38.582031 14.683594s19.050782-20.847656 8.277344-40.445312zm0 0" fill="#f16c7a"/><path d="m88.539062 50.167969c-11.050781-20.097657-41.007812-27.09375-47.015624-23.792969-4.953126 2.71875-16.390626 31.914062-5.105469 52.445312 7.203125 13.101563 17.070312 19.972657 27.878906 19.972657 4.792969 0 9.769531-1.347657 14.777344-4.101563 7.558593-4.15625 12.566406-10.171875 14.488281-17.398437 2.140625-8.046875.449219-17.171875-5.023438-27.125zm-.773437 25.582031c-1.488281 5.605469-5.492187 10.335938-11.578125 13.679688-13.417969 7.375-25.671875 2.582031-34.507812-13.5-9.472657-17.226563-.226563-40.855469 2.8125-44.285157 3.9375-.792969 29.082031 3.761719 38.789062 21.417969 4.703125 8.550781 6.210938 16.183594 4.484375 22.6875zm0 0" fill="#3a312a"/><path d="m282.492188 4.515625c-6.734376-3.703125-57.148438 5.347656-76.292969 40.171875s-8.285157 59.222656 14.707031 71.859375c22.992188 12.640625 49.410156 8.734375 68.554688-26.089844 19.140624-34.824219-1.457032-82.910156-6.96875-85.941406zm0 0" fill="#87796f"/><path d="m283.9375 1.886719c-8.675781-4.769531-60.480469 5.183593-80.367188 41.355469-9.421874 17.140624-12.355468 32.773437-8.71875 46.464843 3.246094 12.210938 11.753907 22.402344 24.609376 29.46875 8.40625 4.621094 16.941406 6.957031 25.214843 6.957031 4.375 0 8.683594-.65625 12.851563-1.972656 13.511718-4.265625 25.136718-15.117187 34.5625-32.257812 20.238281-36.824219-1.28125-86.238282-8.152344-90.015625zm2.890625 87.125c-8.652344 15.742187-19.117187 25.640625-31.109375 29.429687-10.445312 3.300782-21.984375 1.734375-33.367188-4.523437-11.386718-6.257813-18.890624-15.160157-21.703124-25.75-3.226563-12.152344-.476563-26.292969 8.175781-42.035157 16.554687-30.113281 57.457031-39.414062 69.25-39.414062 1.417969 0 2.414062.132812 2.898437.378906 4.515625 3.3125 23.957032 48.988282 5.855469 81.914063zm0 0" fill="#3a312a"/><path d="m269.03125 29.003906c-3.792969-2.085937-32.167969 3.007813-42.941406 22.609375-10.773438 19.601563-4.660156 33.332031 8.277344 40.445313 12.941406 7.113281 27.808593 4.917968 38.585937-14.683594 10.773437-19.601562-.820313-46.664062-3.921875-48.371094zm0 0" fill="#f16c7a"/><path d="m279.132812 45.875c-1.683593-8.167969-5.378906-17.699219-8.660156-19.5-3.664062-2.015625-13.75.042969-21.378906 3.007812-8.238281 3.199219-19.375 9.40625-25.632812 20.785157-5.46875 9.953125-7.160157 19.078125-5.023438 27.125 1.917969 7.226562 6.929688 13.242187 14.484375 17.398437 4.929687 2.707032 9.945313 4.078125 14.816406 4.078125 2.601563 0 5.15625-.390625 7.636719-1.171875 7.933594-2.507812 14.734375-8.824218 20.203125-18.777344 6.214844-11.300781 5.363281-24.15625 3.554687-32.945312zm-8.8125 30.054688c-4.703124 8.554687-10.339843 13.917968-16.753906 15.945312-5.53125 1.746094-11.671875.902344-17.753906-2.445312-6.085938-3.34375-10.089844-8.074219-11.578125-13.679688-1.726563-6.503906-.21875-14.136719 4.484375-22.691406 9.070312-16.5 31.625-21.550782 37.640625-21.550782.480469 0 .851563.035157 1.109375.09375 3 3.28125 12.363281 27.027344 2.851562 44.328126zm0 0" fill="#3a312a"/><path d="m274.679688 180.027344c-.21875-.242188-.441407-.480469-.660157-.742188.242188-3.417968.359375-6.839844.359375-10.339844 0-14.121093-2.058594-27.71875-5.917968-40.460937-11.882813-39.539063-40.742188-70.71875-77.199219-83.277344-11.363281-3.921875-23.441407-6.042969-35.980469-6.042969-12.101562 0-23.78125 1.960938-34.78125 5.640626-37 12.28125-66.378906 43.699218-78.398438 83.699218-3.839843 12.742188-5.921874 26.320313-5.921874 40.441406 0 3.800782.160156 7.539063.460937 11.242188.019531.179688.019531.359375.039063.539062-10 11.339844-15.679688 24.257813-15.679688 38 0 4.320313.558594 8.417969 1.640625 12.300782 10.121094 36.519531 65.980469 54.417968 133.359375 54.417968s123.238281-17.898437 133.359375-54.417968c1.082031-3.882813 1.640625-7.980469 1.640625-12.300782 0-14.039062-5.921875-27.199218-16.320312-38.699218zm0 0" fill="#fce8cb"/><path d="m277.097656 178.226562c.191406-3.09375.285156-6.140624.285156-9.28125 0-14.171874-2.035156-28.078124-6.046874-41.324218-12.175782-40.511719-41.742188-72.382813-79.097657-85.25-11.929687-4.121094-24.363281-6.207032-36.957031-6.207032-12.214844 0-24.234375 1.953126-35.722656 5.792969-37.960938 12.601563-67.992188 44.632813-80.328125 85.683594-4.011719 13.3125-6.046875 27.207031-6.046875 41.304687 0 3.492188.132812 7.054688.414062 10.757813-10.210937 11.953125-15.597656 25.421875-15.597656 39.023437 0 4.519532.589844 8.929688 1.75 13.097657 9.820312 35.457031 60.757812 56.621093 136.25 56.621093s126.429688-21.164062 136.25-56.617187c1.160156-4.171875 1.75-8.582031 1.75-13.101563 0-14.167968-5.828125-28.148437-16.902344-40.5zm9.371094 52c-8.925781 32.210938-58.917969 52.21875-130.46875 52.21875s-121.542969-20.007812-130.46875-52.222656c-1.015625-3.648437-1.53125-7.515625-1.53125-11.496094 0-12.664062 5.023438-24.78125 14.929688-36.015624.558593-.632813.816406-1.578126.726562-2.417969-.007812-.144531-.019531-.289063-.027344-.351563-.296875-3.683594-.449218-7.382812-.449218-10.996094 0-13.503906 1.949218-26.820312 5.789062-39.574218 11.773438-39.183594 40.363281-69.734375 76.480469-81.71875 10.878906-3.640625 22.261719-5.484375 33.828125-5.484375 11.925781 0 23.703125 1.976562 35.003906 5.875 35.53125 12.242187 63.683594 42.632812 75.304688 81.3125 3.84375 12.683593 5.789062 26.003906 5.789062 39.589843 0 3.425782-.113281 6.742188-.351562 10.128907-.054688.785156.195312 1.554687.703124 2.152343.234376.273438.464844.53125.722657.8125 10.3125 11.40625 15.542969 23.746094 15.542969 36.6875.007812 3.976563-.507813 7.847657-1.523438 11.5zm0 0" fill="#3a312a"/><path d="m120.5 44.804688c-37 12.28125-66.378906 43.699218-78.398438 83.699218-3.839843 12.742188-5.921874 26.320313-5.921874 40.441406 0 3.800782.160156 7.539063.460937 11.242188.019531.179688.019531.359375.039063.539062-10 11.339844-15.679688 24.257813-15.679688 38 0 4.320313.558594 8.417969 1.640625 12.300782 8.621094 3.71875 17.820313 5.71875 27.359375 5.71875 49.300781 0 89.238281-53.28125 89.238281-119 0-27.480469-6.976562-52.800782-18.738281-72.941406zm0 0" fill="#87796f"/><path d="m123.089844 43.292969c-.714844-1.222657-2.183594-1.773438-3.535156-1.332031-37.960938 12.597656-67.992188 44.628906-80.328126 85.679687-4.011718 13.316406-6.046874 27.214844-6.046874 41.308594 0 3.492187.132812 7.054687.414062 10.757812-10.207031 11.949219-15.59375 25.417969-15.59375 39.019531 0 4.519532.589844 8.929688 1.75 13.101563.242188.875.871094 1.589844 1.703125 1.953125 9.171875 3.957031 18.777344 5.964844 28.546875 5.964844 50.863281 0 92.238281-54.726563 92.238281-122 0-27.253906-6.617187-53-19.148437-74.453125zm-73.089844 190.453125c-8.472656 0-16.820312-1.652344-24.828125-4.910156-.777344-3.238282-1.171875-6.628907-1.171875-10.109376 0-12.664062 5.023438-24.78125 14.929688-36.015624.558593-.632813.816406-1.578126.726562-2.417969-.007812-.144531-.019531-.289063-.027344-.347657-.296875-3.683593-.449218-7.382812-.449218-10.996093 0-13.507813 1.949218-26.824219 5.789062-39.578125 11.523438-38.339844 39.140625-68.414063 74.15625-80.917969 11.203125 20.105469 17.113281 44.003906 17.113281 69.292969 0 63.964844-38.6875 116-86.238281 116zm0 0" fill="#3a312a"/><path d="m274.679688 180.027344c-.21875-.242188-.441407-.480469-.660157-.742188.242188-3.417968.359375-6.839844.359375-10.339844 0-14.121093-2.058594-27.71875-5.917968-40.460937-11.882813-39.539063-40.742188-70.71875-77.199219-83.277344-11.601563 20.078125-18.5 45.238281-18.5 72.539063 0 65.71875 39.9375 119 89.238281 119 9.539062 0 18.738281-2 27.359375-5.71875 1.082031-3.882813 1.640625-7.980469 1.640625-12.300782 0-14.039062-5.921875-27.199218-16.320312-38.699218zm0 0" fill="#87796f"/><path d="m277.097656 178.226562c.191406-3.09375.285156-6.140624.285156-9.28125 0-14.171874-2.035156-28.078124-6.046874-41.324218-12.175782-40.511719-41.742188-72.382813-79.097657-85.253906-1.351562-.460938-2.855469.09375-3.574219 1.335937-12.367187 21.410156-18.902343 47.011719-18.902343 74.042969 0 67.273437 41.378906 122 92.242187 122 9.769532 0 19.375-2.007813 28.546875-5.964844.832031-.363281 1.457031-1.078125 1.703125-1.953125 1.15625-4.171875 1.75-8.582031 1.75-13.101563-.003906-14.167968-5.832031-28.148437-16.90625-40.5zm9.730469 50.605469c-8.007813 3.261719-16.355469 4.914063-24.828125 4.914063-47.550781 0-86.238281-52.039063-86.238281-116 0-25.066406 5.824219-48.816406 16.871093-68.863282 34.421876 12.75 61.59375 42.652344 72.960938 80.472657 3.839844 12.683593 5.789062 26.003906 5.789062 39.589843 0 3.425782-.117187 6.742188-.355468 10.128907-.054688.785156.199218 1.554687.703125 2.152343.234375.273438.464843.53125.722656.8125 10.316406 11.40625 15.546875 23.746094 15.546875 36.6875 0 3.476563-.394531 6.871094-1.171875 10.105469zm0 0" fill="#3a312a"/><path d="m156.050781 171.394531c-10.574219-.046875-19.167969 5.058594-19.195312 11.402344-.027344 6.34375 8.5 16.625 19.070312 16.675781 10.570313.046875 19.1875-10.164062 19.214844-16.507812.03125-6.34375-8.519531-11.523438-19.089844-11.570313zm0 0" fill="#3a312a"/><path d="m156 193.769531c0 13.65625-10.347656 24.875-23.632812 26.257813.246093 16.453125 10.734374 29.679687 23.632812 29.679687 12.894531 0 23.382812-13.222656 23.632812-29.679687-13.285156-1.382813-23.632812-12.601563-23.632812-26.257813zm0 0" fill="#f16c7a"/><path d="m179.945312 217.046875c-11.941406-1.246094-20.945312-11.25-20.945312-23.277344 0-1.65625-1.34375-3-3-3s-3 1.34375-3 3c0 12.027344-9.003906 22.03125-20.945312 23.277344-1.542969.160156-2.710938 1.472656-2.6875 3.027344.273437 18.296875 11.972656 32.632812 26.628906 32.632812 14.660156 0 26.359375-14.335937 26.632812-32.632812.027344-1.554688-1.140625-2.867188-2.683594-3.027344zm-23.945312 29.660156c-10.492188 0-19.300781-10.605469-20.5-24.125 9.113281-1.839843 16.574219-7.8125 20.5-15.816406 3.925781 8.003906 11.386719 13.972656 20.5 15.816406-1.199219 13.519531-10.007812 24.125-20.5 24.125zm0 0" fill="#3a312a"/><path d="m156 190.769531c-1.65625 0-3 1.34375-3 3 0 12.027344-9.003906 22.03125-20.988281 23.28125-.75.085938-1.566407.132813-2.425781.132813-12.910157 0-23.414063-10.503906-23.414063-23.414063 0-1.65625-1.34375-3-3-3s-3 1.34375-3 3c0 16.21875 13.195313 29.414063 29.414063 29.414063 1.09375 0 2.148437-.058594 3.09375-.171875 15.003906-1.5625 26.320312-14.132813 26.320312-29.242188 0-1.65625-1.34375-3-3-3zm0 0" fill="#3a312a"/><path d="m208.828125 190.769531c-1.652344 0-3 1.34375-3 3 0 12.910157-10.503906 23.414063-23.414063 23.414063-.859374 0-1.675781-.046875-2.46875-.140625-11.941406-1.242188-20.945312-11.246094-20.945312-23.273438 0-1.660156-1.34375-3-3-3s-3 1.339844-3 3c0 15.109375 11.316406 27.679688 26.277344 29.234375.988281.121094 2.042968.179688 3.136718.179688 16.21875 0 29.414063-13.195313 29.414063-29.414063 0-1.65625-1.34375-3-3-3zm0 0" fill="#3a312a"/><path d="m103.171875 180.332031c0-8.582031-11.132813-15.539062-24.863281-15.539062-13.726563 0-24.859375 6.957031-24.859375 15.539062s11.132812 15.539063 24.859375 15.539063c13.730468 0 24.863281-6.957032 24.863281-15.539063zm0 0" fill="#f5978a"/><path d="m258.550781 180.332031c0-8.582031-11.132812-15.539062-24.859375-15.539062-13.730468 0-24.863281 6.957031-24.863281 15.539062s11.132813 15.539063 24.863281 15.539063c13.726563 0 24.859375-6.957032 24.859375-15.539063zm0 0" fill="#f5978a"/><path d="m115.601562 138.609375c-6.003906 0-10.875 4.871094-10.875 10.875 0 6.007813 4.871094 10.878906 10.875 10.878906 6.007813 0 10.875-4.871093 10.875-10.878906 0-6.003906-4.867187-10.875-10.875-10.875zm0 0" fill="#3a312a"/><path d="m198.140625 138.746094c-5.929687-.953125-11.511719 3.078125-12.46875 9.007812-.953125 5.933594 3.078125 11.515625 9.007813 12.46875 5.929687.957032 11.511718-3.078125 12.46875-9.007812.957031-5.929688-3.078126-11.511719-9.007813-12.46875zm0 0" fill="#3a312a"/><path d="m461 161.746094c0 17.121094-13.878906 31-31 31s-31-13.878906-31-31 13.878906-31 31-31 31 13.878906 31 31zm0 0" fill="#8ac6dd"/><path d="m430 127.746094c-18.746094 0-34 15.253906-34 34 0 18.75 15.253906 34 34 34s34-15.25 34-34c0-18.746094-15.253906-34-34-34zm0 62c-15.441406 0-28-12.558594-28-28 0-15.4375 12.558594-28 28-28s28 12.5625 28 28c0 15.441406-12.558594 28-28 28zm0 0" fill="#3a312a"/><path d="m231 39.746094c0 17.121094-13.878906 31-31 31s-31-13.878906-31-31 13.878906-31 31-31 31 13.878906 31 31zm0 0" fill="#8ac6dd"/><path d="m200 5.746094c-18.746094 0-34 15.253906-34 34 0 18.75 15.253906 34 34 34s34-15.25 34-34c0-18.746094-15.253906-34-34-34zm0 62c-15.441406 0-28-12.558594-28-28 0-15.4375 12.558594-28 28-28s28 12.5625 28 28c0 15.441406-12.558594 28-28 28zm0 0" fill="#3a312a"/><path d="m370 112.746094c0 17.121094-13.878906 31-31 31s-31-13.878906-31-31 13.878906-31 31-31 31 13.878906 31 31zm0 0" fill="#8ac6dd"/><path d="m339 78.746094c-18.746094 0-34 15.253906-34 34 0 18.75 15.253906 34 34 34s34-15.25 34-34c0-18.746094-15.253906-34-34-34zm0 62c-15.441406 0-28-12.558594-28-28 0-15.4375 12.558594-28 28-28s28 12.5625 28 28c0 15.441406-12.558594 28-28 28zm0 0" fill="#3a312a"/><path d="m379 181.746094c0 10.492187-8.507812 19-19 19s-19-8.507813-19-19c0-10.492188 8.507812-19 19-19s19 8.507812 19 19zm0 0" fill="#8ac6dd"/><path d="m360 159.746094c-12.128906 0-22 9.871094-22 22 0 12.132812 9.871094 22 22 22s22-9.867188 22-22c0-12.128906-9.871094-22-22-22zm0 38c-8.820312 0-16-7.175782-16-16 0-8.820313 7.179688-16 16-16s16 7.179687 16 16c0 8.824218-7.179688 16-16 16zm0 0" fill="#3a312a"/><path d="m131 75.746094c0 17.121094-13.878906 31-31 31s-31-13.878906-31-31 13.878906-31 31-31 31 13.878906 31 31zm0 0" fill="#8ac6dd"/><path d="m100 41.746094c-18.746094 0-34 15.253906-34 34 0 18.75 15.253906 34 34 34s34-15.25 34-34c0-18.746094-15.253906-34-34-34zm0 62c-15.441406 0-28-12.558594-28-28 0-15.4375 12.558594-28 28-28s28 12.5625 28 28c0 15.441406-12.558594 28-28 28zm0 0" fill="#3a312a"/><path d="m434.089844 22.351562c-1.949219 23.128907-26.050782 26.78125-26.050782 26.78125 20.695313.972657 25.851563 28.117188 25.851563 28.117188.441406-19.355469 26.640625-28.40625 26.640625-28.40625-19.625-1.175781-26.441406-26.492188-26.441406-26.492188zm0 0" fill="#d7e057"/><path d="m460.710938 45.847656c-17.207032-1.027344-23.664063-24.046875-23.726563-24.28125-.378906-1.402344-1.699219-2.328125-3.167969-2.203125-1.449218.132813-2.59375 1.285157-2.714844 2.734375-1.71875 20.429688-22.628906 23.925782-23.507812 24.0625-1.527344.230469-2.628906 1.582032-2.546875 3.125.078125 1.539063 1.3125 2.765625 2.855469 2.839844 18.054687.851562 22.996094 25.4375 23.042968 25.683594.273438 1.421875 1.519532 2.433594 2.945313 2.433594.082031 0 .167969 0 .25-.007813 1.53125-.128906 2.714844-1.386719 2.75-2.917969.390625-17.015625 24.382813-25.554687 24.628906-25.640625 1.351563-.46875 2.183594-1.828125 1.988281-3.246093-.203124-1.414063-1.367187-2.496094-2.796874-2.582032zm-27.132813 20.691406c-2.710937-6.257812-7.417969-13.8125-15.171875-17.75 5.863281-2.8125 12.816406-7.828124 16.402344-16.546874 3.101562 6.140624 8.402344 13.757812 16.667968 17.445312-6.011718 3.277344-13.84375 8.808594-17.898437 16.851562zm0 0" fill="#3a312a"/><path d="m390.691406 56.3125c-1.378906 16.355469-18.421875 18.941406-18.421875 18.941406 14.632813.6875 18.28125 19.886719 18.28125 19.886719.316407-13.6875 18.84375-20.089844 18.84375-20.089844-13.878906-.832031-18.703125-18.738281-18.703125-18.738281zm0 0" fill="#d7e057"/><path d="m409.574219 72.054688c-11.53125-.6875-15.945313-16.367188-15.988281-16.527344-.378907-1.402344-1.714844-2.316406-3.160157-2.203125-1.453125.132812-2.601562 1.289062-2.722656 2.738281-1.15625 13.742188-15.292969 16.132812-15.882813 16.226562-1.527343.230469-2.625 1.582032-2.546874 3.121094.082031 1.542969 1.316406 2.769532 2.855468 2.84375 12.070313.566406 15.449219 17.289063 15.480469 17.453125.269531 1.421875 1.515625 2.4375 2.945313 2.4375.082031 0 .164062 0 .25-.007812 1.53125-.128907 2.714843-1.390625 2.75-2.921875.261718-11.417969 16.664062-17.269532 16.824218-17.324219 1.351563-.46875 2.1875-1.828125 1.992188-3.246094-.195313-1.421875-1.367188-2.503906-2.796875-2.589843zm-19.167969 13.589843c-1.847656-3.769531-4.679688-7.894531-8.894531-10.558593 3.710937-2.082032 7.394531-5.261719 9.742187-9.835938 2.113282 3.75 5.308594 7.910156 9.882813 10.449219-3.699219 2.203125-7.980469 5.480469-10.730469 9.945312zm0 0" fill="#3a312a"/><path d="m390.691406 2.996094c-1.378906 16.359375-18.421875 18.941406-18.421875 18.941406 14.632813.6875 18.28125 19.886719 18.28125 19.886719.316407-13.6875 18.84375-20.089844 18.84375-20.089844-13.878906-.828125-18.703125-18.738281-18.703125-18.738281zm0 0" fill="#d7e057"/><path d="m409.574219 18.742188c-11.53125-.691407-15.945313-16.371094-15.988281-16.53125-.378907-1.402344-1.714844-2.316407-3.160157-2.2031255-1.453125.1328125-2.601562 1.2851565-2.722656 2.7382815-1.15625 13.742187-15.292969 16.132812-15.882813 16.226562-1.527343.230469-2.625 1.582032-2.546874 3.121094.082031 1.539062 1.316406 2.769531 2.855468 2.84375 12.070313.566406 15.449219 17.285156 15.480469 17.449219.269531 1.425781 1.515625 2.441406 2.945313 2.441406.082031 0 .164062-.003906.25-.011719 1.53125-.125 2.714843-1.386718 2.75-2.921875.261718-11.417969 16.664062-17.265625 16.824218-17.324219 1.351563-.464843 2.1875-1.824218 1.992188-3.242187-.195313-1.417969-1.367188-2.5-2.796875-2.585937zm-19.167969 13.585937c-1.847656-3.769531-4.679688-7.890625-8.894531-10.558594 3.710937-2.082031 7.394531-5.261719 9.742187-9.832031 2.113282 3.746094 5.308594 7.90625 9.882813 10.449219-3.699219 2.199219-7.980469 5.480469-10.730469 9.941406zm0 0" fill="#3a312a"/><path d="m131 292.746094c0 17.671875-14.328125 32-32 32s-32-14.328125-32-32 14.328125-32 32-32 32 14.328125 32 32zm0 0" fill="#87796f"/><path d="m99 257.746094c-19.296875 0-35 15.703125-35 35 0 19.300781 15.703125 35 35 35s35-15.699219 35-35c0-19.296875-15.703125-35-35-35zm0 64c-15.988281 0-29-13.007813-29-29 0-15.988282 13.011719-29 29-29s29 13.011718 29 29c0 15.992187-13.011719 29-29 29zm0 0" fill="#3a312a"/><path d="m245 292.746094c0 17.671875-14.328125 32-32 32s-32-14.328125-32-32 14.328125-32 32-32 32 14.328125 32 32zm0 0" fill="#87796f"/><path d="m213 257.746094c-19.296875 0-35 15.703125-35 35 0 19.300781 15.703125 35 35 35s35-15.699219 35-35c0-19.296875-15.703125-35-35-35zm0 64c-15.988281 0-29-13.007813-29-29 0-15.988282 13.011719-29 29-29s29 13.011718 29 29c0 15.992187-13.011719 29-29 29zm0 0" fill="#3a312a"/><path d="m465.890625 287.046875c-6.835937-42.128906-46.53125-70.738281-88.660156-63.898437-42.128907 6.835937-70.734375 46.53125-63.898438 88.65625 6.835938 42.128906 46.53125 70.738281 88.660157 63.902343 42.125-6.839843 70.734374-46.53125 63.898437-88.660156zm0 0" fill="#8ac6dd"/><g fill="#3a312a"><path d="m387.300781 262.113281-8.558593-16.652343c-.757813-1.476563-2.570313-2.050782-4.039063-1.296876-1.476563.753907-2.054687 2.566407-1.296875 4.039063l8.558594 16.65625c.53125 1.035156 1.582031 1.628906 2.671875 1.628906.460937 0 .929687-.109375 1.367187-.335937 1.476563-.757813 2.054688-2.566406 1.296875-4.039063zm0 0"/><path d="m404.371094 244.160156c-1.472656-.753906-3.28125-.175781-4.035156 1.296875l-8.5625 16.65625c-.757813 1.472657-.175782 3.28125 1.296874 4.039063.441407.226562.90625.332031 1.367188.332031 1.089844 0 2.136719-.59375 2.671875-1.628906l8.558594-16.652344c.761719-1.476563.179687-3.285156-1.296875-4.042969zm0 0"/><path d="m366.890625 297.582031-16.382813-7.875v-13.40625c0-1.65625-1.347656-3-3-3-1.65625 0-3 1.34375-3 3v15.289063c0 1.15625.65625 2.207031 1.699219 2.707031l18.082031 8.695313c.421876.199218.863282.296874 1.300782.296874 1.117187 0 2.1875-.628906 2.703125-1.703124.71875-1.492188.089843-3.285157-1.402344-4.003907zm0 0"/><path d="m368.355469 303.054688c-.644531-1.523438-2.402344-2.242188-3.929688-1.597657l-20.628906 8.695313c-1.109375.46875-1.832031 1.558594-1.832031 2.761718v15.292969c0 1.65625 1.34375 3 3 3s3-1.34375 3-3v-13.300781l18.789062-7.921875c1.527344-.644531 2.242188-2.402344 1.601563-3.929687zm0 0"/><path d="m374.828125 321.328125c-.632813-1.527344-2.386719-2.253906-3.921875-1.617187l-18.085938 7.515624c-1.121093.46875-1.847656 1.558594-1.847656 2.769532v13.222656c0 1.65625 1.34375 3 3 3s3-1.34375 3-3v-11.21875l16.238282-6.75c1.527343-.632812 2.253906-2.390625 1.617187-3.921875zm0 0"/><path d="m431.570312 273.300781c-1.65625 0-3 1.34375-3 3v13.40625l-16.382812 7.875c-1.492188.71875-2.125 2.511719-1.402344 4.003907.515625 1.074218 1.585938 1.703124 2.703125 1.703124.4375 0 .878907-.09375 1.300781-.296874l18.082032-8.695313c1.039062-.5 1.699218-1.550781 1.699218-2.703125v-15.289062c0-1.660157-1.34375-3.003907-3-3.003907zm0 0"/><path d="m436.15625 310.132812-21.546875-8.695312c-1.546875-.625-3.289063.125-3.902344 1.660156-.621093 1.539063.121094 3.285156 1.65625 3.90625l19.671875 7.9375v13.265625c0 1.660157 1.34375 3 3 3s3-1.339843 3-3v-15.289062c0-1.222657-.742187-2.328125-1.878906-2.785157zm0 0"/><path d="m426.257812 327.226562-18.085937-7.515624c-1.535156-.636719-3.289063.089843-3.925781 1.617187-.632813 1.53125.089844 3.289063 1.621094 3.921875l16.238281 6.75v11.21875c0 1.65625 1.34375 3 3 3s3-1.34375 3-3v-13.222656c0-1.210938-.730469-2.300782-1.847657-2.769532zm0 0"/></g><path d="m395.480469 259.351562c-8.136719-3.367187-17.464844.496094-20.832031 8.628907-3.371094 8.136719.492187 17.464843 8.628906 20.832031 8.132812 3.371094 17.460937-.492188 20.832031-8.628906 3.367187-8.132813-.496094-17.460938-8.628906-20.832032zm0 0" fill="#f16c7a"/><path d="m389.367188 255.144531c-10.449219 0-18.945313 8.496094-18.945313 18.941407 0 10.449218 8.496094 18.945312 18.945313 18.945312 10.445312 0 18.945312-8.496094 18.945312-18.945312 0-10.445313-8.5-18.941407-18.945312-18.941407zm0 31.890625c-7.140626 0-12.945313-5.808594-12.945313-12.945312 0-7.136719 5.804687-12.945313 12.945313-12.945313 7.136718 0 12.945312 5.808594 12.945312 12.945313 0 7.136718-5.808594 12.945312-12.945312 12.945312zm0 0" fill="#3a312a"/><path d="m415.515625 312.910156c0-17.066406-11.707031-30.902344-26.148437-30.902344-14.441407 0-26.148438 13.835938-26.148438 30.902344s11.707031 30.902344 26.148438 30.902344c14.441406 0 26.148437-13.835938 26.148437-30.902344zm0 0" fill="#87796f"/><path d="m389.367188 279.007812c-16.074219 0-29.148438 15.207032-29.148438 33.902344 0 18.695313 13.074219 33.902344 29.148438 33.902344 16.070312 0 29.148437-15.207031 29.148437-33.902344 0-18.691406-13.078125-33.902344-29.148437-33.902344zm0 61.804688c-12.765626 0-23.148438-12.515625-23.148438-27.902344 0-15.386718 10.382812-27.902344 23.148438-27.902344 12.761718 0 23.148437 12.515626 23.148437 27.902344 0 15.386719-10.386719 27.902344-23.148437 27.902344zm0 0" fill="#3a312a"/><path d="m389.367188 277.949219c-16.335938 0-29.585938 15.65625-29.585938 34.960937 0 13.75 6.71875 25.652344 16.488281 31.355469l13.097657-46.570313 13.09375 46.570313c9.773437-5.703125 16.488281-17.601563 16.488281-31.355469 0-19.304687-13.246094-34.960937-29.582031-34.960937zm0 0" fill="#d7e057"/><path d="m389.367188 274.949219c-17.96875 0-32.585938 17.03125-32.585938 37.960937 0 14.464844 6.890625 27.472656 17.976562 33.945313.800782.46875 1.773438.539062 2.636719.191406.859375-.347656 1.511719-1.078125 1.761719-1.96875l10.210938-36.300781 10.207031 36.300781c.25.894531.902343 1.621094 1.765625 1.96875.363281.144531.742187.214844 1.125.214844.523437 0 1.046875-.136719 1.511718-.40625 11.085938-6.476563 17.976563-19.480469 17.976563-33.945313-.003906-20.933594-14.621094-37.960937-32.585937-37.960937zm14.84375 64.457031-11.957032-42.523438c-.367187-1.296874-1.546875-2.1875-2.890625-2.1875s-2.523437.890626-2.886719 2.1875l-11.957031 42.523438c-7.230469-5.886719-11.738281-15.863281-11.738281-26.496094 0-17.621094 11.925781-31.960937 26.582031-31.960937 14.660157 0 26.585938 14.339843 26.585938 31.960937 0 10.632813-4.507813 20.605469-11.738281 26.496094zm0 0" fill="#3a312a"/><path d="m452.957031 244.445312c-3.144531-3.710937-6.617187-7.128906-10.355469-10.238281-14.546874-12.085937-33.238281-19.375-53.601562-19.375-46.3125 0-84 37.6875-84 84 0 20.363281 7.289062 39.054688 19.375 53.597657 3.109375 3.738281 6.527344 7.214843 10.238281 10.359374 14.664063 12.492188 33.660157 20.042969 54.386719 20.042969 46.3125 0 84-37.6875 84-84 0-20.726562-7.550781-39.722656-20.042969-54.386719zm-133.410156 54.382813c0-38.296875 31.15625-69.453125 69.453125-69.453125 16.351562 0 31.390625 5.671875 43.257812 15.171875l-97.542968 97.539063c-9.496094-11.867188-15.167969-26.90625-15.167969-43.257813zm69.453125 69.457031c-16.726562 0-32.070312-5.933594-44.070312-15.8125l97.714843-97.714844c9.875 12 15.8125 27.347657 15.8125 44.070313-.003906 38.300781-31.160156 69.457031-69.457031 69.457031zm0 0" fill="#f16c7a"/><path d="m435.253906 244.378906c-.046875-.851562-.457031-1.644531-1.121094-2.175781-12.941406-10.355469-28.546874-15.828125-45.132812-15.828125-39.953125 0-72.453125 32.503906-72.453125 72.457031 0 16.582031 5.472656 32.191407 15.828125 45.132813.535156.667968 1.324219 1.074218 2.175781 1.121094.058594 0 .113281.003906.167969.003906.792969 0 1.554688-.3125 2.121094-.878906l97.542968-97.542969c.597657-.605469.917969-1.433594.871094-2.289063zm-100.230468 93.160156c-8.175782-11.316406-12.476563-24.628906-12.476563-38.710937 0-36.640625 29.8125-66.453125 66.453125-66.453125 14.082031 0 27.394531 4.300781 38.710938 12.476562zm120.222656-95.035156c-3.195313-3.769531-6.804688-7.339844-10.726563-10.605468-15.574219-12.941407-35.292969-20.066407-55.519531-20.066407-47.972656 0-87 39.027344-87 87 0 20.230469 7.128906 39.945313 20.066406 55.515625 3.261719 3.921875 6.832032 7.53125 10.605469 10.722656 15.707031 13.386719 35.710937 20.757813 56.328125 20.757813 47.972656 0 87-39.027344 87-87 0-20.609375-7.371094-40.613281-20.753906-56.324219zm-66.246094 137.328125c-19.191406 0-37.8125-6.863281-52.445312-19.335937-3.515626-2.972656-6.835938-6.335938-9.871094-9.984375-12.046875-14.496094-18.683594-32.851563-18.683594-51.679688 0-44.664062 36.335938-81 81-81 18.832031 0 37.1875 6.632813 51.679688 18.679688 3.65625 3.042969 7.019531 6.367187 9.988281 9.875.003906 0 .003906.003906.007812.003906 12.460938 14.628906 19.324219 33.25 19.324219 52.441406 0 44.660157-36.335938 81-81 81zm55.960938-126.980469c-.539063-.652343-1.328126-1.046874-2.171876-1.089843-.839843-.058594-1.667968.277343-2.265624.875l-97.71875 97.71875c-.597657.597656-.914063 1.417969-.875 2.265625.039062.84375.4375 1.628906 1.089843 2.171875 12.925781 10.632812 29.253907 16.492187 45.976563 16.492187 39.953125 0 72.457031-32.5 72.457031-72.453125 0-16.726562-5.855469-33.054687-16.492187-45.980469zm-55.960938 112.433594c-14.230469 0-28.152344-4.628906-39.554688-13.085937l92.925782-92.925781c8.457031 11.402343 13.085937 25.324218 13.085937 39.554687-.003906 36.644531-29.816406 66.457031-66.457031 66.457031zm0 0" fill="#3a312a"/><path d="m442.359375 259.265625-17.800781 17.800781c1.402344 4.199219 2.421875 8.597656 2.980468 13.140625l1.039063-.5v-13.402343c0-1.660157 1.34375-3 3-3 1.640625 0 3 1.339843 3 3v15.28125c0 1.160156-.65625 2.199218-1.699219 2.699218l-4.859375 2.339844c.039063.71875.058594 1.460938.058594 2.199219 0 2.660156-.15625 5.28125-.457031 7.863281l8.539062 3.4375c1.140625.460938 1.878906 1.5625 1.878906 2.78125v15.300781c0 1.660157-1.339843 3-3 3-1.660156 0-3-1.339843-3-3v-13.261719l-5.378906-2.179687c-.921875 4.5-2.28125 8.839844-4.039062 12.960937l3.640625 1.5c1.117187.460938 1.839843 1.558594 1.839843 2.777344v13.222656c0 1.640626-1.339843 3-3 3-1.660156 0-3-1.359374-3-3v-11.222656l-2.082031-.859375c-8.378906 15.800781-22.738281 27.980469-40.039062 33.5 2.980469.421875 5.980469.640625 9.019531.640625 36.640625 0 66.460938-29.820312 66.460938-66.460937 0-14.21875-4.621094-28.136719-13.101563-39.558594zm0 0" fill="#6ca8bf"/><path d="m389 232.367188c-3.078125 0-6.121094.21875-9.101562.617187 7.863281 2.5 15.121093 6.382813 21.480468 11.339844.859375-.578125 2-.660157 3-.160157 1.402344.722657 2 2.421876 1.359375 3.863282 2.082031 1.898437 4.042969 3.917968 5.863281 6.078125 1.058594 1.238281 2.078126 2.519531 3.019532 3.839843l13.078125-13.101562c-11.300781-8.15625-24.621094-12.476562-38.699219-12.476562zm0 0" fill="#6ca8bf"/></svg>