<svg height="446pt" viewBox="-5 0 446 446.93315" width="446pt" xmlns="http://www.w3.org/2000/svg"><path d="m13.117188 119.964844v118.425781c12.320312-6.160156 27.699218-4.339844 38.28125 5.738281l1.460937 1.378906c13.058594 12.460938 33.597656 12.339844 46.539063-.136718.160156-.140625.320312-.300782.460937-.441406l.578125-.558594c6.582031-6.582032 15.179688-9.882813 23.800781-9.882813 8.601563 0 17.21875 3.300781 23.800781 9.882813.277344.277344.578126.558594.878907.839844 6.460937 6 14.679687 9.019531 22.898437 9.019531 8.300782 0 16.601563-3.0625 23.0625-9.140625.257813-.242188.5-.480469.738282-.71875 6.582031-6.582032 15.199218-9.882813 23.800781-9.882813 8.621093 0 17.238281 3.300781 23.800781 9.882813.199219.199218.398438.378906.597656.558594 6.480469 6.199218 14.839844 9.300781 23.203125 9.300781 8.4375 0 16.859375-3.160157 23.359375-9.441407.160156-.140624.300782-.28125.4375-.417968 6.5625-6.582032 15.183594-9.882813 23.800782-9.882813 8.621093 0 17.242187 3.300781 23.800781 9.882813.101562.097656.199219.199218.300781.277344 6.519531 6.378906 15 9.582031 23.5 9.582031 8.539062 0 17.097656-3.261719 23.660156-9.722657l.140625-.136718c10.257813-10.28125 25.5-12.523438 37.9375-6.761719v-117.644531zm0 0" fill="#d7e057"/><path d="m423.957031 116.964844h-410.839843c-1.65625 0-3 1.34375-3 3v54.816406c0 1.65625 1.34375 3 3 3s3-1.34375 3-3v-51.816406h404.839843v110.265625c-12.914062-4.105469-27.339843-.71875-37.183593 9.140625-5.800782 5.710937-13.457032 8.859375-21.554688 8.859375-8.050781 0-15.652344-3.097657-21.402344-8.726563-.066406-.066406-.199218-.191406-.273437-.253906-6.917969-6.9375-16.125-10.761719-25.925781-10.761719-9.796876 0-19.003907 3.824219-25.929688 10.765625-.089844.089844-.179688.183594-.394531.378906-5.738281 5.542969-13.292969 8.597657-21.273438 8.597657-7.917969 0-15.421875-3.007813-21.238281-8.566407-.144531-.132812-.292969-.261718-.4375-.410156-6.917969-6.941406-16.128906-10.761718-25.925781-10.761718-9.78125 0-18.984375 3.820312-25.921875 10.757812-.210938.210938-.425782.425781-.675782.65625-5.707031 5.367188-13.164062 8.324219-21.003906 8.324219-7.746094 0-15.152344-2.917969-20.957031-8.308594-.238281-.222656-.476563-.445313-.703125-.671875-6.9375-6.9375-16.140625-10.757812-25.921875-10.757812-9.777344 0-18.980469 3.820312-25.878906 10.722656l-.621094.597656c-.097656.09375-.203125.203125-.421875.402344-11.863281 11.433594-30.476562 11.492187-42.394531.117187l-1.453125-1.371093c-10.007813-9.535157-24.523438-12.539063-37.351563-8.082032v-33.359375c0-1.660156-1.34375-3-3-3s-3 1.339844-3 3v37.871094c0 1.039063.539063 2.003906 1.421875 2.550781.886719.546875 1.988282.59375 2.921875.132813 11.519531-5.761719 25.539063-3.664063 34.875 5.238281l1.453125 1.367188c7.105469 6.785156 16.210938 10.164062 25.296875 10.164062 9.125 0 18.230469-3.410156 25.28125-10.210938.210938-.1875.425781-.394531.574219-.542968l.617188-.597656c5.804687-5.804688 13.503906-9 21.675781-9 8.175781 0 15.878906 3.195312 21.675781 8.996093.273438.269531.558594.539063.964844.921875 6.820312 6.332032 15.675781 9.820313 24.941406 9.820313 9.375 0 18.296875-3.535157 25.097656-9.9375.289063-.269531.554688-.535157.824219-.800781 5.804687-5.804688 13.503906-9 21.679687-9 8.195313 0 15.890626 3.195312 21.671876 8.996093.222656.226563.449218.429688.652343.613281 6.828125 6.535157 15.804688 10.132813 25.277344 10.132813 9.542969 0 18.578125-3.652344 25.328125-10.179687.21875-.191407.410156-.378907.59375-.5625 5.785156-5.804688 13.484375-9 21.675781-9 8.195313 0 15.890625 3.195312 21.734375 9.054687.113282.113281.226563.222656.34375.324219 6.867188 6.683594 15.925782 10.363281 25.523438 10.363281 9.683594 0 18.832031-3.757813 25.773437-10.59375.003907 0 .148438-.144531.148438-.148437 9.046875-9.066407 22.933593-11.539063 34.558593-6.15625.925782.425781 2.011719.355468 2.875-.195313.863282-.550781 1.382813-1.503906 1.382813-2.527344v-117.648437c.003906-1.65625-1.339844-3-2.996094-3zm0 0" fill="#3a312a"/><path d="m110.199219 261.953125v86.082031c0 15.976563 12.949219 28.929688 28.929687 28.929688 15.976563 0 28.929688-12.953125 28.929688-28.929688v-86.082031zm0 0" fill="#87796f"/><path d="m168.054688 258.953125h-57.855469c-1.65625 0-3 1.34375-3 3v86.082031c0 17.605469 14.324219 31.929688 31.929687 31.929688 17.605469 0 31.925782-14.324219 31.925782-31.929688v-86.082031c0-1.65625-1.34375-3-3-3zm-3 89.085937c0 14.296876-11.628907 25.929688-25.925782 25.929688s-25.929687-11.632812-25.929687-25.929688v-83.082031h51.855469zm0 0" fill="#3a312a"/><path d="m288.007812 276.769531c-15.976562 0-28.929687 12.953125-28.929687 28.929688v42.339843c0 15.972657 12.953125 28.929688 28.929687 28.929688 15.976563 0 28.929688-12.953125 28.929688-28.929688v-42.339843c0-15.976563-12.953125-28.929688-28.929688-28.929688zm0 0" fill="#87796f"/><path d="m288.007812 273.769531c-17.605468 0-31.929687 14.324219-31.929687 31.929688v42.335937c0 17.605469 14.324219 31.929688 31.929687 31.929688 17.605469 0 31.929688-14.324219 31.929688-31.929688v-42.335937c0-17.605469-14.324219-31.929688-31.929688-31.929688zm25.929688 74.269531c0 14.296876-11.632812 25.929688-25.929688 25.929688-14.296874 0-25.929687-11.632812-25.929687-25.929688v-42.339843c0-14.292969 11.632813-25.925781 25.929687-25.925781 14.296876 0 25.929688 11.632812 25.929688 25.925781zm0 0" fill="#3a312a"/><path d="m397.46875 164.582031c-17.023438-7.058593-30.5625 26.957031-52.882812 49.277344-1.066407 1.066406-2.117188 2.152344-3.148438 3.21875-.183594-.289063-.371094-.578125-.589844-.863281-8.191406-11.984375-24.132812-20.070313-41.902344-25.523438-6.921874-2.113281-14.113281-3.839844-21.238281-5.246094-15.382812-3.011718-30.445312-4.515624-41.648437-5.292968-11.238282-.746094-18.617188-.746094-18.617188-.746094l-77.136718 14.589844c-18.15625 3.433594-31.984376 18.394531-33.777344 36.789062-3.757813 38.601563 8.988281 68.132813 22.015625 85.359375v31.902344c0 15.972656 12.945312 28.921875 28.921875 28.921875 15.976562 0 28.9375-12.949219 28.9375-28.921875v-14.386719c11.246094.140625 24.199218.292969 37.667968.429688l24.164063.214844c9.980469.078124 19.863281.128906 29.183594.152343v13.589844c0 15.976563 12.964843 28.921875 28.9375 28.921875 15.976562 0 28.921875-12.945312 28.921875-28.921875v-15.265625c5.839844-4.71875 16.042968-39.445312 14.386718-76.863281 6.429688-4.667969 13.214844-10.441407 19.867188-17.109375 22.320312-22.324219 50.632812-64.835938 27.9375-74.226563zm0 0" fill="#87796f"/><path d="m408.4375 173.523438c-1.085938-5.453126-4.480469-9.503907-9.820312-11.714844-13.386719-5.546875-23.976563 8.835937-36.222657 25.496094-6.140625 8.355468-12.492187 16.996093-19.933593 24.433593-.226563.226563-.449219.453125-.675782.679688-8.003906-10.238281-22.101562-18.503907-41.964844-24.597657-6.570312-2.007812-13.816406-3.800781-21.539062-5.320312-12.738281-2.496094-26.878906-4.292969-42.023438-5.347656-11.210937-.742188-18.511718-.75-18.816406-.75-.1875 0-.375.015625-.554687.050781l-77.136719 14.589844c-19.410156 3.671875-34.296875 19.890625-36.207031 39.445312-4.371094 44.945313 13.441406 75.042969 22.003906 86.648438v30.902343c0 17.601563 14.320313 31.921876 31.921875 31.921876 17.613281 0 31.9375-14.320313 31.9375-31.921876v-11.347656c10.519531.128906 22.363281.269532 34.640625.390625l24.164063.214844h.003906c8.925781.066406 17.769531.121094 26.207031.144531v10.597656c0 17.601563 14.324219 31.921876 31.9375 31.921876 17.601563 0 31.921875-14.320313 31.921875-31.921876v-14.050781c6.96875-8.304687 15.660156-42.214843 14.445312-76.605469 6.4375-4.785156 12.796876-10.316406 18.925782-16.464843 16.828125-16.820313 40.515625-48.660157 36.785156-67.394531zm-60.539062 79.964843c-.8125.59375-1.277344 1.554688-1.230469 2.5625 1.636719 36.964844-8.660157 70.667969-13.277344 74.394531-.703125.570313-1.113281 1.429688-1.113281 2.332032v15.265625c0 14.292969-11.628906 25.921875-25.921875 25.921875-14.300781 0-25.9375-11.628906-25.9375-25.921875v-13.589844c0-1.652344-1.339844-2.996094-2.992188-3-9.316406-.023437-19.191406-.074219-29.164062-.152344l-24.160157-.214843c-13.464843-.136719-26.417968-.289063-37.660156-.425782-.746094.019532-1.574218.300782-2.144531.863282-.570313.566406-.890625 1.332031-.890625 2.136718v14.382813c0 14.292969-11.636719 25.921875-25.9375 25.921875-14.292969 0-25.921875-11.628906-25.921875-25.921875v-31.898438c0-.65625-.210937-1.292969-.609375-1.8125-7.867188-10.398437-25.699219-39.328125-21.421875-83.257812 1.648437-16.917969 14.539063-30.953125 31.347656-34.132813l76.855469-14.535156c1.429688.011719 8.324219.085938 18.132812.738281 14.890626 1.035157 28.78125 2.800781 41.273438 5.25 7.519531 1.480469 14.5625 3.21875 20.941406 5.167969 19.867188 6.09375 33.425782 14.285156 40.398438 24.476562.164062.214844.300781.429688.460937.675782.496094.765625 1.316407 1.261718 2.222657 1.351562.914062.085938 1.808593-.246094 2.445312-.902344 1.023438-1.054687 2.058594-2.125 3.113281-3.179687 7.757813-7.757813 14.542969-16.984375 20.523438-25.125 12.417969-16.898437 20.460937-27.085937 29.09375-23.503906 3.496093 1.449219 5.535156 3.851562 6.226562 7.339843 2.792969 14.015626-15.675781 42.527344-35.144531 61.992188-6.320312 6.335938-12.886719 11.988281-19.507812 16.800781zm0 0" fill="#3a312a"/><path d="m106.53125 37.609375c-16.199219-29.46875-58.855469-37.125-64.558594-33.992187-4.660156 2.5625-22.09375 43.253906-5.890625 72.71875 16.195313 29.46875 38.550781 32.769531 58.003907 22.078124 19.453124-10.695312 28.640624-31.335937 12.445312-60.804687zm0 0" fill="#87796f"/><path d="m109.15625 36.164062c-16.945312-30.832031-61.203125-39.253906-68.628906-35.175781-3.9375 2.164063-9.550782 15.121094-12.261719 28.292969-2.667969 12.96875-3.933594 31.910156 5.183594 48.5 10.53125 19.152344 24.929687 29.199219 40.679687 29.199219 6.941406 0 14.148438-1.953125 21.402344-5.9375 23.699219-13.03125 28.792969-37.285157 13.625-64.878907zm-16.515625 59.621094c-20.714844 11.386719-40.371094 3.773438-53.933594-20.894531-15.105469-27.480469.996094-65.675781 4.6875-68.632813.464844-.210937 1.367188-.324218 2.625-.324218 10.199219 0 43.839844 7.574218 57.882813 33.121094 13.554687 24.664062 9.453125 45.34375-11.261719 56.730468zm0 0" fill="#3a312a"/><path d="m89.699219 43.46875c-9.117188-16.585938-33.128907-20.894531-36.335938-19.132812-2.625 1.441406-12.433593 24.34375-3.316406 40.929687s21.699219 18.445313 32.648437 12.425781c10.949219-6.019531 16.121094-17.636718 7.003907-34.222656zm0 0" fill="#f16c7a"/><path d="m92.324219 42.023438c-5.359375-9.75-14.878907-15.058594-21.925781-17.796876-6.546876-2.546874-15.253907-4.289062-18.480469-2.515624-4.398438 2.417968-14.386719 27.015624-4.5 45 6.1875 11.253906 14.667969 17.152343 23.96875 17.152343 4.132812 0 8.425781-1.167969 12.75-3.542969 6.507812-3.578124 10.824219-8.765624 12.480469-15.007812 1.84375-6.921875.398437-14.757812-4.292969-23.289062zm-1.503907 21.75c-1.222656 4.617187-4.535156 8.523437-9.570312 11.289062-11.085938 6.09375-21.234375 2.105469-28.574219-11.242188-7.785156-14.15625-.398437-33.527343 2.226563-36.824218 3.875-.5625 24.292968 3.589844 32.167968 17.917968 3.917969 7.132813 5.179688 13.476563 3.75 18.859376zm0 0" fill="#3a312a"/><path d="m256.035156 3.617188c-5.695312-3.132813-48.355468 4.523437-64.554687 33.992187-16.195313 29.46875-7.007813 50.109375 12.445312 60.804687 19.453125 10.691407 41.808594 7.390626 58.007813-22.078124 16.195312-29.464844-1.234375-70.15625-5.898438-72.71875zm0 0" fill="#87796f"/><path d="m269.75 29.28125c-2.714844-13.171875-8.328125-26.128906-12.265625-28.292969-7.421875-4.078125-51.683594 4.34375-68.628906 35.175781-15.167969 27.597657-10.074219 51.847657 13.625 64.878907 7.183593 3.949219 14.480469 5.945312 21.558593 5.945312 3.75 0 7.4375-.5625 11.015626-1.691406 11.546874-3.648437 21.476562-12.902344 29.507812-27.515625 9.117188-16.589844 7.851562-35.53125 5.1875-48.5zm-10.445312 45.609375c-7.265626 13.210937-16.03125 21.515625-26.054688 24.683594-8.71875 2.753906-18.359375 1.441406-27.878906-3.789063-20.714844-11.386718-24.820313-32.0625-11.261719-56.730468 15.777344-28.695313 56.277344-34.714844 60.363281-32.882813 3.835938 3.042969 19.9375 41.238281 4.832032 68.71875zm0 0" fill="#3a312a"/><path d="m244.644531 24.335938c-3.207031-1.761719-27.214843 2.546874-36.332031 19.132812s-3.945312 28.203125 7.003906 34.222656c10.949219 6.023438 23.53125 4.160156 32.648438-12.425781 9.117187-16.585937-.691406-39.488281-3.320313-40.929687zm0 0" fill="#f16c7a"/><path d="m246.09375 21.710938c-3.226562-1.773438-11.9375-.03125-18.484375 2.515624-7.042969 2.738282-16.566406 8.042969-21.925781 17.796876-4.6875 8.53125-6.132813 16.367187-4.292969 23.292968 1.65625 6.242188 5.972656 11.429688 12.480469 15.007813 4.242187 2.332031 8.5625 3.507812 12.761718 3.507812 2.242188 0 4.453126-.335937 6.597657-1.011719 6.832031-2.160156 12.675781-7.578124 17.363281-16.105468 9.886719-17.988282-.101562-42.585938-4.5-45.003906zm-.757812 42.109374c-3.921876 7.132813-8.601563 11.597657-13.910157 13.273438-4.558593 1.4375-9.628906.738281-14.664062-2.03125-5.035157-2.765625-8.347657-6.671875-9.574219-11.289062-1.429688-5.382813-.164062-11.726563 3.753906-18.859376 7.425782-13.503906 25.988282-17.96875 31.339844-17.96875.324219 0 .605469.019532.824219.050782 2.628906 3.296875 10.011719 22.667968 2.230469 36.824218zm0 0" fill="#3a312a"/><path d="m249.429688 152.125c-.1875-.203125-.375-.40625-.558594-.625.199218-2.894531.304687-5.789062.304687-8.75 0-11.949219-1.746093-23.457031-5.011719-34.238281-10.050781-33.453125-34.472656-59.839844-65.324218-70.464844-9.613282-3.320313-19.832032-5.113281-30.445313-5.113281-10.238281 0-20.121093 1.660156-29.429687 4.773437-31.308594 10.390625-56.167969 36.976563-66.335938 70.820313-3.25 10.78125-5.011718 22.273437-5.011718 34.21875 0 3.21875.136718 6.382812.390624 9.511718.015626.152344.015626.304688.035157.457032-8.460938 9.59375-13.269531 20.527344-13.269531 32.152344 0 3.65625.476562 7.125 1.390624 10.40625 8.5625 30.902343 55.828126 46.050781 112.839844 46.050781 57.015625 0 104.28125-15.148438 112.84375-46.050781.914063-3.28125 1.386719-6.75 1.386719-10.40625 0-11.875-5.007813-23.011719-13.804687-32.742188zm0 0" fill="#fce8cb"/><path d="m251.945312 150.4375c.152344-2.554688.226563-5.082031.226563-7.6875 0-12.042969-1.726563-23.855469-5.132813-35.097656-10.34375-34.425782-35.472656-61.503906-67.21875-72.441406-19.976562-6.894532-41.964843-6.984376-61.796874-.351563-32.265626 10.710937-57.789063 37.929687-68.269532 72.804687-3.40625 11.3125-5.132812 23.113282-5.132812 35.085938 0 2.90625.109375 5.875.335937 8.949219-8.632812 10.160156-13.183593 21.609375-13.183593 33.171875 0 3.867187.503906 7.640625 1.5 11.207031 8.371093 30.214844 51.632812 48.25 115.730468 48.25s107.363282-18.035156 115.734375-48.246094c.992188-3.570312 1.496094-7.34375 1.496094-11.210937.003906-12.054688-4.933594-23.949219-14.289063-34.433594zm7.011719 44.042969c-7.492187 27.042969-49.625 43.847656-109.953125 43.847656-60.324218 0-102.457031-16.804687-109.953125-43.851563-.847656-3.050781-1.277343-6.28125-1.277343-9.601562 0-10.601562 4.207031-20.75 12.515624-30.171875.523438-.589844.773438-1.574219.730469-2.363281-.007812-.140625-.015625-.28125-.023437-.320313-.25-3.101562-.378906-6.21875-.378906-9.269531 0-11.382812 1.644531-22.605469 4.882812-33.355469 9.921875-33.011719 34-58.746093 64.417969-68.839843 9.152343-3.066407 18.734375-4.617188 28.472656-4.617188 10.042969 0 19.957031 1.664062 29.472656 4.945312 29.925781 10.308594 53.636719 35.917969 63.429688 68.503907 3.238281 10.683593 4.878906 21.910156 4.878906 33.363281 0 2.898438-.101563 5.6875-.296875 8.542969-.054688.78125.199219 1.558593.710938 2.15625.207031.246093.417968.480469.613281.691406 8.648437 9.566406 13.035156 19.90625 13.035156 30.734375.003906 3.320312-.425781 6.550781-1.277344 9.605469zm0 0" fill="#3a312a"/><path d="m118.96875 37.710938c-31.308594 10.386718-56.167969 36.972656-66.339844 70.820312-3.25 10.78125-5.007812 22.269531-5.007812 34.21875 0 3.214844.136718 6.378906.390625 9.507812.015625.152344.015625.304688.03125.457032-8.460938 9.597656-13.265625 20.527344-13.265625 32.15625 0 3.652344.472656 7.121094 1.386718 10.40625 7.292969 3.148437 15.078126 4.839844 23.148438 4.839844 41.71875 0 75.511719-45.082032 75.511719-100.691407 0-23.25-5.90625-44.675781-15.855469-61.714843zm0 0" fill="#87796f"/><path d="m121.558594 36.195312c-.710938-1.222656-2.183594-1.78125-3.535156-1.332031-32.265626 10.707031-57.789063 37.925781-68.269532 72.800781-3.40625 11.3125-5.132812 23.113282-5.132812 35.085938 0 2.90625.109375 5.875.335937 8.949219-8.632812 10.160156-13.183593 21.609375-13.183593 33.171875 0 3.867187.503906 7.640625 1.5 11.210937.242187.875.867187 1.589844 1.699218 1.949219 7.820313 3.375 16.007813 5.085938 24.339844 5.085938 43.292969 0 78.511719-46.515626 78.511719-103.691407 0-23.140625-5.625-45.007812-16.265625-63.230469zm-62.246094 160.925782c-7.03125 0-13.957031-1.359375-20.613281-4.035156-.613281-2.636719-.925781-5.390626-.925781-8.214844 0-10.601563 4.210937-20.75 12.519531-30.171875.519531-.589844.773437-1.574219.730469-2.359375-.007813-.140625-.019532-.28125-.023438-.324219-.253906-3.097656-.378906-6.214844-.378906-9.265625 0-11.386719 1.640625-22.605469 4.878906-33.355469 9.667969-32.167969 32.777344-57.425781 62.09375-68.035156 9.316406 16.871094 14.230469 36.890625 14.230469 58.066406 0 53.871094-32.527344 97.695313-72.511719 97.695313zm0 0" fill="#3a312a"/><path d="m249.429688 152.125c-.1875-.203125-.375-.40625-.558594-.625.199218-2.894531.304687-5.789062.304687-8.75 0-11.949219-1.746093-23.457031-5.011719-34.238281-10.050781-33.453125-34.472656-59.839844-65.324218-70.464844-9.816406 16.988281-15.652344 38.277344-15.652344 61.378906 0 55.609375 33.792969 100.691407 75.511719 100.691407 8.070312 0 15.855469-1.691407 23.148437-4.839844.914063-3.28125 1.386719-6.753906 1.386719-10.40625 0-11.878906-5.007813-23.015625-13.804687-32.746094zm0 0" fill="#87796f"/><path d="m251.945312 150.4375c.152344-2.554688.226563-5.082031.226563-7.6875 0-12.042969-1.726563-23.855469-5.132813-35.097656-10.34375-34.425782-35.472656-61.503906-67.222656-72.441406-1.347656-.46875-2.851562.089843-3.570312 1.335937-10.507813 18.183594-16.058594 39.929687-16.058594 62.878906 0 57.175781 35.21875 103.691407 78.511719 103.691407 8.332031 0 16.519531-1.710938 24.339843-5.085938.832032-.359375 1.460938-1.074219 1.703126-1.949219.992187-3.570312 1.496093-7.34375 1.496093-11.210937 0-12.054688-4.9375-23.949219-14.292969-34.433594zm7.367188 42.648438c-6.652344 2.675781-13.582031 4.035156-20.613281 4.035156-39.984375 0-72.511719-43.824219-72.511719-97.695313 0-20.984375 4.84375-40.871093 14.027344-57.695312 28.816406 10.816406 51.546875 35.925781 61.078125 67.65625 3.238281 10.683593 4.878906 21.910156 4.878906 33.363281 0 2.898438-.097656 5.6875-.296875 8.542969-.054688.78125.199219 1.558593.710938 2.15625.210937.246093.421874.480469.617187.691406 8.648437 9.566406 13.035156 19.90625 13.035156 30.734375 0 2.820312-.3125 5.578125-.925781 8.210938zm0 0" fill="#3a312a"/><path d="m149.046875 144.820312c-8.945313-.039062-16.214844 4.28125-16.238281 9.648438-.023438 5.367188 7.191406 14.070312 16.136718 14.109375 8.945313.042969 16.234376-8.597656 16.257813-13.96875.023437-5.367187-7.207031-9.75-16.15625-9.789063zm0 0" fill="#3a312a"/><path d="m149.007812 163.753906c0 11.558594-8.757812 21.050782-19.996093 22.21875.207031 13.925782 9.082031 25.113282 19.996093 25.113282 10.910157 0 19.785157-11.1875 19.996094-25.113282-11.242187-1.167968-19.996094-10.660156-19.996094-22.21875zm0 0" fill="#f16c7a"/><path d="m169.3125 182.992188c-9.867188-1.027344-17.304688-9.296876-17.304688-19.238282 0-1.65625-1.34375-3-3-3s-3 1.34375-3 3c0 9.9375-7.441406 18.210938-17.308593 19.238282-1.542969.160156-2.714844 1.472656-2.6875 3.027343.238281 15.738281 10.339843 28.066407 22.996093 28.066407s22.757813-12.328126 22.996094-28.066407c.023438-1.554687-1.144531-2.867187-2.691406-3.027343zm-20.308594 25.09375c-8.535156 0-15.714844-8.578126-16.847656-19.585938 7.363281-1.613281 13.433594-6.363281 16.847656-12.738281 3.417969 6.375 9.488282 11.128906 16.847656 12.738281-1.128906 11.011719-8.3125 19.585938-16.847656 19.585938zm0 0" fill="#3a312a"/><path d="m149.003906 160.753906c-1.65625 0-3 1.34375-3 3 0 9.9375-7.441406 18.210938-17.351562 19.242188-.613282.074218-1.289063.109375-2 .109375-10.667969 0-19.351563-8.679688-19.351563-19.351563 0-1.65625-1.34375-3-3-3s-3 1.34375-3 3c0 13.980469 11.375 25.351563 25.351563 25.351563.953125 0 1.863281-.050781 2.664062-.148438 12.9375-1.347656 22.6875-12.179687 22.6875-25.203125 0-1.65625-1.34375-3-3-3zm0 0" fill="#3a312a"/><path d="m193.707031 160.753906c-1.65625 0-3 1.34375-3 3 0 10.671875-8.679687 19.351563-19.351562 19.351563-.710938 0-1.382813-.039063-2.042969-.117188-9.867188-1.027343-17.304688-9.296875-17.304688-19.234375 0-1.660156-1.34375-3-3-3s-3 1.339844-3 3c0 13.019532 9.753907 23.855469 22.640626 25.195313.847656.105469 1.757812.15625 2.707031.15625 13.980469 0 25.351562-11.371094 25.351562-25.351563 0-1.65625-1.34375-3-3-3zm0 0" fill="#3a312a"/><path d="m83.269531 139.238281c-11.621093 0-21.039062 5.886719-21.039062 13.148438s9.417969 13.144531 21.039062 13.144531c11.617188 0 21.035157-5.882812 21.035157-13.144531s-9.417969-13.148438-21.035157-13.148438zm0 0" fill="#f5978a"/><path d="m235.78125 152.386719c0-7.261719-9.417969-13.148438-21.035156-13.148438-11.621094 0-21.039063 5.886719-21.039063 13.148438s9.417969 13.144531 21.039063 13.144531c11.617187 0 21.035156-5.882812 21.035156-13.144531zm0 0" fill="#f5978a"/><path d="m114.820312 117.082031c-5.082031 0-9.203124 4.117188-9.203124 9.203125 0 5.082032 4.121093 9.203125 9.203124 9.203125 5.082032 0 9.207032-4.117187 9.207032-9.203125 0-5.085937-4.125-9.203125-9.207032-9.203125zm0 0" fill="#3a312a"/><path d="m191.683594 122.75c-1.957032-4.691406-7.34375-6.910156-12.035156-4.953125-4.691407 1.953125-6.910157 7.34375-4.953126 12.035156 1.953126 4.691407 7.34375 6.910157 12.035157 4.953125 4.691406-1.957031 6.910156-7.34375 4.953125-12.035156zm0 0" fill="#3a312a"/><path d="m386.019531 244.375-.140625.136719c-6.5625 6.460937-15.121094 9.722656-23.660156 9.722656-8.5 0-16.980469-3.203125-23.5-9.582031-.101562-.078125-.199219-.179688-.300781-.277344-6.558594-6.582031-15.179688-9.882812-23.800781-9.882812-8.617188 0-17.238282 3.300781-23.800782 9.882812-.136718.136719-.277344.277344-.4375.417969-6.5 6.28125-14.921875 9.441406-23.359375 9.441406-8.363281 0-16.722656-3.101563-23.203125-9.300781-.199218-.179688-.398437-.359375-.597656-.558594-6.5625-6.582031-15.179688-9.882812-23.800781-9.882812-8.601563 0-17.21875 3.300781-23.800781 9.882812-.238282.238281-.480469.476562-.738282.71875-6.460937 6.078125-14.761718 9.140625-23.0625 9.140625-8.21875 0-16.4375-3.019531-22.898437-9.019531-.300781-.28125-.601563-.5625-.878907-.839844-6.582031-6.582031-15.199218-9.882812-23.800781-9.882812-8.621093 0-17.21875 3.300781-23.800781 9.882812l-.578125.558594c-.140625.140625-.300781.300781-.460937.441406-12.941407 12.476562-33.480469 12.597656-46.539063.136719l-1.460937-1.378907c-13.601563-12.960937-35.179688-12.28125-47.921876 1.519532v201.28125h430.121094v-202.558594c-13.140625-13.164062-34.441406-13.164062-47.578125 0zm0 0" fill="#8ac6dd"/><g fill="#3a312a"><path d="m435.730469 242.246094c-14.292969-14.292969-37.546875-14.292969-51.839844 0-5.789063 5.789062-13.488281 8.976562-21.675781 8.976562-8.191406 0-15.890625-3.1875-21.679688-8.976562-6.921875-6.925782-16.125-10.738282-25.917968-10.738282-9.792969 0-18.996094 3.816407-25.921876 10.738282-11.953124 11.953125-31.398437 11.949218-43.351562 0-6.921875-6.921875-16.128906-10.734375-25.921875-10.734375s-18.996094 3.8125-25.917969 10.738281c-11.949218 11.949219-31.398437 11.949219-43.355468 0-6.921876-6.925781-16.125-10.738281-25.921876-10.738281-9.789062 0-18.996093 3.8125-25.917968 10.738281l-.574219.574219c-11.863281 11.859375-30.671875 12.089843-42.816406.519531l-1.457031-1.386719c-7.167969-6.820312-16.546876-10.40625-26.445313-10.09375-9.890625.316407-19.035156 4.492188-25.75 11.757813-1.128906 1.214844-1.050781 3.113281.164063 4.238281 1.21875 1.125 3.113281 1.050781 4.242187-.167969 5.617187-6.074218 13.261719-9.5625 21.535156-9.828125 8.242188-.269531 16.125 2.734375 22.117188 8.441407l1.457031 1.386718c7.148438 6.808594 16.21875 10.199219 25.285156 10.199219 9.359375-.003906 18.710938-3.617187 25.914063-10.824219l.574219-.574218c5.792968-5.789063 13.488281-8.976563 21.675781-8.976563 8.191406 0 15.886719 3.191406 21.675781 8.980469 14.292969 14.292968 37.546875 14.289062 51.84375 0 5.789062-5.789063 13.484375-8.980469 21.675781-8.980469 8.1875 0 15.882813 3.191406 21.675781 8.980469 14.292969 14.292968 37.546876 14.292968 51.839844 0 5.789063-5.789063 13.488282-8.976563 21.675782-8.976563 8.191406 0 15.886718 3.191407 21.679687 8.980469 6.921875 6.921875 16.128906 10.734375 25.917969 10.734375 9.792968 0 18.996094-3.8125 25.917968-10.734375 11.957032-11.953125 31.402344-11.953125 43.355469 0 1.175781 1.171875 3.070313 1.171875 4.242188 0 1.171875-1.183594 1.171875-3.085938 0-4.253906zm0 0"/><path d="m435.730469 276.386719c-14.292969-14.292969-37.546875-14.292969-51.839844 0-5.789063 5.789062-13.488281 8.976562-21.675781 8.976562-8.191406 0-15.890625-3.1875-21.679688-8.976562-6.921875-6.925781-16.125-10.738281-25.917968-10.738281-9.792969 0-18.996094 3.8125-25.921876 10.738281-5.789062 5.789062-13.488281 8.976562-21.675781 8.976562s-15.886719-3.1875-21.675781-8.976562c-6.921875-6.925781-16.128906-10.738281-25.917969-10.738281-9.796875 0-19 3.8125-25.921875 10.738281-11.949218 11.949219-31.398437 11.953125-43.355468 0-6.921876-6.925781-16.125-10.738281-25.921876-10.738281-9.789062 0-18.996093 3.8125-25.917968 10.738281l-.574219.574219c-11.863281 11.859374-30.671875 12.089843-42.816406.519531l-1.457031-1.386719c-7.167969-6.824219-16.546876-10.402344-26.445313-10.09375-9.890625.316406-19.035156 4.492188-25.75 11.753906-1.128906 1.21875-1.050781 3.117188.164063 4.242188 1.21875 1.125 3.113281 1.050781 4.242187-.167969 5.617187-6.078125 13.261719-9.570313 21.535156-9.832031 8.242188-.269532 16.125 2.734375 22.117188 8.441406l1.457031 1.386719c7.148438 6.808593 16.222656 10.199219 25.285156 10.195312 9.359375 0 18.707032-3.613281 25.910156-10.820312l.574219-.574219c5.792969-5.789062 13.488281-8.976562 21.675781-8.976562 8.191407 0 15.890626 3.1875 21.679688 8.976562 14.292969 14.289062 37.546875 14.289062 51.839844 0 5.789062-5.789062 13.488281-8.976562 21.679687-8.976562 8.1875 0 15.882813 3.1875 21.675781 8.976562 14.289063 14.289062 37.542969 14.289062 51.839844 0 5.789063-5.789062 13.488282-8.976562 21.675782-8.976562s15.886718 3.1875 21.675781 8.976562c6.921875 6.925781 16.128906 10.734375 25.921875 10.734375 9.789062 0 18.996094-3.808594 25.917968-10.734375 11.953126-11.953125 31.402344-11.953125 43.355469 0 1.171875 1.171875 3.070313 1.171875 4.242188 0 1.171875-1.167969 1.171875-3.070312 0-4.238281zm0 0"/><path d="m435.730469 310.523438c-14.292969-14.289063-37.546875-14.289063-51.839844 0-5.789063 5.792968-13.488281 8.980468-21.675781 8.980468-8.191406 0-15.890625-3.1875-21.679688-8.980468-6.921875-6.921876-16.125-10.734376-25.917968-10.734376-9.792969 0-18.996094 3.8125-25.921876 10.734376-5.789062 5.792968-13.488281 8.980468-21.675781 8.980468s-15.886719-3.1875-21.675781-8.980468c-6.921875-6.921876-16.128906-10.734376-25.917969-10.734376-9.796875 0-19 3.8125-25.921875 10.734376-11.949218 11.953124-31.398437 11.957031-43.355468 0-6.921876-6.921876-16.125-10.734376-25.921876-10.734376-9.789062 0-18.996093 3.8125-25.914062 10.734376l-.578125.574218c-11.863281 11.863282-30.671875 12.089844-42.816406.523438l-1.457031-1.386719c-7.167969-6.824219-16.546876-10.398437-26.445313-10.09375-9.890625.316406-19.035156 4.492187-25.75 11.757813-1.128906 1.214843-1.050781 3.113281.164063 4.238281 1.21875 1.125 3.113281 1.050781 4.242187-.164063 5.617187-6.078125 13.261719-9.566406 21.535156-9.832031 8.242188-.265625 16.125 2.734375 22.117188 8.441406l1.457031 1.390625c7.148438 6.804688 16.222656 10.195313 25.285156 10.195313 9.359375 0 18.710938-3.617188 25.910156-10.820313l.578126-.578125c5.789062-5.789062 13.488281-8.976562 21.675781-8.976562 8.191406 0 15.886719 3.1875 21.675781 8.976562 14.292969 14.292969 37.546875 14.292969 51.84375 0 5.789062-5.789062 13.484375-8.976562 21.675781-8.976562 8.1875 0 15.886719 3.1875 21.675781 8.976562 14.292969 14.292969 37.546876 14.292969 51.839844 0 5.789063-5.789062 13.488282-8.976562 21.679688-8.976562 8.1875 0 15.886718 3.1875 21.675781 8.976562 6.921875 6.925781 16.128906 10.738281 25.917969 10.738281 9.792968 0 18.996094-3.8125 25.917968-10.738281 11.957032-11.949219 31.402344-11.949219 43.355469 0 1.175781 1.171875 3.070313 1.171875 4.242188 0 1.171875-1.175781 1.171875-3.074219 0-4.246093zm0 0"/><path d="m435.730469 344.664062c-14.292969-14.289062-37.546875-14.289062-51.839844 0-5.789063 5.792969-13.488281 8.980469-21.675781 8.980469-8.191406 0-15.890625-3.1875-21.679688-8.980469-6.921875-6.921874-16.125-10.734374-25.917968-10.734374-9.792969 0-18.996094 3.8125-25.921876 10.734374-5.789062 5.792969-13.488281 8.980469-21.675781 8.980469s-15.886719-3.1875-21.675781-8.980469c-6.921875-6.921874-16.128906-10.734374-25.917969-10.734374-9.796875 0-19 3.8125-25.921875 10.734374-11.949218 11.957032-31.398437 11.957032-43.355468 0-6.921876-6.921874-16.125-10.734374-25.921876-10.734374-9.789062 0-18.996093 3.8125-25.917968 10.734374l-.574219.574219c-11.863281 11.863281-30.671875 12.089844-42.816406.519531l-1.457031-1.382812c-7.164063-6.824219-16.597657-10.414062-26.445313-10.09375-9.890625.3125-19.035156 4.488281-25.75 11.753906-1.128906 1.214844-1.050781 3.113282.164063 4.238282 1.21875 1.125 3.113281 1.054687 4.242187-.167969 5.617187-6.074219 13.265625-9.566407 21.535156-9.828125 8.339844-.269532 16.125 2.734375 22.117188 8.441406l1.457031 1.386719c7.148438 6.804687 16.21875 10.199219 25.285156 10.199219 9.359375 0 18.710938-3.617188 25.914063-10.824219l.574219-.574219c5.789062-5.789062 13.488281-8.976562 21.675781-8.976562 8.191406 0 15.886719 3.1875 21.675781 8.976562 14.292969 14.292969 37.546875 14.292969 51.84375 0 5.789062-5.789062 13.484375-8.976562 21.675781-8.976562 8.1875 0 15.886719 3.1875 21.675781 8.976562 14.292969 14.292969 37.546876 14.292969 51.839844 0 5.789063-5.789062 13.488282-8.976562 21.679688-8.976562 8.1875 0 15.886718 3.1875 21.675781 8.976562 6.921875 6.925781 16.128906 10.738281 25.917969 10.738281 9.792968 0 18.996094-3.8125 25.917968-10.738281 11.957032-11.949219 31.402344-11.949219 43.355469 0 1.175781 1.171875 3.070313 1.171875 4.242188 0s1.171875-3.070312 0-4.242188zm0 0"/><path d="m435.730469 378.804688c-14.292969-14.292969-37.546875-14.292969-51.839844 0-5.789063 5.789062-13.488281 8.976562-21.675781 8.976562-8.191406 0-15.890625-3.1875-21.679688-8.976562-6.921875-6.921876-16.125-10.734376-25.917968-10.734376-9.792969 0-18.996094 3.8125-25.921876 10.734376-5.789062 5.789062-13.488281 8.976562-21.675781 8.976562s-15.886719-3.1875-21.675781-8.976562c-6.921875-6.921876-16.128906-10.734376-25.917969-10.734376-9.796875 0-19 3.8125-25.921875 10.734376-11.949218 11.953124-31.398437 11.953124-43.355468 0-6.921876-6.921876-16.125-10.734376-25.921876-10.734376-9.789062 0-18.996093 3.8125-25.914062 10.734376l-.578125.574218c-11.863281 11.859375-30.671875 12.09375-42.816406.523438l-1.457031-1.390625c-7.164063-6.820313-16.546876-10.429688-26.445313-10.089844-9.890625.3125-19.035156 4.488281-25.75 11.753906-1.128906 1.21875-1.050781 3.117188.164063 4.242188 1.21875 1.125 3.113281 1.050781 4.242187-.167969 5.617187-6.078125 13.261719-9.570312 21.535156-9.832031 8.226563-.246094 16.121094 2.734375 22.117188 8.441406l1.457031 1.390625c7.148438 6.804688 16.222656 10.195312 25.285156 10.195312 9.359375 0 18.710938-3.617187 25.910156-10.820312l.578126-.574219c5.789062-5.792969 13.488281-8.980469 21.675781-8.980469 8.191406 0 15.886719 3.1875 21.675781 8.980469 14.292969 14.289063 37.546875 14.289063 51.84375 0 5.789062-5.792969 13.484375-8.980469 21.675781-8.980469 8.1875 0 15.886719 3.1875 21.675781 8.980469 14.292969 14.289063 37.546876 14.289063 51.839844 0 5.789063-5.792969 13.488282-8.980469 21.679688-8.980469 8.1875 0 15.886718 3.1875 21.675781 8.980469 6.921875 6.921875 16.128906 10.734375 25.917969 10.734375 9.792968 0 18.996094-3.8125 25.917968-10.734375 11.957032-11.953125 31.402344-11.953125 43.355469 0 1.175781 1.171875 3.070313 1.171875 4.242188 0 1.171875-1.175781 1.171875-3.074219 0-4.246093zm0 0"/></g><path d="m392.140625 22.351562c-1.949219 23.128907-26.046875 26.78125-26.046875 26.78125 20.691406.972657 25.847656 28.117188 25.847656 28.117188.441406-19.355469 26.644532-28.40625 26.644532-28.40625-19.628907-1.171875-26.445313-26.492188-26.445313-26.492188zm0 0" fill="#d7e057"/><path d="m418.761719 45.847656c-17.210938-1.027344-23.664063-24.046875-23.726563-24.28125-.378906-1.402344-1.699218-2.320312-3.167968-2.203125-1.449219.132813-2.59375 1.285157-2.71875 2.734375-1.714844 20.429688-22.625 23.925782-23.507813 24.066406-1.523437.230469-2.625 1.578126-2.542969 3.121094.078125 1.539063 1.3125 2.769532 2.855469 2.84375 18.054687.847656 22.996094 25.4375 23.042969 25.683594.273437 1.421875 1.519531 2.433594 2.945312 2.433594.082032 0 .167969-.003906.25-.007813 1.527344-.128906 2.714844-1.386719 2.75-2.917969.390625-17.019531 24.382813-25.554687 24.625-25.640624 1.355469-.46875 2.1875-1.828126 1.988282-3.242188-.199219-1.421875-1.363282-2.503906-2.792969-2.589844zm-27.132813 20.695313c-2.710937-6.261719-7.417968-13.816407-15.171875-17.753907 5.859375-2.808593 12.816407-7.824218 16.402344-16.546874 3.101563 6.144531 8.402344 13.761718 16.667969 17.445312-6.011719 3.28125-13.84375 8.8125-17.898438 16.855469zm0 0" fill="#3a312a"/><path d="m348.742188 56.3125c-1.378907 16.359375-18.425782 18.941406-18.425782 18.941406 14.636719.6875 18.285156 19.890625 18.285156 19.890625.3125-13.691406 18.84375-20.089843 18.84375-20.089843-13.882812-.832032-18.703124-18.742188-18.703124-18.742188zm0 0" fill="#d7e057"/><path d="m367.625 72.058594c-11.53125-.691406-15.941406-16.371094-15.984375-16.53125-.378906-1.402344-1.71875-2.328125-3.164063-2.203125-1.453124.132812-2.601562 1.285156-2.722656 2.738281-1.15625 13.742188-15.292968 16.132812-15.882812 16.226562-1.527344.230469-2.625 1.582032-2.546875 3.121094.078125 1.539063 1.3125 2.769532 2.855469 2.84375 12.070312.566406 15.449218 17.289063 15.476562 17.453125.273438 1.421875 1.519531 2.4375 2.949219 2.4375.082031 0 .164062-.003906.25-.007812 1.527343-.128907 2.714843-1.390625 2.75-2.921875.261719-11.417969 16.664062-17.269532 16.824219-17.324219 1.351562-.46875 2.1875-1.828125 1.992187-3.246094-.199219-1.417969-1.367187-2.5-2.796875-2.585937zm-19.167969 13.589844c-1.847656-3.773438-4.679687-7.894532-8.894531-10.5625 3.710938-2.082032 7.394531-5.257813 9.742188-9.832032 2.113281 3.746094 5.308593 7.910156 9.882812 10.445313-3.703125 2.207031-7.980469 5.484375-10.730469 9.949219zm0 0" fill="#3a312a"/><path d="m348.742188 2.996094c-1.378907 16.359375-18.425782 18.941406-18.425782 18.941406 14.636719.691406 18.285156 19.890625 18.285156 19.890625.3125-13.691406 18.84375-20.089844 18.84375-20.089844-13.882812-.832031-18.703124-18.742187-18.703124-18.742187zm0 0" fill="#d7e057"/><path d="m367.625 18.742188c-11.53125-.6875-15.941406-16.371094-15.984375-16.527344-.378906-1.40625-1.71875-2.328125-3.164063-2.2031252-1.453124.1289062-2.601562 1.2851562-2.722656 2.7343752-1.15625 13.742187-15.292968 16.136718-15.882812 16.230468-1.527344.230469-2.625 1.578126-2.546875 3.121094.078125 1.539063 1.3125 2.765625 2.855469 2.839844 12.070312.570312 15.449218 17.289062 15.476562 17.453125.273438 1.425781 1.519531 2.441406 2.949219 2.441406.082031 0 .164062-.003906.25-.011719 1.527343-.125 2.714843-1.386718 2.75-2.921874.261719-11.417969 16.664062-17.265626 16.824219-17.324219 1.351562-.46875 2.1875-1.824219 1.992187-3.242188-.199219-1.421875-1.367187-2.503906-2.796875-2.589843zm-19.167969 13.589843c-1.847656-3.769531-4.679687-7.894531-8.894531-10.558593 3.710938-2.082032 7.394531-5.261719 9.742188-9.835938 2.113281 3.75 5.308593 7.910156 9.882812 10.449219-3.699219 2.203125-7.980469 5.480469-10.730469 9.945312zm0 0" fill="#3a312a"/><path d="m390.957031 122.964844v37.742187c2.460938-.320312 5 0 7.660157 1.097657 5.339843 2.21875 8.742187 6.261718 9.820312 11.71875 2.378906 11.960937-6.417969 29.28125-17.480469 44.601562v18.660156c.300781-.199218.621094-.378906.941407-.558594l.019531-.019531c.679687-.382812 1.378906-.742187 2.082031-1.0625.136719-.078125.277344-.140625.398438-.199219 2.039062-.941406 4.121093-1.679687 6.257812-2.21875.363281-.101562.722656-.179687 1.082031-.261718.558594-.140625 1.121094-.257813 1.679688-.359375.898437-.160157 1.78125-.300781 2.679687-.378907.28125-.042968.539063-.042968.800782-.0625.839843-.058593 1.679687-.097656 2.519531-.117187h.761719c2.199218.019531 4.417968.21875 6.597656.636719.039062.023437.0625.023437.101562.023437 1.121094.21875 2.238282.5 3.359375.816407 0 0 .019531 0 .019531.023437.242188.058594.460938.117187.699219.179687v-110.261718zm0 0" fill="#b9c239"/><path d="m431.476562 383.046875c-7.558593-7.5625-18.117187-10.320313-27.878906-8.320313v72.199219h30v-63c-.757812 0-1.519531-.300781-2.121094-.878906zm0 0" fill="#6ca8bf"/><path d="m431.476562 246.484375c-7.558593-7.558594-18.117187-10.320313-27.878906-8.320313v28.042969c10.441406-1.761719 21.5.976563 30 8.257813v-27.101563c-.757812 0-1.519531-.296875-2.121094-.878906zm0 0" fill="#6ca8bf"/><path d="m431.476562 348.90625c-7.558593-7.5625-18.117187-10.320312-27.878906-8.320312v28.039062c10.441406-1.761719 21.5.980469 30 8.261719v-27.101563c-.757812 0-1.519531-.300781-2.121094-.878906zm0 0" fill="#6ca8bf"/><path d="m431.476562 314.765625c-7.558593-7.558594-18.117187-10.320313-27.878906-8.320313v28.039063c10.441406-1.757813 21.5.980469 30 8.261719v-27.101563c-.757812 0-1.519531-.300781-2.121094-.878906zm0 0" fill="#6ca8bf"/><path d="m431.476562 280.625c-7.558593-7.558594-18.117187-10.339844-27.878906-8.339844v28.058594c10.441406-1.757812 21.5.980469 30 8.261719v-27.101563c-.757812 0-1.519531-.296875-2.121094-.878906zm0 0" fill="#6ca8bf"/></svg>