<svg height="453pt" viewBox="-1 0 453 453.5381" width="453pt" xmlns="http://www.w3.org/2000/svg"><path d="m322.375 22.355469c-1.949219 23.125-26.050781 26.777343-26.050781 26.777343 20.691406.972657 25.847656 28.117188 25.847656 28.117188.441406-19.355469 26.644531-28.402344 26.644531-28.402344-19.628906-1.175781-26.441406-26.492187-26.441406-26.492187zm0 0" fill="#d7e057"/><path d="m348.996094 45.851562c-17.210938-1.03125-23.664063-24.046874-23.730469-24.28125-.378906-1.402343-1.703125-2.328124-3.164063-2.203124-1.449218.132812-2.597656 1.28125-2.71875 2.734374-1.71875 20.429688-22.628906 23.925782-23.507812 24.066407-1.527344.226562-2.625 1.578125-2.546875 3.121093.082031 1.539063 1.316406 2.765626 2.855469 2.839844 18.054687.851563 23 25.4375 23.046875 25.683594.273437 1.421875 1.515625 2.4375 2.941406 2.4375.085937 0 .167969-.003906.253906-.011719 1.527344-.128906 2.710938-1.386719 2.746094-2.921875.390625-17.015625 24.382813-25.550781 24.628906-25.636718 1.347657-.46875 2.183594-1.828126 1.984375-3.246094-.195312-1.414063-1.363281-2.496094-2.789062-2.582032zm-27.132813 20.691407c-2.714843-6.257813-7.417969-13.8125-15.175781-17.75 5.863281-2.808594 12.820312-7.828125 16.40625-16.542969 3.101562 6.140625 8.398438 13.757812 16.664062 17.441406-6.011718 3.277344-13.839843 8.808594-17.894531 16.851563zm0 0" fill="#3a312a"/><path d="m278.976562 56.316406c-1.378906 16.359375-18.425781 18.941406-18.425781 18.941406 14.636719.6875 18.285157 19.886719 18.285157 19.886719.3125-13.6875 18.84375-20.089843 18.84375-20.089843-13.882813-.832032-18.703126-18.738282-18.703126-18.738282zm0 0" fill="#d7e057"/><path d="m297.855469 72.058594c-11.53125-.6875-15.945313-16.371094-15.988281-16.527344-.378907-1.40625-1.707032-2.332031-3.164063-2.207031-1.449219.132812-2.597656 1.289062-2.71875 2.738281-1.15625 13.742188-15.292969 16.132812-15.882813 16.226562-1.527343.230469-2.625 1.582032-2.546874 3.121094.082031 1.542969 1.3125 2.769532 2.855468 2.84375 12.070313.566406 15.445313 17.289063 15.476563 17.453125.269531 1.421875 1.519531 2.4375 2.945312 2.4375.082031 0 .164063 0 .25-.007812 1.527344-.125 2.714844-1.386719 2.75-2.921875.261719-11.417969 16.664063-17.269532 16.824219-17.324219 1.351562-.46875 2.1875-1.828125 1.992188-3.246094-.195313-1.417969-1.363282-2.5-2.792969-2.585937zm-19.167969 13.589844c-1.847656-3.769532-4.679688-7.890626-8.890625-10.558594 3.707031-2.082032 7.390625-5.257813 9.738281-9.832032 2.117188 3.746094 5.308594 7.90625 9.882813 10.445313-3.699219 2.203125-7.976563 5.480469-10.730469 9.945313zm0 0" fill="#3a312a"/><path d="m278.976562 3c-1.378906 16.359375-18.425781 18.941406-18.425781 18.941406 14.636719.6875 18.285157 19.890625 18.285157 19.890625.3125-13.691406 18.84375-20.09375 18.84375-20.09375-13.882813-.832031-18.703126-18.738281-18.703126-18.738281zm0 0" fill="#d7e057"/><path d="m297.855469 18.742188c-11.53125-.6875-15.941407-16.367188-15.988281-16.527344-.378907-1.402344-1.707032-2.332032-3.164063-2.2031252-1.449219.1289062-2.597656 1.2851562-2.71875 2.7382812-1.15625 13.738281-15.292969 16.132812-15.882813 16.226562-1.527343.230469-2.625 1.578126-2.546874 3.121094.082031 1.539063 1.3125 2.769532 2.855468 2.84375 12.070313.566406 15.445313 17.285156 15.480469 17.449219.269531 1.425781 1.515625 2.441406 2.941406 2.441406.082031 0 .167969 0 .25-.011719 1.53125-.125 2.71875-1.386718 2.753907-2.921874.257812-11.417969 16.660156-17.265626 16.824218-17.324219 1.351563-.464844 2.1875-1.824219 1.992188-3.242188-.199219-1.421875-1.367188-2.5-2.796875-2.589843zm-19.167969 13.59375c-1.847656-3.773438-4.679688-7.894532-8.890625-10.5625 3.707031-2.082032 7.390625-5.257813 9.738281-9.832032 2.117188 3.75 5.308594 7.910156 9.882813 10.445313-3.699219 2.203125-7.976563 5.480469-10.730469 9.949219zm0 0" fill="#3a312a"/><path d="m322.828125 99.75c-3.070313 0-5.558594 2.488281-5.558594 5.558594v65.777344c0 3.066406 2.488281 5.554687 5.558594 5.554687s5.558594-2.488281 5.558594-5.554687v-65.777344c0-3.070313-2.488281-5.558594-5.558594-5.558594zm0 0" fill="#fce8cb"/><path d="m322.828125 96.75c-4.71875 0-8.558594 3.839844-8.558594 8.558594v65.777344c0 4.714843 3.839844 8.554687 8.558594 8.554687s8.558594-3.839844 8.558594-8.554687v-65.777344c0-4.71875-3.839844-8.558594-8.558594-8.558594zm2.558594 74.332031c0 1.410157-1.148438 2.558594-2.558594 2.558594-1.414063 0-2.558594-1.148437-2.558594-2.558594v-65.773437c0-1.410156 1.148438-2.558594 2.558594-2.558594s2.558594 1.148438 2.558594 2.558594zm0 0" fill="#3a312a"/><path d="m344.0625 99.75c-3.070312 0-5.558594 2.488281-5.558594 5.558594v65.777344c0 3.066406 2.488282 5.554687 5.558594 5.554687s5.554688-2.488281 5.554688-5.554687v-65.777344c0-3.070313-2.484376-5.558594-5.554688-5.558594zm0 0" fill="#fce8cb"/><path d="m344.058594 96.75c-4.71875 0-8.558594 3.839844-8.558594 8.558594v65.777344c0 4.714843 3.839844 8.554687 8.558594 8.554687s8.558594-3.839844 8.558594-8.554687v-65.777344c0-4.71875-3.839844-8.558594-8.558594-8.558594zm2.558594 74.332031c0 1.410157-1.144532 2.558594-2.554688 2.558594-1.414062 0-2.558594-1.148437-2.558594-2.558594v-65.773437c0-1.410156 1.148438-2.558594 2.558594-2.558594s2.554688 1.148438 2.554688 2.558594zm0 0" fill="#3a312a"/><path d="m365.292969 99.75c-3.070313 0-5.558594 2.488281-5.558594 5.558594v65.777344c0 3.066406 2.488281 5.554687 5.558594 5.554687 3.070312 0 5.558593-2.488281 5.558593-5.554687v-65.777344c0-3.070313-2.488281-5.558594-5.558593-5.558594zm0 0" fill="#fce8cb"/><path d="m365.292969 96.75c-4.71875 0-8.558594 3.839844-8.558594 8.558594v65.777344c0 4.714843 3.839844 8.554687 8.558594 8.554687s8.558593-3.839844 8.558593-8.554687v-65.777344c0-4.71875-3.839843-8.558594-8.558593-8.558594zm2.558593 74.332031c0 1.410157-1.148437 2.558594-2.558593 2.558594-1.414063 0-2.558594-1.148437-2.558594-2.558594v-65.773437c0-1.410156 1.148437-2.558594 2.558594-2.558594 1.410156 0 2.558593 1.148438 2.558593 2.558594zm0 0" fill="#3a312a"/><path d="m386.523438 99.75c-3.070313 0-5.554688 2.488281-5.554688 5.558594v65.777344c0 3.066406 2.484375 5.554687 5.554688 5.554687 3.070312 0 5.558593-2.488281 5.558593-5.554687v-65.777344c0-3.070313-2.488281-5.558594-5.558593-5.558594zm0 0" fill="#fce8cb"/><path d="m386.523438 96.75c-4.71875 0-8.558594 3.839844-8.558594 8.558594v65.777344c0 4.714843 3.839844 8.554687 8.558594 8.554687s8.558593-3.839844 8.558593-8.554687v-65.777344c.003907-4.71875-3.835937-8.558594-8.558593-8.558594zm2.5625 74.332031c0 1.410157-1.148438 2.558594-2.558594 2.558594s-2.558594-1.148437-2.558594-2.558594v-65.773437c0-1.410156 1.144531-2.558594 2.558594-2.558594 1.410156 0 2.558594 1.148438 2.558594 2.558594zm0 0" fill="#3a312a"/><path d="m407.757812 99.75c-3.070312 0-5.558593 2.488281-5.558593 5.558594v65.777344c0 3.066406 2.488281 5.554687 5.558593 5.554687 3.070313 0 5.558594-2.488281 5.558594-5.554687v-65.777344c0-3.070313-2.488281-5.558594-5.558594-5.558594zm0 0" fill="#fce8cb"/><path d="m407.757812 96.75c-4.714843 0-8.558593 3.839844-8.558593 8.558594v65.777344c0 4.714843 3.84375 8.554687 8.558593 8.554687 4.71875 0 8.558594-3.839844 8.558594-8.554687v-65.777344c0-4.71875-3.839844-8.558594-8.558594-8.558594zm2.558594 74.332031c0 1.410157-1.148437 2.558594-2.558594 2.558594-1.410156 0-2.558593-1.148437-2.558593-2.558594v-65.773437c0-1.410156 1.148437-2.558594 2.558593-2.558594 1.410157 0 2.558594 1.148438 2.558594 2.558594zm0 0" fill="#3a312a"/><path d="m428.992188 99.75c-3.070313 0-5.558594 2.488281-5.558594 5.558594v65.777344c0 3.066406 2.488281 5.554687 5.558594 5.554687 3.070312 0 5.558593-2.488281 5.558593-5.554687v-65.777344c0-3.070313-2.488281-5.558594-5.558593-5.558594zm0 0" fill="#fce8cb"/><path d="m428.992188 96.75c-4.71875 0-8.558594 3.839844-8.558594 8.558594v65.777344c0 4.714843 3.839844 8.554687 8.558594 8.554687s8.558593-3.839844 8.558593-8.554687v-65.777344c0-4.71875-3.839843-8.558594-8.558593-8.558594zm2.558593 74.332031c0 1.410157-1.148437 2.558594-2.558593 2.558594-1.410157 0-2.558594-1.148437-2.558594-2.558594v-65.773437c0-1.410156 1.148437-2.558594 2.558594-2.558594 1.410156 0 2.558593 1.148438 2.558593 2.558594zm0 0" fill="#3a312a"/><path d="m441.140625 160.179688-127.386719-.4375c-4.605468-.015626-8.246094 3.90625-7.886718 8.496093l6.4375 82.21875 2.078124 26.578125 7.128907 91.105469 3.300781 42.164063c1.738281 22.199218 20.21875 39.347656 42.484375 39.421874l18.328125.0625c22.265625.078126 40.863281-16.945312 42.75-39.132812l3.589844-42.136719 17.007812-199.789062c.386719-4.589844-3.226562-8.535157-7.832031-8.550781zm0 0" fill="#87796f" fill-rule="evenodd"/><path d="m449.140625 160.714844c-2.046875-2.238282-4.957031-3.523438-7.988281-3.535156l-127.390625-.4375h-.035157c-3.015624 0-5.921874 1.269531-7.976562 3.480468-2.0625 2.222656-3.109375 5.230469-2.871094 8.25l6.433594 82.21875c.128906 1.652344 1.566406 2.890625 3.222656 2.757813 1.652344-.132813 2.886719-1.574219 2.757813-3.226563l-6.433594-82.21875c-.109375-1.375.351563-2.691406 1.289063-3.699218.9375-1.011719 2.1875-1.523438 3.59375-1.5625l127.390624.4375c1.375.003906 2.648438.566406 3.582032 1.585937.933594 1.015625 1.378906 2.332031 1.265625 3.707031l-20.597657 241.925782c-1.738281 20.433593-19.128906 36.390624-39.617187 36.390624h-.136719l-18.324218-.0625c-20.550782-.070312-37.902344-16.171874-39.503907-36.660156l-10.425781-133.269531c-.128906-1.648437-1.546875-2.875-3.226562-2.753906-1.652344.128906-2.886719 1.574219-2.757813 3.226562l10.429687 133.269531c1.84375 23.574219 21.816407 42.105469 45.460938 42.1875l18.328125.0625h.15625c23.578125 0 43.59375-18.363281 45.59375-41.878906l20.597656-241.925781c.257813-3.019531-.769531-6.035156-2.816406-8.269531zm0 0" fill="#3a312a"/><path d="m403.988281 368.425781-22.703125-.078125-59.773437-.207031 3.300781 42.164063c1.734375 22.199218 20.214844 39.347656 42.484375 39.421874l18.324219.0625c22.265625.078126 40.863281-16.945312 42.753906-39.132812l3.585938-42.136719zm0 0" fill="#8ac6dd" fill-rule="evenodd"/><path d="m434.171875 366.492188c-.566406-.617188-1.363281-.96875-2.199219-.972657l-110.453125-.378906c-.84375 0-1.636719.34375-2.207031.960937-.570312.613282-.859375 1.4375-.792969 2.273438l3.300781 42.164062c1.84375 23.574219 21.816407 42.105469 45.460938 42.1875l18.328125.0625h.15625c23.578125 0 43.59375-18.363281 45.59375-41.878906l3.585937-42.136718c.074219-.832032-.207031-1.660157-.773437-2.28125zm-8.789063 43.910156c-1.738281 20.429687-19.128906 36.386718-39.617187 36.386718h-.136719l-18.324218-.0625c-20.550782-.070312-37.902344-16.171874-39.503907-36.65625l-3.046875-38.917968 56.519532.195312h.003906l47.417968.164063zm0 0" fill="#3a312a"/><path d="m404.832031 186.714844-54.949219-.1875c-3.839843-.011719-6.960937 3.085937-6.972656 6.925781l-.082031 23.402344c-.011719 3.835937 3.085937 6.957031 6.925781 6.96875l54.949219.191406c3.839844.011719 6.957031-3.085937 6.972656-6.925781l.078125-23.402344c.011719-3.835938-3.085937-6.957031-6.921875-6.972656zm0 0" fill="#d7e057" fill-rule="evenodd"/><path d="m404.84375 183.714844-54.949219-.1875h-.039062c-2.640625 0-5.128907 1.027344-7.007813 2.890625-1.882812 1.871093-2.925781 4.363281-2.9375 7.023437l-.078125 23.402344c-.019531 5.488281 4.429688 9.960938 9.914063 9.980469l54.949218.1875h.035157c5.46875 0 9.929687-4.441407 9.949219-9.914063l.078124-23.402344c.015626-5.480468-4.429687-9.960937-9.914062-9.980468zm3.832031 33.363281c-.007812 2.175781-1.800781 3.867187-3.960937 3.933594l-54.953125-.1875c-2.175781-.007813-3.9375-1.785157-3.933594-3.960938l.082031-23.402343c.003906-1.054688.417969-2.042969 1.164063-2.785157.746093-.742187 1.734375-1.148437 2.78125-1.148437h.015625l54.949218.1875c2.175782.007812 3.941407 1.785156 3.933594 3.960937zm0 0" fill="#3a312a"/><path d="m378.144531 255.578125-2.046875-.007813c-9.015625-.027343-16.347656 7.253907-16.378906 16.269532l-.179688 52.351562c-.03125 9.015625 7.253907 16.351563 16.269532 16.378906l2.046875.011719c9.015625.027344 16.347656-7.257812 16.378906-16.269531l.179687-52.351562c.027344-9.019532-7.253906-16.351563-16.269531-16.382813zm0 0" fill="#f16c7a" fill-rule="evenodd"/><path d="m391.800781 258.285156c-3.640625-3.664062-8.484375-5.6875-13.648437-5.707031l-2.042969-.007813c-5.125.039063-10.019531 1.976563-13.683594 5.617188-3.664062 3.636719-5.691406 8.484375-5.707031 13.644531l-.175781 52.351563c-.019531 5.164062 1.972656 10.023437 5.613281 13.683594 3.636719 3.664062 8.484375 5.6875 13.644531 5.707031l2.042969.007812c.023438-.007812.046875 0 .070312 0 10.625 0 19.285157-8.625 19.324219-19.261719l.175781-52.347656c.015626-5.164062-1.980468-10.027344-5.613281-13.6875zm-.566406 66.015625c-.011719 3.558594-1.410156 6.898438-3.933594 9.40625-2.515625 2.5-5.847656 3.875-9.390625 3.875h-.046875l-2.042969-.011719c-3.5625-.011718-6.902343-1.410156-9.410156-3.933593-2.507812-2.523438-3.882812-5.875-3.871094-9.433594l.179688-52.351563c.011719-3.5625 1.410156-6.902343 3.933594-9.410156 2.511718-2.5 5.84375-3.871094 9.386718-3.871094h.046876l2.046874.003907c3.558594.015625 6.898438 1.410156 9.410157 3.9375 2.507812 2.523437 3.878906 5.875 3.867187 9.433593zm0 0" fill="#3a312a"/><path d="m206.171875 337.839844h-39.058594v-25.386719c-10.804687 7.488281-21.980469 11.90625-32.832031 11.90625-10.402344 0-21.382812-4.460937-32.144531-12.042969h-.664063v25.519532h-39.082031c-32.652344 0-59.121094 26.46875-59.121094 59.121093v53.574219h262.023438v-53.574219c0-32.652343-26.464844-59.117187-59.121094-59.117187zm0 0" fill="#fce8cb"/><path d="m206.171875 334.839844h-36.058594v-22.386719c0-1.117187-.621093-2.140625-1.609375-2.660156-.988281-.515625-2.183594-.441407-3.097656.191406-10.886719 7.550781-21.355469 11.375-31.125 11.375-9.355469 0-19.585938-3.867187-30.417969-11.492187-.503906-.355469-1.109375-.546876-1.726562-.546876h-.664063c-1.65625 0-3 1.339844-3 3v22.519532h-36.082031c-34.253906 0-62.121094 27.867187-62.121094 62.117187v53.578125c0 1.65625 1.339844 3 3 3h89.78125c1.65625 0 3-1.34375 3-3 0-1.660156-1.34375-3-3-3h-86.78125v-50.578125c0-30.941406 25.175781-56.117187 56.121094-56.117187h39.082031c1.660156 0 3-1.34375 3-3v-20.355469c10.402344 6.558594 20.410156 9.878906 29.808594 9.878906 9.554688 0 19.566406-3.152343 29.828125-9.382812v19.859375c0 1.660156 1.34375 3 3 3h39.0625c30.945313 0 56.121094 25.175781 56.121094 56.121094v50.574218h-139.710938c-1.65625 0-3 1.34375-3 3 0 1.660156 1.34375 3 3 3h142.710938c1.65625 0 3-1.339844 3-3v-53.574218c0-34.253907-27.867188-62.121094-62.121094-62.121094zm0 0" fill="#3a312a"/><path d="m206.171875 337.820312h-9.34375l.242187.175782-40.628906 53.886718-20.964844-15.796874-20.964843 15.796874-40.628907-53.886718.242188-.175782h-11.734375c-32.652344 0-59.121094 26.46875-59.121094 59.121094v53.597656h262.023438v-53.597656c.003906-32.652344-26.464844-59.121094-59.121094-59.121094zm0 0" fill="#8ac6dd"/><path d="m206.171875 334.820312h-9.34375c-1.296875 0-2.449219.832032-2.851563 2.070313-.039062.117187-.066406.230469-.089843.347656l-38.035157 50.445313-18.570312-13.996094c-1.070312-.804688-2.542969-.804688-3.613281 0l-18.570313 13.992188-38.03125-50.445313c-.023437-.113281-.054687-.230469-.089844-.347656-.40625-1.234375-1.554687-2.070313-2.851562-2.070313h-11.734375c-34.253906 0-62.121094 27.871094-62.121094 62.125v53.597656c0 1.65625 1.34375 3 3 3h89.78125c1.660157 0 3-1.34375 3-3 0-1.660156-1.339843-3-3-3h-86.78125v-50.597656c0-30.949218 25.175781-56.125 56.121094-56.125h9.859375l39.863281 52.871094c.996094 1.324219 2.878907 1.585938 4.203125.589844l19.160156-14.4375 19.160157 14.4375c1.324219.996094 3.203125.730468 4.203125-.589844l39.859375-52.871094h7.476562c30.945313 0 56.121094 25.175782 56.121094 56.125v50.597656h-139.714844c-1.65625 0-3 1.339844-3 3 0 1.65625 1.34375 3 3 3h142.710938c1.65625 0 3-1.34375 3-3v-53.597656c.003906-34.253906-27.867188-62.121094-62.121094-62.121094zm0 0" fill="#3a312a"/><path d="m41.671875 169.789062c-11.871094-4.914062-25.476563.722657-30.394531 12.589844-4.917969 11.871094.71875 25.480469 12.589844 30.394532 11.867187 4.917968 25.476562-.71875 30.394531-12.589844 4.914062-11.867188-.722657-25.476563-12.589844-30.394532zm0 0" fill="#fce8cb" fill-rule="evenodd"/><path d="m32.761719 165.015625c-14.480469 0-26.261719 11.78125-26.261719 26.261719 0 14.480468 11.78125 26.261718 26.261719 26.261718 14.484375 0 26.265625-11.78125 26.265625-26.261718 0-14.480469-11.78125-26.261719-26.265625-26.261719zm0 46.527344c-11.171875 0-20.261719-9.089844-20.261719-20.261719s9.089844-20.261719 20.261719-20.261719c11.175781 0 20.265625 9.089844 20.265625 20.261719s-9.089844 20.261719-20.265625 20.261719zm0 0" fill="#3a312a"/><path d="m259.058594 190.554688c-.394532-12.84375-11.125-22.933594-23.964844-22.539063-12.84375.390625-22.933594 11.121094-22.539062 23.960937.390624 12.839844 11.121093 22.929688 23.960937 22.539063 12.84375-.394531 22.933594-11.121094 22.542969-23.960937zm0 0" fill="#fce8cb" fill-rule="evenodd"/><path d="m235.808594 165.015625c-14.484375 0-26.261719 11.78125-26.261719 26.261719 0 14.480468 11.78125 26.261718 26.261719 26.261718 14.476562 0 26.261718-11.78125 26.261718-26.261718 0-14.480469-11.78125-26.261719-26.261718-26.261719zm0 46.527344c-11.171875 0-20.261719-9.089844-20.261719-20.261719s9.089844-20.261719 20.261719-20.261719 20.261718 9.089844 20.261718 20.261719-9.089843 20.261719-20.261718 20.261719zm0 0" fill="#3a312a"/><path d="m134.285156 76.863281c-56.953125 0-103.125 46.171875-103.125 103.125s57.046875 144.375 103.125 144.375c48.273438 0 103.125-87.421875 103.125-144.375s-46.167968-103.125-103.125-103.125zm0 0" fill="#fce8cb"/><g fill="#3a312a"><path d="m134.285156 73.859375c-58.519531 0-106.128906 47.609375-106.128906 106.128906 0 27.675781 13.339844 64.171875 34.816406 95.25 22.554688 32.640625 49.214844 52.128907 71.3125 52.128907 23.265625 0 49.5625-19.003907 72.144532-52.140626 20.960937-30.757812 33.980468-67.25 33.980468-95.238281 0-58.519531-47.605468-106.128906-106.125-106.128906zm67.1875 197.988281c-21.132812 31.007813-46.25 49.519532-67.1875 49.519532-20.128906 0-44.941406-18.519532-66.375-49.535157-20.820312-30.128906-33.753906-65.320312-33.753906-91.84375 0-55.207031 44.917969-100.125 100.128906-100.125 55.210938 0 100.125 44.914063 100.125 100.125 0 26.847657-12.621094 62.042969-32.9375 91.859375zm0 0"/><path d="m97.875 168.757812c-5.558594 0-10.066406 4.507813-10.066406 10.066407 0 5.558593 4.507812 10.066406 10.066406 10.066406s10.066406-4.507813 10.066406-10.066406c0-5.558594-4.507812-10.066407-10.066406-10.066407zm0 0"/><path d="m170.695312 168.757812c-5.558593 0-10.066406 4.507813-10.066406 10.066407 0 5.558593 4.507813 10.066406 10.066406 10.066406 5.558594 0 10.066407-4.507813 10.066407-10.066406 0-5.558594-4.507813-10.066407-10.066407-10.066407zm0 0"/></g><path d="m77.757812 195.785156c-9.574218 0-17.339843 5.804688-17.339843 12.964844 0 7.15625 7.765625 12.960938 17.339843 12.960938 9.578126 0 17.339844-5.804688 17.339844-12.960938 0-7.160156-7.761718-12.964844-17.339844-12.964844zm0 0" fill="#f5978a"/><path d="m190.8125 195.785156c-9.578125 0-17.339844 5.804688-17.339844 12.964844 0 7.15625 7.761719 12.960938 17.339844 12.960938 9.574219 0 17.335938-5.804688 17.335938-12.960938.003906-7.160156-7.757813-12.964844-17.335938-12.964844zm0 0" fill="#f5978a"/><path d="m242.214844 156.148438c0-56.359376-47.789063-102.046876-106.738282-102.046876-58.953124 0-106.742187 45.6875-106.742187 102.050782 0 5.964844 1.078125 10.410156 3.085937 15.960937.945313 2.617188 16.230469-5.742187 17.53125-6.65625 6.507813-4.582031 11.824219-10.792969 15.800782-17.660156 1.644531-2.851563 3.015625-5.757813 4.117187-8.664063 3.519531-9.269531 13.078125-35.066406 22.785157-33.042968 13.015624 2.714844 27.769531 4.25 43.421874 4.25 15.648438 0 30.402344-1.535156 43.417969-4.25 9.707031-2.023438 19.265625 23.773437 22.785157 33.042968 1.101562 2.90625 2.472656 5.808594 4.117187 8.664063 6.566406 11.359375 17.65625 22.171875 31.148437 24.140625.035157-.652344.859376-.875 1.472657-1.097656 4.417969-1.605469 3.796875-11.148438 3.796875-14.691406zm0 0" fill="#87796f"/><path d="m245.226562 157.300781-.011718-1.152343c0-57.921876-49.230469-105.046876-109.738282-105.046876-60.511718 0-109.742187 47.125-109.742187 105.046876 0 6.621093 1.25 11.40625 3.265625 16.984374.390625 1.082032 1.269531 1.910157 2.410156 2.269532.386719.125.835938.179687 1.332032.179687 5.777343 0 18.210937-7.589843 18.335937-7.675781 6.511719-4.585938 12.277344-11.019531 16.675781-18.613281 1.691406-2.941407 3.148438-6 4.320313-9.097657l.226562-.585937c10.566407-27.882813 16.542969-31.125 19.140625-30.582031 13.71875 2.859375 28.535156 4.308594 44.035156 4.308594s30.316407-1.449219 44.03125-4.308594c2.597657-.539063 8.578126 2.699218 19.144532 30.582031l.226562.585937c1.171875 3.097657 2.625 6.160157 4.320313 9.101563 8.203125 14.1875 20.65625 23.761719 33.316406 25.605469.839844.125 1.679687-.113282 2.332031-.644532.210938-.171874.390625-.367187.542969-.582031.027344-.007812.046875-.015625.050781-.019531 5.992188-2.175781 5.859375-11.398438 5.785156-16.355469zm-7.980468 10.769531c-.296875.109376-.832032.292969-1.382813.632813-10.34375-2.117187-20.515625-10.382813-27.464843-22.402344-1.535157-2.664062-2.847657-5.433593-3.910157-8.234375l-.222656-.585937c-6.90625-18.214844-15.402344-36.542969-25.980469-34.328125-13.316406 2.777344-27.71875 4.183594-42.808594 4.183594-15.085937 0-29.492187-1.40625-42.808593-4.183594-10.570313-2.214844-19.074219 16.113281-25.980469 34.328125l-.21875.585937c-1.0625 2.796875-2.378906 5.570313-3.910156 8.226563-3.960938 6.839843-9.125 12.621093-14.921875 16.703125-1.792969 1.214844-10.046875 5.457031-13.578125 6.425781-1.449219-4.28125-2.320313-8.183594-2.320313-13.273437 0-54.617188 46.535157-99.046876 103.738281-99.046876 57.203126 0 103.742188 44.433594 103.742188 99.046876l.011719 1.242187c.125 8.625-1.097657 10.363281-1.984375 10.679687zm0 0" fill="#3a312a"/><path d="m73.90625 337.984375 21.054688-15.871094 40.621093 53.894531-21.054687 15.871094zm0 0" fill="#87796f"/><path d="m137.957031 374.210938-40.617187-53.894532c-.476563-.636718-1.1875-1.054687-1.976563-1.167968-.789062-.109376-1.589843.097656-2.222656.578124l-21.054687 15.867188c-1.324219 1-1.585938 2.878906-.589844 4.203125l40.617187 53.894531c.476563.632813 1.191407 1.050782 1.976563 1.164063.140625.019531.277344.03125.417968.03125.648438 0 1.28125-.210938 1.804688-.605469l21.054688-15.867188c1.320312-1 1.585937-2.882812.589843-4.203124zm-22.859375 13.472656-37.003906-49.101563 16.261719-12.257812 37.003906 49.101562zm0 0" fill="#3a312a"/><path d="m135.394531 376.03125 40.621094-53.894531 21.054687 15.871093-40.621093 53.894532zm0 0" fill="#87796f"/><path d="m198.863281 335.59375-21.050781-15.867188c-.636719-.476562-1.4375-.6875-2.222656-.578124-.789063.113281-1.5.53125-1.980469 1.167968l-40.613281 53.894532c-1 1.324218-.734375 3.203124.589844 4.199218l21.054687 15.871094c.523437.394531 1.15625.601562 1.804687.601562.136719 0 .277344-.007812.417969-.027343.789063-.113281 1.5-.53125 1.976563-1.167969l40.617187-53.894531c.996094-1.320313.730469-3.203125-.59375-4.199219zm-43.011719 52.089844-16.261718-12.257813 37.003906-49.101562 16.261719 12.257812zm0 0" fill="#3a312a"/><path d="m52.347656 405.195312c-1.65625 0-3 1.339844-3 3v42.34375c0 1.65625 1.34375 3 3 3 1.660156 0 3-1.34375 3-3v-42.34375c0-1.65625-1.339844-3-3-3zm0 0" fill="#3a312a"/><path d="m218.601562 405.195312c-1.660156 0-3 1.339844-3 3v42.34375c0 1.65625 1.339844 3 3 3 1.65625 0 3-1.34375 3-3v-42.34375c0-1.65625-1.34375-3-3-3zm0 0" fill="#3a312a"/><path d="m133.546875 17.058594c-72.695313 42.765625-114.890625-39.441406-114.890625-1.949219 0 11.847656 4.773438 23.667969 11.042969 34.421875l17.351562 24.59375c17.503907 22.046875 38.445313 45.546875 63.734375 52.738281 40.734375 11.582031 112.835938-2.867187 112.835938-61.5-.003906-37.492187-31.425782-82.808593-90.074219-48.304687zm0 0" fill="#87796f"/><path d="m196.816406 8.105469c-12.480468-7.140625-33.855468-11.828125-64.792968 6.367187-42.28125 24.878906-73.773438 5.992188-92.589844-5.289062-8.941406-5.367188-14.84375-8.90625-19.4375-6.308594-3.847656 2.179688-4.339844 7.683594-4.339844 12.234375 0 10.960937 3.746094 22.714844 11.449219 35.9375.042969.074219.089843.148437.140625.21875l17.347656 24.59375c.035156.042969.066406.089844.101562.132813 18.753907 23.613281 39.640626 46.46875 65.269532 53.757812 8.609375 2.445312 18.726562 3.789062 29.359375 3.789062 21.640625 0 45.394531-5.570312 62.816406-18.730468 16.015625-12.09375 24.476563-29.191406 24.476563-49.445313 0-20.015625-9.214844-45.484375-29.800782-57.257812zm1.707032 101.917969c-24.417969 18.441406-62.203126 20.976562-86.917969 13.953124-23.972657-6.816406-44.039063-28.84375-62.15625-51.644531l-17.222657-24.421875c-7.113281-12.230468-10.570312-22.964844-10.570312-32.800781 0-6.210937 1.246094-6.984375 1.296875-7.015625 1.542969-.882812 8.394531 3.230469 13.394531 6.230469 18.648438 11.183593 53.363282 32.003906 98.71875 5.320312 22.523438-13.25 42.84375-15.441406 58.769532-6.335937 18.5 10.582031 26.78125 33.769531 26.78125 52.054687 0 18.5625-7.433594 33.585938-22.09375 44.660157zm0 0" fill="#3a312a"/><path d="m163.832031 243.09375c-1.550781-.582031-3.28125.203125-3.863281 1.753906-2.046875 5.460938-10.046875 15.789063-25.6875 15.789063-12.214844 0-20.652344-5.242188-25.785156-16.023438-.714844-1.496093-2.503906-2.132812-4-1.421875-1.496094.710938-2.132813 2.503906-1.417969 4 6.144531 12.902344 16.640625 19.445313 31.203125 19.445313 16.445312 0 27.753906-10.203125 31.304688-19.683594.582031-1.550781-.203126-3.28125-1.753907-3.859375zm0 0" fill="#3a312a"/><path d="m444.722656 164.769531c-.941406-1.019531-2.222656-1.578125-3.601562-1.578125h-30c1.378906 0 2.660156.558594 3.601562 1.578125.917969 1.019531 1.378906 2.339844 1.257813 3.699219l-1.859375 21.722656c.421875 1.078125.640625 2.238282.640625 3.457032v.042968l-.082031 23.417969c-.019532 3-1.359376 5.679687-3.480469 7.5l-12 140.800781 30 .101563 16.78125-197.042969c.121093-1.359375-.335938-2.679688-1.257813-3.699219zm0 0" fill="#695b51"/><path d="m398.703125 371.511719-3.320313 38.898437c-1.558593 18.359375-15.78125 33.160156-33.558593 35.898438 1.800781.28125 3.617187.421875 5.480469.421875l18.320312.058593c20.578125.121094 38.019531-15.917968 39.757812-36.378906l3.320313-38.898437zm0 0" fill="#6ca8bf"/></svg>