<svg height="454pt" viewBox="0 -2 454.24744 454" width="454pt" xmlns="http://www.w3.org/2000/svg"><path d="m65.367188 101.140625c-2.027344 23.117187-26.140626 26.6875-26.140626 26.6875 20.691407 1.046875 25.753907 28.207031 25.753907 28.207031.507812-19.351562 26.738281-28.3125 26.738281-28.3125-19.621094-1.242187-26.351562-26.582031-26.351562-26.582031zm0 0" fill="#d7e057"/><path d="m91.910156 124.726562c-17.203125-1.085937-23.582031-24.128906-23.644531-24.359374-.375-1.410157-1.695313-2.335938-3.160156-2.214844-1.449219.128906-2.597657 1.273437-2.722657 2.726562-1.792968 20.421875-22.710937 23.847656-23.59375 23.984375-1.527343.222657-2.632812 1.570313-2.558593 3.109375.074219 1.542969 1.304687 2.773438 2.847656 2.851563 18.050781.914062 22.90625 25.515625 22.953125 25.765625.269531 1.425781 1.519531 2.445312 2.949219 2.445312.078125 0 .160156-.003906.242187-.011718 1.527344-.125 2.714844-1.375 2.757813-2.910157.445312-17.015625 24.46875-25.472656 24.710937-25.554687 1.355469-.460938 2.191406-1.820313 2-3.238282-.191406-1.414062-1.355468-2.5-2.78125-2.59375zm-27.203125 20.601563c-2.695312-6.269531-7.371093-13.839844-15.113281-17.804687 5.871094-2.789063 12.84375-7.78125 16.460938-16.488282 3.078124 6.152344 8.351562 13.789063 16.605468 17.5-6.023437 3.257813-13.871094 8.761719-17.953125 16.792969zm0 0" fill="#3a312a"/><path d="m21.851562 134.953125c-1.433593 16.351563-18.488281 18.875-18.488281 18.875 14.632813.742187 18.214844 19.953125 18.214844 19.953125.359375-13.6875 18.914063-20.027344 18.914063-20.027344-13.878907-.878906-18.640626-18.800781-18.640626-18.800781zm0 0" fill="#d7e057"/><path d="m40.683594 150.757812c-11.488282-.722656-15.855469-16.308593-15.929688-16.582031-.375-1.40625-1.679687-2.320312-3.15625-2.214843-1.453125.125-2.605468 1.277343-2.730468 2.730468-1.203126 13.734375-15.351563 16.078125-15.941407 16.171875-1.527343.222657-2.628906 1.570313-2.558593 3.109375.074218 1.542969 1.304687 2.773438 2.847656 2.851563 12.066406.613281 15.386718 17.339843 15.417968 17.503906.269532 1.429687 1.515626 2.453125 2.949219 2.453125.078125 0 .15625-.003906.238281-.011719 1.53125-.121093 2.722657-1.378906 2.761719-2.910156.300781-11.417969 16.722657-17.210937 16.882813-17.269531 1.355468-.460938 2.195312-1.816406 2.003906-3.234375s-1.359375-2.503907-2.785156-2.597657zm-19.214844 13.527344c-1.835938-3.777344-4.65625-7.910156-8.859375-10.589844 3.714844-2.070312 7.410156-5.234374 9.773437-9.796874 2.101563 3.753906 5.28125 7.925781 9.847657 10.480468-3.707031 2.1875-7.996094 5.449219-10.761719 9.90625zm0 0" fill="#3a312a"/><path d="m22.039062 81.636719c-1.4375 16.355469-18.492187 18.878906-18.492187 18.878906 14.632813.738281 18.214844 19.949219 18.214844 19.949219.363281-13.6875 18.914062-20.023438 18.914062-20.023438-13.878906-.878906-18.636719-18.804687-18.636719-18.804687zm0 0" fill="#d7e057"/><path d="m40.863281 97.445312c-11.488281-.726562-15.855469-16.3125-15.929687-16.582031-.375-1.40625-1.683594-2.328125-3.15625-2.214843-1.453125.125-2.605469 1.273437-2.730469 2.726562-1.203125 13.738281-15.351563 16.082031-15.941406 16.171875-1.527344.226563-2.628907 1.574219-2.554688 3.113281.074219 1.542969 1.300781 2.773438 2.84375 2.851563 12.070313.609375 15.386719 17.339843 15.417969 17.503906.265625 1.429687 1.515625 2.449219 2.949219 2.449219.078125 0 .15625 0 .238281-.007813 1.53125-.125 2.722656-1.378906 2.761719-2.910156.300781-11.417969 16.722656-17.210937 16.886719-17.265625 1.351562-.464844 2.191406-1.820312 2-3.238281-.1875-1.417969-1.355469-2.503907-2.785157-2.597657zm-19.214843 13.523438c-1.835938-3.777344-4.652344-7.910156-8.855469-10.589844 3.714843-2.070312 7.410156-5.234375 9.773437-9.800781 2.101563 3.753906 5.28125 7.925781 9.847656 10.484375-3.707031 2.1875-7.996093 5.453125-10.765624 9.90625zm0 0" fill="#3a312a"/><path d="m238.550781 172.503906c0-31.527344-5.035156-57.085937-11.242187-57.085937-6.210938 0-11.246094 25.558593-11.246094 57.085937 0 31.53125 5.035156 57.085938 11.246094 57.085938 6.207031 0 11.242187-25.554688 11.242187-57.085938zm0 0" fill="#87796f"/><path d="m227.308594 112.417969c-14.085938 0-14.246094 57.636719-14.246094 60.085937 0 2.457032.160156 60.085938 14.246094 60.085938 14.082031 0 14.242187-57.628906 14.242187-60.085938 0-2.453125-.160156-60.085937-14.242187-60.085937zm0 114.074219c-3.078125-2.273438-8.246094-21.472657-8.246094-53.988282s5.167969-51.710937 8.246094-53.984375c3.074218 2.273438 8.242187 21.472657 8.242187 53.984375 0 32.511719-5.167969 51.710938-8.242187 53.988282zm0 0" fill="#3a312a"/><path d="m120.628906 204.132812c-18.027344-25.863281-36.769531-43.957031-41.863281-40.40625-5.097656 3.550782 5.386719 27.398438 23.414063 53.261719 18.027343 25.867188 36.765624 43.960938 41.863281 40.410157 5.09375-3.550782-5.386719-27.398438-23.414063-53.265626zm0 0" fill="#87796f"/><path d="m143.753906 237.925781c-4.5-10.230469-11.835937-22.839843-20.664062-35.507812-1.402344-2.011719-34.5-49.199219-46.039063-41.152344-11.554687 8.050781 21.265625 55.429687 22.667969 57.441406 1.289062 1.855469 29.488281 42.078125 42.945312 42.078125 1.148438 0 2.1875-.292968 3.09375-.925781 3.988282-2.777344 3.351563-9.746094-2.003906-21.933594zm-1.484375 16.929688c-3.824219-.109375-19.039062-12.902344-37.628906-39.578125-18.585937-26.671875-25.324219-45.378906-24.101563-49.003906 3.820313.105468 19.039063 12.902343 37.628907 39.578124 18.589843 26.675782 25.324219 45.382813 24.101562 49.003907zm0 0" fill="#3a312a"/><path d="m53.957031 272.175781c-23.6875-20.808593-46.207031-33.898437-50.304687-29.234375-4.101563 4.667969 11.773437 25.316406 35.457031 46.128906 23.6875 20.8125 46.207031 33.902344 50.304687 29.238282 4.097657-4.667969-11.777343-25.320313-35.457031-46.132813zm0 0" fill="#87796f"/><path d="m84.480469 299.46875c-6.8125-8.863281-16.953125-19.355469-28.546875-29.546875-11.59375-10.1875-23.300782-18.890625-32.964844-24.511719-11.507812-6.6875-18.363281-8.097656-21.570312-4.449218-3.210938 3.652343-.925782 10.265624 7.1875 20.816406 6.8125 8.863281 16.953124 19.355468 28.546874 29.542968 1.617188 1.421876 35.265626 30.824219 49.746094 30.824219 2.011719 0 3.65625-.570312 4.792969-1.859375 3.207031-3.648437.921875-10.265625-7.191406-20.816406zm-43.390625-12.652344c-24.425782-21.460937-35.433594-38.019531-35.113282-41.828125 3.734376-.820312 21.574219 7.984375 45.996094 29.445313 24.425782 21.460937 35.4375 38.015625 35.113282 41.828125-3.734376.824219-21.574219-7.984375-45.996094-29.445313zm0 0" fill="#3a312a"/><path d="m375.570312 163.726562c-5.097656-3.550781-23.839843 14.542969-41.863281 40.410157-18.027343 25.867187-28.511719 49.714843-23.414062 53.265625 5.097656 3.550781 23.839843-14.539063 41.863281-40.410156 18.023438-25.867188 28.507812-49.714844 23.414062-53.265626zm0 0" fill="#87796f"/><path d="m377.285156 161.265625c-11.542968-8.046875-44.636718 39.140625-46.039062 41.152344-8.828125 12.667969-16.164063 25.277343-20.664063 35.507812-5.355469 12.1875-5.992187 19.15625-2.003906 21.933594.90625.632813 1.945313.925781 3.09375.925781 13.457031 0 41.652344-40.222656 42.945313-42.078125 1.402343-2.011719 34.21875-49.390625 22.667968-57.441406zm-27.589844 54.011719c-18.589843 26.675781-33.808593 39.472656-37.632812 39.578125-1.222656-3.621094 5.511719-22.328125 24.101562-49.003907 18.59375-26.679687 33.808594-39.472656 37.632813-39.578124 1.222656 3.621093-5.515625 22.332031-24.101563 49.003906zm0 0" fill="#3a312a"/><path d="m450.683594 242.941406c-4.101563-4.664062-26.621094 8.425782-50.304688 29.234375-23.683594 20.8125-39.558594 41.464844-35.460937 46.128907 4.101562 4.667968 26.625-8.421876 50.304687-29.234376 23.683594-20.8125 39.558594-41.464843 35.460938-46.128906zm0 0" fill="#87796f"/><path d="m452.9375 240.960938c-3.207031-3.652344-10.058594-2.234376-21.570312 4.453124-9.664063 5.617188-21.371094 14.320313-32.964844 24.511719-11.597656 10.191407-21.734375 20.683594-28.546875 29.542969-8.113281 10.554688-10.394531 17.167969-7.1875 20.820312 1.132812 1.289063 2.777343 1.859376 4.792969 1.859376 14.480468-.003907 48.128906-29.402344 49.746093-30.824219 1.839844-1.621094 45.023438-39.78125 35.730469-50.363281zm-39.695312 45.855468c-24.425782 21.460938-42.246094 30.257813-45.996094 29.441406-.320313-3.808593 10.6875-20.367187 35.113281-41.828124 24.421875-21.460938 42.246094-30.269532 45.996094-29.445313.320312 3.816406-10.691407 20.371094-35.113281 41.832031zm0 0" fill="#3a312a"/><path d="m408.105469 284.441406c-8.835938-11.628906-21.363281-19.695312-35.664063-23.316406-.160156-3.113281-.5-6.207031-1.042968-9.261719-3.683594-20.726562-15.941407-37.976562-33.636719-47.320312-16.542969-8.742188-36.121094-9.664063-54.289063-2.683594-12.367187-19.796875-32.984375-32.796875-56.304687-32.796875-23.265625 0-43.847657 12.949219-56.222657 32.675781-18.078124-6.84375-37.515624-5.886719-53.953124 2.800781-17.695313 9.347657-29.957032 26.597657-33.640626 47.324219-.523437 2.9375-.851562 5.917969-1.019531 8.914063-14.867187 3.441406-27.902343 11.664062-37.015625 23.660156-12.109375 15.933594-15.964844 36.746094-10.570312 57.09375 1.117187 4.21875 2.617187 8.351562 4.464844 12.347656l17.289062 24.25c2.453125 2.382813 5.0625 4.628906 7.820312 6.726563 14.789063 11.242187 32.023438 16.730469 48.609376 16.730469 3.871093 0 7.707031-.296876 11.46875-.894532 7.300781 16.292969 20.578124 29.15625 38.789062 36.9375 20.574219 8.785156 45 9.914063 63.984375 9.914063 18.980469 0 43.40625-1.128907 63.980469-9.914063 18.171875-7.765625 31.429687-20.582031 38.742187-36.820312 3.480469.503906 7.019531.777344 10.589844.777344 16.589844 0 33.820313-5.488282 48.609375-16.730469 14.613281-11.101563 25.117188-26.488281 29.578125-43.324219 5.394531-20.347656 1.539063-41.160156-10.566406-57.089844zm0 0" fill="#fce8cb"/><path d="m410.492188 282.628906c-8.777344-11.554687-20.910157-19.765625-35.195313-23.839844-.199219-2.542968-.515625-5.042968-.945313-7.453124-3.847656-21.640626-16.671874-39.667969-35.191406-49.449219-16.464844-8.699219-36.183594-10-54.46875-3.667969-13.476562-20.179688-34.8125-32.15625-57.523437-32.15625-22.660157 0-43.964844 11.933594-57.445313 32.050781-18.1875-6.203125-37.789062-4.867187-54.132812 3.773438-18.519532 9.78125-31.347656 27.804687-35.195313 49.453125-.402343 2.269531-.707031 4.632812-.90625 7.054687-14.6875 3.894531-27.605469 12.4375-36.5625 24.230469-12.675781 16.675781-16.714843 38.425781-11.082031 59.675781 1.152344 4.347657 2.714844 8.667969 4.644531 12.835938.691407 1.503906 2.476563 2.160156 3.980469 1.464843 1.503906-.695312 2.160156-2.476562 1.464844-3.980468-1.785156-3.855469-3.226563-7.84375-4.289063-11.859375-5.15625-19.449219-1.492187-39.316407 10.054688-54.507813 8.550781-11.253906 21.089843-19.261718 35.304687-22.550781 1.300782-.300781 2.242188-1.421875 2.320313-2.753906.164062-2.957031.492187-5.835938.976562-8.558594 3.519531-19.8125 15.214844-36.285156 32.089844-45.195313 15.507813-8.199218 34.277344-9.164062 51.488281-2.648437 1.335938.507813 2.847656 0 3.605469-1.210937 12.28125-19.582032 32.347656-31.273438 53.683594-31.273438 21.382812 0 41.480469 11.734375 53.753906 31.386719.761719 1.21875 2.285156 1.726562 3.625 1.210937 17.296875-6.644531 36.183594-5.71875 51.808594 2.535156 16.875 8.914063 28.566406 25.386719 32.085937 45.195313.507813 2.855469.847656 5.84375 1 8.894531.070313 1.3125.984375 2.429688 2.261719 2.753906 13.871094 3.511719 25.632813 11.195313 34.011719 22.222657 11.542968 15.1875 15.207031 35.054687 10.050781 54.503906-4.289063 16.191406-14.40625 31.003906-28.488281 41.707031-13.679688 10.398438-30.296875 16.125-46.792969 16.125-3.328125 0-6.746094-.253906-10.164063-.75-1.316406-.195312-2.617187.515625-3.167968 1.738282-7.074219 15.71875-19.933594 27.921874-37.183594 35.292968-20.070312 8.574219-44.105469 9.671875-62.800781 9.671875-18.695313 0-42.730469-1.097656-62.804688-9.671875-17.285156-7.386718-30.164062-19.628906-37.230469-35.40625-.554687-1.238281-1.878906-1.945312-3.207031-1.734375-3.605469.566407-7.308593.859375-11 .859375-16.496093 0-33.117187-5.726562-46.792969-16.125-2.632812-1.996094-5.171874-4.179687-7.542968-6.488281-1.1875-1.152344-3.085938-1.125-4.242188.0625s-1.128906 3.089844.0625 4.242187c2.546875 2.476563 5.269532 4.816407 8.09375 6.960938 17.394532 13.222656 39.359375 19.371094 60.113282 16.734375 7.871093 16.179687 21.445312 28.742187 39.390624 36.410156 21.074219 9.003907 45.894532 10.15625 65.160157 10.15625 19.269531 0 44.085937-1.152343 65.15625-10.15625 17.917969-7.652343 31.476562-20.179687 39.351562-36.316406 2.960938.34375 5.914063.519531 8.808594.519531 17.796875 0 35.707031-6.160156 50.421875-17.34375 15.144531-11.507812 26.03125-27.46875 30.664062-44.949218 5.632813-21.257813 1.59375-43.007813-11.078124-59.675782zm0 0" fill="#3a312a"/><path d="m227.167969 302.066406c-37.023438 0-67.039063 36.449219-67.039063 67.183594 0 26.65625 22.585938 34.222656 52.734375 35.765625h28.605469c30.15625-1.539063 52.746094-9.105469 52.746094-35.765625 0-30.734375-30.019532-67.183594-67.046875-67.183594zm0 0" fill="#87796f"/><path d="m227.167969 299.066406c-38.796875 0-70.039063 38.394532-70.039063 70.183594 0 31.835938 29.703125 37.4375 55.582032 38.757812 1.628906.085938 3.0625-1.1875 3.148437-2.839843.082031-1.65625-1.1875-3.0625-2.84375-3.148438-34.96875-1.789062-49.886719-11.585937-49.886719-32.769531 0-29.074219 28.5625-64.183594 64.039063-64.183594 35.476562 0 64.042969 35.113282 64.042969 64.183594 0 21.183594-14.921876 30.984375-49.894532 32.769531-1.65625.082031-2.929687 1.492188-2.84375 3.148438.082032 1.601562 1.40625 2.847656 2.992188 2.847656.050781 0 .105468-.003906.152344-.007813 25.882812-1.320312 55.59375-6.917968 55.59375-38.757812.003906-31.789062-31.242188-70.183594-70.042969-70.183594zm0 0" fill="#3a312a"/><path d="m227.167969 211.253906c-14.5 0-26.253907 15.085938-26.253907 33.699219 0 18.609375 11.753907 33.695313 26.253907 33.695313s26.257812-15.085938 26.257812-33.695313c0-18.613281-11.753906-33.699219-26.257812-33.699219zm0 0" fill="#87796f"/><path d="m227.167969 208.253906c-16.128907 0-29.253907 16.460938-29.253907 36.695313s13.125 36.695312 29.253907 36.695312c16.132812 0 29.257812-16.460937 29.257812-36.695312s-13.125-36.695313-29.257812-36.695313zm0 67.390625c-12.820313 0-23.253907-13.769531-23.253907-30.695312 0-16.921875 10.433594-30.695313 23.253907-30.695313 12.824219 0 23.257812 13.773438 23.257812 30.695313 0 16.925781-10.433593 30.695312-23.257812 30.695312zm0 0" fill="#3a312a"/><path d="m175.65625 259.375c-8.695312-16.457031-26.136719-24.304688-38.957031-17.527344-12.820313 6.773438-16.167969 25.601563-7.476563 42.054688 8.691406 16.457031 26.132813 24.304687 38.953125 17.53125 12.824219-6.777344 16.171875-25.605469 7.480469-42.058594zm0 0" fill="#87796f"/><path d="m178.308594 257.972656c-4.515625-8.546875-11.386719-15.226562-19.351563-18.808594-8.21875-3.699218-16.621093-3.6875-23.660156.03125-7.035156 3.71875-11.78125 10.652344-13.355469 19.527344-1.53125 8.597656.117188 18.039063 4.628906 26.582032 7.101563 13.441406 19.757813 21.542968 31.664063 21.542968 3.941406 0 7.796875-.890625 11.347656-2.761718 14.261719-7.539063 18.175781-28.222657 8.726563-46.113282zm-11.527344 40.808594c-11.34375 5.988281-26.992188-1.3125-34.902344-16.28125-3.894531-7.367188-5.324218-15.441406-4.03125-22.730469 1.246094-7.015625 4.890625-12.4375 10.253906-15.273437 2.640626-1.390625 5.5625-2.089844 8.625-2.089844 3.160157 0 6.46875.742188 9.769532 2.226562 6.75 3.039063 12.613281 8.769532 16.507812 16.140626 7.90625 14.964843 5.109375 32.015624-6.222656 38.007812zm0 0" fill="#3a312a"/><path d="m121.621094 309.453125c-14.816406-11.261719-33.941406-11.03125-42.714844.515625s-3.875 30.03125 10.941406 41.292969 33.941406 11.027343 42.714844-.519531c8.773438-11.542969 3.875-30.03125-10.941406-41.289063zm0 0" fill="#87796f"/><path d="m123.433594 307.0625c-7.691406-5.847656-16.769532-9.023438-25.46875-8.90625-9.015625.113281-16.628906 3.660156-21.445313 9.996094-4.816406 6.335937-6.199219 14.628906-3.886719 23.339844 2.234376 8.441406 7.707032 16.308593 15.402344 22.15625 7.800782 5.929687 16.761719 8.871093 25.035156 8.871093 8.8125 0 16.847657-3.335937 21.882813-9.960937 9.757813-12.847656 4.589844-33.253906-11.519531-45.496094zm6.742187 41.863281c-7.761719 10.210938-25.035156 10.1875-38.511719-.054687-6.636718-5.042969-11.335937-11.761719-13.234374-18.917969-1.824219-6.886719-.804688-13.339844 2.867187-18.167969 3.671875-4.832031 9.617187-7.542968 16.738281-7.628906h.355469c7.292969 0 14.882813 2.71875 21.417969 7.683594 13.472656 10.238281 18.125 26.878906 10.367187 37.085937zm0 0" fill="#3a312a"/><path d="m318.050781 241.847656c-12.820312-6.773437-30.261719 1.074219-38.957031 17.527344s-5.347656 35.285156 7.476562 42.058594c12.820313 6.773437 30.261719-1.074219 38.953126-17.527344 8.695312-16.453125 5.347656-35.285156-7.472657-42.058594zm0 0" fill="#87796f"/><path d="m332.808594 258.71875c-1.578125-8.871094-6.320313-15.808594-13.359375-19.523438-7.039063-3.71875-15.4375-3.730468-23.65625-.03125-7.964844 3.582032-14.835938 10.261719-19.351563 18.808594-9.453125 17.890625-5.539062 38.574219 8.726563 46.109375 3.546875 1.875 7.402343 2.761719 11.34375 2.761719 11.902343 0 24.5625-8.097656 31.664062-21.539062 4.515625-8.546876 6.160157-17.984376 4.632813-26.585938zm-9.9375 23.785156c-7.90625 14.964844-23.558594 22.269532-34.898438 16.277344s-14.132812-23.039062-6.226562-38.003906c3.894531-7.371094 9.757812-13.101563 16.507812-16.140625 3.300782-1.484375 6.609375-2.226563 9.773438-2.226563 3.058594 0 5.980468.699219 8.621094 2.089844 5.367187 2.835938 9.007812 8.257812 10.253906 15.273438 1.292968 7.285156-.136719 15.359374-4.03125 22.730468zm0 0" fill="#3a312a"/><path d="m374.507812 309.96875c-8.773437-11.546875-27.894531-11.777344-42.710937-.515625-14.816406 11.257813-19.71875 29.746094-10.945313 41.289063 8.777344 11.546874 27.898438 11.78125 42.714844.519531s19.714844-29.746094 10.941406-41.292969zm0 0" fill="#87796f"/><path d="m376.898438 308.152344c-4.816407-6.335938-12.429688-9.882813-21.445313-9.996094-8.730469-.109375-17.777344 3.058594-25.472656 8.90625-16.113281 12.242188-21.277344 32.652344-11.515625 45.496094 5.035156 6.621094 13.070312 9.960937 21.882812 9.960937 8.273438 0 17.230469-2.945312 25.035156-8.871093 16.109376-12.242188 21.273438-32.652344 11.515626-45.496094zm-15.144532 40.71875c-13.472656 10.242187-30.75 10.265625-38.511718.054687-7.757813-10.207031-3.109376-26.847656 10.367187-37.085937 6.535156-4.960938 14.125-7.683594 21.417969-7.683594h.355468c7.121094.085938 13.066407 2.796875 16.738282 7.628906 7.757812 10.207032 3.105468 26.847656-10.367188 37.085938zm0 0" fill="#3a312a"/><path d="m405.707031 286.261719c-8.378906-11.039063-20.121093-18.71875-34-22.21875-1.28125-.339844-2.199219-1.441407-2.261719-2.761719-.15625-3.039062-.5-6.039062-1-8.898438-3.519531-19.800781-15.21875-36.28125-32.078124-45.199218-13.160157-6.921875-28.601563-8.683594-43.460938-5.101563 4.660156 1.140625 9.179688 2.839844 13.460938 5.101563 16.859374 8.917968 28.558593 25.398437 32.078124 45.199218.5 2.859376.84375 5.859376 1 8.898438.0625 1.320312.980469 2.421875 2.261719 2.761719 13.878907 3.5 25.621094 11.179687 34 22.21875 11.558594 15.179687 15.21875 35.039062 10.058594 54.5-4.277344 16.199219-14.398437 31-28.476563 41.699219-13.683593 10.402343-30.300781 16.121093-46.800781 16.121093-3.320312 0-6.742187-.242187-10.160156-.742187-1.320313-.199219-2.621094.523437-3.179687 1.742187-7.0625 15.71875-19.921876 27.917969-37.179688 35.28125-15 6.417969-32.242188 8.660157-47.800781 9.378907 5.238281.21875 10.277343.300781 15 .300781 18.699219 0 42.738281-1.101563 62.800781-9.679688 17.257812-7.363281 30.117188-19.5625 37.179688-35.28125.558593-1.21875 1.859374-1.941406 3.179687-1.742187 3.417969.5 6.839844.742187 10.160156.742187 16.5 0 33.117188-5.71875 46.800781-16.121093 14.078126-10.699219 24.199219-25.5 28.476563-41.699219 5.160156-19.460938 1.5-39.320313-10.058594-54.5zm0 0" fill="#decaad"/><path d="m316.386719 69.121094.058593-.621094c.28125-3.636719 1.5625-6.9375 3.542969-9.699219l-94.382812-7.578125c-.117188 7.238282-1.878907 14.078125-4.917969 20.160156l97.640625 7.839844c-1.5-3.019531-2.242187-6.480468-1.941406-10.101562zm0 0" fill="#87796f"/><path d="m319.4375 68.734375c.226562-2.945313 1.261719-5.777344 2.988281-8.183594.628907-.878906.738281-2.027343.285157-3.007812-.457032-.984375-1.402344-1.644531-2.480469-1.730469l-94.382813-7.578125c-.816406-.070313-1.640625.210937-2.257812.765625-.613282.558594-.96875 1.347656-.984375 2.171875-.109375 6.632813-1.65625 12.980469-4.601563 18.871094-.445312.890625-.421875 1.945312.070313 2.816406.488281.867187 1.375 1.433594 2.371093 1.515625l97.640626 7.839844c.082031.003906.160156.007812.242187.007812.988281 0 1.921875-.488281 2.484375-1.316406.605469-.898438.683594-2.046875.203125-3.015625-1.316406-2.648437-1.878906-5.59375-1.640625-8.484375zm-5.503906 7.125-88.777344-7.128906c1.804688-4.566407 2.910156-9.339844 3.296875-14.269531l86.652344 6.960937c-.90625 2.164063-1.464844 4.460937-1.644531 6.796875l-.0625.65625c-.195313 2.347656-.011719 4.707031.535156 6.984375zm0 0" fill="#3a312a"/><path d="m432.304688 58.476562-95.125-7.640624c-10.605469-.851563-19.890626 7.054687-20.742188 17.65625l-.050781.621093c-.851563 10.605469 7.054687 19.890625 17.660156 20.742188l95.121094 7.640625c10.605469.855468 19.890625-7.050782 20.742187-17.65625l.050782-.621094c.851562-10.601562-7.054688-19.890625-17.65625-20.742188zm0 0" fill="#8ac6dd"/><path d="m432.546875 55.488281-95.128906-7.640625c-12.222657-.988281-22.988281 8.167969-23.972657 20.402344v.007812l-.046874.617188c-.980469 12.234375 8.171874 22.988281 20.40625 23.972656l95.125 7.640625c.605468.046875 1.207031.070313 1.800781.070313 11.46875 0 21.238281-8.847656 22.171875-20.484375l.046875-.613281c.984375-12.238282-8.171875-22.992188-20.402344-23.972657zm14.421875 23.496094-.046875.617187c-.71875 8.9375-8.582031 15.628907-17.511719 14.90625l-95.128906-7.640624c-8.9375-.71875-15.621094-8.574219-14.902344-17.519532l.046875-.621094c.71875-8.933593 8.542969-15.617187 17.511719-14.902343l95.125 7.640625c8.9375.722656 15.625 8.578125 14.90625 17.519531zm0 0" fill="#3a312a"/><path d="m319.988281 41.941406c-1.980469-2.757812-3.261719-6.058594-3.542969-9.699218l-.058593-.621094c-.300781-3.621094.441406-7.078125 1.960937-10.121094l-36.402344 2.925781-25.648437 2.0625-35.710937 2.875c3.042968 5.9375 4.820312 12.597657 5.019531 19.679688 0 .160156.023437.320312 0 .480469zm0 0" fill="#87796f"/><path d="m322.425781 40.195312c-1.726562-2.40625-2.761719-5.238281-2.992187-8.234374l-.054688-.585938c-.242187-2.929688.328125-5.882812 1.652344-8.535156.484375-.964844.40625-2.121094-.199219-3.019532-.605469-.898437-1.652343-1.410156-2.726562-1.3125l-36.398438 2.929688c-1.652343.128906-2.882812 1.578125-2.75 3.226562.132813 1.65625 1.605469 2.890626 3.230469 2.75l31.753906-2.550781c-.550781 2.289063-.734375 4.660157-.539062 7.039063l.054687.570312c.183594 2.367188.742188 4.675782 1.652344 6.847656l-86.648437 6.960938c-.402344-4.941406-1.53125-9.71875-3.371094-14.273438l31.449218-2.527343c1.648438-.132813 2.878907-1.578125 2.75-3.230469-.132812-1.652344-1.589843-2.882812-3.230468-2.75l-35.710938 2.871094c-1 .078125-1.890625.652344-2.378906 1.527344-.488281.878906-.507812 1.9375-.050781 2.828124 2.929687 5.726563 4.507812 11.914063 4.691406 18.3125l.007813.265626c-.058594.835937.234374 1.667968.8125 2.277343.570312.601563 1.359374.9375 2.179687.9375.078125 0 .160156 0 .238281-.011719l94.382813-7.578124c1.078125-.085938 2.027343-.746094 2.484375-1.726563.449218-.980469.339844-2.132813-.289063-3.007813zm0 0" fill="#3a312a"/><path d="m449.960938 21.519531-.050782-.621093c-.851562-10.601563-10.136718-18.507813-20.742187-17.65625l-95.121094 7.640624c-10.605469.851563-18.507813 10.140626-17.65625 20.742188l.046875.621094c.855469 10.605468 10.140625 18.507812 20.742188 17.65625l95.125-7.640625c10.601562-.851563 18.507812-10.136719 17.65625-20.742188zm0 0" fill="#8ac6dd"/><path d="m452.949219 21.285156-.046875-.628906c-.984375-12.234375-11.699219-21.386719-23.972656-20.40625l-95.125 7.640625c-5.925782.476563-11.3125 3.234375-15.167969 7.761719s-5.714844 10.285156-5.238281 16.207031l.046874.621094v.003906c.9375 11.632813 10.703126 20.480469 22.175782 20.480469.597656 0 1.195312-.023438 1.796875-.070313l95.128906-7.644531c5.925781-.472656 11.3125-3.230469 15.167969-7.757812 3.851562-4.527344 5.710937-10.285157 5.234375-16.207032zm-9.804688 12.320313c-2.816406 3.304687-6.75 5.316406-11.082031 5.667969l-95.125 7.640624c-8.964844.71875-16.789062-5.96875-17.511719-14.902343l-.046875-.625c-.351562-4.332031 1.011719-8.535157 3.824219-11.84375 2.816406-3.308594 6.75-5.320313 11.078125-5.667969l95.128906-7.644531c8.960938-.722657 16.789063 5.972656 17.511719 14.902343l.046875.625c.347656 4.332032-1.011719 8.539063-3.824219 11.847657zm0 0" fill="#3a312a"/><path d="m86.898438 3.125c-4.265626 0-7.730469 3.460938-7.730469 7.730469v1.578125c0 4.015625 3.070312 7.351562 7.070312 7.699218 21.085938 1.796876 38.425781 9.542969 45.792969 19.890626l36.902344-36.898438zm0 0" fill="#8ac6dd"/><path d="m171.707031 1.976562c-.46875-1.121093-1.558593-1.851562-2.773437-1.851562h-82.035156c-5.917969 0-10.730469 4.8125-10.730469 10.730469v1.578125c0 5.609375 4.21875 10.203125 9.816406 10.6875 19.914063 1.695312 36.621094 8.839844 43.605469 18.644531.511718.714844 1.316406 1.175781 2.195312 1.25.082032.003906.167969.007813.25.007813.792969 0 1.554688-.3125 2.121094-.878907l36.898438-36.898437c.855468-.859375 1.113281-2.148438.652343-3.269532zm-39.4375 33.570313c-8.859375-9.769531-25.957031-16.71875-45.773437-18.40625-2.46875-.214844-4.328125-2.238281-4.328125-4.710937v-1.574219c0-2.613281 2.121093-4.734375 4.730469-4.734375h74.792968zm0 0" fill="#3a312a"/><path d="m225.613281 49.046875c-.707031-25.734375-22.472656-45.921875-48.207031-45.921875h-8.472656l-36.898438 36.898438c2.472656 3.460937 3.824219 7.210937 3.824219 11.132812 0 15.636719-21.476563 28.628906-49.621094 31.023438-2 .175781-3.765625 1.101562-5.042969 2.472656-1.257812 1.386718-2.027343 3.230468-2.027343 5.230468 0 4.269532 3.464843 7.734376 7.730469 7.734376h91.484374c26.535157 0 47.953126-21.878907 47.230469-48.570313zm0 0" fill="#f16c7a"/><path d="m228.609375 48.964844c-.738281-26.929688-23.707031-48.839844-51.203125-48.839844h-8.472656c-.792969 0-1.558594.316406-2.121094.875l-36.898438 36.902344c-1.039062 1.035156-1.171874 2.667968-.320312 3.863281 2.167969 3.039063 3.269531 6.199219 3.269531 9.390625 0 13.710938-20.152343 25.761719-46.882812 28.035156-2.664063.230469-5.140625 1.445313-7 3.445313-1.8125 1.992187-2.8125 4.566406-2.8125 7.246093 0 5.917969 4.816406 10.730469 10.734375 10.730469h91.480468c13.679688 0 26.46875-5.398437 36.011719-15.203125 9.539063-9.800781 14.589844-22.746094 14.214844-36.445312zm-18.515625 32.261718c-8.402344 8.632813-19.664062 13.386719-31.710938 13.386719h-91.484374c-2.609376 0-4.730469-2.121093-4.730469-4.730469 0-1.183593.441406-2.324218 1.226562-3.183593.820313-.882813 1.921875-1.425781 3.097657-1.53125 30.34375-2.582031 52.371093-16.882813 52.371093-34.011719 0-3.6875-1.007812-7.285156-2.996093-10.722656l34.308593-34.3125h7.230469c24.273438 0 44.554688 19.292968 45.207031 43.003906.328125 12.070312-4.117187 23.46875-12.519531 32.101562zm0 0" fill="#3a312a"/><path d="m190.71875 24.40625c-14.769531-6.378906-31.917969.425781-38.296875 15.199219-6.375 14.769531.429687 31.917969 15.199219 38.296875 14.773437 6.375 31.917968-.429688 38.296875-15.199219 6.378906-14.773437-.425781-31.921875-15.199219-38.296875zm0 0" fill="#d7e057"/><path d="m179.171875 19.023438c-17.722656 0-32.136719 14.414062-32.136719 32.132812s14.414063 32.132812 32.136719 32.132812c17.71875 0 32.132813-14.414062 32.132813-32.132812s-14.414063-32.132812-32.132813-32.132812zm0 58.269531c-14.414063 0-26.136719-11.726563-26.136719-26.136719s11.722656-26.132812 26.136719-26.132812c14.410156 0 26.132813 11.722656 26.132813 26.132812s-11.722657 26.136719-26.132813 26.136719zm0 0" fill="#3a312a"/><path d="m179.167969 39.347656c-6.523438 0-11.8125 5.285156-11.8125 11.808594 0 6.527344 5.289062 11.8125 11.8125 11.8125 6.523437 0 11.8125-5.285156 11.8125-11.8125 0-6.523438-5.289063-11.808594-11.8125-11.808594zm0 0" fill="#fce8cb"/><path d="m179.171875 36.347656c-8.167969 0-14.8125 6.640625-14.8125 14.808594s6.644531 14.8125 14.8125 14.8125c8.164063 0 14.808594-6.644531 14.808594-14.8125s-6.644531-14.808594-14.808594-14.808594zm0 23.621094c-4.859375 0-8.8125-3.953125-8.8125-8.8125s3.953125-8.8125 8.8125-8.8125c4.855469 0 8.808594 3.953125 8.808594 8.8125s-3.953125 8.8125-8.808594 8.8125zm0 0" fill="#3a312a"/><g fill="#6ca8bf"><path d="m443.148438 67.140625c-2.820313-3.320313-6.761719-5.320313-11.082032-5.679687l-20.339844-1.640626c5.460938 3.800782 8.800782 10.300782 8.242188 17.402344l-.0625.617188c-.519531 6.542968-4.277344 12.0625-9.558594 15.121094l19.058594 1.539062c8.941406.722656 16.800781-5.957031 17.519531-14.898438l.042969-.621093c.359375-4.339844-1-8.539063-3.820312-11.839844zm0 0"/><path d="m446.96875 21.761719-.042969-.621094c-.71875-8.9375-8.558593-15.617187-17.519531-14.917969l-19.058594 1.539063c5.28125 3.058593 9.039063 8.578125 9.558594 15.140625l.0625.621094c.558594 7.097656-2.800781 13.597656-8.261719 17.378906l20.359375-1.640625c8.941406-.699219 15.621094-8.558594 14.902344-17.5zm0 0"/></g></svg>