<svg height="464pt" viewBox="0 -6 464.25498 464" width="464pt" xmlns="http://www.w3.org/2000/svg"><path d="m70.84375 22.484375c-1.949219 23.128906-26.050781 26.777344-26.050781 26.777344 20.695312.976562 25.847656 28.117187 25.847656 28.117187.445313-19.351562 26.644531-28.402344 26.644531-28.402344-19.625-1.175781-26.441406-26.492187-26.441406-26.492187zm0 0" fill="#d7e057"/><path d="m97.464844 45.980469c-17.207032-1.027344-23.664063-24.046875-23.726563-24.28125-.382812-1.40625-1.730469-2.335938-3.167969-2.199219-1.449218.128906-2.597656 1.28125-2.71875 2.734375-1.71875 20.429687-22.625 23.925781-23.507812 24.0625-1.523438.230469-2.625 1.578125-2.546875 3.121094.082031 1.539062 1.316406 2.769531 2.859375 2.84375 18.054688.847656 22.996094 25.433593 23.042969 25.683593.273437 1.421876 1.515625 2.433594 2.941406 2.433594.085937 0 .167969-.003906.253906-.011718 1.527344-.125 2.714844-1.382813 2.75-2.917969.390625-17.015625 24.382813-25.550781 24.625-25.636719 1.351563-.46875 2.183594-1.828125 1.988281-3.246094-.199218-1.417968-1.367187-2.5-2.792968-2.585937zm-27.132813 20.695312c-2.710937-6.261719-7.417969-13.816406-15.171875-17.753906 5.859375-2.808594 12.816406-7.828125 16.402344-16.546875 3.101562 6.140625 8.398438 13.757812 16.667969 17.445312-6.015625 3.277344-13.847657 8.8125-17.898438 16.855469zm0 0" fill="#3a312a"/><path d="m27.445312 56.445312c-1.378906 16.355469-18.425781 18.941407-18.425781 18.941407 14.636719.6875 18.285157 19.886719 18.285157 19.886719.3125-13.6875 18.84375-20.089844 18.84375-20.089844-13.882813-.832032-18.703126-18.738282-18.703126-18.738282zm0 0" fill="#d7e057"/><path d="m46.328125 72.1875c-11.535156-.6875-15.945313-16.367188-15.988281-16.527344-.378906-1.402344-1.710938-2.335937-3.164063-2.203125-1.453125.128907-2.597656 1.285157-2.71875 2.734375-1.160156 13.742188-15.292969 16.132813-15.886719 16.226563-1.527343.230469-2.625 1.582031-2.546874 3.121093.078124 1.542969 1.3125 2.769532 2.851562 2.84375 12.074219.566407 15.449219 17.289063 15.480469 17.453126.269531 1.421874 1.519531 2.4375 2.945312 2.4375.082031 0 .164063 0 .25-.007813 1.53125-.128906 2.714844-1.390625 2.75-2.921875.261719-11.417969 16.664063-17.269531 16.824219-17.324219 1.355469-.46875 2.191406-1.828125 1.992188-3.246093-.191407-1.417969-1.359376-2.5-2.789063-2.585938zm-19.167969 13.589844c-1.851562-3.769532-4.683594-7.894532-8.898437-10.558594 3.710937-2.085938 7.398437-5.261719 9.742187-9.835938 2.113282 3.75 5.308594 7.910157 9.882813 10.449219-3.699219 2.203125-7.976563 5.484375-10.726563 9.945313zm0 0" fill="#3a312a"/><path d="m27.445312 3.128906c-1.378906 16.359375-18.425781 18.941406-18.425781 18.941406 14.636719.6875 18.285157 19.886719 18.285157 19.886719.3125-13.6875 18.84375-20.089843 18.84375-20.089843-13.882813-.828126-18.703126-18.738282-18.703126-18.738282zm0 0" fill="#d7e057"/><path d="m46.328125 18.875c-11.53125-.691406-15.945313-16.371094-15.988281-16.53125-.378906-1.402344-1.710938-2.33984375-3.164063-2.203125-1.453125.132813-2.597656 1.285156-2.71875 2.734375-1.160156 13.742188-15.292969 16.136719-15.886719 16.230469-1.527343.230469-2.625 1.578125-2.546874 3.117187.078124 1.542969 1.3125 2.769532 2.855468 2.84375 12.070313.566406 15.449219 17.289063 15.476563 17.453125.269531 1.425781 1.519531 2.4375 2.945312 2.4375.082031 0 .167969 0 .25-.007812 1.53125-.125 2.71875-1.386719 2.753907-2.921875.261718-11.421875 16.660156-17.269532 16.824218-17.324219 1.351563-.46875 2.1875-1.828125 1.992188-3.246094-.195313-1.414062-1.363282-2.496093-2.792969-2.582031zm-19.167969 13.589844c-1.851562-3.769532-4.683594-7.894532-8.894531-10.558594 3.707031-2.082031 7.394531-5.261719 9.742187-9.832031 2.113282 3.746093 5.308594 7.910156 9.878907 10.445312-3.699219 2.199219-7.976563 5.480469-10.726563 9.945313zm0 0" fill="#3a312a"/><path d="m164.238281 136.382812c-19.429687-19.433593-50.9375-19.433593-70.367187 0-19.433594 19.429688-19.433594 50.9375 0 70.367188 19.429687 19.429688 50.9375 19.429688 70.367187 0 19.429688-19.429688 19.429688-50.9375 0-70.367188zm0 0" fill="#87796f"/><path d="m129.054688 118.808594c-29.089844 0-52.757813 23.664062-52.757813 52.757812s23.667969 52.757813 52.757813 52.757813c29.09375 0 52.761718-23.664063 52.761718-52.757813s-23.671875-52.757812-52.761718-52.757812zm0 99.515625c-25.78125 0-46.757813-20.976563-46.757813-46.757813s20.976563-46.757812 46.757813-46.757812c25.785156 0 46.761718 20.976562 46.761718 46.757812s-20.976562 46.757813-46.761718 46.757813zm0 0" fill="#3a312a"/><path d="m211.53125 69.308594c-26.375-7.714844-54.011719 7.410156-61.726562 33.785156-7.71875 26.375 7.410156 54.015625 33.785156 61.730469 26.375 7.714843 54.011718-7.410157 61.730468-33.785157 7.714844-26.375-7.410156-54.011718-33.789062-61.730468zm0 0" fill="#87796f"/><path d="m197.550781 64.3125c-29.089843 0-52.757812 23.664062-52.757812 52.757812 0 29.089844 23.667969 52.757813 52.757812 52.757813 29.089844 0 52.757813-23.667969 52.757813-52.757813 0-29.089843-23.664063-52.757812-52.757813-52.757812zm0 99.515625c-25.78125 0-46.757812-20.976563-46.757812-46.757813 0-25.785156 20.976562-46.757812 46.757812-46.757812 25.785157 0 46.757813 20.972656 46.757813 46.757812 0 25.78125-20.972656 46.757813-46.757813 46.757813zm0 0" fill="#3a312a"/><path d="m382.585938 171.566406c0 27.480469-22.277344 49.757813-49.757813 49.757813s-49.757813-22.277344-49.757813-49.757813c0-27.480468 22.277344-49.757812 49.757813-49.757812s49.757813 22.277344 49.757813 49.757812zm0 0" fill="#87796f"/><path d="m332.828125 118.808594c-29.089844 0-52.757813 23.664062-52.757813 52.757812s23.664063 52.757813 52.757813 52.757813c29.089844 0 52.757813-23.664063 52.757813-52.757813s-23.667969-52.757812-52.757813-52.757812zm0 99.515625c-25.785156 0-46.757813-20.976563-46.757813-46.757813s20.972657-46.757812 46.757813-46.757812c25.78125 0 46.757813 20.976562 46.757813 46.757812s-20.976563 46.757813-46.757813 46.757813zm0 0" fill="#3a312a"/><path d="m145.640625 245.019531c0 27.480469-22.277344 49.757813-49.757813 49.757813-27.480468 0-49.757812-22.277344-49.757812-49.757813s22.277344-49.757812 49.757812-49.757812c27.480469 0 49.757813 22.277343 49.757813 49.757812zm0 0" fill="#87796f"/><path d="m95.882812 192.261719c-29.089843 0-52.757812 23.667969-52.757812 52.757812 0 29.089844 23.667969 52.757813 52.757812 52.757813 29.09375 0 52.757813-23.667969 52.757813-52.757813 0-29.089843-23.667969-52.757812-52.757813-52.757812zm0 99.515625c-25.78125 0-46.757812-20.976563-46.757812-46.757813s20.976562-46.757812 46.757812-46.757812c25.785157 0 46.757813 20.976562 46.757813 46.757812s-20.972656 46.757813-46.757813 46.757813zm0 0" fill="#3a312a"/><path d="m204.886719 227.589844c-.472657-27.476563-23.128907-49.371094-50.605469-48.902344-27.476562.472656-49.371094 23.128906-48.902344 50.605469.46875 27.476562 23.125 49.371093 50.605469 48.902343 27.476563-.46875 49.371094-23.125 48.902344-50.605468zm0 0" fill="#87796f"/><path d="m155.121094 175.675781c-29.089844 0-52.757813 23.667969-52.757813 52.757813s23.667969 52.757812 52.757813 52.757812 52.757812-23.667968 52.757812-52.757812c0-29.09375-23.667968-52.757813-52.757812-52.757813zm0 99.515625c-25.78125 0-46.757813-20.976562-46.757813-46.757812s20.976563-46.757813 46.757813-46.757813c25.785156 0 46.757812 20.976563 46.757812 46.757813s-20.976562 46.757812-46.757812 46.757812zm0 0" fill="#3a312a"/><path d="m225.460938 125.492188c-22.824219-15.300782-53.734376-9.203126-69.035157 13.621093-15.300781 22.828125-9.199219 53.734375 13.625 69.035157 22.824219 15.300781 53.734375 9.203124 69.035157-13.625 15.300781-22.824219 9.199218-53.730469-13.625-69.03125zm0 0" fill="#87796f"/><path d="m197.769531 114.070312c-29.089843 0-52.757812 23.664063-52.757812 52.757813 0 29.089844 23.667969 52.757813 52.757812 52.757813 29.089844 0 52.757813-23.667969 52.757813-52.757813s-23.667969-52.757813-52.757813-52.757813zm0 99.515626c-25.78125 0-46.757812-20.976563-46.757812-46.757813s20.976562-46.757813 46.757812-46.757813 46.757813 20.976563 46.757813 46.757813-20.976563 46.757813-46.757813 46.757813zm0 0" fill="#3a312a"/><path d="m313.09375 94.253906c-12.597656-24.425781-42.609375-34.015625-67.035156-21.417968-24.425782 12.597656-34.011719 42.609374-21.414063 67.035156 12.59375 24.425781 42.609375 34.011718 67.03125 21.414062 24.425781-12.59375 34.015625-42.609375 21.417969-67.03125zm0 0" fill="#87796f"/><path d="m268.851562 64.3125c-29.089843 0-52.757812 23.664062-52.757812 52.757812 0 29.089844 23.667969 52.757813 52.757812 52.757813 29.089844 0 52.757813-23.667969 52.757813-52.757813 0-29.089843-23.664063-52.757812-52.757813-52.757812zm0 99.515625c-25.78125 0-46.757812-20.976563-46.757812-46.757813 0-25.785156 20.976562-46.757812 46.757812-46.757812s46.757813 20.972656 46.757813 46.757812c0 25.78125-20.976563 46.757813-46.757813 46.757813zm0 0" fill="#3a312a"/><path d="m303.007812 130.667969c-19.980468-18.867188-51.472656-17.960938-70.339843 2.019531-18.863281 19.980469-17.960938 51.472656 2.023437 70.335938 19.980469 18.867187 51.46875 17.960937 70.335938-2.019532 18.867187-19.980468 17.960937-51.472656-2.019532-70.335937zm0 0" fill="#87796f"/><path d="m268.851562 114.070312c-29.089843 0-52.757812 23.664063-52.757812 52.757813 0 29.089844 23.667969 52.757813 52.757812 52.757813 29.089844 0 52.757813-23.667969 52.757813-52.757813s-23.664063-52.757813-52.757813-52.757813zm0 99.515626c-25.78125 0-46.757812-20.976563-46.757812-46.757813s20.976562-46.757813 46.757812-46.757813 46.757813 20.976563 46.757813 46.757813-20.976563 46.757813-46.757813 46.757813zm0 0" fill="#3a312a"/><path d="m363.628906 237.910156c0 27.480469-22.277344 49.757813-49.757812 49.757813-27.480469 0-49.757813-22.277344-49.757813-49.757813 0-27.480468 22.277344-49.757812 49.757813-49.757812 27.480468 0 49.757812 22.277344 49.757812 49.757812zm0 0" fill="#87796f"/><path d="m313.871094 185.152344c-29.089844 0-52.757813 23.667968-52.757813 52.757812s23.667969 52.757813 52.757813 52.757813 52.757812-23.667969 52.757812-52.757813-23.667968-52.757812-52.757812-52.757812zm0 99.515625c-25.78125 0-46.757813-20.976563-46.757813-46.757813s20.976563-46.757812 46.757813-46.757812c25.785156 0 46.757812 20.976562 46.757812 46.757812s-20.972656 46.757813-46.757812 46.757813zm0 0" fill="#3a312a"/><path d="m418.125 237.910156c0 27.480469-22.277344 49.757813-49.757812 49.757813-27.480469 0-49.757813-22.277344-49.757813-49.757813 0-27.480468 22.277344-49.757812 49.757813-49.757812 27.480468 0 49.757812 22.277344 49.757812 49.757812zm0 0" fill="#87796f"/><path d="m368.367188 185.152344c-29.089844 0-52.757813 23.667968-52.757813 52.757812s23.667969 52.757813 52.757813 52.757813c29.089843 0 52.757812-23.667969 52.757812-52.757813s-23.664062-52.757812-52.757812-52.757812zm0 99.515625c-25.78125 0-46.757813-20.976563-46.757813-46.757813s20.976563-46.757812 46.757813-46.757812c25.785156 0 46.757812 20.976562 46.757812 46.757812s-20.972656 46.757813-46.757812 46.757813zm0 0" fill="#3a312a"/><path d="m281.566406 216.253906c-6.726562-26.648437-33.78125-42.792968-60.425781-36.066406s-42.792969 33.78125-36.066406 60.425781c6.730469 26.644531 33.78125 42.792969 60.429687 36.066407 26.644532-6.730469 42.789063-33.78125 36.0625-60.425782zm0 0" fill="#87796f"/><path d="m233.308594 175.675781c-29.089844 0-52.757813 23.667969-52.757813 52.757813s23.667969 52.757812 52.757813 52.757812c29.09375 0 52.761718-23.667968 52.761718-52.757812 0-29.09375-23.667968-52.757813-52.761718-52.757813zm0 99.515625c-25.78125 0-46.757813-20.976562-46.757813-46.757812s20.976563-46.757813 46.757813-46.757813c25.785156 0 46.761718 20.976563 46.761718 46.757813s-20.976562 46.757812-46.761718 46.757812zm0 0" fill="#3a312a"/><path d="m460.871094 412.191406-21.574219-138.148437c-2.429687-15.539063-15.8125-27-31.542969-27h-351.25c-15.730468 0-29.121094 11.460937-31.546875 27l-7.386719 47.320312-4.578124 29.304688-9.609376 61.523437c-3.023437 19.359375 11.949219 36.851563 31.546876 36.851563h394.398437c19.59375 0 34.566406-17.492188 31.542969-36.851563zm0 0" fill="#d7e057"/><path d="m463.835938 411.726562-21.574219-138.144531c-2.671875-17.117187-17.1875-29.539062-34.507813-29.539062h-351.25c-17.324218 0-31.835937 12.421875-34.507812 29.539062l-7.390625 47.320313c-.257813 1.632812.863281 3.171875 2.5 3.425781 1.632812.253906 3.171875-.867187 3.425781-2.503906l7.390625-47.320313c2.210937-14.171875 14.234375-24.464844 28.582031-24.464844h351.25c14.34375 0 26.367188 10.292969 28.578125 24.464844l21.574219 138.148438c1.304688 8.359375-1.101562 16.84375-6.605469 23.273437-5.5 6.429688-13.511719 10.117188-21.972656 10.117188h-394.402344c-8.460937 0-16.472656-3.6875-21.976562-10.117188-5.503907-6.429687-7.910157-14.914062-6.601563-23.273437l9.605469-61.523438c.257813-1.636718-.863281-3.171875-2.5-3.425781s-3.167969.863281-3.425781 2.5l-9.605469 61.523437c-1.578125 10.097657 1.328125 20.339844 7.972656 28.101563s16.316407 12.214844 26.535157 12.214844h394.398437c10.21875 0 19.890625-4.453125 26.535156-12.214844 6.640625-7.761719 9.550781-18.003906 7.972657-28.101563zm0 0" fill="#3a312a"/><path d="m457.90625 412.644531-21.578125-138.140625c-2.203125-14.179687-14.222656-24.460937-28.582031-24.460937h-30c14.359375 0 26.378906 10.28125 28.582031 24.460937l21.578125 138.140625c1.300781 8.378907-1.101562 16.859375-6.601562 23.28125-5.5 6.4375-13.519532 10.117188-21.976563 10.117188h30c8.457031 0 16.476563-3.679688 21.976563-10.117188 5.5-6.421875 7.902343-14.902343 6.601562-23.28125zm0 0" fill="#b9c239"/><path d="m232.527344 342.894531c-27.660156-.097656-50.171875 27.050781-50.25 50.011719-.078125 22.957031 22.328125 27.042969 49.984375 27.136719 27.660156.09375 50.09375-3.835938 50.171875-26.792969.078125-22.960938-22.25-50.261719-49.90625-50.355469zm0 0" fill="#87796f"/><path d="m232.535156 339.894531h-.15625c-13.664062 0-26.976562 6.136719-37.503906 17.300781-9.726562 10.316407-15.558594 23.660157-15.597656 35.699219-.042969 11.816407 5.476562 20.195313 16.402344 24.90625 8.269531 3.566407 19.546874 5.183594 36.574218 5.242188h.953125c25.9375 0 52.140625-3.703125 52.230469-29.785157.078125-24.085937-23.5-53.261718-52.902344-53.363281zm.707032 77.148438c-.320313 0-.644532 0-.96875 0-16.175782-.054688-26.730469-1.519531-34.21875-4.75-8.75-3.773438-12.808594-9.929688-12.777344-19.375.035156-10.554688 5.253906-22.371094 13.964844-31.601563 9.378906-9.949218 21.144531-15.421875 33.136718-15.421875h.136719c26.078125.089844 46.992187 25.972657 46.917969 47.34375-.066406 19.664063-18.46875 23.804688-46.191406 23.804688zm0 0" fill="#3a312a"/><path d="m232.757812 275.058594c-10.832031-.039063-19.652343 11.203125-19.699218 25.101562-.046875 13.902344 8.695312 25.199219 19.527344 25.238282 10.832031.035156 19.652343-11.203126 19.699218-25.105469.046875-13.898438-8.695312-25.199219-19.527344-25.234375zm0 0" fill="#87796f"/><path d="m248.972656 280.640625c-4.265625-5.515625-10.019531-8.5625-16.203125-8.585937-12.558593-.082032-22.65625 12.558593-22.710937 28.09375-.050782 15.53125 10.046875 28.203124 22.515625 28.25h.0625c12.441406 0 22.59375-12.585938 22.648437-28.09375.023438-7.386719-2.214844-14.371094-6.3125-19.664063zm-16.332031 41.757813h-.042969c-9.160156-.035157-16.578125-10.003907-16.539062-22.226563.042968-12.207031 7.507812-22.113281 16.648437-22.113281h.042969c4.292969.015625 8.371094 2.234375 11.480469 6.257812 3.28125 4.238282 5.078125 9.910156 5.054687 15.96875-.042968 12.207032-7.503906 22.113282-16.644531 22.113282zm0 0" fill="#3a312a"/><path d="m194.15625 310.871094c-6.453125-12.316406-19.460938-18.21875-29.054688-13.191406-9.59375 5.023437-12.144531 19.082031-5.691406 31.394531s19.460938 18.21875 29.054688 13.191406c9.59375-5.023437 12.140625-19.082031 5.691406-31.394531zm0 0" fill="#87796f"/><path d="m196.8125 309.476562c-7.207031-13.757812-22.058594-20.238281-33.105469-14.457031-5.476562 2.871094-9.175781 8.230469-10.421875 15.089844-1.191406 6.582031.039063 13.8125 3.46875 20.355469 3.425782 6.546875 8.671875 11.671875 14.765625 14.441406 3.179688 1.441406 6.402344 2.164062 9.515625 2.164062 3.097656 0 6.085938-.714843 8.820313-2.148437 5.480469-2.867187 9.179687-8.226563 10.421875-15.085937 1.191406-6.582032-.035156-13.8125-3.464844-20.359376zm-2.4375 19.289063c-.90625 5-3.5 8.851563-7.304688 10.84375-3.800781 1.992187-8.445312 1.933594-13.070312-.167969-4.882812-2.214844-9.121094-6.390625-11.933594-11.757812-2.8125-5.367188-3.832031-11.226563-2.875-16.503906.90625-5 3.5-8.851563 7.304688-10.84375 1.886718-.992188 3.949218-1.460938 6.066406-1.460938 6.972656 0 14.582031 5.082031 18.9375 13.386719 2.808594 5.367187 3.832031 11.230469 2.875 16.503906zm0 0" fill="#3a312a"/><path d="m153.664062 348.136719c-11.039062-8.445313-25.324218-8.320313-31.90625.28125-6.585937 8.601562-2.972656 22.421875 8.066407 30.871093 11.039062 8.449219 25.324219 8.324219 31.910156-.277343 6.582031-8.601563 2.96875-22.425781-8.070313-30.875zm0 0" fill="#87796f"/><path d="m155.488281 345.757812c-5.871093-4.492187-12.816406-6.957031-19.476562-6.875-6.972657.0625-12.878907 2.800782-16.636719 7.710938s-4.859375 11.332031-3.097656 18.078125c1.691406 6.472656 5.855468 12.511719 11.722656 17.003906 5.972656 4.570313 12.855469 6.839844 19.222656 6.839844 6.78125 0 12.984375-2.574219 16.890625-7.679687 7.578125-9.90625 3.710938-25.640626-8.625-35.078126zm3.859375 31.429688c-5.566406 7.273438-17.992187 7.148438-27.703125-.28125-4.808593-3.683594-8.207031-8.566406-9.5625-13.753906-1.285156-4.917969-.554687-9.503906 2.054688-12.914063 2.609375-3.410156 6.847656-5.3125 11.929687-5.355469.058594-.003906.121094-.003906.183594-.003906 5.304688 0 10.835938 2 15.589844 5.640625 9.707031 7.429688 13.078125 19.394531 7.507812 26.667969zm0 0" fill="#3a312a"/><path d="m300.566406 298.140625c-9.558594-5.09375-22.609375.722656-29.144531 12.992187-6.535156 12.269532-4.082031 26.34375 5.476563 31.4375 9.558593 5.09375 22.609374-.722656 29.144531-12.992187 6.535156-12.269531 4.082031-26.34375-5.476563-31.4375zm0 0" fill="#87796f"/><path d="m301.976562 295.496094c-5.457031-2.910156-11.96875-2.945313-18.339843-.109375-6.109375 2.726562-11.386719 7.816406-14.863281 14.335937-7.300782 13.710938-4.289063 29.632813 6.714843 35.496094 2.773438 1.476562 5.792969 2.179688 8.878907 2.179688 9.152343 0 18.859374-6.15625 24.320312-16.410157 7.304688-13.710937 4.292969-29.632812-6.710938-35.492187zm1.417969 32.671875c-5.75 10.789062-17.003906 16.0625-25.085937 11.753906-8.085938-4.304687-9.984375-16.585937-4.238282-27.378906 2.847657-5.34375 7.113282-9.492188 12.011719-11.675781 2.351563-1.046876 4.703125-1.574219 6.941407-1.574219 2.183593 0 4.261718.5 6.132812 1.496093 8.085938 4.308594 9.984375 16.589844 4.238281 27.378907zm0 0" fill="#3a312a"/><path d="m342.535156 349.160156c-6.523437-8.644531-20.804687-8.867187-31.902344-.492187-11.09375 8.371093-14.800781 22.167969-8.277343 30.8125 6.523437 8.648437 20.808593 8.867187 31.902343.496093 11.097657-8.375 14.800782-22.167968 8.277344-30.816406zm0 0" fill="#87796f"/><path d="m344.960938 347.363281c-3.722657-4.933593-9.617188-7.714843-16.585938-7.824219-6.703125-.113281-13.621094 2.292969-19.519531 6.742188-5.898438 4.449219-10.101563 10.460938-11.839844 16.917969-1.808594 6.734375-.75 13.160156 2.972656 18.097656 3.722657 4.9375 9.613281 7.714844 16.585938 7.824219h.417969c6.558593 0 13.328124-2.382813 19.101562-6.742188 5.898438-4.449218 10.101562-10.457031 11.835938-16.921875 1.8125-6.730469.753906-13.15625-2.96875-18.09375zm-2.824219 16.542969c-1.390625 5.175781-4.820313 10.039062-9.660157 13.6875-4.835937 3.648438-10.425781 5.628906-15.8125 5.527344-5.078124-.078125-9.304687-2.007813-11.890624-5.4375-2.585938-3.425782-3.28125-8.015625-1.964844-12.925782 1.390625-5.175781 4.820312-10.039062 9.65625-13.6875 4.738281-3.574218 10.222656-5.53125 15.484375-5.53125.109375 0 .222656 0 .332031.003907 5.082031.078125 9.300781 2.007812 11.890625 5.4375 2.585937 3.425781 3.285156 8.015625 1.964844 12.925781zm0 0" fill="#3a312a"/></svg>