<svg height="452pt" viewBox="0 0 452 452.004" width="452pt" xmlns="http://www.w3.org/2000/svg"><path d="m64.824219 22.445312c-1.945313 23.125-26.046875 26.777344-26.046875 26.777344 20.691406.976563 25.851562 28.121094 25.851562 28.121094.441406-19.355469 26.640625-28.40625 26.640625-28.40625-19.625-1.175781-26.445312-26.492188-26.445312-26.492188zm0 0" fill="#d7e057"/><path d="m91.449219 45.941406c-17.210938-1.03125-23.664063-24.046875-23.726563-24.28125-.378906-1.402344-1.699218-2.332031-3.167968-2.203125-1.449219.132813-2.597657 1.28125-2.71875 2.734375-1.71875 20.433594-22.625 23.929688-23.507813 24.066406-1.527344.230469-2.625 1.582032-2.546875 3.121094.082031 1.542969 1.316406 2.769532 2.855469 2.84375 18.058593.847656 23 25.433594 23.046875 25.683594.273437 1.421875 1.515625 2.433594 2.941406 2.433594.085938 0 .167969 0 .253906-.011719 1.527344-.125 2.714844-1.382813 2.75-2.917969.386719-17.015625 24.382813-25.550781 24.625-25.636718 1.351563-.46875 2.183594-1.828126 1.988282-3.246094-.199219-1.417969-1.363282-2.5-2.792969-2.585938zm-27.132813 20.691406c-2.710937-6.257812-7.417968-13.8125-15.171875-17.75 5.863281-2.8125 12.816407-7.828124 16.402344-16.542968 3.101563 6.140625 8.398437 13.757812 16.667969 17.441406-6.015625 3.277344-13.84375 8.808594-17.898438 16.851562zm0 0" fill="#3a312a"/><path d="m21.429688 56.40625c-1.378907 16.359375-18.425782 18.941406-18.425782 18.941406 14.636719.6875 18.285156 19.886719 18.285156 19.886719.3125-13.6875 18.84375-20.089844 18.84375-20.089844-13.882812-.832031-18.703124-18.738281-18.703124-18.738281zm0 0" fill="#d7e057"/><path d="m40.3125 72.148438c-11.53125-.6875-15.945312-16.371094-15.988281-16.527344-.378907-1.40625-1.726563-2.328125-3.164063-2.207032-1.453125.132813-2.601562 1.285157-2.722656 2.738282-1.15625 13.742187-15.292969 16.132812-15.886719 16.226562-1.523437.230469-2.6249998 1.582032-2.5429685 3.125.078125 1.539063 1.3124995 2.765625 2.8554685 2.839844 12.070313.566406 15.445313 17.289062 15.476563 17.449219.269531 1.425781 1.519531 2.441406 2.945312 2.441406.082032 0 .164063-.003906.25-.011719 1.527344-.125 2.714844-1.386718 2.75-2.921875.261719-11.417969 16.664063-17.265625 16.828125-17.320312 1.351563-.46875 2.1875-1.828125 1.992188-3.246094-.195313-1.417969-1.363281-2.5-2.792969-2.585937zm-19.171875 13.589843c-1.847656-3.769531-4.679687-7.890625-8.890625-10.558593 3.710938-2.082032 7.390625-5.257813 9.738281-9.832032 2.117188 3.746094 5.308594 7.910156 9.882813 10.445313-3.695313 2.203125-7.976563 5.480469-10.730469 9.945312zm0 0" fill="#3a312a"/><path d="m21.429688 3.089844c-1.378907 16.359375-18.425782 18.941406-18.425782 18.941406 14.636719.6875 18.285156 19.890625 18.285156 19.890625.3125-13.691406 18.84375-20.09375 18.84375-20.09375-13.882812-.832031-18.703124-18.738281-18.703124-18.738281zm0 0" fill="#d7e057"/><path d="m40.3125 18.835938c-11.53125-.691407-15.945312-16.375-15.988281-16.53125-.378907-1.40625-1.726563-2.3320318-3.164063-2.203126-1.453125.128907-2.601562 1.28125-2.722656 2.734376-1.15625 13.742187-15.292969 16.132812-15.886719 16.226562-1.523437.230469-2.6249998 1.582031-2.5429685 3.125.078125 1.539062 1.3124995 2.765625 2.8515625 2.839844 12.074219.570312 15.449219 17.289062 15.480469 17.453125.269531 1.425781 1.515625 2.441406 2.941406 2.441406.085938 0 .167969-.003906.25-.011719 1.53125-.125 2.71875-1.386718 2.753906-2.921875.257813-11.417969 16.664063-17.269531 16.824219-17.324219 1.355469-.46875 2.1875-1.824218 1.992187-3.242187-.191406-1.417969-1.359374-2.5-2.789062-2.585937zm-19.171875 13.589843c-1.847656-3.773437-4.679687-7.894531-8.890625-10.5625 3.710938-2.082031 7.390625-5.257812 9.738281-9.832031 2.117188 3.746094 5.308594 7.910156 9.882813 10.449219-3.695313 2.199219-7.976563 5.480469-10.730469 9.945312zm0 0" fill="#3a312a"/><path d="m271.769531 3h-91.421875c-25.71875 0-46.640625 20.921875-46.640625 46.640625v40.359375h29.382813v-40.359375c0-9.519531 7.738281-17.261719 17.257812-17.261719h91.421875c9.519531 0 17.257813 7.742188 17.257813 17.261719v40.359375h29.402344v-40.359375c0-25.71875-20.941407-46.640625-46.660157-46.640625zm0 0" fill="#87796f"/><path d="m271.769531 0h-91.421875c-27.371094 0-49.640625 22.269531-49.640625 49.640625v40.359375c0 1.65625 1.34375 3 3 3h29.382813c1.65625 0 3-1.34375 3-3v-40.359375c0-7.863281 6.394531-14.261719 14.257812-14.261719h91.421875c7.863281 0 14.257813 6.398438 14.257813 14.261719v40.359375c0 1.65625 1.34375 3 3 3h29.402344c1.65625 0 3-1.34375 3-3v-40.359375c0-27.371094-22.28125-49.640625-49.660157-49.640625zm43.660157 87h-23.402344v-37.359375c0-11.171875-9.089844-20.261719-20.257813-20.261719h-91.421875c-11.167968 0-20.257812 9.089844-20.257812 20.261719v37.359375h-23.382813v-37.359375c0-24.0625 19.578125-43.640625 43.640625-43.640625h91.421875c24.074219 0 43.660157 19.578125 43.660157 43.640625zm0 0" fill="#3a312a"/><path d="m100.40625 423.003906h85.410156v26h-85.410156zm0 0" fill="#87796f"/><path d="m185.816406 420.003906h-85.410156c-1.65625 0-3 1.34375-3 3v26c0 1.65625 1.34375 3 3 3h85.410156c1.65625 0 3-1.34375 3-3v-26c0-1.65625-1.34375-3-3-3zm-3 26h-79.410156v-20h79.410156zm0 0" fill="#3a312a"/><path d="m266.40625 423.003906h85.410156v26h-85.410156zm0 0" fill="#87796f"/><path d="m351.816406 420.003906h-85.410156c-1.65625 0-3 1.34375-3 3v26c0 1.65625 1.34375 3 3 3h85.410156c1.65625 0 3-1.34375 3-3v-26c0-1.65625-1.34375-3-3-3zm-3 26h-79.410156v-20h79.410156zm0 0" fill="#3a312a"/><path d="m318.179688 90.003906h-184.136719c-72.035157 0-130.433594 58.398438-130.433594 130.433594v152.339844c0 27.742187 22.488281 50.226562 50.226563 50.226562h344.546874c27.738282 0 50.226563-22.484375 50.226563-50.226562v-152.339844c.003906-72.035156-58.394531-130.433594-130.429687-130.433594zm0 0" fill="#8ac6dd"/><path d="m318.179688 87.003906h-70.515626c-1.65625 0-3 1.34375-3 3s1.34375 3 3 3h70.515626c70.265624 0 127.433593 57.167969 127.433593 127.433594v152.339844c0 26.042968-21.1875 47.226562-47.226562 47.226562h-344.546875c-26.042969 0-47.226563-21.1875-47.226563-47.226562v-152.339844c0-70.265625 57.164063-127.433594 127.433594-127.433594h87.847656c1.65625 0 3-1.34375 3-3s-1.34375-3-3-3h-87.847656c-73.578125 0-133.433594 59.859375-133.433594 133.433594v152.339844c0 29.351562 23.875 53.226562 53.226563 53.226562h344.542968c29.351563 0 53.226563-23.875 53.226563-53.226562v-152.339844c.003906-73.574219-59.855469-133.433594-133.429687-133.433594zm0 0" fill="#3a312a"/><path d="m350.230469 165.84375c-7.859375-5.898438-16.9375-10.28125-26.777344-12.699219-5.699219-1.402343-11.679687-2.140625-17.820313-2.140625h-159.039062c-6.140625 0-12.121094.738282-17.820312 2.140625-9.839844 2.417969-18.921876 6.800781-26.78125 12.699219-18.140626 13.558594-29.878907 35.242188-29.878907 59.640625v106.21875c0 16.601563 13.339844 30.0625 29.878907 30.28125.140624.019531.300781.019531.441406.019531h247.359375c.140625 0 .300781 0 .4375-.019531 16.542969-.21875 29.882812-13.679687 29.882812-30.28125v-106.21875c0-24.398437-11.742187-46.082031-29.882812-59.640625zm0 0" fill="#87796f"/><path d="m352.03125 163.445312c-8.363281-6.277343-17.738281-10.722656-27.863281-13.214843-6.015625-1.476563-12.25-2.222657-18.539063-2.222657h-159.039062c-6.285156 0-12.523438.75-18.535156 2.222657-10.125 2.492187-19.5 6.9375-27.859376 13.210937-19.464843 14.550782-31.085937 37.746094-31.085937 62.042969v106.21875c0 18.066406 14.660156 32.964844 32.707031 33.277344.207032.015625.417969.023437.617188.023437h247.359375c.195312 0 .410156-.007812.613281-.023437 18.046875-.3125 32.707031-15.210938 32.707031-33.277344v-106.21875c0-24.300781-11.621093-47.492187-31.082031-62.039063zm25.082031 168.257813c0 14.847656-12.078125 27.085937-26.921875 27.28125-.132812 0-.269531 0-.398437.019531l-247.363281.011719c-.132813-.019531-.261719-.03125-.398438-.03125-14.84375-.199219-26.917969-12.433594-26.917969-27.28125v-106.21875c0-22.753906 10.449219-43.613281 28.679688-57.242187 7.710937-5.789063 16.355469-9.886719 25.695312-12.183594 5.542969-1.363282 11.300781-2.050782 17.105469-2.050782h159.039062c5.804688 0 11.558594.6875 17.101563 2.050782 9.339844 2.296875 17.984375 6.394531 25.703125 12.1875 18.222656 13.625 28.675781 34.484375 28.675781 57.238281zm0 0" fill="#3a312a"/><path d="m101.992188 165.84375v196.140625c.140624.019531.300781.019531.441406.019531h26.339844v-208.859375c-9.839844 2.417969-18.921876 6.800781-26.78125 12.699219zm0 0" fill="#fce8cb"/><path d="m130.621094 150.785156c-.726563-.570312-1.667969-.773437-2.566406-.554687-10.125 2.492187-19.5 6.9375-27.863282 13.214843-.753906.566407-1.203125 1.457032-1.203125 2.402344v196.136719c0 1.488281 1.09375 2.753906 2.566407 2.96875.277343.039063.59375.054687.875.054687h26.339843c1.660157 0 3-1.34375 3-3v-208.863281c.003907-.921875-.421875-1.792969-1.148437-2.359375zm-4.847656 208.222656-20.78125.007813v-191.652344c6.359374-4.574219 13.328124-8.019531 20.78125-10.285156zm0 0" fill="#3a312a"/><path d="m157.351562 151.003906h26.78125v211h-26.78125zm0 0" fill="#fce8cb"/><path d="m184.132812 148.003906h-26.78125c-1.65625 0-3 1.34375-3 3v87.152344c0 1.65625 1.34375 3 3 3 1.660157 0 3-1.34375 3-3v-84.152344h20.78125v205h-20.78125v-94.484375c0-1.65625-1.339843-3-3-3-1.65625 0-3 1.34375-3 3v97.488281c0 1.65625 1.34375 3 3 3h26.78125c1.65625 0 3-1.34375 3-3v-211c0-1.660156-1.34375-3.003906-3-3.003906zm0 0" fill="#3a312a"/><path d="m212.710938 151.003906h26.800781v211h-26.800781zm0 0" fill="#fce8cb"/><path d="m239.511719 148.003906h-26.800781c-1.65625 0-3 1.34375-3 3v211c0 1.65625 1.34375 3 3 3h26.800781c1.660156 0 3-1.34375 3-3v-211c0-1.65625-1.34375-3-3-3zm-3 211h-20.800781v-205h20.800781zm0 0" fill="#3a312a"/><path d="m268.09375 151.003906h26.777344v211h-26.777344zm0 0" fill="#fce8cb"/><path d="m294.871094 148.003906h-26.777344c-1.660156 0-3 1.34375-3 3v211c0 1.65625 1.339844 3 3 3h26.777344c1.660156 0 3-1.34375 3-3v-211c0-1.65625-1.34375-3-3-3zm-3 211h-20.777344v-205h20.777344zm0 0" fill="#3a312a"/><path d="m323.453125 153.144531v208.859375h26.339844c.140625 0 .300781 0 .4375-.019531v-196.140625c-7.859375-5.898438-16.9375-10.28125-26.777344-12.699219zm0 0" fill="#fce8cb"/><path d="m352.03125 163.445312c-8.363281-6.277343-17.738281-10.722656-27.863281-13.214843-.894531-.21875-1.84375-.015625-2.566407.554687-.726562.570313-1.152343 1.4375-1.152343 2.359375v208.863281c0 1.65625 1.34375 3 3 3h26.339843c.28125 0 .59375-.015624.875-.054687 1.472657-.214844 2.566407-1.480469 2.566407-2.96875v-196.136719c0-.945312-.441407-1.835937-1.199219-2.402344zm-4.800781 195.558594h-20.777344v-201.925781c7.449219 2.261719 14.417969 5.710937 20.777344 10.285156zm0 0" fill="#3a312a"/><path d="m416.613281 235.003906h-35c-11.597656 0-21 9.402344-21 21s9.402344 21 21 21h35c11.597657 0 21-9.402344 21-21s-9.402343-21-21-21zm0 0" fill="#f16c7a"/><path d="m416.613281 232.003906h-35c-13.234375 0-24 10.765625-24 24s10.765625 24 24 24h35c13.234375 0 24-10.765625 24-24s-10.765625-24-24-24zm0 42h-35c-9.925781 0-18-8.074218-18-18 0-9.925781 8.074219-18 18-18h35c9.921875 0 18 8.074219 18 18 0 9.925782-8.078125 18-18 18zm0 0" fill="#3a312a"/><path d="m70.613281 235.003906h-35c-11.597656 0-21 9.402344-21 21s9.402344 21 21 21h35c11.597657 0 21-9.402344 21-21s-9.402343-21-21-21zm0 0" fill="#f16c7a"/><path d="m70.613281 232.003906h-35c-13.234375 0-24 10.765625-24 24s10.765625 24 24 24h35c13.234375 0 24-10.765625 24-24s-10.765625-24-24-24zm0 42h-35c-9.925781 0-18-8.074218-18-18 0-9.925781 8.074219-18 18-18h35c9.921875 0 18 8.074219 18 18 0 9.925782-8.078125 18-18 18zm0 0" fill="#3a312a"/><path d="m318.171875 93.003906h-30c70.28125 0 127.441406 57.160156 127.441406 127.441406v11.558594h1c13.238281 0 24 10.761719 24 24 0 13.238282-10.761719 24-24 24h-1v92.78125c0 26.039063-21.179687 47.21875-47.222656 47.21875h30c26.042969 0 47.222656-21.179687 47.222656-47.21875v-152.339844c0-70.28125-57.160156-127.441406-127.441406-127.441406zm0 0" fill="#6ca8bf"/></svg>