<svg height="482pt" viewBox="0 -14 482.87867 482" width="482pt" xmlns="http://www.w3.org/2000/svg"><path d="m83.8125 23.785156c-1.949219 23.128906-26.050781 26.777344-26.050781 26.777344 20.695312.972656 25.851562 28.117188 25.851562 28.117188.441407-19.351563 26.640625-28.402344 26.640625-28.402344-19.628906-1.175782-26.441406-26.492188-26.441406-26.492188zm0 0" fill="#d7e057"/><path d="m110.433594 47.28125c-17.207032-1.027344-23.664063-24.046875-23.726563-24.28125-.378906-1.402344-1.707031-2.324219-3.167969-2.203125-1.449218.132813-2.597656 1.285156-2.71875 2.734375-1.71875 20.429688-22.625 23.925781-23.507812 24.066406-1.527344.230469-2.625 1.578125-2.546875 3.121094.082031 1.539062 1.316406 2.769531 2.855469 2.84375 18.054687.847656 22.996094 25.433594 23.042968 25.683594.277344 1.421875 1.519532 2.433594 2.945313 2.433594.085937 0 .167969-.003907.253906-.011719 1.527344-.128907 2.714844-1.386719 2.75-2.917969.386719-17.015625 24.382813-25.554688 24.625-25.636719 1.351563-.46875 2.183594-1.828125 1.988281-3.246093-.199218-1.417969-1.367187-2.5-2.792968-2.585938zm-27.132813 20.691406c-2.710937-6.261718-7.414062-13.8125-15.171875-17.753906 5.863282-2.808594 12.816406-7.824219 16.402344-16.542969 3.101562 6.144531 8.398438 13.761719 16.667969 17.445313-6.015625 3.28125-13.84375 8.8125-17.898438 16.851562zm0 0" fill="#3a312a"/><path d="m40.414062 57.746094c-1.378906 16.359375-18.425781 18.941406-18.425781 18.941406 14.632813.6875 18.28125 19.890625 18.28125 19.890625.3125-13.691406 18.84375-20.089844 18.84375-20.089844-13.878906-.832031-18.699219-18.742187-18.699219-18.742187zm0 0" fill="#d7e057"/><path d="m59.296875 73.492188c-11.535156-.691407-15.945313-16.375-15.984375-16.53125-.382812-1.40625-1.726562-2.328126-3.164062-2.203126-1.453126.128907-2.601563 1.28125-2.722657 2.734376-1.160156 13.742187-15.296875 16.132812-15.886719 16.226562-1.523437.230469-2.625 1.582031-2.542968 3.125.078125 1.539062 1.3125 2.765625 2.855468 2.839844 12.070313.570312 15.445313 17.289062 15.476563 17.453125.273437 1.425781 1.519531 2.441406 2.945313 2.441406.082031 0 .167968-.003906.25-.011719 1.53125-.125 2.71875-1.386718 2.753906-2.921875.257812-11.417969 16.660156-17.269531 16.824218-17.324219 1.351563-.46875 2.183594-1.824218 1.992188-3.242187-.199219-1.417969-1.367188-2.5-2.796875-2.585937zm-19.171875 13.589843c-1.847656-3.769531-4.679688-7.894531-8.890625-10.5625 3.710937-2.082031 7.390625-5.257812 9.742187-9.832031 2.113282 3.746094 5.304688 7.910156 9.878907 10.445312-3.699219 2.203126-7.976563 5.480469-10.730469 9.949219zm0 0" fill="#3a312a"/><path d="m40.414062 4.429688c-1.378906 16.359374-18.425781 18.941406-18.425781 18.941406 14.632813.691406 18.28125 19.890625 18.28125 19.890625.3125-13.691407 18.84375-20.089844 18.84375-20.089844-13.878906-.832031-18.699219-18.742187-18.699219-18.742187zm0 0" fill="#d7e057"/><path d="m59.296875 20.175781c-11.535156-.691406-15.945313-16.375-15.984375-16.53125-.382812-1.402343-1.726562-2.324219-3.164062-2.203125-1.453126.132813-2.601563 1.285156-2.722657 2.738282-1.160156 13.742187-15.296875 16.132812-15.886719 16.226562-1.523437.230469-2.625 1.582031-2.542968 3.121094.078125 1.542968 1.3125 2.769531 2.855468 2.84375 12.070313.566406 15.445313 17.289062 15.476563 17.453125.273437 1.425781 1.519531 2.4375 2.945313 2.4375.082031 0 .167968 0 .25-.007813 1.53125-.128906 2.71875-1.390625 2.753906-2.921875.257812-11.417969 16.660156-17.269531 16.824218-17.324219 1.351563-.46875 2.183594-1.828124 1.992188-3.246093-.199219-1.417969-1.367188-2.5-2.796875-2.585938zm-19.171875 13.589844c-1.847656-3.769531-4.679688-7.894531-8.890625-10.5625 3.710937-2.082031 7.390625-5.257813 9.742187-9.832031 2.113282 3.746094 5.304688 7.910156 9.878907 10.449218-3.699219 2.203126-7.976563 5.480469-10.730469 9.945313zm0 0" fill="#3a312a"/><path d="m371.027344 69.398438v42.214843l61.109375 51.847657v-94.0625zm0 0" fill="#87796f"/><path d="m432.140625 66.398438h-61.113281c-1.65625 0-3 1.339843-3 3v42.210937c0 .882813.386718 1.71875 1.058594 2.289063l61.109374 51.847656c.554688.46875 1.246094.710937 1.945313.710937.425781 0 .855469-.089843 1.257813-.277343 1.058593-.492188 1.742187-1.554688 1.742187-2.722657v-94.058593c0-1.65625-1.347656-3-3-3zm-3 90.582031-55.113281-46.757813v-37.824218h55.113281zm0 0" fill="#3a312a"/><path d="m436.609375 42.269531h-70.0625c-4.226563 0-7.652344 3.425781-7.652344 7.652344v11.824219c0 4.222656 3.425781 7.648437 7.652344 7.648437h70.0625c4.226563 0 7.652344-3.425781 7.652344-7.648437v-11.824219c0-4.226563-3.425781-7.652344-7.652344-7.652344zm0 0" fill="#87796f"/><path d="m436.609375 39.269531h-70.0625c-5.871094 0-10.648437 4.777344-10.648437 10.652344v11.824219c0 5.871094 4.777343 10.648437 10.648437 10.648437h70.0625c5.875 0 10.652344-4.777343 10.652344-10.648437v-11.824219c0-5.875-4.777344-10.652344-10.652344-10.652344zm4.652344 22.472657c0 2.5625-2.085938 4.652343-4.652344 4.652343h-70.0625c-2.5625 0-4.648437-2.089843-4.648437-4.652343v-11.824219c0-2.5625 2.085937-4.652344 4.648437-4.652344h70.0625c2.566406 0 4.652344 2.085937 4.652344 4.652344zm0 0" fill="#3a312a"/><path d="m51.035156 212.175781h380.808594v238.289063h-380.808594zm0 0" fill="#f16c7a"/><path d="m431.839844 209.175781h-380.804688c-1.65625 0-3 1.34375-3 3v111.320313c0 1.65625 1.34375 3 3 3s3-1.34375 3-3v-108.320313h374.804688v232.289063h-374.804688v-97.398438c0-1.65625-1.34375-3-3-3s-3 1.34375-3 3v100.398438c0 1.65625 1.34375 3 3 3h380.804688c1.65625 0 3-1.34375 3-3v-238.289063c0-1.65625-1.34375-3-3-3zm0 0" fill="#3a312a"/><path d="m477.875 202.25-232.792969-197.464844c-2.101562-1.785156-5.183593-1.785156-7.285156 0l-127.847656 108.445313-19.597657 16.621093-85.351562 72.398438c-3.996094 3.390625-1.597656 9.925781 3.644531 9.925781h465.59375c5.242188 0 7.636719-6.539062 3.636719-9.925781zm0 0" fill="#87796f"/><path d="m479.820312 199.960938-232.800781-197.464844c-3.234375-2.742188-7.925781-2.742188-11.164062 0l-127.847657 108.445312c-1.261718 1.070313-1.417968 2.964844-.347656 4.226563 1.070313 1.265625 2.960938 1.421875 4.230469.347656l127.84375-108.441406c.988281-.835938 2.421875-.835938 3.40625 0l232.792969 197.460937c1.300781 1.101563.917968 2.507813.769531 2.914063-.148437.402343-.765625 1.726562-2.46875 1.726562h-465.589844c-1.707031 0-2.324219-1.324219-2.472656-1.726562-.148437-.40625-.53125-1.8125.769531-2.914063l85.351563-72.398437c1.265625-1.070313 1.417969-2.964844.347656-4.226563-1.066406-1.265625-2.964844-1.421875-4.226563-.347656l-85.355468 72.398438c-2.789063 2.367187-3.78125 6.121093-2.519532 9.558593 1.261719 3.4375 4.445313 5.65625 8.105469 5.65625h465.589844c3.664063 0 6.84375-2.21875 8.105469-5.65625 1.257812-3.4375.269531-7.191406-2.519532-9.558593zm0 0" fill="#3a312a"/><path d="m241.4375 260.019531c-44.25 0-80.125 35.875-80.125 80.125v110.300781h160.25v-110.300781c.003906-44.253906-35.871094-80.125-80.125-80.125zm0 0" fill="#d7e057"/><path d="m241.4375 257.019531c-45.835938 0-83.125 37.289063-83.125 83.125v110.300781c0 1.65625 1.34375 3 3 3h160.25c1.65625 0 3-1.34375 3-3v-110.300781c.003906-45.835937-37.289062-83.125-83.125-83.125zm77.128906 190.425781h-154.25v-107.300781c0-42.527343 34.597656-77.125 77.125-77.125s77.125 34.597657 77.125 77.125zm0 0" fill="#3a312a"/><path d="m399.140625 72.386719v59.140625l30 25.441406v-84.582031zm0 0" fill="#695b51"/><path d="m436.617188 45.269531h-30c2.5625 0 4.640624 2.078125 4.640624 4.660157v11.820312c0 2.558594-2.078124 4.636719-4.640624 4.636719h30c2.5625 0 4.640624-2.078125 4.640624-4.636719v-11.820312c0-2.582032-2.078124-4.660157-4.640624-4.660157zm0 0" fill="#695b51"/><path d="m398.839844 215.167969h30v232.300781h-30zm0 0" fill="#d34e5c"/><path d="m321.855469 145.089844c7.226562-4.4375 12.0625-12.386719 12.0625-21.484375 0-13.929688-11.292969-25.222657-25.222657-25.222657-13.929687 0-25.222656 11.292969-25.222656 25.222657 0 .945312.0625 1.882812.164063 2.800781h-84.542969c.183594-1.222656.308594-2.464844.308594-3.734375 0-13.929687-11.292969-25.222656-25.222656-25.222656-13.925782 0-25.222657 11.292969-25.222657 25.222656 0 9.097656 4.835938 17.046875 12.0625 21.484375-7.226562 4.433594-12.0625 12.382812-12.0625 21.480469 0 13.933593 11.292969 25.222656 25.222657 25.222656 13.929687 0 25.222656-11.289063 25.222656-25.222656 0-1.269531-.125-2.511719-.308594-3.734375h84.828125c-.285156 1.515625-.449219 3.070312-.449219 4.671875 0 13.929687 11.289063 25.21875 25.21875 25.21875 13.929688 0 25.222656-11.289063 25.222656-25.21875.003907-9.101563-4.832031-17.050781-12.058593-21.484375zm0 0" fill="#fce8cb"/><path d="m326.964844 145.085938c6.296875-5.320313 9.953125-13.082032 9.953125-21.484376 0-15.558593-12.660157-28.21875-28.222657-28.21875-15.496093 0-28.113281 12.550782-28.21875 28.023438h-78.082031c.007813-.246094.011719-.492188.011719-.734375 0-15.5625-12.660156-28.222656-28.21875-28.222656-15.5625 0-28.222656 12.660156-28.222656 28.222656 0 8.398437 3.652344 16.160156 9.953125 21.484375-6.296875 5.320312-9.953125 13.082031-9.953125 21.480469 0 15.5625 12.660156 28.222656 28.222656 28.222656 15.558594 0 28.21875-12.660156 28.21875-28.222656 0-.242188-.003906-.484375-.011719-.734375h78.132813c-.035156.5625-.050782 1.121094-.050782 1.671875 0 15.558593 12.660157 28.21875 28.21875 28.21875 15.5625 0 28.222657-12.660157 28.222657-28.21875 0-8.402344-3.65625-16.164063-9.953125-21.488281zm-18.269532 43.707031c-12.253906 0-22.21875-9.964844-22.21875-22.21875 0-1.335938.128907-2.6875.394532-4.121094.164062-.875-.070313-1.78125-.636719-2.464844-.570313-.6875-1.417969-1.082031-2.308594-1.082031h-84.828125c-.871094 0-1.699218.378906-2.269531 1.039062-.570313.660157-.824219 1.539063-.699219 2.402344.1875 1.257813.277344 2.304688.277344 3.296875 0 12.253907-9.96875 22.21875-22.222656 22.21875s-22.222656-9.964843-22.222656-22.21875c0-7.769531 3.976562-14.84375 10.632812-18.929687.890625-.546875 1.429688-1.515625 1.429688-2.554688 0-1.042968-.539063-2.011718-1.429688-2.558594-6.65625-4.085937-10.632812-11.160156-10.632812-18.925781 0-12.253906 9.96875-22.222656 22.222656-22.222656s22.222656 9.96875 22.222656 22.222656c0 .988281-.089844 2.035157-.277344 3.292969-.125.863281.128906 1.742188.699219 2.402344s1.398437 1.042968 2.269531 1.042968h84.542969c.851563 0 1.664063-.367187 2.230469-1 .570312-.636718.84375-1.484374.75-2.332031-.101563-.890625-.144532-1.699219-.144532-2.472656 0-12.253906 9.964844-22.222656 22.21875-22.222656 12.253907 0 22.222657 9.96875 22.222657 22.222656 0 7.765625-3.976563 14.839844-10.632813 18.925781-.886718.546875-1.429687 1.515625-1.429687 2.558594 0 1.039062.542969 2.007812 1.429687 2.554688 6.65625 4.089843 10.632813 11.164062 10.632813 18.929687 0 12.25-9.96875 22.214844-22.222657 22.214844zm0 0" fill="#3a312a"/><path d="m218.207031 328.394531c-8.859375-16.117187-32.1875-20.304687-35.304687-18.589843-2.550782 1.402343-12.082032 23.652343-3.222656 39.769531 8.855468 16.117187 21.082031 17.925781 31.722656 12.074219 10.636718-5.847657 15.664062-17.136719 6.804687-33.253907zm0 0" fill="#87796f"/><path d="m220.835938 326.949219c-9.417969-17.132813-34.171876-22.632813-39.378907-19.773438-4.292969 2.359375-14.039062 26.328125-4.40625 43.84375 4.566407 8.308594 10.261719 13.585938 16.921875 15.691407 2.089844.660156 4.246094.988281 6.4375.988281 4.09375 0 8.304688-1.148438 12.4375-3.417969 6.34375-3.488281 10.554688-8.546875 12.171875-14.636719 1.792969-6.753906.382813-14.386719-4.183593-22.695312zm-1.617188 21.152343c-1.496094 5.640626-5.863281 9.050782-9.261719 10.917969-3.398437 1.867188-8.621093 3.726563-14.179687 1.96875-5.136719-1.621093-9.671875-5.949219-13.46875-12.859375-7.496094-13.632812-.414063-32.394531 2.136718-35.660156 3.816407-.511719 23.550782 3.582031 31.132813 17.375 3.800781 6.90625 5.023437 13.050781 3.640625 18.257812zm0 0" fill="#3a312a"/><path d="m209.003906 331.601562c-4.988281-9.070312-18.117187-11.429687-19.875-10.464843-1.433594.789062-6.796875 13.3125-1.8125 22.382812 4.984375 9.070313 11.867188 10.089844 17.855469 6.796875 5.988281-3.292968 8.816406-9.644531 3.832031-18.714844zm0 0" fill="#f16c7a"/><path d="m211.632812 330.15625c-5.492187-9.996094-20.164062-13.71875-23.945312-11.648438-2.433594 1.335938-4.207031 7.199219-4.808594 10.109376-.890625 4.335937-1.300781 10.6875 1.808594 16.347656 4.042969 7.355468 9.320312 10.03125 14.308594 10.03125 2.707031 0 5.328125-.789063 7.621094-2.050782 3.894531-2.140624 6.480468-5.269531 7.484374-9.046874 1.101563-4.140626.269532-8.761719-2.46875-13.742188zm-3.328124 12.199219c-.582032 2.1875-2.121094 3.984375-4.574219 5.332031-5.375 2.957031-10.140625 1.015625-13.785157-5.609375-3.671874-6.683594-.539062-15.640625.808594-18.152344 2.988282.109375 11.996094 2.527344 15.621094 9.121094 1.96875 3.582031 2.617188 6.714844 1.929688 9.308594zm0 0" fill="#3a312a"/><path d="m299.976562 309.804688c-3.117187-1.714844-26.449218 2.472656-35.308593 18.589843-8.855469 16.117188-3.832031 27.40625 6.808593 33.253907 10.636719 5.847656 22.863282 4.042968 31.722657-12.074219 8.859375-16.117188-.675781-38.367188-3.222657-39.769531zm0 0" fill="#87796f"/><path d="m301.421875 307.175781c-5.21875-2.863281-29.960937 2.636719-39.382813 19.773438-4.5625 8.304687-5.96875 15.941406-4.179687 22.691406 1.621094 6.089844 5.828125 11.148437 12.171875 14.636719 4.132812 2.269531 8.34375 3.417968 12.441406 3.417968 2.1875 0 4.34375-.328124 6.4375-.988281 6.660156-2.105469 12.351563-7.382812 16.917969-15.691406 9.628906-17.515625-.117187-41.480469-4.40625-43.839844zm-.851563 40.953125c-3.800781 6.910156-8.332031 11.234375-13.46875 12.859375-5.558593 1.757813-10.78125-.101562-14.179687-1.96875-3.398437-1.867187-7.765625-5.277343-9.261719-10.917969-1.382812-5.207031-.160156-11.355468 3.636719-18.261718 7.179687-13.058594 25.257813-17.414063 30.394531-17.414063.289063 0 .535156.015625.738282.042969 2.554687 3.265625 9.636718 22.027344 2.140624 35.660156zm0 0" fill="#3a312a"/><path d="m293.746094 321.136719c-1.753906-.964844-14.886719 1.394531-19.875 10.464843-4.984375 9.070313-2.15625 15.421876 3.832031 18.71875 5.988281 3.289063 12.871094 2.273438 17.855469-6.796874 4.988281-9.074219-.378906-21.597657-1.8125-22.386719zm0 0" fill="#f16c7a"/><path d="m300 328.617188c-.601562-2.910157-2.378906-8.773438-4.808594-10.109376-3.773437-2.074218-18.449218 1.652344-23.945312 11.648438-2.738282 4.980469-3.570313 9.601562-2.472656 13.738281 1.003906 3.78125 3.59375 6.910157 7.484374 9.050781 2.292969 1.257813 4.914063 2.050782 7.621094 2.050782 4.988282 0 10.269532-2.679688 14.308594-10.03125 3.113281-5.660156 2.703125-12.011719 1.8125-16.347656zm-7.070312 13.460937c-3.640626 6.621094-8.398438 8.570313-13.78125 5.609375-2.457032-1.347656-3.992188-3.144531-4.574219-5.332031-.691407-2.59375-.042969-5.726563 1.929687-9.3125 3.625-6.589844 12.632813-9.011719 15.621094-9.117188 1.351562 2.511719 4.480469 11.46875.804688 18.152344zm0 0" fill="#3a312a"/><path d="m296.359375 391.023438c-.101563-.109376-.203125-.222657-.304687-.339844.109374-1.582032.167968-3.167969.167968-4.785156 0-6.535157-.957031-12.828126-2.742187-18.722657-5.496094-18.300781-18.855469-32.730469-35.726563-38.542969-5.257812-1.8125-10.847656-2.792968-16.648437-2.792968-5.601563 0-11.003907.90625-16.097657 2.609375-17.121093 5.679687-30.71875 20.222656-36.277343 38.734375-1.78125 5.894531-2.742188 12.179687-2.742188 18.714844 0 1.757812.074219 3.488281.214844 5.199218.007813.085938.007813.167969.019531.25-4.628906 5.25-7.257812 11.226563-7.257812 17.585938 0 2 .261718 3.898437.761718 5.691406 4.679688 16.902344 30.53125 25.1875 61.710938 25.1875s57.035156-8.285156 61.714844-25.1875c.5-1.792969.761718-3.691406.761718-5.691406 0-6.496094-2.742187-12.585938-7.554687-17.910156zm0 0" fill="#fce8cb"/><path d="m299.125 389.625c.066406-1.242188.097656-2.46875.097656-3.726562 0-6.714844-.964844-13.308594-2.867187-19.585938-5.785157-19.246094-19.847657-34.390625-37.621094-40.515625-11.199219-3.867187-23.539063-3.917969-34.667969-.195313-18.0625 5.996094-32.347656 21.21875-38.207031 40.714844-1.902344 6.3125-2.867187 12.898438-2.867187 19.582032 0 1.449218.046874 2.929687.148437 4.441406-4.699219 5.699218-7.171875 12.101562-7.171875 18.59375 0 2.246094.289062 4.429687.867188 6.492187 4.75 17.148438 28.902343 27.382813 64.605468 27.382813s59.851563-10.234375 64.605469-27.378906c.574219-2.066407.867187-4.25.867187-6.496094-.003906-6.75-2.671874-13.390625-7.789062-19.308594zm1.136719 24.199219c-3.929688 14.175781-26.46875 22.984375-58.824219 22.984375s-54.894531-8.808594-58.824219-22.988282c-.429687-1.542968-.644531-3.1875-.644531-4.886718 0-5.457032 2.1875-10.707032 6.503906-15.601563.5625-.640625.835938-1.414062.734375-2.261719 0-.015624-.011719-.199218-.015625-.214843-.132812-1.664063-.203125-3.332031-.203125-4.957031 0-6.09375.878907-12.101563 2.613281-17.851563 5.300782-17.628906 18.140626-31.371094 34.359376-36.753906 4.875-1.625 9.964843-2.453125 15.144531-2.453125 5.339843 0 10.617187.882812 15.671875 2.628906 15.957031 5.5 28.601562 19.167969 33.832031 36.574219 1.734375 5.722656 2.613281 11.730469 2.613281 17.855469 0 1.539062-.050781 3.035156-.160156 4.570312-.054688.78125.199219 1.550781.703125 2.148438l.375.417968c4.496094 4.972656 6.773437 10.320313 6.773437 15.898438-.003906 1.699218-.222656 3.34375-.652343 4.890625zm0 0" fill="#3a312a"/><path d="m225.011719 328.449219c-17.121094 5.679687-30.71875 20.222656-36.28125 38.734375-1.777344 5.894531-2.738281 12.179687-2.738281 18.714844 0 1.757812.074218 3.488281.210937 5.199218.011719.085938.011719.167969.019531.25-4.628906 5.25-7.253906 11.226563-7.253906 17.585938 0 2 .257812 3.898437.757812 5.691406 3.988282 1.722656 8.246094 2.648438 12.664063 2.648438 22.8125 0 41.296875-24.65625 41.296875-55.070313-.003906-12.714844-3.234375-24.433594-8.675781-33.753906zm0 0" fill="#87796f"/><path d="m227.601562 326.9375c-.714843-1.226562-2.183593-1.777344-3.535156-1.335938-18.066406 6-32.351562 21.21875-38.210937 40.71875-1.902344 6.308594-2.867188 12.898438-2.867188 19.578126 0 1.453124.046875 2.929687.152344 4.445312-4.703125 5.695312-7.175781 12.101562-7.175781 18.59375 0 2.242188.292968 4.425781.867187 6.496094.246094.871094.867188 1.589844 1.703125 1.949218 4.449219 1.917969 9.109375 2.894532 13.851563 2.894532 24.425781 0 44.296875-26.050782 44.296875-58.070313 0-12.902343-3.140625-25.09375-9.082032-35.269531zm-35.214843 87.335938c-3.4375 0-6.824219-.621094-10.097657-1.847657-.214843-1.128906-.320312-2.296875-.320312-3.492187 0-5.460938 2.1875-10.710938 6.503906-15.601563.5625-.640625.835938-1.417969.734375-2.261719 0-.015624-.011719-.203124-.015625-.214843-.132812-1.664063-.203125-3.332031-.203125-4.960938 0-6.09375.878907-12.097656 2.613281-17.851562 5.042969-16.777344 16.914063-30.027344 32.023438-35.910157 4.625 8.808594 7.058594 19.148438 7.058594 30.070313 0 28.710937-17.179688 52.070313-38.296875 52.070313zm0 0" fill="#3a312a"/><path d="m296.359375 391.023438c-.101563-.109376-.203125-.222657-.304687-.339844.109374-1.582032.167968-3.167969.167968-4.785156 0-6.535157-.957031-12.828126-2.742187-18.722657-5.496094-18.300781-18.855469-32.730469-35.726563-38.542969-5.367187 9.292969-8.5625 20.9375-8.5625 33.570313 0 30.414063 18.484375 55.070313 41.300782 55.070313 4.414062 0 8.671874-.925782 12.660156-2.648438.5-1.792969.761718-3.691406.761718-5.691406 0-6.496094-2.742187-12.585938-7.554687-17.910156zm0 0" fill="#87796f"/><path d="m299.125 389.625c.066406-1.242188.097656-2.46875.097656-3.726562 0-6.714844-.964844-13.308594-2.867187-19.585938-5.785157-19.246094-19.847657-34.390625-37.621094-40.515625-1.351563-.46875-2.859375.089844-3.574219 1.335937-5.867187 10.152344-8.964844 22.277344-8.964844 35.070313 0 32.019531 19.871094 58.070313 44.296876 58.070313 4.742187 0 9.402343-.976563 13.851562-2.894532.832031-.359375 1.457031-1.078125 1.699219-1.949218.574219-2.070313.871093-4.253907.871093-6.496094-.003906-6.75-2.671874-13.390625-7.789062-19.308594zm1.464844 22.800781c-3.273438 1.226563-6.660156 1.847657-10.097656 1.847657-21.121094 0-38.296876-23.359376-38.296876-52.070313 0-10.816406 2.394532-21.078125 6.945313-29.851563 14.835937 5.988282 26.503906 19.152344 31.46875 35.691407 1.734375 5.722656 2.613281 11.730469 2.613281 17.855469 0 1.539062-.050781 3.035156-.160156 4.570312-.054688.78125.199219 1.550781.703125 2.148438l.375.417968c4.496094 4.972656 6.773437 10.320313 6.773437 15.898438-.003906 1.195312-.109374 2.367187-.324218 3.492187zm0 0" fill="#3a312a"/><path d="m241.460938 387.027344c-4.890626-.019532-8.867188 2.339844-8.878907 5.277344-.015625 2.9375 3.929688 7.695312 8.824219 7.714843 4.890625.023438 8.878906-4.703125 8.890625-7.640625.015625-2.929687-3.941406-5.328125-8.835937-5.351562zm0 0" fill="#3a312a"/><path d="m241.4375 397.382812c0 6.320313-4.785156 11.515626-10.933594 12.152344.113282 7.617188 4.96875 13.734375 10.933594 13.734375 5.96875 0 10.824219-6.117187 10.9375-13.734375-6.148438-.636718-10.9375-5.832031-10.9375-12.152344zm0 0" fill="#f16c7a"/><g fill="#3a312a"><path d="m252.6875 406.550781c-4.703125-.484375-8.25-4.429687-8.25-9.164062 0-1.65625-1.34375-3-3-3s-3 1.34375-3 3c0 4.738281-3.542969 8.679687-8.246094 9.164062-1.542968.164063-2.710937 1.476563-2.691406 3.03125.144531 9.359375 6.265625 16.6875 13.9375 16.6875 7.675781 0 13.796875-7.328125 13.9375-16.6875.023438-1.554687-1.144531-2.871093-2.6875-3.03125zm-11.25 13.71875c-3.683594 0-6.828125-3.570312-7.699219-8.34375 3.132813-.964843 5.804688-2.898437 7.699219-5.441406 1.894531 2.542969 4.566406 4.476563 7.703125 5.441406-.871094 4.773438-4.019531 8.34375-7.703125 8.34375zm0 0"/><path d="m241.4375 394.382812c-1.65625 0-3 1.34375-3 3 0 4.738282-3.542969 8.679688-8.292969 9.171876-.304687.039062-.617187.050781-.929687.050781-5.085938 0-9.222656-4.136719-9.222656-9.222657 0-1.660156-1.34375-3-3-3s-3 1.339844-3 3c0 8.394532 6.828124 15.222657 15.222656 15.222657.550781 0 1.105468-.027344 1.597656-.085938 7.769531-.808593 13.625-7.316406 13.625-15.136719 0-1.652343-1.34375-3-3-3zm0 0"/><path d="m265.886719 394.382812c-1.65625 0-3 1.34375-3 3 0 5.085938-4.136719 9.226563-9.222657 9.226563-.3125 0-.625-.015625-.976562-.058594-4.699219-.484375-8.246094-4.429687-8.246094-9.164062 0-1.65625-1.34375-3-3-3s-3 1.34375-3 3c0 7.820312 5.855469 14.324219 13.578125 15.128906.542969.066406 1.09375.09375 1.644531.09375 8.394532 0 15.222657-6.828125 15.222657-15.222656 0-1.65625-1.34375-3.003907-3-3.003907zm0 0"/></g><path d="m205.488281 383.976562c-6.355469 0-11.503906 3.21875-11.503906 7.191407 0 3.96875 5.148437 7.1875 11.503906 7.1875 6.351563 0 11.503907-3.21875 11.503907-7.1875 0-3.972657-5.152344-7.191407-11.503907-7.191407zm0 0" fill="#f5978a"/><path d="m277.390625 383.976562c-6.355469 0-11.503906 3.21875-11.503906 7.191407 0 3.96875 5.148437 7.1875 11.503906 7.1875s11.503906-3.21875 11.503906-7.1875c.003907-3.972657-5.148437-7.191407-11.503906-7.191407zm0 0" fill="#f5978a"/><path d="m222.746094 371.859375c-2.78125 0-5.035156 2.253906-5.035156 5.035156 0 2.777344 2.253906 5.03125 5.035156 5.03125 2.777344 0 5.03125-2.253906 5.03125-5.03125 0-2.78125-2.253906-5.035156-5.03125-5.035156zm0 0" fill="#3a312a"/><path d="m260.136719 371.859375c-2.78125 0-5.035157 2.253906-5.035157 5.035156 0 2.777344 2.25 5.03125 5.035157 5.03125 2.777343 0 5.03125-2.253906 5.03125-5.03125 0-2.78125-2.253907-5.035156-5.03125-5.035156zm0 0" fill="#3a312a"/><path d="m475.9375 204.527344-232.796875-197.457032c-.980469-.820312-2.421875-.839843-3.402344 0l-13.300781 11.277344 219.5 186.179688c1.300781 1.121094.921875 2.519531.761719 2.921875-.140625.398437-.761719 1.71875-2.460938 1.71875h30c1.699219 0 2.320313-1.320313 2.460938-1.71875.160156-.402344.539062-1.800781-.761719-2.921875zm0 0" fill="#695b51"/></svg>