<svg height="452pt" viewBox="0 0 452 452.332" width="452pt" xmlns="http://www.w3.org/2000/svg"><path d="m226.253906 134c-108.246094 0-196 75.332031-196 168.257812 0 63.25 40.65625 118.335938 100.753906 147.078126h190.496094c60.09375-28.742188 100.753906-83.828126 100.753906-147.078126 0-92.929687-87.753906-168.257812-196.003906-168.257812zm0 0" fill="#f16c7a"/><path d="m226.253906 131c-109.730468 0-199 76.824219-199 171.257812 0 62.164063 39.257813 119.554688 102.460938 149.78125.402344.191407.84375.292969 1.292968.292969h49.835938c1.65625 0 3-1.34375 3-3s-1.34375-3-3-3h-49.152344c-60.738281-29.296875-98.4375-84.445312-98.4375-144.074219 0-91.125 86.578125-165.257812 193-165.257812s193.003906 74.132812 193.003906 165.257812c0 59.628907-37.703124 114.777344-98.441406 144.074219h-114.488281c-1.65625 0-3 1.34375-3 3s1.34375 3 3 3h115.171875c.449219 0 .890625-.101562 1.292969-.292969 63.199219-30.226562 102.460937-87.617187 102.460937-149.78125.003906-94.433593-89.269531-171.257812-199-171.257812zm0 0" fill="#3a312a"/><path d="m284.394531 73.140625h-116.28125c-6.617187 0-11.980469 5.367187-11.980469 11.980469v28.101562h140.242188v-28.101562c0-6.613282-5.363281-11.980469-11.980469-11.980469zm0 0" fill="#8ac6dd"/><path d="m284.394531 70.140625h-116.28125c-8.261719 0-14.980469 6.722656-14.980469 14.980469v28.101562c0 1.660156 1.339844 3 3 3h43.242188c1.65625 0 3-1.339844 3-3 0-1.65625-1.34375-3-3-3h-40.242188v-25.101562c0-4.949219 4.027344-8.980469 8.980469-8.980469h116.28125c4.953125 0 8.980469 4.03125 8.980469 8.980469v25.101562h-68.242188c-1.65625 0-3 1.34375-3 3 0 1.660156 1.34375 3 3 3h71.242188c1.660156 0 3-1.339844 3-3v-28.101562c0-8.257813-6.722656-14.980469-14.980469-14.980469zm0 0" fill="#3a312a"/><path d="m304.796875 113.222656h-157.089844c-10.152343 0-18.386719 8.234375-18.386719 18.386719v24.390625h193.863282v-24.390625c0-10.15625-8.230469-18.386719-18.386719-18.386719zm0 0" fill="#8ac6dd"/><path d="m304.796875 110.222656h-79.664063c-1.65625 0-3 1.34375-3 3 0 1.660156 1.34375 3 3 3h79.664063c8.484375 0 15.386719 6.902344 15.386719 15.386719v21.390625h-187.863282v-21.390625c0-8.484375 6.902344-15.386719 15.386719-15.386719h51.664063c1.660156 0 3-1.339844 3-3 0-1.65625-1.339844-3-3-3h-51.664063c-11.792969 0-21.386719 9.59375-21.386719 21.386719v24.390625c0 1.65625 1.34375 3 3 3h193.863282c1.660156 0 3-1.34375 3-3v-24.390625c0-11.792969-9.59375-21.386719-21.386719-21.386719zm0 0" fill="#3a312a"/><path d="m279.535156 33.246094h-146.058594c1.699219 3.71875 2.621094 7.660156 2.621094 11.71875 0 4.0625-.921875 7.980468-2.621094 11.699218h146.058594c3.242188 0 6.160156-1.296874 8.28125-3.417968s3.441406-5.039063 3.441406-8.28125c0-6.480469-5.242187-11.71875-11.722656-11.71875zm0 0" fill="#fce8cb"/><path d="m279.535156 30.246094h-146.058594c-1.023437 0-1.972656.519531-2.523437 1.378906-.554687.855469-.628906 1.9375-.207031 2.867188 1.558594 3.410156 2.351562 6.933593 2.351562 10.472656 0 3.523437-.792968 7.042968-2.351562 10.453125-.421875.929687-.347656 2.011719.207031 2.867187.550781.859375 1.503906 1.378906 2.523437 1.378906h146.058594c3.9375 0 7.628906-1.527343 10.402344-4.296874 2.785156-2.789063 4.320312-6.480469 4.320312-10.402344 0-8.113282-6.605468-14.71875-14.722656-14.71875zm6.160156 20.878906c-1.640624 1.636719-3.828124 2.539062-6.160156 2.539062h-141.730468c.855468-2.859374 1.292968-5.769531 1.292968-8.699218 0-2.9375-.433594-5.855469-1.292968-8.71875h141.730468c4.808594 0 8.71875 3.910156 8.71875 8.71875.003906 2.320312-.90625 4.507812-2.558594 6.160156zm0 0" fill="#3a312a"/><path d="m136.097656 44.957031c0-23.171875-29.757812-41.960937-66.46875-41.960937-36.707031 0-66.464844 18.789062-66.464844 41.960937 0 23.175781 29.757813 41.960938 66.464844 41.960938 36.710938 0 66.46875-18.785157 66.46875-41.960938zm0 0" fill="#d7e057"/><path d="m69.632812 0c-38.304687 0-69.46875 20.167969-69.46875 44.957031 0 24.789063 31.164063 44.957031 69.46875 44.957031 38.300782 0 69.464844-20.167968 69.464844-44.957031 0-24.789062-31.164062-44.957031-69.464844-44.957031zm0 83.917969c-34.996093 0-63.46875-17.476563-63.46875-38.957031 0-21.484376 28.472657-38.960938 63.46875-38.960938 34.992188 0 63.464844 17.476562 63.464844 38.957031 0 21.484375-28.472656 38.960938-63.464844 38.960938zm0 0" fill="#3a312a"/><path d="m246.1875 4h-39.871094c-10.890625 0-19.71875 8.828125-19.71875 19.722656v49.417969h79.308594v-49.417969c0-10.894531-8.828125-19.722656-19.71875-19.722656zm0 0" fill="#87796f"/><path d="m246.1875 1h-39.871094c-12.527344 0-22.71875 10.195312-22.71875 22.722656v49.417969c0 1.660156 1.339844 3 3 3h79.308594c1.65625 0 3-1.339844 3-3v-49.417969c0-12.527344-10.191406-22.722656-22.71875-22.722656zm16.71875 69.140625h-73.308594v-46.417969c0-9.21875 7.503906-16.722656 16.722656-16.722656h39.867188c9.21875 0 16.722656 7.5 16.722656 16.722656v46.417969zm0 0" fill="#3a312a"/><path d="m422.34375 22.605469c-1.949219 23.125-26.050781 26.777343-26.050781 26.777343 20.695312.976563 25.851562 28.121094 25.851562 28.121094.441407-19.355468 26.640625-28.40625 26.640625-28.40625-19.625-1.175781-26.441406-26.492187-26.441406-26.492187zm0 0" fill="#d7e057"/><path d="m448.964844 46.101562c-17.207032-1.027343-23.660156-24.046874-23.726563-24.28125-.378906-1.402343-1.695312-2.324218-3.164062-2.199218-1.449219.132812-2.597657 1.28125-2.71875 2.734375-1.71875 20.429687-22.625 23.925781-23.507813 24.0625-1.527344.230469-2.625 1.578125-2.546875 3.121093.082031 1.539063 1.316407 2.769532 2.855469 2.84375 18.054688.847657 22.996094 25.433594 23.046875 25.683594.273437 1.421875 1.515625 2.433594 2.941406 2.433594.085938 0 .167969-.003906.253907-.011719 1.527343-.125 2.714843-1.382812 2.746093-2.917969.390625-17.015624 24.382813-25.550781 24.628907-25.636718 1.347656-.46875 2.183593-1.828125 1.988281-3.246094-.203125-1.417969-1.371094-2.5-2.796875-2.585938zm-27.128906 20.691407c-2.714844-6.261719-7.421876-13.816407-15.175782-17.753907 5.863282-2.808593 12.816406-7.824218 16.402344-16.546874 3.101562 6.144531 8.402344 13.761718 16.667969 17.445312-6.011719 3.28125-13.84375 8.8125-17.894531 16.855469zm0 0" fill="#3a312a"/><path d="m378.945312 56.566406c-1.378906 16.359375-18.421874 18.941406-18.421874 18.941406 14.632812.6875 18.28125 19.886719 18.28125 19.886719.3125-13.6875 18.84375-20.089843 18.84375-20.089843-13.882813-.832032-18.703126-18.738282-18.703126-18.738282zm0 0" fill="#d7e057"/><path d="m397.828125 72.308594c-11.53125-.691406-15.945313-16.371094-15.988281-16.527344-.378906-1.40625-1.703125-2.339844-3.164063-2.203125-1.453125.128906-2.597656 1.285156-2.71875 2.734375-1.160156 13.742188-15.292969 16.136719-15.886719 16.230469-1.523437.230469-2.625 1.578125-2.542968 3.121093.078125 1.539063 1.3125 2.769532 2.855468 2.84375 12.070313.566407 15.445313 17.285157 15.476563 17.449219.269531 1.425781 1.519531 2.4375 2.945313 2.4375.082031 0 .164062-.003906.25-.007812 1.53125-.125 2.714843-1.390625 2.75-2.921875.261718-11.417969 16.664062-17.269532 16.828124-17.324219 1.351563-.46875 2.1875-1.828125 1.992188-3.246094s-1.367188-2.5-2.796875-2.585937zm-19.167969 13.589844c-1.847656-3.769532-4.679687-7.890626-8.894531-10.558594 3.710937-2.082032 7.394531-5.257813 9.742187-9.832032 2.113282 3.75 5.304688 7.90625 9.878907 10.445313-3.695313 2.203125-7.976563 5.480469-10.726563 9.945313zm0 0" fill="#3a312a"/><path d="m378.945312 3.25c-1.378906 16.359375-18.421874 18.941406-18.421874 18.941406 14.632812.6875 18.28125 19.886719 18.28125 19.886719.3125-13.691406 18.84375-20.089844 18.84375-20.089844-13.882813-.832031-18.703126-18.738281-18.703126-18.738281zm0 0" fill="#d7e057"/><path d="m397.828125 18.992188c-11.53125-.6875-15.945313-16.371094-15.984375-16.527344-.382812-1.40625-1.707031-2.339844-3.164062-2.203125-1.453126.128906-2.601563 1.28125-2.722657 2.734375-1.15625 13.742187-15.292969 16.132812-15.882812 16.226562-1.527344.230469-2.625 1.582032-2.546875 3.121094.082031 1.539062 1.316406 2.769531 2.855468 2.84375 12.070313.566406 15.445313 17.285156 15.480469 17.449219.269531 1.425781 1.515625 2.441406 2.941407 2.441406.085937 0 .167968-.003906.25-.011719 1.53125-.125 2.71875-1.386718 2.753906-2.921875.257812-11.417969 16.664062-17.265625 16.824218-17.324219 1.351563-.464843 2.1875-1.824218 1.992188-3.242187-.195312-1.414063-1.367188-2.5-2.796875-2.585937zm-19.167969 13.59375c-1.847656-3.773438-4.679687-7.894532-8.894531-10.5625 3.710937-2.082032 7.394531-5.257813 9.742187-9.832032 2.113282 3.746094 5.308594 7.910156 9.878907 10.449219-3.695313 2.199219-7.976563 5.480469-10.726563 9.945313zm0 0" fill="#3a312a"/><path d="m322.394531 159h-30c57.839844 28.578125 96.859375 82.078125 96.859375 143.261719 0 59.617187-37.699218 114.777343-98.441406 144.078125h30c60.742188-29.300782 98.441406-84.460938 98.441406-144.078125 0-61.183594-39.019531-114.683594-96.859375-143.261719zm0 0" fill="#d34e5c"/><path d="m284.394531 76.140625h-30c4.960938 0 8.980469 4.019531 8.980469 8.980469v25.097656h30v-25.097656c0-4.960938-4.019531-8.980469-8.980469-8.980469zm0 0" fill="#6ca8bf"/><path d="m304.792969 116.21875h-30c8.480469 0 15.402343 6.902344 15.402343 15.402344v21.378906h30v-21.378906c0-8.5-6.921874-15.402344-15.402343-15.402344zm0 0" fill="#6ca8bf"/><path d="m246.195312 7h-30c9.21875 0 16.71875 7.5 16.71875 16.71875v46.421875h30v-46.421875c0-9.21875-7.5-16.71875-16.71875-16.71875zm0 0" fill="#695b51"/><path d="m226.609375 198c-57.136719-.195312-103.617187 45.964844-103.808594 103.101562-.195312 57.136719 45.964844 103.613282 103.097657 103.808594 57.136718.195313 103.617187-45.964844 103.808593-103.101562.195313-57.136719-45.964843-103.613282-103.097656-103.808594zm0 0" fill="#fce8cb"/><path d="m226.617188 195c-.125 0-.246094-.003906-.371094-.003906-58.527344 0-106.246094 47.519531-106.445313 106.09375-.097656 28.433594 10.882813 55.207031 30.921875 75.378906 20.039063 20.175781 46.734375 31.339844 75.167969 31.4375h.375c28.292969 0 54.921875-10.972656 75.003906-30.921875 20.175781-20.039063 31.339844-46.734375 31.4375-75.167969.199219-58.695312-47.390625-106.613281-106.089843-106.816406zm70.425781 177.730469c-19.039063 18.910156-44.238281 29.207031-71.132813 29.179687-26.832031-.089844-52.023437-10.625-70.929687-29.664062-18.910157-19.039063-29.273438-44.300782-29.179688-71.132813.1875-55.277343 45.214844-100.113281 100.445313-100.113281.117187 0 .234375.003906.351562.003906 55.390625.1875 100.300782 45.40625 100.109375 100.796875-.089843 26.828125-10.625 52.019531-29.664062 70.929688zm0 0" fill="#3a312a"/><path d="m226.539062 298.132812c-19.734374-.066406-35.796874 19.300782-35.851562 35.679688-.054688 16.382812 15.929688 19.292969 35.664062 19.363281 19.730469.0625 35.738282-2.738281 35.792969-19.117187.054688-16.378906-15.875-35.855469-35.605469-35.925782zm0 0" fill="#87796f"/><path d="m253.957031 307.9375c-7.648437-8.222656-17.382812-12.769531-27.410156-12.804688h-.113281c-9.988282 0-19.707032 4.476563-27.382813 12.613282-7.085937 7.515625-11.332031 17.257812-11.363281 26.058594-.074219 22.234374 26.082031 22.324218 38.652344 22.367187.578125.003906 1.183594.003906 1.8125.003906 13.105468 0 36.917968-.894531 36.992187-22.109375.03125-8.796875-4.152343-18.570312-11.1875-26.128906zm-27.597656 42.234375c-23.550781-.078125-32.710937-4.664063-32.667969-16.347656.023438-7.316407 3.660156-15.527344 9.726563-21.960938 6.53125-6.921875 14.699219-10.730469 23.019531-10.730469h.09375c14.824219.050782 32.675781 14.746094 32.613281 32.914063-.039062 11.683594-9.203125 16.164063-32.785156 16.125zm0 0" fill="#3a312a"/><path d="m226.703125 249.738281c-7.726563-.027343-14.019531 7.992188-14.054687 17.90625-.03125 9.917969 6.207031 17.980469 13.929687 18.003907 7.730469.027343 14.023437-7.992188 14.054687-17.90625.035157-9.917969-6.199218-17.976563-13.929687-18.003907zm0 0" fill="#87796f"/><path d="m238.953125 253.195312c-3.210937-4.148437-7.558594-6.4375-12.238281-6.457031h-.050782c-4.664062 0-9.007812 2.265625-12.230468 6.375-3.066406 3.90625-4.761719 9.0625-4.785156 14.523438-.015626 5.460937 1.644531 10.628906 4.683593 14.558593 3.210938 4.148438 7.554688 6.441407 12.238281 6.457032h.046876c9.347656 0 16.976562-9.363282 17.015624-20.898438.019532-5.460937-1.644531-10.632812-4.679687-14.558594zm-12.332031 29.457032h-.027344c-2.792969-.011719-5.460938-1.476563-7.515625-4.128906-2.222656-2.875-3.441406-6.734376-3.425781-10.867188.011718-4.128906 1.253906-7.980469 3.5-10.839844 2.0625-2.628906 4.730468-4.078125 7.511718-4.078125h.03125c2.789063.007813 5.460938 1.476563 7.511719 4.128907 2.226563 2.875 3.441407 6.734374 3.425781 10.867187-.027343 8.230469-4.964843 14.917969-11.011718 14.917969zm0 0" fill="#3a312a"/><path d="m199.164062 275.289062c-4.601562-8.785156-13.882812-13-20.726562-9.414062-6.847656 3.585938-8.664062 13.613281-4.0625 22.402344 4.601562 8.785156 13.882812 12.996094 20.730469 9.410156 6.84375-3.585938 8.660156-13.617188 4.058593-22.398438zm0 0" fill="#87796f"/><path d="m201.820312 273.894531c-2.535156-4.835937-6.421874-8.628906-10.941406-10.683593-4.773437-2.164063-9.6875-2.164063-13.835937.007812-4.148438 2.171875-6.945313 6.214844-7.882813 11.375-.882812 4.882812.023438 10.238281 2.558594 15.074219 2.535156 4.835937 6.421875 8.632812 10.941406 10.683593 2.386719 1.082032 4.804688 1.625 7.144532 1.625 2.347656 0 4.617187-.542968 6.691406-1.632812 8.300781-4.347656 10.6875-16.214844 5.324218-26.449219zm-8.109374 21.136719c-2.472657 1.292969-5.515626 1.246094-8.570313-.140625-3.3125-1.503906-6.1875-4.347656-8.105469-8.007813-1.917968-3.660156-2.621094-7.644531-1.96875-11.21875.597656-3.300781 2.289063-5.832031 4.761719-7.128906 1.195313-.625 2.519531-.9375 3.914063-.9375 1.5 0 3.078124.359375 4.660156 1.078125 3.308594 1.503907 6.1875 4.347657 8.105468 8.007813 3.828126 7.300781 2.570313 15.53125-2.796874 18.347656zm0 0" fill="#3a312a"/><path d="m170.277344 301.875c-7.878906-6.023438-18.070313-5.9375-22.765625.199219-4.699219 6.136719-2.121094 15.996093 5.757812 22.023437 7.875 6.027344 18.066407 5.9375 22.761719-.199218 4.699219-6.132813 2.121094-15.996094-5.753906-22.023438zm0 0" fill="#87796f"/><path d="m180.773438 312.089844c-1.257813-4.804688-4.335938-9.277344-8.671876-12.597656-4.335937-3.316407-9.402343-5.167969-14.425781-5.078126-5.242187.046876-9.699219 2.117188-12.542969 5.839844-2.847656 3.714844-3.683593 8.558594-2.359374 13.632813 1.253906 4.800781 4.335937 9.273437 8.671874 12.59375 4.285157 3.28125 9.339844 5.082031 14.25 5.082031.058594 0 .113282 0 .171876-.003906 5.246093-.042969 9.703124-2.117188 12.546874-5.835938 2.847657-3.71875 3.683594-8.558594 2.359376-13.632812zm-7.125 9.988281c-1.695313 2.21875-4.476563 3.457031-7.832032 3.484375-3.683594-.019531-7.441406-1.335938-10.722656-3.847656-3.28125-2.507813-5.59375-5.828125-6.515625-9.34375-.847656-3.246094-.378906-6.253906 1.320313-8.472656 1.695312-2.21875 4.476562-3.457032 7.832031-3.484376h.125c3.597656 0 7.355469 1.363282 10.601562 3.847657 3.28125 2.507812 5.59375 5.828125 6.511719 9.34375.84375 3.246093.378906 6.253906-1.320312 8.472656zm0 0" fill="#3a312a"/><path d="m275.078125 266.207031c-6.816406-3.636719-16.128906.515625-20.789063 9.269531-4.664062 8.75-2.914062 18.792969 3.90625 22.425782 6.820313 3.632812 16.125-.515625 20.789063-9.269532 4.664063-8.753906 2.914063-18.792968-3.90625-22.425781zm0 0" fill="#87796f"/><path d="m284.292969 274.984375c-.898438-5.164063-3.671875-9.222656-7.804688-11.425781-4.128906-2.203125-9.046875-2.238282-13.835937-.101563-4.53125 2.023438-8.445313 5.789063-11.011719 10.609375-2.566406 4.820313-3.511719 10.167969-2.660156 15.058594.902343 5.167969 3.671875 9.226562 7.804687 11.425781 2.101563 1.121094 4.402344 1.675781 6.785156 1.675781 2.308594 0 4.695313-.523437 7.050782-1.574218 4.535156-2.023438 8.445312-5.789063 11.011718-10.609375 2.570313-4.820313 3.511719-10.167969 2.660157-15.058594zm-7.953125 12.238281c-1.945313 3.644532-4.84375 6.46875-8.160156 7.949219-3.0625 1.367187-6.109376 1.394531-8.574219.082031-2.464844-1.3125-4.140625-3.855468-4.714844-7.160156-.625-3.582031.101563-7.5625 2.042969-11.207031 1.945312-3.648438 4.839844-6.472657 8.164062-7.949219 3.0625-1.367188 6.105469-1.394531 8.574219-.082031 2.460937 1.3125 4.136719 3.855469 4.710937 7.160156.625 3.582031-.101562 7.558594-2.042968 11.207031zm0 0" fill="#3a312a"/><path d="m305.042969 302.613281c-4.65625-6.167969-14.847657-6.328125-22.761719-.355469-7.917969 5.972657-10.5625 15.816407-5.90625 21.984376 4.652344 6.167968 14.84375 6.324218 22.761719.355468 7.914062-5.972656 10.5625-15.816406 5.90625-21.984375zm0 0" fill="#87796f"/><path d="m307.4375 300.804688c-2.820312-3.738282-7.261719-5.839844-12.507812-5.921876-4.953126-.070312-10.09375 1.691407-14.457032 4.984376-4.359375 3.289062-7.46875 7.738281-8.757812 12.535156-1.359375 5.0625-.558594 9.910156 2.261718 13.648437 2.820313 3.738281 7.261719 5.84375 12.507813 5.925781h.3125c4.863281 0 9.875-1.761718 14.144531-4.984374 4.359375-3.289063 7.46875-7.738282 8.757813-12.535157 1.363281-5.066406.558593-9.914062-2.261719-13.652343zm-3.53125 12.09375c-.945312 3.511718-3.28125 6.816406-6.578125 9.304687s-7.046875 3.808594-10.75 3.769531c-3.355469-.050781-6.128906-1.308594-7.808594-3.535156-1.679687-2.230469-2.128906-5.242188-1.257812-8.480469.945312-3.507812 3.28125-6.8125 6.578125-9.300781 3.230468-2.4375 6.960937-3.773438 10.53125-3.773438h.222656c3.351562.054688 6.125 1.308594 7.804688 3.539063 1.679687 2.226563 2.128906 5.238281 1.257812 8.476563zm0 0" fill="#3a312a"/></svg>