<svg height="450pt" viewBox="-60 0 450 450.686" width="450pt" xmlns="http://www.w3.org/2000/svg"><path d="m254.996094 129h-129.839844c-45.019531 0-78.960938 40.921875-70.621094 85.160156l4.019532 21.378906 5.441406 28.859376 4.617187 24.601562h242.921875l14.078125-74.839844c8.34375-44.238281-25.597656-85.160156-70.617187-85.160156zm0 0" fill="#f16c7a"/><path d="m312.632812 153.082031c-14.273437-17.210937-35.28125-27.085937-57.636718-27.085937h-129.839844c-22.359375 0-43.367188 9.875-57.636719 27.085937-14.265625 17.207031-20.074219 39.671875-15.933593 61.632813l4.019531 21.378906c.304687 1.628906 1.867187 2.695312 3.503906 2.394531 1.628906-.304687 2.699219-1.875 2.394531-3.503906l-4.019531-21.378906c-3.808594-20.203125 1.53125-40.867188 14.652344-56.691407 13.125-15.832031 32.449219-24.910156 53.015625-24.910156h129.839844c20.566406 0 39.890624 9.078125 53.015624 24.910156 13.125 15.824219 18.464844 36.488282 14.65625 56.695313l-13.617187 72.394531h-237.945313l-4.160156-22.15625c-.304687-1.628906-1.871094-2.699218-3.5-2.394531-1.628906.308594-2.699218 1.875-2.394531 3.503906l4.617187 24.597657c.265626 1.417968 1.507813 2.449218 2.949219 2.449218h242.917969c1.445312 0 2.683594-1.03125 2.949219-2.449218l14.082031-74.835938c4.140625-21.964844-1.664062-44.429688-15.929688-61.636719zm0 0" fill="#3a312a"/><path d="m68.617188 289 26.707031 141.84375c1.839843 9.769531 10.371093 16.84375 20.308593 16.84375h148.882813c9.941406 0 18.472656-7.074219 20.308594-16.84375l26.707031-141.84375zm0 0" fill="#8ac6dd"/><path d="m313.839844 287.085938c-.570313-.691407-1.417969-1.085938-2.3125-1.085938h-242.910156c-.890626 0-1.738282.398438-2.308594 1.085938-.570313.6875-.804688 1.589843-.636719 2.46875l26.707031 141.84375c2.101563 11.175781 11.882813 19.289062 23.253906 19.289062h23.777344c1.65625 0 3-1.34375 3-3 0-1.660156-1.34375-3-3-3h-23.777344c-8.488281 0-15.789062-6.054688-17.359374-14.398438l-26.035157-138.285156h235.675781l-26.035156 138.285156c-1.570312 8.34375-8.875 14.398438-17.363281 14.398438h-96.773437c-1.660157 0-3 1.339844-3 3 0 1.65625 1.339843 3 3 3h96.773437c11.375 0 21.152344-8.113281 23.257813-19.289062l26.707031-141.84375c.164062-.875-.070313-1.78125-.640625-2.46875zm0 0" fill="#3a312a"/><path d="m135.074219 3h76.09375v19.261719h-76.09375zm0 0" fill="#87796f"/><path d="m211.167969 0h-76.09375c-1.65625 0-3 1.34375-3 3v19.261719c0 1.660156 1.34375 3 3 3h76.09375c1.65625 0 3-1.339844 3-3v-19.261719c0-1.65625-1.34375-3-3-3zm-3 19.261719h-70.09375v-13.261719h70.09375zm0 0" fill="#3a312a"/><path d="m178.59375 22.261719h23.703125v21.519531h-23.703125zm0 0" fill="#87796f"/><path d="m202.296875 19.261719h-23.703125c-1.65625 0-3 1.339843-3 3v21.519531c0 1.65625 1.34375 3 3 3h23.703125c1.65625 0 3-1.34375 3-3v-21.519531c0-1.660157-1.347656-3-3-3zm-3 21.519531h-17.703125v-15.519531h17.703125zm0 0" fill="#3a312a"/><path d="m222.136719 85.960938h-64.121094c-7.699219 0-13.980469 6.257812-13.980469 13.980468v29.058594h92.078125v-29.058594c0-7.722656-6.277343-13.980468-13.976562-13.980468zm0 0" fill="#fce8cb"/><path d="m222.136719 82.960938h-64.121094c-9.363281 0-16.980469 7.617187-16.980469 16.980468v29.058594c0 1.65625 1.34375 3 3 3h92.078125c1.660157 0 3-1.34375 3-3v-29.058594c0-9.367187-7.617187-16.980468-16.976562-16.980468zm10.976562 43.039062h-86.082031v-26.058594c0-6.054687 4.929688-10.980468 10.980469-10.980468h64.121093c6.054688 0 10.980469 4.925781 10.980469 10.980468zm0 0" fill="#3a312a"/><path d="m202.679688 43.777344h-25.210938c-4.691406 0-8.488281 3.800781-8.488281 8.488281v33.695313h42.183593v-33.695313c.003907-4.6875-3.796874-8.488281-8.484374-8.488281zm0 0" fill="#fce8cb"/><path d="m202.679688 40.777344h-25.210938c-6.332031 0-11.484375 5.152344-11.484375 11.488281v33.695313c0 1.660156 1.339844 3 3 3h42.183594c1.65625 0 3-1.339844 3-3v-33.695313c0-6.335937-5.152344-11.488281-11.488281-11.488281zm5.488281 42.1875h-36.183594v-30.699219c0-3.027344 2.460937-5.488281 5.484375-5.488281h25.210938c3.027343 0 5.488281 2.460937 5.488281 5.488281zm0 0" fill="#3a312a"/><path d="m65.164062 38.605469c-1.945312 23.125-26.050781 26.777343-26.050781 26.777343 20.695313.976563 25.851563 28.121094 25.851563 28.121094.441406-19.355468 26.640625-28.40625 26.640625-28.40625-19.625-1.175781-26.441407-26.492187-26.441407-26.492187zm0 0" fill="#d7e057"/><path d="m91.785156 62.101562c-17.207031-1.027343-23.660156-24.046874-23.722656-24.28125-.382812-1.402343-1.703125-2.324218-3.167969-2.199218-1.453125.132812-2.597656 1.28125-2.71875 2.734375-1.71875 20.429687-22.625 23.925781-23.511719 24.0625-1.523437.230469-2.625 1.578125-2.546874 3.121093.082031 1.539063 1.316406 2.769532 2.855468 2.84375 18.054688.847657 23 25.433594 23.046875 25.683594.273438 1.421875 1.515625 2.433594 2.945313 2.433594.082031 0 .167968-.003906.25-.011719 1.527344-.125 2.710937-1.382812 2.75-2.917969.386718-17.015624 24.378906-25.550781 24.625-25.636718 1.347656-.46875 2.183594-1.828125 1.988281-3.246094s-1.363281-2.5-2.792969-2.585938zm-27.128906 20.691407c-2.714844-6.257813-7.417969-13.8125-15.175781-17.75 5.863281-2.8125 12.820312-7.828125 16.40625-16.546875 3.101562 6.140625 8.398437 13.761718 16.667969 17.445312-6.015626 3.277344-13.84375 8.8125-17.898438 16.851563zm0 0" fill="#3a312a"/><path d="m21.765625 72.566406c-1.375 16.359375-18.421875 18.941406-18.421875 18.941406 14.636719.6875 18.285156 19.886719 18.285156 19.886719.308594-13.6875 18.84375-20.089843 18.84375-20.089843-13.886718-.832032-18.707031-18.738282-18.707031-18.738282zm0 0" fill="#d7e057"/><path d="m40.648438 88.308594c-11.53125-.691406-15.941407-16.371094-15.988282-16.527344-.378906-1.40625-1.699218-2.339844-3.164062-2.203125-1.449219.128906-2.597656 1.285156-2.71875 2.734375-1.160156 13.742188-15.292969 16.136719-15.882813 16.230469-1.527343.230469-2.628906 1.578125-2.546875 3.121093.078125 1.539063 1.3125 2.769532 2.855469 2.84375 12.070313.566407 15.445313 17.285157 15.476563 17.449219.269531 1.425781 1.519531 2.441407 2.945312 2.441407.085938 0 .167969-.003907.25-.011719 1.53125-.125 2.714844-1.386719 2.753906-2.921875.257813-11.417969 16.660156-17.265625 16.820313-17.324219 1.355469-.464844 2.191406-1.824219 1.992187-3.242187-.195312-1.421876-1.363281-2.503907-2.792968-2.589844zm-19.167969 13.589844c-1.847657-3.769532-4.679688-7.890626-8.894531-10.558594 3.710937-2.082032 7.394531-5.257813 9.742187-9.832032 2.113281 3.75 5.308594 7.90625 9.882813 10.445313-3.699219 2.203125-7.980469 5.480469-10.730469 9.945313zm0 0" fill="#3a312a"/><path d="m21.765625 19.25c-1.375 16.359375-18.421875 18.941406-18.421875 18.941406 14.636719.6875 18.285156 19.886719 18.285156 19.886719.308594-13.691406 18.84375-20.089844 18.84375-20.089844-13.886718-.832031-18.707031-18.738281-18.707031-18.738281zm0 0" fill="#d7e057"/><path d="m40.648438 34.992188c-11.535157-.6875-15.945313-16.371094-15.988282-16.527344-.378906-1.40625-1.699218-2.339844-3.164062-2.203125-1.449219.128906-2.597656 1.285156-2.71875 2.734375-1.160156 13.742187-15.292969 16.132812-15.882813 16.226562-1.527343.230469-2.628906 1.582032-2.546875 3.125.078125 1.539063 1.3125 2.765625 2.855469 2.839844 12.070313.570312 15.445313 17.289062 15.476563 17.453125.269531 1.425781 1.519531 2.4375 2.949218 2.4375.082032 0 .164063 0 .25-.007813 1.527344-.125 2.714844-1.386718 2.75-2.921874.261719-11.417969 16.664063-17.269532 16.824219-17.324219 1.351563-.46875 2.1875-1.828125 1.992187-3.246094-.199218-1.414063-1.367187-2.5-2.796874-2.585937zm-19.167969 13.59375c-1.847657-3.773438-4.679688-7.894532-8.894531-10.5625 3.710937-2.082032 7.394531-5.257813 9.742187-9.832032 2.113281 3.746094 5.308594 7.910156 9.882813 10.449219-3.699219 2.203125-7.976563 5.480469-10.730469 9.945313zm0 0" fill="#3a312a"/><path d="m261.074219 280c0 38.660156-31.339844 70-70 70-38.660157 0-70-31.339844-70-70s31.339843-70 70-70c38.660156 0 70 31.339844 70 70zm0 0" fill="#d7e057"/><path d="m191.074219 207c-40.25 0-73 32.746094-73 73s32.75 73 73 73c40.253906 0 73-32.746094 73-73s-32.746094-73-73-73zm0 140c-36.941407 0-67-30.054688-67-67s30.058593-67 67-67c36.945312 0 67 30.054688 67 67s-30.054688 67-67 67zm0 0" fill="#3a312a"/><path d="m191.242188 278.019531c-13.570313 0-24.570313 13.359375-24.570313 24.625s11 13.230469 24.570313 13.230469c13.574218 0 24.574218-1.96875 24.574218-13.230469 0-11.265625-11-24.625-24.574218-24.625zm0 0" fill="#87796f"/><path d="m191.242188 275.019531c-15.527344 0-27.570313 14.847657-27.570313 27.621094 0 16.234375 19.320313 16.234375 27.570313 16.234375s27.574218 0 27.574218-16.234375c0-12.773437-12.042968-27.621094-27.574218-27.621094zm0 37.855469c-17.902344 0-21.570313-4.089844-21.570313-10.234375 0-9.734375 9.953125-21.621094 21.570313-21.621094 11.617187 0 21.574218 11.890625 21.574218 21.621094 0 6.144531-3.667968 10.234375-21.574218 10.234375zm0 0" fill="#3a312a"/><path d="m191.242188 244.734375c-5.3125 0-9.625 5.53125-9.625 12.351563 0 6.816406 4.308593 12.347656 9.625 12.347656 5.316406 0 9.625-5.53125 9.625-12.347656 0-6.820313-4.308594-12.351563-9.625-12.351563zm0 0" fill="#87796f"/><path d="m191.242188 241.734375c-6.960938 0-12.621094 6.886719-12.621094 15.351563 0 8.460937 5.660156 15.347656 12.621094 15.347656 6.960937 0 12.621093-6.886719 12.621093-15.347656.003907-8.464844-5.660156-15.351563-12.621093-15.351563zm0 24.699219c-3.589844 0-6.621094-4.28125-6.621094-9.347656 0-5.070313 3.035156-9.351563 6.621094-9.351563 3.589843 0 6.621093 4.28125 6.621093 9.351563 0 5.066406-3.03125 9.347656-6.621093 9.347656zm0 0" fill="#3a312a"/><path d="m172.363281 262.371094c-3.1875-6.027344-9.578125-8.90625-14.277343-6.421875-4.699219 2.480469-5.925782 9.382812-2.742188 15.414062 3.1875 6.027344 9.578125 8.90625 14.28125 6.421875 4.695312-2.480468 5.925781-9.382812 2.738281-15.414062zm0 0" fill="#87796f"/><path d="m175.015625 260.96875c-1.851563-3.503906-4.691406-6.25-7.992187-7.738281-3.558594-1.601563-7.230469-1.578125-10.339844.0625-3.109375 1.644531-5.195313 4.664062-5.878906 8.503906-.632813 3.566406.035156 7.460937 1.886718 10.964844 1.851563 3.507812 4.691406 6.253906 7.992188 7.742187 1.757812.789063 3.542968 1.183594 5.269531 1.183594 1.777344 0 3.496094-.417969 5.070313-1.25 6.15625-3.25 7.945312-11.984375 3.992187-19.46875zm-6.792969 14.164062c-1.4375.757813-3.242187.722657-5.074218-.101562-2.089844-.941406-3.917969-2.742188-5.152344-5.070312-1.230469-2.332032-1.6875-4.855469-1.285156-7.113282.351562-1.980468 1.335937-3.488281 2.773437-4.246094.6875-.367187 1.457031-.546874 2.277344-.546874.890625 0 1.839843.21875 2.796875.648437 2.089844.9375 3.921875 2.742187 5.152344 5.070313 2.367187 4.480468 1.6875 9.683593-1.488282 11.359374zm0 0" fill="#3a312a"/><path d="m152.558594 280.726562c-5.429688-4.125-12.441406-4.042968-15.65625.1875-3.21875 4.234376-1.421875 11.011719 4.007812 15.136719 5.429688 4.125 12.441406 4.042969 15.65625-.191406 3.214844-4.230469 1.421875-11.007813-4.007812-15.132813zm0 0" fill="#87796f"/><path d="m160.707031 287.484375c-.929687-3.503906-3.179687-6.75-6.332031-9.148437-6.742188-5.121094-15.648438-4.777344-19.859375.765624-2.125 2.796876-2.75 6.417969-1.75 10.1875.929687 3.503907 3.175781 6.75 6.332031 9.148438 3.199219 2.429688 6.878906 3.628906 10.316406 3.628906 3.816407 0 7.328126-1.476562 9.542969-4.390625 2.125-2.800781 2.75-6.417969 1.75-10.191406zm-6.527343 6.558594c-2.171876 2.859375-7.417969 2.683593-11.453126-.382813-2.09375-1.59375-3.574218-3.691406-4.160156-5.90625-.515625-1.949218-.257812-3.730468.726563-5.023437 1.035156-1.363281 2.765625-2.035157 4.730469-2.035157 2.164062 0 4.609374.8125 6.71875 2.417969 2.097656 1.59375 3.578124 3.691407 4.164062 5.90625.515625 1.949219.257812 3.730469-.726562 5.023438zm0 0" fill="#3a312a"/><path d="m224.554688 255.949219c-4.703126-2.484375-11.09375.394531-14.28125 6.421875-3.183594 6.03125-1.957032 12.933594 2.742187 15.417968 4.699219 2.480469 11.089844-.394531 14.277344-6.425781s1.960937-12.933593-2.738281-15.414062zm0 0" fill="#87796f"/><path d="m231.832031 261.800781c-.679687-3.84375-2.769531-6.863281-5.875-8.503906-3.113281-1.644531-6.78125-1.667969-10.339843-.066406-3.300782 1.488281-6.140626 4.234375-7.992188 7.742187-3.957031 7.480469-2.164062 16.214844 3.988281 19.46875 1.578125.832032 3.296875 1.246094 5.070313 1.246094 1.730468 0 3.511718-.394531 5.269531-1.183594 3.300781-1.484375 6.140625-4.234375 7.992187-7.738281 1.851563-3.503906 2.523438-7.398437 1.886719-10.964844zm-7.191406 8.160157c-1.230469 2.328124-3.058594 4.128906-5.148437 5.070312-1.835938.824219-3.636719.859375-5.074219.101562-3.175781-1.675781-3.855469-6.878906-1.492188-11.359374 1.230469-2.328126 3.0625-4.132813 5.152344-5.070313.957031-.429687 1.90625-.648437 2.796875-.648437.816406 0 1.589844.179687 2.277344.546874 1.4375.757813 2.421875 2.265626 2.773437 4.246094.402344 2.257813-.054687 4.785156-1.285156 7.113282zm0 0" fill="#3a312a"/><path d="m245.246094 280.914062c-3.214844-4.230468-10.222656-4.3125-15.65625-.1875-5.429688 4.125-7.226563 10.902344-4.007813 15.132813 3.214844 4.234375 10.222657 4.316406 15.65625.191406 5.429688-4.125 7.226563-10.90625 4.007813-15.136719zm0 0" fill="#87796f"/><path d="m247.636719 279.101562c-4.210938-5.542968-13.121094-5.886718-19.859375-.765624-.003906 0-.003906 0-.003906 0-3.15625 2.398437-5.402344 5.648437-6.332032 9.148437-1 3.773437-.375 7.390625 1.75 10.191406 2.214844 2.914063 5.726563 4.386719 9.542969 4.386719 3.4375 0 7.121094-1.199219 10.316406-3.625 3.15625-2.398438 5.40625-5.648438 6.332031-9.148438 1-3.769531.378907-7.390624-1.746093-10.1875zm-4.054688 8.652344c-.585937 2.214844-2.066406 4.3125-4.164062 5.90625-4.03125 3.070313-9.277344 3.246094-11.449219.386719-.984375-1.292969-1.242188-3.078125-.726562-5.023437.585937-2.214844 2.066406-4.3125 4.160156-5.90625 4.039062-3.066407 9.28125-3.242188 11.453125-.382813.984375 1.289063 1.242187 3.074219.726562 5.019531zm0 0" fill="#3a312a"/><path d="m307.996094 156.898438c-13.121094-15.820313-32.441406-24.898438-53-24.898438h-30c20.558594 0 39.878906 9.078125 53 24.898438 13.140625 15.839843 18.480468 36.5 14.679687 56.703124l-13.640625 72.398438h30l13.640625-72.398438c3.800781-20.203124-1.539062-40.863281-14.679687-56.703124zm0 0" fill="#d34e5c"/><path d="m277.914062 292-26.039062 138.28125c-1.558594 8.359375-8.859375 14.398438-17.359375 14.398438h30c8.5 0 15.800781-6.039063 17.359375-14.398438l26.039062-138.28125zm0 0" fill="#6ca8bf"/></svg>