<svg height="450pt" viewBox="-82 0 450 450.042" width="450pt" xmlns="http://www.w3.org/2000/svg"><path d="m64.84375 22.605469c-1.949219 23.125-26.050781 26.777343-26.050781 26.777343 20.695312.976563 25.851562 28.121094 25.851562 28.121094.441407-19.355468 26.640625-28.40625 26.640625-28.40625-19.625-1.175781-26.441406-26.492187-26.441406-26.492187zm0 0" fill="#d7e057"/><path d="m91.46875 46.101562c-17.210938-1.03125-23.664062-24.046874-23.730469-24.28125-.378906-1.40625-1.699219-2.316406-3.167969-2.203124-1.449218.128906-2.59375 1.28125-2.71875 2.734374-1.71875 20.429688-22.625 23.929688-23.507812 24.066407-1.523438.230469-2.625 1.578125-2.542969 3.121093.078125 1.539063 1.3125 2.769532 2.855469 2.84375 18.054688.847657 22.996094 25.433594 23.042969 25.683594.273437 1.421875 1.519531 2.433594 2.945312 2.433594.082031 0 .167969-.003906.25-.011719 1.527344-.125 2.714844-1.382812 2.75-2.917969.386719-17.015624 24.382813-25.550781 24.625-25.636718 1.351563-.46875 2.183594-1.828125 1.988281-3.246094-.195312-1.417969-1.363281-2.5-2.789062-2.585938zm-27.132812 20.691407c-2.714844-6.257813-7.417969-13.8125-15.175782-17.75 5.863282-2.8125 12.820313-7.828125 16.40625-16.546875 3.101563 6.140625 8.398438 13.761718 16.664063 17.445312-6.011719 3.277344-13.84375 8.808594-17.894531 16.851563zm0 0" fill="#3a312a"/><path d="m21.445312 56.566406c-1.378906 16.359375-18.425781 18.941406-18.425781 18.941406 14.636719.6875 18.285157 19.886719 18.285157 19.886719.3125-13.6875 18.84375-20.089843 18.84375-20.089843-13.882813-.832032-18.703126-18.738282-18.703126-18.738282zm0 0" fill="#d7e057"/><path d="m40.328125 72.308594c-11.535156-.6875-15.945313-16.371094-15.988281-16.527344-.378906-1.40625-1.699219-2.335938-3.164063-2.207031-1.449219.132812-2.597656 1.289062-2.71875 2.738281-1.15625 13.742188-15.292969 16.132812-15.882812 16.226562-1.527344.230469-2.6289065 1.582032-2.5507815 3.121094.0820315 1.539063 1.3164065 2.769532 2.8593745 2.84375 12.066407.566406 15.445313 17.285156 15.476563 17.449219.269531 1.425781 1.515625 2.441406 2.945313 2.441406.082031 0 .164062-.003906.25-.011719 1.527343-.125 2.714843-1.386718 2.75-2.921874.261718-11.417969 16.664062-17.265626 16.828124-17.324219 1.351563-.464844 2.1875-1.824219 1.988282-3.242188-.195313-1.417969-1.363282-2.5-2.792969-2.585937zm-19.167969 13.589844c-1.847656-3.769532-4.679687-7.890626-8.894531-10.558594 3.710937-2.082032 7.394531-5.257813 9.738281-9.832032 2.113282 3.75 5.3125 7.90625 9.882813 10.449219-3.695313 2.199219-7.976563 5.476563-10.726563 9.941407zm0 0" fill="#3a312a"/><path d="m21.445312 3.25c-1.378906 16.359375-18.425781 18.941406-18.425781 18.941406 14.636719.6875 18.285157 19.886719 18.285157 19.886719.3125-13.691406 18.84375-20.089844 18.84375-20.089844-13.882813-.832031-18.703126-18.738281-18.703126-18.738281zm0 0" fill="#d7e057"/><path d="m40.328125 18.992188c-11.53125-.6875-15.941406-16.367188-15.988281-16.527344-.378906-1.402344-1.699219-2.335938-3.164063-2.203125-1.449219.128906-2.597656 1.285156-2.71875 2.734375-1.15625 13.742187-15.292969 16.132812-15.882812 16.226562-1.527344.230469-2.6289065 1.582032-2.5507815 3.125.0820315 1.539063 1.3164065 2.765625 2.8554685 2.839844 12.070313.570312 15.449219 17.289062 15.476563 17.453125.269531 1.425781 1.519531 2.4375 2.945312 2.4375.082031 0 .167969-.003906.25-.007813 1.53125-.125 2.714844-1.386718 2.753907-2.921874.257812-11.417969 16.660156-17.269532 16.824218-17.324219 1.351563-.46875 2.1875-1.828125 1.992188-3.246094-.195313-1.417969-1.363282-2.5-2.792969-2.585937zm-19.167969 13.59375c-1.847656-3.773438-4.679687-7.894532-8.894531-10.558594 3.710937-2.082032 7.394531-5.257813 9.738281-9.832032 2.113282 3.746094 5.308594 7.90625 9.882813 10.445313-3.699219 2.199219-7.976563 5.476563-10.726563 9.945313zm0 0" fill="#3a312a"/><path d="m122.417969 3c-3.894531 0-7.054688 3.15625-7.054688 7.050781v83.4375c0 3.894531 3.15625 7.050781 7.054688 7.050781 3.894531 0 7.050781-3.15625 7.050781-7.050781v-83.4375c0-3.894531-3.15625-7.050781-7.050781-7.050781zm0 0" fill="#fce8cb"/><path d="m122.417969 0c-5.542969 0-10.054688 4.507812-10.054688 10.050781v83.4375c0 5.542969 4.507813 10.050781 10.054688 10.050781 5.542969 0 10.050781-4.507812 10.050781-10.050781v-83.4375c0-5.542969-4.507812-10.050781-10.050781-10.050781zm4.050781 93.488281c0 2.234375-1.816406 4.050781-4.050781 4.050781s-4.054688-1.816406-4.054688-4.050781v-83.4375c0-2.234375 1.820313-4.050781 4.054688-4.050781s4.050781 1.816406 4.050781 4.050781zm0 0" fill="#3a312a"/><path d="m149.351562 3c-3.894531 0-7.050781 3.15625-7.050781 7.050781v83.4375c0 3.894531 3.15625 7.050781 7.050781 7.050781 3.894532 0 7.054688-3.15625 7.054688-7.050781v-83.4375c-.003906-3.894531-3.160156-7.050781-7.054688-7.050781zm0 0" fill="#fce8cb"/><path d="m149.351562 0c-5.539062 0-10.050781 4.507812-10.050781 10.050781v83.4375c0 5.542969 4.507813 10.050781 10.050781 10.050781 5.546876 0 10.050782-4.507812 10.050782-10.050781v-83.4375c0-5.542969-4.507813-10.050781-10.050782-10.050781zm4.050782 93.488281c0 2.234375-1.816406 4.050781-4.050782 4.050781-2.234374 0-4.050781-1.816406-4.050781-4.050781v-83.4375c0-2.234375 1.816407-4.050781 4.050781-4.050781 2.234376 0 4.050782 1.816406 4.050782 4.050781zm0 0" fill="#3a312a"/><path d="m176.285156 3c-3.890625 0-7.050781 3.15625-7.050781 7.050781v83.4375c0 3.894531 3.15625 7.050781 7.050781 7.050781 3.894532 0 7.054688-3.15625 7.054688-7.050781v-83.4375c0-3.894531-3.160156-7.050781-7.054688-7.050781zm0 0" fill="#fce8cb"/><path d="m176.285156 0c-5.542968 0-10.050781 4.507812-10.050781 10.050781v83.4375c0 5.542969 4.507813 10.050781 10.050781 10.050781 5.542969 0 10.050782-4.507812 10.050782-10.050781v-83.4375c.003906-5.542969-4.507813-10.050781-10.050782-10.050781zm4.054688 93.488281c0 2.234375-1.820313 4.050781-4.054688 4.050781-2.230468 0-4.046875-1.816406-4.046875-4.050781v-83.4375c0-2.234375 1.816407-4.050781 4.046875-4.050781 2.234375 0 4.054688 1.816406 4.054688 4.050781zm0 0" fill="#3a312a"/><path d="m203.222656 3c-3.894531 0-7.054687 3.15625-7.054687 7.050781v83.4375c0 3.894531 3.160156 7.050781 7.054687 7.050781 3.890625 0 7.050782-3.15625 7.050782-7.050781v-83.4375c0-3.894531-3.160157-7.050781-7.050782-7.050781zm0 0" fill="#fce8cb"/><path d="m203.222656 0c-5.542968 0-10.054687 4.507812-10.054687 10.050781v83.4375c0 5.542969 4.511719 10.050781 10.054687 10.050781 5.539063 0 10.046875-4.507812 10.046875-10.050781v-83.4375c.003907-5.542969-4.503906-10.050781-10.046875-10.050781zm4.050782 93.488281c0 2.234375-1.816407 4.050781-4.050782 4.050781s-4.050781-1.816406-4.050781-4.050781v-83.4375c0-2.234375 1.816406-4.050781 4.050781-4.050781s4.050782 1.816406 4.050782 4.050781zm0 0" fill="#3a312a"/><path d="m230.15625 3c-3.894531 0-7.054688 3.15625-7.054688 7.050781v83.4375c0 3.894531 3.15625 7.050781 7.054688 7.050781 3.894531 0 7.050781-3.15625 7.050781-7.050781v-83.4375c0-3.894531-3.15625-7.050781-7.050781-7.050781zm0 0" fill="#fce8cb"/><path d="m230.15625 0c-5.542969 0-10.050781 4.507812-10.050781 10.050781v83.4375c0 5.542969 4.507812 10.050781 10.050781 10.050781 5.539062 0 10.050781-4.507812 10.050781-10.050781v-83.4375c0-5.542969-4.507812-10.050781-10.050781-10.050781zm4.050781 93.488281c0 2.234375-1.816406 4.050781-4.050781 4.050781s-4.050781-1.816406-4.050781-4.050781v-83.4375c0-2.234375 1.816406-4.050781 4.050781-4.050781s4.050781 1.816406 4.050781 4.050781zm0 0" fill="#3a312a"/><path d="m257.089844 3c-3.894532 0-7.054688 3.15625-7.054688 7.050781v83.4375c0 3.894531 3.160156 7.050781 7.054688 7.050781 3.894531 0 7.050781-3.15625 7.050781-7.050781v-83.4375c0-3.894531-3.15625-7.050781-7.050781-7.050781zm0 0" fill="#fce8cb"/><path d="m257.089844 0c-5.539063 0-10.050782 4.507812-10.050782 10.050781v83.4375c0 5.542969 4.511719 10.050781 10.050782 10.050781 5.542968 0 10.050781-4.507812 10.050781-10.050781v-83.4375c0-5.542969-4.507813-10.050781-10.050781-10.050781zm4.050781 93.488281c0 2.234375-1.816406 4.050781-4.050781 4.050781s-4.050782-1.816406-4.050782-4.050781v-83.4375c0-2.234375 1.816407-4.050781 4.050782-4.050781s4.050781 1.816406 4.050781 4.050781zm0 0" fill="#3a312a"/><path d="m272.503906 79.65625-161.597656-.550781c-5.84375-.019531-10.460938 4.953125-10.003906 10.777343l8.367187 106.953126c.082031 0 .160157-.015626.242188-.015626l2.085937 29.730469.050782.667969 9.097656 116.246094 4.183594 53.484375c2.203124 28.160156 25.648437 49.914062 53.890624 50.011719l23.246094.082031c28.246094.09375 51.839844-21.5 54.234375-49.644531l4.550781-53.453126 21.574219-253.441406c.5-5.820312-4.078125-10.824218-9.921875-10.847656zm0 0" fill="#87796f" fill-rule="evenodd"/><path d="m282.054688 80.878906c-2.445313-2.671875-5.921876-4.207031-9.542969-4.222656l-161.59375-.550781h-.042969c-3.605469 0-7.074219 1.515625-9.53125 4.160156-2.460938 2.652344-3.710938 6.246094-3.429688 9.855469l8.371094 106.949218c.125 1.574219 1.425782 2.789063 3.027344 2.765626l.207031-.011719c1.65625 0 3-1.339844 3-3 0-.5-.125-.972657-.34375-1.390625l-8.277343-105.78125c-.152344-1.972656.503906-3.855469 1.847656-5.304688 1.339844-1.445312 3.160156-2.238281 5.128906-2.238281h.027344l161.59375.550781c1.976562.007813 3.804687.8125 5.140625 2.273438 1.335937 1.457031 1.976562 3.347656 1.808593 5.316406l-26.125 306.894531c-2.242187 26.332031-24.652343 46.898438-51.0625 46.898438h-.171874l-23.246094-.082031c-26.484375-.089844-48.847656-20.839844-50.910156-47.242188l-13.335938-170.402344c-.128906-1.652344-1.578125-2.875-3.226562-2.753906-1.648438.128906-2.882813 1.574219-2.753907 3.226562l13.332031 170.398438c2.308594 29.492188 27.292969 52.671875 56.875 52.773438l23.246094.082031h.195313c29.5 0 54.535156-22.976563 57.039062-52.386719l26.128907-306.894531c.296874-3.613281-.929688-7.214844-3.375-9.882813zm0 0" fill="#3a312a"/><path d="m225.371094 343.824219-28.796875-.097657-75.824219-.261718 4.183594 53.484375c2.203125 28.160156 25.648437 49.914062 53.890625 50.011719l23.246093.082031c28.246094.09375 51.839844-21.5 54.234376-49.644531l4.550781-53.453126zm0 0" fill="#8ac6dd" fill-rule="evenodd"/><path d="m263.070312 341.921875c-.566406-.621094-1.367187-.972656-2.207031-.976563l-35.480469-.121093h-.011718c-1.652344 0-2.996094 1.335937-3 2.988281-.007813 1.65625 1.332031 3.003906 2.988281 3.011719l32.230469.109375-4.273438 50.210937c-2.242187 26.332031-24.652344 46.894531-51.0625 46.894531h-.175781l-23.246094-.078124c-26.480469-.089844-48.84375-20.84375-50.910156-47.246094l-3.929687-50.238282 72.570312.25h.011719c1.652343 0 2.992187-1.335937 3-2.992187.003906-1.65625-1.332031-3.003906-2.992188-3.007813l-75.824219-.261718h-.011718c-.832032 0-1.632813.347656-2.199219.960937-.570313.613281-.859375 1.441407-.792969 2.277344l4.1875 53.484375c2.308594 29.492188 27.289063 52.671875 56.875 52.773438l23.246094.082031h.191406c29.5 0 54.535156-22.976563 57.039063-52.386719l4.550781-53.453125c.074219-.839844-.207031-1.664063-.773438-2.28125zm0 0" fill="#3a312a"/><path d="m226.441406 113.320312-69.703125-.238281c-4.871093-.015625-8.828125 3.914063-8.84375 8.78125l-.101562 29.6875c-.015625 4.867188 3.914062 8.824219 8.78125 8.84375l69.707031.238281c4.867188.015626 8.824219-3.917968 8.84375-8.78125l.101562-29.6875c.015626-4.867187-3.914062-8.828124-8.785156-8.84375zm0 0" fill="#d7e057" fill-rule="evenodd"/><path d="m234.792969 113.808594c-2.222657-2.238282-5.1875-3.480469-8.34375-3.488282l-69.703125-.238281h-.042969c-3.140625 0-6.09375 1.21875-8.320313 3.433594-2.242187 2.222656-3.480468 5.183594-3.488281 8.339844l-.105469 29.683593c-.011718 3.15625 1.210938 6.125 3.433594 8.367188 2.222656 2.238281 5.1875 3.476562 8.34375 3.488281l69.703125.238281h.042969c3.136719 0 6.09375-1.21875 8.324219-3.433593 2.238281-2.222657 3.476562-5.183594 3.484375-8.339844l.105468-29.683594c.011719-3.15625-1.207031-6.128906-3.433593-8.367187zm-2.671875 38.03125c-.003906 1.550781-.613282 3.011718-1.714844 4.105468-1.09375 1.085938-2.550781 1.6875-4.09375 1.6875h-.023438l-69.707031-.238281c-1.550781-.003906-3.007812-.617187-4.105469-1.714843-1.09375-1.105469-1.695312-2.566407-1.6875-4.117188l.101563-29.6875c.007813-1.550781.617187-3.007812 1.714844-4.101562 1.097656-1.089844 2.550781-1.6875 4.09375-1.6875h.023437l69.707032.234374c1.554687.003907 3.011718.617188 4.105468 1.71875 1.097656 1.101563 1.695313 2.5625 1.691406 4.113282zm0 0" fill="#3a312a"/><path d="m193.296875 200.675781-4.011719-.015625c-11.046875-.035156-20.03125 8.886719-20.066406 19.933594l-.234375 67.828125c-.039063 11.046875 8.886719 20.03125 19.933594 20.066406l4.011719.015625c11.046874.039063 20.027343-8.886718 20.066406-19.933594l.234375-67.828124c.035156-11.042969-8.890625-20.027344-19.933594-20.066407zm0 0" fill="#f16c7a" fill-rule="evenodd"/><path d="m193.304688 197.675781-4.011719-.015625h-.078125c-12.644532 0-22.957032 10.269532-23 22.925782l-.230469 67.824218c-.019531 6.144532 2.351563 11.929688 6.679687 16.289063 4.332032 4.359375 10.097657 6.773437 16.242188 6.792969l4.011719.015624h.078125c6.117187 0 11.867187-2.375 16.207031-6.683593 4.359375-4.328125 6.769531-10.09375 6.792969-16.238281l.230468-67.828126c.042969-12.6875-10.238281-23.039062-22.921874-23.082031zm16.691406 90.886719c-.015625 4.542969-1.800782 8.804688-5.019532 12.003906-3.210937 3.1875-7.460937 4.9375-11.980468 4.9375h-.058594l-4.011719-.015625c-4.539062-.015625-8.804687-1.796875-12.003906-5.019531s-4.953125-7.496094-4.9375-12.039062l.230469-67.828126c.035156-9.355468 7.652344-16.941406 17-16.941406h.058594l4.011718.015625c9.375.03125 16.972656 7.683594 16.941406 17.054688zm0 0" fill="#3a312a"/><path d="m277.632812 84.941406c-1.339843-1.460937-3.160156-2.28125-5.140624-2.28125l-29.992188-.105468s3.253906.445312 5.136719 2.386718c1.378906 1.421875 1.976562 3.339844 1.796875 5.296875l-21.339844 250.601563 30 .101562 21.339844-250.703125c.179687-1.957031-.460938-3.839843-1.800782-5.296875zm0 0" fill="#695b51"/><path d="m227.601562 346.828125-.007812.113281-4.28125 50.199219c-2.140625 25.058594-22.480469 44.859375-47.199219 46.738281.898438.042969 1.800781.082032 2.71875.082032l23.242188.078124h.179687c26.417969 0 48.820313-20.558593 51.058594-46.898437l4.28125-50.199219zm0 0" fill="#6ca8bf"/></svg>