<svg height="452pt" viewBox="0 0 452.08 452" width="452pt" xmlns="http://www.w3.org/2000/svg"><path d="m420.792969 375.578125c-1.945313 23.128906-26.046875 26.78125-26.046875 26.78125 20.695312.976563 25.851562 28.117187 25.851562 28.117187.441406-19.351562 26.640625-28.402343 26.640625-28.402343-19.628906-1.175781-26.445312-26.496094-26.445312-26.496094zm0 0" fill="#d7e057"/><path d="m447.414062 399.078125c-17.207031-1.027344-23.660156-24.046875-23.722656-24.28125-.382812-1.40625-1.726562-2.332031-3.167968-2.203125-1.449219.132812-2.59375 1.285156-2.71875 2.734375-1.71875 20.429687-22.625 23.925781-23.507813 24.0625-1.523437.230469-2.625 1.582031-2.542969 3.125.078125 1.539063 1.3125 2.765625 2.851563 2.839844 18.054687.851562 23 25.4375 23.046875 25.6875.273437 1.421875 1.519531 2.433593 2.945312 2.433593.082032 0 .167969-.003906.25-.011718 1.527344-.125 2.714844-1.386719 2.75-2.917969.386719-17.019531 24.378906-25.554687 24.625-25.640625 1.347656-.46875 2.183594-1.828125 1.988282-3.246094-.199219-1.414062-1.367188-2.496094-2.796876-2.582031zm-27.128906 20.691406c-2.714844-6.257812-7.417968-13.8125-15.171875-17.75 5.859375-2.8125 12.816407-7.828125 16.402344-16.546875 3.101563 6.140625 8.398437 13.757813 16.667969 17.441406-6.015625 3.28125-13.84375 8.8125-17.898438 16.855469zm0 0" fill="#3a312a"/><path d="m377.394531 409.542969c-1.375 16.355469-18.425781 18.941406-18.425781 18.941406 14.636719.6875 18.285156 19.886719 18.285156 19.886719.3125-13.6875 18.84375-20.089844 18.84375-20.089844-13.878906-.832031-18.703125-18.738281-18.703125-18.738281zm0 0" fill="#d7e057"/><path d="m396.28125 425.285156c-11.535156-.6875-15.945312-16.371094-15.988281-16.527344-.382813-1.402343-1.714844-2.328124-3.164063-2.203124-1.449218.132812-2.597656 1.285156-2.722656 2.734374-1.15625 13.742188-15.289062 16.132813-15.882812 16.226563-1.527344.230469-2.625 1.582031-2.546876 3.121094.082032 1.542969 1.316407 2.769531 2.855469 2.84375 12.070313.566406 15.449219 17.289062 15.476563 17.453125.269531 1.425781 1.519531 2.4375 2.945312 2.4375.085938 0 .167969 0 .25-.007813 1.53125-.128906 2.714844-1.390625 2.753906-2.921875.257813-11.417968 16.664063-17.269531 16.824219-17.324218 1.355469-.46875 2.1875-1.828126 1.992188-3.246094-.195313-1.417969-1.363281-2.5-2.792969-2.585938zm-19.171875 13.589844c-1.847656-3.769531-4.679687-7.894531-8.894531-10.558594 3.714844-2.085937 7.394531-5.261718 9.742187-9.835937 2.113281 3.75 5.308594 7.910156 9.882813 10.449219-3.699219 2.203124-7.976563 5.480468-10.730469 9.945312zm0 0" fill="#3a312a"/><path d="m377.394531 356.226562c-1.375 16.359376-18.425781 18.941407-18.425781 18.941407 14.636719.6875 18.285156 19.886719 18.285156 19.886719.3125-13.6875 18.84375-20.089844 18.84375-20.089844-13.878906-.832032-18.703125-18.738282-18.703125-18.738282zm0 0" fill="#d7e057"/><path d="m396.28125 371.96875c-11.535156-.6875-15.945312-16.371094-15.988281-16.527344-.382813-1.40625-1.714844-2.332031-3.164063-2.207031-1.449218.132813-2.597656 1.285156-2.722656 2.738281-1.15625 13.742188-15.289062 16.132813-15.882812 16.226563-1.527344.230469-2.625 1.582031-2.546876 3.121093.082032 1.542969 1.316407 2.769532 2.859376 2.84375 12.066406.566407 15.445312 17.289063 15.476562 17.453126.269531 1.425781 1.515625 2.4375 2.945312 2.4375.082032 0 .164063 0 .25-.007813 1.527344-.125 2.714844-1.390625 2.75-2.921875.261719-11.421875 16.664063-17.269531 16.828126-17.324219 1.351562-.46875 2.1875-1.828125 1.988281-3.246093-.195313-1.414063-1.363281-2.5-2.792969-2.585938zm-19.171875 13.589844c-1.847656-3.769532-4.679687-7.894532-8.894531-10.558594 3.714844-2.082031 7.394531-5.261719 9.742187-9.832031 2.113281 3.746093 5.3125 7.90625 9.882813 10.449219-3.699219 2.199218-7.976563 5.480468-10.730469 9.941406zm0 0" fill="#3a312a"/><path d="m296.058594 61.144531c-26.507813 0-50.832032 8.320313-69.980469 22.21875-19.148437-13.898437-43.472656-22.21875-69.980469-22.21875-61.695312 0-111.691406 45.039063-111.691406 100.609375 0 19.472656 6.144531 37.640625 16.78125 53.035156 15.320312 22.171876 26.027344 47.195313 32.863281 73.261719l11.449219 51.570313 5.851562 26.351562 14.296876 64.40625c2.75 10.496094 12.238281 17.816406 23.085937 17.816406 12.714844 0 23.214844-9.976562 23.828125-22.671874 3.945312-81.253907 26.394531-148.148438 53.515625-148.148438s49.574219 66.894531 53.515625 148.148438c.617188 12.695312 11.113281 22.671874 23.828125 22.671874 10.847656 0 20.335937-7.320312 23.085937-17.816406l31.597657-142.328125c6.835937-26.066406 17.542969-51.089843 32.863281-73.261719 10.636719-15.394531 16.777344-33.5625 16.777344-53.035156 0-55.570312-49.992188-100.609375-111.6875-100.609375zm0 0" fill="#fce8cb"/><path d="m296.058594 58.144531c-25.640625 0-49.789063 7.441407-69.980469 21.539063-20.191406-14.097656-44.339844-21.539063-69.976563-21.539063-63.242187 0-114.691406 46.480469-114.691406 103.609375 0 19.421875 5.984375 38.351563 17.3125 54.742188 14.402344 20.847656 25.3125 45.175781 32.402344 72.207031l11.449219 51.570313c.359375 1.617187 1.96875 2.636718 3.578125 2.277343 1.621094-.359375 2.640625-1.960937 2.28125-3.582031l-11.476563-51.679688c-7.292969-27.816406-18.496093-52.78125-33.296875-74.203124-10.628906-15.386719-16.25-33.136719-16.25-51.332032 0-53.820312 48.761719-97.609375 108.691406-97.609375 25.117188 0 48.707032 7.488281 68.21875 21.648438 1.050782.761719 2.472657.761719 3.523438 0 19.511719-14.160157 43.097656-21.648438 68.214844-21.648438 59.933594 0 108.695312 43.789063 108.695312 97.609375 0 18.195313-5.621094 35.945313-16.25 51.332032-14.804687 21.421874-26.007812 46.386718-33.324218 74.3125l-31.574219 142.21875c-2.402344 9.167968-10.703125 15.574218-20.183594 15.574218-11.144531 0-20.292969-8.703125-20.828125-19.816406-1.953125-40.207031-8.429688-77.636719-18.234375-105.398438-10.542969-29.835937-23.777344-45.605468-38.28125-45.605468-14.5 0-27.738281 15.769531-38.277344 45.601562-9.808593 27.761719-16.28125 65.191406-18.230469 105.398438-.539062 11.113281-9.691406 19.820312-20.832031 19.820312-9.480469 0-17.78125-6.40625-20.160156-15.46875l-14.296875-64.402344c-.359375-1.617187-1.964844-2.636718-3.582031-2.277343-1.617188.359375-2.636719 1.960937-2.277344 3.578125l14.324219 64.515625c3.097656 11.808593 13.785156 20.054687 25.988281 20.054687 14.351563 0 26.132813-11.214844 26.824219-25.53125 3.953125-81.46875 26.144531-145.289062 50.519531-145.289062s46.566406 63.820312 50.519531 145.292968c.695313 14.3125 12.472656 25.527344 26.824219 25.527344 12.203125 0 22.890625-8.246094 26.015625-20.164062l31.570312-142.21875c7.113282-27.136719 18.023438-51.464844 32.429688-72.316406 11.324219-16.390626 17.3125-35.320313 17.3125-54.738282-.003906-57.128906-51.453125-103.609375-114.691406-103.609375zm0 0" fill="#3a312a"/><path d="m156.097656 58.140625c-1.660156 0-3 1.339844-3 3 0 1.65625 1.339844 3 3 3 59.929688 0 108.683594 43.789063 108.683594 97.613281 0 1.65625 1.34375 3 3 3 1.660156 0 3-1.34375 3-3 0-57.132812-51.445312-103.613281-114.683594-103.613281zm0 0" fill="#3a312a"/><path d="m449.078125 130.140625c0 22.089844-17.910156 40-40 40s-40-17.910156-40-40c0-22.09375 17.910156-40 40-40s40 17.90625 40 40zm0 0" fill="#8ac6dd"/><path d="m409.078125 87.140625c-23.707031 0-43 19.289063-43 43s19.292969 43 43 43c23.710937 0 43-19.289063 43-43s-19.289063-43-43-43zm0 80c-20.398437 0-37-16.597656-37-37s16.601563-37 37-37c20.402344 0 37 16.597656 37 37s-16.597656 37-37 37zm0 0" fill="#3a312a"/><path d="m399.078125 150.140625c0 22.089844-17.910156 40-40 40s-40-17.910156-40-40c0-22.09375 17.910156-40 40-40s40 17.90625 40 40zm0 0" fill="#8ac6dd"/><path d="m359.078125 107.140625c-23.707031 0-43 19.289063-43 43s19.292969 43 43 43c23.710937 0 43-19.289063 43-43s-19.289063-43-43-43zm0 80c-20.398437 0-37-16.597656-37-37s16.601563-37 37-37c20.402344 0 37 16.597656 37 37s-16.597656 37-37 37zm0 0" fill="#3a312a"/><path d="m409.078125 94.140625c0 22.089844-17.910156 40-40 40s-40-17.910156-40-40c0-22.09375 17.910156-40 40-40s40 17.90625 40 40zm0 0" fill="#8ac6dd"/><path d="m369.078125 51.140625c-23.707031 0-43 19.289063-43 43s19.292969 43 43 43c23.710937 0 43-19.289063 43-43s-19.289063-43-43-43zm0 80c-20.398437 0-37-16.597656-37-37s16.601563-37 37-37c20.402344 0 37 16.597656 37 37s-16.597656 37-37 37zm0 0" fill="#3a312a"/><path d="m83.078125 166.140625c0 22.089844-17.910156 40-40 40s-40-17.910156-40-40c0-22.09375 17.910156-40 40-40s40 17.90625 40 40zm0 0" fill="#8ac6dd"/><path d="m43.078125 123.140625c-23.707031 0-43 19.289063-43 43s19.292969 43 43 43c23.710937 0 43-19.289063 43-43s-19.289063-43-43-43zm0 80c-20.398437 0-37-16.597656-37-37s16.601563-37 37-37c20.402344 0 37 16.597656 37 37s-16.597656 37-37 37zm0 0" fill="#3a312a"/><path d="m121.078125 204.140625c0 22.089844-17.910156 40-40 40s-40-17.910156-40-40c0-22.09375 17.910156-40 40-40s40 17.90625 40 40zm0 0" fill="#8ac6dd"/><path d="m81.078125 161.140625c-23.707031 0-43 19.289063-43 43s19.292969 43 43 43c23.710937 0 43-19.289063 43-43s-19.289063-43-43-43zm0 80c-20.398437 0-37-16.597656-37-37s16.601563-37 37-37c20.402344 0 37 16.597656 37 37s-16.597656 37-37 37zm0 0" fill="#3a312a"/><path d="m61.078125 274.140625c0 12.148437-9.851563 22-22 22s-22-9.851563-22-22c0-12.152344 9.851563-22 22-22s22 9.847656 22 22zm0 0" fill="#8ac6dd"/><path d="m39.078125 249.140625c-13.78125 0-25 11.214844-25 25s11.21875 25 25 25c13.789063 0 25-11.214844 25-25s-11.214844-25-25-25zm0 44c-10.472656 0-19-8.523437-19-19s8.527344-19 19-19c10.476563 0 19 8.523437 19 19s-8.523437 19-19 19zm0 0" fill="#3a312a"/><path d="m18.074219 36.015625v61.425781c0 5.355469 4.34375 9.699219 9.703125 9.699219h.378906c5.359375 0 9.703125-4.34375 9.703125-9.699219v-61.425781zm0 0" fill="#d7e057"/><path d="m37.859375 33.015625h-19.785156c-1.660157 0-3 1.339844-3 3v61.425781c0 7.003906 5.699219 12.699219 12.703125 12.699219h.378906c7.003906 0 12.703125-5.695313 12.703125-12.699219v-61.425781c0-1.660156-1.34375-3-3-3zm-3 64.425781c0 3.695313-3.007813 6.699219-6.703125 6.699219h-.378906c-3.699219 0-6.703125-3.003906-6.703125-6.699219v-58.425781h13.785156zm0 0" fill="#3a312a"/><path d="m18.074219 36.015625v61.425781c0 5.355469 4.34375 9.699219 9.703125 9.699219h.378906c5.359375 0 9.703125-4.34375 9.703125-9.699219v-61.425781zm0 0" fill="#d7e057"/><path d="m37.859375 33.015625h-19.785156c-1.660157 0-3 1.339844-3 3v61.425781c0 7.003906 5.699219 12.699219 12.703125 12.699219h.378906c7.003906 0 12.703125-5.695313 12.703125-12.699219v-61.425781c0-1.660156-1.34375-3-3-3zm-3 64.425781c0 3.695313-3.007813 6.699219-6.703125 6.699219h-.378906c-3.699219 0-6.703125-3.003906-6.703125-6.699219v-58.425781h13.785156zm0 0" fill="#3a312a"/><path d="m432.4375 3.039062h-413.265625c-8.929687 0-16.167969 7.242188-16.167969 16.171876v.632812c0 8.929688 7.238282 16.171875 16.167969 16.171875h413.265625c8.929688 0 16.167969-7.242187 16.167969-16.171875v-.632812c0-8.929688-7.238281-16.171876-16.167969-16.171876zm0 0" fill="#f16c7a"/><path d="m432.4375.0390625h-119.503906c-1.65625 0-3 1.3437495-3 2.9999995 0 1.660157 1.34375 3 3 3h119.503906c7.261719 0 13.167969 5.910157 13.167969 13.171876v.632812c0 7.261719-5.90625 13.167969-13.167969 13.167969h-413.265625c-7.265625 0-13.171875-5.90625-13.171875-13.167969v-.632812c0-7.261719 5.90625-13.171876 13.171875-13.171876h268.050781c1.660156 0 3-1.339843 3-3 0-1.65625-1.339844-2.9999995-3-2.9999995h-268.050781c-10.570313 0-19.171875 8.6015625-19.171875 19.1718755v.632812c0 10.570312 8.601562 19.171875 19.171875 19.171875h413.261719c10.570312 0 19.171875-8.601563 19.171875-19.171875v-.632812c0-10.570313-8.597657-19.1718755-19.167969-19.1718755zm0 0" fill="#3a312a"/><path d="m37.859375 36.015625v61.425781c0 5.355469 4.34375 9.699219 9.699219 9.699219h.382812c5.355469 0 9.699219-4.34375 9.699219-9.699219v-61.425781zm0 0" fill="#d7e057"/><path d="m57.640625 33.015625h-19.78125c-1.660156 0-3 1.339844-3 3v61.425781c0 7.003906 5.695313 12.699219 12.699219 12.699219h.382812c7.003906 0 12.699219-5.695313 12.699219-12.699219v-61.425781c0-1.660156-1.34375-3-3-3zm-3 64.425781c0 3.695313-3.003906 6.699219-6.699219 6.699219h-.382812c-3.695313 0-6.699219-3.003906-6.699219-6.699219v-58.425781h13.78125zm0 0" fill="#3a312a"/><path d="m57.640625 36.015625v61.425781c0 5.355469 4.34375 9.699219 9.703125 9.699219h.378906c5.359375 0 9.703125-4.34375 9.703125-9.699219v-61.425781zm0 0" fill="#d7e057"/><path d="m77.425781 33.015625h-19.785156c-1.65625 0-3 1.339844-3 3v61.425781c0 7.003906 5.699219 12.699219 12.703125 12.699219h.378906c7.003906 0 12.703125-5.695313 12.703125-12.699219v-61.425781c0-1.660156-1.34375-3-3-3zm-3 64.425781c0 3.695313-3.003906 6.699219-6.703125 6.699219h-.378906c-3.695312 0-6.703125-3.003906-6.703125-6.699219v-58.425781h13.785156zm0 0" fill="#3a312a"/><path d="m77.425781 36.015625v61.425781c0 5.355469 4.34375 9.699219 9.703125 9.699219h.378906c5.359376 0 9.703126-4.34375 9.703126-9.699219v-61.425781zm0 0" fill="#d7e057"/><path d="m97.207031 33.015625h-19.78125c-1.660156 0-3 1.339844-3 3v61.425781c0 7.003906 5.695313 12.699219 12.699219 12.699219h.382812c7.003907 0 12.699219-5.695313 12.699219-12.699219v-61.425781c.003907-1.660156-1.339843-3-3-3zm-3 64.425781c0 3.695313-3.003906 6.699219-6.699219 6.699219h-.382812c-3.695312 0-6.699219-3.003906-6.699219-6.699219v-58.425781h13.78125zm0 0" fill="#3a312a"/><path d="m97.210938 36.015625v61.425781c0 5.355469 4.34375 9.699219 9.699218 9.699219h.382813c5.355469 0 9.699219-4.34375 9.699219-9.699219v-61.425781zm0 0" fill="#d7e057"/><path d="m116.992188 33.015625h-19.78125c-1.660157 0-3 1.339844-3 3v61.425781c0 7.003906 5.695312 12.699219 12.699218 12.699219h.382813c7.003906 0 12.699219-5.695313 12.699219-12.699219v-61.425781c0-1.660156-1.34375-3-3-3zm-3 64.425781c0 3.695313-3.007813 6.699219-6.699219 6.699219h-.382813c-3.695312 0-6.699218-3.003906-6.699218-6.699219v-58.425781h13.78125zm0 0" fill="#3a312a"/><path d="m116.992188 36.015625v61.425781c0 5.355469 4.347656 9.699219 9.703124 9.699219h.378907c5.359375 0 9.703125-4.34375 9.703125-9.699219v-61.425781zm0 0" fill="#d7e057"/><path d="m136.777344 33.015625h-19.785156c-1.65625 0-3 1.339844-3 3v61.425781c0 7.003906 5.699218 12.699219 12.703124 12.699219h.378907c7.003906 0 12.703125-5.695313 12.703125-12.699219v-61.425781c0-1.660156-1.34375-3-3-3zm-3 64.425781c0 3.695313-3.007813 6.699219-6.703125 6.699219h-.378907c-3.699218 0-6.703124-3.003906-6.703124-6.699219v-58.425781h13.785156zm0 0" fill="#3a312a"/><path d="m136.777344 36.015625v61.425781c0 5.355469 4.34375 9.699219 9.699218 9.699219h.382813c5.355469 0 9.699219-4.34375 9.699219-9.699219v-61.425781zm0 0" fill="#d7e057"/><path d="m156.558594 33.015625h-19.78125c-1.660156 0-3 1.339844-3 3v61.425781c0 7.003906 5.695312 12.699219 12.699218 12.699219h.382813c7.003906 0 12.699219-5.695313 12.699219-12.699219v-61.425781c0-1.660156-1.339844-3-3-3zm-3 64.425781c0 3.695313-3.007813 6.699219-6.699219 6.699219h-.382813c-3.695312 0-6.699218-3.003906-6.699218-6.699219v-58.425781h13.78125zm0 0" fill="#3a312a"/><path d="m156.558594 36.015625v61.425781c0 5.355469 4.34375 9.699219 9.703125 9.699219h.378906c5.359375 0 9.703125-4.34375 9.703125-9.699219v-61.425781zm0 0" fill="#d7e057"/><path d="m176.34375 33.015625h-19.785156c-1.65625 0-3 1.339844-3 3v61.425781c0 7.003906 5.699218 12.699219 12.703125 12.699219h.378906c7.003906 0 12.703125-5.695313 12.703125-12.699219v-61.425781c0-1.660156-1.339844-3-3-3zm-3 64.425781c0 3.695313-3.003906 6.699219-6.703125 6.699219h-.378906c-3.695313 0-6.703125-3.003906-6.703125-6.699219v-58.425781h13.785156zm0 0" fill="#3a312a"/><path d="m176.34375 36.015625v61.425781c0 5.355469 4.34375 9.699219 9.703125 9.699219h.378906c5.359375 0 9.703125-4.34375 9.703125-9.699219v-61.425781zm0 0" fill="#d7e057"/><path d="m196.128906 33.015625h-19.785156c-1.65625 0-3 1.339844-3 3v61.425781c0 7.003906 5.699219 12.699219 12.703125 12.699219h.378906c7.003907 0 12.703125-5.695313 12.703125-12.699219v-61.425781c0-1.660156-1.34375-3-3-3zm-3 64.425781c0 3.695313-3.007812 6.699219-6.703125 6.699219h-.378906c-3.695313 0-6.703125-3.003906-6.703125-6.699219v-58.425781h13.785156zm0 0" fill="#3a312a"/><g fill="#decaad"><path d="m316.078125 150.140625c0-13.640625 6.398437-25.78125 16.320313-33.660156-3.980469-6.519531-6.320313-14.160157-6.320313-22.339844 0-8.902344 2.71875-17.179687 7.359375-24.039063-11.660156-3.863281-24.238281-5.960937-37.378906-5.960937-5.0625 0-10.0625.300781-14.980469.917969 4.769531.605468 9.441406 1.484375 13.992187 2.621094 4.113282 1.023437 6.242188 5.476562 4.550782 9.363281-2.277344 5.242187-3.542969 11.023437-3.542969 17.097656 0 6.46875 1.464844 12.597656 4.042969 18.105469 1.164062 2.484375.644531 5.480468-1.304688 7.410156-8.574218 8.503906-13.609375 20.5625-12.613281 33.789062 1.527344 20.324219 17.597656 37.082032 37.84375 39.40625 7.097656.8125 13.902344-.128906 20.050781-2.410156-16.339844-6.101562-28.019531-21.859375-28.019531-40.300781zm0 0"/><path d="m396.496094 171.261719c-5.757813 10.136719-15.476563 17.738281-27.058594 20.617187-2.660156 7.402344-6.320312 14.519532-10.941406 21.199219-14.796875 21.421875-26 46.402344-33.316406 74.320313l-31.582032 142.222656c-.941406 3.558594-2.757812 6.699218-5.199218 9.199218 3.78125 3.941407 9.121093 6.378907 15.019531 6.378907 9.480469 0 17.78125-6.417969 20.179687-15.578125l31.582032-142.222656c7.316406-27.917969 18.519531-52.898438 33.316406-74.320313 8.460937-12.238281 13.742187-25.976563 15.542968-40.257813-2.582031-.296874-5.121093-.820312-7.542968-1.558593zm0 0"/></g></svg>