<svg height="453pt" viewBox="0 -1 453.504 453" width="453pt" xmlns="http://www.w3.org/2000/svg"><path d="m64.839844 376.1875c-1.949219 23.125-26.046875 26.777344-26.046875 26.777344 20.691406.972656 25.847656 28.117187 25.847656 28.117187.445313-19.355469 26.644531-28.402343 26.644531-28.402343-19.628906-1.175782-26.445312-26.492188-26.445312-26.492188zm0 0" fill="#d7e057"/><path d="m91.460938 399.683594c-17.207032-1.03125-23.664063-24.050782-23.726563-24.28125-.378906-1.40625-1.6875-2.332032-3.167969-2.203125-1.449218.128906-2.59375 1.28125-2.714844 2.734375-1.71875 20.429687-22.628906 23.925781-23.507812 24.0625-1.527344.230468-2.628906 1.582031-2.546875 3.125.078125 1.539062 1.3125 2.765625 2.855469 2.839844 18.054687.851562 22.996094 25.4375 23.042968 25.683593.273438 1.421875 1.519532 2.433594 2.945313 2.433594.082031 0 .167969 0 .25-.007813 1.53125-.128906 2.714844-1.386718 2.75-2.921874.390625-17.015626 24.382813-25.550782 24.628906-25.636719 1.351563-.46875 2.183594-1.828125 1.988281-3.246094-.199218-1.414063-1.367187-2.496094-2.796874-2.582031zm-27.132813 20.691406c-2.710937-6.257812-7.414063-13.8125-15.171875-17.753906 5.863281-2.808594 12.816406-7.824219 16.402344-16.542969 3.101562 6.140625 8.402344 13.761719 16.667968 17.445313-6.011718 3.277343-13.84375 8.8125-17.898437 16.851562zm0 0" fill="#3a312a"/><path d="m21.441406 410.148438c-1.378906 16.359374-18.421875 18.941406-18.421875 18.941406 14.632813.6875 18.28125 19.886718 18.28125 19.886718.3125-13.6875 18.84375-20.089843 18.84375-20.089843-13.878906-.832031-18.703125-18.738281-18.703125-18.738281zm0 0" fill="#d7e057"/><path d="m40.324219 425.890625c-11.53125-.6875-15.941407-16.371094-15.984375-16.527344-.378906-1.40625-1.738282-2.320312-3.164063-2.203125-1.453125.128906-2.601562 1.285156-2.722656 2.734375-1.15625 13.742188-15.292969 16.136719-15.882813 16.230469-1.527343.230469-2.6289058 1.578125-2.5468745 3.121094.0820315 1.539062 1.3164065 2.769531 2.8554685 2.84375 12.070313.566406 15.449219 17.285156 15.480469 17.449218.269531 1.425782 1.515625 2.441407 2.945313 2.441407.082031 0 .164062-.003907.25-.011719 1.53125-.125 2.714843-1.386719 2.75-2.921875.261718-11.417969 16.664062-17.265625 16.824218-17.320313 1.351563-.46875 2.1875-1.828124 1.992188-3.246093-.195313-1.421875-1.367188-2.503907-2.796875-2.589844zm-19.167969 13.589844c-1.847656-3.769531-4.679688-7.890625-8.894531-10.558594 3.710937-2.082031 7.394531-5.261719 9.742187-9.832031 2.113282 3.75 5.308594 7.910156 9.882813 10.449218-3.699219 2.199219-7.980469 5.476563-10.730469 9.941407zm0 0" fill="#3a312a"/><path d="m21.441406 356.832031c-1.378906 16.359375-18.421875 18.941407-18.421875 18.941407 14.632813.6875 18.28125 19.886718 18.28125 19.886718.3125-13.6875 18.84375-20.089844 18.84375-20.089844-13.878906-.832031-18.703125-18.738281-18.703125-18.738281zm0 0" fill="#d7e057"/><path d="m40.324219 372.574219c-11.53125-.6875-15.941407-16.371094-15.984375-16.527344-.378906-1.40625-1.738282-2.316406-3.164063-2.203125-1.453125.128906-2.601562 1.28125-2.722656 2.734375-1.15625 13.742187-15.292969 16.132813-15.882813 16.226563-1.527343.230468-2.6289058 1.582031-2.5468745 3.125.0820315 1.539062 1.3164065 2.765624 2.8554685 2.839843 12.070313.570313 15.449219 17.289063 15.480469 17.453125.269531 1.421875 1.515625 2.4375 2.945313 2.4375.082031 0 .164062 0 .25-.007812 1.53125-.125 2.714843-1.386719 2.75-2.921875.261718-11.421875 16.664062-17.269531 16.824218-17.324219 1.351563-.46875 2.1875-1.828125 1.992188-3.246094-.195313-1.417968-1.367188-2.5-2.796875-2.585937zm-19.167969 13.589843c-1.847656-3.769531-4.679688-7.890624-8.894531-10.558593 3.710937-2.082031 7.394531-5.257813 9.742187-9.832031 2.113282 3.75 5.308594 7.910156 9.882813 10.449218-3.699219 2.199219-7.980469 5.480469-10.730469 9.941406zm0 0" fill="#3a312a"/><path d="m348.421875 3.253906c-17.742187 0-32.128906 14.199219-32.128906 31.710938v328.046875h-179.324219v84.242187h243.582031v-412.289062c0-17.511719-14.386719-31.710938-32.128906-31.710938zm0 0" fill="#fce8cb"/><path d="m348.421875.253906c-19.371094 0-35.128906 15.570313-35.128906 34.710938v325.046875h-176.324219c-1.65625 0-3 1.339843-3 3v84.238281c0 1.65625 1.34375 3 3 3h49.398438c1.65625 0 3-1.34375 3-3s-1.34375-3-3-3h-46.398438v-78.238281h176.324219c1.65625 0 3-1.34375 3-3v-328.046875c0-15.832032 13.066406-28.710938 29.128906-28.710938s29.128906 12.878906 29.128906 28.710938v409.285156h-165.414062c-1.65625 0-3 1.34375-3 3s1.34375 3 3 3h168.414062c1.65625 0 3-1.34375 3-3v-412.285156c0-19.140625-15.757812-34.710938-35.128906-34.710938zm0 0" fill="#3a312a"/><path d="m136.96875 376.128906h243.582031v34.238282h-243.582031zm0 0" fill="#8ac6dd"/><path d="m380.550781 373.128906h-243.582031c-1.65625 0-3 1.339844-3 3v34.238282c0 1.660156 1.34375 3 3 3h243.582031c1.65625 0 3-1.339844 3-3v-34.238282c0-1.65625-1.34375-3-3-3zm-3 34.238282h-237.582031v-28.238282h237.582031zm0 0" fill="#3a312a"/><path d="m412.992188 25.234375h-372.480469c2.421875 3.398437 3.839843 7.539063 3.839843 12.019531 0 4.480469-1.417968 8.621094-3.839843 12.019532h372.480469c-2.421876-3.398438-3.839844-7.539063-3.839844-12.019532 0-4.480468 1.417968-8.621094 3.839844-12.019531zm0 0" fill="#87796f"/><path d="m412.152344 37.253906c0-3.707031 1.132812-7.261718 3.285156-10.28125.652344-.914062.738281-2.117187.21875-3.113281-.511719-1-1.539062-1.628906-2.664062-1.628906h-372.480469c-1.125 0-2.152344.628906-2.664063 1.628906-.519531.996094-.433594 2.199219.21875 3.113281 2.148438 3.019532 3.285156 6.574219 3.285156 10.28125 0 3.707032-1.132812 7.261719-3.285156 10.28125-.652344.914063-.738281 2.113282-.21875 3.113282.511719.996093 1.539063 1.625 2.664063 1.625h372.480469c1.121093 0 2.152343-.625 2.664062-1.625.519531-1 .433594-2.199219-.21875-3.113282-2.148438-3.019531-3.285156-6.574218-3.285156-10.28125zm-366.578125 9.019532c1.171875-2.839844 1.777343-5.890626 1.777343-9.019532s-.605468-6.179687-1.773437-9.019531h362.347656c-1.167969 2.839844-1.773437 5.890625-1.773437 9.019531s.605468 6.179688 1.777344 9.019532zm0 0" fill="#3a312a"/><path d="m44.363281 37.253906c0 11.421875-9.261719 20.679688-20.683593 20.679688-11.421876 0-20.683594-9.257813-20.683594-20.679688 0-11.425781 9.261718-20.683594 20.683594-20.683594 11.421874 0 20.683593 9.257813 20.683593 20.683594zm0 0" fill="#87796f"/><path d="m23.683594 13.570312c-13.058594 0-23.683594 10.625-23.683594 23.683594 0 13.054688 10.621094 23.679688 23.683594 23.679688 13.054687 0 23.679687-10.625 23.679687-23.679688 0-13.058594-10.625-23.683594-23.679687-23.683594zm0 41.363282c-9.75 0-17.683594-7.933594-17.683594-17.679688 0-9.75 7.933594-17.683594 17.683594-17.683594 9.746094 0 17.679687 7.933594 17.679687 17.683594 0 9.746094-7.933593 17.679688-17.679687 17.679688zm0 0" fill="#3a312a"/><path d="m429.824219 16.570312c-11.421875 0-20.679688 9.257813-20.679688 20.683594 0 11.421875 9.257813 20.679688 20.679688 20.679688s20.683593-9.257813 20.683593-20.679688c-.003906-11.425781-9.261718-20.683594-20.683593-20.683594zm0 0" fill="#87796f"/><path d="m429.820312 13.570312c-13.054687 0-23.679687 10.625-23.679687 23.683594 0 13.054688 10.625 23.679688 23.679687 23.679688 13.058594 0 23.683594-10.625 23.683594-23.679688 0-13.058594-10.625-23.683594-23.683594-23.683594zm0 41.363282c-9.746093 0-17.679687-7.933594-17.679687-17.679688 0-9.75 7.933594-17.683594 17.679687-17.683594 9.75 0 17.683594 7.933594 17.683594 17.683594 0 9.746094-7.933594 17.679688-17.683594 17.679688zm0 0" fill="#3a312a"/><path d="m106.414062 3.253906c-18.480468 0-33.453124 14.972656-33.453124 33.453125v326.304688h243.320312v-328.050781c0-17.507813 14.402344-31.707032 32.128906-31.707032zm0 0" fill="#fce8cb"/><path d="m348.414062.253906h-242c-20.101562 0-36.453124 16.351563-36.453124 36.453125v96.21875c0 1.65625 1.34375 3 3 3s3-1.34375 3-3v-96.222656c0-16.792969 13.660156-30.453125 30.453124-30.453125h222.277344c-9.292968 6.253906-15.40625 16.789062-15.40625 28.710938v325.046874h-237.324218v-200.429687c0-1.65625-1.34375-3-3-3s-3 1.34375-3 3v203.429687c0 1.65625 1.34375 3 3 3h243.320312c1.65625 0 3-1.34375 3-3v-328.046874c0-15.832032 13.070312-28.707032 29.132812-28.707032 1.65625 0 3-1.34375 3-3 0-1.660156-1.34375-3-3-3zm0 0" fill="#3a312a"/><path d="m72.953125 291.886719h243.582031v34.242187h-243.582031zm0 0" fill="#8ac6dd"/><path d="m316.535156 288.886719h-243.582031c-1.65625 0-3 1.34375-3 3v34.242187c0 1.65625 1.34375 3 3 3h243.582031c1.65625 0 3-1.34375 3-3v-34.242187c0-1.65625-1.34375-3-3-3zm-3 34.242187h-237.582031v-28.242187h237.582031zm0 0" fill="#3a312a"/><path d="m194.988281 154.335938c-20.925781.054687-37.835937 20.703124-37.785156 38.074218.046875 17.371094 17.019531 20.355469 37.945313 20.296875 20.929687-.058593 37.886718-3.132812 37.835937-20.507812-.042969-17.371094-17.070313-37.921875-37.996094-37.863281zm0 0" fill="#87796f"/><path d="m224.003906 164.675781c-8.105468-8.605469-18.375-13.339843-28.925781-13.339843h-.097656c-10.585938.027343-20.863281 4.820312-28.945313 13.5-7.4375 7.980468-11.859375 18.292968-11.835937 27.582031.0625 22.441406 25.457031 23.292969 39.25 23.292969.589843 0 1.164062 0 1.707031-.003907 13.277344-.035156 40.890625-.109375 40.828125-23.511719-.023437-9.292968-4.503906-19.578124-11.980469-27.519531zm-28.863281 45.03125c-.175781 0-.351563 0-.523437 0-24.722657 0-34.382813-4.871093-34.417969-17.308593-.042969-15.839844 15.46875-35.015626 34.796875-35.066407h.078125c8.878906 0 17.601562 4.066407 24.558593 11.457031 6.460938 6.859376 10.328126 15.613282 10.351563 23.417969.035156 12.527344-9.734375 17.433594-34.84375 17.5zm0 0" fill="#3a312a"/><path d="m194.851562 103.007812c-8.199218.019532-14.816406 8.566407-14.789062 19.085938.027344 10.515625 6.695312 19.023438 14.890625 19.003906 8.195313-.023437 14.816406-8.570312 14.789063-19.085937-.03125-10.519531-6.699219-19.027344-14.890626-19.003907zm0 0" fill="#87796f"/><path d="m207.71875 106.703125c-3.394531-4.332031-8.023438-6.746094-12.875-6.695313-9.835938.027344-17.8125 9.9375-17.785156 22.09375.035156 12.136719 8.042968 21.992188 17.863281 21.992188h.039063c4.910156-.015625 9.46875-2.417969 12.84375-6.769531 3.199218-4.128907 4.953124-9.570313 4.9375-15.324219-.019532-5.75-1.800782-11.183594-5.023438-15.296875zm-.980469 15.316406c.015625 4.421875-1.292969 8.550781-3.679687 11.632813-2.210938 2.859375-5.097656 4.4375-8.113282 4.445312h-.027343c-6.515625-.003906-11.832031-7.175781-11.859375-16.011718-.023438-8.847657 5.269531-16.0625 11.796875-16.078126h.023437c3.007813 0 5.890625 1.558594 8.113282 4.398438 2.40625 3.066406 3.734374 7.191406 3.746093 11.613281zm0 0" fill="#3a312a"/><path d="m165.808594 130.285156c-4.941406-9.289062-14.808594-13.695312-22.042969-9.847656-7.238281 3.847656-9.101563 14.496094-4.160156 23.78125 4.9375 9.289062 14.804687 13.695312 22.042969 9.847656 7.234374-3.847656 9.097656-14.496094 4.160156-23.78125zm0 0" fill="#87796f"/><path d="m168.457031 128.875c-2.699219-5.078125-6.816406-9.050781-11.585937-11.179688-5.027344-2.242187-10.183594-2.210937-14.515625.09375-4.332031 2.304688-7.242188 6.5625-8.195313 11.984376-.898437 5.148437.09375 10.777343 2.792969 15.855468 2.699219 5.082032 6.816406 9.050782 11.585937 11.179688 2.480469 1.105468 4.988282 1.660156 7.417969 1.660156 2.492188 0 4.902344-.582031 7.097657-1.753906 4.335937-2.304688 7.246093-6.558594 8.191406-11.984375.902344-5.144531-.089844-10.777344-2.789063-15.855469zm-3.117187 14.820312c-.625 3.5625-2.4375 6.300782-5.101563 7.71875-2.667969 1.421876-5.953125 1.386719-9.25-.085937-3.558593-1.589844-6.660156-4.613281-8.734375-8.519531-2.078125-3.90625-2.851562-8.167969-2.183594-12.003906.625-3.5625 2.4375-6.300782 5.101563-7.71875 1.304687-.695313 2.761719-1.042969 4.292969-1.042969 1.59375 0 3.273437.375 4.960937 1.128906 3.554688 1.585937 6.65625 4.613281 8.730469 8.515625v.003906c2.078125 3.90625 2.855469 8.167969 2.183594 12.003906zm0 0" fill="#3a312a"/><path d="m135.34375 158.671875c-8.390625-6.34375-19.199219-6.183594-24.140625.359375-4.941406 6.539062-2.144531 16.980469 6.25 23.320312 8.390625 6.339844 19.199219 6.179688 24.140625-.359374 4.941406-6.539063 2.140625-16.980469-6.25-23.320313zm0 0" fill="#87796f"/><path d="m146.367188 169.480469c-1.351563-5.046875-4.625-9.738281-9.214844-13.203125-4.496094-3.398438-9.777344-5.257813-14.898438-5.257813-.109375 0-.210937 0-.316406 0-5.503906.082031-10.164062 2.285157-13.125 6.203125-2.960938 3.914063-3.804688 9-2.378906 14.320313 1.351562 5.046875 4.621094 9.734375 9.210937 13.203125 4.496094 3.398437 9.78125 5.257812 14.902344 5.257812h.316406c5.503907-.082031 10.164063-2.285156 13.121094-6.203125 2.960937-3.917969 3.808594-9.003906 2.382813-14.320312zm-7.167969 10.703125c-1.820313 2.410156-4.8125 3.765625-8.425781 3.820312-3.832032.019532-7.984376-1.378906-11.511719-4.046875-3.53125-2.664062-6.03125-6.203125-7.039063-9.96875-.933594-3.492187-.445312-6.742187 1.375-9.148437 1.816406-2.410156 4.8125-3.765625 8.429688-3.820313h.226562c3.824219 0 7.820313 1.433594 11.28125 4.046875 3.53125 2.664063 6.027344 6.207032 7.035156 9.96875.9375 3.492188.449219 6.738282-1.371093 9.148438zm0 0" fill="#3a312a"/><path d="m246.261719 120.15625c-7.253907-3.808594-17.101563.652344-21.988281 9.964844-4.890626 9.316406-2.96875 19.953125 4.289062 23.761718 7.257812 3.808594 17.101562-.65625 21.988281-9.96875 4.890625-9.3125 2.96875-19.949218-4.289062-23.757812zm0 0" fill="#87796f"/><path d="m247.65625 117.5c-8.710938-4.574219-20.390625.464844-26.042969 11.226562v.003907c-5.648437 10.761719-3.15625 23.238281 5.550781 27.808593 2.1875 1.148438 4.550782 1.6875 6.964844 1.6875 7.222656 0 14.84375-4.847656 19.078125-12.914062 5.652344-10.765625 3.160157-23.242188-5.550781-27.8125zm.238281 25.023438c-4.109375 7.832031-12.152343 11.742187-17.9375 8.703124-5.78125-3.03125-7.140625-11.875-3.03125-19.707031 4.113281-7.832031 12.160157-11.742187 17.941407-8.707031s7.140624 11.875 3.027343 19.710938zm0 0" fill="#3a312a"/><path d="m278.277344 158.570312c-4.976563-6.511718-15.785156-6.613281-24.140625-.222656-8.355469 6.382813-11.097657 16.84375-6.121094 23.355469s15.785156 6.613281 24.140625.226563c8.359375-6.390626 11.101562-16.84375 6.121094-23.359376zm0 0" fill="#87796f"/><path d="m280.660156 156.75c-2.976562-3.898438-7.652344-6.078125-13.15625-6.128906-5.164062-.019532-10.621094 1.847656-15.191406 5.339844-4.570312 3.492187-7.816406 8.199218-9.136719 13.253906-1.398437 5.328125-.527343 10.40625 2.457031 14.308594 3.097657 4.050781 8.011719 6.101562 13.371094 6.101562 4.972656 0 10.328125-1.761719 14.976563-5.3125 9.65625-7.382812 12.65625-19.746094 6.679687-27.5625zm-10.324218 22.792969c-7.03125 5.371093-15.972657 5.519531-19.9375.335937-1.832032-2.398437-2.339844-5.648437-1.421876-9.144531.988282-3.765625 3.46875-7.320313 6.980469-10.007813 3.46875-2.652343 7.492188-4.105468 11.347657-4.105468h.140624c3.617188.035156 6.617188 1.375 8.449219 3.773437 3.964844 5.183594 1.472657 13.777344-5.558593 19.148438zm0 0" fill="#3a312a"/><g fill="#decaad"><path d="m347.550781 413.371094h30v30.882812h-30zm0 0"/><path d="m348.410156 6.253906c-5.476562 0-10.597656 1.519532-14.976562 4.136719 4.71875 2.820313 8.578125 6.941406 11.058594 11.839844h30c-4.78125-9.457031-14.660157-15.976563-26.082032-15.976563zm0 0"/><path d="m347.550781 52.273438h30v320.859374h-30zm0 0"/></g><path d="m347.550781 379.128906h30v28.242188h-30zm0 0" fill="#6ca8bf"/></svg>